<svg xmlns="http://www.w3.org/2000/svg"
        class="css-9txd9r"
        focusable="false"
        viewBox="0 0 24 24"
        data-icon-name="CiberMobilePlant"
      >
        <path
          d="M4.9 18.2c-.4 0-.7-.1-1-.3-.3.2-.6.3-1 .3-.5 0-.9-.2-1.3-.5H1c-.6 0-1-.4-1-1v-.2c0-.2.1-.4.1-.5-.1-.1-.1-.3-.1-.4v-.3c0-.2 0-.3.1-.5V9.6c0-.5.4-1 .9-1 .2-.1.4-.2.6-.2H3c.2 0 .5.1.6.2h9.5c.1-.1.2-.1.3-.1.1-.1.3-.1.4-.1h2.7c.1 0 .3 0 .4.1.1 0 .2-.1.4-.1h1.1c.1 0 .3 0 .4.1.1 0 .2-.1.4-.1h1.1c.1 0 .3 0 .4.1.1 0 .2-.1.4-.1h1.1c.2 0 .3 0 .4.1h.1c.6 0 1 .4 1 1v1.3c0 .3-.2.6-.4.8v3.5c0 .6-.4 1-1 1h-2.1v.7c.2.3.1.7 0 1-.2.3-.5.5-.9.5h-.6c-.3 0-.7-.2-.9-.5 0-.1-.1-.2-.1-.2H8.5l-.3.2c-.2.1-.3.1-.5.1H6.2c-.4.2-.8.3-1.3.3"
          class="outline"
          fill="#FFFFFF"
        ></path>
        <path d="M21.1 11h.7v1.6h-.7z" class="secondary" fill="#FB5A02"></path>
        <path
          d="M21.1 11h.7v1.6h-.7z"
          class="shadow"
          opacity=".3"
          fill="#333"
        ></path>
        <path
          d="M21.1 11h.7v1.6h-.7z"
          class="shadow"
          opacity=".3"
          fill="#333"
        ></path>
        <path d="M18.9 11h.7v3.7h-.7z" class="secondary" fill="#FB5A02"></path>
        <path
          d="M18.9 11h.7v3.7h-.7z"
          class="shadow"
          opacity=".3"
          fill="#333"
        ></path>
        <path
          d="M18.9 11h.7v3.7h-.7z"
          class="shadow"
          opacity=".3"
          fill="#333"
        ></path>
        <path d="M17.1 11h.7v5h-.7z" class="secondary" fill="#FB5A02"></path>
        <path
          d="M17.1 11h.7v5h-.7z"
          class="shadow"
          opacity=".3"
          fill="#333"
        ></path>
        <path
          d="M17.1 11h.7v5h-.7z"
          class="shadow"
          opacity=".3"
          fill="#333"
        ></path>
        <path d="M15.9 11h.7v5h-.7z" class="secondary" fill="#FB5A02"></path>
        <path
          d="M15.9 11h.7v5h-.7z"
          class="shadow"
          opacity=".3"
          fill="#333"
        ></path>
        <path
          d="M15.9 11h.7v5h-.7z"
          class="shadow"
          opacity=".3"
          fill="#333"
        ></path>
        <path
          d="M7.6 10.2v4.2l6.1-1.1V9.9z"
          class="primary"
          fill="#FFFFFF"
        ></path>
        <path
          d="M7.6 10.2v4.2l6.1-1.1V9.9z"
          class="shadow"
          opacity=".3"
          fill="#333"
        ></path>
        <path
          d="M7 10.6h7.3v.5H7z"
          class="highlight"
          transform="rotate(-5.373 10.688 10.815)"
          opacity=".3"
          fill="#fff"
        ></path>
        <path
          d="M7 11.4h7.3v.5H7z"
          class="shadow"
          transform="rotate(-5.373 10.688 11.657)"
          opacity=".3"
          fill="#333"
        ></path>
        <path
          d="M7 13h7.3v.5H7z"
          class="shadow"
          transform="rotate(-10.212 10.69 13.277)"
          opacity=".3"
          fill="#333"
        ></path>
        <path
          d="M7 11.1h7.3v.1H7z"
          class="highlight"
          transform="rotate(-5.373 10.672 11.164)"
          opacity=".3"
          fill="#fff"
        ></path>
        <path
          d="M7.9 14.3v-3.6l2.6-.2.3 2.8h.2v-2.8l2.5-.3V10l-5.9.5.1 3.8z"
          class="shadow"
          opacity=".3"
          fill="#333"
        ></path>
        <path
          d="M13.7 9.9v-.3H4.5v1.3l2.5-.2v3.8h.8v-3.9l2.4-.2V14h.7v-3.7l2.4-.2v2.1h.6V9.9z"
          class="quinary"
          fill="gray"
        ></path>
        <path
          d="M7.6 10.6v3.9h.2v-3.9zM10.7 10.4V14h.2v-3.7zM10.2 10.4V14h.2v-3.6zM13.3 10.1v1.6h.1v-1.6z"
          class="shadow"
          opacity=".3"
          fill="#333"
        ></path>
        <path
          d="M7.6 10.6v3.9h.2v-3.9zM10.7 10.4V14h.2v-3.7zM10.2 10.4V14h.2v-3.6zM13.3 10.1v1.6h.1v-1.6z"
          class="shadow"
          opacity=".3"
          fill="#333"
        ></path>
        <path
          d="m4.5 10.9 9.2-.8v-.2l-9.2.8z"
          class="shadow"
          opacity=".3"
          fill="#333"
        ></path>
        <path
          d="M4.7 9.7h8.9v.1H4.7z"
          class="highlight"
          opacity=".3"
          fill="#fff"
        ></path>
        <path d="M7.5 14.4h6.3v.4H7.5z" class="secondary" fill="#FB5A02"></path>
        <path
          d="M7.5 14.4h6.3v.4H7.5z"
          class="shadow"
          opacity=".3"
          fill="#333"
        ></path>
        <path
          d="M7.5 14.4h6.3v.4H7.5z"
          class="shadow"
          opacity=".3"
          fill="#333"
        ></path>
        <path d="M9.8 14h4v.2h-4z" class="secondary" fill="#FB5A02"></path>
        <path
          d="M9.8 14h4v.2h-4z"
          class="shadow"
          opacity=".3"
          fill="#333"
        ></path>
        <path
          d="M9.8 14h4v.2h-4z"
          class="shadow"
          opacity=".3"
          fill="#333"
        ></path>
        <path
          d="M7.4 13.7h6.5v.4H7.4z"
          class="secondary"
          transform="rotate(-10.212 10.657 13.882)"
          fill="#FB5A02"
        ></path>
        <path
          d="M7.4 13.7h6.5v.4H7.4z"
          class="shadow"
          transform="rotate(-10.212 10.657 13.882)"
          opacity=".3"
          fill="#333"
        ></path>
        <path
          d="M7.4 13.7h6.5v.4H7.4z"
          class="shadow"
          transform="rotate(-10.212 10.657 13.882)"
          opacity=".3"
          fill="#333"
        ></path>
        <path d="M9.6 15h4.1v.4H9.6z" class="senary" fill="#333"></path>
        <path d="M11.8 14.9h1.5v.7h-1.5z" class="senary" fill="#333"></path>
        <circle
          cx="12.5"
          cy="15.2"
          r=".2"
          class="highlight"
          opacity=".3"
          fill="#fff"
        ></circle>
        <path
          d="m10 15.8-.1-.2 2.5-1.9.1.1z"
          class="secondary"
          fill="#FB5A02"
        ></path>
        <path
          d="m10 15.8-.1-.2 2.5-1.9.1.1z"
          class="shadow"
          opacity=".3"
          fill="#333"
        ></path>
        <path
          d="M18.8 13.4h1.6v.9h-1.6z"
          class="quaternary"
          fill="#ffde00"
        ></path>
        <path
          d="M15.8 11.9v-.6h.5v.2h2.5v2.9h-.6v.8h-2.4z"
          class="primary"
          fill="#FFFFFF"
        ></path>
        <path
          d="M16.5 14.8h-.7v-.1h.6l.6-1.1h.3v-1.5h-1.5v-.2h1.7v1.9h-.4z"
          class="secondary"
          fill="#FB5A02"
        ></path>
        <path
          d="M15.8 12.1h1.5v1.5H17l-.6 1.1h-.6z"
          class="quinary"
          fill="gray"
        ></path>
        <path
          d="m15 10.9.8.4v4.3h-.6v-4z"
          class="secondary"
          fill="#FB5A02"
        ></path>
        <path
          d="m15 10.9.8.4v4.3h-.6v-4z"
          class="shadow"
          opacity=".3"
          fill="#333"
        ></path>
        <path
          d="m16.3 11.2-.5.5v-.4l-.3-.1.3-.4v.4z"
          class="shadow"
          opacity=".3"
          fill="#333"
        ></path>
        <path
          d="m16.3 11.2-.5.5v-.4l-.3-.1.3-.4v.4z"
          class="secondary"
          fill="#FB5A02"
        ></path>
        <path
          d="m15 10.9.8.4v4.3h-.6v-4z"
          class="shadow"
          opacity=".3"
          fill="#333"
        ></path>
        <path
          d="m16.3 11.2-.5.5v-.4l-.3-.1.3-.4v.4z"
          class="shadow"
          opacity=".3"
          fill="#333"
        ></path>
        <path
          d="M18.8 12.2H22v.9h-3.2z"
          class="quaternary"
          fill="#ffde00"
        ></path>
        <path
          d="M13.7 14.6h.6v1h-.6zM14.7 14.6h.5v1h-.5z"
          class="secondary"
          fill="#FB5A02"
        ></path>
        <path
          d="M13.7 14.6h.6v1h-.6zM14.7 14.6h.5v1h-.5z"
          class="shadow"
          opacity=".3"
          fill="#333"
        ></path>
        <path
          d="M13.7 14.6h.6v1h-.6zM14.7 14.6h.5v1h-.5z"
          class="shadow"
          opacity=".3"
          fill="#333"
        ></path>
        <circle
          cx="14.1"
          cy="15.3"
          r=".2"
          class="primary"
          fill="#FFFFFF"
        ></circle>
        <path
          d="M15.1 11.3h-1.2V9.4h1.2l.8 1.2zM1.4 15.1h6.1v1.4H1.4z"
          class="secondary"
          fill="#FB5A02"
        ></path>
        <path
          d="M1.4 15.1h6.1v1.4H1.4z"
          class="shadow"
          opacity=".3"
          fill="#333"
        ></path>
        <path
          d="M1.4 15.1h6.1v1.4H1.4z"
          class="shadow"
          opacity=".3"
          fill="#333"
        ></path>
        <path
          d="M1 16.5h.8v.2H1zM1.1 15.4h.4v.3h-.4z"
          class="secondary"
          fill="#FB5A02"
        ></path>
        <path d="M1.2 15.6h.2v.9h-.2z" class="secondary" fill="#FB5A02"></path>
        <path
          d="M1 16.5h.8v.2H1zM1.1 15.4h.4v.3h-.4z"
          class="shadow"
          opacity=".3"
          fill="#333"
        ></path>
        <path
          d="M1.2 15.6h.2v.9h-.2z"
          class="shadow"
          opacity=".3"
          fill="#333"
        ></path>
        <path
          d="M7.5 15.1H1.2V9.6H4v.2h2.3c.6 0 1 .4 1.1 1l.3 4.1c0 .1-.1.2-.2.2"
          class="primary"
          fill="#FFFFFF"
        ></path>
        <path
          d="M15.8 11.9v-.6h.5v.2h2.5v2.9h-.6v.8h-2.4zM7.5 15.1H1.2V9.6H4v.2h2.3c.6 0 1 .4 1.1 1l.3 4.1c0 .1-.1.2-.2.2"
          class="shadow"
          opacity=".3"
          fill="#333"
        ></path>
        <path d="M1.4 13h1.1v.3H1.4z" class="secondary" fill="#FB5A02"></path>
        <circle cx="4.4" cy="13.6" r=".2" class="senary" fill="#333"></circle>
        <circle cx="4.4" cy="14.6" r=".2" class="senary" fill="#333"></circle>
        <circle cx="3.5" cy="14.6" r=".2" class="senary" fill="#333"></circle>
        <path
          d="M3.3 9.6H1.6c0-.1.1-.1.1-.1h1.4c.1-.1.2 0 .2.1"
          class="quaternary"
          fill="#ffde00"
        ></path>
        <circle cx="3" cy="16.3" r=".9" class="senary" fill="#333"></circle>
        <circle cx="3" cy="16.3" r=".5" class="quinary" fill="gray"></circle>
        <circle
          cx="3"
          cy="16.3"
          r=".4"
          class="shadow"
          opacity=".3"
          fill="#333"
        ></circle>
        <circle
          cx="3"
          cy="16.3"
          r=".2"
          class="shadow"
          opacity=".3"
          fill="#333"
        ></circle>
        <circle cx="4.9" cy="16.3" r=".9" class="senary" fill="#333"></circle>
        <circle cx="4.9" cy="16.3" r=".5" class="quinary" fill="gray"></circle>
        <circle
          cx="4.9"
          cy="16.3"
          r=".4"
          class="shadow"
          opacity=".3"
          fill="#333"
        ></circle>
        <circle
          cx="4.9"
          cy="16.3"
          r=".2"
          class="shadow"
          opacity=".3"
          fill="#333"
        ></circle>
        <path
          d="M6 15.6v.9h.3v.3h1.5l.5-.3H19v-.9H8.4l-.6-.3-1.5.4v-.1z"
          class="secondary"
          fill="#FB5A02"
        ></path>
        <path
          d="M6.9 15.9v.7l1.2-.4-.2-.6z"
          class="shadow"
          opacity=".3"
          fill="#333"
        ></path>
        <circle
          cx="7.3"
          cy="16.1"
          r=".2"
          class="highlight"
          opacity=".3"
          fill="#fff"
        ></circle>
        <path
          d="m7.6 16.1.5-.1-.1-.3-.5.2z"
          class="quaternary"
          fill="#ffde00"
        ></path>
        <path d="M15.8 15.4h2.3v.2h-2.3z" class="primary" fill="#FFFFFF"></path>
        <path d="M18.3 15.2h.5v.1h-.5z" class="secondary" fill="#FB5A02"></path>
        <path
          d="M18.3 15.2h.5v.1h-.5z"
          class="shadow"
          opacity=".3"
          fill="#333"
        ></path>
        <path
          d="M18.3 15.2h.5v.1h-.5z"
          class="shadow"
          opacity=".3"
          fill="#333"
        ></path>
        <path
          d="M15.8 10.8v.4h3.9c.3 0 .5.2.5.5v2c0 .3-.2.5-.5.5h-.6l-1 .9h-.3v.1h.4v.2h.8l.5-.5h2.9v-4.3h-6.6zm5.4 3.5h-.4c-.3 0-.2-.2-.2-.5v-2c0-.3.1-.5.4-.5h.2c.3 0 .7.2.7.5v2c.1.3-.4.5-.7.5"
          class="secondary"
          fill="#FB5A02"
        ></path>
        <path
          d="M15.8 10.8v.4h3.9c.3 0 .5.2.5.5v2c0 .3-.2.5-.5.5h-.6l-1 .9h-.3v.1h.4v.2h.8l.5-.5h2.9v-4.3h-6.6zm5.4 3.5h-.4c-.3 0-.2-.2-.2-.5v-2c0-.3.1-.5.4-.5h.2c.3 0 .7.2.7.5v2c.1.3-.4.5-.7.5"
          class="shadow"
          opacity=".3"
          fill="#333"
        ></path>
        <path
          d="m21.1 14.5-.4.2h-.5v-1.5h.5l.4.1z"
          class="shadow"
          opacity=".3"
          fill="#333"
        ></path>
        <path d="M21.1 13.3h.2v.6h-.2z" class="quinary" fill="gray"></path>
        <path
          d="M21.4 13.5h.1v.3h-.1z"
          class="quinary"
          transform="matrix(-1 0 0 -1 42.86 27.294)"
          fill="gray"
        ></path>
        <path
          d="M21.8 14h-.2c-.1 0-.1-.1-.1-.1v-.3c0-.1.1-.1.1-.1h.2c.1 0 .1.1.1.1v.3c.1 0 0 .1-.1.1"
          class="quinary"
          fill="gray"
        ></path>
        <path
          d="M21.1 13.3h.2v.6h-.2z"
          class="shadow"
          opacity=".3"
          fill="#333"
        ></path>
        <path
          d="M21.4 13.5h.1v.3h-.1z"
          class="shadow"
          transform="matrix(-1 0 0 -1 42.86 27.294)"
          opacity=".3"
          fill="#333"
        ></path>
        <path
          d="M21.4 13.5h.1v.3h-.1z"
          class="shadow"
          transform="matrix(-1 0 0 -1 42.86 27.294)"
          opacity=".3"
          fill="#333"
        ></path>
        <path
          d="M21.8 14h-.2c-.1 0-.1-.1-.1-.1v-.3c0-.1.1-.1.1-.1h.2c.1 0 .1.1.1.1v.3c.1 0 0 .1-.1.1"
          class="shadow"
          opacity=".3"
          fill="#333"
        ></path>
        <path d="M20.8 12.4h.9v.4h-.9z" class="quinary" fill="gray"></path>
        <path
          d="M18.8 12.4h.8v.4h-.8z"
          class="quinary"
          transform="matrix(-1 0 0 -1 38.348 25.287)"
          fill="gray"
        ></path>
        <path d="M19.6 13.1h.5v.3h-.5z" class="senary" fill="#333"></path>
        <path
          d="M15.3 9.5h7.5v1.3h-7.5z"
          class="secondary"
          fill="#FB5A02"
        ></path>
        <path
          d="M15.3 9.5h7.5v1.3h-7.5z"
          class="highlight"
          opacity=".3"
          fill="#fff"
        ></path>
        <path
          d="M15.6 9.7h7v.2h-7zM15.6 10h7v.2h-7zM15.6 10.4h7v.2h-7z"
          class="shadow"
          opacity=".3"
          fill="#333"
        ></path>
        <path
          d="M17.4 9.5h.2v1.3h-.2zM20.5 9.5h.2v1.3h-.2zM22.5 9.5h.2v1.3h-.2z"
          class="secondary"
          fill="#FB5A02"
        ></path>
        <path
          d="M17.4 9.5h.2v1.3h-.2zM20.5 9.5h.2v1.3h-.2zM22.5 9.5h.2v1.3h-.2z"
          class="highlight"
          opacity=".3"
          fill="#fff"
        ></path>
        <path
          d="M15.5 9.4h1.1v.1h-1.1zM17.4 9.4h1.1v.1h-1.1zM19.3 9.4h1.1v.1h-1.1zM21.1 9.4h1.1v.1h-1.1z"
          class="secondary"
          fill="#FB5A02"
        ></path>
        <path d="M19 15.4h.3V17H19z" class="senary" fill="#333"></path>
        <path
          d="M19.1 15c-.1 0-.3.1-.3.3v.2h.5v-.2c.1-.2 0-.3-.2-.3M19.3 17H19l-.2.2h.6z"
          class="senary"
          fill="#333"
        ></path>
        <path
          d="m7.5 15.7.2.6.4-.1-.2-.6z"
          class="shadow"
          opacity=".3"
          fill="#333"
        ></path>
        <path
          d="m12.5 14-.5-.1.7-.5v.4z"
          class="secondary"
          fill="#FB5A02"
        ></path>
        <path
          d="m12.5 14-.5-.1.7-.5v.4z"
          class="shadow"
          opacity=".3"
          fill="#333"
        ></path>
        <circle
          cx="12.4"
          cy="13.8"
          r=".1"
          class="secondary"
          fill="#FB5A02"
        ></circle>
        <path
          d="m13.6 14.3 1.8.4v-3c0-.1-.1-.1-.1-.1l-1.7 1.2z"
          class="secondary"
          fill="#FB5A02"
        ></path>
        <path
          d="m13.6 13.8-.5.7 2.1 1.1.3-.9z"
          class="secondary"
          fill="#FB5A02"
        ></path>
        <path
          d="m13.6 13.8-.5.7 2.1 1.1.3-.9z"
          class="highlight"
          opacity=".3"
          fill="#fff"
        ></path>
        <path d="M13.7 9.5h.2v1.3h-.2z" class="secondary" fill="#FB5A02"></path>
        <path
          d="M13.7 9.5h.2v1.3h-.2z"
          class="shadow"
          opacity=".3"
          fill="#333"
        ></path>
        <path
          d="M6.3 9.8H4s.8 0 1.9.5c0 0 .2 4.1-.5 4.6l-1.3.3h3.4c.1 0 .2-.1.2-.2l-.3-4.1c-.1-.7-.5-1.1-1.1-1.1"
          class="secondary"
          fill="#FB5A02"
        ></path>
        <circle cx="7.1" cy="13.6" r=".2" class="senary" fill="#333"></circle>
        <circle cx="7.1" cy="14.6" r=".2" class="senary" fill="#333"></circle>
        <path
          d="m7.9 15.3 5.1-3.8.9-.6h.1l.3-.1c.1-.1.3-.1.4 0l.3.1c.1.1.2.1.2.2l.1.4-5.7 4H8.4z"
          class="secondary"
          fill="#FB5A02"
        ></path>
        <path
          d="m7.9 15.3 5.1-3.8.9-.6h.1l.3-.1c.1-.1.3-.1.4 0l.3.1c.1.1.2.1.2.2l.1.4-5.7 4.1H8.4z"
          class="shadow"
          opacity=".3"
          fill="#333"
        ></path>
        <circle
          cx="14.5"
          cy="11.5"
          r=".3"
          class="highlight"
          opacity=".3"
          fill="#fff"
        ></circle>
        <path
          d="m21.1 14.4-.4.1h-.5v-1.4h.5l.4.1z"
          class="quinary"
          fill="gray"
        ></path>
        <path
          d="M19.8 12.7h.3v.2h-.3zM20.1 14.1h-1.3V14zc.1 0 0 0 0 0M19.8 12.3h.3v.2h-.3zM20.8 12.4h.9v.1h-.9zM20.8 12.8h.9v.1h-.9zM18.8 12.4h.8v.1h-.8zM18.8 12.8h.8v.1h-.8z"
          class="shadow"
          opacity=".3"
          fill="#333"
        ></path>
        <path
          d="M20.3 13.8h-1.5v.2h.7v.3h.3V14h.5z"
          class="quinary"
          fill="gray"
        ></path>
        <path
          d="M20 13.8h.2v.3H20zM18.8 13.8h.2v.3h-.2zM18.8 12.4h.2v.4h-.2zM22.4 10.8h-7.1v.2h.1l.2-.2h.2l-.1.2h6.7zM17.8 11.6h.1v3.6h-.1zM6.8 11v-.2H4V9.6h-.2V14H1.2v.2h2.6v.9H4v-2h2.8v-.2H4V11z"
          class="shadow"
          opacity=".3"
          fill="#333"
        ></path></svg>
