<svg xmlns="http://www.w3.org/2000/svg"
      class="css-9txd9r"
      focusable="false"
      viewBox="0 0 48 48"
      data-icon-name="CombineHeaderBean"
      size="65"
    >
      <path
        id="CombineHeaderBean__outline"
        d="M47.417 31.084a2 2 0 0 0-1.413-.585h-.253c-.362 0-.716.099-1.026.285l-.862.517-4.567-2.854c2.024-2.118 3.208-4.967 3.208-7.949 0-6.341-5.159-11.5-11.5-11.5-4.244 0-8.151 2.392-10.132 6.081l-.821.085a2 2 0 0 0-.978-.158l-2.75.25a2 2 0 0 0-1.029.399l-.07.007a2 2 0 0 0-1.22-.415h-.688l-.121-.485a2 2 0 0 0-.526-.929l-.5-.5a2 2 0 0 0-1.034-.549l-7.75-1.5a1.999 1.999 0 0 0-1.58.364l-1 .75C.3 12.778.003 13.37.003 14v7.25a2 2 0 0 0 2 2h.5v1.25q0 .335.109.652l2.5 7.25a2 2 0 0 0 1.618 1.329l27.25 3.75q.136.019.273.019c.361 0 .717-.098 1.029-.285l.104-.062q.147.048.301.072l6.25 1 .117.015 2.5.25q.1.01.199.01c.528 0 1.038-.209 1.414-.586l1.25-1.251a2 2 0 0 0 .585-1.414v-2.75c0-.531-.211-1.04-.587-1.415Z"
        class="outline"
        fill="#fff"
      ></path>
      <g id="CombineHeaderBean__icon">
        <path
          d="M2.003 21.25V14l1-.75 7.75 1.5.5.5 1 4-4-1.553-.782.303-1.718 3.25z"
          class="primary"
          fill="#367C2B"
        ></path>
        <path
          d="m2.003 14 7.5 1.25.75.5.75 3-2.75-1.053-.782.303-1.718 3.25h-3.75z"
          class="shadow"
          fill="#353535"
          opacity=".3"
        ></path>
        <path
          d="m17.253 19.25.25 2.5 1.25.5-.25-3z"
          class="primary"
          fill="#367C2B"
        ></path>
        <circle
          cx="31.003"
          cy="20.5"
          r="9.5"
          class="neutral1"
          fill="#2b2b2b"
        ></circle>
        <circle
          cx="25.753"
          cy="24.75"
          r=".5"
          class="neutral3"
          fill="#f2f2f2"
        ></circle>
        <circle
          cx="27.503"
          cy="24.25"
          r=".5"
          class="neutral3"
          fill="#f2f2f2"
        ></circle>
        <path
          d="m14.503 17.75 7.25-.75 13.75 4.5.25-.75-4.75-1.5.25-1 7 2.25-1 3.75-16.25-5-6.5.5zM33.003 28l-18.25-7.75-2.5-1-4-1.55-.78.3-2.97 5.25v1.25l2.5 7.25 27.25 3.75 1.25-.75.5.5 6.25 1 2.5.25 1.25-1.251v-.251l-10-6.248-3-1.75z"
          class="primary"
          fill="#367C2B"
        ></path>
        <path
          d="m8.753 19.75-2.75 4.5h1.5l2-3.25z"
          class="shadow"
          fill="#353535"
          opacity=".3"
        ></path>
        <path
          d="m28.003 27.75-19.25-8 .75 1.25z"
          class="shadow"
          fill="#353535"
          opacity=".3"
        ></path>
        <path
          d="m6.003 24.25 2.5 6.25 1-1.25-2-5z"
          class="highlight"
          fill="#fefeff"
          opacity=".31"
        ></path>
        <path
          d="m8.503 30.5 9.25-.5 9.25 1.25-9.25-2.5-8.25.5z"
          class="highlight"
          fill="#fefeff"
          opacity=".31"
        ></path>
        <path
          d="m9.003 32 8-.5 18.5 3.25-1.25.75z"
          class="shadow"
          fill="#353535"
          opacity=".3"
        ></path>
        <path
          d="m12.253 19.25.25-1.5.5-.5h1l.5.5.25 2.5z"
          class="primary"
          fill="#367C2B"
        ></path>
        <path
          d="m12.253 19.25.25-1.5.5-.5h1l.5.5.25 2.5z"
          class="shadow"
          fill="#353535"
          opacity=".3"
        ></path>
        <path
          d="m27.003 21.5 5.75 1.75 1-2.75-5.75-1.75z"
          class="neutral1"
          fill="#2b2b2b"
        ></path>
        <path
          d="m27.003 21.5 5.75 1.75 1-2.75-5.75-1.75z"
          class="highlight"
          fill="#fefeff"
          opacity=".31"
        ></path>
        <path
          d="M13.753 26.25h-3.326l-.299-.25v-2l.299-.25h3.326l.25.25v2z"
          class="neutral1"
          fill="#2b2b2b"
        ></path>
        <path
          d="m2.003 14 1-.75 7.75 1.5.5.5 1 4-1.25-.5-.75-3-.75-.5z"
          class="highlight"
          fill="#fefeff"
          opacity=".31"
        ></path>
        <path
          d="M35.503 34.75 33.753 29l-.75-1v-1l1.25 1.5 1.75 6.75z"
          class="shadow"
          fill="#353535"
          opacity=".3"
        ></path>
        <path
          d="M35.503 34.75 33.753 29l-.75-1v-1l1.25 1.5 1.75 6.75z"
          class="shadow"
          fill="#353535"
          opacity=".3"
        ></path>
        <circle
          cx="13.503"
          cy="18.25"
          r=".5"
          class="neutral2"
          fill="#808082"
        ></circle>
        <circle
          cx="31.003"
          cy="12"
          r=".5"
          class="neutral3"
          fill="#f2f2f2"
        ></circle>
        <circle
          cx="39.503"
          cy="20.5"
          r=".5"
          class="neutral3"
          fill="#f2f2f2"
        ></circle>
        <circle
          cx="22.503"
          cy="20.5"
          r=".5"
          class="neutral3"
          fill="#f2f2f2"
        ></circle>
        <circle
          cx="25.003"
          cy="14.5"
          r=".5"
          class="neutral3"
          fill="#f2f2f2"
        ></circle>
        <circle
          cx="26.253"
          cy="15.5"
          r=".5"
          class="neutral3"
          fill="#f2f2f2"
        ></circle>
        <circle
          cx="26.753"
          cy="17"
          r=".5"
          class="neutral3"
          fill="#f2f2f2"
        ></circle>
        <circle
          cx="35.503"
          cy="17"
          r=".5"
          class="neutral3"
          fill="#f2f2f2"
        ></circle>
        <circle
          cx="37.003"
          cy="22.25"
          r=".5"
          class="neutral1"
          fill="#2b2b2b"
        ></circle>
        <circle
          cx="37.003"
          cy="14.5"
          r=".5"
          class="neutral3"
          fill="#f2f2f2"
        ></circle>
        <circle
          cx="36.003"
          cy="15.5"
          r=".5"
          class="neutral3"
          fill="#f2f2f2"
        ></circle>
        <circle
          cx="36.503"
          cy="24.75"
          r=".5"
          class="neutral3"
          fill="#f2f2f2"
        ></circle>
        <circle
          cx="34.753"
          cy="25.25"
          r=".5"
          class="neutral3"
          fill="#f2f2f2"
        ></circle>
        <circle
          cx="37.753"
          cy="25.75"
          r=".5"
          class="neutral3"
          fill="#f2f2f2"
        ></circle>
        <path
          d="m26.753 19-.5 1.5 1.75.5.5-1.5zM29.253 19.75l-.5 1.75 1 .25.5-1.75z"
          class="neutral1"
          fill="#2b2b2b"
        ></path>
        <path
          d="m16.003 17.75.25 1.75.5.25 2.75-.25.5-.5-.25-1.5-.5-.5-2.75.25z"
          class="primary"
          fill="#367C2B"
        ></path>
        <path
          d="m16.003 17.75.25 1.75.5.25 2.75-.25.5-.5-.25-1.5-.5-.5-2.75.25zM8.253 17.697l4 1.553 2.5 1 15.25 6.5.75 1-22.5-9.25-3.75 6v-1.25L7.471 18z"
          class="highlight"
          fill="#fefeff"
          opacity=".31"
        ></path>
        <path
          d="m36.003 35.25 5.75-.5 1 .5.25.437v.563h-.75z"
          class="shadow"
          fill="#353535"
          opacity=".3"
        ></path>
        <path
          d="m43.253 34-8.5-5.25.5 2 .25 2.5-1.25-4.75-1.25-1.5 3 1.75 8 5z"
          class="highlight"
          fill="#fefeff"
          opacity=".31"
        ></path>
        <path
          d="m44.753 36.5 1.25-1.251V32.5h-.25l-2.5 1.5.5 1.75-1.5.5z"
          class="secondary"
          fill="#FFDE00"
        ></path>
        <path
          d="m35.503 34.75-2.25-5-.75-1-1.75-1-.75-1 3 1.25.75 1z"
          class="shadow"
          fill="#353535"
          opacity=".3"
        ></path>
        <path
          d="m30.503 21.75 1.75.5.5-1.5-1.75-.5v.25l1 .5-.25.75-1-.25z"
          class="neutral1"
          fill="#2b2b2b"
        ></path>
        <path
          d="m36.003 19.75-.25 1-.25.75-.5 2 .5.25 1-3.75z"
          class="shadow"
          fill="#353535"
          opacity=".3"
        ></path>
        <path
          d="m31.253 18.25-.25 1-3.75-1.25.25-1z"
          class="neutral2"
          fill="#808082"
        ></path>
        <path
          d="m31.253 18.25-.25 1-3.75-1.25.25-1z"
          class="shadow"
          fill="#353535"
          opacity=".3"
        ></path>
      </g></svg>
