<svg xmlns="http://www.w3.org/2000/svg"
        class="css-9txd9r"
        focusable="false"
        viewBox="0 0 32 32"
        data-icon-name="CompactMillingMachine"
      >
        <g id="CompactMillingMachine__outline">
          <path
            d="M16.1 27.6c-1.2 0-2.1-1-2.1-2.2h-1.3l-5 .1c0 1.2-1 2.2-2.1 2.2H2.4c-1.2 0-2.1-1-2.1-2.2v-.4c0-.7.4-1.3 1.1-1.7V22H1c-.6 0-1-.4-1-1v-8c0-.1 0-.2.1-.3l.2-.5c0-.1.1-.2.2-.3.2-.2.2-.3.4-.4L.3 7.4v-.6c0-.2 0-.4.1-.6-.2-.2-.2-.4-.2-.6v-.5c0-.3.1-.5.3-.7.1-.7.7-1.2 1.5-1.2.7 0 1.4.5 1.5 1.2l.3.6c.6-.1 1.2-.2 1.9-.2h.4c2.1 0 3.6.4 4.5.8.5.2.9.7.6 1.8-.1.3-.3.5-.5.7-.1.1-.3.1-.4.1s-.3 0-.4-.1c0 0-1.3-.6-3.7-.6-.7 0-1.7.2-2.2.2l-.3.2c-.1.1-.3.2-.5.2.3.1.5.2.7.4q.3.3.3.6c0 .3.2 1.5.3 2.4H6c.3 0 .5.1.7.3l.7-.5c.2-.2.5-.3.7-.3h.2l2.3.5 1.9.4h4.2l4.3 1 2.3-1.8 3.1-4.2 2.7-3.5c.2-.3.5-.4.8-.4.2 0 .4.1.6.2.4.5 1.7 1.5 1.5 2.8-.1 1-2.8 4.2-5 6.8l-2.6 8.9c-.1.4-.5.7-.9.7l-1.4.1H22c-.5 0-.9-.3-1-.8v-.1c-.2.1-.4.1-.6.1H20c0 .3-.2.6-.5.8v.5c1 .2 1.7 1 1.7 1.9v.4c0 1.2-1 2.2-2.1 2.2h-3z"
            class="outline"
            fill="#FFFFFF"
          ></path>
          <path
            d="m29.9 4.2-2.7 3.5-3.2 4.2-2.8 2.1-4.6-1h-4.1l-2-.5-2.3-.5H8l-1.6 1.2-.5.5h-.3c.4-.3.4-1.2.4-1.2H3.6s-.3-2.7-.4-3.3c-.2-.3-.5 0-.5 0v4.2L2.5 12l-.7-4.8L3 7.1l.4-.3s1.6-.3 2.7-.3c2.7 0 4.1.7 4.1.7s.2-.6 0-.6c-1-.4-2.5-.8-4.5-.7-1.5 0-3 .3-3.5.5v-.8h.6v-.5h-.3v-.3c0-.3-.3-.6-.6-.6s-.6.2-.6.6v.3h-.1v.5h.6v.7H2c-.8.2-.8.2-.8.5v.5l.6 4.6h-.2c-.2.2-.2.2-.4.5 0 .1-.2.5-.2.5V21h1.4v3.2c-.6.1-1.1.4-1.1.9h.1c0 .1-.1.2-.1.4 0 .7.5 1.2 1.1 1.2h3.1c.6 0 1.1-.6 1.1-1.2 0-.1 0-.3-.1-.4h.1c0-.2-.1-.4-.2-.5l6.4-.1H14c.4 0 .5-.3.6-.5s.4-1.1.5-1.4c.2-.4.7-1.3.8-1.3.1-.1.2-.3.2-.3h.1v.9h.5V24h-.6c-.7 0-1.2.4-1.2 1h.1c0 .1-.1.2-.1.4 0 .7.5 1.2 1.1 1.2h3.1c.6 0 1.1-.6 1.1-1.2 0-.1 0-.3-.1-.4 0-.5-.5-1-1.2-1h-.5v-2.3h.5v-.9h1.4c.1 0 .1 0 .2-.1.4-.5 1-1.2 1-1.3.1-.1.1-.4.1-.5l-.1-2.2c0-.7-.1-1.6-.1-2.1v-.3l.6-.5.7 1-1.1 3.2.1 1.1-.1.9.4 1.6 1.4-.1 2.7-9.1s4.8-5.5 4.9-6.5c.1-.8-1.1-1.7-1.1-1.7m-8.6 12.5V18l-.1-2.2zM6.1 25.4c0 .4-.3.7-.7.7s-.7-.3-.7-.7c0-.1.1-.3.1-.4-.1.1-.1.2-.1.4 0 .4.3.7.7.7s.7-.3.7-.7c0-.1-.1-.3-.1-.4 0 .1.1.2.1.4m-2.8 0c0 .4-.3.7-.7.7s-.7-.3-.7-.7c0-.2.1-.3.1-.4-.1.1-.1.2-.1.4 0 .4.3.7.7.7s.7-.3.7-.7c0-.1-.1-.3-.1-.4.1.1.1.2.1.4m8.8-4.5c-.1 0-.2-.1-.4-.1h-.6c-.1-.1-.3-.5-.4-.6v-.1c.1.1.3.5.4.6h.6c.2 0 .4.1.4.2.1 0 .2.2.3.4-.1-.2-.2-.4-.3-.4m.6.7s0 .1 0 0q.15.15 0 0c.1.1 0 .1 0 0m.2.5c0-.1-.1-.2-.1-.3.1.1.1.2.1.3m8.3-7.2v-.4zm-11 5.2v.5H6.7h3.4V13zm-4.7 6.2h-3c-.5 0-.8-.4-.8-.9 0 .5.4.9.8.9zc.5 0 .8-.4.8-.9.1.5-.3.9-.8.9m7.5-4c0 .1.1.2.1.3-.1-.1-.1-.2-.1-.3m6.7 3.1c0 .4-.3.7-.7.7s-.7-.3-.7-.7c0-.1.1-.3.1-.4-.1.1-.1.2-.1.4 0 .4.3.7.7.7s.7-.3.7-.7c0-.1-.1-.3-.1-.4.1.1.1.2.1.4m-2.7 0c0 .4-.3.7-.7.7s-.7-.3-.7-.7c0-.1.1-.3.1-.4-.1.1-.1.2-.1.4 0 .4.3.7.7.7s.7-.3.7-.7c0-.1-.1-.3-.1-.4 0 .1.1.2.1.4m2.2.9h-3.1c-.5 0-.8-.4-.8-.9 0 .5.4.9.8.9zc.5 0 .8-.4.8-.9 0 .5-.3.9-.8.9m1.2-5.9c-.4 0-2.2 0-3.7.1-.3 0-.5 0-.7.1s-.3.3-.4.5c0 0-.6 1-.8 1.4-.2.3-.5 1.2-.6 1.4 0 .1-.1.1-.1.1h-.9.8c.1 0 .1 0 .2-.2s.4-1.1.6-1.4c.2-.4.8-1.3.8-1.4.1-.2.3-.4.4-.5.2-.1.4-.1.7-.1zc.2-.3.9-1.2 1-1.2-.1.1-.8.9-1 1.2m2.1-6.8 1.2-.9-.6 1.7z"
            class="primary"
            fill="#FFFFFF"
          ></path>
        </g>
        <g id="CompactMillingMachine__main_shape">
          <path
            d="M19.2 24.5h-3.1c-.5 0-.8.4-.8.9s.4.9.8.9h3.1c.5 0 .8-.4.8-.9s-.4-.9-.8-.9m-2.9 1.6c-.4 0-.7-.3-.7-.7s.3-.7.7-.7.7.3.7.7-.3.7-.7.7m2.7 0c-.4 0-.7-.3-.7-.7s.3-.7.7-.7.7.3.7.7-.3.7-.7.7"
            class="quinary"
            fill="gray"
          ></path>
          <circle
            cx="16.3"
            cy="25.4"
            r=".7"
            class="shadow"
            opacity=".3"
            fill="#333"
          ></circle>
          <circle
            cx="19"
            cy="25.4"
            r=".7"
            class="shadow"
            opacity=".3"
            fill="#333"
          ></circle>
          <path
            d="M19.2 24.1h-3.1c-.6 0-1.1.6-1.1 1.2 0 .7.5 1.2 1.1 1.2h3.1c.6 0 1.1-.6 1.1-1.2s-.5-1.2-1.1-1.2m0 2.2h-3.1c-.5 0-.8-.4-.8-.9s.4-.9.8-.9h3.1c.5 0 .8.4.8.9s-.3.9-.8.9"
            class="quaternary"
            fill="#ffde00"
          ></path>
          <path
            d="M3.6 20.5h6.6v-7.6l-2-.5-1.5 1.1-.5.5-.1.1H3.7c-.1.1-.1 6.4-.1 6.4M21.2 14.5l-4.6-1.1h-4.1l-1.9-.4v7.1l.1.1c.1.1.3.5.4.6h.6c.2 0 .3.1.4.1.2.1.4.5.6.8.2.4.3.8.3 1.4v.9h1c.1 0 .1 0 .2-.2s.4-1.1.6-1.4c.2-.4.8-1.3.8-1.4.1-.2.3-.4.4-.5.2-.1.4-.1.7-.1 1.6-.1 3.3-.1 3.7-.1.2-.3.9-1.1 1-1.2v-.2z"
            class="primary"
            fill="#FFFFFF"
          ></path>
          <path
            d="M19.1 20.7h-2.8v1.1h.4v2.3h1.9v-2.3h.5z"
            class="senary"
            fill="#333"
          ></path>
          <path
            d="M5.5 24.5h-3c-.5 0-.8.4-.8.9s.4.9.8.9h3.1c.5 0 .8-.4.8-.9s-.4-.9-.9-.9m-2.9 1.6c-.4 0-.7-.3-.7-.7s.3-.7.7-.7.7.3.7.7-.3.7-.7.7m2.8 0c-.4 0-.7-.3-.7-.7s.3-.7.7-.7.7.3.7.7-.4.7-.7.7"
            class="quinary"
            fill="gray"
          ></path>
          <circle
            cx="2.6"
            cy="25.4"
            r=".7"
            class="shadow"
            opacity=".3"
            fill="#333"
          ></circle>
          <circle
            cx="5.4"
            cy="25.4"
            r=".7"
            class="shadow"
            opacity=".3"
            fill="#333"
          ></circle>
          <path
            d="M16.2 24h1v1H15c-.1-.5.5-1 1.2-1M19.1 24h-1v1h2.2c0-.5-.5-1-1.2-1"
            class="tertiary"
            fill="#fa3a00"
          ></path>
          <path
            d="M2.5 4.8c0-.3-.3-.6-.6-.6s-.5.3-.5.6v.3h1.1z"
            class="secondary"
            fill="#FB5A02"
          ></path>
          <path
            d="M2.8 5.1H1.2v.5h.6v.7h.4v-.7h.6z"
            class="quinary"
            fill="gray"
          ></path>
          <path
            d="M2.8 5.1H1.2v.5h.6v.7h.3l.1-.7h.6z"
            class="shadow"
            opacity=".3"
            fill="#333"
          ></path>
          <path
            d="M5.6 13.7c.4-.3.4-1.2.4-1.2H3.6s-.3-2.7-.4-3.3c-.2-.3-.5 0-.5 0v4.6z"
            class="senary"
            fill="#333"
          ></path>
          <path
            d="M10.6 14.5v.5l5.1.3.2-.5zM16.7 14.8h-.4l-.1.5.4.1 4.4 1.1V16z"
            class="secondary"
            fill="#FB5A02"
          ></path>
          <path
            d="m12.5 13.4-1.9-.4v1.2l5.3.4.4-1.2zM21.2 15.8v-1.3l-4.5-1-.3 1.2h.1z"
            class="shadow"
            opacity=".3"
            fill="#333"
          ></path>
          <path
            d="M1 13.8V21h1.4v3.6l10.5-.1h1.2c.4 0 .5-.3.6-.5s.4-1.1.5-1.4c.2-.4.7-1.3.8-1.3.1-.1.2-.3.2-.3.1 0 .4 0 .5-.1 1.8-.1 3.8-.1 3.8-.1.1 0 .1 0 .2-.1.4-.5 1-1.2 1-1.3.1-.1.1-.4.1-.5l-.1-2.2c0-.7-.1-1.6-.1-2.1v-.3l.6-.5.8 1-1.1 3.2.1 1.1-.4.9.4 1.6 1.4-.1 2.7-9.1s4.8-5.5 4.9-6.5c.1-.7-1.1-1.6-1.1-1.6l-2.7 3.5-3.2 4.1-2.8 2.1-4.6-1h-4.1l-2-.5-2.3-.5H8l-1.6 1.2-.5.5H2.7L2.5 12l-.7-4.8L3 7.1l.4-.3s1.6-.3 2.7-.3c2.7 0 4.1.7 4.1.7s.2-.6 0-.6c-1-.4-2.5-.8-4.5-.7-1.8 0-3.8.5-3.8.5-.7.1-.7.1-.7.4v.5l.6 4.6h-.2c-.2.2-.2.2-.4.5 0 .1-.2.5-.2.5zm3.6 6.7h-.8v-5s0-.1.1-.1h.6l.1.1zm0-6c0 .2-.2.4-.4.4s-.4-.2-.4-.4c0-.1.1-.2.2-.3h.4c.1 0 .2.1.2.3m5.6 6H5v-5c0-.1-.1-.3-.2-.3v-1H6c.1 0 .1 0 .1-.1l.5-.5 1.5-1.1 2 .4v7.2c.1 0 .1.4.1.4m.4-7.5 1.8.4h3.9l-.4 1.2-.1.2-.2.5-.6 1.8h-4.6c.2.1.2-4.1.2-4.1m10.7 6.2c-.1.1-.8.9-1 1.2-.4 0-2.2 0-3.7.1-.3 0-.5 0-.7.1s-.3.3-.4.5c0 0-.6 1-.8 1.4-.2.3-.5 1.2-.6 1.4.1.1 0 .1 0 .1h-.9v-.9c0-.6-.2-1-.4-1.4-.2-.3-.4-.7-.6-.8-.1 0-.2-.1-.4-.1h-.6c-.1-.1-.3-.5-.4-.6l-.1-.1v-2.5h4.9l.7-2.2.2-.5.4-1.4 4.4 1 .1 2.2c0 2.4 0 2.5-.1 2.5m1.8-4.7-.6-.8 1.2-.9z"
            class="quinary"
            fill="gray"
          ></path>
          <path
            d="m23.6 12.7 2 1-1.5 5.3-2.3-.8z"
            class="highlight"
            opacity=".3"
            fill="#fff"
          ></path>
          <path
            d="M5.5 20.9H2.7v.9h.5v2.4h1.9v-2.4h.4z"
            class="senary"
            fill="#333"
          ></path>
          <path
            d="M5.1 24.7v-1.1l7.4-2.3c.1.1.3.4.3.6.1.2.1.3.2.5-2.5.7-5.3 1.4-7.9 2.3M2.5 16.4l-.8 4.5h1.7v-4.5z"
            class="shadow"
            opacity=".3"
            fill="#333"
          ></path>
          <path
            d="M4.9 15.2v-.8c0-.3-.3-.6-.6-.6-.4 0-.6.3-.6.6v.8c-.1.1-.2.2-.2.3v5.4h1.6v-5.4c-.1-.1-.1-.2-.2-.3m-.7-1.1c.2 0 .4.2.4.4s-.2.4-.4.4-.4-.2-.4-.4.2-.4.4-.4m.4 6.4h-.7v-5s0-.1.1-.1h.6s.1 0 .1.1z"
            class="quinary"
            fill="gray"
          ></path>
          <path
            d="M4.2 14.1c-.2 0-.4.2-.4.4s.2.4.4.4.4-.2.4-.4-.2-.4-.4-.4"
            class="primary"
            fill="#FFFFFF"
          ></path>
          <path
            d="M5.6 24.1H2.4c-.6 0-1.1.6-1.1 1.2 0 .7.5 1.2 1.1 1.2h3.1c.6 0 1.1-.6 1.1-1.2s-.4-1.2-1-1.2m-.1 2.2h-3c-.5 0-.8-.4-.8-.9s.4-.9.8-.9h3.1c.5 0 .8.4.8.9s-.4.9-.9.9"
            class="quaternary"
            fill="#ffde00"
          ></path>
          <path
            d="M2.5 24h1v1H1.3c0-.5.5-1 1.2-1M5.5 24h-1v1h2.2c0-.5-.5-1-1.2-1"
            class="tertiary"
            fill="#fa3a00"
          ></path>
          <path
            d="m3.9 15.4-.1 5.1h.8v-5s0-.1-.1-.1zM2.8 18.8v-2.4c-.2 0-.3 0-.3-.1l-.2-2.8v-.1c-.1-.1-.5-.6-.5-.6s-.1-.1-.2-.1-.4 0-.5.1c-.1 0-.2.1-.2.2v.2c0 .1.1.1.1.1h.1l.1.1.3.3.4 5.1z"
            class="primary"
            fill="#FFFFFF"
          ></path>
        </g></svg>
