<svg xmlns="http://www.w3.org/2000/svg"
        class="css-9txd9r"
        focusable="false"
        viewBox="0 0 32 32"
        data-icon-name="Compactor"
      >
        <path
          id="Compactor__outline"
          d="M24.7 25.9c-2.1 0-4-1.3-4.8-3.2h-1.5c-.2.2-.5.3-.7.3h-3c-.9 1.7-2.6 2.9-4.6 2.9-1.8 0-3.4-.9-4.4-2.4h-1c-.3 0-.6-.1-.8-.2L1 21.4c-.6-.4-.9-1-.9-1.7v-1.1c0-.2 0-.3.1-.4 1.2-4.4 9.2-6.8 10.7-7.3h.1l.3-2.2-.1-.1q-.3-.45-.3-.9l.1-.6c.1-.6.6-1 1.1-1h7.3c.5 0 .9.3 1.1.8h.1c.6 0 1 .4 1 1v1.5c0 .3-.2.6-.4.8 0 .2-.1.3-.2.4l1 3.4c.2.9-.3 1.6-.5 1.8l-.7.8h.7c.9-.7 2-1 3.1-1 .4 0 .8.1 1.2.2l.1-.1q.45-.3.9-.3h.3c1.3.2 2.5.5 3.8.9.5.2.8.6.9 1.1 0 .4.1.8.1 1.2v1.6c0 .8-.6 1.4-1.3 1.4h-.9c-.3 2.4-2.4 4.3-5 4.3"
          class="outline"
          fill="#FFFFFF"
        ></path>
        <g id="Compactor__main_shape">
          <circle
            cx="24.7"
            cy="20.7"
            r="4.2"
            class="tertiary"
            fill="#333"
          ></circle>
          <circle
            cx="24.7"
            cy="20.7"
            r="2.1"
            class="secondary"
            fill="#808080"
          ></circle>
          <path
            d="M12.2 17.2v-2.3l-1.1-3.2c-.5.1-9.1 2.6-10.1 6.6v1.3c0 .4.1.7.5.9l2.9 1.9c.1.1.2.1.3.1h1.6c-1.2-3.5 1.3-7.1 5.9-5.3"
            class="primary"
            fill="#FD5C00"
          ></path>
          <path
            d="m13.9 16.3-1.7-4.8.6-3.5c0-.3.3-.5.5-.5h5.1c.2 0 .5.2.5.4l1.7 6.3c.1.2-.1.4-.3.6l-1.1 1.4z"
            class="window"
            opacity=".3"
            fill="#5dc9e8"
          ></path>
          <path
            d="M18.4 7.6c.2 0 .5.2.5.4l1.7 6.3c.1.2-.1.4-.3.6l-1.1 1.4h-5.3l-1.7-4.8.6-3.5c0-.3.3-.5.5-.5zm0-.5h-5.1c-.5 0-.9.4-1 .9l-.6 3.5v.2l1.7 4.8.1.3h5.8l.1-.2 1.1-1.4.1-.1c.2-.2.4-.5.3-.9l-1.7-6.3c0-.5-.4-.8-.8-.8"
            class="secondary"
            fill="#808080"
          ></path>
          <path
            d="m20.2 15.1-.3.4-1.9-2.8-.8-.4-.5.4-.1-.3 2-1.4.3.2-.5.3v1z"
            class="shadow"
            opacity=".3"
            fill="#333"
          ></path>
          <path
            d="M27.5 16.8c-.1 0-.2 0-.3-.1H27c-.4.3-.8.6-1.1.9H21c-.2.1-.3.2-.5.3h-1.7c.1-.1.2-.2.2-.3l.3-.8h-5.8l.1-.1-1.4-4.9c0-.2-.2-.2-.4-.2l-.7.2 1.1 3.7v1.8l.5.3V22h4.9v-.3h3.2v-1.5h5.3v-1.8c.4-.6.9-1.1 1.5-1.6 0 .1 0 0-.1 0"
            class="secondary"
            fill="#808080"
          ></path>
          <path
            d="m15.6 16.3.1-1.6.6-1v-.1c.3-.2.3-.8.3-.8h-1.5s-.3-.8-.6-1.2c-.2-.2-.6 0-.6 0v2l.6 1v1.6c0 .1 1.1.1 1.1.1"
            class="shadow"
            opacity=".3"
            fill="#333"
          ></path>
          <circle
            cx="10"
            cy="20.7"
            r="4.2"
            class="tertiary"
            fill="#333"
          ></circle>
          <circle
            cx="10"
            cy="20.7"
            r="2.1"
            class="secondary"
            fill="#808080"
          ></circle>
          <circle
            cx="10"
            cy="20.7"
            r=".9"
            class="shadow"
            opacity=".3"
            fill="#333"
          ></circle>
          <path
            d="M19.7 7.9c.1 0 .1-.1.1-.2-.2-.7-.1-.5-.1-.5 0-.1-.1-.2-.2-.2h-7.3c-.1 0-.1.1-.2.2l-.1.5c0 .1 0 .2.1.2z"
            class="secondary"
            fill="#808080"
          ></path>
          <path
            d="M19.3 7.9h1.4v1.4h-.4v.7H20V8.5h.3v.6h.2v-1h-1.3v-.2z"
            class="secondary"
            fill="#808080"
          ></path>
          <path
            d="m8.3 15-1-1.4-.6.3.8 1.3c.1.1.3.1.5 0 .1-.1.2-.1.3-.2m-2.5-.7.6-.3.9 1.3-.3.1c-.2.1-.4.1-.5 0 .1 0-.7-1.1-.7-1.1m1.7-.8.6-.3 1 1.5c-.1 0-.2.1-.3.1-.2.1-.4.1-.5 0 .1 0-.8-1.3-.8-1.3m.9-.4.9 1.4c.1.1.3.1.5 0 .1 0 .2-.1.3-.1l-1-1.5c-.3.1-.5.1-.7.2m.9-.3c.2-.1.4-.2.7-.2l1 1.5-.3.1c-.2.1-.4.1-.5 0z"
            class="shadow"
            opacity=".3"
            fill="#333"
          ></path>
          <path
            d="M31 18.3h-5.3c-.1 0-.2.1-.2.3v2h5.2c.2 0 .3-.2.3-.4z"
            class="primary"
            fill="#FD5C00"
          ></path>
          <path
            d="M27.5 16.8c-.1 0-.2 0-.3-.1H27c-.8.6-1.6 1.2-2.2 1.9-.1.1-.1.2-.1.3.1.2.2.3.3.5.1.1.3.2.4 0 .6-.9 1.3-1.8 2.2-2.5 0 0 0-.1-.1-.1"
            class="secondary"
            fill="#808080"
          ></path>
          <path
            d="M27.5 16.8c-.1 0-.2 0-.3-.1H27c-.8.6-1.6 1.2-2.2 1.9-.1.1-.1.2-.1.3.1.2.2.3.3.5.1.1.3.2.4 0 .6-.9 1.3-1.8 2.2-2.5 0 0 0-.1-.1-.1"
            class="secondary"
            fill="#808080"
          ></path>
          <path
            d="M27.5 16.8c-.1 0-.2 0-.3-.1H27c-.8.6-1.6 1.2-2.2 1.9-.1.1-.1.2-.1.3.1.2.2.3.3.5.1.1.3.2.4 0 .6-.9 1.3-1.8 2.2-2.5 0 0 0-.1-.1-.1"
            class="secondary"
            fill="#808080"
          ></path>
          <path
            d="M27.5 16.8c-.1 0-.2 0-.3-.1H27c-.8.6-1.6 1.2-2.2 1.9-.1.1-.1.2-.1.3.1.2.2.3.3.5.1.1.3.2.4 0 .6-.9 1.3-1.8 2.2-2.5 0 0 0-.1-.1-.1"
            class="shadow"
            opacity=".3"
            fill="#333"
          ></path>
          <path
            d="M18.9 17.9c0 .1.1 0 0 0 .1 0 0 .1 0 0 .1-.1.2-.2.2-.3l.3-.8h-1.8v4.9h3.2V18z"
            class="secondary"
            fill="#808080"
          ></path>
          <path
            d="M18.9 17.9c0 .1.1 0 0 0 .1 0 0 .1 0 0 .1-.1.2-.2.2-.3l.3-.8h-1.8v4.9h3.2V18z"
            class="shadow"
            opacity=".3"
            fill="#333"
          ></path>
          <path
            d="M18.8 21s0 .5.2.5c.1 0 2.2.4 2.2.4s.3-.1.3-.3-.3-.6-.3-.6z"
            class="primary"
            fill="#FD5C00"
          ></path>
          <path
            d="M26.3 21.1h-7.4q-.3 0-.3-.3V19c0-.1.1-.2.2-.2l.6-.4 2.9.7c.2 0 .4.1.6-.1l3.7-2.5c.1-.1.3-.1.5-.1q1.95.3 3.6.9c.1 0 .2.1.2.3.1.4.1.9.1 1.3 0 .2 0 .3-.2.4-1.1.6-2.5 1.2-4 1.8zm.5-4.3c-.9.6-1.6 1.2-2.3 1.8-.1.1-.1.2-.1.3.1.2.2.3.3.5.1.1.3.2.4 0 .6-.9 1.3-1.8 2.3-2.5 0 0 .1-.1 0-.1s-.2 0-.3-.1c-.2 0-.3 0-.3.1"
            class="primary"
            fill="#FD5C00"
          ></path>
        </g></svg>
