<svg xmlns="http://www.w3.org/2000/svg"
        class="css-9txd9r"
        focusable="false"
        viewBox="0 0 48 48"
        data-icon-name="Crawler"
      >
        <path
          id="Crawler__outline"
          d="m47.414 36.836-1.172-1.172-.493-.616V30.03l.351-1.227.572-.954a1.998 1.998 0 0 0-1.667-3.099h-.755a2 2 0 0 0-1.414.586l-.5.5a2 2 0 0 0-.186.214l-.75 1q-.158.211-.257.457l-.393.983a2 2 0 0 0-1-1.722V18.75a2 2 0 0 0-1.458-1.925l-8-2.25a2 2 0 0 0-.399-.07l-.765-.055a2 2 0 0 0 .623-1.45v-1a1.997 1.997 0 0 0-2.001-2c-.212 0-.426.034-.632.103l-.75.25q-.135.045-.262.108l-.5.25a2 2 0 0 0-.52.375l-.5.5a2 2 0 0 0-.375.52l-.211.422V10.25a2 2 0 0 0-1.92-1.998l-6.25-.25L15.75 8H4.25a2 2 0 0 0-2 2v2.25a2 2 0 0 0 .586 1.414l.25.25A2 2 0 0 0 4.5 14.5h1.25v1.939c-.26.208-.461.475-.589.775l-1.236.371A2 2 0 0 0 2.5 19.501v.38l-.471 3.926a2 2 0 0 0-.943.529l-.5.5A2 2 0 0 0 0 26.25v4.5c0 .31.072.617.211.894l.388.775a6 6 0 0 0-.099 1.08 6.257 6.257 0 0 0 6.25 6.25h28.5c.363 0 .737-.037 1.143-.112a4 4 0 0 0 .295-.067 6.5 6.5 0 0 0 1.143-.387c.245-.112.483-.24.728-.394q.114-.063.235-.145.435-.301.813-.67.119-.117.23-.248a6.5 6.5 0 0 0 .577-.727h.085a2 2 0 0 0 1.008 1.736l1.75 1q.172.098.36.161l.75.25q.308.102.632.103h1a2 2 0 0 0 1.414-3.415Z"
          class="outline"
          fill="#fff"
        ></path>
        <g id="Crawler__icon">
          <path
            d="M26.75 15.25v-1.5l.5-.5.5-.25v-1l-.75.25-.5.25-.5.5-.25.5v2.714l1 .072z"
            class="neutral1"
            fill="#2b2b2b"
          ></path>
          <path
            d="m22.75 25.25.5-.5 5-7.25h1.25l7.5 2h.75v-.75l-8-2.25-3-.214-1-.072-3-.214-.75.5V25z"
            class="secondary"
            fill="#808082"
          ></path>
          <path
            d="M16.5 19.5v5.25H21l1 .25V10.75l-4.75.25h-1.5l-7.5.75-4-.5v1l.25.25h3.25v5L7 18v.75l9.25.25zm1.75-1.5.75-.5V16h-.75v-4.5h3.25V14H21v1.5l.25.25h.25l-.25 7.75H19l-.75-1.25zm-7.5-.25-1.5-.25-.25-.25v-4l.25-.25 1.5-.5zm.5 0V12.5l4.5-1 .5.5v5.5l-.5.5z"
            class="neutral1"
            fill="#2b2b2b"
          ></path>
          <path
            d="M15.75 11h1.5l4.75-.25v-.5L15.75 10H4.25v1.25l4 .5zM44.75 37l-1-1.25v-6l.5-1.75.75-1.25h-.75l-.5.5-.75 1-.5 1.25V37l1.75 1 .75.25h1z"
            class="primary"
            fill="#F2A900"
          ></path>
          <path
            d="M37 28.25v1.38c.09.03.18.08.27.12l.98.02.5-.27v-1l-.5-.25h-.5V19.5H37z"
            class="neutral1"
            fill="#2b2b2b"
          ></path>
          <path
            d="m21.25 23.5.25-7.75h-.25L21 15.5V14h.5v-2.5h-3.25V16H19v1.5l-.75.5v4.25L19 23.5zM16.25 12l-.5-.5-4.5 1v5.25l4.5.25.5-.5z"
            class="window"
            fill="#bbe3f3"
          ></path>
          <path
            d="m14.5 23.25.25-.25v-.75L14.5 22H13l-.25.25V23l.25.25z"
            class="neutral2"
            fill="#808082"
          ></path>
          <path
            d="M9 13.25v4l.25.25 1.5.25V12.5l-1.5.5z"
            class="window"
            fill="#bbe3f3"
          ></path>
          <path
            d="m24.25 27.5 5 .5v-1L24 26.5l.25.25z"
            class="neutral1"
            fill="#2b2b2b"
          ></path>
          <path
            d="m31.75 28.97 2.23.18-.48-2.4-.25-.25h-.5l-.25.25-.25.5-.25.25-.25.5zM33 26.75a.25.25 0 1 1 0 .5.25.25 0 0 1 0-.5"
            class="secondary"
            fill="#808082"
          ></path>
          <path
            d="m31.75 28 .25-.5-2.75-.25v.5z"
            class="neutral2"
            fill="#808082"
          ></path>
          <circle
            cx="33"
            cy="27"
            r=".25"
            class="neutral2"
            fill="#808082"
          ></circle>
          <path
            d="M39.47 33a4.164 4.164 0 0 1-.25 2h3.28v-2zM41.5 32v-1.5h-3.23c.42.43.75.93.95 1.5z"
            class="neutral1"
            fill="#2b2b2b"
          ></path>
          <path d="M41.5 30.75h1v1h-1z" class="neutral2" fill="#808082"></path>
          <circle
            cx="23.75"
            cy="27"
            r=".25"
            class="neutral2"
            fill="#808082"
          ></circle>
          <path
            d="M39.47 33a3.9 3.9 0 0 0-.25-1c-.2-.57-.53-1.07-.95-1.5-.3-.29-.63-.54-1-.75-.09-.04-.18-.09-.27-.12V19.5l-7.5-2h-1.25l-5 7.25-.5.5L22 25l-1-.25h-4.5V19.5l-.25-.5L7 18.75l-2.5.75v.5l-.75 6.25-.75-.5h-.5l-.5.5v4.5l.71 1.42c-.14.42-.21.86-.21 1.33 0 2.35 1.9 4.25 4.25 4.25h28.5A4.23 4.23 0 0 0 39.22 35a4.16 4.16 0 0 0 .25-2m-10.22-6v.25l2.75.25.25-.25.25-.5.25-.25h.5l.25.25.48 2.4-2.23-.18V28l-2.5-.25V28l-5-.5v-.75L24 26.5zm-5.5-.25a.25.25 0 1 1 0 .5.25.25 0 0 1 0-.5m-11-4.5L13 22h1.5l.25.25V23l-.25.25H13l-.25-.25zm-5.23 14.5c-1.18 0-2.25-.42-2.98-1.1.47.38 1.06.6 1.71.6.73 0 1.39-.28 1.88-.75h.62v1.25zm9.98 0h-5V35.5h1.05c-.022.082-.05.161-.05.25a1 1 0 0 0 2 0c0-.089-.029-.168-.05-.25h1.101c-.022.082-.05.161-.05.25a1 1 0 0 0 2 0c0-.089-.029-.168-.05-.25h1.05v1.25zm13 0h-5.75V35.5h1.8c-.022.082-.05.161-.05.25a1 1 0 0 0 2 0c0-.089-.029-.168-.05-.25h1.101c-.022.082-.05.161-.05.25a1 1 0 0 0 2 0c0-.089-.029-.168-.05-.25h.3l.5.5v.75zm7.98-2.95a2.684 2.684 0 0 1-.9 1.74c-.04.05-.08.08-.12.11-.73.67-1.78 1.1-2.96 1.1l1-.25.25-.25.25-.5v-.25h.5l.25-.25.25-.5V32.5l-1-1H8.13c-.49-.47-1.15-.75-1.88-.75-1.42 0-2.59 1.08-2.74 2.46.13-1.74 1.88-3.12 4.01-3.12l6.86-.59h11.35c-.54.01-.98.46-.98 1 0 .55.45 1 1 1s1-.45 1-1c0-.48-.34-.89-.8-.98l8.53.57c2.09 0 3.82 1.33 4 3.03 0 .03.01.06.01.09 0 .09.01.19.01.29s-.01.2-.02.3"
            class="primary"
            fill="#F2A900"
          ></path>
          <path
            d="M18.45 35.5c.022.082.05.161.05.25a1 1 0 0 1-1 1h2V35.5zM8.13 35.5c-.49.47-1.15.75-1.88.75-.65 0-1.24-.22-1.71-.6.73.68 1.8 1.1 2.98 1.1h1.23V35.5zM24.75 30.5c0-.54.44-.99.98-1H14.5a1 1 0 0 1 0 2h11.25c-.55 0-1-.45-1-1M31.75 35.5h-.3c.022.082.05.161.05.25a1 1 0 0 1-1 1h1.75V36zM29.5 35.75c0-.089.029-.168.05-.25h-1.101c.022.082.05.161.05.25a1 1 0 0 1-1 1h3a1 1 0 0 1-1-1Z"
            class="neutral1"
            fill="#2b2b2b"
          ></path>
          <path
            d="M26.5 35.75c0-.089.029-.168.05-.25h-1.8v1.25h2.75a1 1 0 0 1-1-1M38.48 33.12c-.18-1.7-1.91-3.03-4-3.03l-8.53-.57c.46.09.8.5.8.98 0 .55-.45 1-1 1h8.12c.49-.47 1.15-.75 1.88-.75a2.76 2.76 0 0 1 2.73 2.37M13.5 30.5a1 1 0 0 1 1-1h-.12l-6.86.59c-2.13 0-3.88 1.38-4.01 3.12a2.76 2.76 0 0 1 2.74-2.46c.73 0 1.39.28 1.88.75h6.37a1 1 0 0 1-1-1M16.5 35.75c0-.089.029-.168.05-.25h-1.101c.022.082.05.161.05.25a1 1 0 0 1-1 1h3a1 1 0 0 1-1-1ZM35.5 36.5l-1 .25c1.18 0 2.23-.43 2.96-1.1-.47.38-1.06.6-1.71.6z"
            class="neutral1"
            fill="#2b2b2b"
          ></path>
          <path
            d="M13.5 35.75c0-.089.029-.168.05-.25H12.5v1.25h2a1 1 0 0 1-1-1"
            class="neutral1"
            fill="#2b2b2b"
          ></path>
          <path
            d="M38.48 33.12a2.76 2.76 0 0 0-2.73-2.37c-.73 0-1.39.28-1.88.75H36l1 1v2.25l-.25.5-.25.25H36v.25l-.25.5c.65 0 1.24-.22 1.71-.6.04-.03.08-.06.12-.11a2.68 2.68 0 0 0 .9-1.74c.01-.1.02-.2.02-.3s-.01-.2-.01-.29c0-.03-.01-.06-.01-.09"
            class="neutral2"
            fill="#808082"
          ></path>
          <circle
            cx="14.5"
            cy="30.5"
            r="1"
            class="primary"
            fill="#F2A900"
          ></circle>
          <path
            d="M5 10.25V11l2.75.25v-1zM26 25.75h4.75l.5-.5v-2zM26 25.25l5.25-2.5v-.5l-3-1.75L26 23.75zM28.5 20l2.75 1.5v-2l-2-.5z"
            class="shadow"
            fill="#353535"
            opacity=".3"
          ></path>
          <path
            d="m30.75 26.25 1-1V19.5l-.25-.25-2-.5H29l-3.5 5V26l.25.25v.25l-.5-.5v-2.5l3.5-5h.75l1 .25 1.25.25.25.25v6.25l-1 1h-5.25v-.25zM15.75 20.75v4l-.25.25-10 .25-.25-.25.5-4.25.25-.25 1.25-.5 8.25.5zH16v-.25l-.25-.25-8.5-.5-1.5.5-.25.25-.5 4.75.25.25 10.5-.25L16 25v-4.25zM16.25 19l.25.5-9.5-.25v-.5zM3.75 26.25l1.5 1.25h17.5v-.75l-1.75-.5zM23.25 26.5l-.25.25v.5l-.5 1.25h.25l.5-1.25v-.5l.25-.25zM32.5 22.5v2.75l.25.25h.5l.25-.25V22.5l-.25-.25h-.5zM35.25 29.25 26 28.5H14l-7.25.75c-2.35 0-4.25 1.9-4.25 4.25s1.9 4.25 4.25 4.25h28.5c2.35 0 4.25-1.9 4.25-4.25s-1.9-4.25-4.25-4.25m-.77 7.5H7.52c-2.223 0-4.02-1.489-4.02-3.331s1.797-3.331 4.02-3.331l6.858-.588h11.351l8.75.588c2.223 0 4.02 1.489 4.02 3.331s-1.797 3.331-4.02 3.331Z"
            class="shadow"
            fill="#353535"
            opacity=".3"
          ></path>
          <circle
            cx="14.5"
            cy="30.5"
            r=".54"
            class="shadow"
            fill="#353535"
            opacity=".3"
          ></circle>
          <circle
            cx="25.75"
            cy="30.5"
            r=".54"
            class="shadow"
            fill="#353535"
            opacity=".3"
          ></circle>
          <path
            d="M14.98 35.5c.04.07.06.16.06.25 0 .3-.24.54-.54.54s-.54-.24-.54-.54c0-.09.02-.18.06-.25zM17.98 35.5c.04.07.06.16.06.25 0 .3-.24.54-.54.54s-.54-.24-.54-.54c0-.09.02-.18.06-.25zM27.98 35.5c.04.07.06.16.06.25 0 .3-.24.54-.54.54s-.54-.24-.54-.54c0-.09.02-.18.06-.25zM30.98 35.5c.04.07.06.16.06.25 0 .3-.24.54-.54.54s-.54-.24-.54-.54c0-.09.02-.18.06-.25zM36.5 32H8.55c-.12-.19-.26-.36-.42-.5H36zM10 33h26v1.5H10z"
            class="shadow"
            fill="#353535"
            opacity=".3"
          ></path>
          <path
            d="m22.25 23.5.25-6.25.25-.25 4.25.25.25.5-4 5.75-.25.25h-.5z"
            class="highlight"
            fill="#fefeff"
            opacity=".31"
          ></path>
          <path
            d="m22.722 22.861.139-3.472.139-.139 2.361.139.139.278-2.222 3.194-.139.139h-.278zM4.5 19.5v.5l2.5-.75v-.5zM22.75 26.75l-1.75-.5v-1.5l1 .25.75.25zM8.75 35.5h3.75v1.25H8.75zM19.5 35.5h5.25v1.25H19.5z"
            class="highlight"
            fill="#fefeff"
            opacity=".31"
          ></path>
        </g></svg>
