<svg xmlns="http://www.w3.org/2000/svg"
        class="css-9txd9r"
        focusable="false"
        viewBox="0 0 48 48"
        data-icon-name="CrawlerLoader"
      >
        <path
          id="CrawlerLoader__outline"
          d="m47.029 31.285-1.349-.809-.033-.108-1.068-3.205.451-.376a2 2 0 0 0-.386-3.325l-.5-.25a2.002 2.002 0 0 0-2.144.227l-.971.777-.412.137-.75.25a2 2 0 0 0-.782.483l-1.25 1.25-.039.039-.383-.536.026-.104.021-.093.25-1.25q.059-.294.029-.591l-.25-2.5a2 2 0 0 0-.201-.695l-.25-.5A2 2 0 0 0 35.249 19h-.75c-.528 0-1.035.209-1.409.581l-.804.08a2 2 0 0 0-.996-.15l-4.579.482-2.91-.194a2 2 0 0 0-.254-.133l-.376-3.263c.355-.361.575-.856.575-1.403v-.5a2 2 0 0 0-2-2h-3.768l-.748-.175a2 2 0 0 0-1.021.028l-.501.147h-4.962a2 2 0 0 0-1.973 1.671l-.25 1.5c-.053.318-.028.639.068.939a2 2 0 0 0-1.345 1.93L2.39 20.095A2 2 0 0 0 1 22v3.018c-.598.346-1 .992-1 1.732V28a2 2 0 0 0 2 2h2.332l3.08 1.348.175.262a2 2 0 0 0 1.664.891h.323a4.71 4.71 0 0 0 4.177 2.5h15.25a4.76 4.76 0 0 0 4.633-3.701l1.393 1.311.912 1.14q.069.087.148.165l.5.5a2 2 0 0 0 1.414.586h8a2 2 0 0 0 1.029-3.715Z"
          class="outline"
          fill="#fff"
        ></path>
        <g id="CrawlerLoader__icon">
          <path
            d="m27.32 24.86-.1-.03-4.47-1.58L23 22v-.25l-.25-.25h-1l-.5 2.5H17v-3.5h-2.75L13.5 22h-3v-1.5H9.25L3 22.5v4.25H2V28h2.75l4 1.75.5.75h2.25v-.25l.25-1 .5-.75.5-.5 1-.5 4.75-.5h4.25v-1H28zM9 24.75h-.75V24H9zm7.5-2h-1V22h1zM28.75 27l.25.5-2.5-.25-2-.25zM16.746 15h5v-.5h-4l-.973-.228-.777.228h-5.25l-.25 1.5h2.25v-.25z"
            class="primary"
            fill="#F2A900"
          ></path>
          <path
            d="M11.246 20.5h5.75V20h-7.75L3 22v.5l6.246-2z"
            class="secondary"
            fill="#808082"
          ></path>
          <path
            d="M15.496 22h1v.75h-1zM8.25 24H9v.75h-.75z"
            class="neutral1"
            fill="#2b2b2b"
          ></path>
          <path
            d="M16.996 20.5V24h4.25l.5-2.5-.75-6.5h-4.25l-4 .75V16l-.75 4h5zm.5-5h3l.5 5.75-.5 2h-3zm-.75 4h-4l.5-3.25 1.5-.321v-.179h.25v.125l1.75-.375z"
            class="neutral1"
            fill="#2b2b2b"
          ></path>
          <path
            d="m13.246 16.25-.5 3.25h2v-3.571zM14.996 19.5h1.75v-4l-1.75.375zM20.996 21.25l-.5-5.75h-3v7.75h3z"
            class="window"
            fill="#bbe3f3"
          ></path>
          <path
            d="m10.746 19-.5-.5h-1l.25.75h.5V20h.75zM31.5 21.5v1l-.96.16-3.79-.66z"
            class="neutral1"
            fill="#2b2b2b"
          ></path>
          <path
            d="m33.75 22 .25-.5-2.5.25v.5z"
            class="neutral2"
            fill="#808082"
          ></path>
          <path
            d="M43.75 31.65V31l-1.5-4.5 1.5-1.25-.5-.25L42 26l-1.5.5-1.25 1.25-1.5 1.5v.5l.75 1-1 1.25v.5l.5.5h8zm-5.25.85a.5.5 0 1 1 0-1 .5.5 0 0 1 0 1"
            class="primary"
            fill="#F2A900"
          ></path>
          <path
            d="M14.996 15.75h-.25v3.75h.25v-3.75"
            class="neutral1"
            fill="#2b2b2b"
          ></path>
          <path
            d="m37.75 29.75-2.5-3.5.25-1 .25-1.25-.25-2.5-.25-.5h-.75l-.5.5-.25.5-.5 1.5-.75-.5-1.96-.34-3.79-.66-3.75-.25V22l-.25 1.25 4.47 1.58.1.03 3.93 1.39 1 1 4.25 4 1 1.25V32l1-1.25zM34.25 23v-1.25l.25-.25h.5l.25.25V23l-.5.25z"
            class="secondary"
            fill="#808082"
          ></path>
          <path
            d="M35.25 23v-1.25L35 21.5h-.5l-.25.25V23l.5.25z"
            class="neutral2"
            fill="#808082"
          ></path>
          <circle
            cx="38.5"
            cy="32"
            r=".5"
            class="neutral2"
            fill="#808082"
          ></circle>
          <path
            d="M10.5 21.25V22h2.996l.75-1.5H10.5z"
            class="neutral1"
            fill="#2b2b2b"
          ></path>
          <path
            d="M21 26.25V27h-2.5l-4.75.5-1 .5-.5.5-.5.75-.25 1v.25H9.25l-.5-.75-4-1.75h5.75v-1.5h1zM10.996 14.75l-.25 1h1.5l.25-1zM16.773 14.272l-.027.728h.5l.5-.5zM6.5 22.25l-2 .75v1.25h2zM6.75 22.25v2H8v-.5h.75v-1.5zM13.5 23.75h3.496V24H13.5z"
            class="shadow"
            fill="#353535"
            opacity=".3"
          ></path>
          <path
            d="M10.5 22h.25v4.5h-.25zM4.25 22.5l-.25.25v4l.25.25H9l.25-.5v-2.25H9v2.5H4.25v-4l2.5-.75H9v2.25h.25V22L9 21.75H6.75zM10.75 25h2.75v.25h-2.75zM13.25 22h.25v3h-.25zM20.996 24h.25v3h-.25zM28 26h-5.25v-2.75l4.47 1.58.1.03zM29 27.5l-4.5-.5h4.25z"
            class="shadow"
            fill="#353535"
            opacity=".3"
          ></path>
          <path
            d="M6.754 24.5h1.25v.5h.75v1.5h-2zM4.504 24.5h2v2h-2zM39.504 27.5V29l-1 1.75-.75-1v-.5zM44.504 32.75l.25.25h-6.75l-.25-.25zM20.996 26.25V27H18.5l-4.75.5-1.004.5-.5.5-.5.75-.496.75-.25.5H9.75V28h.75v-1.5h.996z"
            class="shadow"
            fill="#353535"
            opacity=".3"
          ></path>
          <path
            d="m41.25 26.25 1.5 3.75v2.75h1.75l-.75-1V31l-1.5-4.5L42 26zM14.246 20.5l-.25.5h3v-.5zM2 27.5h8.5v.5H2zM22.996 21.75V22l3.754.5 5.5 1 .75.5 2.25 2.75 3.25 4-.75-1-2.5-3.5-2-2.75-.75-.5-5.75-1z"
            class="highlight"
            fill="#fefeff"
            opacity=".31"
          ></path>
          <path
            d="M17.746 31.75c0-.089.022-.171.05-.25h-.297v1h.996a.75.75 0 0 1-.75-.75ZM14.476 31.5c-.32.31-.75.5-1.23.5-.837 0-1.53-.582-1.705-1.365.213 1.059 1.279 1.865 2.572 1.865h.886v-1h-.524ZM19.496 31.75c0-.089.022-.171.05-.25h-.351c.028.079.05.161.05.25a.75.75 0 0 1-.75.75h1.75a.75.75 0 0 1-.75-.75ZM17.746 28.25a.75.75 0 0 1 .75-.75l-4.383.5c-1.293 0-2.359.806-2.572 1.865a1.74 1.74 0 0 1 1.705-1.365c.48 0 .91.19 1.23.5h4.02a.75.75 0 0 1-.75-.75"
            class="neutral1"
            fill="#2b2b2b"
          ></path>
          <path
            d="M20.746 28.25a.75.75 0 0 1 .75-.75h-3a.75.75 0 0 1 0 1.5h3a.75.75 0 0 1-.75-.75M26.496 31.75c0-.089.022-.171.05-.25h-.351c.028.079.05.161.05.25a.75.75 0 0 1-.75.75h1.75a.75.75 0 0 1-.75-.75ZM28.274 31.5h-.328c.028.079.05.161.05.25a.75.75 0 0 1-.75.75h1.25v-.817a2 2 0 0 1-.222-.183M23.746 28.25a.75.75 0 0 1 .75-.75h-3a.75.75 0 0 1 0 1.5h3a.75.75 0 0 1-.75-.75"
            class="neutral1"
            fill="#2b2b2b"
          ></path>
          <path
            d="M31.201 29.868C30.989 28.808 29.923 28 28.628 28l-4.133-.5a.75.75 0 0 1 0 1.5h3.778a1.748 1.748 0 0 1 2.927.868ZM29.896 31.95l-.15.3-.621.207c1.064-.176 1.893-.904 2.076-1.825a1.75 1.75 0 0 1-1.305 1.318M24.746 31.75c0-.089.022-.171.05-.25h-.351c.028.079.05.161.05.25a.75.75 0 0 1-.75.75h1.75a.75.75 0 0 1-.75-.75ZM22.996 31.75c0-.089.022-.171.05-.25h-.351c.028.079.05.161.05.25a.75.75 0 0 1-.75.75h1.75a.75.75 0 0 1-.75-.75ZM21.246 31.75c0-.089.022-.171.05-.25h-.351c.028.079.05.161.05.25a.75.75 0 0 1-.75.75h1.75a.75.75 0 0 1-.75-.75Z"
            class="neutral1"
            fill="#2b2b2b"
          ></path>
          <path
            d="M28.496 31.5h-.222q.104.1.222.183zM31.201 30.632q.043-.184.045-.382c.002-.198-.017-.259-.045-.382a1.75 1.75 0 0 0-1.705-1.368 1.74 1.74 0 0 0-1.222.5h2.222l.25.25v2l-.25.25h-.5v.25l-.1.2a1.75 1.75 0 0 0 1.305-1.318"
            class="neutral2"
            fill="#808082"
          ></path>
          <circle
            cx="18.496"
            cy="28.25"
            r=".75"
            class="primary"
            fill="#F2A900"
          ></circle>
          <circle
            cx="21.496"
            cy="28.25"
            r=".75"
            class="primary"
            fill="#F2A900"
          ></circle>
          <circle
            cx="24.496"
            cy="28.25"
            r=".75"
            class="primary"
            fill="#F2A900"
          ></circle>
          <path
            d="M19.246 31.75a.7.7 0 0 0-.05-.25h-1.399a.7.7 0 0 0-.05.25.75.75 0 0 0 1.5 0ZM20.996 31.75a.7.7 0 0 0-.05-.25h-1.399a.7.7 0 0 0-.05.25.75.75 0 0 0 1.5 0ZM22.746 31.75a.7.7 0 0 0-.05-.25h-1.399a.7.7 0 0 0-.05.25.75.75 0 0 0 1.5 0ZM24.496 31.75a.7.7 0 0 0-.05-.25h-1.399a.7.7 0 0 0-.05.25.75.75 0 0 0 1.5 0ZM26.246 31.75a.7.7 0 0 0-.05-.25h-1.399a.7.7 0 0 0-.05.25.75.75 0 0 0 1.5 0ZM27.996 31.75a.7.7 0 0 0-.05-.25h-1.399a.7.7 0 0 0-.05.25.75.75 0 0 0 1.5 0ZM15 31.5h2.5v1H15z"
            class="primary"
            fill="#F2A900"
          ></path>
          <path
            d="M15 31.5h2.5v1H15z"
            class="highlight"
            fill="#fefeff"
            opacity=".31"
          ></path>
          <circle
            cx="18.496"
            cy="28.25"
            r=".5"
            class="shadow"
            fill="#353535"
            opacity=".3"
          ></circle>
          <circle
            cx="21.496"
            cy="28.25"
            r=".5"
            class="shadow"
            fill="#353535"
            opacity=".3"
          ></circle>
          <circle
            cx="24.496"
            cy="28.25"
            r=".5"
            class="shadow"
            fill="#353535"
            opacity=".3"
          ></circle>
          <circle
            cx="18.496"
            cy="31.75"
            r=".5"
            class="shadow"
            fill="#353535"
            opacity=".3"
          ></circle>
          <circle
            cx="20.246"
            cy="31.75"
            r=".5"
            class="shadow"
            fill="#353535"
            opacity=".3"
          ></circle>
          <circle
            cx="21.996"
            cy="31.75"
            r=".5"
            class="shadow"
            fill="#353535"
            opacity=".3"
          ></circle>
          <circle
            cx="23.746"
            cy="31.75"
            r=".5"
            class="shadow"
            fill="#353535"
            opacity=".3"
          ></circle>
          <circle
            cx="25.496"
            cy="31.75"
            r=".5"
            class="shadow"
            fill="#353535"
            opacity=".3"
          ></circle>
          <circle
            cx="27.246"
            cy="31.75"
            r=".5"
            class="shadow"
            fill="#353535"
            opacity=".3"
          ></circle>
          <path
            d="m29 27.5-1-.11-1.25-.14L24.5 27h-6l-4.75.5c-1.52 0-2.75 1.23-2.75 2.75S12.23 33 13.75 33H29c1.52 0 2.75-1.23 2.75-2.75S30.52 27.5 29 27.5m-.5 5H14.11c-1.29 0-2.36-.81-2.57-1.87a1.756 1.756 0 0 0 2.94.87H28.5zm.62-.04.63-.21.15-.3.1-.2v-.25h.5l.25-.25v-2L30.5 29H14.48c-.32-.31-.75-.5-1.23-.5-.73 0-1.36.44-1.62 1.08.32-.91 1.31-1.58 2.48-1.58l4.39-.5h6l4.13.5c1.29 0 2.36.81 2.57 1.87.03.12.05.25.05.38s-.02.26-.05.38c-.18.92-1.01 1.65-2.08 1.83"
            class="primary"
            fill="#F2A900"
          ></path>
          <path
            d="m29 27.5-4.5-.5h-6l-4.75.5c-1.52 0-2.75 1.23-2.75 2.75S12.23 33 13.75 33H29c1.52 0 2.75-1.23 2.75-2.75S30.52 27.5 29 27.5m-.37 5H14.12c-1.45 0-2.62-1.01-2.62-2.25S12.67 28 14.12 28l4.38-.5h6l4.13.5c1.45 0 2.62 1.01 2.62 2.25s-1.17 2.25-2.62 2.25"
            class="shadow"
            fill="#353535"
            opacity=".3"
          ></path>
          <path
            d="m16.006 29.75-.26.25v.5l.26.25h13.231l.259-.25V30l-.259-.25z"
            class="shadow"
            fill="#353535"
            opacity=".3"
          ></path>
          <path
            d="M10.75 22h2.5v3h-2.5z"
            class="highlight"
            fill="#fefeff"
            opacity=".31"
          ></path>
          <path
            d="M22.75 26h6.75v1h-6.75z"
            class="neutral1"
            fill="#2b2b2b"
          ></path>
          <path
            d="M30 26.25h-.5v.5h2.25l-.5-.5z"
            class="neutral2"
            fill="#808082"
          ></path>
        </g></svg>
