<svg xmlns="http://www.w3.org/2000/svg"
      class="css-9txd9r"
      focusable="false"
      viewBox="0 0 48 48"
      data-icon-name="CuttersAndShreddersFlailMowers"
      size="65"
    >
      <path
        id="CuttersAndShreddersFlailMowers__outline"
        d="M46.003 22.5h-1.25v-.49c0-1.105-.895-2.01-2-2.01h-.563l.004-.015.25-1a2 2 0 0 0-.396-1.756l-3.5-4.25a2 2 0 0 0-2.106-.648L22.5 16.417l-.081-.081a2 2 0 0 0-1.414-.586h-.75c-.375 0-.742.105-1.06.304l-.506.316a2 2 0 0 0-.683-.121c-.392 0-.779.115-1.109.336l-.75.5a2 2 0 0 0-.25.196c-.387.07-.756.255-1.055.553l-.422.422-2.414 1.931a2 2 0 0 0-.165.148l-.5.5a2 2 0 0 0-.551 1.041 6.9 6.9 0 0 0-3.785-1.127C3.144 20.75.003 23.89.003 27.75s3.14 7 7 7a7.03 7.03 0 0 0 5.978-3.361l.413.275a2 2 0 0 0 1.109.336h4.264l1.197 2.394a2 2 0 0 0 1.789 1.106h1c.493 0 .962-.182 1.323-.5h3.354c.361.318.83.5 1.323.5h1a2 2 0 0 0 1.828-1.188l.699-1.574c.507-.217.947-.56 1.283-.989h3.44a2 2 0 0 0 1.897-1.368l.25-.75q.039-.117.063-.237l.247-.779L46.185 28a2 2 0 0 0 1.818-1.992v-1.5c0-1.105-.895-2.01-2-2.01Z"
        class="outline"
        fill="#fff"
      ></path>
      <g id="CuttersAndShreddersFlailMowers__icon">
        <path
          d="m22.253 19-5.5 4.25-.75.5-3.25 2.5v.25h-1v2.25h1l1 .75.75.5h5.5l-.25-1.25z"
          class="primary"
          fill="#367C2B"
        ></path>
        <path
          d="m13.503 22.5-2.75 2.25.75 1.25 2.75-2.25z"
          class="neutral2"
          fill="#808082"
        ></path>
        <path
          d="m13.503 22.5-2.75 2.25.75 1.25 2.75-2.25z"
          class="shadow"
          fill="#353535"
          opacity=".3"
        ></path>
        <path
          d="m13.503 22.5-2.75 2.25.75 1.25 2.75-2.25z"
          class="shadow"
          fill="#353535"
          opacity=".3"
        ></path>
        <path
          d="m22.253 19-1.25-1.25h-.75l-2 1.25.75 1 1.5.5z"
          class="primary"
          fill="#367C2B"
        ></path>
        <path
          d="m22.253 19-1.25-1.25h-.75l-2 1.25.75 1 1.5.5z"
          class="shadow"
          fill="#353535"
          opacity=".3"
        ></path>
        <circle
          cx="20.003"
          cy="19"
          r=".5"
          class="neutral2"
          fill="#808082"
        ></circle>
        <path
          d="m19.003 19 .25.5-.75.5-.25-.5z"
          class="neutral1"
          fill="#2b2b2b"
        ></path>
        <path
          d="M11.753 26.5h1v2.25h-1z"
          class="shadow"
          fill="#353535"
          opacity=".3"
        ></path>
        <circle
          cx="13.628"
          cy="27.875"
          r=".625"
          class="shadow"
          fill="#353535"
          opacity=".3"
        ></circle>
        <circle
          cx="15.128"
          cy="27.875"
          r=".625"
          class="shadow"
          fill="#353535"
          opacity=".3"
        ></circle>
        <path
          d="M13.753 29.5h6l.25.5h-5.5z"
          class="shadow"
          fill="#353535"
          opacity=".3"
        ></path>
        <path
          d="M13.753 29.5h6l.25.5h-5.5zM16.003 28.75v-5l.75-.5v5.5z"
          class="shadow"
          fill="#353535"
          opacity=".3"
        ></path>
        <path
          d="M20.503 25.75h-2.75V25h3z"
          class="neutral1"
          fill="#2b2b2b"
        ></path>
        <circle
          cx="17.628"
          cy="25.375"
          r=".625"
          class="neutral1"
          fill="#2b2b2b"
        ></circle>
        <path
          d="m20.003 22.5 1 1.5.75-3z"
          class="shadow"
          fill="#353535"
          opacity=".3"
        ></path>
        <circle
          cx="7.003"
          cy="27.75"
          r="5"
          class="neutral1"
          fill="#2b2b2b"
        ></circle>
        <circle
          cx="7.003"
          cy="27.75"
          r="2.632"
          class="secondary"
          fill="#FFDE00"
        ></circle>
        <circle
          cx="7.003"
          cy="27.75"
          r="2.105"
          class="shadow"
          fill="#353535"
          opacity=".3"
        ></circle>
        <circle
          cx="7.003"
          cy="27.75"
          r="1.053"
          class="shadow"
          fill="#353535"
          opacity=".3"
        ></circle>
        <path
          d="m12.753 22.25 1.5 2.25.75-.5-.25-.25 3.75-3 .25.25.75-.5-1.5-2.25-.75.5.25.5-.75.5-.5-.5-.5.5.5.5-2.5 2-.5-.5z"
          class="neutral1"
          fill="#2b2b2b"
        ></path>
        <path
          d="m13.253 21.75.5.5 2.5-2-.5-.5z"
          class="neutral2"
          fill="#808082"
        ></path>
        <path
          d="M42.753 24.51v-2.5h-3.4l-1.44 4.74 8.09-.74v-1.5z"
          class="primary"
          fill="#367C2B"
        ></path>
        <path
          d="m46.003 26-8.09.74.23-.74z"
          class="shadow"
          fill="#353535"
          opacity=".3"
        ></path>
        <path
          d="M46.003 24.5V26h-7.86l.45-1.5z"
          class="highlight"
          fill="#fefeff"
          opacity=".31"
        ></path>
        <path
          d="M42.753 22v2.5h-4.16l.46-1.51z"
          class="shadow"
          fill="#353535"
          opacity=".3"
        ></path>
        <path
          d="m42.753 22-3.7.99.3-.99z"
          class="highlight"
          fill="#fefeff"
          opacity=".31"
        ></path>
        <path
          d="m21.753 21.75-1.25.75.75 1z"
          class="neutral1"
          fill="#2b2b2b"
        ></path>
        <path
          d="m40.503 18.5-.25 1-3.25 10.25h-5.5l-.75 1.5-1 2.25h-1.25l.25-.5h-6l.25.5h-1.25l-1.75-3.5-.25-1.25 2.5-9.75.25-.5 14.5-4.25z"
          class="primary"
          fill="#367C2B"
        ></path>
        <path
          d="m13.753 29.5-1-.75h7l2.5-9.75.25-.5 14.5-4.25 3.5 4.25h-1l-2.75-3-13.75 3.75-.25.25-2.75 10.5-.25-.5z"
          class="highlight"
          fill="#fefeff"
          opacity=".31"
        ></path>
        <path
          d="m37.253 29-.25.75h-5.5l-.75 1.5-1 2.25h-1.25l.25-.5h-6l.25.5h-1.25l-1.75-3.5.25-1zM22.753 19.5h17.5l.25-1h-14.75l-2.75.75z"
          class="shadow"
          fill="#353535"
          opacity=".3"
        ></path>
        <path d="M33.753 20h3v2h-3z" class="neutral1" fill="#2b2b2b"></path>
        <path
          d="m20.253 29-.25 1 .5-.25h8.75V30l.25.75.25.25-1.25 2.5h.75l1-2.25h.5l.75-1.5h5.5l.25-.75zm9.89 1.53-.39-.78h.75z"
          class="shadow"
          fill="#353535"
          opacity=".3"
        ></path>
        <path
          d="m20.253 29-.25 1 .5-.25h8.75V30l.25.75.25.25-1.25 2.5h.75l1-2.25h.5l.75-1.5h5.5l.25-.75zm9.89 1.53-.39-.78h.75z"
          class="shadow"
          fill="#353535"
          opacity=".3"
        ></path>
        <path
          d="m20.503 29.75 1.75 3.75h.75l-1.75-3.75z"
          class="shadow"
          fill="#353535"
          opacity=".3"
        ></path>
        <path
          d="m20.503 29.75 1.75 3.75h.75l-1.75-3.75zM29.253 29l.25-.5.5-.5.75-.25h.5l.5.25.5.25.25.5V29z"
          class="shadow"
          fill="#353535"
          opacity=".3"
        ></path>
        <circle
          cx="31.003"
          cy="29.75"
          r="1.25"
          class="primary"
          fill="#367C2B"
        ></circle>
        <circle
          cx="31.003"
          cy="29.75"
          r="1.25"
          class="highlight"
          fill="#fefeff"
          opacity=".31"
        ></circle>
        <circle
          cx="31.003"
          cy="29.75"
          r=".75"
          class="primary"
          fill="#367C2B"
        ></circle>
        <circle
          cx="31.003"
          cy="29.75"
          r=".75"
          class="shadow"
          fill="#353535"
          opacity=".3"
        ></circle>
      </g></svg>
