<svg xmlns="http://www.w3.org/2000/svg"
        class="css-9txd9r"
        focusable="false"
        viewBox="0 0 48 48"
        data-icon-name="FrontDeckMower"
      >
        <path
          id="FrontDeckMower__outline"
          d="M47.75 30.5a2 2 0 0 0-.586-1.414l-.25-.25a2 2 0 0 0-1.414-.586h-1.25a2 2 0 0 0-1.414.586l-.25.25a2 2 0 0 0-.57 1.164H40.75q-.321 0-.621.099A2 2 0 0 0 39 30h-4.896a2 2 0 0 0-.391-.614 2 2 0 0 0-.401-1.635l-.631-.788-.191-1.911a2 2 0 0 0-.472-1.103l-1.844-2.152a2 2 0 0 0-.26-1.656l-1-1.5a2 2 0 0 0-.422-.458 2 2 0 0 0-.203-1.077l-.25-.5A2 2 0 0 0 26.25 15.5c-.391 0-.778.115-1.109.336l-3.75 2.5c-.37.247-.644.607-.784 1.021a2 2 0 0 0-.548.288l-.269-.538a2 2 0 0 0-.189-.306l-.642-.856-.208-.416v-.028a2 2 0 0 0-.586-1.414l-.25-.25a2 2 0 0 0-1.414-.586h-.75q-.139 0-.275.019l1.219-5.05q.056-.232.056-.469v-.25a2 2 0 0 0-1.515-1.94l-1-.25a1.997 1.997 0 0 0-1.899.526l-.25.25a2 2 0 0 0-.544 1.009l-1.205 5.823a2 2 0 0 0-.048.19l-.012.06c-.388.3-.664.74-.75 1.254l-.047.284a2 2 0 0 0-.691 1.153l-.25 1.25c-.094.471-.014.945.203 1.346l-.49.061a2 2 0 0 0-.144.023l-6.25 1.25a2 2 0 0 0-1.022.547l-.25.25a2 2 0 0 0-.586 1.414v1c0 .342.087.674.25.968v2.313c-.155.279-.245.6-.25.941l-.003.249q0 .073.003.147v.382c0 .352.091.682.25.969v.531c0 .31.072.617.211.894l1.54 3.08a5.38 5.38 0 0 0 5.374 5.276 5.385 5.385 0 0 0 5.038-3.5h6.412a6.29 6.29 0 0 0 5.675 3.562 6.27 6.27 0 0 0 3.37-.977 3 3 0 0 0 1.88.664c.406 0 .808-.086 1.18-.25h2.32a2 2 0 0 0 1.804-1.135l2.483.248c.332.356.793.591 1.308.63a2.94 2.94 0 0 0 1.655.506c.546 0 1.059-.147 1.501-.403a4.004 4.004 0 0 0 5.749-3.597c0-.482-.086-.951-.253-1.393l.003-.107v-2.75q0-.129-.016-.254c.173-.301.266-.644.266-.996v-.5Zm-22.578-4.25h-.758l.067-.467.121-.722.571 1.19Z"
          class="outline"
          fill="#fff"
        ></path>
        <g id="FrontDeckMower__icon">
          <path
            d="m25.5 18.75-1.5 1 1.25.25zM32.25 33.25h5.5V34h-5.5zM4.429 30.594l-.679.906 1 1.5h.229q.239-.24.521-.43v-2.32l-.5.5z"
            class="outline"
            fill="#fff"
          ></path>
          <path
            d="M44.803 36.5a1.053 1.053 0 0 1-2.106 0c0-.562.443-1.011.997-1.041l.586-.879a2 2 0 0 0-.53-.08 2 2 0 1 0 2 2c0-.465-.165-.888-.432-1.227l-.586.879c.039.11.07.225.07.348Z"
            class="neutral1"
            fill="#2b2b2b"
          ></path>
          <path
            d="M42.697 36.5a1.053 1.053 0 0 0 2.106 0c0-.124-.031-.238-.07-.348l-.162.242c.005.036.021.068.021.106a.842.842 0 0 1-1.684 0c0-.388.268-.7.624-.798l.162-.243c-.554.031-.997.48-.997 1.041"
            class="secondary"
            fill="#FFDE00"
          ></path>
          <path
            d="M42.908 36.5a.842.842 0 0 0 1.684 0c0-.038-.017-.07-.021-.106L44 37.25l-1-.75.532-.798a.83.83 0 0 0-.624.798"
            class="secondary"
            fill="#FFDE00"
          ></path>
          <path
            d="M42.908 36.5a.842.842 0 0 0 1.684 0c0-.038-.017-.07-.021-.106L44 37.25l-1-.75.532-.798a.83.83 0 0 0-.624.798"
            class="shadow"
            fill="#353535"
            opacity=".3"
          ></path>
          <path
            d="M12.25 33.75v-.25l-.25-.625V33h-.5v.75zM5.5 31h1v.5h-1z"
            class="neutral2"
            fill="#808082"
          ></path>
          <path
            d="M7.25 30.75v1H5.5v.82A3.36 3.36 0 0 1 7.375 32c.797 0 1.52.288 2.097.75h2.478l-.2-.5-1.25-1-2.25-.75-1.75-.25h-1v.5zm.25 0h.75v1H7.5z"
            class="neutral2"
            fill="#808082"
          ></path>
          <path
            d="M16.5 21.75v.5h.5l.5-.5h1V21l-.5-1-.75-1-.5-1v-.5l-.25-.25h-.75l-.25.5v3.75h.75zM17.75 22.75h-1.5l-.25.5v.5l1.75-.25.75-1h-.25z"
            class="secondary"
            fill="#FFDE00"
          ></path>
          <path
            d="m19.25 32.5.5-.75 1-1.25-.75-1.75h7.5l3.25-1-.25-2.5-2.885-3.365.635-.635-1-1.5-.891.668L26 20l-.221.132.471-1.882.25-.25-.25-.5L22.5 20l.5.5.25-.25 1.581.452-.081.048 3 6.25-.179 1.25H21.75l.5-1 .25-1.75.25-1.5v-1.25l-1.25.189v-.189l.25-.25v-1l-.25-.25h-.25l-.25.25v1l.25.25v.227l-5.25.795v-.523l.25-.5h1.5l.5-.25H20l.25.25h.25v-.5l-.25-.25-.5-.25H17.5l-.5.5h-.5v-.5l-.25-.25h-.75l-.25.25v2.136l-.75.114.25 1.25v.5H13.5v-.5h-2.75l-.5.75-2 3.25-.25.5-2-.25-.5.75h1l1.75.25 2.25.75 1.25 1 .2.5H9.472c.102.081.207.158.299.25H12v-.125l.25.625v.25h-1.934c.046.083.097.163.136.25h1.798v1.25H19v-1.75l.25-1Zm6.25-13.75L25.25 20 24 19.75zm-8 3.25a.25.25 0 1 1 0 .5.25.25 0 0 1 0-.5M9 29.25 11 26l7.25.75L19.8 30l-.3.43zM4.429 30.594 2.25 30v1.25l1.5.25zM6.5 26.125l-4.25-1.063v4.188l2.25.5zM7.246 24.772 8.5 22.5l-6.25 1.25 5 1z"
            class="neutral1"
            fill="#2b2b2b"
          ></path>
          <path
            d="m5 30.75.5-.5.5-.75 2 .25.25-.5 2-3.25.5-.75h2.75v.5h1.25v-.5l-2-6.25.5-1.75L13 17l1.75-7.25V9.5l-1-.25-.25.25-1.5 7.25h-.5l-.25 1.5h-.5l-.25 1.25 1.5.75.5 1.75-4 .5-1.254 2.272.004-.022-5-1L2 24v1l.25.062 4.25 1.062-2 3.625-2.25-.5H2v.75h.25l2.179.594zm7.25-13a.25.25 0 1 1 0 .5.25.25 0 0 1 0-.5M12 19a.25.25 0 1 1 0 .5.25.25 0 0 1 0-.5M4.75 33l-1-1.5-1.5-.25v.25L4 35l.045-.072c.1-.746.429-1.419.934-1.928z"
            class="primary"
            fill="#367C2B"
          ></path>
          <path
            d="m19.8 30-1.55-3.25L11 26l-2 3.25 10.5 1.18zM18 27a.25.25 0 1 1 0 .5.25.25 0 0 1 0-.5m-6.75-.75a.25.25 0 1 1 0 .5.25.25 0 0 1 0-.5M10 29a.25.25 0 1 1 0-.5.25.25 0 0 1 0 .5m5-1-4.25-.5.25-.5 7.25 1 .75 1.25-3.25-.5zm4.25 2.25a.25.25 0 1 1 0-.5.25.25 0 0 1 0 .5"
            class="primary"
            fill="#367C2B"
          ></path>
          <path
            d="M18.25 28 11 27l-.25.5L15 28l.75.75 3.25.5z"
            class="stripe"
            fill="#FFDE00"
          ></path>
          <circle
            cx="17.5"
            cy="22.25"
            r=".25"
            class="neutral2"
            fill="#808082"
          ></circle>
          <path
            d="M24.5 30.188a4.3 4.3 0 0 1 3.87 2.443l1.88-1.88 1.5-1.75-1-1.25-3.25 1H20l.75 1.75-1 1.25-.5.75-.25 1v1.75h1.263a4.3 4.3 0 0 1-.076-.75 4.31 4.31 0 0 1 4.312-4.312Z"
            class="primary"
            fill="#367C2B"
          ></path>
          <path
            d="m31.25 32-1-1.25-1.88 1.88c.27.557.434 1.175.439 1.834L30 33.749l1.25-.75zm-1.125.5a.375.375 0 1 1 0-.75.375.375 0 0 1 0 .75"
            class="neutral2"
            fill="#808082"
          ></path>
          <path
            d="M32.25 30.75h-1V32h1.5zM36.5 34.5h-3l-1.25-.5v1.25h5.5V34z"
            class="neutral1"
            fill="#2b2b2b"
          ></path>
          <path
            d="M40.133 36.574 39.75 36H33l-1.5.75H39V38h.653a.97.97 0 0 1-.153-.5c0-.422.263-.779.633-.926"
            class="neutral2"
            fill="#808082"
          ></path>
          <circle
            cx="31.875"
            cy="32.625"
            r=".375"
            class="neutral2"
            fill="#808082"
          ></circle>
          <path
            d="m36.5 34.5 1.25-.5h-5.5l1.25.5z"
            class="neutral2"
            fill="#808082"
          ></path>
          <circle
            cx="37.125"
            cy="32.625"
            r=".375"
            class="neutral2"
            fill="#808082"
          ></circle>
          <circle
            cx="31"
            cy="34"
            r=".25"
            class="neutral2"
            fill="#808082"
          ></circle>
          <circle
            cx="31.75"
            cy="34"
            r=".25"
            class="neutral2"
            fill="#808082"
          ></circle>
          <circle
            cx="31"
            cy="34.75"
            r=".25"
            class="neutral2"
            fill="#808082"
          ></circle>
          <circle
            cx="31.75"
            cy="34.75"
            r=".25"
            class="neutral2"
            fill="#808082"
          ></circle>
          <path
            d="m40.75 32.25-.88.88L39 32h-7.75v1.25l-.75.75v1.25h-.75v1.25a1 1 0 0 1 1 1 .98.98 0 0 1-.357.75h2.857v-1.325l-1.75-.175L33 36h6.75l.383.574a1 1 0 0 1 .367-.074 1 1 0 0 1 1 1v-2.25l-.761-.989.761-.761h2.75l.25.25v.5l-.22.33-.586.879-.162.243L43 36.5l1 .75.571-.856.162-.242.586-.879.182-.273v-2.75zm-2.125.25a.375.375 0 1 1 0 .75.375.375 0 0 1 0-.75m-1.5-.25a.375.375 0 1 1 0 .75.375.375 0 0 1 0-.75m-5.25 0a.375.375 0 1 1 0 .75.375.375 0 0 1 0-.75m-.125 1.5a.25.25 0 1 1 0 .5.25.25 0 0 1 0-.5m0 .75a.25.25 0 1 1 0 .5.25.25 0 0 1 0-.5m-.75-.75a.25.25 0 1 1 0 .5.25.25 0 0 1 0-.5m0 .75a.25.25 0 1 1 0 .5.25.25 0 0 1 0-.5m1.25.75v-2h5.5v2zm11.625 1.5a.375.375 0 1 1 0-.75.375.375 0 0 1 0 .75"
            class="primary"
            fill="#367C2B"
          ></path>
          <circle
            cx="43.875"
            cy="36.375"
            r=".375"
            class="neutral2"
            fill="#808082"
          ></circle>
          <path
            d="m45.5 31.25.25-.25v-.5l-.25-.25h-1.25l-.25.25v.5l.25.25h.25v1h.75v-1z"
            class="neutral2"
            fill="#808082"
          ></path>
          <path
            d="M10.452 34c.172.384.269.806.286 1.25h1.513V34zM11.5 33.75V33H9.771c.218.22.394.477.545.75z"
            class="primary"
            fill="#367C2B"
          ></path>
          <path
            d="M7.25 31.5v-.75H5.5V31h1v.5h-1v.25h1.75zM7.5 30.75h.75v1H7.5zM30.5 34l.75-.75V33l-1.25.75v1.5h.5z"
            class="neutral1"
            fill="#2b2b2b"
          ></path>
          <circle
            cx="38.625"
            cy="32.875"
            r=".375"
            class="neutral2"
            fill="#808082"
          ></circle>
          <circle
            cx="30.125"
            cy="32.125"
            r=".375"
            class="neutral1"
            fill="#2b2b2b"
          ></circle>
          <circle
            cx="11.25"
            cy="26.5"
            r=".25"
            class="neutral1"
            fill="#2b2b2b"
          ></circle>
          <circle
            cx="10"
            cy="28.75"
            r=".25"
            class="neutral1"
            fill="#2b2b2b"
          ></circle>
          <circle
            cx="18"
            cy="27.25"
            r=".25"
            class="neutral1"
            fill="#2b2b2b"
          ></circle>
          <circle
            cx="19.25"
            cy="30"
            r=".25"
            class="neutral1"
            fill="#2b2b2b"
          ></circle>
          <circle
            cx="12.25"
            cy="18"
            r=".25"
            class="neutral2"
            fill="#808082"
          ></circle>
          <circle
            cx="12"
            cy="19.25"
            r=".25"
            class="neutral2"
            fill="#808082"
          ></circle>
          <path
            d="M30.75 37.5a1 1 0 1 0-1 1c.249 0 .469-.1.643-.25a.98.98 0 0 0 .357-.75m-1.5 0a.5.5 0 1 1 1 0 .5.5 0 0 1-1 0"
            class="neutral1"
            fill="#2b2b2b"
          ></path>
          <circle
            cx="29.75"
            cy="37.5"
            r=".5"
            class="neutral2"
            fill="#808082"
          ></circle>
          <path
            d="M40.5 36.5a1 1 0 0 0-.367.074 1 1 0 0 0-.633.926c0 .186.065.351.153.5.174.293.481.5.847.5a1 1 0 0 0 0-2m0 1.5a.5.5 0 1 1 0-1 .5.5 0 0 1 0 1"
            class="neutral1"
            fill="#2b2b2b"
          ></path>
          <circle
            cx="40.5"
            cy="37.5"
            r=".5"
            class="neutral2"
            fill="#808082"
          ></circle>
          <path
            d="M33.25 36.75H31.5l1.75.175L39 37.5v-.75z"
            class="neutral1"
            fill="#2b2b2b"
          ></path>
          <path
            d="m16.5 17.25.25.25v.5l.5 1 .75 1 .5 1v.75h-.75V21l-.5-.75-.5-1-.5-1.25v-.5zM36.5 34.5v.75h1.25V34zM33.5 34.5v.75h-1.25V34zM31.25 33.25h1v2H30.5V34zM8.75 29.5v.25l10.25 1 .5-.32L9 29.25zM18.25 26.75v-.25l-.25-.25-3.25-.5H13.5v-.5h-2L11 26l2.25.233zM12.5 22l-4 .5-6.25 1.25L2 24v1l.25.25v4H2v.25l2.75.5 4-6.75 4-.5zm-8 7.75-.25-.06V24.5l.25-.25 3.44-.74zM20 28.75h7.5l3.25-1 1 1.25-1.25-.75-2.75 1H21.5l-1 .75zM27.25 19.75 25.5 21l1 1.75 1-.75.75-.75z"
            class="highlight"
            fill="#fefeff"
            opacity=".31"
          ></path>
          <path
            d="m27.5 21.75 3 3.5.25 2.5-.5.25-.25-2.5zM37.75 33.25v-.75l.5-.5H39l2.5 3.25V36h-3.75zM22.75 23.75l-1 .25-1.5.25h1.5l1-.25zM20 28.25l-1.5-3h-3l2.75.25 1.5 2.75zM10 30.5l9 1-4.5-.25zM15.5 33.25H14v-.5h2.25zM16.25 34H14v-.5h1.5zM17.75 34.75H14v-.5h3.25zM17.25 32.5H14V32h3.75z"
            class="highlight"
            fill="#fefeff"
            opacity=".31"
          ></path>
          <path
            d="m10.5 19.5 1.5.75.5 1.75.25.75.75 2.5v.5h1.25v-.5l-2-6.25-.25 1zM12 16.75l1 .25.25-1-1-.5zM2.25 31.25v.25L4 35l1.25-2h-.5l-1-1.5zM16 23.75l1.75-.25.75-1h-.25l-.5.25h-1.5l-.25.5zM44.25 32.25v1.25l.25.25v.5l1 .75v-2.75zM5.5 30.25v1l6.75 4V33.5l-.5-1.25-1.25-1-2.25-.75-1.75-.25zM20.75 30.5v2l.25 2.75h-2V33.5l.25-1 .5-.75z"
            class="shadow"
            fill="#353535"
            opacity=".3"
          ></path>
          <path
            d="m20.75 31.25 2-1.5 1.5-.25 1.75.25 1.5.75L29 32l-.75.75-1.25-1.5-1.5-.25-1.25-.25h-1l-2.5 1.75z"
            class="shadow"
            fill="#353535"
            opacity=".3"
          ></path>
          <path
            d="M10.316 33.75a3.4 3.4 0 0 0-.545-.75c-.091-.092-.197-.169-.299-.25A3.34 3.34 0 0 0 7.375 32a3.36 3.36 0 0 0-2.396 1 3.36 3.36 0 0 0-.934 1.928c-.02.148-.045.294-.045.447a3.375 3.375 0 1 0 6.75 0c0-.043-.011-.083-.013-.125a3.4 3.4 0 0 0-.286-1.25c-.039-.087-.09-.167-.136-.25Zm-2.941 3.401a1.776 1.776 0 1 1 0-3.552 1.776 1.776 0 0 1 0 3.552"
            class="neutral1"
            fill="#2b2b2b"
          ></path>
          <path
            d="M7.375 33.599a1.776 1.776 0 1 0 0 3.552 1.776 1.776 0 0 0 0-3.552m0 3.197a1.42 1.42 0 1 1 0-2.841 1.42 1.42 0 0 1 0 2.841"
            class="secondary"
            fill="#FFDE00"
          ></path>
          <path
            d="M7.375 33.954a1.42 1.42 0 1 0 0 2.841 1.42 1.42 0 0 0 0-2.841m0 2.132a.711.711 0 1 1 0-1.422.711.711 0 0 1 0 1.422"
            class="secondary"
            fill="#FFDE00"
          ></path>
          <path
            d="M7.375 33.954a1.42 1.42 0 1 0 0 2.841 1.42 1.42 0 0 0 0-2.841m0 2.132a.711.711 0 1 1 0-1.422.711.711 0 0 1 0 1.422"
            class="shadow"
            fill="#353535"
            opacity=".3"
          ></path>
          <path
            d="M7.375 34.664a.711.711 0 1 0 0 1.422.711.711 0 0 0 0-1.422"
            class="secondary"
            fill="#FFDE00"
          ></path>
          <path
            d="M7.375 34.664a.711.711 0 1 0 0 1.422.711.711 0 0 0 0-1.422"
            class="shadow"
            fill="#353535"
            opacity=".3"
          ></path>
          <path
            d="M7.375 34.664a.711.711 0 1 0 0 1.422.711.711 0 0 0 0-1.422"
            class="shadow"
            fill="#353535"
            opacity=".3"
          ></path>
          <path
            d="M24.5 30.188a4.31 4.31 0 0 0-4.312 4.312c0 .257.032.505.076.75a4.305 4.305 0 0 0 4.237 3.562 4.31 4.31 0 0 0 4.312-4.312q-.001-.018-.004-.035a4.26 4.26 0 0 0-.439-1.834 4.3 4.3 0 0 0-3.87-2.443m0 6.582a2.27 2.27 0 1 1 0-4.54 2.27 2.27 0 0 1 0 4.54"
            class="neutral1"
            fill="#2b2b2b"
          ></path>
          <path
            d="M24.5 32.23a2.27 2.27 0 1 0 0 4.54 2.27 2.27 0 0 0 0-4.54m0 4.086a1.816 1.816 0 1 1 0-3.632 1.816 1.816 0 0 1 0 3.632"
            class="secondary"
            fill="#FFDE00"
          ></path>
          <path
            d="M24.5 32.684a1.816 1.816 0 1 0 0 3.632 1.816 1.816 0 0 0 0-3.632m0 2.724a.908.908 0 1 1 0-1.816.908.908 0 0 1 0 1.816"
            class="secondary"
            fill="#FFDE00"
          ></path>
          <path
            d="M24.5 32.684a1.816 1.816 0 1 0 0 3.632 1.816 1.816 0 0 0 0-3.632m0 2.724a.908.908 0 1 1 0-1.816.908.908 0 0 1 0 1.816"
            class="shadow"
            fill="#353535"
            opacity=".3"
          ></path>
          <circle
            cx="24.5"
            cy="34.5"
            r=".908"
            class="secondary"
            fill="#FFDE00"
          ></circle>
          <circle
            cx="24.5"
            cy="34.5"
            r=".908"
            class="shadow"
            fill="#353535"
            opacity=".3"
          ></circle>
          <circle
            cx="24.5"
            cy="34.5"
            r=".908"
            class="shadow"
            fill="#353535"
            opacity=".3"
          ></circle>
        </g></svg>
