<svg xmlns="http://www.w3.org/2000/svg"
        class="css-9txd9r"
        focusable="false"
        viewBox="0 0 48 48"
        data-icon-name="FrontDeckMower1600"
      >
        <path
          id="FrontDeckMower1600__outline"
          d="M48 29.021a2 2 0 0 0-2-2h-1.75a2 2 0 0 0-2 2h-.75c-.468 0-.921.164-1.28.464l-.214.178-.361-.181a2 2 0 0 0-.71-.203l-.201-.167c.321-.355.516-.825.516-1.341v-1a2 2 0 0 0-.586-1.414l-.25-.25a2 2 0 0 0-1.399-.586l-.944-2.078a2 2 0 0 0-.125-.232l-.534-.854a2 2 0 0 0-.176-1.578l-1-1.75-.037-.062c.1-.438.054-.91-.161-1.34l-.25-.5a2 2 0 0 0-2.818-.821l-3.604 2.163a2 2 0 0 0-1.115-.183l-.733.092-.573-.917a2 2 0 0 0-.587-.604l-.75-.5a2 2 0 0 0-.127-.078l.557-1.113a2 2 0 0 0 .046-1.69l3.166-5.738a2 2 0 0 0-.642-2.63l-.5-.333a2 2 0 0 0-2.18-.025l-.526.333c-.284.18-.518.429-.68.723l-3.138 5.688c-.181.093-.35.215-.499.364l-1 1a2 2 0 0 0-.547 1.806l.272 1.358h-4.56a2 2 0 0 0-.234.014l-4.25.5-3.781.504a2 2 0 0 0-1.336.782l-1.5 2c-.16.213-.276.456-.34.715l-1.5 6a2 2 0 0 0-.01.93c-.196.315-.3.68-.3 1.054v1c0 .629.296 1.222.799 1.599l1 .751a2 2 0 0 0 1.201.401h.083l.417.313a5.006 5.006 0 0 0 4.75 6.562c.708 0 1.381-.148 1.992-.414a3.87 3.87 0 0 0 3.622 2.518 3.86 3.86 0 0 0 3.024-1.461l.751.697c.37.344.856.534 1.361.534h9.5a2 2 0 0 0 .702-.127l1.081-.405c.602.393 1.32.621 2.091.621a3.84 3.84 0 0 0 3.416-2.088h4.459c.31 0 .617-.072.894-.211l.66-.33c.651.489 1.455.77 2.31.77a3.87 3.87 0 0 0 3.864-3.864c0-.451-.078-.891-.23-1.306v-2.589c.159-.287.25-.618.25-.969v-.5Z"
          class="outline"
          fill="#fff"
        ></path>
        <g id="FrontDeckMower1600__icon">
          <circle
            cx="12.125"
            cy="34.875"
            r="1.125"
            class="neutral1"
            fill="#2b2b2b"
          ></circle>
          <circle
            cx="12.125"
            cy="34.875"
            r=".592"
            class="secondary"
            fill="#FFDE00"
          ></circle>
          <circle
            cx="12.125"
            cy="34.875"
            r=".474"
            class="shadow"
            fill="#353535"
            opacity=".3"
          ></circle>
          <circle
            cx="12.125"
            cy="34.875"
            r=".237"
            class="shadow"
            fill="#353535"
            opacity=".3"
          ></circle>
          <circle
            cx="13.864"
            cy="36.364"
            r="1.864"
            class="neutral1"
            fill="#2b2b2b"
          ></circle>
          <circle
            cx="13.864"
            cy="36.364"
            r=".981"
            class="secondary"
            fill="#FFDE00"
          ></circle>
          <circle
            cx="13.864"
            cy="36.364"
            r=".785"
            class="shadow"
            fill="#353535"
            opacity=".3"
          ></circle>
          <circle
            cx="13.864"
            cy="36.364"
            r=".393"
            class="shadow"
            fill="#353535"
            opacity=".3"
          ></circle>
          <path
            d="m34.25 34.25-.5.75.25 1h6.25l2.5-1.25L43 33l-2 .75v-1l.5-.5h3.25V31H41.5L40 32.25l-.5-.25-.75.75-1 1.25h-3.5z"
            class="primary"
            fill="#367C2B"
          ></path>
          <circle
            cx="44.114"
            cy="34.364"
            r="1.864"
            class="neutral1"
            fill="#2b2b2b"
          ></circle>
          <circle
            cx="44.114"
            cy="34.364"
            r=".981"
            class="secondary"
            fill="#FFDE00"
          ></circle>
          <circle
            cx="44.114"
            cy="34.364"
            r=".785"
            class="shadow"
            fill="#353535"
            opacity=".3"
          ></circle>
          <circle
            cx="44.121"
            cy="34.371"
            r=".393"
            class="shadow"
            fill="#353535"
            opacity=".3"
          ></circle>
          <path
            d="M4.5 27.75V28L6 29l-.25.75v1h.75l5 2.5 1-.25v-1.5h.25v-.75h-.25v-.5h1.25v.5h-.25v.75h.25V33h.5v-.5h.25v-.75h-.25v-.5h1v.5H15v.75h.25v.75h8l.25-.75H25v.25h.25L26 31.5h3V31h.25v-.75H29v-.5h1.25v.5H30V31h.25v1.75H33V32h.25v-.5h-.75v-.75h1.75v.75h-.5v.5l.5.5 1.25-1.25v-3.5z"
            class="neutral1"
            fill="#2b2b2b"
          ></path>
          <path
            d="m11.5 33.25-5-2.5H6l.75-.5.75-.25H8v.25h1.25v-.12l.75.37.75.5.5.75zM32 32v.75h-2l-6.49-.25h-.26v-.91l1.5-.09v1H25l.25-.25V31l-1.96.1.21-.85.75-1 .75-.75.75-.5 1-.25H28l1.25.25 1 .5 1 1 .5 1z"
            class="highlight"
            fill="#fefeff"
            opacity=".31"
          ></path>
          <circle
            cx="27.625"
            cy="32.125"
            r="4.125"
            class="neutral1"
            fill="#2b2b2b"
          ></circle>
          <circle
            cx="27.625"
            cy="32.125"
            r="2.171"
            class="secondary"
            fill="#FFDE00"
          ></circle>
          <circle
            cx="27.625"
            cy="32.125"
            r="1.737"
            class="shadow"
            fill="#353535"
            opacity=".3"
          ></circle>
          <circle
            cx="27.625"
            cy="32.125"
            r=".868"
            class="shadow"
            fill="#353535"
            opacity=".3"
          ></circle>
          <path
            d="m3 27-.25-.5-.75.999v1l1 .751h.75l2 1.5v-1l-2-1.5-.5-.5.25-.25z"
            class="primary"
            fill="#367C2B"
          ></path>
          <path
            d="M3.75 27.75h33.5v-1L37 26.5h-1.5V26h-3l-.25 1.25H30.5l-2-4v-.5h-7.75v.75h-1l-.25-2.75-.75-3.75h-5.5L9 17.5l-3.75.5-1.5 2-1.5 6L3 27z"
            class="neutral1"
            fill="#2b2b2b"
          ></path>
          <path
            d="M6.5 27.25h14l-.25-1L19.5 21H7.25L6 26.25z"
            class="primary"
            fill="#367C2B"
          ></path>
          <path
            d="M7 24.75h12.5l.25 1h-5l-.5-.75H7z"
            class="stripe"
            fill="#FFDE00"
          ></path>
          <path
            d="m6 26.25.5 1h14l-.25-1z"
            class="shadow"
            fill="#353535"
            opacity=".3"
          ></path>
          <path
            d="M20.75 23.5H28l1.25 2.75.5 1h-4.5l-.5.5H21.5l-.25-1.5z"
            class="primary"
            fill="#367C2B"
          ></path>
          <path
            d="M21.25 26.25h8l.5 1h-4.5l-.5.5H21.5z"
            class="shadow"
            fill="#353535"
            opacity=".3"
          ></path>
          <path
            d="M21.5 17.25V17h1l.75.5 1.25 2h-1l-.25.25V20h-.5v-1l-.25-.75zM24.75 20.75V21H28l.75.5v.5l-.25.75h-4l-.25-1L24 21z"
            class="secondary"
            fill="#FFDE00"
          ></path>
          <path
            d="M24.25 21.75h4l.5.25-.25.75h-4z"
            class="shadow"
            fill="#353535"
            opacity=".3"
          ></path>
          <path
            d="m21.25 17.5 1 5.25h2.25l-.25-1L24 21l.75-.25L26.5 20v-.75l-2 .25h-1l-.25.25V20h-.5v-1l-.25-.75-1-1V17zM28.25 19.25 32 17l.25.5-.75.45-.5.3-1.25.75-.5.3-.75.45z"
            class="neutral1"
            fill="#2b2b2b"
          ></path>
          <path
            d="m30.5 20-1.25-.7.5-.3 1.25.5v-1.25l.5-.3v1.3z"
            class="neutral1"
            fill="#2b2b2b"
          ></path>
          <path
            d="m32.5 26-2.25-5.75.25-.25 1-.75h.5l.5-.25 1 1.75-.5.5 1.25 2L35.5 26z"
            class="neutral1"
            fill="#2b2b2b"
          ></path>
          <path
            d="m32.5 19-.5.25-.25.5.75 1.5h.5l.5-.5zM18.25 18H13l-4 .5-3.25.25-.5-.75L9 17.5l4.25-.5h5.5zM7.25 21H19.5l-.25-.25h-12l-.5.25-1.25 5.25.5 1h.5l-.5-1zM18 18.5l-4.75.25L8 19h-.5l-.25.25L7 20l.25.25h11l.25-.25-.25-1.25zm.25 1.5h-11l.25-.75H8l5.25-.25 4.75-.25zM2 27.499l1 .751v1l-1-.751z"
            class="highlight"
            fill="#fefeff"
            opacity=".31"
          ></path>
          <path
            d="M3 28.25h.75v1H3z"
            class="shadow"
            fill="#353535"
            opacity=".3"
          ></path>
          <path
            d="M12.5 30.25v.5h.25v.75h.75v-.75h.25v-.5zM14.25 31.25v.5h.25v.75h.5v-.75h.25v-.5zM29 29.75v.5h.25V31H30v-.75h.25v-.5z"
            class="neutral2"
            fill="#808082"
          ></path>
          <circle
            cx="5.875"
            cy="28.375"
            r=".375"
            class="neutral2"
            fill="#808082"
          ></circle>
          <circle
            cx="6.875"
            cy="28.375"
            r=".375"
            class="neutral2"
            fill="#808082"
          ></circle>
          <path
            d="M32.5 30.75v.75h.5v.75h.75v-.75h.5v-.75z"
            class="neutral2"
            fill="#808082"
          ></path>
          <path
            d="m24.75 27.75-.75.5H12.5l-.5 2-2.25-.5V28h-.5v2.25H8V28H4.5v-.25z"
            class="highlight"
            fill="#fefeff"
            opacity=".31"
          ></path>
          <path
            d="M18.5 28.75h1L18 31h-1zM20.25 28.75 18.75 31h1l1.5-2.25zM25.25 31v1.25l-.25.25h-.25v-1l-1.5.09L16 32v.25h7.25v.25h.25v.25H16v.5h-.5V31.5l7.79-.4zM34.25 26.25H35V27h-.75zM33.5 27.5l.75 1-1 .75-1 .25-.5-.75z"
            class="highlight"
            fill="#fefeff"
            opacity=".31"
          ></path>
          <path
            d="M12.5 33v-1.5h1.25v2l-1.5 1.75H12l-.25-.25v-.25zM14.25 32.5h1V35l-1 1.75L14 37l-.75-.5v-.25l1-2zM33.75 32v.25H33v.5h-2.75V31H29v.5h-3l-.75 1.25H25v-.25h-1.5l-.25.75v.5l-.5.25H19.5l-.75-.75h-3.5v1.5h.25L19 38h9.5l2-.75-1-1.75v-1.75H33L31.75 36v.25l.75.5.25-.25 1.5-2.25V32.5zm-5.25 2.25-1 1L21 36.5v-1.25l1-.75.25-.25h3.5l-.25-.75.5-.75h3v.75z"
            class="primary"
            fill="#367C2B"
          ></path>
          <path
            d="m22 34.5-1 .75v1.25l6.5-1.25 1-1h-6.25z"
            class="neutral1"
            fill="#2b2b2b"
          ></path>
          <path
            d="m22.25 34.25-.25.25 6.5-.25z"
            class="highlight"
            fill="#fefeff"
            opacity=".31"
          ></path>
          <path
            d="M12.5 31.5V33l1.25.5v-2zM14.25 32.5v1.75l1 .75v-2.5z"
            class="shadow"
            fill="#353535"
            opacity=".3"
          ></path>
          <path
            d="M15.25 34h3l.75 1v2.25h2v-2L19.5 34l-.75-.75h-3.5z"
            class="highlight"
            fill="#fefeff"
            opacity=".31"
          ></path>
          <path
            d="m19 35-1 .5-2.5-1.25v.5L19 38z"
            class="shadow"
            fill="#353535"
            opacity=".3"
          ></path>
          <path
            d="M15.5 34.25 18 35.5l1-.5-.75-1h-3v.75h.25z"
            class="neutral1"
            fill="#2b2b2b"
          ></path>
          <path
            d="m28.5 38-1-2.75 2 .25 1 1.75z"
            class="highlight"
            fill="#fefeff"
            opacity=".31"
          ></path>
          <circle
            cx="8.625"
            cy="29.625"
            r=".375"
            class="neutral1"
            fill="#2b2b2b"
          ></circle>
          <circle
            cx="8.625"
            cy="28.625"
            r=".375"
            class="neutral1"
            fill="#2b2b2b"
          ></circle>
          <circle
            cx="12.125"
            cy="34.875"
            r=".25"
            class="neutral2"
            fill="#808082"
          ></circle>
          <circle
            cx="13.875"
            cy="36.375"
            r=".375"
            class="neutral2"
            fill="#808082"
          ></circle>
          <circle
            cx="31.75"
            cy="33.25"
            r=".25"
            class="neutral2"
            fill="#808082"
          ></circle>
          <circle
            cx="32.5"
            cy="33.25"
            r=".25"
            class="neutral2"
            fill="#808082"
          ></circle>
          <circle
            cx="32.375"
            cy="35.875"
            r=".375"
            class="neutral2"
            fill="#808082"
          ></circle>
          <circle
            cx="8.25"
            cy="33.125"
            r="3"
            class="neutral1"
            fill="#2b2b2b"
          ></circle>
          <circle
            cx="8.25"
            cy="33.125"
            r="1.579"
            class="secondary"
            fill="#FFDE00"
          ></circle>
          <circle
            cx="8.25"
            cy="33.125"
            r="1.263"
            class="shadow"
            fill="#353535"
            opacity=".3"
          ></circle>
          <circle
            cx="8.25"
            cy="33.125"
            r=".632"
            class="shadow"
            fill="#353535"
            opacity=".3"
          ></circle>
          <path
            d="M33 21.25h-.5l1.5 2.5.25-.5M18.25 18l.75 2.75h.5L18.75 17zM2.25 26l.5.25 1.5-6L5.5 18.5l-.25-.5.5.75L4.5 20.5l-1.5 6zM3.75 28.25v.25l2 1.5v-.25z"
            class="highlight"
            fill="#fefeff"
            opacity=".31"
          ></path>
          <path
            d="M2.948 27.021h.354v.707h-.354z"
            class="shadow"
            transform="rotate(-45 3.125 27.375)"
            fill="#353535"
            opacity=".3"
          ></path>
          <path
            d="M34.25 33.75h.25v-.5h3.25V34h-3.5zM38.75 32.75l-.75-.5.25-.25-2.75-2.25V29l3 2.5.25-.25 1.5.75-.25.25-.5-.25z"
            class="neutral1"
            fill="#2b2b2b"
          ></path>
          <path
            d="M44.75 30.5v-1h-.5V29H46v.5h-.5v1z"
            class="neutral2"
            fill="#808082"
          ></path>
          <path
            d="M44.75 30.5h1V33l-1.25 1.75h-.25l-.5-.25V34l1-1.5z"
            class="primary"
            fill="#367C2B"
          ></path>
          <circle
            cx="44.375"
            cy="34.125"
            r=".375"
            class="neutral2"
            fill="#808082"
          ></circle>
          <path
            d="M39 34.25 40.25 36l2.5-1.25L43 33l-2 .75-.5.25-.25-.5z"
            class="shadow"
            fill="#353535"
            opacity=".3"
          ></path>
          <path
            d="m34.25 34.25-.5.75.25 1h6.25L39 34.25z"
            class="highlight"
            fill="#fefeff"
            opacity=".31"
          ></path>
          <circle
            cx="39.625"
            cy="32.875"
            r=".375"
            class="neutral2"
            fill="#808082"
          ></circle>
          <circle
            cx="42.875"
            cy="31.625"
            r=".375"
            class="neutral2"
            fill="#808082"
          ></circle>
          <circle
            cx="43.875"
            cy="31.625"
            r=".375"
            class="neutral2"
            fill="#808082"
          ></circle>
          <path
            d="m21 35.25 1-.75.25-.25h3.5l-.25-.75.5-.75h4.25V31H29v.5h-3l-.75 1.25H25v-.25h-1.5l-.25.75v.5l-.5.25H19.5z"
            class="shadow"
            fill="#353535"
            opacity=".3"
          ></path>
          <circle
            cx="27.5"
            cy="32.25"
            r=".25"
            class="neutral2"
            fill="#808082"
          ></circle>
          <circle
            cx="28.25"
            cy="32.25"
            r=".25"
            class="neutral2"
            fill="#808082"
          ></circle>
          <circle
            cx="24.375"
            cy="33.125"
            r=".375"
            class="neutral2"
            fill="#808082"
          ></circle>
          <path
            d="M19 37.25h8.5V38H19z"
            class="shadow"
            fill="#353535"
            opacity=".3"
          ></path>
          <circle
            cx="13"
            cy="19.5"
            r=".25"
            class="neutral2"
            fill="#808082"
          ></circle>
          <circle
            cx="15"
            cy="19.5"
            r=".25"
            class="neutral2"
            fill="#808082"
          ></circle>
          <circle
            cx="17"
            cy="19.5"
            r=".25"
            class="neutral2"
            fill="#808082"
          ></circle>
          <circle
            cx="11"
            cy="19.5"
            r=".25"
            class="neutral2"
            fill="#808082"
          ></circle>
          <path
            d="m21.75 22.75-1-5.75.25-1.25 1.25-2.5-1.75-1-1 1 .5 2.5-.25 1.25 1 5.75z"
            class="primary"
            fill="#367C2B"
          ></path>
          <path
            d="M24.474 5.75 20.75 12.5l.75.5 4-7.25-.5-.333z"
            class="primary"
            fill="#367C2B"
          ></path>
          <path
            d="m19.75 17 1 5.75h1l-1-5.75z"
            class="shadow"
            fill="#353535"
            opacity=".3"
          ></path>
          <circle
            cx="21"
            cy="13"
            r=".25"
            class="neutral2"
            fill="#808082"
          ></circle>
          <circle
            cx="20.5"
            cy="13.75"
            r=".25"
            class="neutral2"
            fill="#808082"
          ></circle>
          <circle
            cx="32.375"
            cy="36.25"
            r="1.838"
            class="neutral1"
            fill="#2b2b2b"
          ></circle>
          <circle
            cx="32.375"
            cy="36.25"
            r=".968"
            class="secondary"
            fill="#FFDE00"
          ></circle>
          <circle
            cx="32.375"
            cy="36.25"
            r=".774"
            class="shadow"
            fill="#353535"
            opacity=".3"
          ></circle>
          <circle
            cx="32.375"
            cy="36.25"
            r=".387"
            class="shadow"
            fill="#353535"
            opacity=".3"
          ></circle>
        </g></svg>
