<svg xmlns="http://www.w3.org/2000/svg"
        class="css-9txd9r"
        focusable="false"
        viewBox="0 0 48 48"
        data-icon-name="GenericLiquidTruck1"
      >
        <path
          id="GenericLiquidTruck1__outline"
          d="M48 22.25a2 2 0 0 0-.586-1.414l-.25-.25A2 2 0 0 0 45.75 20h-.25a2 2 0 0 0-1.323.5H44c-.352 0-.682.091-.969.25H41.25v-.25c0-.574-.242-1.091-.629-1.456a2 2 0 0 0-.457-.708l-.75-.75a2 2 0 0 0-.165-.148A2 2 0 0 0 37.25 15.5h-1c-.352 0-.682.091-.969.25H33l-1.44-.42-.069-.019a2 2 0 0 0-.962-1.526l-2.5-1.5a1.997 1.997 0 0 0-2.883.965H9.561A2 2 0 0 0 8 12.5H4.75c-.632 0-1.196.293-1.562.751a2 2 0 0 0-1.047.335l-.75.5c-.29.193-.524.458-.68.77l-.5 1A2 2 0 0 0 0 16.75v7c0 .31.072.617.211.894l.055.109A2 2 0 0 0 0 25.75v.5a2 2 0 0 0 1.5 1.937V31a2 2 0 0 0 1.655 1.97A5.01 5.01 0 0 0 7.75 36a4.98 4.98 0 0 0 3.125-1.1A4.98 4.98 0 0 0 14 36a5.01 5.01 0 0 0 4.9-4h3.246c.1.246.248.473.44.664l.25.25a2 2 0 0 0 1.414.586h2.5a2 2 0 0 0 1.323-.5h9.345A5.01 5.01 0 0 0 42 36a5.01 5.01 0 0 0 4.675-3.227q.27-.14.489-.359l.25-.25A2 2 0 0 0 48 30.75v-2.477c0-.218-.036-.433-.104-.636.068-.203.104-.418.104-.636v-.5c0-.266-.052-.519-.146-.751.095-.235.146-.489.146-.749v-2.75Z"
          class="outline"
          fill="#fff"
        ></path>
        <g id="GenericLiquidTruck1__icon">
          <path
            d="M3.25 25.25H12v.5H3.25z"
            class="primary"
            fill="#367C2B"
          ></path>
          <path
            d="M3.25 25.25H12v.5H3.25z"
            class="shadow"
            fill="#353535"
            opacity=".3"
          ></path>
          <path
            d="M27.5 29.5V31h17.75v-3.75H45l-1-.75v-3.75h-4.75V23h-1.5v-.5h-.5v.5h-1.5l-.25-.5h-2V20h3.25v-.25h2L38 19h-.75v.25H27.5V29.5"
            class="primary"
            fill="#367C2B"
          ></path>
          <path d="M27.5 28h6v3h-6z" class="neutral2" fill="#808082"></path>
          <path
            d="M37.25 19.75H38l.5 3.25h-.75v-.5z"
            class="window"
            fill="#bbe3f3"
          ></path>
          <path
            d="M37.25 18.75H37V19h-.75v-1.5h1z"
            class="accent2"
            fill="#f5911e"
          ></path>
          <path d="M32.75 17.75h3.5V19z" class="neutral1" fill="#2b2b2b"></path>
          <path
            d="M27.5 19.25V19l.75-1.75H31L37 19v-.25h.25v.5z"
            class="secondary"
            fill="#FFDE00"
          ></path>
          <path
            d="M45.25 30.75V31h.5l.25-.25v-2.477L45.75 28h-.5zM46 27l-.25.25H45l-1-.75v-4h.5v3l.75-.5v-2.75l.25-.25h.25l.25.25V25l-.75.5-.75.5v.25l.25.25H46z"
            class="neutral1"
            fill="#2b2b2b"
          ></path>
          <path
            d="M45.25 26.5v-1l-.75.5v.25l.25.25z"
            class="accent2"
            fill="#f5911e"
          ></path>
          <path
            d="m45.25 25-.75.5v-2.75h.75z"
            class="primary"
            fill="#367C2B"
          ></path>
          <path d="M38 23h1.75v4.25H38z" class="neutral2" fill="#808082"></path>
          <path
            d="M27.5 19.75h6v.5h-6zM32 20.25h.5V28H32z"
            class="shadow"
            fill="#353535"
            opacity=".3"
          ></path>
          <path
            d="M37.75 22.5h-.5l-.5-2.5v-.25h.5z"
            class="primary"
            fill="#367C2B"
          ></path>
          <path
            d="M33.5 19.75h3.75V20H33.5z"
            class="shadow"
            fill="#353535"
            opacity=".3"
          ></path>
          <path
            d="M28 19.25h1.75v8.25H28zM28.5 19.25V16L27 15v-1l2.5 1.5v3.75z"
            class="neutral2"
            fill="#808082"
          ></path>
          <path
            d="m37.25 20.75.25-.25h1.75V23H39v-.5h-1.75z"
            class="neutral1"
            fill="#2b2b2b"
          ></path>
          <path
            d="M32.5 25.75H38v.5h-5.5zM39.75 24.5v.75h2.5l-.75-.75zM39.75 25.5v.75H43l-.5-.75z"
            class="shadow"
            fill="#353535"
            opacity=".3"
          ></path>
          <path
            d="M33.5 20v2.5h2l.25.5h1.5v-.5l-.5-2.5z"
            class="window"
            fill="#bbe3f3"
          ></path>
          <path
            d="M38.25 31v-3.75H38V28h-.75v3z"
            class="neutral2"
            fill="#808082"
          ></path>
          <path
            d="M33.5 28.5h3.75V31H33.5z"
            class="shadow"
            fill="#353535"
            opacity=".3"
          ></path>
          <path
            d="M33.5 28.496h3.75v.253H33.5z"
            class="neutral1"
            fill="#2b2b2b"
          ></path>
          <path
            d="M33.5 30.5h3.75v.5H33.5z"
            class="shadow"
            fill="#353535"
            opacity=".3"
          ></path>
          <path
            d="M31.75 28H32v3h-.25zM29.25 28h.25v3h-.25zM36 24.25h1.25V25H36z"
            class="neutral1"
            fill="#2b2b2b"
          ></path>
          <path
            d="M38.5 31v-1l.75-1.75 1.25-1L42 27l1.5.25 1.25 1 .5 1V31z"
            class="shadow"
            fill="#353535"
            opacity=".3"
          ></path>
          <circle
            cx="42"
            cy="31"
            r="3"
            class="neutral1"
            fill="#2b2b2b"
          ></circle>
          <circle
            cx="42"
            cy="31"
            r="1.579"
            class="secondary"
            fill="#FFDE00"
          ></circle>
          <circle
            cx="42"
            cy="31"
            r="1.263"
            class="shadow"
            fill="#353535"
            opacity=".3"
          ></circle>
          <circle
            cx="42"
            cy="31"
            r=".632"
            class="shadow"
            fill="#353535"
            opacity=".3"
          ></circle>
          <path
            d="M28.25 27.5h1.25v.5h-1.25zM28.75 28h.5v3h-.5zM31.25 28h.5v3h-.5z"
            class="shadow"
            fill="#353535"
            opacity=".3"
          ></path>
          <path
            d="M33.5 30.25h3.75v.25H33.5z"
            class="neutral1"
            fill="#2b2b2b"
          ></path>
          <path
            d="M35.124 27.122h.502v3.75h-.502z"
            class="shadow"
            transform="rotate(-89.932 35.375 28.996)"
            fill="#353535"
            opacity=".3"
          ></path>
          <path d="M2 25.75h25.5v.5H2z" class="primary" fill="#367C2B"></path>
          <path
            d="M3.5 26.25H4V31h-.5zM24.25 30H4v-3.75h23.5V30h-3.25"
            class="neutral1"
            fill="#2b2b2b"
          ></path>
          <path
            d="M4 26.25h23.5V30H4z"
            class="highlight"
            fill="#fefeff"
            opacity=".31"
          ></path>
          <path
            d="m5 28.25.25.5 1-1H10l.25.5h1.5l.25-.5h4l.75 1 .25-.5-.75-1H6z"
            class="highlight"
            fill="#fefeff"
            opacity=".31"
          ></path>
          <path
            d="m5.75 27-1 1 .25.25 1-1h10.25l.75 1 .25-.25-.75-1z"
            class="neutral1"
            fill="#2b2b2b"
          ></path>
          <circle
            cx="7.75"
            cy="31"
            r="3"
            class="neutral1"
            fill="#2b2b2b"
          ></circle>
          <circle
            cx="7.75"
            cy="31"
            r="1.579"
            class="secondary"
            fill="#FFDE00"
          ></circle>
          <circle
            cx="7.75"
            cy="31"
            r="1.263"
            class="shadow"
            fill="#353535"
            opacity=".3"
          ></circle>
          <circle
            cx="7.75"
            cy="31"
            r=".632"
            class="shadow"
            fill="#353535"
            opacity=".3"
          ></circle>
          <circle
            cx="14"
            cy="31"
            r="3"
            class="neutral1"
            fill="#2b2b2b"
          ></circle>
          <circle
            cx="14"
            cy="31"
            r="1.579"
            class="secondary"
            fill="#FFDE00"
          ></circle>
          <circle
            cx="14"
            cy="31"
            r="1.263"
            class="shadow"
            fill="#353535"
            opacity=".3"
          ></circle>
          <circle
            cx="14"
            cy="31"
            r=".632"
            class="shadow"
            fill="#353535"
            opacity=".3"
          ></circle>
          <path
            d="M21 28.25h2.75V30H21z"
            class="neutral1"
            fill="#2b2b2b"
          ></path>
          <path
            d="M19.25 26.25h1.5V30h-1.5z"
            class="neutral2"
            fill="#808082"
          ></path>
          <path
            d="M20.75 27h6.75v.75h-6.75z"
            class="highlight"
            fill="#fefeff"
            opacity=".31"
          ></path>
          <path
            d="m24.25 28-.25.25v3l.25.25h2.5l.25-.25v-3l-.25-.25z"
            class="primary"
            fill="#367C2B"
          ></path>
          <path
            d="M24 30.75v.5l.25.25h2.5l.25-.25v-.5z"
            class="shadow"
            fill="#353535"
            opacity=".3"
          ></path>
          <path
            d="m24.25 28-.25.25V29h3v-.75l-.25-.25z"
            class="highlight"
            fill="#fefeff"
            opacity=".31"
          ></path>
          <path d="M24 29h3v.5h-3z" class="neutral2" fill="#808082"></path>
          <path
            d="M26.75 25.25H3.25l-.75-.5-.5-1v-7l.5-1 .75-.5h23.5z"
            class="primary"
            fill="#367C2B"
          ></path>
          <path
            d="M26.75 18.5h.75v7.25h-.75z"
            class="neutral1"
            fill="#2b2b2b"
          ></path>
          <path
            d="m3 17 .25-.5.5-.5H26v1z"
            class="highlight"
            fill="#fefeff"
            opacity=".31"
          ></path>
          <path
            d="m3 23.5.25.5.5.5H26v-1z"
            class="shadow"
            fill="#353535"
            opacity=".3"
          ></path>
          <path
            d="M4.75 14.5h.5v12.75h-.5zM7.5 14.5H8v12.75h-.5zM5.25 14.5H7.5v.5H5.25zM5.25 16.5H7.5v.5H5.25zM5.25 18.5H7.5v.5H5.25zM5.25 20.5H7.5v.5H5.25zM5.25 22.5H7.5v.5H5.25zM5.25 24.5H7.5v.5H5.25zM5.25 26H7.5v.5H5.25zM12 25.25h14v.5H12z"
            class="neutral1"
            fill="#2b2b2b"
          ></path>
          <path d="M26 25.25h.75v.5H26z" class="primary" fill="#367C2B"></path>
          <path
            d="M26 25.25h.75v.5H26z"
            class="shadow"
            fill="#353535"
            opacity=".3"
          ></path>
        </g></svg>
