<svg xmlns="http://www.w3.org/2000/svg"
        class="css-9txd9r"
        focusable="false"
        viewBox="0 0 48 48"
        data-icon-name="GenericLiquidTruck2"
      >
        <path
          id="GenericLiquidTruck2__outline"
          d="m47.564 27.067-.136-.171a2 2 0 0 0 .569-1.397v-.25a2 2 0 0 0-.754-1.564l-3.665-8.247c-.1-.224-.24-.428-.413-.602l-.25-.25a2 2 0 0 0-.134-.122l-1.5-1.25a2 2 0 0 0-.251-.179l-2.5-1.5a2 2 0 0 0-.241-.123l-1.75-.75a2 2 0 0 0-.505-.142l-1.75-.25a2 2 0 0 0-.283-.02h-2a2 2 0 0 0-1.789 1.106l-1.25 2.5a2 2 0 0 0-.207.758l-.026.386H9.561A2 2 0 0 0 8 14.25H4.75c-.637 0-1.204.297-1.57.761-.289.03-.569.124-.82.274l-.833.5a2 2 0 0 0-.719.744l-.556 1A2 2 0 0 0 0 18.5v7a2 2 0 0 0 .252.971l.016.029c-.17.294-.268.636-.268 1v.5a2 2 0 0 0 1.5 1.937v2.813a2 2 0 0 0 1.655 1.97 5.01 5.01 0 0 0 4.595 3.03 4.98 4.98 0 0 0 3.125-1.1A4.98 4.98 0 0 0 14 37.75a5.01 5.01 0 0 0 4.9-4h5.496c.1.246.248.473.44.664l.25.25a2 2 0 0 0 1.414.586h2.177c.353.311.816.5 1.323.5h3.766c.938 1.248 2.41 2 3.984 2 1.47 0 2.852-.657 3.792-1.761q.103.01.208.011H46a2 2 0 0 0 2-2v-5.686c0-.453-.154-.893-.436-1.247"
          class="outline"
          fill="#fff"
        ></path>
        <g id="GenericLiquidTruck2__icon">
          <path d="M3.25 27H12v.5H3.25z" class="primary" fill="#367C2B"></path>
          <path
            d="M3.25 27H12v.5H3.25z"
            class="shadow"
            fill="#353535"
            opacity=".3"
          ></path>
          <path d="M2 27.5h28v.5H2z" class="primary" fill="#367C2B"></path>
          <path
            d="M3.5 28H4v4.75h-.5zM26.404 31.75H4V28h26v3.75h-3.596"
            class="neutral1"
            fill="#2b2b2b"
          ></path>
          <path
            d="M4 28h26v3.75H4z"
            class="highlight"
            fill="#fefeff"
            opacity=".31"
          ></path>
          <path
            d="m5 30 .25.5 1-1H10l.25.5h1.5l.25-.5h4l.75 1L17 30l-.75-1H6z"
            class="highlight"
            fill="#fefeff"
            opacity=".31"
          ></path>
          <path
            d="m5.75 28.75-1 1L5 30l1-1h10.25l.75 1 .25-.25-.75-1z"
            class="neutral1"
            fill="#2b2b2b"
          ></path>
          <circle
            cx="7.75"
            cy="32.75"
            r="3"
            class="neutral1"
            fill="#2b2b2b"
          ></circle>
          <circle
            cx="7.75"
            cy="32.75"
            r="1.579"
            class="secondary"
            fill="#FFDE00"
          ></circle>
          <circle
            cx="7.75"
            cy="32.75"
            r="1.263"
            class="shadow"
            fill="#353535"
            opacity=".3"
          ></circle>
          <circle
            cx="7.75"
            cy="32.75"
            r=".632"
            class="shadow"
            fill="#353535"
            opacity=".3"
          ></circle>
          <circle
            cx="14"
            cy="32.75"
            r="3"
            class="neutral1"
            fill="#2b2b2b"
          ></circle>
          <circle
            cx="14"
            cy="32.75"
            r="1.579"
            class="secondary"
            fill="#FFDE00"
          ></circle>
          <circle
            cx="14"
            cy="32.75"
            r="1.263"
            class="shadow"
            fill="#353535"
            opacity=".3"
          ></circle>
          <circle
            cx="14"
            cy="32.75"
            r=".632"
            class="shadow"
            fill="#353535"
            opacity=".3"
          ></circle>
          <path
            d="M23.25 30H26v1.75h-2.75z"
            class="neutral1"
            fill="#2b2b2b"
          ></path>
          <path
            d="M21.5 28H23v3.75h-1.5z"
            class="neutral2"
            fill="#808082"
          ></path>
          <path
            d="M23 28.75h6.75v.75H23z"
            class="highlight"
            fill="#fefeff"
            opacity=".31"
          ></path>
          <path
            d="m26.5 29.75-.25.25v3l.25.25H29l.25-.25v-3l-.25-.25z"
            class="primary"
            fill="#367C2B"
          ></path>
          <path
            d="M26.25 32.5v.5l.25.25H29l.25-.25v-.5z"
            class="shadow"
            fill="#353535"
            opacity=".3"
          ></path>
          <path
            d="m26.5 29.75-.25.25v.75h3V30l-.25-.25z"
            class="highlight"
            fill="#fefeff"
            opacity=".31"
          ></path>
          <path
            d="M26.25 30.75h3v.5h-3z"
            class="neutral2"
            fill="#808082"
          ></path>
          <path
            d="M29.5 27H3.389l-.833-.5-.556-1v-7l.556-1 .833-.5H29.5z"
            class="primary"
            fill="#367C2B"
          ></path>
          <path
            d="m3 18.75.25-.5.5-.5h24.5v1z"
            class="highlight"
            fill="#fefeff"
            opacity=".31"
          ></path>
          <path
            d="m3 25.25.25.5.5.5h24.5v-1z"
            class="shadow"
            fill="#353535"
            opacity=".3"
          ></path>
          <path
            d="M4.75 16.25h.5V29h-.5zM7.5 16.25H8V29h-.5zM5.25 16.25H7.5v.5H5.25zM5.25 18.25H7.5v.5H5.25zM5.25 20.25H7.5v.5H5.25zM5.25 22.25H7.5v.5H5.25zM5.25 24.25H7.5v.5H5.25zM5.25 26.25H7.5v.5H5.25zM5.25 27.75H7.5v.5H5.25zM12 27h16.75v.5H12z"
            class="neutral1"
            fill="#2b2b2b"
          ></path>
          <path
            d="M28.75 27h.75v.5h-.75z"
            class="primary"
            fill="#367C2B"
          ></path>
          <path
            d="M28.75 27h.75v.5h-.75z"
            class="shadow"
            fill="#353535"
            opacity=".3"
          ></path>
          <path
            d="M44 28.75v-3.5h1.75l-4-9-.25-.25-5.5-1-5.25-.25-.75 11v8h11.25l.5.25h3.5v-5.25zM32.5 17v-1.75l3.5.25.5.25 1.75 1 .25.25zm6 9.75H40v.5h-1.5zm3.5 6.5-.751.021v-2.272L39.75 29.5h-4L34.5 31v2.25h-.75v-2.5l1.5-2H40l2 2zm1.5-8.5V25h-.75v.25h-1v-.5l-.25.25-3-.25v-4h3.25l.25-.25h.5v.5h.75l.25.25v2.5h1v.75h-.75z"
            class="primary"
            fill="#367C2B"
          ></path>
          <path
            d="m35.25 28.75-1.5 2v2.5h.75V31l1.25-1.5h4l1.499 1.499v2.272L42 33.25v-2.5l-2-2z"
            class="neutral1"
            fill="#2b2b2b"
          ></path>
          <path
            d="M41.5 16 40 14.75l-2.5-1.5-1.75-.75-1.75-.25h-2l-1.25 2.5L36 15z"
            class="secondary"
            fill="#FFDE00"
          ></path>
          <path
            d="M38.5 20.75v4l3 .25.25-.25v-4z"
            class="window"
            fill="#bbe3f3"
          ></path>
          <path
            d="M44.5 23.75h-1v-2.5l-.25-.25h-.75v-.5H42l-.25.25v4.5h1V25h.75v-.25l.25-.25h.75zM38.5 26.75H40v.5h-1.5zM44.554 25.835h.62l.576-.085.247-.251v-.25l-.247.001H44v3.5h1.25V34H46v-5.686L45.75 28H44.5z"
            class="neutral1"
            fill="#2b2b2b"
          ></path>
          <path
            d="M44.5 25.75h.75V28h-.75z"
            class="accent2"
            fill="#f5911e"
          ></path>
          <path
            d="m38.25 16.75-1.75-1-.5-.25-3.5-.25V17h6z"
            class="neutral1"
            fill="#2b2b2b"
          ></path>
          <path
            d="M30 30.75h3.75v1.5H30zM42 30.75h3.25v1H42zM44 28.75h.5v2H44zM38 25.5v-5.25h5V20l-.25-.25H33V17.5h8.5v-.25l-.25-.25H32.5v11H38v-2h6v-.5zm-.5 2H33v-7.25h4.5z"
            class="shadow"
            fill="#353535"
            opacity=".3"
          ></path>
          <path
            d="M33 25.5h4.5v.5H33zM33.5 20.75v4H37v-4zm3 3.5H34v-3h2.5zM38 28l6 .75v-.5l-6-.75zM32.5 28h.5v2.75h-.5zM34.5 33.75h6.75l-.001-2.751L39.75 29.5h-4L34.5 31z"
            class="shadow"
            fill="#353535"
            opacity=".3"
          ></path>
          <path
            d="M37.75 29.75a3 3 0 0 0-3 3c0 .53.149 1.02.39 1.452.513.919 1.483 1.548 2.61 1.548s2.098-.629 2.61-1.548c.241-.432.39-.922.39-1.452a3 3 0 0 0-3-3m-1.579 3a1.58 1.58 0 1 1 3.158 0 1.58 1.58 0 0 1-3.158 0"
            class="neutral1"
            fill="#2b2b2b"
          ></path>
          <path
            d="M39.329 32.75a1.58 1.58 0 1 0-3.158 0 1.58 1.58 0 0 0 3.158 0m-2.842 0a1.263 1.263 0 1 1 2.526 0 1.263 1.263 0 0 1-2.526 0"
            class="secondary"
            fill="#FFDE00"
          ></path>
          <path
            d="M39.013 32.75a1.263 1.263 0 1 0-2.526 0 1.263 1.263 0 0 0 2.526 0m-1.895 0a.632.632 0 1 1 1.264 0 .632.632 0 0 1-1.264 0"
            class="secondary"
            fill="#FFDE00"
          ></path>
          <path
            d="M39.013 32.75a1.263 1.263 0 1 0-2.526 0 1.263 1.263 0 0 0 2.526 0m-1.895 0a.632.632 0 1 1 1.264 0 .632.632 0 0 1-1.264 0"
            class="shadow"
            fill="#353535"
            opacity=".3"
          ></path>
          <circle
            cx="37.75"
            cy="32.75"
            r=".632"
            class="secondary"
            fill="#FFDE00"
          ></circle>
          <circle
            cx="37.75"
            cy="32.75"
            r=".632"
            class="shadow"
            fill="#353535"
            opacity=".3"
          ></circle>
          <circle
            cx="37.75"
            cy="32.75"
            r=".632"
            class="shadow"
            fill="#353535"
            opacity=".3"
          ></circle>
          <path
            d="M29.5 25.75h.5v1.75h-.5z"
            class="neutral1"
            fill="#2b2b2b"
          ></path>
        </g></svg>
