<svg xmlns="http://www.w3.org/2000/svg"
        class="css-9txd9r"
        focusable="false"
        viewBox="0 0 48 48"
        data-icon-name="GenericDrySeedTender"
      >
        <path
          id="GenericDrySeedTender__outline"
          d="m37.789 26.144.75-1.5.025-.051 5-10.75.82-1.843h1.617a2 2 0 0 0 2-2V7a2 2 0 0 0-2-2h-3.25c-.718 0-1.38.385-1.737 1.008l-1 1.75-.046.084-.627 1.231a2 2 0 0 0-1.091-.323H2a2 2 0 0 0-2 2v1q0 .237.055.467l.451 1.878a2 2 0 0 0-.006.155v.5c0 .493.178.943.473 1.292l.582 2.425c.122.507.436.946.877 1.224l3.818 2.411v.293A2 2 0 0 0 5 24.25v.5c0 .777.45 1.484 1.154 1.812l2.596 1.211v.153l-.359.574H6c-.602 0-1.172.271-1.552.739l-3.25 4a2 2 0 0 0 .658 3.05l.5.25q.14.07.285.116a5.886 5.886 0 0 0 5.735 4.595c1.544 0 2.95-.599 4-1.576 1.05.977 2.456 1.576 4 1.576s2.95-.599 4-1.576a5.86 5.86 0 0 0 4 1.576c2.8 0 5.149-1.969 5.735-4.595q.146-.047.285-.116l.5-.25q.038-.018.074-.039h15.032a2 2 0 0 0 2-2V33a2 2 0 0 0-2-2h-8.145a2 2 0 0 0-1.855-1.25V28.5a2 2 0 0 0-.206-.885l1.134-.594c.372-.195.673-.502.861-.877Z"
          class="outline"
          fill="#fff"
        ></path>
        <g id="GenericDrySeedTender__icon">
          <path
            d="M26.75 30.5H6l-3.25 4 .5.25.5-.5h.936c.484-1.588 1.943-2.75 3.689-2.75s3.205 1.162 3.689 2.75h.621c.484-1.588 1.943-2.75 3.689-2.75s3.205 1.162 3.689 2.75h.621c.484-1.588 1.943-2.75 3.689-2.75s3.205 1.162 3.689 2.75h.936l.5.5.5-.25-.203-.25h-.047l-3-3.75Z"
            class="primary"
            fill="#367C2B"
          ></path>
          <path
            d="M29 34.25H3.75l2.5-3h20z"
            class="shadow"
            fill="#353535"
            opacity=".3"
          ></path>
          <path
            d="M17 28h-3v1.75h2l1-.408z"
            class="primary"
            fill="#367C2B"
          ></path>
          <path
            d="M22.25 27.201V28h-1.96L17 29.342l-1 .408h7.5v-.5h3.75l-1.261-3.574zM33.25 24.25v.5L29.5 26.5V28h1.25L36 25.25l.75-1.5L35 22l-5.5 2.243v.007z"
            class="neutral2"
            fill="#808082"
          ></path>
          <path
            d="m41.75 13 1-2.25.5-.75H46V7h-3.25l-1 1.75L35 22l1.75 1.75zM38.25 11.75l-.7 2.5-.14.5L36.5 18 32 21H8.25L3.5 18l-.78-3.25-.72-3h2v.75h2.5v-.75H19v.75h2.25v-.75h12.5v.75h2.5v-.75zM12.5 29.75h.25L14.5 25h.25l2.5 1.5h.25v.5h4.75v-.5h.25l3-1.5h.25l.239.676 1.261 3.574h.5V28h1.75v-5.5H10.75v6h1.75z"
            class="primary"
            fill="#367C2B"
          ></path>
          <path
            d="M32 22.5V21H8.25v1.5H32"
            class="neutral2"
            fill="#808082"
          ></path>
          <path
            d="M4 11.5h2.5v.25H19v-.25h2.25v.25h12.5v-.25h2.5v.25h2v-1H2v1h2z"
            class="secondary"
            fill="#FFDE00"
          ></path>
          <path
            d="M4 11.5v1h2.5v-1zM19 11.5v1h2.25v-1zM33.75 11.5v1h2.5v-1zM20.29 28h1.96v-1H17.5v1z"
            class="neutral1"
            fill="#2b2b2b"
          ></path>
          <path
            d="M7 24.25v.5l3.75 1.75v-2.25z"
            class="primary"
            fill="#367C2B"
          ></path>
          <path
            d="M29.5 28h-1.75v1.25H23.5v.5h-11V28.5h-1.75l-1.25 2h17.25l3 3.75H36v-2.5h-5.25V28z"
            class="neutral1"
            fill="#2b2b2b"
          ></path>
          <path
            d="M30.75 28.5H34v2.75h-3.25zM33.25 24.25H29.5v2.25l3.75-1.75z"
            class="primary"
            fill="#367C2B"
          ></path>
          <path d="M36 33h10v1.25H36z" class="neutral2" fill="#808082"></path>
          <path
            d="M24.375 31.5c-1.746 0-3.205 1.162-3.689 2.75a3.8 3.8 0 0 0-.186 1.125 3.875 3.875 0 0 0 7.75 0 3.8 3.8 0 0 0-.186-1.125c-.484-1.588-1.943-2.75-3.689-2.75m2.039 3.875a2.04 2.04 0 1 1-4.078 0 2.04 2.04 0 0 1 4.078 0"
            class="neutral1"
            fill="#2b2b2b"
          ></path>
          <path
            d="M24.375 33.336a2.04 2.04 0 1 0 0 4.078 2.04 2.04 0 0 0 0-4.078"
            class="secondary"
            fill="#FFDE00"
          ></path>
          <path
            d="M16.375 31.5c-1.746 0-3.205 1.162-3.689 2.75a3.8 3.8 0 0 0-.186 1.125 3.875 3.875 0 0 0 7.75 0 3.8 3.8 0 0 0-.186-1.125c-.484-1.588-1.943-2.75-3.689-2.75m2.039 3.875a2.04 2.04 0 1 1-4.078 0 2.04 2.04 0 0 1 4.078 0"
            class="neutral1"
            fill="#2b2b2b"
          ></path>
          <path
            d="M16.375 33.336a2.04 2.04 0 1 0 0 4.078 2.04 2.04 0 0 0 0-4.078"
            class="secondary"
            fill="#FFDE00"
          ></path>
          <path
            d="M8.375 31.5c-1.746 0-3.205 1.162-3.689 2.75a3.8 3.8 0 0 0-.186 1.125 3.875 3.875 0 0 0 7.75 0 3.8 3.8 0 0 0-.186-1.125c-.484-1.588-1.943-2.75-3.689-2.75m2.039 3.875a2.04 2.04 0 1 1-4.078 0 2.04 2.04 0 0 1 4.078 0"
            class="neutral1"
            fill="#2b2b2b"
          ></path>
          <path
            d="M8.375 33.336a2.04 2.04 0 1 0 0 4.078 2.04 2.04 0 0 0 0-4.078"
            class="secondary"
            fill="#FFDE00"
          ></path>
          <path
            d="M14 28h3v1.75h-3zM8.25 21 3.5 18h33L32 21zM19.75 14.75h.5V18h-.5z"
            class="shadow"
            fill="#353535"
            opacity=".3"
          ></path>
          <path
            d="M37.75 14.25v.5h-.34l.14-.5zM2.72 14.75H2.5v-.5h.1z"
            class="primary"
            fill="#367C2B"
          ></path>
          <path
            d="m37.55 14.25-.14.5H2.72l-.12-.5zM19.75 12.5h.5v1.75h-.5zM15.25 22.5 14.5 25h.25L17 22.5zM25 22.5l.75 2.5h-.25l-2.25-2.5z"
            class="shadow"
            fill="#353535"
            opacity=".3"
          ></path>
          <path
            d="M15.25 22.5 14.5 25h.25L17 22.5zM25 22.5l.75 2.5h-.25l-2.25-2.5zM17.5 25h.75v1.25h1v-2.5h1.25v2.5h1V25h.75v2H17.5z"
            class="shadow"
            fill="#353535"
            opacity=".3"
          ></path>
          <path
            d="M17.5 25h.75v1.25h1v-2.5h1.25v2.5h1V25h.75v2H17.5z"
            class="shadow"
            fill="#353535"
            opacity=".3"
          ></path>
          <path
            d="M17 22.5 14.75 25l2.5 1.5h.25V25h.75v1.25h1v-2.5h1.25v2.5h1V25h.75v1.5h.25l3-1.5-2.25-2.5zM10.75 24.25h-1V26l1 .5zM29.5 24.25h1V26l-1 .5zM43.75 8.25h2v1h-2zM42.75 7l-1 1.75V13l1-2.25z"
            class="shadow"
            fill="#353535"
            opacity=".3"
          ></path>
          <circle
            cx="24.375"
            cy="35.375"
            r="1.632"
            class="shadow"
            fill="#353535"
            opacity=".3"
          ></circle>
          <circle
            cx="24.375"
            cy="35.375"
            r=".816"
            class="shadow"
            fill="#353535"
            opacity=".3"
          ></circle>
          <circle
            cx="16.375"
            cy="35.375"
            r="1.632"
            class="shadow"
            fill="#353535"
            opacity=".3"
          ></circle>
          <circle
            cx="16.375"
            cy="35.375"
            r=".816"
            class="shadow"
            fill="#353535"
            opacity=".3"
          ></circle>
          <circle
            cx="8.375"
            cy="35.375"
            r="1.632"
            class="shadow"
            fill="#353535"
            opacity=".3"
          ></circle>
          <circle
            cx="8.375"
            cy="35.375"
            r=".816"
            class="shadow"
            fill="#353535"
            opacity=".3"
          ></circle>
        </g></svg>
