<svg xmlns="http://www.w3.org/2000/svg"
        class="css-9txd9r"
        focusable="false"
        viewBox="0 0 48 48"
        data-icon-name="GenericSemi2"
      >
        <g id="GenericSemi2__sketch">
          px
          <path
            d="M48 26v-.25c0-.635-.296-1.202-.758-1.568l-4.664-10.494c-.1-.224-.24-.428-.413-.602l-.25-.25a2 2 0 0 0-.214-.186l-2-1.5a2 2 0 0 0-.126-.087l-2.75-1.75a2 2 0 0 0-.371-.185l-2-.75a2 2 0 0 0-.268-.08l-2.25-.5a2 2 0 0 0-.434-.048h-2.5a2 2 0 0 0-1.789 1.106l-1.5 3a2 2 0 0 0-.209.806l-.688 15.588H12.08l-.164-.164a2 2 0 0 0-1.414-.586h-5.75c-.669 0-1.293.334-1.664.891l-.906 1.359h-.18a2 2 0 0 0-2.002 2v3.5a2 2 0 0 0 2 2h.768a5.88 5.88 0 0 0 5.107 3 5.8 5.8 0 0 0 4.402-2h19.454a5.86 5.86 0 0 0 4.394 2c1.626 0 3.16-.685 4.256-1.848q.302.098.619.098h5a2 2 0 0 0 2-2v-7.25a2 2 0 0 0-.586-1.414l-.211-.211.211-.211A2 2 0 0 0 48 26"
            class="outline"
            fill="#fff"
          ></path>
        </g>
        <g id="GenericSemi2__icon">
          <path
            d="M43.5 29.75v-4h2.25l-5-11.25-.25-.25-6.5-1-6.5-.5-.75 17L27 30v6.25h5.754a3.83 3.83 0 0 1-.504-1.875 3.875 3.875 0 0 1 7.75 0c0 .684-.192 1.317-.504 1.875h.754l.75.25h4.25v-6.75zM29.75 15.5v-2l4 .25.5.25 2.25 1.25.25.25zm7 11.75h2V28h-2zm4.25 8h-.75V32.5l-2-2.25h-4.5L32 32.5v3h-.75v-3.25l2-2.75h5.5L41 32.25zM43 25v.25h-1v.5h-1v-.5l-.25.25-4-.5v-5H41l.25-.25h.5v.5h1l.25.25v3.25h1v1h-.75z"
            class="primary"
            fill="#367C2B"
          ></path>
          <path
            d="m32 32.5 1.75-2.25h4.5l2 2.25v3.75H32z"
            class="shadow"
            fill="#353535"
            opacity=".3"
          ></path>
          <path
            d="M11.25 36.25h15V31h-14.5l1 1.25v3H12V32.5l-2-2.25H5.25l-1.5 2.25v2.75l.45.3z"
            class="primary"
            fill="#367C2B"
          ></path>
          <path
            d="M26.75 29.75h-.25l-.25.25v.25h-15l-.75-.75H4.75l-1.5 2.25H2v3.5h1.75V32.5l1.5-2.25H10l2 2.25v2.75h.75v-3l-1-1.25h14.5v5.25H27V30zM33.25 29.5l-2 2.75v3.25H32v-3l1.75-2.25h4.5l2 2.25v2.75H41v-3l-2.25-2.75z"
            class="neutral1"
            fill="#2b2b2b"
          ></path>
          <path
            d="M36.125 30.5a3.875 3.875 0 0 0-3.875 3.875c0 .684.192 1.317.504 1.875.662 1.187 1.915 2 3.371 2s2.709-.813 3.371-2A3.83 3.83 0 0 0 40 34.375a3.875 3.875 0 0 0-3.875-3.875m-2.039 3.875a2.04 2.04 0 1 1 4.078 0 2.04 2.04 0 0 1-4.078 0"
            class="neutral1"
            fill="#2b2b2b"
          ></path>
          <path
            d="M38.164 34.375a2.04 2.04 0 1 0-4.078 0 2.04 2.04 0 0 0 4.078 0m-3.671 0a1.632 1.632 0 1 1 3.264 0 1.632 1.632 0 0 1-3.264 0"
            class="secondary"
            fill="#FFDE00"
          ></path>
          <path
            d="M37.757 34.375a1.632 1.632 0 1 0-3.264 0 1.632 1.632 0 0 0 3.264 0m-2.448 0a.816.816 0 1 1 1.631 0 .816.816 0 0 1-1.631 0"
            class="secondary"
            fill="#FFDE00"
          ></path>
          <path
            d="M37.757 34.375a1.632 1.632 0 1 0-3.264 0 1.632 1.632 0 0 0 3.264 0m-2.448 0a.816.816 0 1 1 1.631 0 .816.816 0 0 1-1.631 0"
            class="shadow"
            fill="#353535"
            opacity=".3"
          ></path>
          <circle
            cx="36.125"
            cy="34.375"
            r=".816"
            class="secondary"
            fill="#FFDE00"
          ></circle>
          <circle
            cx="36.125"
            cy="34.375"
            r=".816"
            class="shadow"
            fill="#353535"
            opacity=".3"
          ></circle>
          <circle
            cx="36.125"
            cy="34.375"
            r=".816"
            class="shadow"
            fill="#353535"
            opacity=".3"
          ></circle>
          <path
            d="m40.5 14.25-2-1.5L35.75 11l-2-.75-2.25-.5H29l-1.5 3 6.5.5z"
            class="secondary"
            fill="#FFDE00"
          ></path>
          <path
            d="M36.75 20v5l4 .5.25-.25V20z"
            class="window"
            fill="#bbe3f3"
          ></path>
          <path
            d="M44 23.75h-1V20.5l-.25-.25h-1v-.5h-.5L41 20v5.75h1v-.5h1V25l.25-.25H44zM36.75 27.25h2V28h-2zM44.25 26.25h1.5L46 26v-.25h-2.5v4h1.75v6.75H46v-7.25l-.25-.25h-1.5z"
            class="neutral1"
            fill="#2b2b2b"
          ></path>
          <path
            d="M44.25 26.25H45V29h-.75z"
            class="accent2"
            fill="#f5911e"
          ></path>
          <path
            d="M36.5 15.25 34.25 14l-.5-.25-4-.25v2h7z"
            class="neutral1"
            fill="#2b2b2b"
          ></path>
          <path
            d="M27 32.25h4.25V34H27zM41 32.25h4.25v1.25H41zM43.701 29.75h.549v2.5h-.549zM36.25 26v-6.5h6v-.25L42 19H30.25v-3H40.5v-.25l-.25-.25h-10.5V29h6.5v-2.5h7.25V26zm-.5 2.5h-5.5v-9h5.5z"
            class="shadow"
            fill="#353535"
            opacity=".3"
          ></path>
          <path
            d="M30.25 26h5.5v.5h-5.5zM31 20v4.75h4V20zm3.5 4.25h-3V20.5h3zM36.25 29l7.25.75v-.5l-7.25-.75zM29.75 29h.549v3.25h-.549zM12.75 32.25h13.5v.5h-13.5zM11.25 35.75h15v.5h-15zM3.75 35.25l.75.5.75-4H10l1.5 3.5-.25.5H12V32.5l-2-2.25H5.25l-1.5 2.25z"
            class="shadow"
            fill="#353535"
            opacity=".3"
          ></path>
          <path
            d="M7.875 32.336a2.04 2.04 0 1 0 0 4.078 2.04 2.04 0 0 0 0-4.078m0 3.671a1.632 1.632 0 1 1 0-3.265 1.632 1.632 0 0 1 0 3.265"
            class="secondary"
            fill="#FFDE00"
          ></path>
          <path
            d="M7.875 32.743a1.632 1.632 0 1 0 0 3.264 1.632 1.632 0 0 0 0-3.264m0 2.448a.816.816 0 1 1 0-1.631.816.816 0 0 1 0 1.631"
            class="secondary"
            fill="#FFDE00"
          ></path>
          <circle
            cx="7.875"
            cy="34.375"
            r=".816"
            class="secondary"
            fill="#FFDE00"
          ></circle>
          <circle
            cx="7.875"
            cy="34.375"
            r=".816"
            class="shadow"
            fill="#353535"
            opacity=".3"
          ></circle>
          <path
            d="M7.875 30.5A3.875 3.875 0 0 0 4 34.375c0 .462.094.898.243 1.309a3.86 3.86 0 0 0 3.632 2.566 3.86 3.86 0 0 0 3.304-1.875 3.84 3.84 0 0 0 .571-2A3.875 3.875 0 0 0 7.875 30.5m0 5.914a2.04 2.04 0 1 1 0-4.078 2.04 2.04 0 0 1 0 4.078"
            class="neutral1"
            fill="#2b2b2b"
          ></path>
          <path
            d="M7.875 32.743a1.632 1.632 0 1 0 0 3.264 1.632 1.632 0 0 0 0-3.264m0 2.448a.816.816 0 1 1 0-1.631.816.816 0 0 1 0 1.631"
            class="shadow"
            fill="#353535"
            opacity=".3"
          ></path>
          <circle
            cx="7.875"
            cy="34.375"
            r=".816"
            class="shadow"
            fill="#353535"
            opacity=".3"
          ></circle>
        </g></svg>
