<svg xmlns="http://www.w3.org/2000/svg"
        class="css-9txd9r"
        focusable="false"
        viewBox="0 0 48 48"
        data-icon-name="GenericAtv"
      >
        <path
          id="GenericAtv__outline"
          d="M45.433 23.016a2 2 0 0 0 .067-.516V16a2 2 0 0 0-2-2h-1a2 2 0 0 0-.25.015A2 2 0 0 0 42 14h-1.646a2 2 0 0 0-.065-.144l-.25-.5a2 2 0 0 0-1.46-1.078l-4.5-.75a2 2 0 0 0-.587-.01 2 2 0 0 0-.327-.431l-.25-.25a2 2 0 0 0-.354-.282l-1.975-1.234-.725-.484a2 2 0 0 0-1.358-.32 2 2 0 0 0-.251-.016h-1.75c-.352 0-.682.091-.969.25h-.281a2 2 0 0 0-2 2v1c0 .573.241 1.09.628 1.455.092.245.231.466.406.655l-.717.261-3.163 1.13h-1.488l-2.155-.359-.153-.384a2 2 0 0 0-1.65-1.246l-12-1.25a2 2 0 0 0-2.102 1.349A1.99 1.99 0 0 0 0 15v.5q0 .22.048.434l.5 2.25a2 2 0 0 0 1.205 1.422 2 2 0 0 0 1.497 1.831v.924C1.224 24.143 0 26.746 0 29.5 0 34.738 4.262 39 9.5 39c4.728 0 8.66-3.472 9.382-8h10.237c.721 4.528 4.654 8 9.382 8 5.238 0 9.5-4.262 9.5-9.5a9.5 9.5 0 0 0-2.567-6.484Z"
          class="outline"
          fill="#fff"
        ></path>
        <g id="GenericAtv__icon">
          <path
            d="M5.75 15.5v.25l1.5.25.75-.5 2.25.25.25.5 2 .25.5-.5 2.25.5-.5-1.25-12-1.25-.25.75 2.75.5zM15.25 19.25l-.5-.5L4.5 17 2 15.5l.5 2.25h1.25v1.75l4 .25V20h4.5l.75.25h1.75l.5 1.75H13l-.75-.25v.777A7.5 7.5 0 0 0 9.5 22a7.45 7.45 0 0 0-3.253.75A7.49 7.49 0 0 0 2 29.5a7.5 7.5 0 1 0 13.303-4.75H16L17.5 29h.75L16 21.75zM9.5 33.447a3.947 3.947 0 1 1 0-7.894 3.947 3.947 0 0 1 0 7.894M17 18.75h.5l.25.25 1.75.5 5.25-2.5-.5-1-3.5 1.25h-2l-3-.5.75.75zM25 23h-6.75l1.5 4h6l1.75-2.75V24h-1zm.25 3.5h-5V26h5zM42.5 22v.5h1V16h-1v2.5H42V16h-1v6zm-.5-2.75h.5V21H42zM30.5 17.75V18l2.25-2.25 6.75 1-1-1.25v-.75l-.25-.5-4.5-.75-.25.25V15h-.75l-1.011 1.236.011.014zm6.75-3.25.75.25v.5h-.75zM35 14.25l2 .25v.75L35 15zM34 14l.75.25V15H34z"
            class="neutral1"
            fill="#2b2b2b"
          ></path>
          <path
            d="m14.75 18.75.5.5.75 2.5 1.4.2-.4-.2-1.5-3.25-.5-.5-2-1.25.25-.25 2.5 1 1.735 4.462.265.038.5 1H25l1.5 1h1l.5-1 .25.75 1-2.25.5-2 3-3-2.5 3.5-.5 1.75-1.5 2L29 26l1.25-1.75L31 21l2.75-3.25 6.25.75v-1.75h-.5l-6.75-1L30.5 18v-.25l1.25-1.5-.011-.014L31 15.25l-.25-.25H27l-2.75 1 .5 1-5.25 2.5-1.75-.5-.25-.25H17l-.5-1.25-.75-.75-.5-.25L13 16l-.5.5-2-.25-.25-.5L8 15.5l-.75.5-1.5-.25v-.25l-.5-.25-2.75-.5L2 15v.5L4.5 17zm14.5.5-.5 1.5V21h-3l-.5-1.75zM8 16.25l1.75.25v.5l-2-.25zM30.25 13.5v1h2l-.5-2-.25-.25-2-1.25v2z"
            class="primary"
            fill="#367C2B"
          ></path>
          <path
            d="M9.75 16.5 8 16.25l-.25.5 2 .25z"
            class="accent2"
            fill="#f5911e"
          ></path>
          <path
            d="m13.25 16.5-.25.25L15 18l.5.5 1.5 3.25.4.2.085.012L15.75 17.5zM28.75 21v-.25l.5-1.5h-4l.5 1.75z"
            class="secondary"
            fill="#FFDE00"
          ></path>
          <path
            d="M30.75 14.5h-.5v-1l-.75-.5v-2l-.75-.5v2l-.5-.75h-.75l1.25 2v.75h.75v.5h1.25zM27.25 10.75h-2v1h2zM25.75 12H27v.5h-1.25z"
            class="neutral1"
            fill="#2b2b2b"
          ></path>
          <path
            d="M28.25 10.5H26.5v.25h.75v1H27v.75h.5v-.75h.75zM40 22.151c.344.07.675.17 1 .285V16h-1zM34 20.25l.959 2.639a7.4 7.4 0 0 1 2.006-.73l-.716-1.908v-.25h-2.25z"
            class="neutral2"
            fill="#808082"
          ></path>
          <path
            d="M36.25 20h1l1-1.25-4.25-.5-1.25 1.5V20h3.5"
            class="primary"
            fill="#367C2B"
          ></path>
          <path
            d="m30.25 20 2.5-3.5-3 3-.5 2-1 2.25 1.5-2z"
            class="secondary"
            fill="#FFDE00"
          ></path>
          <path
            d="M28.25 23.75 28 23l-.5 1v.25L25.75 27h-6l-1.5-4-.5-1-.265-.038-.085-.012-1.4-.2L18.25 29H27l2-3z"
            class="neutral2"
            fill="#808082"
          ></path>
          <path
            d="M20.25 26h5v.5h-5zM12.25 22.527v-.777L13 22h2.25l-.5-1.75H13l-.75-.25h-7v2.75h.997A7.45 7.45 0 0 1 9.5 22c.972 0 1.898.191 2.75.527"
            class="neutral2"
            fill="#808082"
          ></path>
          <path
            d="M41 22.436a7 7 0 0 0-1-.285V18.5l-6.25-.75L31 21l-.75 3.25L29 26l-2 3h2.75l2.75-4.75h.648A7.47 7.47 0 0 0 31 29.5a7.5 7.5 0 0 0 15 0c0-3.264-2.089-6.034-5-7.064m-8.25-2.686 1.25-1.5 4.25.5-1 1.25h-1v.25l.716 1.908a7.5 7.5 0 0 0-2.006.73l-.959-2.639v-.25h-1.25zm5.75 13.697a3.947 3.947 0 1 1 0-7.894 3.947 3.947 0 0 1 0 7.894"
            class="neutral1"
            fill="#2b2b2b"
          ></path>
          <path
            d="M38.5 25.553a3.947 3.947 0 1 0 0 7.894 3.947 3.947 0 0 0 0-7.894m0 7.105a3.158 3.158 0 1 1 0-6.316 3.158 3.158 0 0 1 0 6.316"
            class="secondary"
            fill="#FFDE00"
          ></path>
          <path
            d="M38.5 26.342a3.158 3.158 0 1 0 0 6.316 3.158 3.158 0 0 0 0-6.316m0 4.737a1.58 1.58 0 1 1 0-3.158 1.58 1.58 0 0 1 0 3.158"
            class="secondary"
            fill="#FFDE00"
          ></path>
          <path
            d="M38.5 26.342a3.158 3.158 0 1 0 0 6.316 3.158 3.158 0 0 0 0-6.316m0 4.737a1.58 1.58 0 1 1 0-3.158 1.58 1.58 0 0 1 0 3.158"
            class="shadow"
            fill="#353535"
            opacity=".3"
          ></path>
          <path
            d="M38.5 27.921a1.58 1.58 0 1 0 0 3.158 1.58 1.58 0 0 0 0-3.158"
            class="secondary"
            fill="#FFDE00"
          ></path>
          <path
            d="M38.5 27.921a1.58 1.58 0 1 0 0 3.158 1.58 1.58 0 0 0 0-3.158"
            class="shadow"
            fill="#353535"
            opacity=".3"
          ></path>
          <path
            d="M38.5 27.921a1.58 1.58 0 1 0 0 3.158 1.58 1.58 0 0 0 0-3.158"
            class="shadow"
            fill="#353535"
            opacity=".3"
          ></path>
          <path
            d="M9.5 25.553a3.947 3.947 0 1 0 0 7.894 3.947 3.947 0 0 0 0-7.894m0 7.105a3.158 3.158 0 1 1 0-6.316 3.158 3.158 0 0 1 0 6.316"
            class="secondary"
            fill="#FFDE00"
          ></path>
          <path
            d="M9.5 26.342a3.158 3.158 0 1 0 0 6.316 3.158 3.158 0 0 0 0-6.316m0 4.737a1.58 1.58 0 1 1 0-3.158 1.58 1.58 0 0 1 0 3.158"
            class="secondary"
            fill="#FFDE00"
          ></path>
          <path
            d="M9.5 26.342a3.158 3.158 0 1 0 0 6.316 3.158 3.158 0 0 0 0-6.316m0 4.737a1.58 1.58 0 1 1 0-3.158 1.58 1.58 0 0 1 0 3.158"
            class="shadow"
            fill="#353535"
            opacity=".3"
          ></path>
          <path
            d="M9.5 27.921a1.58 1.58 0 1 0 0 3.158 1.58 1.58 0 0 0 0-3.158"
            class="secondary"
            fill="#FFDE00"
          ></path>
          <path
            d="M9.5 27.921a1.58 1.58 0 1 0 0 3.158 1.58 1.58 0 0 0 0-3.158"
            class="shadow"
            fill="#353535"
            opacity=".3"
          ></path>
          <path
            d="M9.5 27.921a1.58 1.58 0 1 0 0 3.158 1.58 1.58 0 0 0 0-3.158"
            class="shadow"
            fill="#353535"
            opacity=".3"
          ></path>
          <path
            d="M2.5 14.75 2 15l3 .5.5.25v.5l1.75.25L8 16l2 .25.25.5 2.5.25.5-.5 2.5 1L17.5 22h.25L17 18.75l-.5-1.25-.75-.75-.5-.25L13 16l-.5.5-2-.25-.25-.5L8 15.5l-.75.5-1.5-.25v-.25l-.5-.25zM28 23l.25.75 1-2.25.5-2 3-3 6.75.75h.5v-.5h-.5l-6.75-1-3.5 3.5-.5 1.5v.5zM5.25 20.75h7v.75h-7z"
            class="highlight"
            fill="#fefeff"
            opacity=".31"
          ></path>
          <path
            d="m17 18.75.75 3.25.5 1H19l-.5-1-.75-3-.25-.25zM20 20l3.75 1 .75-.5.25-3 1 3.5L24 22.25zM25.25 17.25l.5 1h3.75l.75-1zM29.5 12l1.75 1.25v1.25h-.5v-.75l-.5-.25-.75-.5zM28.25 21h.5v.25L28 23l-.5 1h-1l-.75-.5zM29 26l-.25-.75 1-1.5.75-3 3-3.5L40 18v.5l-6.25-.75L31 21l-.75 3.25zM12.25 20v1.75L13 22v-1.75z"
            class="shadow"
            fill="#353535"
            opacity=".3"
          ></path>
          <path
            d="M34 20h2.25v.25H34z"
            class="shadow"
            fill="#353535"
            opacity=".3"
          ></path>
        </g></svg>
