<svg xmlns="http://www.w3.org/2000/svg"
        class="css-9txd9r"
        focusable="false"
        viewBox="0 0 48 48"
        data-icon-name="GenericDryTruck1"
      >
        <path
          id="GenericDryTruck1__outline"
          d="M48 22.25a2 2 0 0 0-.586-1.414l-.25-.25A2 2 0 0 0 45.75 20h-.25a2 2 0 0 0-1.323.5H44c-.352 0-.682.091-.969.25H41.25v-.25c0-.574-.242-1.091-.629-1.456a2 2 0 0 0-.457-.708l-.75-.75a2 2 0 0 0-.165-.148A2 2 0 0 0 37.25 15.5h-1c-.352 0-.682.091-.969.25H33l-1.44-.42a2 2 0 0 0-.498-.079 2 2 0 0 0-.533-.466l-2.5-1.5a2 2 0 0 0-2.014-.025 2 2 0 0 0-.999 1.49H7.509l-.086-.299q-.011-.042-.026-.083l-.5-1.5a2 2 0 0 0-2.382-1.308l-1 .25a2 2 0 0 0-.715.34l-2 1.5a2 2 0 0 0-.8 1.6v1a1.997 1.997 0 0 0 2.001 2c.212 0 .426-.034.632-.103l.33-.11 1.288 4.025v1.188c0 .264.052.525.154.769l.296.711c-.428.367-.7.912-.7 1.52v.5c0 .74.402 1.387 1 1.732v2.268a2 2 0 0 0 1.075 1.774 5.01 5.01 0 0 0 4.675 3.226 4.98 4.98 0 0 0 3.125-1.1 4.98 4.98 0 0 0 3.125 1.1 5.01 5.01 0 0 0 4.9-4h.746c.1.246.248.473.44.664l.25.25a2 2 0 0 0 1.414.586h2.5c.342 0 .674-.087.968-.25h9.322A4.95 4.95 0 0 0 42 35.75a4.95 4.95 0 0 0 4.536-2.911c.232-.099.446-.243.629-.425l.25-.25a2 2 0 0 0 .586-1.414v-2.477c0-.218-.036-.433-.104-.636.068-.203.104-.418.104-.636v-.5c0-.266-.052-.519-.146-.751.095-.235.146-.489.146-.749z"
          class="outline"
          fill="#fff"
        ></path>
        <g id="GenericDryTruck1__icon">
          <path
            d="M7 26.75v4h.5v-1h20v-3z"
            class="neutral1"
            fill="#2b2b2b"
          ></path>
          <path
            d="M7.5 26.75h20v3h-20z"
            class="highlight"
            fill="#fefeff"
            opacity=".31"
          ></path>
          <path
            d="M27.5 29.5V31h17.75v-3.75H45l-1-.75v-3.75h-4.75V23h-1.5v-.5h-.5v.5h-1.5l-.25-.5h-2V20h3.25v-.25h2L38 19h-.75v.25H27.5V29.5"
            class="primary"
            fill="#367C2B"
          ></path>
          <path d="M27.5 28h6v3h-6z" class="neutral2" fill="#808082"></path>
          <path
            d="M37.25 19.75H38l.5 3.25h-.75v-.5z"
            class="window"
            fill="#bbe3f3"
          ></path>
          <path
            d="M37.25 18.75H37V19h-.75v-1.5h1z"
            class="accent2"
            fill="#f5911e"
          ></path>
          <path d="M32.75 17.75h3.5V19z" class="neutral1" fill="#2b2b2b"></path>
          <path
            d="M27.5 19.25V19l.75-1.75H31L37 19v-.25h.25v.5z"
            class="secondary"
            fill="#FFDE00"
          ></path>
          <circle
            cx="10.75"
            cy="30.75"
            r="3"
            class="neutral1"
            fill="#2b2b2b"
          ></circle>
          <circle
            cx="10.75"
            cy="30.75"
            r="1.579"
            class="secondary"
            fill="#FFDE00"
          ></circle>
          <circle
            cx="10.75"
            cy="30.75"
            r="1.263"
            class="shadow"
            fill="#353535"
            opacity=".3"
          ></circle>
          <circle
            cx="10.75"
            cy="30.75"
            r=".632"
            class="shadow"
            fill="#353535"
            opacity=".3"
          ></circle>
          <circle
            cx="17"
            cy="30.75"
            r="3"
            class="neutral1"
            fill="#2b2b2b"
          ></circle>
          <circle
            cx="17"
            cy="30.75"
            r="1.579"
            class="secondary"
            fill="#FFDE00"
          ></circle>
          <circle
            cx="17"
            cy="30.75"
            r="1.263"
            class="shadow"
            fill="#353535"
            opacity=".3"
          ></circle>
          <circle
            cx="17"
            cy="30.75"
            r=".632"
            class="shadow"
            fill="#353535"
            opacity=".3"
          ></circle>
          <path
            d="M45.25 30.75V31h.5l.25-.25v-2.477L45.75 28h-.5zM46 27l-.25.25H45l-1-.75v-4h.5v3l.75-.5v-2.75l.25-.25h.25l.25.25V25l-.75.5-.75.5v.25l.25.25H46z"
            class="neutral1"
            fill="#2b2b2b"
          ></path>
          <path
            d="M45.25 26.5v-1l-.75.5v.25l.25.25z"
            class="accent2"
            fill="#f5911e"
          ></path>
          <path
            d="m45.25 25-.75.5v-2.75h.75z"
            class="primary"
            fill="#367C2B"
          ></path>
          <path d="M38 23h1.75v4.25H38z" class="neutral2" fill="#808082"></path>
          <path
            d="M27.5 19.75h6v.5h-6zM32 20.25h.5V28H32z"
            class="shadow"
            fill="#353535"
            opacity=".3"
          ></path>
          <path
            d="M37.75 22.5h-.5l-.5-2.5v-.25h.5z"
            class="primary"
            fill="#367C2B"
          ></path>
          <path
            d="M33.5 19.75h3.75V20H33.5z"
            class="shadow"
            fill="#353535"
            opacity=".3"
          ></path>
          <path
            d="M28 27.5h1.739l.011-8.25H28zM28.5 19.25V17L27 16v-1l2.5 1.5v2.75z"
            class="neutral2"
            fill="#808082"
          ></path>
          <path
            d="m37.25 20.75.25-.25h1.75V23H39v-.5h-1.75z"
            class="neutral1"
            fill="#2b2b2b"
          ></path>
          <path
            d="M32.5 25.75H38v.5h-5.5zM39.75 24.5v.75h2.5l-.75-.75zM39.75 25.5v.75H43l-.5-.75z"
            class="shadow"
            fill="#353535"
            opacity=".3"
          ></path>
          <path
            d="M33.5 20v2.5h2l.25.5h1.5v-.5l-.5-2.5z"
            class="window"
            fill="#bbe3f3"
          ></path>
          <path
            d="M38.25 31v-3.75H38V28h-.75v3z"
            class="neutral2"
            fill="#808082"
          ></path>
          <path
            d="M33.5 28.5h3.75V31H33.5z"
            class="shadow"
            fill="#353535"
            opacity=".3"
          ></path>
          <path
            d="M33.5 28.5h3.75v.25H33.5zM33.5 30.25h3.75v.25H33.5zM31.5 28h.25v3h-.25z"
            class="shadow"
            fill="#353535"
            opacity=".3"
          ></path>
          <path
            d="M29.25 28h.25v3h-.25zM36 24.25h1.25V25H36z"
            class="neutral1"
            fill="#2b2b2b"
          ></path>
          <path
            d="M38.5 31v-1l.75-1.75 1.25-1L42 27l1.5.25 1.25 1 .5 1V31z"
            class="shadow"
            fill="#353535"
            opacity=".3"
          ></path>
          <circle
            cx="42"
            cy="30.75"
            r="3"
            class="neutral1"
            fill="#2b2b2b"
          ></circle>
          <circle
            cx="42"
            cy="30.75"
            r="1.579"
            class="secondary"
            fill="#FFDE00"
          ></circle>
          <circle
            cx="42"
            cy="30.75"
            r="1.263"
            class="shadow"
            fill="#353535"
            opacity=".3"
          ></circle>
          <circle
            cx="42"
            cy="30.75"
            r=".632"
            class="shadow"
            fill="#353535"
            opacity=".3"
          ></circle>
          <path
            d="M6 16.75h20.75v.75H6z"
            class="secondary"
            fill="#FFDE00"
          ></path>
          <path
            d="M26.5 17.5v5.75l-1.25 3H7.5l-1.25-3V17.5z"
            class="neutral2"
            fill="#808082"
          ></path>
          <path
            d="m6.25 23.25 1.25 3h17.75l1.25-3z"
            class="shadow"
            fill="#353535"
            opacity=".3"
          ></path>
          <path
            d="M7.75 17.5h.5v2.75h-.5zM13.25 17.5h.5v2.75h-.5zM18.75 17.5h.5v2.75h-.5zM24 17.5h.5v2.75H24z"
            class="highlight"
            fill="#fefeff"
            opacity=".31"
          ></path>
          <path
            d="M6.25 17.5H26.5v.5H6.25z"
            class="shadow"
            fill="#353535"
            opacity=".3"
          ></path>
          <path
            d="M6.25 20.25H26.5v.5H6.25z"
            class="highlight"
            fill="#fefeff"
            opacity=".31"
          ></path>
          <path d="M6 26.25h21.5v.5H6z" class="primary" fill="#367C2B"></path>
          <path
            d="M26.5 20.5h.5v5.75h-.5z"
            class="neutral1"
            fill="#2b2b2b"
          ></path>
          <path
            d="m6.25 21.75-2-6.25L5.5 15l.5 1.75v.75h.25z"
            class="neutral2"
            fill="#808082"
          ></path>
          <path
            d="M6.25 18.25v1L5 15.75l.25-.25z"
            class="highlight"
            fill="#fefeff"
            opacity=".31"
          ></path>
          <path
            d="m5.5 15-1.25.5-2.25.75v-1l2-1.5 1-.25zM21.5 28h2.75v1.75H21.5z"
            class="neutral1"
            fill="#2b2b2b"
          ></path>
          <path d="M20.25 26.75h1v3h-1z" class="neutral2" fill="#808082"></path>
          <path
            d="M21.25 27h6.25v.5h-6.25z"
            class="highlight"
            fill="#fefeff"
            opacity=".31"
          ></path>
          <path
            d="m24.75 27.75-.25.25v3l.25.25h2.5l.25-.25v-3l-.25-.25z"
            class="primary"
            fill="#367C2B"
          ></path>
          <path
            d="M24.5 30.5v.5l.25.25h2.5l.25-.25v-.5z"
            class="shadow"
            fill="#353535"
            opacity=".3"
          ></path>
          <path
            d="m24.75 27.75-.25.25v.75h3V28l-.25-.25z"
            class="highlight"
            fill="#fefeff"
            opacity=".31"
          ></path>
          <path
            d="M24.5 28.75h3v.5h-3zM8 28l.25.5 1-1H13l.25.5h1.5l.25-.5h4l.75 1L20 28l-.75-1H9z"
            class="neutral2"
            fill="#808082"
          ></path>
          <path
            d="m8.75 26.75-1 1L8 28l1-1h10.25l.75 1 .25-.25-.75-1z"
            class="neutral1"
            fill="#2b2b2b"
          ></path>
          <path
            d="M7.75 20.75h.5v2.5h-.5zM13.25 20.75h.5v2.5h-.5zM18.75 20.75h.5v2.5h-.5zM24 20.75h.5v2.5H24z"
            class="highlight"
            fill="#fefeff"
            opacity=".31"
          ></path>
          <path
            d="M28.25 27.5h1.25v.5h-1.25zM28.75 28h.5v3h-.5zM31 28h.5v3H31zM33.5 28.75h3.75v.5H33.5zM33.5 30.5h3.75v.5H33.5z"
            class="shadow"
            fill="#353535"
            opacity=".3"
          ></path>
        </g></svg>
