<svg xmlns="http://www.w3.org/2000/svg"
        class="css-9txd9r"
        focusable="false"
        viewBox="0 0 48 48"
        data-icon-name="GenericDryFertillizerTender"
      >
        <path
          id="GenericDryFertillizerTender__outline"
          d="M46.003 26.75h-2.645a2 2 0 0 0-1.855-1.25h-.677q.047-.042.091-.086l.412-.412 4.402-3.424a2 2 0 0 0 .772-1.579v-3.677c.311-.353.5-.816.5-1.323v-1.25a2 2 0 0 0-2-2H4.753a2 2 0 0 0-2 2v1.25c0 .507.189.97.5 1.323v.193a2 2 0 0 0-.859.32l-.645.43A2 2 0 0 0 .003 19.25v3.25a2 2 0 0 0 2 2h.971L.316 28.676a2 2 0 0 0-.313 1.074v2.75c0 .507.189.971.5 1.323v.052A5.63 5.63 0 0 0 6.128 39.5a5.6 5.6 0 0 0 3.75-1.436 5.6 5.6 0 0 0 3.75 1.436 5.635 5.635 0 0 0 5.402-4.056q.228.056.473.056h2.5c.74 0 1.387-.402 1.732-1h12.768a2 2 0 0 0 2-2v-.75h7.5a2 2 0 0 0 2-2v-1a2 2 0 0 0-2-2"
          class="outline"
          fill="#fff"
        ></path>
        <g id="GenericDryFertillizerTender__icon">
          <path
            d="M16 29.75h-2.5l-1.25-.97-.25-.19-.75-.58-.25-.2-1.5-1.16-.25-.19-.75-.58-.25-.2-1.75-1.35-.17-.13-.53-.42-.17-.13-1.88-1.46L3.5 22v-2l.25.19 2.73 2.13.16.13.55.42.16.13.96.75.19.15.75.58.25.2 1.5 1.17.25.19.75.59.25.19z"
            class="neutral2"
            fill="#808082"
          ></path>
          <path d="M2 29.75h.75v2.75H2z" class="neutral1" fill="#2b2b2b"></path>
          <path
            d="M2.75 29.75H17v2.75H2.75z"
            class="neutral2"
            fill="#808082"
          ></path>
          <path
            d="M2.75 30.5H17v.5H2.75z"
            class="shadow"
            fill="#353535"
            opacity=".3"
          ></path>
          <path
            d="M2.75 30.5H17v.5H2.75z"
            class="shadow"
            fill="#353535"
            opacity=".3"
          ></path>
          <path
            d="M3.5 29.25h12v.5h-12zM17 29.75v2.75h1v.75h1.5v.25H22v-1h14.5v-2.75z"
            class="neutral1"
            fill="#2b2b2b"
          ></path>
          <circle
            cx="6.125"
            cy="33.875"
            r="3.625"
            class="neutral1"
            fill="#2b2b2b"
          ></circle>
          <circle
            cx="6.125"
            cy="33.875"
            r="1.908"
            class="secondary"
            fill="#FFDE00"
          ></circle>
          <circle
            cx="6.125"
            cy="33.875"
            r="1.526"
            class="shadow"
            fill="#353535"
            opacity=".3"
          ></circle>
          <circle
            cx="6.125"
            cy="33.875"
            r=".763"
            class="shadow"
            fill="#353535"
            opacity=".3"
          ></circle>
          <circle
            cx="13.625"
            cy="33.875"
            r="3.625"
            class="neutral1"
            fill="#2b2b2b"
          ></circle>
          <circle
            cx="13.625"
            cy="33.875"
            r="1.908"
            class="secondary"
            fill="#FFDE00"
          ></circle>
          <circle
            cx="13.625"
            cy="33.875"
            r="1.526"
            class="shadow"
            fill="#353535"
            opacity=".3"
          ></circle>
          <circle
            cx="13.625"
            cy="33.875"
            r=".763"
            class="shadow"
            fill="#353535"
            opacity=".3"
          ></circle>
          <path
            d="m33.5 29.75 3.25-2.25h4.75v2.25zM8.5 27.5h.75v1.75H8.5zM11.25 27.5H12v1.75h-.75z"
            class="neutral1"
            fill="#2b2b2b"
          ></path>
          <path
            d="M8.25 27H9.5v.5H8.25zM11 27h1.25v.5H11z"
            class="secondary"
            fill="#FFDE00"
          ></path>
          <path
            d="M5.25 15v5l4 3.5.5.5 6.75 5.25v.5h4.25v-.5l3.75-3.75h.75L29 29.25v.5h4v-.5L39.5 24l.5-.5 4.5-3.5v-5z"
            class="primary"
            fill="#367C2B"
          ></path>
          <path
            d="M5.25 16.75H44.5v.5H5.25zM39.5 24H9.75l-.5-.5H40zM12.75 26.25H37V27H12.75zM41.5 28.75H46v1h-4.5z"
            class="neutral2"
            fill="#808082"
          ></path>
          <path
            d="M4.75 13.75H45V15H4.75z"
            class="secondary"
            fill="#FFDE00"
          ></path>
          <path
            d="M6.25 14.5h2.5v1h-2.5z"
            class="neutral1"
            fill="#2b2b2b"
          ></path>
          <path
            d="M6.25 17.75h6.25v2H6.25z"
            class="secondary"
            fill="#FFDE00"
          ></path>
          <path d="M41 14.5h2.5v1H41z" class="neutral1" fill="#2b2b2b"></path>
          <path
            d="M24.5 15h.75v10.5h-.75z"
            class="neutral2"
            fill="#808082"
          ></path>
          <path
            d="M13.5 17.25h.75v6.25h-.75zM35.75 17.25h.75v6.25h-.75zM9.75 24l3 2.25h11l.75-.75V24zM13.5 27H23l-2.25 2.25H16.5zM13.5 15h.75v1.75h-.75zM35.75 15h.75v1.75h-.75zM39.5 24l-2.75 2.25H26l-.75-.75V24zM26.75 27 29 29.25h4L35.75 27z"
            class="shadow"
            fill="#353535"
            opacity=".3"
          ></path>
          <path
            d="M22.5 27h.5v2.75h-.5zM26.5 27h.5v2.75h-.5zM13.5 27h.5v2.25h-.5zM35.75 27h.5v2.75h-.5zM2 19.25h1.5v3.25H2z"
            class="neutral2"
            fill="#808082"
          ></path>
          <path
            d="M2 21.25h1v.5H2z"
            class="shadow"
            fill="#353535"
            opacity=".3"
          ></path>
          <path
            d="M2 21.25h1v.5H2z"
            class="shadow"
            fill="#353535"
            opacity=".3"
          ></path>
          <path
            d="M2.75 19.25V19l.75-.5v.75z"
            class="neutral2"
            fill="#808082"
          ></path>
          <path
            d="M2.75 19h.75v.25h-.75z"
            class="shadow"
            fill="#353535"
            opacity=".3"
          ></path>
          <path
            d="M2.75 19h.75v.25h-.75zM3.75 20.19v2L3.5 22v-2z"
            class="shadow"
            fill="#353535"
            opacity=".3"
          ></path>
          <path
            d="M3.75 20.19v2L3.5 22v-2z"
            class="shadow"
            fill="#353535"
            opacity=".3"
          ></path>
          <path
            d="M11.25 27H12v-1.5l-.75-.5zM8.5 27h.75v-3.5l-.75-.75zM7.75 22l-.56.87-.86 1.33-3.58 5.55H2l3.8-5.97.84-1.33.61-.95z"
            class="neutral2"
            fill="#808082"
          ></path>
          <path
            d="M9.5 24.68v1.97l-.25-.19v-1.98z"
            class="shadow"
            fill="#353535"
            opacity=".3"
          ></path>
          <path
            d="M9.5 24.68v1.97l-.25-.19v-1.98zM8.5 23.9v1.98l-.25-.2v-1.93h.06z"
            class="shadow"
            fill="#353535"
            opacity=".3"
          ></path>
          <path
            d="M8.5 23.9v1.98l-.25-.2v-1.93h.06zM11.25 26.04V27H11v-1.15z"
            class="shadow"
            fill="#353535"
            opacity=".3"
          ></path>
          <path
            d="M11.25 26.04V27H11v-1.15zM12.25 26.82V27H12v-.37z"
            class="shadow"
            fill="#353535"
            opacity=".3"
          ></path>
          <path
            d="M12.25 26.82V27H12v-.37zM12.25 27.5v1.28l-.25-.19V27.5z"
            class="shadow"
            fill="#353535"
            opacity=".3"
          ></path>
          <path
            d="M12.25 27.5v1.28l-.25-.19V27.5zM11.25 27.5v.51l-.25-.2v-.31z"
            class="shadow"
            fill="#353535"
            opacity=".3"
          ></path>
          <path
            d="M11.25 27.5v.51l-.25-.2v-.31zM6.64 22.45l-.84 1.33-.17-.13.85-1.33z"
            class="shadow"
            fill="#353535"
            opacity=".3"
          ></path>
          <path
            d="m6.64 22.45-.84 1.33-.17-.13.85-1.33zM7.35 23l-.85 1.33-.17-.13.86-1.33z"
            class="shadow"
            fill="#353535"
            opacity=".3"
          ></path>
          <path
            d="m7.35 23-.85 1.33-.17-.13.86-1.33z"
            class="shadow"
            fill="#353535"
            opacity=".3"
          ></path>
          <path
            d="m17 32.5.75.75H18v-.75z"
            class="neutral2"
            fill="#808082"
          ></path>
          <path
            d="m17 32.5.75.75H18v-.75z"
            class="shadow"
            fill="#353535"
            opacity=".3"
          ></path>
        </g></svg>
