<svg xmlns="http://www.w3.org/2000/svg"
        class="css-9txd9r"
        focusable="false"
        viewBox="0 0 48 48"
        data-icon-name="GenericSemiTrailer"
      >
        <path
          id="GenericSemiTrailer__outline"
          d="M47.411 24.335a2 2 0 0 0-1.414-.586H39.25v-12.25c0-.669-.334-1.293-.891-1.664l-.75-.5a2 2 0 0 0-1.109-.336H2.75c-.395 0-.781.117-1.109.336l-.75.5A2 2 0 0 0 0 11.499v15a2 2 0 0 0 2 2h.5v3.75a2 2 0 0 0 .947 1.701 6.385 6.385 0 0 0 6.178 4.799 6.36 6.36 0 0 0 4.5-1.864 6.36 6.36 0 0 0 4.5 1.864c3.304 0 6.029-2.527 6.345-5.75H28a2 2 0 0 0 1.562-.751l1.399-1.749h1.289v4a2 2 0 0 0 2 2h1.25a2 2 0 0 0 2-2v-4.015a2 2 0 0 0 1.312-.735h7.185a2 2 0 0 0 2-2.001v-2a2 2 0 0 0-.586-1.414Z"
          class="outline"
          fill="#fff"
        ></path>
        <g id="GenericSemiTrailer__icon">
          <path
            d="M37.25 26.5v-.75h8.747v1.999l-8.747.001v.75H26.5V31H5v-4.5z"
            class="neutral2"
            fill="#808082"
          ></path>
          <path
            d="M37.25 26.5v-.75h8.747v1.999l-8.747.001v.75l-10.747.001L26.5 31l-21.497.001v-4.5z"
            class="shadow"
            fill="#353535"
            opacity=".3"
          ></path>
          <path
            d="M4.5 26.5H5v5.75h-.5z"
            class="neutral1"
            fill="#2b2b2b"
          ></path>
          <path
            d="M2 25.75h35.25v.75H2z"
            class="neutral2"
            fill="#808082"
          ></path>
          <path
            d="M5.75 28.5 6 29l1.25-1.25h6l.25.75h1.75l.25-.75H22L23.25 29l.25-.5-1.25-1.25H7z"
            class="highlight"
            fill="#fefeff"
            opacity=".31"
          ></path>
          <path
            d="M6.75 26.75 5.5 28l.25.5L7 27.25h15.25l1.25 1.25.25-.5-1.25-1.25z"
            class="neutral1"
            fill="#2b2b2b"
          ></path>
          <path d="M2 11.75h35.25v14H2z" class="primary" fill="#367C2B"></path>
          <path
            d="M2 11.75v-.25l.75-.5H36.5l.75.5v.25z"
            class="neutral2"
            fill="#808082"
          ></path>
          <path
            d="M2 11.75h35.25v.75H2zM2 12.5h.75v13.25H2zM36.5 12.5h.75v13.25h-.75z"
            class="shadow"
            fill="#353535"
            opacity=".3"
          ></path>
          <path
            d="M3.75 21.75H35.5v.5H3.75zM3.75 20H35.5v.5H3.75zM3.75 18.25H35.5v.5H3.75zM3.75 16.5H35.5v.5H3.75z"
            class="highlight"
            fill="#fefeff"
            opacity=".31"
          ></path>
          <path
            d="M3.75 13.5H35.5v1.75H3.75z"
            class="secondary"
            fill="#FFDE00"
          ></path>
          <path
            d="M3.75 23.5H35.5v.5H3.75z"
            class="highlight"
            fill="#fefeff"
            opacity=".31"
          ></path>
          <path
            d="M34.25 28.5h1.25v6h-1.25zM26.5 31H28l2-2.5-3.497.001z"
            class="neutral1"
            fill="#2b2b2b"
          ></path>
          <circle
            cx="18.625"
            cy="32.375"
            r="4.375"
            class="neutral1"
            fill="#2b2b2b"
          ></circle>
          <circle
            cx="18.625"
            cy="32.375"
            r="2.303"
            class="secondary"
            fill="#FFDE00"
          ></circle>
          <circle
            cx="18.625"
            cy="32.375"
            r="1.842"
            class="shadow"
            fill="#353535"
            opacity=".3"
          ></circle>
          <circle
            cx="18.625"
            cy="32.375"
            r=".921"
            class="shadow"
            fill="#353535"
            opacity=".3"
          ></circle>
          <circle
            cx="9.625"
            cy="32.375"
            r="4.375"
            class="neutral1"
            fill="#2b2b2b"
          ></circle>
          <circle
            cx="9.625"
            cy="32.375"
            r="2.303"
            class="secondary"
            fill="#FFDE00"
          ></circle>
          <circle
            cx="9.625"
            cy="32.375"
            r="1.842"
            class="shadow"
            fill="#353535"
            opacity=".3"
          ></circle>
          <circle
            cx="9.625"
            cy="32.375"
            r=".921"
            class="shadow"
            fill="#353535"
            opacity=".3"
          ></circle>
        </g></svg>
