<svg xmlns="http://www.w3.org/2000/svg"
        class="css-9txd9r"
        focusable="false"
        viewBox="0 0 48 48"
        data-icon-name="GenericFuelTrailer"
      >
        <path
          id="GenericFuelTrailer__outline"
          d="M46 26.25h-7.124l.19-.412c.121-.263.184-.549.184-.838v-6a2 2 0 0 0-.091-.597l-1.25-4A2 2 0 0 0 36 13H19v-3a2 2 0 0 0-2-2h-1c-.507 0-.97.189-1.323.5H8.823A2 2 0 0 0 7.5 8h-1a2 2 0 0 0-2 2v1.5H3a2 2 0 0 0-1.562.751l-1 1.25A2 2 0 0 0 0 14.75V33c0 .881.57 1.629 1.361 1.896.373.534.984.854 1.639.854h1q.081 0 .161-.007A7.22 7.22 0 0 0 10.75 40a7.21 7.21 0 0 0 5.75-2.85A7.21 7.21 0 0 0 22.25 40a7.22 7.22 0 0 0 6.586-4.25h.914a2 2 0 0 0 1.561-.75H35.5c.567 0 1.107-.241 1.487-.662l1.654-1.838H46a2 2 0 0 0 2-2v-2.25a2 2 0 0 0-2-2"
          class="outline"
          fill="#fff"
        ></path>
        <g id="GenericFuelTrailer__icon">
          <path
            d="m19 27-1.25 2h-2.5L14 27H7.25l-2.889 6h1.164c-.004-.085-.025-.164-.025-.25a5.25 5.25 0 1 1 10.5 0c0 .086-.021.165-.025.25h1.05c-.004-.085-.025-.164-.025-.25a5.25 5.25 0 1 1 10.5 0c0 .086-.021.165-.025.25h.942l-2.667-6z"
            class="primary"
            fill="#367C2B"
          ></path>
          <path
            d="m35.75 28.25 1.5-3.25v-6L36 15H17v-5h-1v.5H7.5V10h-1v5H4.25l-1 3.75v6l1.5 3.75-2-.25H2V33h1.357L5.5 28.5l1-2.5h19.75l1 2.25 1 2.25 1.154 2.5H31.5v-2.5H46v-2.25zM7.5 11.5H16v1H7.5zm0 2.75v-.75H16V15H7.5zM16.75 20v.75H6.5v-2.5h10.25zm16 4.25H29.5v-1.5h3.25z"
            class="primary"
            fill="#367C2B"
          ></path>
          <path d="M7.5 13.5H8v.75h-.5z" class="neutral1" fill="#2b2b2b"></path>
          <path
            d="M8 15h2.75v-1.5H8V15"
            class="secondary"
            fill="#FFDE00"
          ></path>
          <path
            d="m2.75 15.25.75-1h3v-.75H3l-1 1.25v13.5h.75z"
            class="neutral1"
            fill="#2b2b2b"
          ></path>
          <path
            d="M6.5 18.25h10.25V20H6.5z"
            class="secondary"
            fill="#FFDE00"
          ></path>
          <path
            d="M6.5 20h10.25v.75H6.5z"
            class="neutral2"
            fill="#808082"
          ></path>
          <path
            d="M29.5 22.75h3.25v1.5H29.5zM31.5 33h4l2.25-2.5H31.5z"
            class="neutral1"
            fill="#2b2b2b"
          ></path>
          <path
            d="M6.5 10h1v5h-1zM16 10h1v5h-1zM5.5 15H4.25l-1 3.75v6l1.5 3.75h.75zM28.5 33l-2.75-6H19l-1.25 2h-2.5L14 27H7.25l-3 5.75V33H28.5M31.5 33v-2.5h-3.25l1 2.5zM26.25 26l1 2.25H35V26z"
            class="shadow"
            fill="#353535"
            opacity=".3"
          ></path>
          <path
            d="M35 15v13.25h.75l1.5-3.25v-6L36 15zM5.5 17.5H35v.75H5.5z"
            class="highlight"
            fill="#fefeff"
            opacity=".31"
          ></path>
          <path
            d="m27.25 28.25-1-2.25H6.5l-1 2.5L3.357 33 3 33.75h1l.361-.75 2.889-6H14l1.25 2h2.5L19 27h6.75l2.667 6 .333.75h1l-.346-.75-1.154-2.5z"
            class="neutral1"
            fill="#2b2b2b"
          ></path>
          <path
            d="M22.25 27.5A5.25 5.25 0 0 0 17 32.75c0 .086.021.165.025.25.133 2.781 2.411 5 5.225 5s5.092-2.219 5.225-5c.004-.085.025-.164.025-.25a5.25 5.25 0 0 0-5.25-5.25m0 8.013a2.763 2.763 0 1 1 0-5.526 2.763 2.763 0 0 1 0 5.526"
            class="neutral1"
            fill="#2b2b2b"
          ></path>
          <path
            d="M22.25 29.987a2.763 2.763 0 1 0 0 5.526 2.763 2.763 0 0 0 0-5.526"
            class="secondary"
            fill="#FFDE00"
          ></path>
          <path
            d="M10.75 27.5a5.25 5.25 0 0 0-5.25 5.25c0 .086.021.165.025.25.133 2.781 2.411 5 5.225 5s5.092-2.219 5.225-5c.004-.085.025-.164.025-.25a5.25 5.25 0 0 0-5.25-5.25m0 8.013a2.763 2.763 0 1 1 0-5.526 2.763 2.763 0 0 1 0 5.526"
            class="neutral1"
            fill="#2b2b2b"
          ></path>
          <path
            d="M10.75 29.987a2.763 2.763 0 1 0 0 5.526 2.763 2.763 0 0 0 0-5.526"
            class="secondary"
            fill="#FFDE00"
          ></path>
          <path
            d="M24.461 32.75a2.211 2.211 0 1 0-4.422 0 2.211 2.211 0 0 0 4.422 0m-2.211 1.105a1.105 1.105 0 1 1 0-2.21 1.105 1.105 0 0 1 0 2.21"
            class="shadow"
            fill="#353535"
            opacity=".3"
          ></path>
          <path
            d="M23.355 32.75a1.105 1.105 0 1 0-2.21 0 1.105 1.105 0 0 0 2.21 0"
            class="shadow"
            fill="#353535"
            opacity=".3"
          ></path>
          <path
            d="M23.355 32.75a1.105 1.105 0 1 0-2.21 0 1.105 1.105 0 0 0 2.21 0M12.961 32.75a2.211 2.211 0 1 0-4.422 0 2.211 2.211 0 0 0 4.422 0m-2.211 1.105a1.105 1.105 0 1 1 0-2.21 1.105 1.105 0 0 1 0 2.21"
            class="shadow"
            fill="#353535"
            opacity=".3"
          ></path>
          <path
            d="M11.855 32.75a1.105 1.105 0 1 0-2.21 0 1.105 1.105 0 0 0 2.21 0"
            class="shadow"
            fill="#353535"
            opacity=".3"
          ></path>
          <path
            d="M11.855 32.75a1.105 1.105 0 1 0-2.21 0 1.105 1.105 0 0 0 2.21 0"
            class="shadow"
            fill="#353535"
            opacity=".3"
          ></path>
        </g></svg>
