<svg xmlns="http://www.w3.org/2000/svg"
        class="css-9txd9r"
        focusable="false"
        viewBox="0 0 48 48"
        data-icon-name="GenericForklift"
      >
        <path
          id="GenericForklift__outline"
          d="m46.237 35.764-6.734-.792v-9.721a2 2 0 0 0-.586-1.414l-.25-.25a2 2 0 0 0-1.164-.57V10.751a2 2 0 0 0-2-2h-3c-.395 0-.781.117-1.109.336l-.75.5a2 2 0 0 0-.305.25l-.75.75c-.22.22-.385.487-.483.782l-.103.309a2 2 0 0 0-1.5-.677h-.368l-.167-.279a2 2 0 0 0-.301-.385l-.916-.916a2 2 0 0 0-.584-1.334l-.25-.25a2 2 0 0 0-.52-.375l-.5-.25a2 2 0 0 0-.894-.211H8.253a2 2 0 0 0-2 2v1c0 .632.293 1.195.75 1.561v3.689c-.31 0-.617.072-.894.211l-.5.25a2 2 0 0 0-.52.375l-.5.5a2 2 0 0 0-.375.52l-.25.5a2 2 0 0 0-.211.894v1.25c0 .31.072.617.211.894l.053.106h-.764c-.31 0-.617.072-.894.211l-.5.25a2 2 0 0 0-.52.375l-.5.5a2 2 0 0 0-.375.52l-.25.5a2 2 0 0 0-.211.894v1c0 .265.052.518.145.75a2 2 0 0 0-.145.75v6.25c0 .548.22 1.044.577 1.406a5.756 5.756 0 0 0 5.592 7.094c1.955 0 3.704-1 4.742-2.529q.167.029.339.029H25.03a6.73 6.73 0 0 0 5.223 2.5 6.7 6.7 0 0 0 3.918-1.258c.354.316.821.508 1.332.508h10.5a2 2 0 0 0 2-2v-.75a2 2 0 0 0-1.766-1.986ZM21.589 17.586l-2.25 2.25a2 2 0 0 0-.195.226l-.476-.476a2 2 0 0 0-.52-.375l-.5-.25a2 2 0 0 0-.894-.211h-.563l-.246-.985a2 2 0 0 0-.526-.929l-.25-.25a2 2 0 0 0-1.164-.57V12.5h6.387l1.362.511.759.607.259.388.128.257.959 2.929a2.01 2.01 0 0 0-2.269.395Zm7.849-2.329.065.055v1.913l-.397-1.279c.154-.207.267-.441.332-.689"
          class="outline"
          fill="#fff"
        ></path>
        <g id="GenericForklift__icon">
          <path
            d="M27.503 13h-3l2.25 2h.5l.25-.25z"
            class="neutral1"
            fill="#2b2b2b"
          ></path>
          <path
            d="m30.753 28-4.5-14.5-.25-.5-.75-1.25-1-1-1.25-.75h-14v16h2l1 .25.5.25 8.5 6h4l.25-1 .5-.75 1-1 1-.5 1.25-.25h4.5v-1zm-9.5 0v-2.5l-.25-.75-.25-.25-.75-.25h-8V11.5l.25-.5.75-.5h7.75l2 .75 1.25 1 .5.75.25.5 4.75 14.5z"
            class="neutral2"
            fill="#808082"
          ></path>
          <path
            d="M9.003 10h-.75V9h14.75l.5.25.25.25v.5H9.003"
            class="secondary"
            fill="#FFDE00"
          ></path>
          <path
            d="M9.003 23.5h-5l-.5.25-.25.5v2.25h-1.25v3.25l.25.75.5.25h5.5l.75.25.75.5.5.5.5.75.5 1v3h13.75V32.5h-4l-8.5-6-.5-.25-1-.25h-2z"
            class="primary"
            fill="#367C2B"
          ></path>
          <path
            d="m25.003 36.75 8.5-7.5V29h-4.5l-1.25.25-1 .5-1 1-.5.75-.25 1z"
            class="neutral2"
            fill="#808082"
          ></path>
          <path
            d="m25.003 36.75 8.5-7.5V29h-4.5l-1.25.25-1 .5-1 1-.5.75-.25 1z"
            class="shadow"
            fill="#353535"
            opacity=".3"
          ></path>
          <path
            d="M2.003 32.75v-3l.25.75.5.25h.25l.75.5v.5l-.5.5-.5.5zM20.753 21.25l2.25-2.25.5.5-.75.75-.75.75-.75.75z"
            class="neutral1"
            fill="#2b2b2b"
          ></path>
          <path
            d="m24.753 24-2.75-3 .75-.75 2.75 2.75h2.5l2 5.75h-3v-2.5l-2.25-1zM13.503 24.25l-1-5.25v-.5l.25-.25.5-.25h.5l.25.25.25 1 .75 3.5 3.75-.25.5.25.5.5.25.5v.5z"
            class="neutral1"
            fill="#2b2b2b"
          ></path>
          <path
            d="m17.253 21-.5-.25h-2.25v.5h2.25l.5.25.25.5.25.75h.5l-.25-.75-.25-.5zM3.253 25h-1.25v-1l.25-.5.5-.5.5-.25h4.25V21h-.5l-.5-.25-.5-.5-.25-.5V18.5l.25-.5.5-.5.5-.25h1.25l.5.25.25.25v5.75h-5l-.5.25-.25.5z"
            class="neutral1"
            fill="#2b2b2b"
          ></path>
          <path
            d="M9.003 26v5l.5.5V26zM25.003 32.5h-14.5l.75 1.25v3h13.75z"
            class="shadow"
            fill="#353535"
            opacity=".3"
          ></path>
          <path
            d="m11.253 36.75-8.25-6h5.25l.75.25.75.5.5.5.5.75.5 1z"
            class="neutral2"
            fill="#808082"
          ></path>
          <path
            d="m11.253 36.75-8.25-6h5.25l.75.25.75.5.5.5.5.75.5 1z"
            class="shadow"
            fill="#353535"
            opacity=".3"
          ></path>
          <path
            d="M3.253 24.25h5.75v-.75h-5l-.5.25z"
            class="highlight"
            fill="#fefeff"
            opacity=".31"
          ></path>
          <circle
            cx="10.378"
            cy="26.875"
            r=".375"
            class="neutral2"
            fill="#808082"
          ></circle>
          <circle
            cx="10.378"
            cy="30.625"
            r=".375"
            class="neutral2"
            fill="#808082"
          ></circle>
          <circle
            cx="18.378"
            cy="31.625"
            r=".375"
            class="neutral2"
            fill="#808082"
          ></circle>
          <circle
            cx="6.173"
            cy="35.5"
            r="3.75"
            class="neutral1"
            fill="#2b2b2b"
          ></circle>
          <circle
            cx="6.173"
            cy="35.5"
            r="1.974"
            class="secondary"
            fill="#FFDE00"
          ></circle>
          <circle
            cx="6.173"
            cy="35.5"
            r="1.579"
            class="st0"
            opacity=".3"
          ></circle>
          <circle
            cx="6.173"
            cy="35.5"
            r=".789"
            class="st0"
            opacity=".3"
          ></circle>
          <path
            d="m12.003 24.25-.25.5h8l.75.25.25.5v3.25l.5-.75v-2.5l-.25-.75-.25-.25-.75-.25z"
            class="shadow"
            fill="#353535"
            opacity=".3"
          ></path>
          <path d="m21.253 28-.5.75h6.25V28z" class="st1" fill="#353535"></path>
          <path
            d="M8.253 9v.5h15.5l-.25-.25-.5-.25z"
            class="highlight"
            fill="#fefeff"
            opacity=".31"
          ></path>
          <path
            d="M33.503 13.75h2V37h-2z"
            class="primary"
            fill="#367C2B"
          ></path>
          <path
            d="M33.503 13.75h2V37h-2z"
            class="shadow"
            fill="#353535"
            opacity=".3"
          ></path>
          <path
            d="M30.753 13.75h4.75v-3h-3l-.75.5-.75.75-.25.75z"
            class="primary"
            fill="#367C2B"
          ></path>
          <path
            d="M31.503 13.75h.75V28h-.75zM32.503 13.75h.75V28h-.75z"
            class="neutral1"
            fill="#2b2b2b"
          ></path>
          <path
            d="m31.003 25.75 3-1.5v.5l-2.75 1.5z"
            class="neutral2"
            fill="#808082"
          ></path>
          <path
            d="m30.003 25.75 1-.25.25.75-1 1-.5-1.25z"
            class="neutral1"
            fill="#2b2b2b"
          ></path>
          <path
            d="M35.503 38.5h2V25.25l-.25-.25h-1.5l-.25.25zM37.503 38.5h8.5v-.75l-8.5-1z"
            class="neutral2"
            fill="#808082"
          ></path>
          <circle
            cx="30.253"
            cy="34.5"
            r="4.75"
            class="neutral1"
            fill="#2b2b2b"
          ></circle>
          <circle
            cx="30.253"
            cy="34.5"
            r="2.5"
            class="secondary"
            fill="#FFDE00"
          ></circle>
          <circle cx="30.253" cy="34.5" r="2" class="st0" opacity=".3"></circle>
          <circle cx="30.253" cy="34.5" r="1" class="st0" opacity=".3"></circle>
        </g></svg>
