<svg xmlns="http://www.w3.org/2000/svg"
        class="css-9txd9r"
        focusable="false"
        viewBox="0 0 48 48"
        data-icon-name="Grader"
      >
        <path
          id="Grader__outline"
          d="M48 22.25a2 2 0 0 0-2-2h-.281a2 2 0 0 0-.724-.235A2 2 0 0 0 44 19.75h-.5c-.342 0-.674.087-.968.25h-.192l-4.679-1.638A2 2 0 0 0 37 18.25h-.097l.529-1.985a2 2 0 0 0-1.3-2.413l-.75-.25a1.99 1.99 0 0 0-1.553.122c-.48.249-.839.682-.994 1.2l-.847 2.825h-.737c-.507 0-.97.189-1.323.5h-.427v-3a2 2 0 0 0-2-2h-.281a2 2 0 0 0-.336-.147l-.75-.25a2 2 0 0 0-.632-.103h-7.018c-.346-.598-.992-1-1.732-1h-.75a2 2 0 0 0-1.968 1.642c-.33.357-.532.834-.532 1.358v.016a2 2 0 0 0-1.164.57l-.25.25a2 2 0 0 0-.149.166 2 2 0 0 0-.148-.397l-.25-.5a2 2 0 0 0-.894-.894l-.5-.25a2 2 0 0 0-.894-.211h-.5a2 2 0 0 0-1.789 2.895l.08.159a2 2 0 0 0-1.33 1.052l-.059.117-2.533.563-1.446.24a2 2 0 0 0-1.673 1.973v7q0 .324.103.632l.5 1.501c.098.295.264.562.483.782l.5.5c.309.309.71.507 1.138.567a5.83 5.83 0 0 0 5.368 3.519 5.88 5.88 0 0 0 4.374-1.968 5.88 5.88 0 0 0 4.374 1.968 5.88 5.88 0 0 0 5.494-3.794q.202.044.417.044h.5q.328-.001.625-.1.297.099.625.1h.5q.209 0 .406-.041a2 2 0 0 0 1.594.791h.68l.406.609c.193.29.458.524.77.679l.5.25.21.105q.146.15.325.27l.75.5c.308.205.666.321 1.035.335a2 2 0 0 0 1.324.501h.5a2 2 0 0 0 1.414-3.415l-.36-.36-.054-.081v-.422l.039-.078.25-.5q.09-.182.142-.374l.463-.232c.26-.13.487-.314.667-.539h.19a5.88 5.88 0 0 0 5.874 5.75 5.88 5.88 0 0 0 5.875-5.875q0-.195-.016-.374.015-.123.016-.251v-6.25Z"
          class="outline"
          fill="#fff"
        ></path>
        <g id="Grader__icon">
          <path
            d="M7.75 19 9 18.844l.75-.094H11v.5h.5v-1H9.75l-.75.083-1.5.167-.25.5v.417l.5-.111z"
            class="neutral1"
            fill="#2b2b2b"
          ></path>
          <path
            d="M23.25 25.25h1.25v.25h-1.25zM19.75 26.5h-3.5v-5.75h-2.5l-.75-1H8l-4.5 1V26H2v1.249h14.25v.251H2l.5 1.5.5.5h7.25v1.25h5V29.5h5.25v-.938l.25.438 2-.833V26.5zM10 23.625v-.75h1v.75zm4.25-1.375h1V23h-1zM24 27.5h-.75v.458l.5-.208zM24.5 26.5V26h-1.25v1h1.25zM44.75 22.25V22h-.5l-.25-.25h-.5l-.25.25h-3L37 21l-1.25.75h-1.5V21h-.15l-.467 1.75h2.411L39 24.5v4h7v-6.25zm-2.5 2.5a.25.25 0 1 1 0-.5.25.25 0 0 1 0 .5m0-1a.25.25 0 1 1 0-.5.25.25 0 0 1 0 .5m0-1a.25.25 0 1 1 0-.5.25.25 0 0 1 0 .5m1.5 0a.25.25 0 1 1 0-.5.25.25 0 0 1 0 .5"
            class="primary"
            fill="#F2A900"
          ></path>
          <path
            d="M28 21.5h.75v-1l-3.25-1-.5 5.25z"
            class="secondary"
            fill="#808082"
          ></path>
          <path
            d="M28.25 21.75h1v-.769l-.5.019v.5H28l-3 3.25h.5v.5H25v1.25l2.75-2.75.5-.5z"
            class="primary"
            fill="#F2A900"
          ></path>
          <path
            d="M32.5 26H31v.25h1l.5 1h-2l-.5.25-.5.25h-1.75l-1 1.25v.25L27 30h2l.25.75.5.75.5.25.5.25h.5l.5-.25V31l-.25-.25H31l-.5-.25-.25-.25V29l.25-.5.5-.25h3l.5-.25.25-.5v-.25H39V26zm-4.75 3.25a.25.25 0 1 1 0-.5.25.25 0 0 1 0 .5m3.5 1.75a.25.25 0 1 1 0 .5.25.25 0 0 1 0-.5"
            class="secondary"
            fill="#808082"
          ></path>
          <path
            d="M33.1 21h-2.6v1.75h2.075z"
            class="primary"
            fill="#F2A900"
          ></path>
          <path
            d="M34.25 21v.75h1.5L37 21l3.25 1H42l-5-1.75h-2.7l-.2.75zM31 22.75h-.5V21h2.6l.225-.75H32.5v-.5h-1.25v.5h-2v1.5h-1v1.5l-.5.5v.5h2l.308-.37z"
            class="secondary"
            fill="#808082"
          ></path>
          <path
            d="M32.661 23.04 31.75 26h.75l.706-2.824z"
            class="neutral2"
            fill="#808082"
          ></path>
          <path
            d="m32.5 27.25-.5-1h-1V26l-.942-2.12-.308.37 1 2.5-.25.5zm-1-.75a.25.25 0 1 1 0 .5.25.25 0 0 1 0-.5"
            class="neutral2"
            fill="#808082"
          ></path>
          <circle
            cx="31.5"
            cy="26.75"
            r=".25"
            class="neutral1"
            fill="#2b2b2b"
          ></circle>
          <circle
            cx="43.75"
            cy="22.5"
            r=".25"
            class="neutral2"
            fill="#808082"
          ></circle>
          <circle
            cx="42.25"
            cy="22.5"
            r=".25"
            class="neutral2"
            fill="#808082"
          ></circle>
          <circle
            cx="42.25"
            cy="23.5"
            r=".25"
            class="neutral2"
            fill="#808082"
          ></circle>
          <circle
            cx="42.25"
            cy="24.5"
            r=".25"
            class="neutral2"
            fill="#808082"
          ></circle>
          <circle
            cx="27.75"
            cy="29"
            r=".25"
            class="neutral2"
            fill="#808082"
          ></circle>
          <circle
            cx="31.25"
            cy="31.25"
            r=".25"
            class="neutral2"
            fill="#808082"
          ></circle>
          <path
            d="m25.5 19.5.5-4h.25v2.75h1.25v-3h-2.25l-.75.25H17V17h.75v7.75H25zM21.75 16H25l.25.243-.291 4.507H21.5v-4.507zM19 16h1.75l.25.243V19.5h-2.25v-3.257zm1.75 8.243H19L18.75 24v-4H21v4zm3.75 0h-2.75L21.5 24v-2.75h3.427L24.75 24z"
            class="neutral1"
            fill="#2b2b2b"
          ></path>
          <path
            d="m24.5 15.5.75-.25h1V15l-.75-.25H17l-1.25.5V17H17v-1.5z"
            class="primary"
            fill="#F2A900"
          ></path>
          <path
            d="M18.75 20v4l.25.243h1.75L21 24v-4zM21 19.5v-3.257L20.75 16H19l-.25.243V19.5zM24.959 20.75l.291-4.507L25 16h-3.25l-.25.243v4.507zM21.5 21.25V24l.25.243h2.75l.25-.243.177-2.75z"
            class="window"
            fill="#bbe3f3"
          ></path>
          <path
            d="m9.75 18.75-.75.094v.406h1.5v-.5zM10.5 18.25v-.5l-.25-.25H10v-1.25l-.25-.5-.5-.25h-.5L9 16h.25l.25.25v1.25h-.25l-.25.25v.583l.75-.083zM25.5 25.25v-.5h-7.75l-.5.5h5.5v4h.5v-4h1.25v4h.5v-4z"
            class="neutral2"
            fill="#808082"
          ></path>
          <path
            d="M23.25 25.5h1.25v.5h-1.25z"
            class="primary"
            fill="#F2A900"
          ></path>
          <path
            d="M23.25 25.5h1.25v.5h-1.25z"
            class="shadow"
            fill="#353535"
            opacity=".3"
          ></path>
          <path
            d="M24.5 27.5V27h-1.25v.5h1.25"
            class="primary"
            fill="#F2A900"
          ></path>
          <path
            d="M24.5 27.5V27h-1.25v.5h1.25"
            class="shadow"
            fill="#353535"
            opacity=".3"
          ></path>
          <path
            d="M23.25 28.5h1.25v.5h-1.25z"
            class="primary"
            fill="#F2A900"
          ></path>
          <path
            d="M23.25 28.5h1.25v.5h-1.25z"
            class="shadow"
            fill="#353535"
            opacity=".3"
          ></path>
          <path
            d="m3.5 20.75 4.5-1h5l.75 1h2.5v5.75h6.5v-1.25h-5.5V20l-.75-.75H8l-.25.056-.5.111-3.75.833-1.5.249V26h1.5z"
            class="secondary"
            fill="#808082"
          ></path>
          <path
            d="M12.5 18.75H14v.5h.75v-.5h.75v.5h.5v-1h-1.25V18h.5v-1l-.25-.25h-1.25l-.25.25v1h.5v.25h-2v1h.5zM17 14.75v-.25h-1.25v.25h-.25v1h.25v-.5z"
            class="neutral1"
            fill="#2b2b2b"
          ></path>
          <path d="M16 13.75h.75v.75H16z" class="accent2" fill="#f5911e"></path>
          <path
            d="M14.25 22.25h1V23h-1zM10 22.875h1v.75h-1z"
            class="neutral2"
            fill="#808082"
          ></path>
          <path
            d="M2 27.25h14.25v.25H2z"
            class="neutral1"
            fill="#2b2b2b"
          ></path>
          <path
            d="m33 32.75-.5-.75v-1.5l.25-.5.25-.5h-.5l-.125.25H32l-.5.25-.5.5v.25h.5l.25.25v.75l-.5.25H31v.25l.75.5h.75l.5.5h.5z"
            class="primary"
            fill="#F2A900"
          ></path>
          <path
            d="M32 30.5V32l.5.75.5.5h.5l-.5-.5-.5-.75v-1.5l.25-.5.25-.5h-.5l-.125.25-.125.25z"
            class="highlight"
            fill="#fefeff"
            opacity=".31"
          ></path>
          <path
            d="M9.25 19.75h.25v4.5h-.25zM13.75 20.75H14v5h-.25zM8.75 24H7.5v-3.5l1.25-.25zM7.25 24h-2.5v-3l2.5-.5zM3.5 24.25h10.25v.25H3.5zM5.75 24.5H6v1.25h-.25zM3.5 25.75h12.75V26H3.5zM2 27.499 2.5 29l.5.5h13.25v-2zM10.75 29.5H14v1.25h-3.25z"
            class="shadow"
            fill="#353535"
            opacity=".3"
          ></path>
          <path
            d="M10.75 29.5H14v1.25h-3.25z"
            class="shadow"
            fill="#353535"
            opacity=".3"
          ></path>
          <path
            d="M41 22h.75v4H41zM45.5 22.25h.5v6.25h-.5z"
            class="highlight"
            fill="#fefeff"
            opacity=".31"
          ></path>
          <circle
            cx="42.125"
            cy="29.125"
            r="3.875"
            class="neutral1"
            fill="#2b2b2b"
          ></circle>
          <circle
            cx="42.125"
            cy="29.125"
            r="2.507"
            class="primary"
            fill="#F2A900"
          ></circle>
          <circle
            cx="42.125"
            cy="29.125"
            r="1.672"
            class="shadow"
            fill="#353535"
            opacity=".3"
          ></circle>
          <circle
            cx="42.125"
            cy="29.125"
            r="1.14"
            class="primary"
            fill="#F2A900"
          ></circle>
          <circle
            cx="16.839"
            cy="29.125"
            r="3.875"
            class="neutral1"
            fill="#2b2b2b"
          ></circle>
          <circle
            cx="16.839"
            cy="29.125"
            r="2.507"
            class="primary"
            fill="#F2A900"
          ></circle>
          <circle
            cx="16.839"
            cy="29.125"
            r="1.672"
            class="shadow"
            fill="#353535"
            opacity=".3"
          ></circle>
          <circle
            cx="16.839"
            cy="29.125"
            r="1.14"
            class="primary"
            fill="#F2A900"
          ></circle>
          <circle
            cx="8.092"
            cy="29.125"
            r="3.875"
            class="neutral1"
            fill="#2b2b2b"
          ></circle>
          <circle
            cx="8.092"
            cy="29.125"
            r="2.507"
            class="primary"
            fill="#F2A900"
          ></circle>
          <circle
            cx="8.092"
            cy="29.125"
            r="1.672"
            class="shadow"
            fill="#353535"
            opacity=".3"
          ></circle>
          <circle
            cx="8.092"
            cy="29.125"
            r="1.14"
            class="primary"
            fill="#F2A900"
          ></circle>
          <path
            d="M2 26h1.5v-5.25L2 20.499zM29.25 20.25H37V21h-7.75z"
            class="neutral1"
            fill="#2b2b2b"
          ></path>
          <path
            d="M32.575 22.75 32.5 23l.161.04.545.136.294.074.133-.5L34.1 21l.2-.75 1.2-4.5-.75-.25-1.425 4.75-.225.75zM37 20.25V21l3.25 1H42zM31.25 19.75h1.25v.5h-1.25z"
            class="neutral1"
            fill="#2b2b2b"
          ></path>
        </g></svg>
