<svg xmlns="http://www.w3.org/2000/svg"
        class="css-9txd9r"
        focusable="false"
        viewBox="0 0 48 48"
        data-icon-name="HarvestingUnit"
      >
        <path
          id="HarvestingUnit__outline"
          d="m46.632 35.103-5.815-1.938a2 2 0 0 0-1.16-1.053l-.679-.236.679-.236a2 2 0 0 0-.024-3.786l-6-2a2 2 0 0 0-.632-.103h-.014l-.447-.894a2 2 0 0 0-1.789-1.106h-2a2 2 0 0 0-2-2h-2.69l1.468-4.038 5.822-7.762a2 2 0 0 0-.186-2.614l-1-1a2 2 0 0 0-1.414-.586l-.077.001a2 2 0 0 0-1.442.697l-5.401 6.302H7.692l-.294-.882a2 2 0 0 0-1.897-1.368h-3.5a2 2 0 0 0-1.89 2.652l2.482 7.199 1.448 5.067.231 1.615.23 1.841v1.751l-.225 1.804-.45 2.248-.932 2.329a2 2 0 0 0 .694 2.37l1.75 1.25c.294.21.64.336 1 .366l12.25 1q.08.006.163.007h11.25q.1 0 .199-.01l10-1q.065-.006.13-.017l6-1A2 2 0 0 0 48.002 38v-1a2 2 0 0 0-1.368-1.897ZM18.895 18.75l-2.694 7.408-1.072.357-1.019-.68a2 2 0 0 0-.161-.097l-2.507-1.35-1.27-4.443 1.391-.618c.298-.133.553-.333.749-.578z"
          class="outline"
          fill="#fff"
        ></path>
        <g id="HarvestingUnit__icon">
          <path
            d="M13.75 29.25 17.5 28h1.25l1-2H30.5l1 2h1.25l6 2L33 32v.25l5.75 2L33.5 36l-2-.5-3-.65-2-.45-3-.69-2-.46h-1z"
            class="secondary"
            fill="#FFDE00"
          ></path>
          <path
            d="m33 32 5.75-2-5 1.25V29l5 1-6-2H31.5l-1-2H19.75l-1 2H17.5l-3.75 1.25 6.75 4h1l2 .46v-.53h3v1.22l2 .45v-1.6h3v2.25h-.18l2.18.5 5.25-1.75-5 1v-2l5 1-5.75-2zm-11.5-.75h-3V29h3zm5 0h-3V29h3zm5 0h-3V29h3z"
            class="shadow"
            fill="#353535"
            opacity=".3"
          ></path>
          <path
            d="m19.75 26-1 2H31.5l-1-2z"
            class="highlight"
            fill="#fefeff"
            opacity=".31"
          ></path>
          <path
            d="M17.5 31.75H33v.75H17.5z"
            class="shadow"
            fill="#353535"
            opacity=".3"
          ></path>
          <path
            d="M1.75 12.75 4.25 20l1.5 5.25L6 27l.25 2v2L6 33l-.5 2.5 1 .75 13 2h1l17.25 1h2l6-1v-1l-6-2-1 1h-1l-16.25-3h-1l-4.75-3.5-3-2L9.5 26l-2-7 .75-.25 2.25-1V15H6l-.75-2.25z"
            class="secondary"
            fill="#FFDE00"
          ></path>
          <path
            d="m5.5 35.5-1 2.5 1.75 1.25 12.25 1h11.25l10-1h-2l-17.25-1h-1l-13-2z"
            class="neutral1"
            fill="#2b2b2b"
          ></path>
          <path
            d="M38.75 36.25v1l1-1 6 2v-1l-6-2z"
            class="highlight"
            fill="#fefeff"
            opacity=".31"
          ></path>
          <path
            d="M37.75 36.25v3l1-2v-1z"
            class="shadow"
            fill="#353535"
            opacity=".3"
          ></path>
          <path
            d="M37.75 36.25v1l-16.25-3h-1v-1h1z"
            class="highlight"
            fill="#fefeff"
            opacity=".31"
          ></path>
          <path
            d="M21.5 34.25h-1v2l-1 2h1l1-2z"
            class="shadow"
            fill="#353535"
            opacity=".3"
          ></path>
          <circle
            cx="18.5"
            cy="36.25"
            r="1"
            class="neutral2"
            fill="#808082"
          ></circle>
          <path
            d="M20.5 34.25h-1l-4.5-3.5-2.75-2L10 27.538 9 27l.5-1 3.25 1.75 3 2 4.75 3.5z"
            class="highlight"
            fill="#fefeff"
            opacity=".31"
          ></path>
          <path
            d="M20.5 34.25h-1l-4.5-3.5-2.75-2L10 27.538 9 27l.5-1 3.25 1.75 3 2 4.75 3.5z"
            class="highlight"
            fill="#fefeff"
            opacity=".31"
          ></path>
          <path
            d="m9 27 1 .538L7.75 35l12 2.75-.25.5-13-2z"
            class="shadow"
            fill="#353535"
            opacity=".3"
          ></path>
          <path
            d="M6.5 36 9 27l.5-1-2-7L6 15l1 4.25L8.5 26z"
            class="highlight"
            fill="#fefeff"
            opacity=".31"
          ></path>
          <path
            d="m6 15 1.5 4 .75-.25 2.25-1V17l-2.55 1-1.2-3z"
            class="shadow"
            fill="#353535"
            opacity=".3"
          ></path>
          <path
            d="M23.5 24h3v2h-3zM29.5 9l-6 8-4 11h-2l4-11h-11v-2h12l6-7z"
            class="neutral1"
            fill="#2b2b2b"
          ></path>
        </g></svg>
