<svg xmlns="http://www.w3.org/2000/svg"
      class="css-9txd9r"
      focusable="false"
      viewBox="0 0 48 48"
      data-icon-name="HayWheelRake"
      size="65"
    >
      <path
        id="HayWheelRake__outline"
        d="M46 21.275h-3.172l-.164-.164a2 2 0 0 0-.164-.147v-1.439a2 2 0 0 0-2-2h-.404a2 2 0 0 0-1.144-.912c.002-.034.011-.065.011-.1a2 2 0 0 0-1.956-2h-.048c-.033 0-.067.007-.1.008A1.99 1.99 0 0 0 35 13.109h-.045q-.05 0-.1.003c-.24.012-.461.078-.672.166a1.99 1.99 0 0 0-1.511-.801l-.085-.002q-.163 0-.324.026c-.328.054-.63.187-.884.38-.052.039-.084.1-.131.144a2 2 0 0 0-1.349-.321 2 2 0 0 0-1.523 1.073 1.984 1.984 0 0 0-2.121.858 2 2 0 0 0-.624-.122h-.048c-.033 0-.067.007-.1.008a1.99 1.99 0 0 0-1.859-1.412h-.045q-.05 0-.1.003c-.24.012-.461.078-.672.166a1.99 1.99 0 0 0-1.511-.801l-.085-.002q-.163 0-.324.026c-.328.054-.63.187-.884.38-.052.039-.084.1-.131.144a2 2 0 0 0-1.349-.321A2 2 0 0 0 17 13.777a1.984 1.984 0 0 0-2.121.858 2 2 0 0 0-.624-.122h-.048c-.033 0-.067.007-.1.008a1.99 1.99 0 0 0-1.859-1.412h-.045q-.05 0-.1.003c-.24.012-.461.078-.672.166a1.99 1.99 0 0 0-1.511-.801l-.085-.002q-.164 0-.324.026c-.328.054-.63.187-.884.38-.052.039-.084.1-.131.144a2 2 0 0 0-1.349-.321 2 2 0 0 0-1.523 1.073 1.984 1.984 0 0 0-1.36.167 2 2 0 0 0-1.065 1.536 2 2 0 0 0-1.221.615 2 2 0 0 0-.52 1.512 1.995 1.995 0 0 0-1.462 1.917v1.5c0 .315.091.601.221.866-.005.042-.016.082-.018.125a2 2 0 0 0 .02.388 1.96 1.96 0 0 0-.223.87v2c0 .747.41 1.399 1.018 1.742a5.34 5.34 0 0 0-1.018 3.133 5.38 5.38 0 0 0 5.375 5.375c2.918 0 5.288-2.34 5.361-5.24a2 2 0 0 0 .564.01 2 2 0 0 0 1.523-1.073q.221.052.448.054a1.98 1.98 0 0 0 1.676-.917c.215.076.439.128.668.128.032 0 .064-.011.096-.012a1.99 1.99 0 0 0 1.908 1.417c.266 0 .529-.058.775-.162a2 2 0 0 0 1.593.795c.508 0 .977-.212 1.342-.549a2 2 0 0 0 1.346.319 2 2 0 0 0 1.523-1.073q.221.053.448.054a1.98 1.98 0 0 0 1.676-.917c.215.076.439.128.668.128.032 0 .064-.011.096-.012a1.99 1.99 0 0 0 1.908 1.417c.266 0 .529-.058.775-.162a2 2 0 0 0 1.593.795c.508 0 .977-.212 1.342-.549q.255.169.553.254c.044 2.926 2.431 5.295 5.367 5.295a5.38 5.38 0 0 0 5.375-5.375c0-.795-.183-1.58-.527-2.297q.027-.163.027-.328v-.25h2.5a2 2 0 0 0 2-2v-2a2 2 0 0 0-2-2Z"
        class="outline"
        fill="#fff"
      ></path>
      <g id="HayWheelRake__icon">
        <circle
          cx="38.625"
          cy="30.15"
          r="3.375"
          class="neutral1"
          fill="#2b2b2b"
        ></circle>
        <circle
          cx="38.625"
          cy="30.15"
          r="1.776"
          class="secondary"
          fill="#FFDE00"
        ></circle>
        <circle
          cx="38.625"
          cy="30.15"
          r="1.125"
          class="shadow"
          fill="#353535"
          opacity=".3"
        ></circle>
        <path d="M2 19.525h38.5v1.5H2z" class="primary" fill="#367C2B"></path>
        <path
          d="M2 19.525h38.5v1.5H2z"
          class="shadow"
          fill="#353535"
          opacity=".3"
        ></path>
        <path
          d="M2 20.275h37.25v.75H2z"
          class="shadow"
          fill="#353535"
          opacity=".3"
        ></path>
        <circle
          cx="20.526"
          cy="21.548"
          r="4.334"
          class="primary"
          fill="#367C2B"
        ></circle>
        <circle
          cx="20.526"
          cy="21.548"
          r="3.715"
          class="neutral1"
          fill="#2b2b2b"
        ></circle>
        <path
          d="M20.775 21.548h-.5v-3.932l-1.751-.876v-2.051h.5v1.743l1.751.876z"
          class="primary"
          fill="#367C2B"
        ></path>
        <path
          d="m20.312 21.656-1.344-3.695-1.946-.224-.703-1.927.471-.171.596 1.637 1.945.224 1.451 3.985z"
          class="primary"
          fill="#367C2B"
        ></path>
        <path
          d="m20.383 21.746-2.528-3.012-1.904.455-1.319-1.572.383-.322 1.12 1.335 1.904-.455 2.727 3.249z"
          class="primary"
          fill="#367C2B"
        ></path>
        <path
          d="m20.479 21.805-3.405-1.966-1.634 1.079-1.777-1.026.25-.433 1.51.872 1.634-1.08 3.672 2.122z"
          class="primary"
          fill="#367C2B"
        ></path>
        <path
          d="m15.553 22.718-2.021-.356.086-.492 1.718.302 1.166-1.573 4.176.737-.086.492-3.873-.683z"
          class="primary"
          fill="#367C2B"
        ></path>
        <path
          d="m14.253 24.727-.086-.492 1.716-.303.558-1.876 4.177-.737.086.492-3.872.683-.559 1.877z"
          class="primary"
          fill="#367C2B"
        ></path>
        <path
          d="m15.739 26.704-.25-.433 1.51-.873-.117-1.954 3.673-2.12.25.433-3.406 1.966.118 1.955z"
          class="primary"
          fill="#367C2B"
        ></path>
        <path
          d="m17.812 28.053-.382-.323 1.12-1.334-.779-1.797 2.726-3.249.383.321-2.527 3.013.779 1.795z"
          class="primary"
          fill="#367C2B"
        ></path>
        <path
          d="m20.222 28.611-.471-.172.597-1.637-1.347-1.422 1.45-3.985.471.17-1.345 3.696 1.347 1.422z"
          class="primary"
          fill="#367C2B"
        ></path>
        <path
          d="M22.676 28.312h-.5v-1.744l-1.751-.876v-4.24h.5v3.932l1.751.876z"
          class="primary"
          fill="#367C2B"
        ></path>
        <path
          d="m24.41 27.361-.595-1.637-1.945-.224-1.452-3.985.471-.171 1.344 3.695 1.946.224.702 1.928z"
          class="primary"
          fill="#367C2B"
        ></path>
        <path
          d="m26.186 25.705-1.121-1.335-1.904.455-2.726-3.249.382-.322 2.528 3.012 1.904-.455 1.319 1.572z"
          class="primary"
          fill="#367C2B"
        ></path>
        <path
          d="m24.144 23.749-3.673-2.122.25-.432 3.405 1.966 1.634-1.079 1.777 1.026-.25.433-1.51-.872z"
          class="primary"
          fill="#367C2B"
        ></path>
        <path
          d="m24.698 22.401-4.176-.737.086-.492 3.873.683 1.167-1.573 2.02.356-.086.492-1.717-.302z"
          class="primary"
          fill="#367C2B"
        ></path>
        <path
          d="m20.583 21.681-.086-.492 3.872-.683.558-1.877 2.021-.356.086.492-1.717.303-.557 1.876z"
          class="primary"
          fill="#367C2B"
        ></path>
        <path
          d="m20.646 21.676-.25-.433 3.406-1.966-.118-1.954 1.777-1.026.25.432-1.51.872.118 1.955z"
          class="primary"
          fill="#367C2B"
        ></path>
        <path
          d="m20.703 21.65-.383-.321 2.528-3.013-.779-1.796 1.319-1.572.383.321-1.12 1.335.779 1.797z"
          class="primary"
          fill="#367C2B"
        ></path>
        <path
          d="m20.749 21.605-.471-.17 1.345-3.696-1.346-1.422.702-1.927.47.171-.595 1.637 1.345 1.422z"
          class="primary"
          fill="#367C2B"
        ></path>
        <circle
          cx="20.526"
          cy="21.548"
          r="1.651"
          class="primary"
          fill="#367C2B"
        ></circle>
        <circle
          cx="20.526"
          cy="21.548"
          r="1.445"
          class="shadow"
          fill="#353535"
          opacity=".3"
        ></circle>
        <circle
          cx="20.526"
          cy="21.548"
          r="1.238"
          class="primary"
          fill="#367C2B"
        ></circle>
        <circle
          cx="20.526"
          cy="21.548"
          r=".413"
          class="highlight"
          fill="#fefeff"
          opacity=".31"
        ></circle>
        <circle
          cx="20.526"
          cy="20.723"
          r=".206"
          class="highlight"
          fill="#fefeff"
          opacity=".31"
        ></circle>
        <circle
          cx="21.351"
          cy="21.548"
          r=".206"
          class="highlight"
          fill="#fefeff"
          opacity=".31"
        ></circle>
        <circle
          cx="21.145"
          cy="20.929"
          r=".206"
          class="highlight"
          fill="#fefeff"
          opacity=".31"
        ></circle>
        <circle
          cx="19.906"
          cy="20.929"
          r=".206"
          class="highlight"
          fill="#fefeff"
          opacity=".31"
        ></circle>
        <circle
          cx="21.145"
          cy="22.168"
          r=".206"
          class="highlight"
          fill="#fefeff"
          opacity=".31"
        ></circle>
        <circle
          cx="19.906"
          cy="22.168"
          r=".206"
          class="highlight"
          fill="#fefeff"
          opacity=".31"
        ></circle>
        <circle
          cx="19.7"
          cy="21.548"
          r=".206"
          class="highlight"
          fill="#fefeff"
          opacity=".31"
        ></circle>
        <circle
          cx="20.526"
          cy="22.374"
          r=".206"
          class="highlight"
          fill="#fefeff"
          opacity=".31"
        ></circle>
        <circle
          cx="31.901"
          cy="21.548"
          r="4.334"
          class="primary"
          fill="#367C2B"
        ></circle>
        <circle
          cx="31.901"
          cy="21.548"
          r="3.715"
          class="neutral1"
          fill="#2b2b2b"
        ></circle>
        <path
          d="M32.15 21.548h-.5v-3.932l-1.751-.876v-2.051h.5v1.743l1.751.876z"
          class="primary"
          fill="#367C2B"
        ></path>
        <path
          d="m31.687 21.656-1.344-3.695-1.946-.224-.703-1.927.471-.171.596 1.637 1.945.224 1.451 3.985z"
          class="primary"
          fill="#367C2B"
        ></path>
        <path
          d="m31.758 21.746-2.528-3.012-1.904.455-1.319-1.572.383-.322 1.12 1.335 1.904-.455 2.727 3.249z"
          class="primary"
          fill="#367C2B"
        ></path>
        <path
          d="m31.854 21.805-3.405-1.966-1.634 1.079-1.777-1.026.25-.433 1.51.872 1.634-1.08 3.672 2.122z"
          class="primary"
          fill="#367C2B"
        ></path>
        <path
          d="m26.928 22.718-2.021-.356.086-.492 1.718.302 1.166-1.573 4.176.737-.086.492-3.873-.683z"
          class="primary"
          fill="#367C2B"
        ></path>
        <path
          d="m25.628 24.727-.086-.492 1.716-.303.558-1.876 4.177-.737.086.492-3.872.683-.559 1.877z"
          class="primary"
          fill="#367C2B"
        ></path>
        <path
          d="m27.114 26.704-.25-.433 1.51-.873-.117-1.954 3.673-2.12.25.433-3.406 1.966.118 1.955z"
          class="primary"
          fill="#367C2B"
        ></path>
        <path
          d="m29.187 28.053-.382-.323 1.12-1.334-.779-1.797 2.726-3.249.383.321-2.527 3.013.779 1.795z"
          class="primary"
          fill="#367C2B"
        ></path>
        <path
          d="m31.597 28.611-.471-.172.597-1.637-1.347-1.422 1.45-3.985.471.17-1.345 3.696 1.347 1.422z"
          class="primary"
          fill="#367C2B"
        ></path>
        <path
          d="M34.051 28.312h-.5v-1.744l-1.751-.876v-4.24h.5v3.932l1.751.876z"
          class="primary"
          fill="#367C2B"
        ></path>
        <path
          d="m35.785 27.361-.595-1.637-1.945-.224-1.452-3.985.471-.171 1.344 3.695 1.946.224.702 1.928z"
          class="primary"
          fill="#367C2B"
        ></path>
        <path
          d="M37.561 25.705 36.44 24.37l-1.904.455-2.726-3.249.382-.322 2.528 3.012 1.904-.455 1.319 1.572z"
          class="primary"
          fill="#367C2B"
        ></path>
        <path
          d="m35.519 23.749-3.673-2.122.25-.432 3.405 1.966 1.634-1.079 1.777 1.026-.25.433-1.51-.872z"
          class="primary"
          fill="#367C2B"
        ></path>
        <path
          d="m36.073 22.401-4.176-.737.086-.492 3.873.683 1.167-1.573 2.02.356-.086.492-1.717-.302z"
          class="primary"
          fill="#367C2B"
        ></path>
        <path
          d="m31.958 21.681-.086-.492 3.872-.683.558-1.877 2.021-.356.086.492-1.717.303-.557 1.876z"
          class="primary"
          fill="#367C2B"
        ></path>
        <path
          d="m32.021 21.676-.25-.433 3.406-1.966-.118-1.954 1.777-1.026.25.432-1.51.872.118 1.955z"
          class="primary"
          fill="#367C2B"
        ></path>
        <path
          d="m32.078 21.65-.383-.321 2.528-3.013-.779-1.796 1.319-1.572.383.321-1.12 1.335.779 1.797z"
          class="primary"
          fill="#367C2B"
        ></path>
        <path
          d="m32.124 21.605-.471-.17 1.345-3.696-1.346-1.422.702-1.927.47.171-.595 1.637 1.345 1.422z"
          class="primary"
          fill="#367C2B"
        ></path>
        <circle
          cx="31.901"
          cy="21.548"
          r="1.651"
          class="primary"
          fill="#367C2B"
        ></circle>
        <circle
          cx="31.901"
          cy="21.548"
          r="1.445"
          class="shadow"
          fill="#353535"
          opacity=".3"
        ></circle>
        <circle
          cx="31.901"
          cy="21.548"
          r="1.238"
          class="primary"
          fill="#367C2B"
        ></circle>
        <circle
          cx="31.901"
          cy="21.548"
          r=".413"
          class="highlight"
          fill="#fefeff"
          opacity=".31"
        ></circle>
        <circle
          cx="31.901"
          cy="20.723"
          r=".206"
          class="highlight"
          fill="#fefeff"
          opacity=".31"
        ></circle>
        <circle
          cx="32.726"
          cy="21.548"
          r=".206"
          class="highlight"
          fill="#fefeff"
          opacity=".31"
        ></circle>
        <circle
          cx="32.52"
          cy="20.929"
          r=".206"
          class="highlight"
          fill="#fefeff"
          opacity=".31"
        ></circle>
        <circle
          cx="31.281"
          cy="20.929"
          r=".206"
          class="highlight"
          fill="#fefeff"
          opacity=".31"
        ></circle>
        <circle
          cx="32.52"
          cy="22.168"
          r=".206"
          class="highlight"
          fill="#fefeff"
          opacity=".31"
        ></circle>
        <circle
          cx="31.281"
          cy="22.168"
          r=".206"
          class="highlight"
          fill="#fefeff"
          opacity=".31"
        ></circle>
        <circle
          cx="31.075"
          cy="21.548"
          r=".206"
          class="highlight"
          fill="#fefeff"
          opacity=".31"
        ></circle>
        <circle
          cx="31.901"
          cy="22.374"
          r=".206"
          class="highlight"
          fill="#fefeff"
          opacity=".31"
        ></circle>
        <circle
          cx="9.151"
          cy="21.548"
          r="4.334"
          class="primary"
          fill="#367C2B"
        ></circle>
        <circle
          cx="9.151"
          cy="21.548"
          r="3.715"
          class="neutral1"
          fill="#2b2b2b"
        ></circle>
        <path
          d="M9.4 21.548h-.5v-3.932l-1.751-.876v-2.051h.5v1.743l1.751.876z"
          class="primary"
          fill="#367C2B"
        ></path>
        <path
          d="m8.937 21.656-1.344-3.695-1.946-.224-.703-1.927.471-.171.596 1.637 1.945.224 1.451 3.985z"
          class="primary"
          fill="#367C2B"
        ></path>
        <path
          d="M9.008 21.746 6.48 18.734l-1.904.455-1.319-1.572.383-.322 1.12 1.335 1.904-.455 2.727 3.249z"
          class="primary"
          fill="#367C2B"
        ></path>
        <path
          d="m9.104 21.805-3.405-1.966-1.634 1.079-1.777-1.026.25-.433 1.51.872 1.634-1.08 3.672 2.122z"
          class="primary"
          fill="#367C2B"
        ></path>
        <path
          d="m4.178 22.718-2.021-.356.086-.492 1.718.302 1.166-1.573 4.176.737-.086.492-3.873-.683z"
          class="primary"
          fill="#367C2B"
        ></path>
        <path
          d="m2.878 24.727-.086-.492 1.716-.303.558-1.876 4.177-.737.086.492-3.872.683-.559 1.877z"
          class="primary"
          fill="#367C2B"
        ></path>
        <path
          d="m4.364 26.704-.25-.433 1.51-.873-.117-1.954 3.673-2.12.25.433-3.406 1.966.118 1.955z"
          class="primary"
          fill="#367C2B"
        ></path>
        <path
          d="m6.437 28.053-.382-.323 1.12-1.334-.779-1.797 2.726-3.249.383.321-2.527 3.013.779 1.795z"
          class="primary"
          fill="#367C2B"
        ></path>
        <path
          d="m8.847 28.611-.471-.172.597-1.637-1.347-1.422 1.45-3.985.471.17-1.345 3.696 1.347 1.422z"
          class="primary"
          fill="#367C2B"
        ></path>
        <path
          d="M11.301 28.312h-.5v-1.744l-1.751-.876v-4.24h.5v3.932l1.751.876z"
          class="primary"
          fill="#367C2B"
        ></path>
        <path
          d="m13.035 27.361-.595-1.637-1.945-.224-1.452-3.985.471-.171 1.344 3.695 1.946.224.702 1.928z"
          class="primary"
          fill="#367C2B"
        ></path>
        <path
          d="M14.811 25.705 13.69 24.37l-1.904.455-2.726-3.249.382-.322 2.528 3.012 1.904-.455 1.319 1.572z"
          class="primary"
          fill="#367C2B"
        ></path>
        <path
          d="m12.769 23.749-3.673-2.122.25-.432 3.405 1.966 1.634-1.079 1.777 1.026-.25.433-1.51-.872z"
          class="primary"
          fill="#367C2B"
        ></path>
        <path
          d="m13.323 22.401-4.176-.737.086-.492 3.873.683 1.167-1.573 2.02.356-.086.492-1.717-.302z"
          class="primary"
          fill="#367C2B"
        ></path>
        <path
          d="m9.208 21.681-.086-.492 3.872-.683.558-1.877 2.021-.356.086.492-1.717.303-.557 1.876z"
          class="primary"
          fill="#367C2B"
        ></path>
        <path
          d="m9.271 21.676-.25-.433 3.406-1.966-.118-1.954 1.777-1.026.25.432-1.51.872.118 1.955z"
          class="primary"
          fill="#367C2B"
        ></path>
        <path
          d="m9.328 21.65-.383-.321 2.528-3.013-.779-1.796 1.319-1.572.383.321-1.12 1.335.779 1.797z"
          class="primary"
          fill="#367C2B"
        ></path>
        <path
          d="m9.374 21.605-.471-.17 1.345-3.696-1.346-1.422.702-1.927.47.171-.595 1.637 1.345 1.422z"
          class="primary"
          fill="#367C2B"
        ></path>
        <circle
          cx="9.151"
          cy="21.548"
          r="1.651"
          class="primary"
          fill="#367C2B"
        ></circle>
        <circle
          cx="9.151"
          cy="21.548"
          r="1.445"
          class="shadow"
          fill="#353535"
          opacity=".3"
        ></circle>
        <circle
          cx="9.151"
          cy="21.548"
          r="1.238"
          class="primary"
          fill="#367C2B"
        ></circle>
        <circle
          cx="9.151"
          cy="21.548"
          r=".413"
          class="highlight"
          fill="#fefeff"
          opacity=".31"
        ></circle>
        <circle
          cx="9.151"
          cy="20.723"
          r=".206"
          class="highlight"
          fill="#fefeff"
          opacity=".31"
        ></circle>
        <circle
          cx="9.976"
          cy="21.548"
          r=".206"
          class="highlight"
          fill="#fefeff"
          opacity=".31"
        ></circle>
        <circle
          cx="9.77"
          cy="20.929"
          r=".206"
          class="highlight"
          fill="#fefeff"
          opacity=".31"
        ></circle>
        <circle
          cx="8.531"
          cy="20.929"
          r=".206"
          class="highlight"
          fill="#fefeff"
          opacity=".31"
        ></circle>
        <circle
          cx="9.77"
          cy="22.168"
          r=".206"
          class="highlight"
          fill="#fefeff"
          opacity=".31"
        ></circle>
        <circle
          cx="8.531"
          cy="22.168"
          r=".206"
          class="highlight"
          fill="#fefeff"
          opacity=".31"
        ></circle>
        <circle
          cx="8.325"
          cy="21.548"
          r=".206"
          class="highlight"
          fill="#fefeff"
          opacity=".31"
        ></circle>
        <circle
          cx="9.151"
          cy="22.374"
          r=".206"
          class="highlight"
          fill="#fefeff"
          opacity=".31"
        ></circle>
        <path d="M2 23.275h44v2H2z" class="primary" fill="#367C2B"></path>
        <path
          d="M2 23.275h44v.5H2z"
          class="highlight"
          fill="#fefeff"
          opacity=".31"
        ></path>
        <path
          d="M2 24.525h44v.75H2z"
          class="shadow"
          fill="#353535"
          opacity=".3"
        ></path>
        <path
          d="M39.25 21.025h1.25v2.25h-1.25z"
          class="primary"
          fill="#367C2B"
        ></path>
        <path
          d="M39.25 21.025h1.25v2.25h-1.25z"
          class="shadow"
          fill="#353535"
          opacity=".3"
        ></path>
        <path
          d="M41.5 24.275h-2.25v-1.5l.25-.25h1.75l.25.25z"
          class="neutral1"
          fill="#2b2b2b"
        ></path>
        <path
          d="m41.5 27.525-2.25 3.25-.5.25-.75-.5v-.5l1.25-2.5v-3.25h2.25z"
          class="primary"
          fill="#367C2B"
        ></path>
        <path
          d="M39.25 26.275h2.25v1.25h-2.25z"
          class="highlight"
          fill="#fefeff"
          opacity=".31"
        ></path>
        <path d="M4.5 23.275h2v2.5h-2z" class="neutral2" fill="#808082"></path>
        <path d="M4.5 25.775h2v1.5h-2z" class="primary" fill="#367C2B"></path>
        <circle
          cx="5.375"
          cy="30.15"
          r="3.375"
          class="neutral1"
          fill="#2b2b2b"
        ></circle>
        <circle
          cx="5.375"
          cy="30.15"
          r="1.776"
          class="secondary"
          fill="#FFDE00"
        ></circle>
        <circle
          cx="5.375"
          cy="30.15"
          r="1.125"
          class="shadow"
          fill="#353535"
          opacity=".3"
        ></circle>
      </g></svg>
