<svg xmlns="http://www.w3.org/2000/svg"
        class="css-9txd9r"
        focusable="false"
        viewBox="0 0 32 32"
        data-icon-name="HitachiExcavator"
      >
        <path
          id="HitachiExcavator__outline"
          d="M19.304 27.406c-.942-.067-8.732-.091-15.116-.091-1.482 0-2.688-1.29-2.688-2.875 0-1.249.752-2.241 2.072-2.75H1.938C.923 21.69 0 20.767 0 19.753v-5.625a1 1 0 0 1 1-1h.875v-.875a1 1 0 0 1 1-1h6.562a1 1 0 0 1 1 .984 1 1 0 0 1 .875-.516h2.861c.432-.658.79-1.206.984-1.509 1.328-1.883 3.305-2.71 4.686-2.71a7 7 0 0 1 .577-.027l3.271-1.308a1 1 0 0 1 .805.028l2.601-.938c.167-.344.517-.567.903-.567h1.594c.398 0 .759.237.918.603l1.219 2.812c.089.207.106.438.048.656l-.267.997a1.92 1.92 0 0 1 .207 2.281v3.495a1 1 0 0 1-.375.781v1.527c.409.358.656.877.656 1.442a1.94 1.94 0 0 1-1.832 1.935l-.255.304.125.188a3.24 3.24 0 0 1 1.024 2.355 3.254 3.254 0 0 1-3.354 3.246 1 1 0 0 1-.084.004h-5.719a1 1 0 0 1-.876-.518 2.57 2.57 0 0 1-1.725.608m.387-5.696c1.496.449 2.371 1.481 2.371 2.824q0 .34-.071.659l1.575-.666 1.604-4.088q.04-.224.135-.433l-.154-8.485c-2.43.268-4.299.835-5.103 1.565-.143.116-.417.363-1.083 1.047a1 1 0 0 1-.03.347l-.145.541c.482 1.78.375 3.542.257 4.489l.473.473a1 1 0 0 1-.228 1.585c.004.002.306.111.399.142"
          class="outline"
          fill="#FFFFFF"
        ></path>
        <g id="HitachiExcavator__main_shape">
          <path
            d="M29.875 15.441h.469v4.406h-.469z"
            class="hitachiquarternary"
            fill="#808184"
          ></path>
          <path
            d="M29.5 11.034h1.219v4.5H29.5z"
            class="hitachitertiary"
            fill="#8e4613"
          ></path>
          <circle
            cx="30.062"
            cy="11.034"
            r=".938"
            class="hitachitertiary"
            fill="#8e4613"
          ></circle>
          <path
            d="M27.438 19.003h2.438v.656h-2.438z"
            class="hitachitertiary"
            fill="#8e4613"
          ></path>
          <path
            d="M27.833 20.154h2.438v.656h-2.438z"
            class="hitachiorange"
            transform="rotate(-49.993 29.052 20.482)"
            fill="#ff824a"
          ></path>
          <path
            d="M23.796 6.733h4.406v.469h-4.406z"
            class="hitachiquarternary"
            transform="rotate(-19.823 25.999 6.967)"
            fill="#808184"
          ></path>
          <path
            d="M2.875 12.253h6.562v8.438H2.875z"
            class="hitachiorange"
            fill="#ff824a"
          ></path>
          <path
            d="M1.938 20.691h1.875v-6.562H1v5.625c0 .468.469.937.938.937"
            class="hitachiorange"
            fill="#ff824a"
          ></path>
          <path
            d="M3.812 14.128h1.875v4.688H3.812zM6.625 14.128H8.5v4.688H6.625zM4.188 26.316c-.938 0-1.687-.844-1.687-1.875s.75-1.594 1.594-1.875c.375-.094 3.094-.844 3.75-.844h8.156c.938 0 2.812.75 3.375.938.938.281 1.688.844 1.688 1.875s-.75 1.875-1.688 1.875c-1.314-.094-14.251-.094-15.188-.094"
            class="black"
            fill="#333"
          ></path>
          <path
            d="M5.125 23.784h15v1.5h-15z"
            class="hitachiquinary"
            fill="#3c3c3d"
          ></path>
          <path
            d="M9.719 20.597h4.688v1.406H9.719zM17.969 19.941s.938-4.594-1.5-7.219h-5.156v7.031z"
            class="black"
            fill="#333"
          ></path>
          <path
            d="M27.625 20.409h-1.313l-.187-10.312L28 5.691h1.594l1.218 2.812z"
            class="hitachiorange"
            fill="#ff824a"
          ></path>
          <path
            d="M19.844 8.503c-1.031 0-2.719.656-3.844 2.25-.844 1.312-4.688 7.125-4.688 7.125h2.812s4.312-4.781 5.25-5.531c2.063-1.875 7.781-1.969 7.781-1.969V8.503c.001 0-6.28-.094-7.311 0"
            class="hitachitertiary"
            fill="#8e4613"
          ></path>
          <ellipse
            cx="4.375"
            cy="24.534"
            class="hitachiquinary"
            rx="1.313"
            ry="1.312"
            fill="#3c3c3d"
          ></ellipse>
          <path
            d="M4.375 23.503c.562 0 1.125.469 1.125 1.125s-.469 1.125-1.125 1.125-1.125-.469-1.125-1.125.469-1.125 1.125-1.125m0-.469c-.844 0-1.5.656-1.5 1.5s.656 1.5 1.5 1.5 1.5-.656 1.5-1.5c0-.843-.656-1.5-1.5-1.5"
            class="black"
            fill="#333"
          ></path>
          <circle
            cx="19.375"
            cy="24.534"
            r="1.312"
            class="hitachiquinary"
            fill="#3c3c3d"
          ></circle>
          <path
            d="M19.375 23.503c.562 0 1.125.469 1.125 1.125s-.469 1.125-1.125 1.125-1.125-.469-1.125-1.125.562-1.125 1.125-1.125m0-.469c-.844 0-1.5.656-1.5 1.5s.656 1.5 1.5 1.5 1.5-.656 1.5-1.5c0-.843-.656-1.5-1.5-1.5"
            class="black"
            fill="#333"
          ></path>
          <path
            d="m20.781 8.409 3.281-1.312.376 1.031-.938.281z"
            class="hitachiorange"
            fill="#ff824a"
          ></path>
          <path
            d="m17.5 14.784-.375-.093.844-3.563.469.094z"
            class="hitachiquarternary"
            fill="#808184"
          ></path>
          <path
            d="M18.812 20.691H8.5v-6.563h2.812v3.75H16v.938h.938z"
            class="hitachiorange"
            fill="#ff824a"
          ></path>
          <path
            d="M17.969 19.941H2.688v-.282h15z"
            class="black"
            fill="#333"
          ></path>
          <path
            d="M2.5 14.128h.375v6.562H2.5z"
            class="hitachitertiary"
            fill="#8e4613"
          ></path>
          <path
            d="m15.719 18.628 1.219-4.687 1.031.281-1.407 5.25z"
            class="hitachiorange"
            fill="#ff824a"
          ></path>
          <circle
            cx="18.25"
            cy="11.128"
            r=".656"
            class="hitachiorange"
            fill="#ff824a"
          ></circle>
          <circle
            cx="27.062"
            cy="20.784"
            r=".938"
            class="black"
            fill="#333"
          ></circle>
          <circle
            cx="30.062"
            cy="19.284"
            r=".938"
            class="hitachiorange"
            fill="#ff824a"
          ></circle>
          <circle
            cx="27.812"
            cy="24.066"
            r="2.25"
            class="black"
            fill="#333"
          ></circle>
          <circle
            cx="27.062"
            cy="9.441"
            r=".938"
            class="hitachitertiary"
            fill="#8e4613"
          ></circle>
          <path
            d="M27.625 26.316h-5.719l2.438-1.032 1.875-4.781 1.687-.187 1.688 2.531z"
            class="black"
            fill="#333"
          ></path>
          <circle
            cx="12.773"
            cy="17.786"
            r="1.114"
            class="black"
            fill="#333"
          ></circle>
          <circle
            cx="12.773"
            cy="17.786"
            r=".648"
            class="hitachiorange"
            fill="#ff824a"
          ></circle>
        </g></svg>
