<svg xmlns="http://www.w3.org/2000/svg"
        class="css-9txd9r"
        focusable="false"
        viewBox="0 0 48 48"
        data-icon-name="HvcTreeHarvesterNuts"
      >
        <path
          id="HvcTreeHarvesterNuts__outline"
          d="M46 28.75v-2.439a2 2 0 0 0 .75-1.561v-7.5c0-.31-.072-.617-.211-.894l-.25-.5a2 2 0 0 0-.143-.241 2 2 0 0 0-.107-.259l-.5-1a2 2 0 0 0-1.789-1.106h-8.5c-.74 0-1.387.402-1.732 1H28.5q-.256 0-.499.063a2 2 0 0 0-.501-.063h-3.25A2 2 0 0 0 22.266 16h-1.199l-3.683-.246a2 2 0 0 0-.133-.004h-.438l-3.868-.242-3.616-.482-1.187-.237a2 2 0 0 0-.134-.022l-5.75-.75a2.004 2.004 0 0 0-1.579.48c-.432.38-.68.927-.68 1.503v2.75c0 .796.472 1.517 1.203 1.834l5.402 2.349.936.936.215.244c-.036.518.13 1.049.5 1.466l1.845 2.076a5.38 5.38 0 0 0 4.775 7.845 5.37 5.37 0 0 0 4.464-2.386c.359.534.969.886 1.661.886h10.651a5.36 5.36 0 0 0 3.724 1.5 5.36 5.36 0 0 0 2.964-.891 3.73 3.73 0 0 0 2.411.891c.952 0 1.857-.37 2.539-1H46a2 2 0 0 0 2-2v-1.75a2 2 0 0 0-2-2"
          class="outline"
          fill="#fff"
        ></path>
        <g id="HvcTreeHarvesterNuts__icon">
          <path
            d="M24.25 18H21l-3.75-.25h-.5l-4-.25L9 17l-1.25-.25L2 16v2.75l5.75 2.5L9 22.5l7.25 8.25h8z"
            class="primary"
            fill="#367C2B"
          ></path>
          <path
            d="M23.25 19.5h4.25v8.25h-4.25z"
            class="primary"
            fill="#367C2B"
          ></path>
          <path
            d="M24.25 22.25h2.5v4.5h-2.5z"
            class="neutral2"
            fill="#808082"
          ></path>
          <path
            d="M24.25 16.25h3.25v3.25h-3.25z"
            class="primary"
            fill="#367C2B"
          ></path>
          <path
            d="M23.25 19.5h.25v7.75h-.25zM23.5 19.5h4v.25h-4z"
            class="shadow"
            fill="#353535"
            opacity=".3"
          ></path>
          <path
            d="M43.75 16.25v1.25l-1 7.5h-7.5v-8.75zM41 32H21v-2.75l2.25-2.5L25 25h12l1 1 2 2.25z"
            class="primary"
            fill="#367C2B"
          ></path>
          <path
            d="M30.75 32v-3.25l2-2.75h3.75l.75.5 2 2L40 32z"
            class="shadow"
            fill="#353535"
            opacity=".3"
          ></path>
          <path
            d="M37.25 26.5h-4L31.5 29v3h-.75v-3.25l2-2.75h3.75z"
            class="neutral1"
            fill="#2b2b2b"
          ></path>
          <path
            d="M36.5 26H25.75L21 29.25l2.25-2.5L25 25h12z"
            class="highlight"
            fill="#fefeff"
            opacity=".31"
          ></path>
          <path d="M22.25 29.25h2v1h-2z" class="neutral1" fill="#2b2b2b"></path>
          <path
            d="m37 25 3 3.25.5-.25 2.75-1.5-.5-1.5z"
            class="primary"
            fill="#367C2B"
          ></path>
          <path
            d="m40.5 28-.5.25L37 25h.75z"
            class="shadow"
            fill="#353535"
            opacity=".3"
          ></path>
          <path
            d="M37.75 25h5l.5 1.5-1-1z"
            class="highlight"
            fill="#fefeff"
            opacity=".31"
          ></path>
          <path
            d="M43.25 26.5 40 28.25 41 32h3v-4.25z"
            class="primary"
            fill="#367C2B"
          ></path>
          <path
            d="M43.25 26.5 40 28.25 41 32h3v-4.25z"
            class="shadow"
            fill="#353535"
            opacity=".3"
          ></path>
          <path
            d="M40.75 30.75H46v1.75h-5.25z"
            class="primary"
            fill="#367C2B"
          ></path>
          <path
            d="M44.5 30.75H46v1.75h-1.5z"
            class="neutral1"
            fill="#2b2b2b"
          ></path>
          <path
            d="M40 28.25 41 32l-.25-3.5L43 27.25l1 .5-.75-1.25z"
            class="shadow"
            fill="#353535"
            opacity=".3"
          ></path>
          <path
            d="M41.5 28.75H43v2h-1.5z"
            class="shadow"
            fill="#353535"
            opacity=".3"
          ></path>
          <path d="M35.5 23H39v2h-3.5z" class="neutral2" fill="#808082"></path>
          <path
            d="M35.5 23H39v1h-3.5z"
            class="highlight"
            fill="#fefeff"
            opacity=".31"
          ></path>
          <path
            d="M44.25 16.25h-9v-1h8.5zM44.5 16.75h-.75v.75h.5V24l-1.5 1 .5 1.5.75 1.25v-2.5l.75-.5v-7.5z"
            class="neutral1"
            fill="#2b2b2b"
          ></path>
          <path
            d="M26.5 30.75V26h-.75v4.75H21V32h9.75v-1.25z"
            class="shadow"
            fill="#353535"
            opacity=".3"
          ></path>
          <path d="M42.25 23H36v-6h7z" class="neutral1" fill="#2b2b2b"></path>
          <path
            d="M36.5 17.5h5.75l-.5 5H36.5z"
            class="window"
            fill="#bbe3f3"
          ></path>
          <path
            d="M27.5 17.25h7.75V25H27.5z"
            class="primary"
            fill="#367C2B"
          ></path>
          <path
            d="M34.75 17.25h.5V25h-.5zM27.5 17.25h.5V25h-.5z"
            class="shadow"
            fill="#353535"
            opacity=".3"
          ></path>
          <path
            d="M34.75 17.25H28v-.5l.5-.5h5.75l.5.5z"
            class="primary"
            fill="#367C2B"
          ></path>
          <path
            d="M28 16.75h6.75v.5H28zM29.25 18h.5v6.25h-.5zM30.5 18h.5v6.25h-.5zM31.75 18h.5v6.25h-.5zM33 18h.5v6.25H33z"
            class="shadow"
            fill="#353535"
            opacity=".3"
          ></path>
          <circle
            cx="25.25"
            cy="17.25"
            r=".25"
            class="neutral2"
            fill="#808082"
          ></circle>
          <circle
            cx="26.5"
            cy="17.25"
            r=".25"
            class="neutral2"
            fill="#808082"
          ></circle>
          <circle
            cx="25.25"
            cy="18.5"
            r=".25"
            class="neutral2"
            fill="#808082"
          ></circle>
          <circle
            cx="26.5"
            cy="18.5"
            r=".25"
            class="neutral2"
            fill="#808082"
          ></circle>
          <circle
            cx="18.75"
            cy="20"
            r=".25"
            class="neutral2"
            fill="#808082"
          ></circle>
          <circle
            cx="20"
            cy="20"
            r=".25"
            class="neutral2"
            fill="#808082"
          ></circle>
          <path
            d="m13.5 24.25 2.25 2h.5l3.25-1 .75-.75V24l-3.5-2.75z"
            class="secondary"
            fill="#FFDE00"
          ></path>
          <path
            d="m13.5 24.25 3.25-3 3.5 2.75v.5l-.75.75-3.25 1 3-1.25.5-.75-3-2.25z"
            class="highlight"
            fill="#fefeff"
            opacity=".31"
          ></path>
          <circle
            cx="25.5"
            cy="23.25"
            r=".5"
            class="shadow"
            fill="#353535"
            opacity=".3"
          ></circle>
          <path
            d="M16.75 21.25v-.5H13.5v3.5zM16.75 21.25h4.75v3.5L20.25 24z"
            class="shadow"
            fill="#353535"
            opacity=".3"
          ></path>
          <path
            d="M21.5 21.25v2l-4.75-2z"
            class="neutral1"
            fill="#2b2b2b"
          ></path>
          <path
            d="m20.25 24 1.25.75 1.75 1v.5l-3-1.75zM2 18.75V16l5.75.75v.75l-5.25-.75z"
            class="highlight"
            fill="#fefeff"
            opacity=".31"
          ></path>
          <path
            d="m4 18 2 .75v1L4 19z"
            class="shadow"
            fill="#353535"
            opacity=".3"
          ></path>
          <path
            d="M7.75 18.5h16.5v1H7.75z"
            class="secondary"
            fill="#FFDE00"
          ></path>
          <path
            d="M16.75 17.75h.5v3.5h-.5z"
            class="shadow"
            fill="#353535"
            opacity=".3"
          ></path>
          <path
            d="m13.5 24.25-.5.25v-5h.5z"
            class="neutral1"
            fill="#2b2b2b"
          ></path>
          <path
            d="M21 30.75v-1.5l2.25-2.5v-.5l-3-1.75-.75.75-3.25 1h-.5v4.5z"
            class="shadow"
            fill="#353535"
            opacity=".3"
          ></path>
          <path
            d="M23.25 26.75v-.5l-3-1.75-.25.25zM17.25 29.25H21v.5h-3.75zM9 19.5h4.5v.5H9zM11 20.75h2.5v.5H11z"
            class="neutral1"
            fill="#2b2b2b"
          ></path>
          <path
            d="M16 27h6.25L21 28.5h-5z"
            class="primary"
            fill="#367C2B"
          ></path>
          <path
            d="M19.5 25.75h1v.75h-1zM13.5 24.25l2.25 2v1h-.5v-.75l-2.25-2z"
            class="neutral1"
            fill="#2b2b2b"
          ></path>
          <path
            d="M7.75 19.25H9.5v1H7.75zM10 20.5h1.75v1H10z"
            class="neutral2"
            fill="#808082"
          ></path>
          <path
            d="M7.75 21.25v-4.5L9 17v5.5z"
            class="shadow"
            fill="#353535"
            opacity=".3"
          ></path>
          <path
            d="m9.75 24.25 1-1 2 2.25-1 1z"
            class="neutral2"
            fill="#808082"
          ></path>
          <path
            d="M17.25 21.25h4.25v3.5l.5-.5v-3.5h-4.75z"
            class="highlight"
            fill="#fefeff"
            opacity=".31"
          ></path>
          <circle
            cx="35.375"
            cy="30.125"
            r="3.375"
            class="neutral1"
            fill="#2b2b2b"
          ></circle>
          <circle
            cx="35.375"
            cy="30.125"
            r="1.776"
            class="secondary"
            fill="#FFDE00"
          ></circle>
          <circle
            cx="35.375"
            cy="30.125"
            r="1.421"
            class="shadow"
            fill="#353535"
            opacity=".3"
          ></circle>
          <circle
            cx="35.375"
            cy="30.125"
            r=".711"
            class="shadow"
            fill="#353535"
            opacity=".3"
          ></circle>
          <circle
            cx="14.875"
            cy="30.125"
            r="3.375"
            class="neutral1"
            fill="#2b2b2b"
          ></circle>
          <circle
            cx="14.875"
            cy="30.125"
            r="1.776"
            class="secondary"
            fill="#FFDE00"
          ></circle>
          <circle
            cx="14.875"
            cy="30.125"
            r="1.421"
            class="shadow"
            fill="#353535"
            opacity=".3"
          ></circle>
          <circle
            cx="14.875"
            cy="30.125"
            r=".711"
            class="shadow"
            fill="#353535"
            opacity=".3"
          ></circle>
          <circle
            cx="40.75"
            cy="31.75"
            r="1.75"
            class="neutral1"
            fill="#2b2b2b"
          ></circle>
          <circle
            cx="40.75"
            cy="31.75"
            r=".921"
            class="secondary"
            fill="#FFDE00"
          ></circle>
          <circle
            cx="40.75"
            cy="31.75"
            r=".461"
            class="shadow"
            fill="#353535"
            opacity=".3"
          ></circle>
        </g></svg>
