<svg xmlns="http://www.w3.org/2000/svg"
        class="css-9txd9r"
        focusable="false"
        viewBox="0 0 48 48"
        data-icon-name="HvcVineHarvesterGrapes"
      >
        <path
          id="HvcVineHarvesterGrapes__outline"
          d="m47.715 9.971-.75-1.25a2 2 0 0 0-.343-.426A2 2 0 0 0 44.75 7h-1.5c-.632 0-1.195.293-1.561.75H37c-.215 0-.429.035-.632.103l-3.75 1.25a2 2 0 0 0-1.185 1.063l-.717-1.195A2 2 0 0 0 29.001 8h-1.927a2 2 0 0 0-1.323-.5h-.75c-.507 0-.97.189-1.323.5h-2.604a2 2 0 0 0-1.323-.5h-.75c-.507 0-.97.189-1.323.5h-1.177q-.26 0-.5.063a2 2 0 0 0-.5-.063h-.939a2 2 0 0 0-1.561-.75h-1.75a2 2 0 0 0-2 2v.34l-4.547.682a2 2 0 0 0-.446.121l-1.155.462-1.652.472A2 2 0 0 0 0 13.25v3c0 .484.176.952.495 1.317l1.75 2c.147.168.319.307.505.415-.003.333.077.669.244.976l1.5 2.75a2 2 0 0 0 1.322.995l1.321.293.011.021.352 1.057v4.175a2 2 0 0 0 2 2h1.645c.125.309.325.58.578.789A7.5 7.5 0 0 0 11 36.249c0 4.135 3.365 7.5 7.5 7.5a7.49 7.49 0 0 0 6.493-3.75h7.764a7.49 7.49 0 0 0 6.493 3.75c4.135 0 7.5-3.365 7.5-7.5a7.5 7.5 0 0 0-1.27-4.163l.485-.808a2 2 0 0 0 .225-.544l.25-1q.033-.13.047-.264l.75-6.75a2 2 0 0 0-.574-1.635l-.968-.968 1.7-7.438.393-.785a2 2 0 0 0-.074-1.923Z"
          class="outline"
          fill="#fff"
        ></path>
        <g id="HvcVineHarvesterGrapes__icon">
          <path
            d="m26 21.25.25-2.25h-7.5L18 17.25 15 16l-1 .25-9 1.5.75 1.25.5 1 3.25 1 .75 1.5h6.25l2.25 3.25h9l.75-2 .5-1 .25-1z"
            class="primary"
            fill="#367C2B"
          ></path>
          <path
            d="M19 9.5h.75v3.25H19z"
            class="secondary"
            fill="#FFDE00"
          ></path>
          <path
            d="M19 9.5h.75v3.25H19z"
            class="shadow"
            fill="#353535"
            opacity=".3"
          ></path>
          <path
            d="M25 9.5h.75v3.25H25z"
            class="secondary"
            fill="#FFDE00"
          ></path>
          <path
            d="M25 9.5h.75v3.25H25z"
            class="shadow"
            fill="#353535"
            opacity=".3"
          ></path>
          <path
            d="M18.75 19h7.5l1-.75L25.5 15H20l-5 1 3 1.25z"
            class="neutral1"
            fill="#2b2b2b"
          ></path>
          <path
            d="M26 21.25 5.75 19 5 17.75l9-1.5 3.5 1.25 1 2.25h7.25v1z"
            class="shadow"
            fill="#353535"
            opacity=".3"
          ></path>
          <path
            d="M14.25 31.5h25V38h-25z"
            class="primary"
            fill="#367C2B"
          ></path>
          <path
            d="M14.25 31.5h25v4h-25z"
            class="shadow"
            fill="#353535"
            opacity=".3"
          ></path>
          <path
            d="M14.25 31.5h25v2.75h-25z"
            class="shadow"
            fill="#353535"
            opacity=".3"
          ></path>
          <path
            d="M13 30.25h16v1.25H13z"
            class="secondary"
            fill="#FFDE00"
          ></path>
          <path
            d="M13 30.25h16v1.25H13z"
            class="shadow"
            fill="#353535"
            opacity=".3"
          ></path>
          <path
            d="M43.5 31.5h-9.25v-1.25h10z"
            class="secondary"
            fill="#FFDE00"
          ></path>
          <path
            d="M43.5 31.5h-9.25v-1.25h10z"
            class="shadow"
            fill="#353535"
            opacity=".3"
          ></path>
          <path
            d="M13 30.25H9.5v-4.5H14v3.5z"
            class="neutral1"
            fill="#2b2b2b"
          ></path>
          <path
            d="M10.25 26.5h3V28h-3z"
            class="highlight"
            fill="#fefeff"
            opacity=".31"
          ></path>
          <path
            d="M26.5 29.25H14v-3.5h13.75l-.5 1-.25 1-.25.75z"
            class="neutral1"
            fill="#2b2b2b"
          ></path>
          <path
            d="m26.5 29.25-.25 1H13l1-1z"
            class="neutral2"
            fill="#808082"
          ></path>
          <path
            d="M25.75 28H14v-1.5h12.5v.25l-.5 1z"
            class="highlight"
            fill="#fefeff"
            opacity=".31"
          ></path>
          <path
            d="M25.75 28H14v-.25h12zM10.25 26.5h3v.75h-3z"
            class="highlight"
            fill="#fefeff"
            opacity=".31"
          ></path>
          <path
            d="M10.25 29.75h2.5l.5-.5h-3z"
            class="neutral2"
            fill="#808082"
          ></path>
          <path
            d="M14 26.5h12.5v.25H14z"
            class="highlight"
            fill="#fefeff"
            opacity=".31"
          ></path>
          <path
            d="M26.5 29.25h18l-.25 1h-18z"
            class="neutral1"
            fill="#2b2b2b"
          ></path>
          <path
            d="m26.5 29.25.25-.75.75-.5-.25-1.25.5-1H29l1.5-.5h7.75L42 26.5l1.5.75.5.25.5 1.75z"
            class="primary"
            fill="#367C2B"
          ></path>
          <path
            d="M30.5 25.25 33.25 19h-1.5L29 25.75zM31.75 19h6.5l1-1.75H32.5z"
            class="primary"
            fill="#367C2B"
          ></path>
          <path
            d="m38.25 19 3.5 3.5h3.5l-1.75-1.75-.5-.5-.75-.75-.5-.5-.5-.5-.5-.5-1.5-.75z"
            class="primary"
            fill="#367C2B"
          ></path>
          <path
            d="M30.25 26h8.5l4.75 1.75 1 1.5-.5-1.75-.5-.25-1.5-.75-3.75-1.25H30.5z"
            class="highlight"
            fill="#fefeff"
            opacity=".31"
          ></path>
          <path
            d="M29 25.75h-1.25l.75-2 .5-1 .25-1L30.5 19l.75-1.75h1.25zM33.25 19l-2.75 6.25h7.75L42 26.5v-4L38.25 19zM43.5 22.5h1.75l-.75 6.75-.5-1.75-.5-.25z"
            class="neutral1"
            fill="#2b2b2b"
          ></path>
          <path
            d="m42 26.5 1.5.75V22.5H42z"
            class="primary"
            fill="#367C2B"
          ></path>
          <path
            d="M33.25 19h5L42 22.5l-.25-1-3-3.25H33.5z"
            class="highlight"
            fill="#fefeff"
            opacity=".31"
          ></path>
          <path
            d="M38 19h.25v6.25H38z"
            class="highlight"
            fill="#fefeff"
            opacity=".31"
          ></path>
          <path
            d="M42.448 20.418h.354v1.414h-.354z"
            class="neutral1"
            transform="rotate(-45 42.625 21.125)"
            fill="#2b2b2b"
          ></path>
          <path
            d="M40.948 18.918h.354v1.414h-.354z"
            class="neutral1"
            transform="rotate(-45 41.125 19.625)"
            fill="#2b2b2b"
          ></path>
          <path
            d="M31.25 14.25H34v3h-2.75zM34 15h3.25v2.25H34z"
            class="neutral2"
            fill="#808082"
          ></path>
          <path
            d="M34 15h3.25v2.25H34z"
            class="shadow"
            fill="#353535"
            opacity=".3"
          ></path>
          <path
            d="M34.5 15.5h2.25v1.25H34.5zM31.75 14.75h1.75v2h-1.75z"
            class="shadow"
            fill="#353535"
            opacity=".3"
          ></path>
          <path
            d="M33.25 12H45.5l.5-1-.75-1.25H37L33.25 11z"
            class="primary"
            fill="#367C2B"
          ></path>
          <path
            d="M33.25 11H46l-.5 1H33.25z"
            class="shadow"
            fill="#353535"
            opacity=".3"
          ></path>
          <path
            d="M43.25 9h1.5v.75h-1.5z"
            class="accent2"
            transform="matrix(-1 0 0 -1 88 18.75)"
            fill="#f5911e"
          ></path>
          <path
            d="M22.25 30.25h1.25l-1 1.25-.75-.5zM24 30.25h1.25l-1.5 2-.75-.5z"
            class="neutral1"
            fill="#2b2b2b"
          ></path>
          <path
            d="M25.5 30.25h3l-.75 1-1.75 1L25 31z"
            class="secondary"
            fill="#FFDE00"
          ></path>
          <path
            d="m23 31.75-.75 1 .5.75 1-1.25zM22.5 31.5l-.75-.5-.75 1 .75.5zM26 32.25l1.75-1v6H26z"
            class="neutral2"
            fill="#808082"
          ></path>
          <path d="M22.75 35h5v2.25h-5z" class="neutral2" fill="#808082"></path>
          <path
            d="M24.75 35H26v2.25h-1.25zM26 32.25l1.75-1V32L26 33.25z"
            class="shadow"
            fill="#353535"
            opacity=".3"
          ></path>
          <path
            d="M29 30.25h5.25v4.5H29z"
            class="neutral2"
            fill="#808082"
          ></path>
          <path
            d="M29 30.25h5.25v2.25H29z"
            class="shadow"
            fill="#353535"
            opacity=".3"
          ></path>
          <path
            d="M29 30.25h5.25V32H29zM29.5 33h4.25v1.25H29.5z"
            class="shadow"
            fill="#353535"
            opacity=".3"
          ></path>
          <path
            d="M29 34.75h5.25l-.25.75-.75 1.75h-5l.5-1.75z"
            class="neutral2"
            fill="#808082"
          ></path>
          <path
            d="M29 34.75h5.25l-.25.75h-5.25z"
            class="shadow"
            fill="#353535"
            opacity=".3"
          ></path>
          <circle
            cx="29.25"
            cy="36"
            r=".25"
            class="shadow"
            fill="#353535"
            opacity=".3"
          ></circle>
          <circle
            cx="30.25"
            cy="36"
            r=".25"
            class="shadow"
            fill="#353535"
            opacity=".3"
          ></circle>
          <path
            d="M30.75 35.5h1v1.25h-1z"
            class="shadow"
            fill="#353535"
            opacity=".3"
          ></path>
          <path
            d="M45.5 12H45l-.25.75-1.75 7.5.5.5z"
            class="neutral1"
            fill="#2b2b2b"
          ></path>
          <path
            d="M33.25 12H45l-.25.75H34l-.75-.25zM30.5 26.75l-1.25 1.75h6l1.5-1.75z"
            class="neutral1"
            fill="#2b2b2b"
          ></path>
          <path
            d="m27.25 26.75-.25 1-.25.75h2.5l1.25-1.75zM36.75 26.75l-1.5 1.75h7.25l-1.25-.75-1-.5-1.75-.5z"
            class="secondary"
            fill="#FFDE00"
          ></path>
          <path d="M34 12.75h.5V15H34z" class="neutral1" fill="#2b2b2b"></path>
          <path
            d="M34.5 12.75H36V15h-1.5z"
            class="window"
            fill="#bbe3f3"
          ></path>
          <path
            d="M36 12.75h.5V15H36zM42.5 12.75h.75l-2 5.75-.5-.5z"
            class="neutral1"
            fill="#2b2b2b"
          ></path>
          <path
            d="M41.25 18.5 43 20.25l1.75-7.5h-1.5z"
            class="window"
            fill="#bbe3f3"
          ></path>
          <path
            d="M18.75 25.75 16.5 22.5h-6.25v3.25z"
            class="secondary"
            fill="#FFDE00"
          ></path>
          <path
            d="M11 23.25v2.5h4.25L14 23.25zM16 23.25l1.25 2.5H16l-1.25-2.5z"
            class="shadow"
            fill="#353535"
            opacity=".3"
          ></path>
          <path
            d="M37.25 17.25h2l1.5.75 1.75-5.25h-6V15h.75z"
            class="window"
            fill="#bbe3f3"
          ></path>
          <path
            d="M41.25 27.75H27l.25-1H38.5l1.75.5zM29 22.75h-2.75v1h2.25zM27.75 25.75 16.5 22.5l2.25 3.25z"
            class="shadow"
            fill="#353535"
            opacity=".3"
          ></path>
          <path
            d="M10.25 22.5 9.5 21l-3.25-1-.5-1-1 1 1.5 2.75 2.25.5.5 1 1.25.5z"
            class="neutral1"
            fill="#2b2b2b"
          ></path>
          <path
            d="M10.25 25.75v-1L9 24.25l.5 1.5z"
            class="primary"
            fill="#367C2B"
          ></path>
          <path
            d="M31.25 14.25H25.5V18l.75 1 1-.75H30l.5.75.75-1.75z"
            class="secondary"
            fill="#FFDE00"
          ></path>
          <path
            d="M28.75 14.25h2.5v3l-.75-2.5z"
            class="shadow"
            fill="#353535"
            opacity=".3"
          ></path>
          <path
            d="M29.25 21.75 30.5 19l-.5-.75h-2.75l-.5.25-.5.5-.25 2.25z"
            class="neutral2"
            fill="#808082"
          ></path>
          <circle
            cx="28.375"
            cy="19.875"
            r=".875"
            class="highlight"
            fill="#fefeff"
            opacity=".31"
          ></circle>
          <path
            d="M28.75 12.5H32v1.75h-3.25z"
            class="neutral2"
            fill="#808082"
          ></path>
          <path
            d="M32 14.25h-.75v-1h-1.5l-1-.75H32z"
            class="secondary"
            fill="#FFDE00"
          ></path>
          <path
            d="m26 21.25.25-2.25h-7.5L18 17.25 15 16l-1 .25 3.5 1.25 1 2.25h7.25v1z"
            class="highlight"
            fill="#fefeff"
            opacity=".31"
          ></path>
          <path d="M20 15h5.5v3H20z" class="primary" fill="#367C2B"></path>
          <path
            d="M20 17h5.5v1H20z"
            class="highlight"
            fill="#fefeff"
            opacity=".31"
          ></path>
          <path
            d="M20 15h5.5v2H20z"
            class="shadow"
            fill="#353535"
            opacity=".3"
          ></path>
          <path
            d="M25.5 15.5h.5V17h-.5z"
            class="neutral2"
            fill="#808082"
          ></path>
          <path d="M26 16h1.25v.5H26z" class="neutral1" fill="#2b2b2b"></path>
          <path
            d="M27.25 18.25V16h-.5v2.5z"
            class="neutral1"
            fill="#2b2b2b"
          ></path>
          <path
            d="M20 15h5.5v.5H20z"
            class="shadow"
            fill="#353535"
            opacity=".3"
          ></path>
          <path
            d="M21 11.5h3.25v.75H21z"
            class="neutral1"
            fill="#2b2b2b"
          ></path>
          <path
            d="M24.25 11.5h2l1.5 1.75v1H25.5v-2h-1.25z"
            class="neutral2"
            fill="#808082"
          ></path>
          <path
            d="M30.5 12.5 29 10h-.25v.5l1.25 2zM16.5 10h12.25v.5H16.5zM11.25 10h4.25v.5h-4.25z"
            class="secondary"
            fill="#FFDE00"
          ></path>
          <path
            d="M11.25 10H13v1.5h-1.75z"
            class="secondary"
            fill="#FFDE00"
          ></path>
          <path
            d="M11.25 10H13v1.5h-1.75z"
            class="shadow"
            fill="#353535"
            opacity=".3"
          ></path>
          <path d="M15 10h.5v1.5H15z" class="secondary" fill="#FFDE00"></path>
          <path
            d="M11.25 9.25H13V10h-1.75z"
            class="accent2"
            fill="#f5911e"
          ></path>
          <path
            d="M30.5 14.75h-5v-.5h3.25z"
            class="highlight"
            fill="#fefeff"
            opacity=".31"
          ></path>
          <path
            d="m12.5 17.25 1.25.5L16 18v1h-4.5l-1.25-1.25V16.5l2.25-.25zM9.75 16.75v1.75h-2.5v-.75H8.5v-1z"
            class="secondary"
            fill="#FFDE00"
          ></path>
          <path
            d="M8.5 16.75h1.25v1H8.5zM10.25 17.75h1.5l.75-.5v-1l-2.25.25z"
            class="shadow"
            fill="#353535"
            opacity=".3"
          ></path>
          <path
            d="m20 12.25-2.25-.75H10l-5 .75-1.25.5-1.75.5v3l1.75 2 1.25-.5 2.5-.417.5-.083 6-1 1-.25 5-1h5.5v-2.75z"
            class="secondary"
            fill="#FFDE00"
          ></path>
          <path
            d="m5 17.75-1.25.5v-5.5l1.25-.5zM5.75 15.5V17l13-2.5zM20 12.25h1V15h-1z"
            class="shadow"
            fill="#353535"
            opacity=".3"
          ></path>
          <path
            d="M21 12.25h4.5v.5H21zM20 12.25l-2.25-.75H10l-5 .75v.5l5-.75h7.75zM16 19v-1l-2.25-.25L11.5 19l2.25-.75h1.75zM16.5 22.5l-7-1.5.75 1.5z"
            class="highlight"
            fill="#fefeff"
            opacity=".31"
          ></path>
          <circle
            cx="18.5"
            cy="36.25"
            r="5.5"
            class="neutral1"
            fill="#2b2b2b"
          ></circle>
          <circle
            cx="18.5"
            cy="36.25"
            r="2.895"
            class="secondary"
            fill="#FFDE00"
          ></circle>
          <circle
            cx="18.5"
            cy="36.25"
            r="2.316"
            class="shadow"
            fill="#353535"
            opacity=".3"
          ></circle>
          <circle
            cx="18.5"
            cy="36.25"
            r="1.158"
            class="shadow"
            fill="#353535"
            opacity=".3"
          ></circle>
          <circle
            cx="39.25"
            cy="36.25"
            r="5.5"
            class="neutral1"
            fill="#2b2b2b"
          ></circle>
          <circle
            cx="39.25"
            cy="36.25"
            r="2.895"
            class="secondary"
            fill="#FFDE00"
          ></circle>
          <circle
            cx="39.25"
            cy="36.25"
            r="2.316"
            class="shadow"
            fill="#353535"
            opacity=".3"
          ></circle>
          <circle
            cx="39.25"
            cy="36.25"
            r="1.158"
            class="shadow"
            fill="#353535"
            opacity=".3"
          ></circle>
        </g></svg>
