<svg xmlns="http://www.w3.org/2000/svg"
        class="css-9txd9r"
        focusable="false"
        viewBox="0 0 48 48"
        data-icon-name="HvcTreeSweeperNuts"
      >
        <path
          id="HvcTreeSweeperNuts__outline"
          d="m47.944 27.765-.312-1.25-.125-.5-.562-2.25a2 2 0 0 0-.74-1.115l-3-2.25c-.346-.26-.767-.4-1.2-.4h-.422l-.164-.164a2 2 0 0 0-1.414-.586h-1.75q-.193 0-.375.035a2 2 0 0 0-.375-.035h-.938a2 2 0 0 0-1.561-.75h-5.75c-.46 0-.885.156-1.223.417a2 2 0 0 0 .223-.917v-1.5a2 2 0 0 0-2-2H15.612l-.246-.164A2 2 0 0 0 14.257 14h-2.5a2 2 0 0 0-2 2v.562l-4.434.985c-.241.054-.47.151-.676.288l-.75.5a2 2 0 0 0-.14.102l-1.25 1a2 2 0 0 0-.746 1.429l-.198 2.965A5.05 5.05 0 0 0 .003 27.5a5.13 5.13 0 0 0 6.198 5.011c.38.467.95.739 1.552.739H18.93c.353.311.816.5 1.323.5h2.5c.507 0 .97-.189 1.323-.5h.625c.898.492 1.898.75 2.927.75s2.029-.258 2.927-.75h1.74a4.816 4.816 0 0 0 4.673.272l1.207.548c.26.118.542.179.828.179h7a2 2 0 0 0 2-2v-4q0-.246-.06-.485Z"
          class="outline"
          fill="#fff"
        ></path>
        <g id="HvcTreeSweeperNuts__icon">
          <path
            d="M39.003 28.25v4L36.253 31v-2.75z"
            class="neutral2"
            fill="#808082"
          ></path>
          <path
            d="M39.003 28.25v4L36.253 31v-2.75z"
            class="shadow"
            fill="#353535"
            opacity=".3"
          ></path>
          <path
            d="M39.003 28.25v4L36.253 31v-2.75z"
            class="shadow"
            fill="#353535"
            opacity=".3"
          ></path>
          <path
            d="M24.753 21.25V16.5h-9.75l-.75-.5h-2.5v1.5h2.25v13.75h22.25v-10z"
            class="primary"
            fill="#367C2B"
          ></path>
          <path
            d="M29.253 20.5h5.75v.75h-5.75zM29.253 22h5.75v3.25h-5.75z"
            class="secondary"
            fill="#FFDE00"
          ></path>
          <path
            d="M29.253 22.75h5.75v2.5h-5.75z"
            class="shadow"
            fill="#353535"
            opacity=".3"
          ></path>
          <path
            d="m36.253 22 2.25 2.25.5 4h-2.75z"
            class="primary"
            fill="#367C2B"
          ></path>
          <path
            d="m36.253 22 2.25 2.25.5 4h-2.75z"
            class="shadow"
            fill="#353535"
            opacity=".3"
          ></path>
          <path
            d="M38.503 24.25h6.5l.563 2.25.125.5.312 1.25h-7l-.125-1-.062-.5zM38.503 24.25h6.5l-3-2.25h-5.75z"
            class="primary"
            fill="#367C2B"
          ></path>
          <path
            d="M38.503 24.25h6.5l-3-2.25h-5.75z"
            class="highlight"
            fill="#fefeff"
            opacity=".31"
          ></path>
          <path
            d="M38.253 21.25V22h2.5l-.75-.75z"
            class="neutral2"
            fill="#808082"
          ></path>
          <path
            d="M39.003 28.25h7v4h-7z"
            class="neutral1"
            fill="#2b2b2b"
          ></path>
          <circle
            cx="39.878"
            cy="29.125"
            r=".375"
            class="neutral2"
            fill="#808082"
          ></circle>
          <circle
            cx="42.628"
            cy="29.125"
            r=".375"
            class="neutral2"
            fill="#808082"
          ></circle>
          <circle
            cx="45.128"
            cy="29.125"
            r=".375"
            class="neutral2"
            fill="#808082"
          ></circle>
          <path
            d="M14.003 30.25h22.5v1h-22.5z"
            class="shadow"
            fill="#353535"
            opacity=".3"
          ></path>
          <path
            d="M26.003 16.5h-5l1 .75h2.75V19h.5l1-1v-1.5z"
            class="neutral1"
            fill="#2b2b2b"
          ></path>
          <path
            d="M15.003 17.75h8v12.5h-8z"
            class="shadow"
            fill="#353535"
            opacity=".3"
          ></path>
          <path
            d="M14.003 17.75h10.75v.5h-10.75z"
            class="shadow"
            fill="#353535"
            opacity=".3"
          ></path>
          <path
            d="M15.503 18.25h7v11.5h-7z"
            class="primary"
            fill="#367C2B"
          ></path>
          <path
            d="m14.003 17.5-.625-.625h-1.125v.625z"
            class="neutral1"
            fill="#2b2b2b"
          ></path>
          <path
            d="m15.003 16.5.75.75h6.25l-1-.75z"
            class="shadow"
            fill="#353535"
            opacity=".3"
          ></path>
          <path
            d="M22.503 27.75h.5v1.75h-.5zM22.503 24.75h.5v1.75h-.5z"
            class="neutral1"
            fill="#2b2b2b"
          ></path>
          <path
            d="M24.753 21.25h1.75v2h-1.75zM26.503 22h2.75v1.75h-2.75zM35.003 22h1.25v4.75h-1.25z"
            class="shadow"
            fill="#353535"
            opacity=".3"
          ></path>
          <path
            d="M35.003 22h1.25v4.75h-1.25z"
            class="shadow"
            fill="#353535"
            opacity=".3"
          ></path>
          <path
            d="M16.003 19h5.75v3.75h-5.75z"
            class="neutral1"
            fill="#2b2b2b"
          ></path>
          <path
            d="M16.503 19.5h4.75v2.75h-4.75z"
            class="window"
            fill="#bbe3f3"
          ></path>
          <path
            d="M16.003 25.25h5.75V29h-5.75z"
            class="neutral1"
            fill="#2b2b2b"
          ></path>
          <path
            d="M16.503 25.75h4.75v2.75h-4.75z"
            class="window"
            fill="#bbe3f3"
          ></path>
          <path
            d="M15.503 23.25h7v1.5h-7z"
            class="secondary"
            fill="#FFDE00"
          ></path>
          <circle
            cx="16.503"
            cy="24"
            r=".5"
            class="shadow"
            fill="#353535"
            opacity=".3"
          ></circle>
          <path
            d="M23.003 23.25h6.25l2.5 2v2.5h-5.25z"
            class="primary"
            fill="#367C2B"
          ></path>
          <path
            d="M23.003 23.25h6.25l2.5 2v2.5h-5.25z"
            class="highlight"
            fill="#fefeff"
            opacity=".31"
          ></path>
          <path
            d="m23.003 23.25 3.5 4.5v3.5h-3.5z"
            class="primary"
            fill="#367C2B"
          ></path>
          <path
            d="m23.003 23.25 3.5 4.5v3.5h-3.5z"
            class="shadow"
            fill="#353535"
            opacity=".3"
          ></path>
          <path
            d="M20.253 30.25h2.5v1.5h-2.5z"
            class="primary"
            fill="#367C2B"
          ></path>
          <circle
            cx="22.003"
            cy="31"
            r=".25"
            class="neutral2"
            fill="#808082"
          ></circle>
          <circle
            cx="21.003"
            cy="31"
            r=".25"
            class="neutral2"
            fill="#808082"
          ></circle>
          <path
            d="M23.003 27.75h13.5v3.5h-13.5z"
            class="shadow"
            fill="#353535"
            opacity=".3"
          ></path>
          <circle
            cx="27.628"
            cy="27.875"
            r="4.125"
            class="neutral1"
            fill="#2b2b2b"
          ></circle>
          <circle
            cx="27.628"
            cy="27.875"
            r="2.171"
            class="secondary"
            fill="#FFDE00"
          ></circle>
          <circle
            cx="27.628"
            cy="27.875"
            r="1.737"
            class="shadow"
            fill="#353535"
            opacity=".3"
          ></circle>
          <circle
            cx="27.628"
            cy="27.875"
            r=".868"
            class="shadow"
            fill="#353535"
            opacity=".3"
          ></circle>
          <circle
            cx="34.878"
            cy="29.125"
            r="2.875"
            class="neutral1"
            fill="#2b2b2b"
          ></circle>
          <circle
            cx="34.878"
            cy="29.125"
            r="1.513"
            class="secondary"
            fill="#FFDE00"
          ></circle>
          <circle
            cx="34.878"
            cy="29.125"
            r="1.211"
            class="shadow"
            fill="#353535"
            opacity=".3"
          ></circle>
          <circle
            cx="34.878"
            cy="29.125"
            r=".605"
            class="shadow"
            fill="#353535"
            opacity=".3"
          ></circle>
          <circle
            cx="5.128"
            cy="27.5"
            r="3.125"
            class="neutral1"
            fill="#2b2b2b"
          ></circle>
          <circle
            cx="5.128"
            cy="27.5"
            r="1.645"
            class="secondary"
            fill="#FFDE00"
          ></circle>
          <circle
            cx="5.128"
            cy="27.5"
            r="1.316"
            class="shadow"
            fill="#353535"
            opacity=".3"
          ></circle>
          <circle
            cx="5.128"
            cy="27.5"
            r=".658"
            class="shadow"
            fill="#353535"
            opacity=".3"
          ></circle>
          <path
            d="M14.003 18.5h-3.75l-4.5 1-.75.5-1.25 1-.25 3.75 1.25 2.75 3 3.75h6.25z"
            class="primary"
            fill="#367C2B"
          ></path>
          <path
            d="M13.503 18.5h.5v12.75h-.5zM5.753 19.5h7.75v.5h-8.5z"
            class="shadow"
            fill="#353535"
            opacity=".3"
          ></path>
          <path
            d="M7.003 21h5.5v7.75h-3l-2.5-3z"
            class="neutral1"
            fill="#2b2b2b"
          ></path>
          <path
            d="m7.003 25.75-2.25 1.75 3 3.75h5.75v-2.5h-4z"
            class="shadow"
            fill="#353535"
            opacity=".3"
          ></path>
          <path
            d="M4.753 21.25h1v3h-1zM4.753 24.75l.5 1.5.75-.5-.25-1z"
            class="neutral1"
            fill="#2b2b2b"
          ></path>
          <path
            d="M12.503 29.75h1v1.5h-1zM7.753 31.25l1.5-1.5h3.25v1.5zM45.503 27.75h-6l-.25-.75h6z"
            class="shadow"
            fill="#353535"
            opacity=".3"
          ></path>
          <path
            d="M37.003 22.75h6l-.5.25h-4.25zM39.753 23h1.25l.25.25h-1.25z"
            class="neutral2"
            fill="#808082"
          ></path>
          <path
            d="M34.253 24v.75h.75l1.25 1.25v-2zM30.503 21.25h6.999V22h-6.999zM34.253 22.75h2v.5h-2z"
            class="primary"
            fill="#367C2B"
          ></path>
          <path
            d="M24.753 22.75h9.5v.5h-9.5z"
            class="neutral1"
            fill="#2b2b2b"
          ></path>
          <path
            d="M33.753 27h2.5l-1.25-1.5h-2.5z"
            class="primary"
            fill="#367C2B"
          ></path>
          <path
            d="M33.753 27h2.5l-1.25-1.5h-2.5z"
            class="highlight"
            fill="#fefeff"
            opacity=".31"
          ></path>
          <path
            d="M33.753 27h2.5l-.5 2.75-1.25.25-.75-1z"
            class="primary"
            fill="#367C2B"
          ></path>
          <circle
            cx="34.878"
            cy="29.125"
            r=".375"
            class="neutral2"
            fill="#808082"
          ></circle>
          <path
            d="M31.753 24.75h3.25v.5h-3.25zM34.253 22h.75v.75h-.75zM34.253 23.25h.75V24h-.75z"
            class="neutral1"
            fill="#2b2b2b"
          ></path>
          <path
            d="M33.003 22.5h1.75v1h-1.75z"
            class="neutral2"
            fill="#808082"
          ></path>
        </g></svg>
