<svg xmlns="http://www.w3.org/2000/svg"
        class="css-9txd9r"
        focusable="false"
        viewBox="0 0 48 48"
        data-icon-name="HvcTreeCartNuts"
      >
        <path
          id="HvcTreeCartNuts__outline"
          d="m47.212 21.659-5.25-4a2 2 0 0 0-1.212-.409h-2.869l-.853-4.153a2 2 0 0 0-.916-1.304l-.818-.5A2 2 0 0 0 34.251 11h-7.25a2 2 0 0 0-1.958 1.592l-.554 2.658H2a2 2 0 0 0-2 2v8.5c0 .277.058.552.169.805l2.75 6.25a2 2 0 0 0 1.616 1.183C5.71 35.833 7.762 37 10 37s4.281-1.162 5.458-3h9.792q.127 0 .25-.016.123.015.25.016h3.042c1.177 1.838 3.224 3 5.458 3s4.281-1.162 5.458-3h1.042c.215 0 .429-.035.632-.103l5.25-1.75A2 2 0 0 0 48 30.25v-7c0-.624-.291-1.213-.788-1.591"
          class="outline"
          fill="#fff"
        ></path>
        <g id="HvcTreeCartNuts__icon">
          <path
            d="M40.75 19.25h-4.5l-1.182-5.75-.818-.5H27l-1.25 6v13h15L46 30.25v-7zM2 17.25v8.5L4.75 32h20.5V17.25z"
            class="primary"
            fill="#367C2B"
          ></path>
          <path
            d="M25.25 19.75h.5v11.5h-.5z"
            class="neutral1"
            fill="#2b2b2b"
          ></path>
          <path
            d="M2 19h23.25v.75H2z"
            class="shadow"
            fill="#353535"
            opacity=".3"
          ></path>
          <path
            d="M2 19.75h23.25v1.5H2z"
            class="secondary"
            fill="#FFDE00"
          ></path>
          <path
            d="M2 22h2.75v2.5H2zM4.75 22H22.5v.75H4.75zM4.75 23.75H22.5v.75H4.75z"
            class="shadow"
            fill="#353535"
            opacity=".3"
          ></path>
          <path
            d="M2.25 22.25H4.5v2H2.25z"
            class="primary"
            fill="#367C2B"
          ></path>
          <path
            d="M22.5 22h2.75v2.5H22.5zM5.25 25.5H3l.25 1L4 28l1.25 2.5h20v-5z"
            class="shadow"
            fill="#353535"
            opacity=".3"
          ></path>
          <path
            d="M25.25 28H4l-.75-1.5-.25-1h22.25z"
            class="shadow"
            fill="#353535"
            opacity=".3"
          ></path>
          <path d="M5.25 25.5h2v5h-2z" class="primary" fill="#367C2B"></path>
          <path
            d="M5.25 25.5h2v5h-2z"
            class="highlight"
            fill="#fefeff"
            opacity=".31"
          ></path>
          <path d="M12.75 25.5h2v5h-2z" class="primary" fill="#367C2B"></path>
          <path
            d="M12.75 25.5h2v5h-2z"
            class="highlight"
            fill="#fefeff"
            opacity=".31"
          ></path>
          <path d="M18 25.5h2v5h-2z" class="primary" fill="#367C2B"></path>
          <path
            d="M18 25.5h2v5h-2z"
            class="highlight"
            fill="#fefeff"
            opacity=".31"
          ></path>
          <path d="M23.25 25.5h2v5h-2z" class="primary" fill="#367C2B"></path>
          <path
            d="M23.25 25.5h2v5h-2z"
            class="highlight"
            fill="#fefeff"
            opacity=".31"
          ></path>
          <path
            d="m3 25.5.25 1h22v-1z"
            class="shadow"
            fill="#353535"
            opacity=".3"
          ></path>
          <path
            d="M2.25 22.25H4.5v1H2.25zM2 17.25h23.25v.5H2z"
            class="highlight"
            fill="#fefeff"
            opacity=".31"
          ></path>
          <path
            d="M22.75 22.25H25v2h-2.25z"
            class="primary"
            fill="#367C2B"
          ></path>
          <path
            d="M22.75 22.25H25v1h-2.25z"
            class="highlight"
            fill="#fefeff"
            opacity=".31"
          ></path>
          <path
            d="M22.75 29.75h2v1.75h-2zM21.25 30.25h1.5V31h-1.5z"
            class="neutral1"
            fill="#2b2b2b"
          ></path>
          <path
            d="M19 30.25h2.25V31H19z"
            class="neutral2"
            fill="#808082"
          ></path>
          <path
            d="M18.75 30h.5v1.25h-.5z"
            class="neutral2"
            fill="#808082"
          ></path>
          <circle
            cx="23.75"
            cy="30.625"
            r=".5"
            class="neutral2"
            fill="#808082"
          ></circle>
          <path
            d="M25.75 19H28v.75h-2.25zM34.5 14l-.25-.25H28v11.5h7.25V18z"
            class="shadow"
            fill="#353535"
            opacity=".3"
          ></path>
          <path
            d="M34 14.25h-5.5v10.5h6.25V18z"
            class="primary"
            fill="#367C2B"
          ></path>
          <path
            d="M36.25 19.25h.5v5.5h-.5z"
            class="shadow"
            fill="#353535"
            opacity=".3"
          ></path>
          <path
            d="M36.25 20.5h.5V24h-.5z"
            class="secondary"
            fill="#FFDE00"
          ></path>
          <path
            d="M40.5 21h-3.75v3h3.75l1-.75h2.25zM45.25 27.25l.75.5v-4.5h-.75zM44.75 27 41 24.5h3.75z"
            class="neutral1"
            fill="#2b2b2b"
          ></path>
          <path
            d="M29.75 20.75h2.5v1.5h-2.5z"
            class="secondary"
            fill="#FFDE00"
          ></path>
          <path
            d="M32.25 20.75h1.5v1.5h-1.5z"
            class="neutral1"
            fill="#2b2b2b"
          ></path>
          <path
            d="M28 20.75h.5v1.5H28z"
            class="neutral1"
            transform="matrix(-1 0 0 -1 56.5 43)"
            fill="#2b2b2b"
          ></path>
          <path
            d="M26.5 24.5h.75v-3.75l-.75 1z"
            class="neutral1"
            fill="#2b2b2b"
          ></path>
          <path
            d="M28 14.75h.5v1.5H28z"
            class="neutral1"
            transform="matrix(-1 0 0 -1 56.5 31)"
            fill="#2b2b2b"
          ></path>
          <path
            d="M28 23h.5v1.5H28z"
            class="neutral1"
            transform="matrix(-1 0 0 -1 56.5 47.5)"
            fill="#2b2b2b"
          ></path>
          <path
            d="M29.25 14.75h4.25v4.75h-4.25z"
            class="neutral1"
            transform="matrix(-1 0 0 -1 62.75 34.25)"
            fill="#2b2b2b"
          ></path>
          <path
            d="M29.75 15.25H33V19h-3.25z"
            class="window"
            transform="matrix(-1 0 0 -1 62.75 34.25)"
            fill="#bbe3f3"
          ></path>
          <path
            d="M25.75 27.75H28V32h-2.25z"
            class="shadow"
            fill="#353535"
            opacity=".3"
          ></path>
          <path
            d="M25.75 25.5h5L28 27.75V32h-2.25z"
            class="shadow"
            fill="#353535"
            opacity=".3"
          ></path>
          <path
            d="M28.75 32v-3.5L32 25.75h4.75L39 27.5l1 4.5z"
            class="shadow"
            fill="#353535"
            opacity=".3"
          ></path>
          <circle
            cx="41.625"
            cy="29"
            r=".375"
            class="neutral2"
            fill="#808082"
          ></circle>
          <circle
            cx="41.625"
            cy="30.5"
            r=".375"
            class="neutral2"
            fill="#808082"
          ></circle>
          <path
            d="m40.25 24.75 5.75 4v.5l-5.25-3.5-.5-.5zM35.25 24.75h5v.5h-5z"
            class="highlight"
            fill="#fefeff"
            opacity=".31"
          ></path>
          <path
            d="m40.25 25.25.5.5V32h-.5zM45.25 23.25H41.5l-1 .75.5.5h4.25z"
            class="shadow"
            fill="#353535"
            opacity=".3"
          ></path>
          <path
            d="M36.75 20.5h3.75l3.25 2.75L40.5 21h-3.75z"
            class="highlight"
            fill="#fefeff"
            opacity=".31"
          ></path>
          <path
            d="M45.25 24.5h-.5V27l.5.25z"
            class="shadow"
            fill="#353535"
            opacity=".3"
          ></path>
          <circle
            cx="10"
            cy="30.5"
            r="4.5"
            class="neutral1"
            fill="#2b2b2b"
          ></circle>
          <circle
            cx="10"
            cy="30.5"
            r="2.368"
            class="secondary"
            fill="#FFDE00"
          ></circle>
          <circle
            cx="10"
            cy="30.5"
            r="1.895"
            class="shadow"
            fill="#353535"
            opacity=".3"
          ></circle>
          <circle
            cx="10"
            cy="30.5"
            r=".947"
            class="shadow"
            fill="#353535"
            opacity=".3"
          ></circle>
          <circle
            cx="34.25"
            cy="30.5"
            r="4.5"
            class="neutral1"
            fill="#2b2b2b"
          ></circle>
          <circle
            cx="34.25"
            cy="30.5"
            r="2.368"
            class="secondary"
            fill="#FFDE00"
          ></circle>
          <circle
            cx="34.25"
            cy="30.5"
            r="1.895"
            class="shadow"
            fill="#353535"
            opacity=".3"
          ></circle>
          <circle
            cx="34.25"
            cy="30.5"
            r=".947"
            class="shadow"
            fill="#353535"
            opacity=".3"
          ></circle>
          <path d="M28 25.5h1v.5l-1 1z" class="neutral1" fill="#2b2b2b"></path>
        </g></svg>
