<svg xmlns="http://www.w3.org/2000/svg"
        class="css-9txd9r"
        focusable="false"
        viewBox="0 0 48 48"
        data-icon-name="HvcVinePrunerGrapes"
      >
        <path
          id="HvcVinePrunerGrapes__outline"
          d="M48 30.75a2 2 0 0 0-1.5-1.937v-1.344c.159-.287.25-.617.25-.969v-.031c.159-.287.25-.617.25-.969v-3c0-.421-.13-.812-.353-1.135a2 2 0 0 0-.897-1.098v-1.768c0-.74-.402-1.387-1-1.732v-1.768a2 2 0 0 0-.998-1.731l-3.8-2.2.337-.674a2 2 0 0 0-.074-1.923l-.75-1.25a2 2 0 0 0-.343-.426A2 2 0 0 0 37.25 5.5h-1.5c-.632 0-1.195.293-1.561.75H29.5c-.215 0-.429.035-.632.103l-3.75 1.25A2 2 0 0 0 23.75 9.5v1.25a2 2 0 0 0-2 2v2.589l-2.886 6.911h-6.566l-1.654-2.388A2 2 0 0 0 9 19H2.75a2 2 0 0 0-2 2v1.689c-.457.367-.75.93-.75 1.561v4.5a2 2 0 0 0 2 2h1.645c.125.309.325.58.578.789A7.5 7.5 0 0 0 3.5 34.75c0 4.135 3.365 7.5 7.5 7.5a7.49 7.49 0 0 0 6.493-3.75h7.764a7.49 7.49 0 0 0 6.493 3.75c3.259 0 6.04-2.09 7.072-5h.428v1.25a2 2 0 0 0 2 2h1c.265 0 .518-.052.75-.145.232.094.485.145.75.145h1c.352 0 .682-.091.969-.25H46a2 2 0 0 0 2-2v-.5a2 2 0 0 0-.1-.625q.099-.297.1-.625V36a2 2 0 0 0-.1-.625q.099-.297.1-.625v-.5a2 2 0 0 0-.1-.625q.099-.297.1-.625v-.5a2 2 0 0 0-.1-.625q.099-.297.1-.625z"
          class="outline"
          fill="#fff"
        ></path>
        <g id="HvcVinePrunerGrapes__icon">
          <path d="M6.75 30h25v6.5h-25z" class="primary" fill="#367C2B"></path>
          <path
            d="M6.75 30h25v4h-25z"
            class="shadow"
            fill="#353535"
            opacity=".3"
          ></path>
          <path
            d="M6.75 30h25v2.75h-25z"
            class="shadow"
            fill="#353535"
            opacity=".3"
          ></path>
          <path
            d="M5.5 28.75h16V30h-16z"
            class="secondary"
            fill="#FFDE00"
          ></path>
          <path
            d="M5.5 28.75h16V30h-16z"
            class="shadow"
            fill="#353535"
            opacity=".3"
          ></path>
          <path
            d="M36 30h-9.25v-1.25h10z"
            class="secondary"
            fill="#FFDE00"
          ></path>
          <path
            d="M36 30h-9.25v-1.25h10z"
            class="shadow"
            fill="#353535"
            opacity=".3"
          ></path>
          <path
            d="M5.5 28.75H2v-4.5h4.5v3.5z"
            class="neutral1"
            fill="#2b2b2b"
          ></path>
          <path
            d="M2.75 25h3v1.5h-3z"
            class="highlight"
            fill="#fefeff"
            opacity=".31"
          ></path>
          <path
            d="M19 27.75H6.5v-3.5h13.75l-.5 1-.25 1-.25.75z"
            class="neutral1"
            fill="#2b2b2b"
          ></path>
          <path
            d="m19 27.75-.25 1H5.5l1-1z"
            class="neutral2"
            fill="#808082"
          ></path>
          <path
            d="M18.25 26.5H6.5V25H19v.25l-.5 1z"
            class="highlight"
            fill="#fefeff"
            opacity=".31"
          ></path>
          <path
            d="M18.25 26.5H6.5v-.25h12zM2.75 25h3v.75h-3zM2.75 28.25h2.5l.5-.5h-3zM6.5 25H19v.25H6.5z"
            class="highlight"
            fill="#fefeff"
            opacity=".31"
          ></path>
          <path
            d="M19 27.75h18l-.25 1h-18z"
            class="neutral1"
            fill="#2b2b2b"
          ></path>
          <path
            d="m19 27.75.25-.75.75-.5-.25-1.25.5-1h1.25l1.5-.5h7.75L34.5 25l1.5.75.5.25.5 1.75z"
            class="primary"
            fill="#367C2B"
          ></path>
          <path
            d="m23 23.75 2.75-6.25h-1.5l-2.75 6.75zM24.25 17.5h6.5l1-1.75H25z"
            class="primary"
            fill="#367C2B"
          ></path>
          <path
            d="m30.75 17.5 3.5 3.5h3.5L36 19.25l-.5-.5-.75-.75-.5-.5-.5-.5-.5-.5-1.5-.75z"
            class="primary"
            fill="#367C2B"
          ></path>
          <path
            d="M22.75 24.5h8.5L36 26.25l1 1.5-.5-1.75-.5-.25-1.5-.75-3.75-1.25H23z"
            class="highlight"
            fill="#fefeff"
            opacity=".31"
          ></path>
          <path
            d="M21.5 24.25h-1.25l3.5-8.5H25zM25.75 17.5 23 23.75h7.75L34.5 25v-4l-3.75-3.5zM36 21h1.75L37 27.75 36.5 26l-.5-.25z"
            class="neutral1"
            fill="#2b2b2b"
          ></path>
          <path
            d="m34.5 25 1.5.75V21h-1.5z"
            class="primary"
            fill="#367C2B"
          ></path>
          <path
            d="M25.75 17.5h5L34.5 21l-.25-1-3-3.25H26z"
            class="highlight"
            fill="#fefeff"
            opacity=".31"
          ></path>
          <path
            d="M30.5 17.5h.25v6.25h-.25z"
            class="highlight"
            fill="#fefeff"
            opacity=".31"
          ></path>
          <path
            d="M34.948 18.918h.354v1.414h-.354z"
            class="neutral1"
            transform="rotate(-45 35.125 19.625)"
            fill="#2b2b2b"
          ></path>
          <path
            d="M33.448 17.418h.354v1.414h-.354z"
            class="neutral1"
            transform="rotate(-45 33.625 18.125)"
            fill="#2b2b2b"
          ></path>
          <path
            d="M23.75 12.75h2.75v3h-2.75zM26.5 13.5h3.25v2.25H26.5z"
            class="neutral2"
            fill="#808082"
          ></path>
          <path
            d="M26.5 13.5h3.25v2.25H26.5z"
            class="shadow"
            fill="#353535"
            opacity=".3"
          ></path>
          <path
            d="M27 14h2.25v1.25H27zM24.25 13.25H26v2h-1.75z"
            class="shadow"
            fill="#353535"
            opacity=".3"
          ></path>
          <path
            d="M25.75 10.5H38l.5-1-.75-1.25H29.5L25.75 9.5z"
            class="primary"
            fill="#367C2B"
          ></path>
          <path
            d="M25.75 9.5H38.5l-.5 1H25.75z"
            class="shadow"
            fill="#353535"
            opacity=".3"
          ></path>
          <path
            d="M35.75 7.5h1.5v.75h-1.5z"
            class="accent2"
            transform="matrix(-1 0 0 -1 73 15.75)"
            fill="#f5911e"
          ></path>
          <path
            d="M14.75 28.75H16L15 30l-.75-.5zM16.5 28.75h1.25l-1.5 2-.75-.5z"
            class="neutral1"
            fill="#2b2b2b"
          ></path>
          <path
            d="M18 28.75h3l-.75 1-1.75 1-1-1.25z"
            class="secondary"
            fill="#FFDE00"
          ></path>
          <path
            d="m15.5 30.25-.75 1 .5.75 1-1.25zM15 30l-.75-.5-.75 1 .75.5zM18.5 30.75l1.75-1v6H18.5z"
            class="neutral2"
            fill="#808082"
          ></path>
          <path
            d="M15.25 33.5h5v2.25h-5z"
            class="neutral2"
            fill="#808082"
          ></path>
          <path
            d="M17.25 33.5h1.25v2.25h-1.25zM18.5 30.75l1.75-1v.75l-1.75 1.25z"
            class="shadow"
            fill="#353535"
            opacity=".3"
          ></path>
          <path
            d="M21.5 28.75h5.25v4.5H21.5z"
            class="neutral2"
            fill="#808082"
          ></path>
          <path
            d="M21.5 28.75h5.25V31H21.5z"
            class="shadow"
            fill="#353535"
            opacity=".3"
          ></path>
          <path
            d="M21.5 28.75h5.25v1.75H21.5zM22 31.5h4.25v1.25H22z"
            class="shadow"
            fill="#353535"
            opacity=".3"
          ></path>
          <path
            d="M21.5 33.25h5.25l-.25.75-.75 1.75h-5l.5-1.75z"
            class="neutral2"
            fill="#808082"
          ></path>
          <path
            d="M21.5 33.25h5.25l-.25.75h-5.25z"
            class="shadow"
            fill="#353535"
            opacity=".3"
          ></path>
          <circle
            cx="21.75"
            cy="34.5"
            r=".25"
            class="shadow"
            fill="#353535"
            opacity=".3"
          ></circle>
          <circle
            cx="22.75"
            cy="34.5"
            r=".25"
            class="shadow"
            fill="#353535"
            opacity=".3"
          ></circle>
          <path
            d="M23.25 34h1v1.25h-1z"
            class="shadow"
            fill="#353535"
            opacity=".3"
          ></path>
          <path
            d="M38 10.5h-.5l-.25.75-1.75 7.5.5.5z"
            class="neutral1"
            fill="#2b2b2b"
          ></path>
          <path
            d="M25.75 10.5H37.5l-.25.75H26.5l-.75-.25zM23 25.25 21.75 27h6l1.5-1.75z"
            class="neutral1"
            fill="#2b2b2b"
          ></path>
          <path
            d="m19.75 25.25-.25 1-.25.75h2.5L23 25.25zM29.25 25.25 27.75 27H35l-1.25-.75-1-.5-1.75-.5z"
            class="secondary"
            fill="#FFDE00"
          ></path>
          <path
            d="M26.5 11.25h.5v2.25h-.5z"
            class="neutral1"
            fill="#2b2b2b"
          ></path>
          <path d="M27 11.25h1.5v2.25H27z" class="window" fill="#bbe3f3"></path>
          <path
            d="M28.5 11.25h.5v2.25h-.5zM35 11.25h.75l-2 5.75-.5-.5z"
            class="neutral1"
            fill="#2b2b2b"
          ></path>
          <path
            d="m33.75 17 1.75 1.75 1.75-7.5h-1.5z"
            class="window"
            fill="#bbe3f3"
          ></path>
          <path
            d="M11.25 24.25 9 21H2.75v3.25z"
            class="secondary"
            fill="#FFDE00"
          ></path>
          <path
            d="M3.5 21.75v2.5h4.25l-1.25-2.5zM8.5 21.75l1.25 2.5H8.5l-1.25-2.5z"
            class="shadow"
            fill="#353535"
            opacity=".3"
          ></path>
          <path
            d="M29.75 15.75h2l1.5.75L35 11.25h-6v2.25h.75z"
            class="window"
            fill="#bbe3f3"
          ></path>
          <path
            d="M33.75 26.25H19.5l.25-1H31l1.75.5z"
            class="shadow"
            fill="#353535"
            opacity=".3"
          ></path>
          <circle
            cx="11"
            cy="34.75"
            r="5.5"
            class="neutral1"
            fill="#2b2b2b"
          ></circle>
          <circle
            cx="11"
            cy="34.75"
            r="2.895"
            class="secondary"
            fill="#FFDE00"
          ></circle>
          <circle
            cx="11"
            cy="34.75"
            r="2.316"
            class="shadow"
            fill="#353535"
            opacity=".3"
          ></circle>
          <circle
            cx="11"
            cy="34.75"
            r="1.158"
            class="shadow"
            fill="#353535"
            opacity=".3"
          ></circle>
          <circle
            cx="31.75"
            cy="34.75"
            r="5.5"
            class="neutral1"
            fill="#2b2b2b"
          ></circle>
          <circle
            cx="31.75"
            cy="34.75"
            r="2.895"
            class="secondary"
            fill="#FFDE00"
          ></circle>
          <circle
            cx="31.75"
            cy="34.75"
            r="2.316"
            class="shadow"
            fill="#353535"
            opacity=".3"
          ></circle>
          <circle
            cx="31.75"
            cy="34.75"
            r="1.158"
            class="shadow"
            fill="#353535"
            opacity=".3"
          ></circle>
          <path
            d="m31.75 15.75 1.5.75.5.5L38 13.75l3.25 1.75.5.75h1V15L38 12.25z"
            class="neutral1"
            fill="#2b2b2b"
          ></path>
          <circle
            cx="42.25"
            cy="15.75"
            r=".25"
            class="neutral2"
            fill="#808082"
          ></circle>
          <path
            d="m41.25 15.5.5.75v2H40.5V17h-.75v-.5H39v-1z"
            class="secondary"
            fill="#FFDE00"
          ></path>
          <path
            d="M39 15.5h-.75v3.75h1.25l1-1V17h-.75v-.5H39z"
            class="neutral2"
            fill="#808082"
          ></path>
          <path
            d="M40.5 18.25V17H39v2.25h.5z"
            class="shadow"
            fill="#353535"
            opacity=".3"
          ></path>
          <path
            d="M41.75 16.25h1V20h-1zM41.75 21.5h1v2.25h-1z"
            class="neutral2"
            fill="#808082"
          ></path>
          <path
            d="M41.25 20h2.5v1.5h-2.5z"
            class="primary"
            fill="#367C2B"
          ></path>
          <path
            d="M41.25 20H42v1.5h-.75z"
            class="shadow"
            fill="#353535"
            opacity=".3"
          ></path>
          <path d="M42.75 18.5h1V20h-1z" class="primary" fill="#367C2B"></path>
          <path d="M42.75 18.5h1V20h-1z" class="primary" fill="#367C2B"></path>
          <path
            d="M42.75 18.5h.5V20h-.5z"
            class="shadow"
            fill="#353535"
            opacity=".3"
          ></path>
          <path
            d="M41.25 19.5v12h-.75v-5.75l-1-2.75.5-1.5.25-1.5v-.5z"
            class="primary"
            fill="#367C2B"
          ></path>
          <path d="M39 25.75h1.5v.75H39z" class="primary" fill="#367C2B"></path>
          <path
            d="M40 25.75h.5v.75H40z"
            class="shadow"
            fill="#353535"
            opacity=".3"
          ></path>
          <path d="M40.25 20h-2v1.5H40z" class="primary" fill="#367C2B"></path>
          <path
            d="M40.25 20 40 21.5h-.5V20z"
            class="shadow"
            fill="#353535"
            opacity=".3"
          ></path>
          <circle
            cx="42.75"
            cy="20.75"
            r=".25"
            class="neutral2"
            fill="#808082"
          ></circle>
          <circle
            cx="40.5"
            cy="23"
            r=".25"
            class="neutral2"
            fill="#808082"
          ></circle>
          <path
            d="M38.25 21.5H39v10.75h-.75zM39 31.5h2.25v.75H39z"
            class="secondary"
            fill="#FFDE00"
          ></path>
          <path
            d="M39 32.25h-.75v3h2v-1.5z"
            class="neutral1"
            fill="#2b2b2b"
          ></path>
          <path
            d="M39 33.75h1.25v1.5H39z"
            class="secondary"
            fill="#FFDE00"
          ></path>
          <path
            d="M40.25 33.75h1v1.5h-1z"
            class="primary"
            fill="#367C2B"
          ></path>
          <path
            d="M41.25 23.75h1V38.5h-1z"
            class="neutral1"
            fill="#2b2b2b"
          ></path>
          <path
            d="M41.25 23.75h2.5V25h-2.5z"
            class="primary"
            fill="#367C2B"
          ></path>
          <path
            d="M43.5 23.75H45v1.75h-1.5zM43.75 25.5h1v1h-1zM44 26.5h.5v12H44z"
            class="neutral2"
            fill="#808082"
          ></path>
          <path
            d="M43.75 25.5h1v.5h-1zM41.25 23.75h.5V25h-.5zM41.75 21.5h1v.75h-1zM41.75 19.25h1V20h-1z"
            class="shadow"
            fill="#353535"
            opacity=".3"
          ></path>
          <path
            d="M43.5 22.5H45v1.25h-1.5zM43.75 22h1v.5h-1z"
            class="neutral1"
            fill="#2b2b2b"
          ></path>
          <path
            d="M44 26.5h.5v.5H44z"
            class="shadow"
            fill="#353535"
            opacity=".3"
          ></path>
          <path
            d="M42.5 30.75H46v.5h-3.5z"
            class="neutral2"
            fill="#808082"
          ></path>
          <path d="M43.75 30.5h1v1h-1z" class="neutral1" fill="#2b2b2b"></path>
          <path
            d="M42.5 32.5H46v.5h-3.5z"
            class="neutral2"
            fill="#808082"
          ></path>
          <path d="M43.75 32.25h1v1h-1z" class="neutral1" fill="#2b2b2b"></path>
          <path
            d="M42.5 37.75H46v.5h-3.5z"
            class="neutral2"
            fill="#808082"
          ></path>
          <path d="M43.75 37.5h1v1h-1z" class="neutral1" fill="#2b2b2b"></path>
          <path d="M42.5 36H46v.5h-3.5z" class="neutral2" fill="#808082"></path>
          <path d="M43.75 35.75h1v1h-1z" class="neutral1" fill="#2b2b2b"></path>
          <path
            d="M42.5 34.25H46v.5h-3.5z"
            class="neutral2"
            fill="#808082"
          ></path>
          <path d="M43.75 34h1v1h-1z" class="neutral1" fill="#2b2b2b"></path>
        </g></svg>
