<svg xmlns="http://www.w3.org/2000/svg"
        class="css-9txd9r"
        focusable="false"
        viewBox="0 0 48 48"
        data-icon-name="Icon7700a"
      >
        <path
          id="Icon7700a__outline"
          d="M48.003 24.75a2 2 0 0 0-3.029-1.715l-.233.14-.72-1.361a2 2 0 0 0-.783-.805l-4.91-2.775a2 2 0 0 0-.465-2.898l-.75-.5a1.997 1.997 0 0 0-2.628.363l-2.401 2.802h-1.76l-1.406-2.109a2 2 0 0 0-.464-.491l-1-.75a2 2 0 0 0-.926-.381l-.205-1.256 2.511-5.707a2 2 0 0 0-.936-2.594l-1-.5a2 2 0 0 0-2.335.402l-.241.25a2 2 0 0 0-.361.52l-3.009 6.25c-.13.271-.198.567-.198.868v.5q0 .172.03.343l.462 2.657h-3.742q-.076 0-.153.006l-6.5.5a2 2 0 0 0-.129.014l-1.75.25a2 2 0 0 0-1.454.988l-1.7 2.975c-.368.195-.666.5-.852.873l-.5 1q-.037.075-.068.152l-1.304 3.26-.838.671a2 2 0 0 0-.539 2.456l.193.385c-.399.07-.771.261-1.063.55l-.253.251c-.38.377-.593.891-.591 1.426l.002.5c.002.529.213 1.036.588 1.41l.251.25q.076.076.159.143a6.4 6.4 0 0 0-1 3.437c0 3.584 2.916 6.5 6.5 6.5a6.5 6.5 0 0 0 5.518-3.068A2.754 2.754 0 0 0 14.753 44c.397 0 .783-.088 1.134-.25h2.616q.155 0 .305-.023c.362.175.767.273 1.195.273a2.74 2.74 0 0 0 2.21-1.133c.339-.362.54-.846.54-1.367v-2.018c.598-.346 1-.992 1-1.732v-.768q.143-.082.269-.187c.281 4.019 3.641 7.204 7.731 7.204a7.7 7.7 0 0 0 4.028-1.131 2.75 2.75 0 0 0 3.362.881h2.61q.155 0 .305-.023a2.754 2.754 0 0 0 3.945-2.477v-2.018c.598-.346 1-.992 1-1.732v-2.768c.598-.346 1-.992 1-1.732V31c0-.404-.122-.795-.346-1.125.219-.321.346-.708.346-1.125v-1.5q0-.193-.035-.375.035-.182.035-.375z"
          class="outline"
          fill="#fff"
        ></path>
        <g id="Icon7700a__icon">
          <path
            d="m34 22.75-.25-.25h-.625l.375.75v.25h.25l.25-.25z"
            class="secondary"
            fill="#FFDE00"
          ></path>
          <path
            d="m15.719 37.906 1.031-1.62V35.5L15 38.25h.25z"
            class="neutral2"
            fill="#808082"
          ></path>
          <path
            d="m5.75 27.5.5.75H27.5l1-.25h3.75l-.5-.5 1.25-.75-1-.75-1.25-.5L29 25h-2.75l-2-12.25L27 6.5 26 6l-.241.25-3.009 6.25v.5l1 5.75 1 6.75H24l-.75-6.25.5-.5L22.5 18h-5l-6.5.5-1.75.25-2 3.5-.5.25-.5 1 .5 1zm3.25-4h13.5l.5 1.25h-6.5l-.75-.75h-7z"
            class="primary"
            fill="#367C2B"
          ></path>
          <path
            d="m29.25 20-2-3-1-.75-.75.25 1.75 3.5z"
            class="secondary"
            fill="#FFDE00"
          ></path>
          <path
            d="M46 26.5v-1.75l-1.25.75v.75l.5.25v.75h.5v-.75z"
            class="neutral1"
            fill="#2b2b2b"
          ></path>
          <path
            d="M44.75 27.25 44.5 27l-3.75 1.75H35L36.75 32H39l-.75 1.25h-1.601c.327.533.572 1.121.711 1.75h2.39v.25H40v-1h-2l.75-1h1.333l.167-.5.167-.25h-.667l.5-.75h3v2.5h-2.5v1H42l-1.25 1.058v2.034a1.496 1.496 0 0 1-.5 2.908 1.497 1.497 0 0 1-.25-2.975v-1.333L38.75 38h-1v1H38v1.5a.75.75 0 0 1 .75.75.73.73 0 0 1-.094.344l.094.156h3l.75-1h.199a.74.74 0 0 1 .551-.25c.089 0 .171.022.25.05V37.5H45V33h-1v-.75h2V31l-.5-.5h-.75V30h-1.5v-.5l1.5-1v.25H46v-1.5zm-2 1.75a.375.375 0 1 1 0-.75.375.375 0 0 1 0 .75m0 10.75H42v-2h.75zm2.5-8.25a.25.25 0 1 1 0 .5.25.25 0 0 1 0-.5m-.75 0a.25.25 0 1 1 0 .5.25.25 0 0 1 0-.5m-.75-3a.375.375 0 1 1 0-.75.375.375 0 0 1 0 .75"
            class="primary"
            fill="#367C2B"
          ></path>
          <path
            d="M41.5 32.5h-.375l-.125.25-.125.5h.625z"
            class="primary"
            fill="#367C2B"
          ></path>
          <path
            d="M15.5 30.75h10.75l.75 1L29.25 30h4.25l3 2.75.25-.75L35 28.75h5.75L44.5 27l-2.25-4.25-5.75-3.25-.718-1.435L36.75 17l-.75-.5-3 3.5h-5.75l-1.75-3.5v1.25l1 3.5-.25 1 .5-.5.5.25 2 .25 1 .25v1.25l-.5.25H29l-.25.5v.5H29l1.75.5L32 26l1 .75-1.25.75.5.5H28.5l-1 .25H6.25l-.5-.75 1-3-.5-1-1.5 3.75-1.25 1 .25.5.75 2zM40.625 23a.375.375 0 1 1 0 .75.375.375 0 0 1 0-.75m-5.327-4.403.452.903-.5-.25-1 .5zM33.5 25.5V25h.25v-.5h-.25V24h.25v-.5h-.25v-.25l-.375-.75-.125-.25h.75l1.5-.75.25-.5 4.5 3.75.75 1.25.25.75v.75l-.5.5h-5l-1.75-2v-.5zM7.75 32v-.5h-3l-2.5-.001-.253.251.002.5.251.25h5.5zM20.25 40.55a.7.7 0 0 0-.25-.05.74.74 0 0 0-.551.25.74.74 0 0 0-.199.5c0 .414.336.75.75.75a.74.74 0 0 0 .711-.558l.039-3.692h-.5zm-.25.95a.25.25 0 1 1 0-.5.25.25 0 0 1 0 .5"
            class="neutral1"
            fill="#2b2b2b"
          ></path>
          <path
            d="m15.5 34.5.5-1.25h.85l.15-.75.25-.5h-.75l.75-1.25h-5l.25.75.25.5h-5v1.198q.084.024.168.052H13l.25 1.25h.5v.75l.25.25h2.75v-1zm-2.25-3.25H16l-.75 1.25h-1.5z"
            class="primary"
            fill="#367C2B"
          ></path>
          <path
            d="M31.75 30.5c1.974 0 3.715.996 4.75 2.511v-.261l-3-2.75h-4.25L27 31.75l-.75-1h-2.5l.75 1H21l-.75-1h-1.5V32h-.833l-.167.5-.15.75h1.15l.5.5v.75H17.5v1H19l-1.5 1.1v1.675a1.497 1.497 0 0 1-.25 2.975 1.495 1.495 0 0 1-.5-2.908V37.15l-1.031.756-.469.344h-1v1h.5v1.25a.75.75 0 0 1 .75.75.7.7 0 0 1-.105.36l.105.14h3l.75-1h.199A.74.74 0 0 1 20 40.5c.089 0 .171.022.25.05v-2.8h1.5V32h4l.5 1.5.361.181A5.75 5.75 0 0 1 31.75 30.5m-12 9.25H19v-2h.75z"
            class="primary"
            fill="#367C2B"
          ></path>
          <path
            d="M7.75 33.198V32.5H5v.776A4.5 4.5 0 0 1 6.5 33c.437 0 .851.082 1.25.198"
            class="neutral2"
            fill="#808082"
          ></path>
          <circle
            cx="20"
            cy="41.25"
            r=".25"
            class="neutral2"
            fill="#808082"
          ></circle>
          <path
            d="M38 40.5a.75.75 0 0 0 0 1.5.74.74 0 0 0 .656-.406.73.73 0 0 0 .094-.344.75.75 0 0 0-.75-.75m0 1a.25.25 0 1 1 0-.5.25.25 0 0 1 0 .5"
            class="neutral1"
            fill="#2b2b2b"
          ></path>
          <circle
            cx="38"
            cy="41.25"
            r=".25"
            class="neutral2"
            fill="#808082"
          ></circle>
          <circle
            cx="43.25"
            cy="41.25"
            r=".25"
            class="neutral2"
            fill="#808082"
          ></circle>
          <path
            d="M14.75 40.5a.75.75 0 0 0 0 1.5.74.74 0 0 0 .645-.39.7.7 0 0 0 .105-.36.75.75 0 0 0-.75-.75m0 1a.25.25 0 1 1 0-.5.25.25 0 0 1 0 .5"
            class="neutral1"
            fill="#2b2b2b"
          ></path>
          <circle
            cx="14.75"
            cy="41.25"
            r=".25"
            class="neutral2"
            fill="#808082"
          ></circle>
          <path
            d="M16.75 38.342a1.496 1.496 0 0 0 .5 2.908 1.497 1.497 0 0 0 .25-2.975v-.525h-.75zM16.25 40a.25.25 0 1 1 0-.5.25.25 0 0 1 0 .5m1 1a.25.25 0 1 1 0-.5.25.25 0 0 1 0 .5m0-2a.25.25 0 1 1 0-.5.25.25 0 0 1 0 .5m1 .5a.25.25 0 1 1 0 .5.25.25 0 0 1 0-.5M15.25 32.5l.75-1.25h-2.75l.5 1.25z"
            class="neutral2"
            fill="#808082"
          ></path>
          <circle
            cx="17.25"
            cy="38.75"
            r=".25"
            class="neutral1"
            fill="#2b2b2b"
          ></circle>
          <circle
            cx="17.25"
            cy="40.75"
            r=".25"
            class="neutral1"
            fill="#2b2b2b"
          ></circle>
          <circle
            cx="18.25"
            cy="39.75"
            r=".25"
            class="neutral1"
            fill="#2b2b2b"
          ></circle>
          <circle
            cx="16.25"
            cy="39.75"
            r=".25"
            class="neutral1"
            fill="#2b2b2b"
          ></circle>
          <path
            d="M19 37.75h.75v2H19zM21.75 34.75h1v.5h-1zM7.75 32h5l-.25-.5-.25-.75h-7.5v.75h3zM16.5 32h.75l.25-.5.25-.25h.5v.25l-.25.25-.083.25h.833v-1.25h-1.5zM20.25 30.75l.75 1h3.5l-.75-1h-3.5M40 38.275a1.497 1.497 0 0 0 .25 2.975 1.495 1.495 0 0 0 .5-2.908v-.592H40zM39.25 40a.25.25 0 1 1 0-.5.25.25 0 0 1 0 .5m1 1a.25.25 0 1 1 0-.5.25.25 0 0 1 0 .5m0-2a.25.25 0 1 1 0-.5.25.25 0 0 1 0 .5m1 .5a.25.25 0 1 1 0 .5.25.25 0 0 1 0-.5"
            class="neutral2"
            fill="#808082"
          ></path>
          <circle
            cx="40.25"
            cy="38.75"
            r=".25"
            class="neutral1"
            fill="#2b2b2b"
          ></circle>
          <circle
            cx="40.25"
            cy="40.75"
            r=".25"
            class="neutral1"
            fill="#2b2b2b"
          ></circle>
          <circle
            cx="41.25"
            cy="39.75"
            r=".25"
            class="neutral1"
            fill="#2b2b2b"
          ></circle>
          <circle
            cx="39.25"
            cy="39.75"
            r=".25"
            class="neutral1"
            fill="#2b2b2b"
          ></circle>
          <path
            d="M42 37.75h.75v2H42zM40 35.643v-.393h-.25L38 38h.5z"
            class="neutral2"
            fill="#808082"
          ></path>
          <path
            d="M43.5 40.55a.7.7 0 0 0-.25-.05.74.74 0 0 0-.551.25.74.74 0 0 0-.199.5.75.75 0 0 0 1.5 0V37.5h-.5zm-.25.95a.25.25 0 1 1 0-.5.25.25 0 0 1 0 .5M41.5 33.25v1h1.75v-2.5H41.5v1.5M44 33h1l1-.001v-.749h-2z"
            class="neutral1"
            fill="#2b2b2b"
          ></path>
          <path
            d="M36.5 33.011c.053.077.099.159.149.239h1.601L39 32h-2.25l-.25.75zM41.25 32v.25l-.125.25h.375v-.75h-1.25l-.5.75h.667l.333-.5z"
            class="neutral2"
            fill="#808082"
          ></path>
          <path
            d="M40 36.942v.808h.75v-4l.125-.5.125-.5.125-.25.125-.25V32h-.5l-.333.5-.167.25-.167.5-.083.25v3.442"
            class="neutral1"
            fill="#2b2b2b"
          ></path>
          <circle
            cx="44.5"
            cy="31.75"
            r=".25"
            class="neutral2"
            fill="#808082"
          ></circle>
          <circle
            cx="45.25"
            cy="31.75"
            r=".25"
            class="neutral2"
            fill="#808082"
          ></circle>
          <circle
            cx="42.75"
            cy="28.625"
            r=".375"
            class="neutral2"
            fill="#808082"
          ></circle>
          <circle
            cx="43.75"
            cy="28.125"
            r=".375"
            class="neutral2"
            fill="#808082"
          ></circle>
          <circle
            cx="40.625"
            cy="23.375"
            r=".375"
            class="neutral2"
            fill="#808082"
          ></circle>
          <path
            d="M16.5 24.75H23l-.5-1.25H9l-.25.5h7z"
            class="stripe"
            fill="#FFDE00"
          ></path>
          <path
            d="M28.75 24.5 29 24h.75l.5-.25V22.5l-1-.25-2-.25-.5-.25-.5.5.75 2 .25.5V25h1.5z"
            class="neutral2"
            fill="#808082"
          ></path>
          <path
            d="M24 25.5h.75l-1-6.75-.5.5zM16.75 37.15v.6h.75v-4l.1-.5.15-.75.167-.5.083-.25.25-.25v-.25h-.5l-.25.25-.25.5-.25.5-.15.75-.1.5v3.4"
            class="neutral1"
            fill="#2b2b2b"
          ></path>
          <path
            d="M31.75 33.829a2.421 2.421 0 1 0 0 4.842 2.421 2.421 0 0 0 0-4.842m0 3.632a1.21 1.21 0 1 1 0-2.422 1.21 1.21 0 0 1 0 2.422"
            class="secondary"
            fill="#FFDE00"
          ></path>
          <path
            d="M31.75 35.039a1.21 1.21 0 1 0 0 2.422 1.21 1.21 0 0 0 0-2.422"
            class="secondary"
            fill="#FFDE00"
          ></path>
          <path
            d="M31.75 35.039a1.21 1.21 0 1 0 0 2.422 1.21 1.21 0 0 0 0-2.422"
            class="shadow"
            fill="#353535"
            opacity=".3"
          ></path>
          <path
            d="M4.605 37.5a1.895 1.895 0 1 0 3.79 0 1.895 1.895 0 0 0-3.79 0m2.842 0a.947.947 0 1 1-1.894 0 .947.947 0 0 1 1.894 0"
            class="secondary"
            fill="#FFDE00"
          ></path>
          <path
            d="M5.553 37.5a.947.947 0 1 0 1.894 0 .947.947 0 0 0-1.894 0"
            class="secondary"
            fill="#FFDE00"
          ></path>
          <path
            d="M5.553 37.5a.947.947 0 1 0 1.894 0 .947.947 0 0 0-1.894 0"
            class="shadow"
            fill="#353535"
            opacity=".3"
          ></path>
          <path
            d="M28.75 28.75H34L36.25 32l-2.5-2.75h-5l-1.5 1.5-.25-.5L28.25 29zM41 26.75v.75l1.25-.5 1-1.25-1.25.75zM35.75 20.5l-2.25 1-6.75-.5.25.5.5.25 5.5.5h.75l1.5-.75zM31.75 20h2l1.5-.75-1.5 1zM30.75 24.5h2.75V24h-2.25zM31.5 25.5h2V25h-2.75zM27 26H7.5l.25-.5H27zM9.25 18.75l.5.75 1.5-.25 6.25-.5H22l.5-.75h-5l-6.5.5z"
            class="highlight"
            fill="#fefeff"
            opacity=".31"
          ></path>
          <path
            d="M6.97 22.316h.559v1.118H6.97z"
            class="highlight"
            transform="rotate(-26.565 7.25 22.876)"
            fill="#fefeff"
            opacity=".31"
          ></path>
          <path
            d="M4.75 28v-.75l-1.25 1h2.75zM27 28.75H3.75l-.25-.5h24zM31.25 27l-2.5-.75L27 26v-.5l1.5.25 1.5.5zM23.75 25.5h-.25l-1-5.5L9 22.5l14-3.25zM16.5 28.75l-1 2h.5l1-2zM26.5 28.75l-1 2h.5l1-2zM33 26.75 34.25 28h-2l-.5-.5z"
            class="highlight"
            fill="#fefeff"
            opacity=".31"
          ></path>
          <path
            d="M14.75 40.5v-1.25h-.5v-1h1v2.5zM13.75 34.5v.75l.25.25h2.75v-1h-3M17.5 34.5h3.25v1H17.5zM20.75 32h1v5.75h-1zM19 35.5h.75v2.25H19zM4.75 30.75v.75h7.75l-.25-.75zM18.75 31.75h7V32h-7zM7.75 32v1.25H13L12.75 32zM16.5 32l-.5 1.25h2.75L18 32z"
            class="shadow"
            fill="#353535"
            opacity=".3"
          ></path>
          <path
            d="M26.25 30.75h-1l.5 1.25.5 1.5.5.25L36.5 33v-.25l-3-2.75h-4.25L27 31.75zM42 35.25h.75v2.5H42zM39.75 32.5l-.5.75h2.25v-.75zM38 40.5V39h-.25v-1h.75v2.75zM37 34.25h3v1h-.25V35h-2.5z"
            class="shadow"
            fill="#353535"
            opacity=".3"
          ></path>
          <path
            d="M40.75 35.25H44v2.25h1V33h-1v1.25h-3.25zM36 30.75h5.5l1.5-1h.25v1h2.5L46 31v.25h-9.75zM43.25 32.25H44V33h-.75zM44.75 27.25H46v1.5h-1.25zM28.75 26.25h-21L7.5 26H27zM6.75 22.5l.5 1-.5 1-.5-1zM7.25 22.25l.5 1 2-3.75-.5-.75zM10 20l-1 2 12.25-2.75H17.5l-6 .5zM7.75 25.5l1-2H9l-.25.5-.5 1.5z"
            class="shadow"
            fill="#353535"
            opacity=".3"
          ></path>
          <path
            d="M26.25 25H29l1.75.5L32 26l1 .75-1.25.75-.5-.5-1.25-.75-1.5-.5-1.5-.25h-.75zM27.25 24.75V25h1.5v-.5L29 24h.75l.5-.25V22.5l-1-.25-2-.25-.5-.25-.5.5.75 2z"
            class="shadow"
            fill="#353535"
            opacity=".3"
          ></path>
          <path
            d="M27.25 24.75V25h1.5v-.5L29 24h.75l.5-.25V22.5l-1-.25-2-.25-.5-.25-.5.5.75 2zM22.5 18l-.5.75 1 .5.75 6.25h1l-1-6.75zM22.25 26.25l-1 2h1l1-2z"
            class="shadow"
            fill="#353535"
            opacity=".3"
          ></path>
          <path
            d="m24.25 22.25.5 3.25h1.5V25l-.5-3zM17.75 26.75l-11.5 1.5h5.25z"
            class="shadow"
            fill="#353535"
            opacity=".3"
          ></path>
          <path
            d="M36.649 33.25c-.049-.08-.096-.162-.149-.239a5.746 5.746 0 0 0-9.889.67A5.7 5.7 0 0 0 26 36.25 5.75 5.75 0 1 0 37.36 35a5.7 5.7 0 0 0-.711-1.75m-4.899 6.026a3.026 3.026 0 1 1 0-6.053 3.026 3.026 0 0 1 0 6.053"
            class="neutral1"
            fill="#2b2b2b"
          ></path>
          <path
            d="M31.75 33.224a3.026 3.026 0 1 0 0 6.053 3.026 3.026 0 0 0 0-6.053m0 5.447a2.421 2.421 0 1 1 0-4.842 2.421 2.421 0 0 1 0 4.842"
            class="secondary"
            fill="#FFDE00"
          ></path>
          <path
            d="M31.75 33.829a2.421 2.421 0 1 0 0 4.842 2.421 2.421 0 0 0 0-4.842m0 3.632a1.21 1.21 0 1 1 0-2.422 1.21 1.21 0 0 1 0 2.422"
            class="shadow"
            fill="#353535"
            opacity=".3"
          ></path>
          <path
            d="M31.75 35.039a1.21 1.21 0 1 0 0 2.422 1.21 1.21 0 0 0 0-2.422"
            class="shadow"
            fill="#353535"
            opacity=".3"
          ></path>
          <path
            d="M6.5 33c-.529 0-1.029.108-1.5.276-1.744.62-3 2.268-3 4.224a4.5 4.5 0 0 0 9 0c0-1.987-1.296-3.654-3.082-4.25l-.168-.052A4.5 4.5 0 0 0 6.5 33m2.368 4.5a2.368 2.368 0 1 1-4.736 0 2.368 2.368 0 0 1 4.736 0"
            class="neutral1"
            fill="#2b2b2b"
          ></path>
          <path
            d="M4.132 37.5a2.368 2.368 0 1 0 4.736 0 2.368 2.368 0 0 0-4.736 0m4.263 0a1.895 1.895 0 1 1-3.79 0 1.895 1.895 0 0 1 3.79 0"
            class="secondary"
            fill="#FFDE00"
          ></path>
          <path
            d="M4.605 37.5a1.895 1.895 0 1 0 3.79 0 1.895 1.895 0 0 0-3.79 0m2.842 0a.947.947 0 1 1-1.894 0 .947.947 0 0 1 1.894 0"
            class="shadow"
            fill="#353535"
            opacity=".3"
          ></path>
          <path
            d="M5.553 37.5a.947.947 0 1 0 1.894 0 .947.947 0 0 0-1.894 0"
            class="shadow"
            fill="#353535"
            opacity=".3"
          ></path>
        </g></svg>
