<svg xmlns="http://www.w3.org/2000/svg"
        class="css-9txd9r"
        focusable="false"
        viewBox="0 0 48 48"
        data-icon-name="IconEquipmentSnowBlower"
      >
        <path
          id="IconEquipmentSnowBlower__outline"
          d="M39 30.25h-8.5V22a2 2 0 0 0-1.399-1.908l-1.722-3.961.782-2.543c.172-.56.09-1.168-.224-1.662l-1.75-2.75A2 2 0 0 0 24.5 8.25q-.051 0-.103.003a2 2 0 0 0-.354.05l-.645-1.935a2 2 0 0 0-.552-.848l-5.502-5A2 2 0 0 0 15.999 0h-.25a2 2 0 0 0-1.573.765l-2.749 3.5A2 2 0 0 0 11.4 6.7l3.75 5q.203.269.475.454l1.59 5.884c-.579.35-.966.986-.966 1.712v1.127l-.5.441V17a2 2 0 0 0-2-2h-2.75a2 2 0 0 0-2 2v18.25c0 .352.091.682.25.969V42c0 .508.193.997.541 1.368l3.75 4a2 2 0 0 0 1.459.632h9.75c.498 0 .977-.185 1.345-.52l2.75-2.5a2 2 0 0 0 .655-1.48h6.5a2 2 0 0 0 2-2v-.25h1a2 2 0 0 0 2-2v-7a2 2 0 0 0-2-2Z"
          class="outline"
          fill="#fff"
        ></path>
        <g id="IconEquipmentSnowBlower__icon">
          <path
            d="m36 35.5 1.5-.75v-2.5h-9V22h-.75l-2.5-5.75 1-3.25-1.75-2.75-1 2-1-2.25-.25-.75L21.5 7l-5.501-5h-.25L13 5.5l3.75 5h.5l2.5 9.25H22L25.75 22H18l-4.25 3.75v9.5h-2.5V42L15 46h9.75l2.75-2.5v-4zM18.375 9.25a.875.875 0 1 1 0-1.75.875.875 0 0 1 0 1.75m-1.125 33a.75.75 0 1 1 0-1.5.75.75 0 0 1 0 1.5m2.75-6.5a.75.75 0 1 1 0 1.5.75.75 0 0 1 0-1.5M20 41a1.25 1.25 0 1 1 0-2.5 1.25 1.25 0 0 1 0 2.5m2.75 1.25a.75.75 0 1 1 0-1.5.75.75 0 0 1 0 1.5"
            class="primary"
            fill="#367C2B"
          ></path>
          <path
            d="M13.75 25.75V17H11v18.25h2.75zM12.375 33a.875.875 0 1 1 0-1.75.875.875 0 0 1 0 1.75m0-3.25a.875.875 0 1 1 0-1.75.875.875 0 0 1 0 1.75M22 19.75h-3.75V22h7.5zM27.5 39.5v2H36v-6z"
            class="neutral1"
            fill="#2b2b2b"
          ></path>
          <path
            d="M37.5 32.25v2.5l-1.5.75v3.75h3v-7z"
            class="neutral2"
            fill="#808082"
          ></path>
          <circle
            cx="12.375"
            cy="28.875"
            r=".875"
            class="neutral2"
            fill="#808082"
          ></circle>
          <circle
            cx="12.375"
            cy="32.125"
            r=".875"
            class="neutral2"
            fill="#808082"
          ></circle>
          <circle
            cx="20"
            cy="39.75"
            r="1.25"
            class="neutral1"
            fill="#2b2b2b"
          ></circle>
          <circle
            cx="22.75"
            cy="41.5"
            r=".75"
            class="neutral2"
            fill="#808082"
          ></circle>
          <circle
            cx="20"
            cy="36.5"
            r=".75"
            class="neutral2"
            fill="#808082"
          ></circle>
          <circle
            cx="17.25"
            cy="41.5"
            r=".75"
            class="neutral2"
            fill="#808082"
          ></circle>
          <circle
            cx="18.375"
            cy="8.375"
            r=".875"
            class="neutral2"
            fill="#808082"
          ></circle>
          <path
            d="m30 32.25 1.25 5.5-3.75 1.75.25-17.5h.75v10.25zM17.25 10.5l5.25-.5 1 2.25 1.75 4 2.5 5.75h-2L22 19.75h-2.25zM11.25 35.25V42L15 46v-.75l-2.5-3.75v-6.25z"
            class="shadow"
            fill="#353535"
            opacity=".3"
          ></path>
        </g></svg>
