<svg xmlns="http://www.w3.org/2000/svg"
        class="css-9txd9r"
        focusable="false"
        viewBox="0 0 32 32"
        data-icon-name="IconTerminalColor"
      >
        <g id="IconTerminalColor__outline">
          <path
            d="M5.4 23.4c-.3 0-.5-.1-.7-.3C3.1 21.3 2 19.7 1.2 18 .4 16 0 13.9 0 11.9v-.1c0-2.1.4-4.1 1.2-6.1.9-2 2-3.7 3.5-5.1.2-.2.5-.3.7-.3s.5.1.7.3l.6.6c.1.1.2.2.2.3l.8.8c.4.4.4 1 0 1.4-1.1 1-2 2.3-2.6 3.6-.6 1.4-.9 2.8-.9 4.5q0 2.55.9 4.5c.7 1.5 1.5 2.7 2.6 3.8.2.3.3.6.3.8 0 .3-.1.5-.3.7L6.2 23c-.3.3-.5.4-.8.4M23.3 20.2c-.3 0-.5-.1-.7-.3L21 18.3c-.2-.2-.3-.4-.3-.7s.1-.5.3-.7c.7-.7 1.2-1.4 1.5-2.3.3-.8.5-1.8.5-2.7s-.2-1.9-.5-2.7S21.7 7.6 21 7c-.4-.4-.4-1 0-1.4l.4-.4c0-.2.1-.3.2-.4l1-1c.2-.2.5-.3.7-.3s.5.1.7.3q1.65 1.65 2.4 3.6c.6 1.4.8 2.9.8 4.3v.1c0 1.4-.3 2.9-.8 4.3-.5 1.2-1.2 2.4-2.4 3.7-.2.3-.4.4-.7.4"
            class="outline"
            fill="#FFFFFF"
          ></path>
          <path
            d="M26.7 23.4c-.3 0-.5-.1-.7-.3l-1.6-1.6c-.4-.4-.4-1 0-1.4 1.1-1.1 2-2.4 2.6-3.8s.9-2.8.9-4.5-.3-3.2-.9-4.5c-.7-1.5-1.5-2.7-2.6-3.8-.3-.4-.4-.7-.4-.9 0-.3.1-.5.3-.7L25.8.5c.2-.2.4-.2.7-.2s.5.1.7.3c1.4 1.4 2.6 3.2 3.5 5.1.8 2 1.2 4 1.2 6.1 0 2.3-.4 4.3-1.2 6.2-.8 1.8-1.9 3.5-3.4 5.1-.1.1-.4.3-.6.3M8.7 20.2c-.3 0-.5-.1-.7-.3-1.2-1.3-1.9-2.4-2.4-3.7-.6-1.4-.8-2.9-.8-4.3-.1-1.5.2-2.9.8-4.4C6.3 6 7 4.9 8 3.9c.2-.2.4-.3.7-.3h.2q.3 0 .6.3L11 5.4c.4.4.4 1 0 1.4-.7.7-1.2 1.4-1.5 2.3S9 10.9 9 11.9s.2 1.9.5 2.7.8 1.6 1.5 2.3c.4.4.4 1 0 1.4l-1.6 1.6c-.2.2-.4.3-.7.3"
            class="outline"
            fill="#FFFFFF"
          ></path>
          <path
            d="M6.4 31.8c-.6 0-1-.4-1-1v-1c0-.6.4-1 1-1h5.2L13 17.1c-1.9-1.1-3-3-3-5.2 0-3.4 2.6-6 6-6s6 2.6 6 6c0 2.2-1.3 4.2-3.2 5.2l1.5 11.7h5.3c.6 0 1 .4 1 1v1c0 .6-.4 1-1 1z"
            class="outline"
            fill="#FFFFFF"
          ></path>
        </g>
        <g id="IconTerminalColor__Layer_1">
          <path
            d="M6.9 2.9C5.8 4 4.8 5.4 4.1 6.9s-1 3.2-1 4.9.3 3.4 1 4.9 1.5 2.9 2.8 4.1l-1.5 1.4q-2.1-2.1-3.3-4.8C.9 14.7 1 13.8 1 11.9c0-2 .4-4 1.2-5.7C3 4.4 4 2.8 5.5 1.4zm3.4 3.3c-.8.7-1.3 1.6-1.7 2.6s-.6 2-.6 3.1.2 2.1.6 3.1 1 1.8 1.7 2.6l-1.5 1.5c-1-1-1.7-2.1-2.2-3.4s-.8-2.5-.8-4c0-1.4.3-2.7.8-4C7 6.6 7.7 5.6 8.8 4.6zm12.9-1.6c1 1 1.7 2 2.2 3.3s.8 2.5.8 4c0 1.4-.3 2.7-.8 4s-1.3 2.3-2.2 3.4l-1.5-1.5c.8-.8 1.4-1.6 1.7-2.6.4-1 .6-2 .6-3.1s-.2-2.1-.6-3.1-1-1.8-1.7-2.6zm3.3-3.4C28 2.7 29 4.3 29.8 6.1Q31 8.8 31 11.8c0 3-.4 4-1.2 5.7-.8 1.8-1.8 3.4-3.3 4.8L25 20.7c1.2-1.2 2.1-2.6 2.8-4.1s1-3.2 1-4.9-.3-3.4-1-4.9-1.5-2.9-2.8-4.1z"
            class="quaternary"
            fill="#69cdf0"
          ></path>
          <path
            d="M29.8 6.2C30.6 8 31 9.8 31 11.9s-.4 4-1.2 5.7c-.8 1.8-1.8 3.4-3.2 4.8l-.6-.6c1.4-1.4 2.3-2.9 3.1-4.5.7-1.7 1.1-3.5 1.1-5.4s-.4-3.7-1.1-5.4c-.9-1.7-1.8-3.3-3.2-4.6l.6-.6c1.5 1.4 2.5 3 3.3 4.9m-6.6 12.9c1-1 1.7-2.1 2.2-3.4s.8-2.5.8-4c0-1.4-.3-2.7-.8-4s-1.3-2.3-2.2-3.3l-1 1c.9.9 1.5 1.7 1.9 2.9.5 1.1.7 2.2.7 3.4s-.2 2.3-.7 3.4-1.1 2-1.9 2.9zM6 21.8c-1.4-1.4-2.3-2.9-3.1-4.5-.7-1.7-1.1-3.5-1.1-5.4s.4-3.7 1.1-5.4S4.6 3.2 6 1.8l-.6-.6C3.9 2.7 2.9 4.3 2.1 6.1S1 9.7 1 11.8s.4 4 1.2 5.7c.8 1.8 1.8 3.4 3.3 4.8zm.4-13.9c-.5 1.3-.8 2.6-.8 4s.3 2.7.8 4 1.3 2.3 2.2 3.4l1-1c-.9-.9-1.5-1.8-1.9-2.9-.5-1.1-.7-2.3-.7-3.5 0-1.4.3-2.4.7-3.5.5-1.1 1.1-2 1.9-2.9l-1-1C7.7 5.6 7 6.6 6.4 7.9"
            class="st0"
            fill="#47b5df"
          ></path>
          <path
            d="M21 11.9c0-2.8-2.2-5-5-5s-5 2.2-5 5c0 2.1 1.3 3.9 3.1 4.6l-1.6 13.3h7l-1.7-13.3c1.8-.7 3.2-2.5 3.2-4.6"
            class="primary"
            fill="#ACACAC"
          ></path>
          <path
            d="M19 11.9c0-1.7-1.4-3.1-3.1-3.1s-3.1 1.4-3.1 3.1 1.4 3.1 3.1 3.1c1.7-.1 3.1-1.5 3.1-3.1m-.3 0c0 1.5-1.3 2.7-2.7 2.7s-2.7-1.3-2.7-2.7c0-1.5 1.2-2.7 2.7-2.7 1.4 0 2.7 1.1 2.7 2.7m6.9 17.9H6.3v1h19.3z"
            class="secondary"
            fill="#7E7E7E"
          ></path>
          <path
            d="M6.9 2.9C5.8 4 4.8 5.4 4.1 6.9s-1 3.2-1 4.9.3 3.4 1 4.9 1.5 2.9 2.8 4.1l-1.5 1.4q-2.1-2.1-3.3-4.8C.9 14.7 1 13.8 1 11.9c0-2 .4-4 1.2-5.7C3 4.4 4 2.8 5.5 1.4zm3.4 3.3c-.8.7-1.3 1.6-1.7 2.6s-.6 2-.6 3.1.2 2.1.6 3.1 1 1.8 1.7 2.6l-1.5 1.5c-1-1-1.7-2.1-2.2-3.4s-.8-2.5-.8-4c0-1.4.3-2.7.8-4C7 6.6 7.7 5.6 8.8 4.6zm12.9-1.6c1 1 1.7 2 2.2 3.3s.8 2.5.8 4c0 1.4-.3 2.7-.8 4s-1.3 2.3-2.2 3.4l-1.5-1.5c.8-.8 1.4-1.6 1.7-2.6.4-1 .6-2 .6-3.1s-.2-2.1-.6-3.1-1-1.8-1.7-2.6zm3.3-3.4C28 2.7 29 4.3 29.8 6.1Q31 8.8 31 11.8c0 3-.4 4-1.2 5.7-.8 1.8-1.8 3.4-3.3 4.8L25 20.7c1.2-1.2 2.1-2.6 2.8-4.1s1-3.2 1-4.9-.3-3.4-1-4.9-1.5-2.9-2.8-4.1z"
            class="quaternary"
            fill="#69cdf0"
          ></path>
          <path
            d="M29.8 6.2C30.6 8 31 9.8 31 11.9s-.4 4-1.2 5.7c-.8 1.8-1.8 3.4-3.2 4.8l-.6-.6c1.4-1.4 2.3-2.9 3.1-4.5.7-1.7 1.1-3.5 1.1-5.4s-.4-3.7-1.1-5.4c-.9-1.7-1.8-3.3-3.2-4.6l.6-.6c1.5 1.4 2.5 3 3.3 4.9m-6.6 12.9c1-1 1.7-2.1 2.2-3.4s.8-2.5.8-4c0-1.4-.3-2.7-.8-4s-1.3-2.3-2.2-3.3l-1 1c.9.9 1.5 1.7 1.9 2.9.5 1.1.7 2.2.7 3.4s-.2 2.3-.7 3.4-1.1 2-1.9 2.9zM6 21.8c-1.4-1.4-2.3-2.9-3.1-4.5-.7-1.7-1.1-3.5-1.1-5.4s.4-3.7 1.1-5.4S4.6 3.2 6 1.8l-.6-.6C3.9 2.7 2.9 4.3 2.1 6.1S1 9.7 1 11.8s.4 4 1.2 5.7c.8 1.8 1.8 3.4 3.3 4.8zm.4-13.9c-.5 1.3-.8 2.6-.8 4s.3 2.7.8 4 1.3 2.3 2.2 3.4l1-1c-.9-.9-1.5-1.8-1.9-2.9-.5-1.1-.7-2.3-.7-3.5 0-1.4.3-2.4.7-3.5.5-1.1 1.1-2 1.9-2.9l-1-1C7.7 5.6 7 6.6 6.4 7.9"
            class="st0"
            fill="#47b5df"
          ></path>
          <path
            d="M21 11.9c0-2.8-2.2-5-5-5s-5 2.2-5 5c0 2.1 1.3 3.9 3.1 4.6l-1.6 13.3h7l-1.7-13.3c1.8-.7 3.2-2.5 3.2-4.6"
            class="primary"
            fill="#ACACAC"
          ></path>
          <path
            d="M19 11.9c0-1.7-1.4-3.1-3.1-3.1s-3.1 1.4-3.1 3.1 1.4 3.1 3.1 3.1c1.7-.1 3.1-1.5 3.1-3.1m-.3 0c0 1.5-1.3 2.7-2.7 2.7s-2.7-1.3-2.7-2.7c0-1.5 1.2-2.7 2.7-2.7 1.4 0 2.7 1.1 2.7 2.7m6.9 17.9H6.3v1h19.3z"
            class="secondary"
            fill="#7E7E7E"
          ></path>
        </g></svg>
