<svg xmlns="http://www.w3.org/2000/svg"
        class="css-9txd9r"
        focusable="false"
        viewBox="0 0 48 48"
        data-icon-name="IconEquipmentQuickHitchFrontBlade"
      >
        <path
          id="IconEquipmentQuickHitchFrontBlade__outline"
          d="m40.469 44.639-5.966-6.424v-5.15l.496-7.686.494-6.672.487-3.65.734-4.157.717-3.107.708-2.125.737-1.965a2 2 0 0 0-.978-2.491l-2-1a1.997 1.997 0 0 0-2.648.828l-3.448 6.287-.063-.016a2 2 0 0 0-1.228.083l-1.25.5a2 2 0 0 0-.819.608l-1 1.25c-.18.225-.309.485-.379.764l-.25 1a2 2 0 0 0-.044.235h-2.766c-.822 0-1.552.501-1.854 1.25H10.003c-.63 0-1.222.296-1.6.8l-.75 1c-.26.346-.4.767-.4 1.2v17.75c0 .433.14.854.4 1.2l.75 1c.378.504.97.8 1.6.8h10.268a2 2 0 0 0 1.732 1h2.75v.25q0 .246.06.485l.25 1a2 2 0 0 0 .34.715l.75 1q.086.114.186.214l3.75 3.75q.1.1.214.186l2 1.5q.212.158.457.257l1.25.5q.17.068.351.104l1.25.25q.194.039.392.039h3a2 2 0 0 0 1.465-3.361Z"
          class="outline"
          fill="#fff"
        ></path>
        <g id="IconEquipmentQuickHitchFrontBlade__icon">
          <path
            d="m10.003 15-.75 1v17.75l.75 1h11.75l-.5-1.25-.75-3.5-.5-5.75.25-3 .75-4 .75-2.25z"
            class="neutral1"
            fill="#2b2b2b"
          ></path>
          <path
            d="m35.003 2 2 1-.75 2-.75 2.25-.75 3.25-.75 4.25-.5 3.75-.5 6.75-.5 7.75v6l6.5 7h-3l-1.25-.25-1.25-.5-2-1.5-3.75-3.75-.75-1-.25-1V12l.25-1 1-1.25 1.25-.5 1 .25.5.25zM22.003 13.75l-1 3.5-.75 4-.25 3 .25 2.75.25 3 .75 3.5.75 2.25h4.75v-22z"
            class="primary"
            fill="#367C2B"
          ></path>
          <path
            d="m22.003 13.75-1 3.5-.75 4-.25 3 .25 2.75.25 3 .75 3.5.75 2.25h4.75v-22z"
            class="shadow"
            fill="#353535"
            opacity=".3"
          ></path>
          <circle
            cx="23.503"
            cy="24"
            r="2"
            class="neutral1"
            fill="#2b2b2b"
          ></circle>
        </g></svg>
