<svg xmlns="http://www.w3.org/2000/svg"
        class="css-9txd9r"
        focusable="false"
        viewBox="0 0 48 48"
        data-icon-name="IconEquipmentLargeSquareBaler"
      >
        <path
          id="IconEquipmentLargeSquareBaler__outline"
          d="M48.003 28.5a2 2 0 0 0-1.368-1.897l-3.679-1.226a2 2 0 0 0-.969-.567l-.009-.002q.024-.152.024-.307v-.25c0-.215-.035-.429-.103-.632l-.75-2.25a2 2 0 0 0-.483-.782l-2.75-2.75a2 2 0 0 0-.626-.424l-1.75-.75a2 2 0 0 0-.238-.085l-1.252-.358-.134-.134-1-1a2 2 0 0 0-1.414-.586h-5.5a2 2 0 0 0-.702.127l-1.74.653-2.641.22h-.917v-2a2 2 0 0 0-2-2h-.75c-.573 0-1.09.241-1.455.628A2 2 0 0 0 14.502 14v1.25c0 .632.293 1.195.75 1.561v.605l-1.314 2.325-3.111.527a2 2 0 0 0-1.967-.729l-1.25.25a2 2 0 0 0-1.487 1.277l-1.283.217a2 2 0 0 0-1.979-.744l-1.25.25a2 2 0 0 0-1.585 2.265l1 6.5a2 2 0 0 0 2.368 1.657l1.21-.242 4.709-.744.08-.014 1.182-.236 1.58-.204 1.346 1.907a5.006 5.006 0 0 0 4.999 4.884 4.99 4.99 0 0 0 4.016-2.041 4.95 4.95 0 0 0 3.984 1.978c1.85 0 3.468-1.01 4.333-2.507q.083.007.167.007h.308l.044.132a2 2 0 0 0 2.431 1.294 3.1 3.1 0 0 0 2.341 1.073 3.13 3.13 0 0 0 2.69-1.535 2.64 2.64 0 0 0 1.129-1.11c.383-.285.66-.705.763-1.189l.545.068q.123.015.248.015h.075l4.078.72q.174.03.348.03a1.997 1.997 0 0 0 2-2v-1q0-.259-.063-.5a2 2 0 0 0 .063-.5v-1Z"
          class="outline"
          fill="#fff"
        ></path>
        <g id="IconEquipmentLargeSquareBaler__icon">
          <path
            d="m3.003 29.25-.75-5.5 14.75-2.5 1 5.75-7.75 1-1.25.25-4.75.75z"
            class="primary"
            fill="#367C2B"
          ></path>
          <path
            d="m3.003 29.25-.75-5.5 14.75-2.5 1 5.75-7.75 1-1.25.25-4.75.75z"
            class="shadow"
            fill="#353535"
            opacity=".3"
          ></path>
          <path
            d="m2.253 24.25 14.75-2.5v.5l-14.5 2.5zM2.503 25.25l14.5-2.5v.5l-14.25 2.5z"
            class="shadow"
            fill="#353535"
            opacity=".3"
          ></path>
          <path
            d="m17.003 21.25-1.5.25V23h-1.75v.25h2.75zM2.753 26.25l.25.5 14.25-2.5v-.5zM3.003 27.25l.25.5 14.25-2.5v-.5zM3.253 28.25l.25.5 14.25-2.5v-.5z"
            class="shadow"
            fill="#353535"
            opacity=".3"
          ></path>
          <path
            d="M12.253 27.25V23.5h1l-.25 3.75z"
            class="neutral2"
            fill="#808082"
          ></path>
          <path
            d="M12.253 23.5h1v1.75l-.5-1.25h-.5z"
            class="shadow"
            fill="#353535"
            opacity=".3"
          ></path>
          <path
            d="m3.003 29.25-1-6.5 1.25-.25 1 6.5z"
            class="primary"
            fill="#367C2B"
          ></path>
          <path
            d="m2.503 25 1-.25.25 1.75-1 .25z"
            class="highlight"
            fill="#fefeff"
            opacity=".31"
          ></path>
          <path
            d="M3.003 29.25v-.75l1-.25.25.75z"
            class="neutral1"
            fill="#2b2b2b"
          ></path>
          <path
            d="m9.003 28.25-1-6.5 1.25-.25 1 6.5z"
            class="primary"
            fill="#367C2B"
          ></path>
          <path
            d="m8.503 24 1-.25.25 1.75-1 .25z"
            class="highlight"
            fill="#fefeff"
            opacity=".31"
          ></path>
          <path
            d="M9.003 28.25v-.75l1-.25.25.75z"
            class="neutral1"
            fill="#2b2b2b"
          ></path>
          <circle
            cx="37.628"
            cy="32.625"
            r=".625"
            class="neutral1"
            fill="#2b2b2b"
          ></circle>
          <path
            d="M40.003 24.25v.25l-.25.5-.5 2.5h-26.75V27l1-3.25.25-.5h2.75V19.5h.75v-6h.75v6h2l1-2 3-.25 2-.75h5.5l1 1 .5.5 1.75.5 1.75.75 2.75 2.75z"
            class="primary"
            fill="#367C2B"
          ></path>
          <path
            d="M16.503 19.5v3.75h14.25l1.75-2.75-.75-1.25h3.25l.5.25.75.5 1.5 1.5 1 1 .5 1v.25l.75.5-.75-2.25-2.75-2.75-1.75-.75-1.75-.5-.5-.5-1-1h-5.5l-2 .75-3 .25-1 2z"
            class="shadow"
            fill="#353535"
            opacity=".3"
          ></path>
          <path
            d="M13.753 24.25v.5l18 .25.75.75h4.5l-.5-1.5z"
            class="stripe"
            fill="#FFDE00"
          ></path>
          <path
            d="M12.503 27v.5h20v-4h4.5l3 1v-.25l-.75-.5-2.25-.75h-5v4z"
            class="shadow"
            fill="#353535"
            opacity=".3"
          ></path>
          <path
            d="M32.503 27.5h.5V24h4l2.5.75.25.25.25-.5-3-1h-4.5z"
            class="highlight"
            fill="#fefeff"
            opacity=".31"
          ></path>
          <path
            d="m21.253 18-1.75 3.5h-2.5v1.75h-.5V21h2.75l1.75-3.5zM24.753 18l.5 2h.5l-.5-2z"
            class="shadow"
            fill="#353535"
            opacity=".3"
          ></path>
          <path
            d="m13.753 23.25-.25.5h18.5v-.5z"
            class="highlight"
            fill="#fefeff"
            opacity=".31"
          ></path>
          <path
            d="M17.253 13.5h.75v6h-.75z"
            class="shadow"
            fill="#353535"
            opacity=".3"
          ></path>
          <path
            d="M17.253 19h.75v.5h-.75z"
            class="shadow"
            fill="#353535"
            opacity=".3"
          ></path>
          <path
            d="M16.503 14h.75v1.25h-.75z"
            class="neutral1"
            fill="#2b2b2b"
          ></path>
          <path
            d="M31.253 17.5h-13.75l-3.25 5.75h.75l.25-.5h6l-.25.5h.75l.25-.5h6l-.25.5h.75l3-5.5zm-13.5.75h6l-1 1.75h-6zm3.75 4h-6l1-1.75h6zm6.75 0h-6l1-1.75h6zm1.25-2.25h-6l1-1.75h6z"
            class="primary"
            fill="#367C2B"
          ></path>
          <path
            d="M31.253 17.5h-13.75l-3.25 5.75h.75l.25-.5h6l-.25.5h.75l.25-.5h6l-.25.5h.75l3-5.5zm-13.5.75h6l-1 1.75h-6zm3.75 4h-6l1-1.75h6zm6.75 0h-6l1-1.75h6zm1.25-2.25h-6l1-1.75h6z"
            class="highlight"
            fill="#fefeff"
            opacity=".31"
          ></path>
          <path
            d="m30.753 23.25 1.75-2.75-.75-1.25-2.5 4z"
            class="shadow"
            fill="#353535"
            opacity=".3"
          ></path>
          <path
            d="m31.753 19.25.75 1.25h3.25l2.5 2.25.5.5.5.5v-.25l-.5-1-1-1-1.5-1.5-.75-.5-.5-.25z"
            class="highlight"
            fill="#fefeff"
            opacity=".31"
          ></path>
          <path
            d="m31.753 19.25 1-1.25-1.25-1.5 1.5 1.5 1.75.5 1.75.75 2.75 2.75.75 2.25v.25l-.25-.5-.75-1.75-2.75-2.75-1.5-.75-.25.5h-.5l.25-.5-1.25-.25-.5.75z"
            class="shadow"
            fill="#353535"
            opacity=".3"
          ></path>
          <path
            d="m17.253 27.5.5.5.75.5h1.75l1-.5.5-.5h6.25l.5.75 1 .5h1.5l1-.5.5-.75h6.75l.25-1.25 2 .5V28l1.5 1.75 3 .75v1l-4.25-.75h-.25l-2-.25-1.75-.25V28.5h-1.75V30l2 1v.5h.75v.75h-.75v.5l-.75.5-2 .25h-.25l-.75-.5-1 .5-.25-.75.5-.25-.5-.5h-2l-1.75-1.5h-5.5v1.25h-7.75l-3-4.25z"
            class="primary"
            fill="#367C2B"
          ></path>
          <path
            d="M13.003 27.5h4.25l.5.5.75.5h1.75l1-.5.5-.5h6.25l.5.75 1 .5h1.5l1-.5.5-.75h.5l-1.25 2.75 1 1.75h-1.75l-1.75-1.5h-5.5v1.25h-7.75z"
            class="shadow"
            fill="#353535"
            opacity=".3"
          ></path>
          <path
            d="M13.003 27.5h4.25l.5.5.75.5h1.75l1-.5.5-.5h6.25l.5.75 1 .5h1.5l1-.5.5-.75h.5l-1.25 2.75 1 1.75h-1.75l-1.75-1.5h-5.5v1.25h-7.75z"
            class="shadow"
            fill="#353535"
            opacity=".3"
          ></path>
          <path
            d="M33.003 27.5h2.25v.5h-2.5z"
            class="shadow"
            fill="#353535"
            opacity=".3"
          ></path>
          <circle
            cx="33.753"
            cy="28.75"
            r=".5"
            class="shadow"
            fill="#353535"
            opacity=".3"
          ></circle>
          <path
            d="M35.253 27.5v4l-1 .5h-1.25l.5.5-.5.25.25.75 1-.5.75.5h.25l2-.25.75-.5v-.5h.75v-.75h-.75V31l-2-1v-1.5h1.75v1.75l1.75.25 2 .25h.25l4.25.75v-1l-3-.75-1.5-1.75v-1.25l-2-.5-.25 1.25z"
            class="shadow"
            fill="#353535"
            opacity=".3"
          ></path>
          <path
            d="M35.253 27.5V29h.75v-.5h1.75v1l1.75.5v-.25l2 1h.25v-.25l-4.5-3z"
            class="shadow"
            fill="#353535"
            opacity=".3"
          ></path>
          <path
            d="M39.503 29.75v.75l2 .25h.25z"
            class="neutral1"
            fill="#2b2b2b"
          ></path>
          <circle
            cx="41.753"
            cy="29.5"
            r=".5"
            class="neutral2"
            fill="#808082"
          ></circle>
          <path
            d="M36.003 30v.75l1.25.5v.25h.75V31z"
            class="shadow"
            fill="#353535"
            opacity=".3"
          ></path>
          <path
            d="M36.003 30v.75l1.25.5v.25h.75V31zM38.003 32.25h-1.25v-.5l-1.5.75 2 .75.75-.5z"
            class="shadow"
            fill="#353535"
            opacity=".3"
          ></path>
          <path
            d="M38.003 32.25h-1.25v-.5l-1.5.75 2 .75.75-.5zM39.503 26.25l2 .5V28l-2.25-.5z"
            class="shadow"
            fill="#353535"
            opacity=".3"
          ></path>
          <path
            d="m41.503 27 4.5 1.5v1l-4.5-1.5z"
            class="neutral1"
            fill="#2b2b2b"
          ></path>
          <circle
            cx="18.503"
            cy="31.562"
            r="3"
            class="neutral1"
            fill="#2b2b2b"
          ></circle>
          <circle
            cx="18.503"
            cy="31.562"
            r="1.579"
            class="secondary"
            fill="#FFDE00"
          ></circle>
          <circle
            cx="18.503"
            cy="31.563"
            r="1.263"
            class="shadow"
            fill="#353535"
            opacity=".3"
          ></circle>
          <circle
            cx="18.503"
            cy="31.562"
            r=".632"
            class="shadow"
            fill="#353535"
            opacity=".3"
          ></circle>
          <circle
            cx="26.503"
            cy="31.5"
            r="3"
            class="neutral1"
            fill="#2b2b2b"
          ></circle>
          <circle
            cx="26.503"
            cy="31.5"
            r="1.579"
            class="secondary"
            fill="#FFDE00"
          ></circle>
          <circle
            cx="26.503"
            cy="31.5"
            r="1.263"
            class="shadow"
            fill="#353535"
            opacity=".3"
          ></circle>
          <circle
            cx="26.503"
            cy="31.5"
            r=".632"
            class="shadow"
            fill="#353535"
            opacity=".3"
          ></circle>
          <circle
            cx="36.128"
            cy="33.375"
            r="1.125"
            class="neutral1"
            fill="#2b2b2b"
          ></circle>
          <circle
            cx="36.128"
            cy="33.375"
            r=".592"
            class="secondary"
            fill="#FFDE00"
          ></circle>
          <circle
            cx="36.128"
            cy="33.375"
            r=".474"
            class="shadow"
            fill="#353535"
            opacity=".3"
          ></circle>
          <circle
            cx="36.128"
            cy="33.375"
            r=".237"
            class="shadow"
            fill="#353535"
            opacity=".3"
          ></circle>
          <path
            d="m33.253 33.5 3.5-1.75v-.25l-3.5 1.75z"
            class="shadow"
            fill="#353535"
            opacity=".3"
          ></path>
          <path
            d="m36.753 32.25-1 1 .5.5 1.5-1.5z"
            class="primary"
            fill="#367C2B"
          ></path>
          <path
            d="m36.753 32.25-1 1 .5.5 1.5-1.5z"
            class="shadow"
            fill="#353535"
            opacity=".3"
          ></path>
          <circle
            cx="36.253"
            cy="33.25"
            r=".25"
            class="neutral2"
            fill="#808082"
          ></circle>
          <path
            d="M37.753 29.5v.75l1.75.25V30z"
            class="neutral2"
            fill="#808082"
          ></path>
        </g></svg>
