<svg xmlns="http://www.w3.org/2000/svg"
      class="css-9txd9r"
      focusable="false"
      viewBox="0 0 32 32"
      data-icon-name="ImplementLiquidFertilizer"
      size="65"
    >
      <path
        d="M1 26.812a1 1 0 0 1-.976-1.217c.009-.041.914-4.182.914-9.158 0-4.846-.859-7.111-.868-7.133a1.003 1.003 0 0 1 .932-1.365c.305 0 .604.14.798.398l.075.1V8A2.88 2.88 0 0 1 4.75 5.125h12.889l1.664-.832c.139-.069.292-.105.447-.105h4.688c.155 0 .309.036.447.105l1.875.937a1 1 0 0 1 .553.895v.877c.308.019.591.18.766.437.087.129 2.141 3.216 2.141 8.061 0 1.174-.066 2.342-.198 3.483l1.412.678c.345.166.566.517.566.901V23a1 1 0 0 1-1 1h-9.587c-.606 1.651-2.2 2.812-4.007 2.812a4.22 4.22 0 0 1-2.812-1.062 4.22 4.22 0 0 1-2.812 1.062c-1.807 0-3.4-1.161-4.007-2.812H5.688a1 1 0 0 1-.952-.695c-.011-.035-.219-.691-.441-1.844l-2.4 4.799a1 1 0 0 1-.895.552M4.814 9.515c.23-.617.457-1.106.633-1.452h-.632z"
        class="outline"
        fill="#FFFFFF"
      ></path>
      <path
        d="M3.812 20.188v-7.5L1 8.938s.938 2.344.938 7.5S1 25.812 1 25.812z"
        class="tertiary"
        fill="gray"
      ></path>
      <path
        d="M3.812 20.188v-7.5L1 8.938s.938 2.344.938 7.5S1 25.812 1 25.812z"
        class="highlight"
        opacity=".3"
        fill="#fff"
      ></path>
      <path
        d="M8.5 7.062h2.812v1.875H8.5z"
        class="shadow"
        opacity=".3"
        fill="#333"
      ></path>
      <path
        d="M20.688 6.125v.938H4.75c-.562-.001-.938.375-.938.937v5.625h-.937V8A1.88 1.88 0 0 1 4.75 6.125z"
        class="tertiary"
        fill="gray"
      ></path>
      <path
        d="M31 23h-4.688v-4.688L31 20.562z"
        class="primary"
        fill="#367C2B"
      ></path>
      <path
        d="M31 23h-4.688v-4.688L31 20.562z"
        class="shadow"
        opacity=".3"
        fill="#333"
      ></path>
      <path
        d="M2.875 12.688h2.812v7.5H2.875z"
        class="secondary"
        fill="#FFDE00"
      ></path>
      <path
        d="M2.875 19.25h2.812v.938H2.875z"
        class="shadow"
        opacity=".3"
        fill="#333"
      ></path>
      <path
        d="M17.875 6.125V8h8.437V6.125l-1.874-.937H19.75z"
        class="tertiary"
        fill="gray"
      ></path>
      <path
        d="M5.688 23h22.5s1.031-2.906 1.031-7.5S27.25 8 27.25 8H6.625S4.75 10.906 4.75 15.5s.938 7.5.938 7.5"
        class="primary"
        fill="#367C2B"
      ></path>
      <path
        d="M7.562 23c0-2.438 1.406-4.688 4.219-4.688h5.625c2.812 0 4.219 2.25 4.219 4.688"
        class="shadow"
        opacity=".3"
        fill="#333"
      ></path>
      <circle
        cx="17.406"
        cy="22.531"
        r="3.281"
        class="quaternary"
        fill="#333"
      ></circle>
      <circle
        cx="17.406"
        cy="22.531"
        r="1.875"
        class="secondary"
        fill="#FFDE00"
      ></circle>
      <circle
        cx="17.406"
        cy="22.531"
        r=".938"
        class="shadow"
        opacity=".3"
        fill="#333"
      ></circle>
      <circle
        cx="11.781"
        cy="22.531"
        r="3.281"
        class="quaternary"
        fill="#333"
      ></circle>
      <circle
        cx="11.781"
        cy="22.531"
        r="1.875"
        class="secondary"
        fill="#FFDE00"
      ></circle>
      <circle
        cx="11.781"
        cy="22.531"
        r=".938"
        class="shadow"
        opacity=".3"
        fill="#333"
      ></circle>
      <path
        d="m26.312 6.125-1.874-.937H19.75l-1.875.937M9.438 9.875h.938v2.812h6.562V9.875h.938v2.812h6.562V9.875h.938v2.812h3.562C28.375 9.781 27.25 8 27.25 8H6.625S5.5 9.781 5.031 12.688h4.406V9.875z"
        class="highlight"
        opacity=".3"
        fill="#fff"
      ></path>
      <path
        d="M24.438 9.875h.938v6.562h-.938zM16.938 9.875h.938v6.562h-.938zM9.438 9.875h.938v6.562h-.938z"
        class="shadow"
        opacity=".3"
        fill="#333"
      ></path></svg>
