<svg xmlns="http://www.w3.org/2000/svg"
        class="css-9txd9r"
        focusable="false"
        viewBox="0 0 48 48"
        data-icon-name="KnuckleBoomLoader"
      >
        <g id="KnuckleBoomLoader__outline">
          <path
            d="M47.25 29.281V28.25a2 2 0 0 0-.501-1.324 2 2 0 0 0-.264-.922l.305-.609c.139-.278.211-.584.211-.894v-.5q0-.21-.043-.414l-2.75-13a2 2 0 0 0-.168-.48l-.25-.5a2 2 0 0 0-.894-.894l-.5-.25a2 2 0 0 0-.345-.134l-.186-.053a2 2 0 0 0-.969-1.063l-.5-.25a2 2 0 0 0-.894-.211h-.5a2 2 0 0 0-.142.005l-3.25.232c-.281.02-.554.099-.802.232l-.5.268c-.283.152-.526.37-.707.635l-7.042 10.317.008-.098c.119-.256.185-.541.185-.842v-.5q0-.194-.036-.378l.114-1.31a2 2 0 0 0 .172-.812v-.5q0-.173-.028-.337l.021-.239a2 2 0 0 0-.578-1.588l-.25-.25a2 2 0 0 0-1.414-.586h-.358l-1.609-.23-3.5-.5a2 2 0 0 0-.283-.02H8.753a2 2 0 0 0-1.414.586l-.25.25a2 2 0 0 0-.586 1.414v.896a2 2 0 0 0-.75-.146h-1a2 2 0 0 0-1.846 2.768l-.068.068a2 2 0 0 0-.584 1.34 2 2 0 0 0-.501 1.324v3.889l-.644.322a2 2 0 0 0-1.106 1.789v2.75A2 2 0 0 0 1.11 29.29l1 .5c.278.139.584.211.894.211h7.172l-.086.086a2 2 0 0 0-.586 1.414v.925l-.147.442-.75 2.25a2 2 0 0 0-.103.632V36c0 .949.661 1.744 1.549 1.949A2 2 0 0 0 9.754 39v.25a2 2 0 0 0 2 2h2.75a2 2 0 0 0 2-2v-.266A2 2 0 0 0 18.254 37v-.25h10V37a2 2 0 0 0 1.75 1.984v.266a2 2 0 0 0 2 2h2.75a2 2 0 0 0 2-2V39a2 2 0 0 0-.628-1.455 2 2 0 0 0-.122-.264v-.312c.159-.287.25-.617.25-.969v-4a2 2 0 0 0-.586-1.414l-.25-.25a2 2 0 0 0-1.414-.586h-4.079l2.775-4.44c.181-.29.283-.618.301-.953l2.935-5.088q.267-.142.482-.355l.5-.5q.212-.213.353-.478l1.885-1.077 1.188 3.86-.985.492A2 2 0 0 0 38.253 23v.25a1.998 1.998 0 0 0 2.435 1.952l.066-.015v.312c0 .261.051.515.146.749-.085.21-.136.438-.144.676a2 2 0 0 0-.501 1.324v1.031c-.159.287-.25.618-.25.969v3c0 .507.189.97.5 1.323v2.427a2 2 0 0 0 2 2h.5c.265 0 .518-.052.75-.145.232.094.485.145.75.145h.5a2 2 0 0 0 2-2v-2.427c.311-.353.5-.816.5-1.323v-3c0-.352-.091-.682-.25-.969Z"
            class="outline"
            fill="#fff"
          ></path>
          <path
            d="M47.25 29.281V28.25a2 2 0 0 0-.501-1.324 2 2 0 0 0-.264-.922l.305-.609c.139-.278.211-.584.211-.894v-.5q0-.21-.043-.414l-2.75-13a2 2 0 0 0-.168-.48l-.25-.5a2 2 0 0 0-.894-.894l-.5-.25a2 2 0 0 0-.345-.134l-.186-.053a2 2 0 0 0-.969-1.063l-.5-.25a2 2 0 0 0-.894-.211h-.5a2 2 0 0 0-.142.005l-3.25.232c-.281.02-.554.099-.802.232l-.5.268c-.283.152-.526.37-.707.635l-7.042 10.317.008-.098c.119-.256.185-.541.185-.842v-.5q0-.194-.036-.378l.114-1.31a2 2 0 0 0 .172-.812v-.5q0-.173-.028-.337l.021-.239a2 2 0 0 0-.578-1.588l-.25-.25a2 2 0 0 0-1.414-.586h-.358l-1.609-.23-3.5-.5a2 2 0 0 0-.283-.02H8.753a2 2 0 0 0-1.414.586l-.25.25a2 2 0 0 0-.586 1.414v.896a2 2 0 0 0-.75-.146h-1a2 2 0 0 0-1.846 2.768l-.068.068a2 2 0 0 0-.584 1.34 2 2 0 0 0-.501 1.324v3.889l-.644.322a2 2 0 0 0-1.106 1.789v2.75A2 2 0 0 0 1.11 29.29l1 .5c.278.139.584.211.894.211h7.172l-.086.086a2 2 0 0 0-.586 1.414v.925l-.147.442-.75 2.25a2 2 0 0 0-.103.632V36c0 .949.661 1.744 1.549 1.949A2 2 0 0 0 9.754 39v.25a2 2 0 0 0 2 2h2.75a2 2 0 0 0 2-2v-.266A2 2 0 0 0 18.254 37v-.25h10V37a2 2 0 0 0 1.75 1.984v.266a2 2 0 0 0 2 2h2.75a2 2 0 0 0 2-2V39a2 2 0 0 0-.628-1.455 2 2 0 0 0-.122-.264v-.312c.159-.287.25-.617.25-.969v-4a2 2 0 0 0-.586-1.414l-.25-.25a2 2 0 0 0-1.414-.586h-4.079l2.775-4.44c.181-.29.283-.618.301-.953l2.935-5.088q.267-.142.482-.355l.5-.5q.212-.213.353-.478l1.885-1.077 1.188 3.86-.985.492A2 2 0 0 0 38.253 23v.25a1.998 1.998 0 0 0 2.435 1.952l.066-.015v.312c0 .261.051.515.146.749-.085.21-.136.438-.144.676a2 2 0 0 0-.501 1.324v1.031c-.159.287-.25.618-.25.969v3c0 .507.189.97.5 1.323v2.427a2 2 0 0 0 2 2h.5c.265 0 .518-.052.75-.145.232.094.485.145.75.145h.5a2 2 0 0 0 2-2v-2.427c.311-.353.5-.816.5-1.323v-3c0-.352-.091-.682-.25-.969Z"
            class="outline"
            fill="#fff"
          ></path>
        </g>
        <g id="KnuckleBoomLoader__icon">
          <path
            d="m38.865 13.923.193.289.598-.4-.156-.312zM30.306 23.903l.5.25L34.5 17.75l-.75.25z"
            class="neutral2"
            fill="#808082"
          ></path>
          <path
            d="m27 29.75-.75-.25-.5-2.25-.75.5-1.25-1.5.75-1.25h-1.25v-1.25l1-10.75-1.75-.25-3.5-.5H8.75l-.25.25v.25h.75l.25.25v5.25H4.25l-.5.5v5.5H3l-1 .5v2.75l1 .5h.75v-1h9.75v.25l.25.5.25.25.5.25H21l.5-.25.25-.25.25-.5V27h1.25l.5 1 .75 2.5h-6v.75H27v-.5l.25-.25V30zM3 27.5l-.5-.25V25l.5-.25h.25v2.75zm10.5-8.25v-5.5l.25-.25h3.75l.25.25v5.75l-.25.25h-3.75l-.25-.25zm-3.5-5.5.25-.25h2.5l.25.25v4.75l-.25.25h-2.5L10 18.5zM15.625 28a.375.375 0 1 1 0-.75.375.375 0 0 1 0 .75m4.25 0a.375.375 0 1 1 0-.75.375.375 0 0 1 0 .75M4.25 25.75V25H21.5l.5.5.25.25zm18.5-2.25-.25.25h-2l-.25-.25-1.8-3.25-.2-.5v-6l.25-.25h4.75l.25.25zm3.625 6.25a.375.375 0 1 1 0 .75.375.375 0 0 1 0-.75"
            class="primary"
            fill="#F2A900"
          ></path>
          <path
            d="m9.5 13-.25-.25H8.5v.75l.25.25h.75zm-.5.5a.25.25 0 1 1 0-.5.25.25 0 0 1 0 .5"
            class="neutral1"
            fill="#2b2b2b"
          ></path>
          <path
            d="M10.25 13.75h2.5v4.75h-2.5zM13.75 13.75h3.75v5.75h-3.75zM18.5 19.75l.25.5 1.75 3.25h2l.75-9.75H18.5z"
            class="window"
            fill="#bbe3f3"
          ></path>
          <path
            d="M23.25 24.25V25h.5l.25-.25.109-1.25h.141V23h-.098l.218-2.5h.13V20h-.087l.217-2.5h.12V17h-.076l.217-2.5H25V14h-.065l.065-.75-.25-.25h-.5l-1 10.75z"
            class="neutral1"
            fill="#2b2b2b"
          ></path>
          <path
            d="M21.5 25H4.25v.75h18L22 25.5z"
            class="stripe"
            fill="#808082"
          ></path>
          <path
            d="m22 27.25-.25.5-.25.25h.25zM23.25 28h.25v1.5h-.25v.75h.5v.25h.75l-.75-2.5-.5-1H23v.25zM21.25 30.25h.5v-.75h-.25V28l-.5.25h-6.5L14 28l-.25-.25-.25-.5V27H3.75v1H13l1.5 1 4 1.5h2.75z"
            class="neutral1"
            fill="#2b2b2b"
          ></path>
          <path
            d="M3.25 24.75H3l-.5.25v2.25l.5.25h.25z"
            class="secondary"
            fill="#808082"
          ></path>
          <path
            d="m30 23.75-3.75 5.75.75.25.25.25v.25l3.75-6-.194-.097-.5-.25z"
            class="neutral1"
            fill="#2b2b2b"
          ></path>
          <path
            d="m44.5 25.5.5-1V24l-2.75-13-.25-.5-.5-.25-1.75-.5.25-.5V9l-.5-.25H39l-3.25.232-.5.268L24.5 25l-.75 1.25 1.25 1.5.75-.5L28 25l4.25-6.5 1.5-.5.75-.25.5-.25.5-.5.25-.5 3.5-2-.192-.288-.192-.288-.115-.173-3 1.75-.25-1.25 3-3 .5 1.25.25.5.25.5.156.312.094.188 1 1.25 1.941 6.309-.441.441-2 1v.25l2.25-.5h.5l.25.75v.5l-.5 1v.5l.5.25h1zM34.75 17a.5.5 0 1 1 0-1 .5.5 0 0 1 0 1m3.625-6.625a.5.5 0 1 1 0-1 .5.5 0 0 1 0 1m1.875 3.375a.5.5 0 1 1 0-1 .5.5 0 0 1 0 1"
            class="neutral1"
            fill="#2b2b2b"
          ></path>
          <circle
            cx="38.375"
            cy="9.875"
            r=".5"
            class="neutral2"
            fill="#808082"
          ></circle>
          <circle
            cx="34.75"
            cy="16.5"
            r=".5"
            class="neutral2"
            fill="#808082"
          ></circle>
          <circle
            cx="40.25"
            cy="13.25"
            r=".5"
            class="neutral2"
            fill="#808082"
          ></circle>
          <path
            d="M44.5 30.25v-1h.75v-1h-.5V27h-.25l-.25-.25v-1h-1v1L43 27h-.25v1.25h-.5v1H43v1h-1v3h.5V37h.5v-3h1.5v3h.5v-3.75h.5v-3zm-1.25-2.5h1v.5h-1zm1.5 4.5h-2l.25-1h1.5z"
            class="secondary"
            fill="#808082"
          ></path>
          <path
            d="M13.25 31.75v-.25l-.25-.25h-1.25l-.25.25v1.25l-.25.75-.75 2.25V36h.5l.75-2.5h.5V36h.25v2.25h1.25V36H14v-.5l.75-.75H19v-2h.5v2H26v-2h.5v2h5.25l.75.75v.5h.25v2.25H34V36h.25v-4l-.25-.25zm-1 .25v.75h-.5V31.5H13v.25h-.5zm1.25 2.75-.25-.25v1.25h.25v2h-.75v-2H13V34.5l-.25.25v-1h.75zm19.5 1h.25V34.5l-.25.25v-1h.75v1l-.25-.25v1.25h.25v2H33zM32 39v.25h2.75V39l-.75-.25h-1.25zM11.75 39v.25h2.75V39l-.75-.25H12.5z"
            class="neutral1"
            fill="#2b2b2b"
          ></path>
          <path
            d="M12.75 35.75v2h.75v-2h-.75"
            class="neutral2"
            fill="#808082"
          ></path>
          <path
            d="M13 34.5h.25v1.25H13z"
            class="neutral3"
            fill="#f2f2f2"
          ></path>
          <path
            d="M15.5 34.75h.75v1.75h-.75zM19 32.75h.5v2H19zM26 32.75h.5v2H26zM30.25 34.75H31v1.75h-.75zM33.75 35.75H33v2h.75z"
            class="neutral2"
            fill="#808082"
          ></path>
          <path
            d="M33.25 34.5h.25v1.25h-.25z"
            class="neutral3"
            fill="#f2f2f2"
          ></path>
          <path
            d="M15.5 36.5h.75v.5h-.75zM13.75 38.25H14v.5h-.25zM30.25 36.5H31v.5h-.75z"
            class="neutral1"
            fill="#2b2b2b"
          ></path>
          <path
            d="M18.5 31.25H27v.5h-8.5z"
            class="neutral2"
            fill="#808082"
          ></path>
          <circle
            cx="15.625"
            cy="27.625"
            r=".375"
            class="neutral2"
            fill="#808082"
          ></circle>
          <circle
            cx="19.875"
            cy="27.625"
            r=".375"
            class="neutral2"
            fill="#808082"
          ></circle>
          <circle
            cx="9"
            cy="13.25"
            r=".25"
            class="neutral3"
            fill="#f2f2f2"
          ></circle>
          <path
            d="m12.75 18.75.25-.25v-4.75l-.25-.25h-2.5l-.25.25v4.75l.25.25zm-2.5-5h2.5v4.75h-2.5zM9.5 17.25H6.25v-1.5l-.5-.5h-1l.5.75h.25v1.25h-1l-.25.25v.75H9.5zM14 19.75h3.5l.25-.25v-5.75l-.25-.25h-3.75l-.25.25v5.75l.25.25zm-.25-6h3.75v5.75h-3.75zM23.25 13.5H18.5l-.25.25v6l.2.5 1.8 3.25.25.25h2l.25-.25.75-9.75zm-.75 10h-2l-1.75-3.25-.25-.5v-6h4.75z"
            class="neutral1"
            fill="#2b2b2b"
          ></path>
          <path
            d="M12.5 38.25h1.25v.5H12.5z"
            class="neutral2"
            fill="#808082"
          ></path>
          <path
            d="M12.25 38.25h.25v.5h-.25zM34 38.25h.25v.5H34z"
            class="neutral1"
            fill="#2b2b2b"
          ></path>
          <path
            d="M32.75 38.25H34v.5h-1.25z"
            class="neutral2"
            fill="#808082"
          ></path>
          <path
            d="M32.5 38.25h.25v.5h-.25z"
            class="neutral1"
            fill="#2b2b2b"
          ></path>
          <path
            d="M21.75 29.5v.75h-.5v.25h2.5v-.25h-.5v-.75h.25V28h-.25l-.25-.75V27h-1v.25l-.25.75h-.25v1.5zM12.75 34.75l.25-.25h.25l.25.25v-1h-.75zM33.75 34.75v-1H33v1l.25-.25h.25z"
            class="neutral2"
            fill="#808082"
          ></path>
          <circle
            cx="26.375"
            cy="30.125"
            r=".375"
            class="neutral2"
            fill="#808082"
          ></circle>
          <path
            d="M3.75 24.25h19.5v.5H3.75zM9 18.25h.5v6H9zM4.5 18.75h4l.25.25v2.25h-4.5V19zM4.25 23.5l.25.25h4l.25-.25v-1.75h-4.5zM13.5 27v.25l.25.5.25.25.5.25H21l.5-.25.25-.25.25-.5V27zM43.25 25.75h1v2h-1zM42 31.25h1l-.5 2H42zM44.5 31.25h1v2H45zM9.5 13l-.25-.25H8.5v-.25h11l3 .25 1.75.25v.25L19.5 13zM3.75 24.25H3l-1 .5v2.75l1 .5h.75v-1.75h-.5v1.25H3l-.5-.25V25l.5-.25h.25v1.5h.5zM21.75 29.5h1.5v.75h-1.5z"
            class="shadow"
            fill="#353535"
            opacity=".3"
          ></path>
          <path
            d="M22 27v.25l-.25.75h1.5l-.25-.75V27zM21.5 28.25h2v1h-2zM23.25 25v2l.5 1 .75 2.5 1.75.25H27l.25-.25V30l-.25-.25-.75-.25-.5-2.25-.75.5-1.25-1.5.75-1.25z"
            class="shadow"
            fill="#353535"
            opacity=".3"
          ></path>
          <path
            d="M12.5 19.75h-2.25L10 20v3.5l.25.25h2.25l.25-.25V20zm0 3.5h-2.25v-.5h2.25zm0-.75h-2.25V22h2.25zm0-.75h-2.25v-.5h2.25zM42.25 28.25h3v1h-3zM42 30.25h3.5v1H42zM12.5 31.75l-.25.25v.75h22V32l-.25-.25zM39.5 8.75l.25.25v.25l-.25.5-1 1.25-3 3v.25l3-3 1.25-1.5.25-.5V9zM32.25 18.5H32L27.75 25l-2 2-.75.75.75-.5L28 25zM4.25 25.5v.25h18L22 25.5zM3.75 26.613h19.5V27H3.75zM8.75 12.25l-.25.25h11l3 .25-3.5-.5z"
            class="highlight"
            fill="#fefeff"
            opacity=".31"
          ></path>
        </g></svg>
