<svg xmlns="http://www.w3.org/2000/svg"
        class="css-9txd9r"
        focusable="false"
        viewBox="0 0 32 32"
        data-icon-name="LargeMillingMachine"
      >
        <path
          d="M14.6 26.7c-.6 0-1.2-.3-1.6-.7-.1 0-.2.1-.4.1h-2.4c-.4.4-1 .6-1.6.6H3.9c-1.3 0-2.4-1.2-2.4-2.6 0-.2 0-.4.1-.5-.4-.1-.7-.5-.7-1V18l-.4-.7c-.1-.2-.1-.4-.1-.6l.4-2.5c.1-.4.4-.7.7-.8l2.4-.6h6l.2-1.8c-.2-.2-.3-.5-.3-.7V10c.1-.5.6-1 1.2-1h6.1c.3 0 .6.2.8.4.2.3.2.6.2.9l-.3 1.1-.6 1.6 4.8.3c.2 0 .6.1 1.1.1l1.3-1.7.1-.1 4.8-4.5c-.1 0 0-.1 0-.1.2-.1.4-.2.6-.2.7 0 1.5.6 1.8 1.3.2.5.2 1.1-.2 1.5l-5 6.4-2.8 5.6c-.1.3-.4.5-.7.5h-.2c-.2 0-.5-.1-.7-.2l-1.8-1.6-.9 1.2c1.2.1 2.2 1.2 2.2 2.6s-1.1 2.6-2.4 2.6z"
          class="outline"
          fill="#FFFFFF"
        ></path>
        <path
          d="M8.6 25.7H3.9c-.8 0-1.4-.7-1.4-1.6s.6-1.6 1.4-1.6h4.7c.8 0 1.4.7 1.4 1.6s-.6 1.6-1.4 1.6M4 23.1c-.5 0-.9.4-.9 1s.4 1 .9 1h4.5c.5 0 .9-.4.9-1s-.4-1-.9-1z"
          class="quaternary"
          fill="#ffde00"
        ></path>
        <path
          d="M8.5 25.4H3.9c-.6 0-1.1-.6-1.1-1.2 0-.7.5-1.2 1.1-1.2h4.6c.6 0 1.1.6 1.1 1.2-.1.6-.5 1.2-1.1 1.2m-4.3-2.1c-.4 0-.7.3-.7.8 0 .4.3.8.7.8h4c.4 0 .7-.3.7-.8 0-.4-.3-.8-.7-.8z"
          class="senary"
          fill="#333"
        ></path>
        <path
          d="M5.7 21.3h.8v1.2h-.8zM16.5 21.3h.8v1.2h-.8z"
          class="quinary"
          fill="#636c79"
        ></path>
        <path
          d="M16.8 10.6 15.6 15l-.7 4.4h-4.1l.9-9z"
          class="window"
          opacity=".3"
          fill="#5dc9e8"
        ></path>
        <path
          d="M14.1 16v.5h-.8l-.3 3h-.4l.2-3h-.4l-.4-1.1h.5l.2.6zM14.9 19.4h-.7z"
          class="quinary"
          fill="#636c79"
        ></path>
        <path d="M15.3 15h-4.1l.1-.6h4.1z" class="senary" fill="#333"></path>
        <path
          d="m30.8 8.9-5.2 6.5-2.8 5.7-2.9-2.6 1.5-2.1 2-1.8 1.7-2.3 4.8-4.5c.3-.2 1.3.7.9 1.1"
          class="quinary"
          fill="#636c79"
        ></path>
        <path
          d="m20.8 17.5 2.5-.1.7-2.5-4.1-.4z"
          class="senary"
          fill="#333"
        ></path>
        <path
          d="M2.7 21.5h6.7l4.4.3h4.1c2.2-2.9 4-5.4 4-5.4l-.9-.9-5.8-.9L15 19l-.8.4h-3.4l.1-1.7-.9-.2-.9-1.9-2.3-1.1H3.9l-1.6.7v5z"
          class="primary"
          fill="#DBE2E1"
        ></path>
        <path
          d="M2.4 15.2h6.8v.4H2.4zM2.4 14.5H8v.3H2.4z"
          class="secondary"
          fill="#FB5A02"
        ></path>
        <path
          d="M3.2 18.6h-1v-.2h.9l1.1-.9h5.9v.2H4.2z"
          class="senary"
          fill="#333"
        ></path>
        <path
          d="m12.8 24-.2 1.1h-2.1l-.5-2.4-1.8-1.3h1.5v-.5h1.1v-1.6h-.4l.8-8.6c0-.1 0-.2-.1-.2h-.2v-.4c0-.1 0-.1.1-.1l6.2.1-.4 1.2h-4.6c-.1 0-.2.1-.2.2l-.2 4.5h.7v3.4h.4V21h.6zM8.2 23.3H6.7l.1-1.1H5.5l.1 1.1H4.2c-.4 0-.7.3-.7.8 0 .4.3.8.7.8h4c.4 0 .7-.3.7-.8 0-.4-.3-.8-.7-.8"
          class="quinary"
          fill="#636c79"
        ></path>
        <path
          d="M11 10.5c-.1 0-.1-.1-.1-.1v-.1z"
          class="quinary"
          fill="#636c79"
        ></path>
        <path
          d="m22.1 16.4-6.2-.9v-.3l5.8.7zM21.5 15.8l-5.7-.9v-.1l5.5.8z"
          class="secondary"
          fill="#FB5A02"
        ></path>
        <path
          d="m3 21.4-.1 1.2h-1v-4.8l-.5-.9.4-2.5 2.4-.6h5.6l1.3 1.2-.3 2.7h-.7l-.6-1.5c-.1-.3-.4-.9-1.1-1l-1.8-.7H4.1l-1 .2q-.6.15-.6.9v4.2z"
          class="quinary"
          fill="#636c79"
        ></path>
        <path
          d="M5.1 20.1h2v1h-2zM16 14.4l-.8 5h-1.1l.3-3.6h.8l.1-1.5z"
          class="quinary"
          fill="#636c79"
        ></path>
        <path
          d="m22.8 15.5-7.6-1.2.5.5 5.1.8c.3 0 .6.2.9.5l.3.3z"
          class="quinary"
          fill="#636c79"
        ></path>
        <path
          d="m16 13.9 5.9.4c.3 0 1.8.3 2.1.4v.4h-1.1v1.2l-.6-.1-.6-.8-5.9-1.1z"
          class="primary"
          fill="#DBE2E1"
        ></path>
        <path
          d="M8.5 22.7H6.8v.4h.5v.9h.6l.1-.2c.1-.1.2-.2.3-.2h1.3c0 .1.1.2.1.4 0 .7-.5 1.2-1.1 1.2H4c-.6 0-1.1-.5-1.1-1.2 0-.1 0-.3.1-.4h1.3c.1 0 .2.1.3.2l.1.2h.6v-.9h.3v-.4H4c-.7 0-1.2.6-1.2 1.3s.5 1.3 1.2 1.3h4.5c.7 0 1.2-.6 1.2-1.3-.1-.7-.6-1.3-1.2-1.3"
          class="tertiary"
          fill="#fa3a00"
        ></path>
        <ellipse
          cx="5"
          cy="23.6"
          class="primary"
          rx=".2"
          ry=".3"
          fill="#DBE2E1"
        ></ellipse>
        <ellipse
          cx="7.5"
          cy="23.6"
          class="primary"
          rx=".2"
          ry=".3"
          fill="#DBE2E1"
        ></ellipse>
        <path
          d="M19.4 25.7h-4.7c-.8 0-1.4-.7-1.4-1.6s.6-1.6 1.4-1.6h4.7c.8 0 1.4.7 1.4 1.6s-.7 1.6-1.4 1.6m-4.6-2.6c-.5 0-.9.4-.9 1s.4 1 .9 1h4.5c.5 0 .9-.4.9-1s-.4-1-.9-1z"
          class="quaternary"
          fill="#ffde00"
        ></path>
        <path
          d="M19.2 25.4h-4.6c-.6 0-1.1-.6-1.1-1.2 0-.7.5-1.2 1.1-1.2h4.6c.6 0 1.1.6 1.1 1.2s-.5 1.2-1.1 1.2M15 23.3c-.4 0-.7.3-.7.8 0 .4.3.8.7.8h4c.4 0 .7-.3.7-.8 0-.4-.3-.8-.7-.8z"
          class="senary"
          fill="#333"
        ></path>
        <path
          d="M19 23.3h-1.5l.1-1.1h-1.3l.1 1.1H15c-.4 0-.7.3-.7.8 0 .4.3.8.7.8h4c.4 0 .7-.3.7-.8 0-.4-.3-.8-.7-.8"
          class="quinary"
          fill="#636c79"
        ></path>
        <path
          d="M19.2 22.7h-1.7v.4h.5v.9h.6l.1-.2c.1-.1.2-.2.3-.2h1.3c0 .1.1.2.1.4 0 .7-.5 1.2-1.1 1.2h-4.5c-.6 0-1.1-.5-1.1-1.2 0-.1 0-.3.1-.4h1.3c.1 0 .2.1.3.2l.1.2h.6v-.9h.3v-.4h-1.6c-.7 0-1.2.6-1.2 1.3s.5 1.3 1.2 1.3h4.5c.7 0 1.2-.6 1.2-1.3-.1-.7-.6-1.3-1.3-1.3"
          class="tertiary"
          fill="#fa3a00"
        ></path>
        <ellipse
          cx="15.7"
          cy="23.6"
          class="primary"
          rx=".2"
          ry=".3"
          fill="#DBE2E1"
        ></ellipse>
        <ellipse
          cx="18.3"
          cy="23.6"
          class="primary"
          rx=".2"
          ry=".3"
          fill="#DBE2E1"
        ></ellipse></svg>
