<svg xmlns="http://www.w3.org/2000/svg"
  class="css-9txd9r"
  focusable="false"
  viewBox="0 0 48 48"
  data-icon-name="IconEquipmentLoader"
  size="65"
>
  <path
    id="IconEquipmentLoader__outline"
    d="m47.691 34.932-2.902-4.595-1.654-4.135.654-1.308a2 2 0 0 0 .109-1.527l-.25-.75a2 2 0 0 0-1.897-1.368h-3.75c-.627 0-1.209.293-1.583.778-.288.049-.563.16-.805.328l-1.231.852-.175-.285a2 2 0 0 0-.276-1.509l-2.75-4.25a2 2 0 0 0-.308-.369 2 2 0 0 0-.457-.708l-1-1a2 2 0 0 0-.782-.483l-.75-.25a2 2 0 0 0-.191-.053l-12.765-2.89a2 2 0 0 0-.934-.766l-2.5-1a2 2 0 0 0-.743-.143h-.5a2 2 0 0 0-1.414.586l-.5.5q-.211.212-.352.476l-1.163 2.188H4.751q-.246 0-.485.06l-1 .25a2 2 0 0 0-.624.276l-.75.5a2 2 0 0 0-.305.25l-.5.5c-.192.192-.342.42-.443.671l-.5 1.25A2 2 0 0 0 0 17.75v.5q0 .246.06.485l.25 1q.053.214.151.409l.25.5q.145.29.375.52l.147.147-.522 1.044a2 2 0 0 0-.068 1.637l.5 1.25q.031.078.068.152l.5 1A2 2 0 0 0 3.5 27.5h1q.165 0 .329-.027l1.426-.238c.298.171.64.265.995.265h6.887l1.51.566 1.475.843.981.785.896 1.046v3.76a2 2 0 0 0 .586 1.414l.25.25a2 2 0 0 0 1.414.586h1a2 2 0 0 0 1.414-.586l.25-.25a2 2 0 0 0 .586-1.414v-5.75q0-.246-.06-.485l-.25-1a2 2 0 0 0-.276-.624l-.5-.75a2 2 0 0 0-.102-.14l-1-1.25a2 2 0 0 0-.281-.287l-.968-.807 1.907-.109.616.616c.259.259.579.437.922.524l1.573 5.373q.05.172.131.333l.5 1c.162.324.409.598.715.793l1.631 1.038c.118.481.412.908.833 1.189l1.465.977c.068.2.167.389.295.559l1.5 2a2 2 0 0 0 1.6.8H45.5a2 2 0 0 0 1.414-.586l.25-.25.25-.25a2 2 0 0 0 .277-2.482"
    class="outline"
    fill="#fff"
  ></path>
  <g id="IconEquipmentLoader__icon">
    <path
      d="M7.253 25.5h7.25l2 .75 1.75 1 1.25 1 1.5 1.75v4.5l.25.25h1l.25-.25v-5.75l-.25-1-.5-.75-1-1.25-1.5-1.25-1-.75-5-2.5-2.75-.75-.75 1.75z"
      class="primary"
      fill="#367C2B"
    ></path>
    <path
      d="M7.253 25.5h2.5l2.5-4-2.25.25-.25.5z"
      class="shadow"
      fill="#353535"
      opacity=".3"
    ></path>
    <path
      d="M8.753 15.25h-4l-1 .25-.75.5-.5.5-.5 1.25v.5l.25 1 .25.5.75.75.75.25.75.25h1.25l.25-1h-1.5l-.75-.25-.5-.25-.5-.75V18l.5-1.25.75-.5h4z"
      class="neutral1"
      fill="#2b2b2b"
    ></path>
    <path
      d="M23.753 19.25v2l1.25 1.25 1-.25-1-3.25-5-1.25z"
      class="primary"
      fill="#367C2B"
    ></path>
    <path
      d="m31.003 23.25 2 3.25.25-.25.5-.25-2-3.25z"
      class="neutral2"
      fill="#808082"
    ></path>
    <path
      d="m28.003 19 .25 1 2.5 3.75 1.5-1.25-2.75-4.25-.5-.25z"
      class="primary"
      fill="#367C2B"
    ></path>
    <path
      d="m28.003 19 .25 1v-.75l.75-.75.5-.25-.5-.25z"
      class="shadow"
      fill="#353535"
      opacity=".3"
    ></path>
    <path
      d="m33.503 26.25 3.25-2.25h.5l.5.25-.25.75-3.25 2.25z"
      class="primary"
      fill="#367C2B"
    ></path>
    <path
      d="m33.503 26.25 3.25-2.25h.5l.5.25-.25.75-3.25 2.25z"
      class="shadow"
      fill="#353535"
      opacity=".3"
    ></path>
    <path
      d="m31.253 32-2.75-1.75-.5-1-3-10.25-1.25-.25L13.503 16l-.75-.25.75-2.5h.5l13.25 3 .75.25 1 1v.5l-1 1 .25 1 2 7.25 2.25 3z"
      class="primary"
      fill="#367C2B"
    ></path>
    <path
      d="M13.503 14.25v-.75l.75.25v.75l-.75 1.5-.75-.25z"
      class="shadow"
      fill="#353535"
      opacity=".3"
    ></path>
    <path
      d="m23.753 21.25-8.75.5V20l8.75-.75z"
      class="primary"
      fill="#367C2B"
    ></path>
    <path d="M21.003 19.5h1v1.75h-1z" class="neutral1" fill="#2b2b2b"></path>
    <path
      d="m15.003 20.25-4.5.25-.75 1.25 5.25-.5z"
      class="neutral2"
      fill="#808082"
    ></path>
    <path
      d="m7.253 25.5-.5-.75-.75.5-1.5.25h-1l-.5-1-.5-1.25 1-2 1.5-.25.5-1 4.25-8 .5-.5h.5l2.5 1 .25.75v1l-3.75 8z"
      class="primary"
      fill="#367C2B"
    ></path>
    <path
      d="m8.003 17 3.25 2-.5 1-3.25-1.75-1.75 3.25-1.75.25-1 1.5v1.25l-.5-1.25 1-2 1.5-.25 4.75-9 .5-.5h.5l2.5 1 .25.75-2.75-1-.5.5z"
      class="highlight"
      fill="#fefeff"
      opacity=".31"
    ></path>
    <circle cx="28.003" cy="18" r=".5" class="neutral2" fill="#808082"></circle>
    <circle
      cx="25.128"
      cy="21.125"
      r=".625"
      class="neutral2"
      fill="#808082"
    ></circle>
    <circle
      cx="30.128"
      cy="29.625"
      r=".875"
      class="neutral1"
      fill="#2b2b2b"
    ></circle>
    <circle
      cx="12.003"
      cy="14.25"
      r=".75"
      class="neutral2"
      fill="#808082"
    ></circle>
    <circle
      cx="8.253"
      cy="21.75"
      r=".75"
      class="neutral2"
      fill="#808082"
    ></circle>
    <path
      d="m33.253 34-2.25-1.5V32l1.75-3v-2.75l.25-.25.5-.25h.25l.5.25.25.25v4l.5.25z"
      class="primary"
      fill="#367C2B"
    ></path>
    <path
      d="m33.253 34-2.25-1.5V32l1.75-3v-2.75l.25-.25.5-.25h.25l.5.25.25.25v4l.5.25z"
      class="shadow"
      fill="#353535"
      opacity=".3"
    ></path>
    <path
      d="m38.003 23.25-.25.5-4.5 10.25v.5l1.5 2h10.75l.25-.25.25-.25-3-4.75-2-5V26l1-2-.25-.75z"
      class="primary"
      fill="#367C2B"
    ></path>
    <circle cx="33.753" cy="27" r=".5" class="neutral2" fill="#808082"></circle>
    <circle cx="32.753" cy="32" r=".5" class="neutral2" fill="#808082"></circle>
    <path
      d="m38.003 23.25-.25.5-4.5 10.25v.5l5.25-10.5h3.5l-.25-.75z"
      class="highlight"
      fill="#fefeff"
      opacity=".31"
    ></path>
    <path
      d="m41.003 26.25 1.75 5.25.5 1h-2.75l-.484.25.234 3.75h.75l-.25-3.25h3l1.75 3.25.25-.25.25-.25-3-4.75z"
      class="shadow"
      fill="#353535"
      opacity=".3"
    ></path>
    <path
      d="m14.253 13.75 12.75 2.75.75.25 1.25 1.25v-.5l-1-1-.75-.25-13.25-3h-.5v.25z"
      class="highlight"
      fill="#fefeff"
      opacity=".31"
    ></path>
    <path
      d="m26.003 22.25.5-.5.5.25.5-2 .5-1 .25 1 .5 1.75-2.25 2.25z"
      class="shadow"
      fill="#353535"
      opacity=".3"
    ></path>
    <path
      d="M26.253 19.5v-2l-3.5-1-7-2-.5.5 7.25 2.25.25 1z"
      class="stripe"
      fill="#FFDE00"
    ></path>
    <circle
      cx="19.878"
      cy="26.625"
      r=".625"
      class="neutral2"
      fill="#808082"
    ></circle>
  </g>
</svg>
