<svg xmlns="http://www.w3.org/2000/svg"
        class="css-9txd9r"
        focusable="false"
        viewBox="0 0 48 48"
        data-icon-name="Loader"
      >
        <path
          id="Loader__outline"
          d="m47.414 33.336-.25-.25-.108-.108-.056-.224V31.5q0-.198-.039-.392l-.25-1.25a2 2 0 0 0-.064-.24l-.25-.75a2 2 0 0 0-.109-.262l-.5-1-.5-1a2 2 0 0 0-1.789-1.106h-2.25a2 2 0 0 0-1.987 1.767 2.065 2.065 0 0 0-.622.015l.216-.54c.095-.236.143-.488.143-.743v-2.25c0-.215-.035-.429-.103-.632l-.25-.75-.25-.75-.25-.75-.25-.75a2 2 0 0 0-.483-.782l-.25-.25a2 2 0 0 0-1.414-.586h-.5a2 2 0 0 0-1.414.586l-.25.25-.059.061-.466.127a2 2 0 0 0-.846.049l-.97.27-.385-.257a2 2 0 0 0-.215-.125l-.5-.25-.5-.25a2 2 0 0 0-.894-.211H28c-.31 0-.617.072-.894.211l-.5.25a2 2 0 0 0-.428.289h-.554l-.821-3.988a2.001 2.001 0 0 0 .305-2.005l-.5-1.25a2 2 0 0 0-1.857-1.257h-8.75a2 2 0 0 0-1.857 1.257l-.5 1.25a2 2 0 0 0-.06.173l-.438-.219a2 2 0 0 0-.894-.211h-1a2 2 0 0 0-1.94 2.485l.004.015h-.313a2 2 0 0 0-1.414.586l-.25.25a2 2 0 0 0-.586 1.414v.251l-.235.059-1 .25a2 2 0 0 0-.624.276l-.75.5a2 2 0 0 0-.762.958 2 2 0 0 0-.629 1.456v3.939c-.457.367-.75.93-.75 1.561v1.75a2 2 0 0 0 1.064 1.768l4.25 2.25c.288.153.61.232.936.232h.459c1.121 2.244 3.452 3.75 6.041 3.75a6.71 6.71 0 0 0 5.75-3.25h6.25a2 2 0 0 0 .454-.052 6.7 6.7 0 0 0 5.796 3.302 6.72 6.72 0 0 0 5.681-3.123l.086.129.19.381c.15.299.163.312.879 1.028a2 2 0 0 0 1.414.586h1.028l.078.039q.127.064.262.109l.75.25q.308.102.632.103h1.875l1.876.235q.124.015.249.016a2 2 0 0 0 1.414-3.414Z"
          class="outline"
          fill="#fff"
        ></path>
        <g id="Loader__icon">
          <path
            d="M7.75 18.75H8V18l-.25-.25H7l-.25.25v.75H7v1l.75-.125z"
            class="neutral1"
            fill="#2b2b2b"
          ></path>
          <path
            d="m35.062 21.37-.051-.304-2.205.601.097.292z"
            class="neutral2"
            fill="#808082"
          ></path>
          <path
            d="M8.75 25.5v.5l.5-.5zM17.75 14.25h5.5l-.5-1.25H14l-.5 1.25h4.25"
            class="primary"
            fill="#F2A900"
          ></path>
          <path
            d="M22 22.75h2.25l-1.75-8.5h-.75zM18.25 20h3.25l-.25-5.75h-3zM15 20h2.75v-5.75h-2.5z"
            class="window"
            fill="#bbe3f3"
          ></path>
          <path
            d="M24.25 22.75H22l-.25-8.5h-.5L21.5 20h-3.25v-5.75h-.5V20H15l.25-5.75h-.5l-.228 5.25h-.272v5H24.5V24zm-2.75 0-.25.25h-1l-.25-.25-.5-1.75v-.25l.25-.25h1.5l.25.25zM9.75 18.5l-.25 1h2l-.25-1H11V16l-.25-.5-.5-.25h-1l.25 1h.5v2.25zM21.25 27h1.5v1.5h-1.5zM27.75 22.25v-.75l.25-.25h.5l.5.25.5.25.691.461-1.657.46 1.385.606L33 22.25l-.097-.292-.097-.291-.056-.167-1.539.428-.711-.178-.75-.5-.5-.25-.5-.25H28l-.5.25-.25.5v.609l.639.28zM34.25 24.5l-.25-.25-.25-.25-.5-.25-.5.25-.35.35.35.15 1 .5 1 .75L35 25l.062-.25h-.312z"
            class="neutral1"
            fill="#2b2b2b"
          ></path>
          <path
            d="m38.25 31-2-3.25.25-.5L37 26v-2.25l-.25-.75-.25-.75-.25-.75-.25-.75-.25-.25h-.5l-.25.25V21l.011.065.051.304.188 1.13v1.5l-.188.75-.062.25-.25.75-1-.75-1-.5-.35-.15-1.4-.6-1.081-.473-1.385-.606-.645-.282-.639-.28-.25-.109v1l1 1 1 .75.179.143.571-.143h.75l.5.5h-1l-.286.071.342.274a4.75 4.75 0 0 1 5.694 4.655c0 .079-.019.152-.023.23l.023.02 2.25 1.75v-.5l.25-.75Z"
            class="secondary"
            fill="#808082"
          ></path>
          <path
            d="m45.75 34.5-.5-.5-.25-1v-1.5l-.25-1.25-.25-.75-.5-1-.5-1h-2.25v.75l-.25.5-.25.25-.5.25-.5.25h-.25l-.5-.25-.25.75-.5 1-.25.75v.5l.5.75.247.495c.003.005.503.505.503.505h1.5l.5.25.75.25h2l2 .25zm-7.125-2.25a.375.375 0 1 1 0-.75.375.375 0 0 1 0 .75"
            class="primary"
            fill="#F2A900"
          ></path>
          <circle
            cx="31"
            cy="30.25"
            r="2.5"
            class="primary"
            fill="#F2A900"
          ></circle>
          <path
            d="m30.056 25.595-.342-.274L29 25.5l-.75.25-.75.5-.75.75-.5 1-.25 1-.25 1.25-.25-.25-.25-.75.25-1 .25-.75.5-1 .5-.5.5-.5.75-.25.75-.25.429-.107L29 24.75 28 24l-1-1v-1l-.25-.5H25.5l-.25.5v3.25l-.25.25-.25.5v.5h-2v2.75h-1.5v-3h2.25l.75-.75.25-.75v-.25H14v-2.75h-1.5v-.5h-1.75l-1-.75H7l-1 .23-2 .52-.96.38-.29.12v5.5H2V29l4.25 2.25h1.86c-.07-.32-.11-.66-.11-1 0-1.14.42-2.18 1.1-3l.2-.25c.01-.01.02-.02.03-.02.28-.29.59-.54.93-.76.59-.36 1.26-.6 1.99-.67l.25-.05H11l-1 .5-1 .75-.38.5-.37.5-.5 1.5-.25 1-.25-.25-.25-.5.25-.87.25-.88.25-.5.13-.25.12-.25.75-.75v-.5h.5l1-.5 1.5-.25h.75l.25.5h-.25v.25c.085-.004.164 0 .25 0a4.75 4.75 0 0 1 4.75 4.75c0 .52-.104 1.011-.258 1.479l.008.021h7.5V31h1.576a5 5 0 0 1-.076-.75 4.75 4.75 0 0 1 3.806-4.655M26.125 22a.375.375 0 1 1 0 .75.375.375 0 0 1 0-.75m-3.375 8.75h-1.5V30h1.5z"
            class="primary"
            fill="#F2A900"
          ></path>
          <path
            d="m7.88 27-.13.25-.25.5-.25.88v-1.38h-4.5V27zM9.1 27.25c-.68.82-1.1 1.86-1.1 3 0 .34.04.68.11 1h-.86V30l.25.25.25-1 .5-1.5.37-.5.19-.25h.49zM8.5 26.25l.25-.25v-.5h.5l.5-.25h-1v-4.779H8.5zM12.25 24.75h.25v-3.5h-.25z"
            class="shadow"
            fill="#353535"
            opacity=".3"
          ></path>
          <path d="M14 24.5h.25v-5H14v5" class="primary" fill="#F2A900"></path>
          <path
            d="M14 24.5h.25v-2.75H14v2.75"
            class="shadow"
            fill="#353535"
            opacity=".3"
          ></path>
          <path
            d="M20.25 23h1l.25-.25v-2l-.25-.25h-1.5l-.25.25V21l.5 1.75z"
            class="window"
            fill="#bbe3f3"
          ></path>
          <circle
            cx="26.125"
            cy="22.375"
            r=".375"
            class="neutral2"
            fill="#808082"
          ></circle>
          <circle
            cx="38.625"
            cy="31.875"
            r=".375"
            class="neutral2"
            fill="#808082"
          ></circle>
          <path
            d="M40.75 34h-1.5l-.5-.5-.25-.5-.5-.75v-.5l.25-.75.5-1 .25-.75.5.25h.25l1-.5-.25.75-.75 1-.25.75v1l.75 1.25z"
            class="shadow"
            fill="#353535"
            opacity=".3"
          ></path>
          <circle
            cx="4.625"
            cy="22.375"
            r=".375"
            class="shadow"
            fill="#353535"
            opacity=".3"
          ></circle>
          <circle
            cx="3.875"
            cy="22.375"
            r=".375"
            class="shadow"
            fill="#353535"
            opacity=".3"
          ></circle>
          <circle
            cx="3.875"
            cy="23.125"
            r=".375"
            class="shadow"
            fill="#353535"
            opacity=".3"
          ></circle>
          <circle
            cx="3.875"
            cy="23.875"
            r=".375"
            class="shadow"
            fill="#353535"
            opacity=".3"
          ></circle>
          <circle
            cx="3.875"
            cy="24.625"
            r=".375"
            class="shadow"
            fill="#353535"
            opacity=".3"
          ></circle>
          <circle
            cx="3.875"
            cy="25.375"
            r=".375"
            class="shadow"
            fill="#353535"
            opacity=".3"
          ></circle>
          <circle
            cx="3.875"
            cy="26.125"
            r=".375"
            class="shadow"
            fill="#353535"
            opacity=".3"
          ></circle>
          <circle
            cx="5.375"
            cy="22.375"
            r=".375"
            class="shadow"
            fill="#353535"
            opacity=".3"
          ></circle>
          <circle
            cx="6.125"
            cy="22.375"
            r=".375"
            class="shadow"
            fill="#353535"
            opacity=".3"
          ></circle>
          <circle
            cx="6.875"
            cy="22.375"
            r=".375"
            class="shadow"
            fill="#353535"
            opacity=".3"
          ></circle>
          <circle
            cx="7.625"
            cy="22.375"
            r=".375"
            class="shadow"
            fill="#353535"
            opacity=".3"
          ></circle>
          <circle
            cx="4.625"
            cy="23.125"
            r=".375"
            class="shadow"
            fill="#353535"
            opacity=".3"
          ></circle>
          <circle
            cx="5.375"
            cy="23.125"
            r=".375"
            class="shadow"
            fill="#353535"
            opacity=".3"
          ></circle>
          <circle
            cx="6.125"
            cy="23.125"
            r=".375"
            class="shadow"
            fill="#353535"
            opacity=".3"
          ></circle>
          <circle
            cx="6.875"
            cy="23.125"
            r=".375"
            class="shadow"
            fill="#353535"
            opacity=".3"
          ></circle>
          <circle
            cx="7.625"
            cy="23.125"
            r=".375"
            class="shadow"
            fill="#353535"
            opacity=".3"
          ></circle>
          <circle
            cx="4.625"
            cy="23.875"
            r=".375"
            class="shadow"
            fill="#353535"
            opacity=".3"
          ></circle>
          <circle
            cx="5.375"
            cy="23.875"
            r=".375"
            class="shadow"
            fill="#353535"
            opacity=".3"
          ></circle>
          <circle
            cx="6.125"
            cy="23.875"
            r=".375"
            class="shadow"
            fill="#353535"
            opacity=".3"
          ></circle>
          <circle
            cx="6.875"
            cy="23.875"
            r=".375"
            class="shadow"
            fill="#353535"
            opacity=".3"
          ></circle>
          <circle
            cx="7.625"
            cy="23.875"
            r=".375"
            class="shadow"
            fill="#353535"
            opacity=".3"
          ></circle>
          <circle
            cx="4.625"
            cy="24.625"
            r=".375"
            class="shadow"
            fill="#353535"
            opacity=".3"
          ></circle>
          <circle
            cx="5.375"
            cy="24.625"
            r=".375"
            class="shadow"
            fill="#353535"
            opacity=".3"
          ></circle>
          <circle
            cx="6.125"
            cy="24.625"
            r=".375"
            class="shadow"
            fill="#353535"
            opacity=".3"
          ></circle>
          <circle
            cx="6.875"
            cy="24.625"
            r=".375"
            class="shadow"
            fill="#353535"
            opacity=".3"
          ></circle>
          <circle
            cx="7.625"
            cy="24.625"
            r=".375"
            class="shadow"
            fill="#353535"
            opacity=".3"
          ></circle>
          <circle
            cx="4.625"
            cy="25.375"
            r=".375"
            class="shadow"
            fill="#353535"
            opacity=".3"
          ></circle>
          <circle
            cx="5.375"
            cy="25.375"
            r=".375"
            class="shadow"
            fill="#353535"
            opacity=".3"
          ></circle>
          <circle
            cx="6.125"
            cy="25.375"
            r=".375"
            class="shadow"
            fill="#353535"
            opacity=".3"
          ></circle>
          <circle
            cx="6.875"
            cy="25.375"
            r=".375"
            class="shadow"
            fill="#353535"
            opacity=".3"
          ></circle>
          <circle
            cx="7.625"
            cy="25.375"
            r=".375"
            class="shadow"
            fill="#353535"
            opacity=".3"
          ></circle>
          <circle
            cx="4.625"
            cy="26.125"
            r=".375"
            class="shadow"
            fill="#353535"
            opacity=".3"
          ></circle>
          <circle
            cx="5.375"
            cy="26.125"
            r=".375"
            class="shadow"
            fill="#353535"
            opacity=".3"
          ></circle>
          <circle
            cx="6.125"
            cy="26.125"
            r=".375"
            class="shadow"
            fill="#353535"
            opacity=".3"
          ></circle>
          <circle
            cx="6.875"
            cy="26.125"
            r=".375"
            class="shadow"
            fill="#353535"
            opacity=".3"
          ></circle>
          <circle
            cx="7.625"
            cy="26.125"
            r=".375"
            class="shadow"
            fill="#353535"
            opacity=".3"
          ></circle>
          <path
            d="M15 20.5h4l-.75 1.5-.25.25-.25.25h-.5L15 22z"
            class="highlight"
            fill="#fefeff"
            opacity=".31"
          ></path>
          <circle
            cx="35.5"
            cy="21"
            r=".25"
            class="neutral2"
            fill="#808082"
          ></circle>
          <path
            d="M18.5 26.25h1.75V27H18.5zM18.5 27.583h1.75v.75H18.5zM18 31.5h2.75v.25H18z"
            class="shadow"
            fill="#353535"
            opacity=".3"
          ></path>
          <path
            d="M12.75 25.25H12l-1 .25-1 .5-1 .75-.38.5-.37.5-.5 1.5-.25 1-.25-.25-.25-.5.25-.87.25-.88.25-.5.13-.25.12-.25 1.25-1.25 1-.5 1.5-.25h.75zM31 25.5a4.75 4.75 0 0 0-4.75 4.75c0 .257.036.504.076.75.362 2.265 2.308 4 4.674 4 2.545 0 4.604-2.006 4.727-4.52.004-.078.023-.151.023-.23A4.75 4.75 0 0 0 31 25.5m0 7.25a2.5 2.5 0 1 1 0-5 2.5 2.5 0 0 1 0 5"
            class="neutral1"
            fill="#2b2b2b"
          ></path>
          <path
            d="m28 25.25-.75.25-.5.5-.5.5-.5 1-.25.75-.25 1 .25.75.25.25L26 29l.25-1 .5-1 .75-.75.75-.5.75-.25.714-.179.286-.071h1l-.5-.5h-.75l-.571.143-.429.107z"
            class="neutral1"
            fill="#2b2b2b"
          ></path>
          <circle
            cx="31"
            cy="30.25"
            r="2"
            class="shadow"
            fill="#353535"
            opacity=".3"
          ></circle>
          <circle
            cx="31"
            cy="30.25"
            r="1"
            class="shadow"
            fill="#353535"
            opacity=".3"
          ></circle>
          <path
            d="M15 20.5v.5h3.75l.25-.5zM24.5 24v.5H14.25V24z"
            class="highlight"
            fill="#fefeff"
            opacity=".31"
          ></path>
          <path
            d="M22.75 26.5v2.75h-1.5v-3h2.25l.5-.5h-3.25v6h4V26.5zm0 4.25h-1.5V30h1.5zM18 25.75v6h-.77q.01-.01.01-.02c.16-.47.26-.96.26-1.48 0-1.68-.87-3.16-2.19-4-.33-.21-.68-.38-1.06-.5z"
            class="shadow"
            fill="#353535"
            opacity=".3"
          ></path>
          <path
            d="M27 22v.25l5.5 2.5 1 .5 1.25 1 .5.5 1 1.25 2 3-2-3.25L35 26l-.25-.25-1-.75-1-.5z"
            class="highlight"
            fill="#fefeff"
            opacity=".31"
          ></path>
          <path d="M11 25.5h1.5v-.25H12z" class="primary" fill="#F2A900"></path>
          <path
            d="M11 25.5h1.5v-.25H12z"
            class="shadow"
            fill="#353535"
            opacity=".3"
          ></path>
          <circle
            cx="12.75"
            cy="30.25"
            r="2.5"
            class="primary"
            fill="#F2A900"
          ></circle>
          <path
            d="M9.33 26.98c.28-.29.59-.54.93-.76-.34.21-.65.46-.93.76m0 0c.28-.29.59-.54.93-.76-.34.21-.65.46-.93.76"
            class="shadow"
            fill="#353535"
            opacity=".3"
          ></path>
          <path
            d="M15.31 26.25c-.33-.21-.68-.38-1.06-.5-.47-.16-.98-.25-1.5-.25-.09 0-.17-.01-.25 0l-.25.05c-.73.07-1.4.31-1.99.67-.34.22-.65.47-.93.76-.01 0-.02.01-.03.02l-.2.25c-.68.82-1.1 1.86-1.1 3 0 .34.04.68.11 1A4.75 4.75 0 0 0 12.75 35c2.09 0 3.86-1.37 4.48-3.25q.01-.01.01-.02c.16-.47.26-.96.26-1.48 0-1.68-.87-3.16-2.19-4m-2.56 6.5a2.5 2.5 0 0 1 0-5 2.5 2.5 0 0 1 0 5"
            class="neutral1"
            fill="#2b2b2b"
          ></path>
          <circle
            cx="12.75"
            cy="30.25"
            r="2"
            class="shadow"
            fill="#353535"
            opacity=".3"
          ></circle>
          <circle
            cx="12.75"
            cy="30.25"
            r="1"
            class="shadow"
            fill="#353535"
            opacity=".3"
          ></circle>
          <path
            d="M18.5 28.917h1.75v.75H18.5zM18.5 30.25h1.75V31H18.5z"
            class="shadow"
            fill="#353535"
            opacity=".3"
          ></path>
          <path
            d="M12.5 19.5h-4l-.75.125-.75.125L6 20l-1 .25-1 .25-.75.5-.212.635L4 21.25l1-.26 1-.259 1-.231h2.75l1 .75h1.75v.5h1.75V19.5z"
            class="secondary"
            fill="#808082"
          ></path>
          <path
            d="M44 34.5h-.75V34l.25-.75-.25-1L44 33v1.5"
            class="shadow"
            fill="#353535"
            opacity=".3"
          ></path>
          <path
            d="m22.5 14.25 1.75 8.5h-.5L22 14.25z"
            class="neutral1"
            fill="#2b2b2b"
          ></path>
          <path
            d="M14.75 14.25h7.75v.5h-7.75z"
            class="neutral1"
            fill="#2b2b2b"
          ></path>
        </g></svg>
