<svg xmlns="http://www.w3.org/2000/svg"
        class="css-9txd9r"
        focusable="false"
        viewBox="0 0 32 32"
        data-icon-name="MobileImpactCrusher"
      >
        <path
          id="MobileImpactCrusher__outline"
          d="M4.3 24.6h-.2l-.5-.1c-.3-.1-.5-.2-.6-.4s-.2-.5-.1-.7l.5-2.5v-1.5l-.7-.4c-.4-.2-.8-.5-1.1-1-.1-.1-.1-.2-.1-.3l-.7-4v-.1L.1 9.9v-.6C0 9.1 0 9 .1 8.9c0-.1.1-.2.1-.3.1-.1.2-.2.2-.3l.2-.2c.2-.2.3-.2.4-.3.1 0 .1-.1.3-.1h5.5c.2 0 .3 0 .5.1.1 0 .1.1.2.1.3.2.6.6.6 1.1v1.4H14c.3 0 .5.1.7.3l1.3 1.5h1.8s0-.1.1-.1l.5-1c.2-.3.5-.6.9-.6h3.6c.1-.1.3-.2.5-.2 0 0 .8-.1.9-.1.3 0 .6.1.8.4.1.1.1.2.2.3.6.1 1.3.2 1.7.3l2.3-1.4c.2-.1.3-.1.5-.1h1.3c.5 0 1 .4 1 1v1.7c0 .5-.4 1-1 1h-.7c-.2 0-.4-.1-.5-.2l-.3-.2-5.1 3.2v3.1c0 .2 0 .3-.1.5l-.3.2-.3.3-3 2.2c-.1.1-.3.2-.4.2-.4.7-1.1 1.3-2 1.3h-7.7c-.9 0-1.7-.6-2-1.4L7.2 22c-.1 0-.1 0-.2-.1H5.6l-.4 1.9c0 .5-.4.8-.9.8"
          class="outline"
          fill="#FFFFFF"
        ></path>
        <g id="MobileImpactCrusher__main_shape">
          <path
            d="M2.5 22.1h2.9v.5H2.5z"
            class="tertiary"
            transform="rotate(-78.562 3.966 22.404)"
            fill="gray"
          ></path>
          <path
            d="M7.2 14.2H8v-2.9H6.9V8.8c0-.2-.3-.3-.4-.3H1.1c-.4 0-.7.5-.6.9l.8 4z"
            class="primary"
            fill="#1755A2"
          ></path>
          <path
            d="M.8 10.7.6 9.5v-.3c0-.6.4-.8.7-.8h5.3c.2 0 .4.2.4.4v1.7z"
            class="shadow"
            opacity=".3"
            fill="#333"
          ></path>
          <path
            d="m23.5 19.6.2-.3v-2.1l-4.5-1.1-7.8-1.6c-.1-.1.2-.3 0-.4H7c-.1-.3-.2-1-.5-1H1.2l.8 4.5q.3.45.6.6L6.3 20c.2.1.4.2.5.5l.5.9 3 1.1 10.2-.5z"
            class="tertiary"
            fill="gray"
          ></path>
          <path
            d="M11.3 18.4H7.7c-.1 0-.2-.1-.2-.3l-.5-3c0-.2.1-.3.2-.3h3.9s.2.1.2.3l.1 3c.1.2-.1.3-.1.3M6.6 18.4l-4-1.5q-.15 0-.3-.3l-.4-2.1c-.1-.3.1-.5.4-.5h3.6c.2 0 .3.1.4.3l.7 3.5c.1.3-.1.6-.4.6"
            class="secondary"
            fill="#FFFFFF"
          ></path>
          <path
            d="M23.7 11.3h-4.3s-.4.9-.6 1.1v.6h-3.3l-1.7-1.9h-3.6v3h4.9l.1 4.9h1.1l2.3-1.7h5.1z"
            class="primary"
            fill="#1755A2"
          ></path>
          <path
            d="M10.4 18.5H7.9v-7.3h2.5zM9.6 20h-1c-.1 0-.1-.1-.1-.1v-.3c0-.1.1-.1.1-.1h1c.1 0 .1.1.1.1v.3c.1 0 0 .1-.1.1"
            class="quaternary"
            fill="#333"
          ></path>
          <path
            d="M20.1 11.7h2.7c.2 0 .3.2.3.4v1.4c0 .3-.4.3-.6.3h-3.1v-1l.4-.9c.1-.2.2-.2.3-.2M11 11.8c0-.1.1-.2.2-.2h2.1c.1 0 .1 0 .2.1l1.2 1.2h-3.4c-.1 0-.3-.2-.3-.4z"
            class="shadow"
            opacity=".3"
            fill="#333"
          ></path>
          <path
            d="M16.9 14.5v4.3c0 .3.2.5.5.5h4.4c.3-.2.8-3.1.8-3.4l.1-.6c0-.2-.1-.4-.3-.5l-4.9-.8c-.3-.1-.6.1-.6.5"
            class="secondary"
            fill="#FFFFFF"
          ></path>
          <path
            d="M21.8 19.4h-4.5c-.3 0-.6-.3-.6-.6v-4.3c0-.2.1-.4.3-.5s.4-.1.6-.1l4.8.8c.3.1.4.3.4.6l-.1.6s-.4 3.2-.9 3.5m-4.5-5.3c-.1 0-.1 0-.2.1s-.1.2-.1.3v4.3c0 .2.2.4.4.4h4.4c.3-.3.7-2.8.7-3.3l.1-.6c0-.2-.1-.3-.2-.4l-4.8-.8z"
            class="tertiary"
            fill="gray"
          ></path>
          <path
            d="M11.1 14.9c0-.2.2-.8.7-.8h3c.4 0 .7.3.7.6v4.1c0 .4-.3.7-.7.7h-2.2c-.4 0-.9-.3-1-.7 0 0-.4-2.7-.5-3.9"
            class="secondary"
            fill="#FFFFFF"
          ></path>
          <path
            d="M14.9 19.6h-2.2c-.5 0-.9-.3-1.1-.7 0-.1-.4-2.7-.5-3.9 0-.2.1-.5.3-.7.1-.1.3-.2.5-.2h3c.4 0 .8.4.8.8V19c0 .2-.1.4-.2.6-.2-.1-.4 0-.6 0m-3.7-4.7c.1 1.2.5 3.8.5 3.9.1.3.5.6.9.6h2.2c.1 0 .3-.1.4-.2s.2-.2.2-.4v-4.1c0-.3-.3-.5-.6-.5h-3c-.1 0-.2.1-.3.2-.2.1-.3.4-.3.5"
            class="tertiary"
            fill="gray"
          ></path>
          <path
            d="M23.7 18.3v1l-.2.3-3.1 2.3.5-1.6z"
            class="quaternary"
            fill="#333"
          ></path>
          <path
            d="M30.2 10.4 27.5 12c-.6-.1-2.3-.3-3-.4h.1v-.4s0-.1-.1-.1l-.8.1v4.4l6.3-3.9.8.5h.7v-1.8zm-5.9 1.5v-.1c.5.1 1.8.3 3 .4l-3 1.8z"
            class="tertiary"
            fill="gray"
          ></path>
          <path d="M4.8 19.2v-6h.5v6.2z" class="primary" fill="#1755A2"></path>
          <path
            d="M8 13v.6h.9v5.9h.5v-5.9h1V13z"
            class="tertiary"
            fill="gray"
          ></path>
          <path
            d="m4 18.8.7.3v1.3h2.1l.4.7H4z"
            class="quaternary"
            fill="#333"
          ></path>
          <path d="M17.1 18H21v.3h-3.9z" class="primary" fill="#1755A2"></path>
          <path
            d="M19.2 17.9h.2v.4h-.2zM19.7 17.9h.2v.4h-.2zM20.2 17.9h.2v.4h-.2z"
            class="secondary"
            fill="#FFFFFF"
          ></path>
          <path
            d="M10.6 20.6c-.7 0-1.3.6-1.3 1.3s.6 1.3 1.3 1.3h7.9c.7 0 1.3-.6 1.3-1.3s-.6-1.3-1.3-1.3z"
            class="quaternary"
            fill="#333"
          ></path>
          <path
            d="M18.5 21c-.2 0-.4.1-.6.2h-8v1.3H18c.2.1.3.2.5.2.5 0 .9-.4.9-.9 0-.4-.4-.8-.9-.8"
            class="tertiary"
            fill="gray"
          ></path>
        </g></svg>
