<svg xmlns="http://www.w3.org/2000/svg"
        class="css-9txd9r"
        focusable="false"
        viewBox="0 0 32 32"
        data-icon-name="MobileCrusher"
      >
        <path
          id="MobileCrusher__outline"
          d="M9.4 25.3c-1 0-1.8-.6-2.1-1.5l-.8-.3c-.5-.2-.9-.6-1-1.2L5.4 21l-1.9-1.7h-.1c-.5-.2-1.2-.5-1.3-1.2l-.1-.5c-.4 0-.9-.3-1.1-.7l-.1-.1c-.2-.3-.2-.7-.1-1s.3-.6.6-.7l.4-.1-1.3-1.2c-.3-.4-.5-.8-.4-1.2l.3-2c.1-.4.3-.8.7-1l2-1c.2-.1.4-.2.6-.2.3 0 .5.1.7.2l1.3 1h1.2c0-.1 0-.1.1-.2.1-.2.3-.3.5-.4l1.3-.4c.1 0 .3-.1.4-.1.5 0 .9.3 1.1.7l.1.3 3.3-1.6c.2-.1.4-.1.6-.1.6 0 1.1.3 1.4.9l.2.5.2.3s0 .1.1.1c.2.4.1.9-.2 1.3-.2.3-.5.6-.9.7-.2.1-.3.1-.5.1-.1 0-.3 0-.4-.1l-.3.2.3 1.3c.2-.1.4-.2.6-.2h2.5c.4 0 .7.1.9.4.2-.2.5-.4.8-.4h1.2l3.1-.3h.9c.3 0 .7.2.9.4.5.1 2 .3 2 .3l2.3-1.4c.1-.1.3-.1.5-.1h1.3c.5 0 1 .4 1 1v2.3c0 .5-.4 1-1 1h-.7c-.4 0-.8-.3-.9-.6l-4.9 2.9-.3 3.8c0 .5-.4 1.1-1.2 1.3l-3.5.6H19c-.4.7-1.1 1.2-1.9 1.2z"
          class="outline"
          fill="#FFFFFF"
        ></path>
        <g id="MobileCrusher__main_shape">
          <path
            d="m30.2 12.7-2.7 1.6c-.6-.1-2.4-.4-3.1-.5v-.3s0-.1-.1-.1h-.8l-.2 3h-5c-.1 0-.2.1-.3.2l-.3 1.1h-3.4l-.9-3.4-.8-3.3 1.5-.7.3-.1c.1 0 .1-.1.1-.2v-.2l-.1-.1s-.1 0-.1-.1c-.1 0-.1-.1-.2-.1H14l-.2.1L3 15.1l-1.7.9c-.1.1-.2.3-.1.4l.1.1c.1.1.3.2.4.1l7.4-3.8v1.6h.3l-1.2 1.1-5.9 1.3.3 1.3c0 .2.9.4 1 .5l2.3 2 .3 1.8c0 .2.2.3.3.4l.9.3 10.6.4 1.3-.3 3.6-.6c.4-.1.5-.3.5-.4l.4-4.5 6.9-4.1V15h.7v-2.3zM12.6 14h-2.3l1.8-1.8zm-3.3-.3v-1l2.6-1.3.1.4-2.2 2.1v-.2zM9 15.3l1-1h2.7v.2zm14.9 1.1.1-2c0-.2 0-.3.2-.3.4 0 1.7.2 2.9.4z"
            class="tertiary"
            fill="gray"
          ></path>
          <path
            d="M23.3 16.5H19v-2.7l1.2-.1 3.3-.3zM17.5 17.4v-2.6h-3.2v2.6h-.2v.5h3.7v-.5zM13 18.9l-.6 1.4c0 .1-.1.1-.2.2l-3.4.1-.2-.9c0-.1-.1-.1-.1-.2l-1.9-1.3c-.1 0-.1-.1-.1-.2l-.2-1.1L12 16c.2 0 .3.1.4.3l.6 2.4c.1.1 0 .2 0 .2"
            class="primary"
            fill="#1755A2"
          ></path>
          <path
            d="M17.2 13.8h-2.6q-.3 0-.3.3v.1h3.2v-.1q0-.3-.3-.3"
            class="tertiary"
            fill="gray"
          ></path>
          <path
            d="M14.3 14.2h3.2v.6h-3.2z"
            class="quaternary"
            fill="#333"
          ></path>
          <path
            d="m15.1 9.7-.2-.4-.2-.5c-.1-.3-.4-.4-.7-.3l-4.1 2c-.1.1-.3 0-.4-.1l-.4-1c0-.1-.1-.1-.3-.1l-1.3.4.2.7H5c-.1 0-.1 0-.2-.1L3.4 9.2q-.15-.15-.3 0l-2 1.1c-.1.1-.2.2-.3.4l-.3 2c0 .1 0 .2.1.2L3 15.1h.1l10.7-5.5.3.7c.2.2.4.2.7.1.2 0 .5-.3.3-.7"
            class="primary"
            fill="#1755A2"
          ></path>
          <path
            d="M9.2 21.9c-.7 0-1.3.6-1.3 1.3s.6 1.3 1.3 1.3h7.9c.7 0 1.3-.6 1.3-1.3s-.6-1.3-1.3-1.3z"
            class="quaternary"
            fill="#333"
          ></path>
          <path
            d="M17 22.4c-.2 0-.4.1-.6.2h-8v1.3h8.1c.2.1.3.2.5.2.5 0 .9-.4.9-.9 0-.4-.4-.8-.9-.8"
            class="tertiary"
            fill="gray"
          ></path>
          <path
            d="m23.5 16.8-4.5-.2-1 3.7h-.8v1h1.1l1.3 1.7 3.5-.6c.3-.1.4-.2.4-.3l.4-5c-.1-.1-.2-.3-.4-.3m-1.7 2.6c0 .1-.1.1-.2.1h-2c-.1 0-.2-.1-.2-.3l.3-.9c0-.1.1-.2.2-.2h2c.1 0 .2.1.2.3z"
            class="secondary"
            fill="#FFFFFF"
          ></path>
          <path
            d="M14.1 20.3h3v1h-3z"
            class="shadow"
            opacity=".3"
            fill="#333"
          ></path>
          <path
            d="M21.5 20.6h.3v.3h-.3zM22 20.6h.3v.3H22zM19.1 20.6h2.2v.3h-2.2zM22.5 20.6h.5v.3h-.5z"
            class="primary"
            fill="#1755A2"
          ></path>
          <path
            d="M21.5 20.6h.3v.3h-.3zM22 20.6h.3v.3H22zM19.1 20.6h2.2v.3h-2.2zM22.5 20.6h.5v.3h-.5z"
            class="primary"
            fill="#1755A2"
          ></path>
          <path
            d="M21.5 20.6h.3v.3h-.3zM22 20.6h.3v.3H22zM19.1 20.6h2.2v.3h-2.2zM22.5 20.6h.5v.3h-.5z"
            class="primary"
            fill="#1755A2"
          ></path>
          <path
            d="M21.5 20.6h.3v.3h-.3zM22 20.6h.3v.3H22zM19.1 20.6h2.2v.3h-2.2zM22.5 20.6h.5v.3h-.5z"
            class="primary"
            fill="#1755A2"
          ></path>
        </g></svg>
