<svg xmlns="http://www.w3.org/2000/svg"
        class="css-9txd9r"
        focusable="false"
        viewBox="0 0 32 32"
        data-icon-name="MobileColdRecyclingMixingPlant"
      >
        <path
          id="MobileColdRecyclingMixingPlant__Outline"
          d="m32 14.8-.3-1.1c-.3-1-.9-1.2-1.2-1.2h-3.6V12c0-.5-.4-1-1-1h-4V9.6c0-.5-.4-1-1-1h-5.7c-.3 0-.6.1-.7.4-.3.1-.5.4-.5.8h-1.2c-.3 0-.5.1-.7.3H3.5c-.5 0-1 .4-1 1v.4H1c-.5 0-1 .4-1 1v8.3c0 .1 0 .3.1.4.1.4.4.7.8.7l3.6.5c.2 1 1 1.8 2.1 1.8.7 0 1.3-.3 1.6-.8.4.5 1 .8 1.6.8s1.3-.3 1.6-.8c.4.5 1 .8 1.6.8 1 0 1.9-.7 2.1-1.7h6.2c.3 1 1.2 1.7 2.3 1.7s2-.7 2.3-1.7h.7c.3 1 1.2 1.7 2.3 1.7 1.3 0 2.4-1.1 2.4-2.4v-.3c.5-.1.8-.5.8-1V15c-.1 0-.1-.1-.1-.2"
          class="outline"
          fill="#FFFFFF"
        ></path>
        <g id="MobileColdRecyclingMixingPlant__Main_Shape">
          <path
            d="m26.4 20.6 2.6-.1h2v-5.4s-.1-.5-.3-1.1c0-.1-.1-.4-.3-.4-.7 0-3.9.1-3.9.1s-.1 0-.1.1v6.8"
            class="primary"
            fill="#FFFFFF"
          ></path>
          <path
            d="M30.1 16.5h-2.8v-2.1h2.2c.1 0 .3.2.3.3l.3.9z"
            class="highlight"
            opacity=".3"
            fill="#fff"
          ></path>
          <path d="M22.6 19.4h2.8v.3h-2.8z" class="senary" fill="#333"></path>
          <path
            d="M31 15.1s-.1-.5-.3-1.1c0-.1-.1-.4-.3-.4-.7 0-3.9.1-3.9.1s-.1 0-.1.1v6H22v.9h-.2v-.1h-.1v.1h-.2v.6l.2.1v.2h.1v-.1l.2.1h8.1c0-.1 0-.5-.1-.9h1zm-.3 5.1h-.8c-.2-.3-.6-.5-1.2-.5h-1.9V14h3.6s0 .1.1.2c.1.4.2.9.3 1z"
            class="quinary"
            fill="gray"
          ></path>
          <path
            d="M15.5 12.4h10.1v6.2H15.5z"
            class="primary"
            fill="#FFFFFF"
          ></path>
          <path
            d="M15.3 11.1h5.6v1.1h-5.6z"
            class="shadow"
            opacity=".3"
            fill="#333"
          ></path>
          <path
            d="M15.2 9.6v.2h-.3v1.3h6V9.6z"
            class="primary"
            fill="#FFFFFF"
          ></path>
          <path
            d="M20.1 13.3h-1.8c-.1 0-.2-.1-.2-.2s.1-.2.2-.2h1.8c.1 0 .2.1.2.2s-.1.2-.2.2"
            class="quinary"
            fill="gray"
          ></path>
          <path
            d="M25.6 16.5h-9.3l-.3-.3h9.6z"
            class="secondary"
            fill="#FB5A02"
          ></path>
          <circle cx="6.6" cy="22" r="1.2" class="senary" fill="#333"></circle>
          <circle
            cx="6.6"
            cy="22"
            r=".6"
            class="highlight"
            opacity=".3"
            fill="#fff"
          ></circle>
          <circle cx="13.2" cy="22" r="1.2" class="senary" fill="#333"></circle>
          <circle
            cx="13.2"
            cy="22"
            r=".6"
            class="highlight"
            opacity=".3"
            fill="#fff"
          ></circle>
          <circle cx="9.9" cy="22" r="1.2" class="senary" fill="#333"></circle>
          <circle
            cx="9.9"
            cy="22"
            r=".6"
            class="highlight"
            opacity=".3"
            fill="#fff"
          ></circle>
          <path
            d="M3.9 11.4v1h-.4v7.7h8.9v-7.7h.3v-1z"
            class="primary"
            fill="#FFFFFF"
          ></path>
          <circle
            cx="23.5"
            cy="21.8"
            r="1.4"
            class="senary"
            fill="#333"
          ></circle>
          <circle
            cx="23.5"
            cy="21.8"
            r=".7"
            class="highlight"
            opacity=".3"
            fill="#fff"
          ></circle>
          <circle
            cx="28.8"
            cy="21.8"
            r="1.4"
            class="senary"
            fill="#333"
          ></circle>
          <circle
            cx="28.8"
            cy="21.8"
            r=".7"
            class="highlight"
            opacity=".3"
            fill="#fff"
          ></circle>
          <path
            d="M25.9 18.8v-6.7h-5V9.6h-5.7v.2h-.3v1.3h.3v3.3l-2.8-.6v-1h.3v-.4h-.3V12h-.8v.4H8.5V12h2.2v-.5h2v.2h1.6v-.9h-1.6v.2H3.5v7.8h-.1v-6.5H1v8.3h.1v.2l3.9.6 1-.6h2.2v.6H8v.3h.5v-.3h-.1v-.6h6.3v-.6h-.4l-.3-1.5h-1.6v-1.3l2.3.7v2.6l.8.7H21v-1.9l.3-.3h5v-.6zM8.5 11.4h2v.3h-2zm0 1.4H12v.9l-3.5-.8zm-1.3-1.4h.9v.3h-.9zm-2 0H7v.3H5.2zm0 .6H7v2.3H5.2zm-1.3-.6h.4l-.1.1h-.3zM5 14.3v.4h-.7v1.2H5V19H4v-6.7h.8V12H5zm0-2.5h-.3v-.2l.1-.1H5zm3.5 8.3H5.1v-4.4h3.3zm.2-4.5h-.8v-1.3h-.7V12h.9v1.3h.2l3.7.7v1.5zm3.6 4.5H8.9v-4.3H12V19h.2c.1-.1.1 1.1.1 1.1m2.9-9.3v-.7h.3v-.2h5.1v1zm-2.8 3.3 2.8.6v3.2h-.1l-2.7-.7zm3-2v-1h5.2v1zm5.8 6.4h-.8v-.7h-4.8v-5.5h5.6zm4.4 0h-4.1v-6.1h4.1z"
            class="quinary"
            fill="gray"
          ></path>
          <path
            d="M25.3 20.2H27v1.2h-1.7z"
            class="highlight"
            opacity=".3"
            fill="#fff"
          ></path>
          <path
            d="M30.1 16.5h-2.8v-2.1h2.2c.1 0 .3.2.3.3l.3.9z"
            class="window"
            opacity=".3"
            fill="#5dc9e8"
          ></path>
          <path
            d="M12.4 19.2H9.5l-.3-.4h3.2z"
            class="secondary"
            fill="#FB5A02"
          ></path>
          <circle
            cx="13.2"
            cy="22"
            r=".6"
            class="highlight"
            opacity=".3"
            fill="#fff"
          ></circle>
          <circle
            cx="9.9"
            cy="22"
            r=".6"
            class="highlight"
            opacity=".3"
            fill="#fff"
          ></circle>
          <circle
            cx="6.6"
            cy="22"
            r=".6"
            class="highlight"
            opacity=".3"
            fill="#fff"
          ></circle>
          <circle
            cx="23.5"
            cy="21.8"
            r=".7"
            class="highlight"
            opacity=".3"
            fill="#fff"
          ></circle>
          <circle
            cx="28.8"
            cy="21.8"
            r=".7"
            class="highlight"
            opacity=".3"
            fill="#fff"
          ></circle>
          <circle
            cx="6.6"
            cy="22"
            r=".3"
            class="highlight"
            opacity=".3"
            fill="#fff"
          ></circle>
          <circle
            cx="13.2"
            cy="22"
            r=".3"
            class="highlight"
            opacity=".3"
            fill="#fff"
          ></circle>
          <circle
            cx="9.9"
            cy="22"
            r=".3"
            class="highlight"
            opacity=".3"
            fill="#fff"
          ></circle>
          <circle
            cx="23.5"
            cy="21.8"
            r=".3"
            class="highlight"
            opacity=".3"
            fill="#fff"
          ></circle>
        </g></svg>
