<svg xmlns="http://www.w3.org/2000/svg"
        class="css-9txd9r"
        focusable="false"
        viewBox="0 0 32 32"
        data-icon-name="MobileJawCrusher"
      >
        <path
          d="M14 25.2c-.8 0-1.5-.5-1.8-1.3l-.5-.3-4.1-1.8c-.3-.1-.5-.4-.6-.7l-.3-1.5-6.2-5.2c-.3-.2-.4-.6-.5-.9 0-.4.1-.7.4-1l.7-.7c.2-.2.5-.4.9-.4.3 0 .6.1.8.3l.8.7 1.3-.5c.1-.1.3-.1.4-.1h1.6c.2-.1.3-.1.5-.1h5.1c.6 0 1 .4 1.2.9.2-.2 1.1-.8 3.1-.8h.5c.2 0 .4.1.5.2H20l1.1-1.5c.2-.2.5-.4.8-.4l.1-.2c.2-.3.5-.6.9-.6l7.8-.4c.5 0 .9.3 1.1.7s.2 1-.1 1.4L30 13.2l-.1 1c.1 0 .1.1.2.2.2.2.3.6.2.9l-.3 1.2c-.1.6-.5 1.1-1 1.3l-.2.4c-.2.5-.6.8-1.1.8h-.3c-.3 0-.5-.1-.7-.3h-.1c-.2 0-.4-.1-.6-.2l-.4 2.2c0 .3-.2.5-.4.7l-3.1 2.2c-.2 1-1 1.7-1.9 1.7H14z"
          class="outline"
          fill="#FFFFFF"
        ></path>
        <path
          d="M14 25.2c-.8 0-1.5-.5-1.8-1.3l-.5-.3-4.1-1.8c-.3-.1-.5-.4-.6-.7l-.3-1.5-6.2-5.2c-.3-.2-.4-.6-.5-.9 0-.4.1-.7.4-1l.7-.7c.2-.2.5-.4.9-.4.3 0 .6.1.8.3l.8.7 1.3-.5c.1-.1.3-.1.4-.1h1.6c.2-.1.3-.1.5-.1h5.1c.6 0 1 .4 1.2.9.2-.2 1.1-.8 3.1-.8h.5c.2 0 .4.1.5.2H20l1.1-1.5c.2-.2.5-.4.8-.4l.1-.2c.2-.3.5-.6.9-.6l7.8-.4c.5 0 .9.3 1.1.7s.2 1-.1 1.4L30 13.2l-.1 1c.1 0 .1.1.2.2.2.2.3.6.2.9l-.3 1.2c-.1.6-.5 1.1-1 1.3l-.2.4c-.2.5-.6.8-1.1.8h-.3c-.3 0-.5-.1-.7-.3h-.1c-.2 0-.4-.1-.6-.2l-.4 2.2c0 .3-.2.5-.4.7l-3.1 2.2c-.2 1-1 1.7-1.9 1.7H14z"
          class="outline"
          fill="#FFFFFF"
        ></path>
        <path
          d="M14 25.2c-.8 0-1.5-.5-1.8-1.3l-.5-.3-4.1-1.8c-.3-.1-.5-.4-.6-.7l-.3-1.5-6.2-5.2c-.3-.2-.4-.6-.5-.9 0-.4.1-.7.4-1l.7-.7c.2-.2.5-.4.9-.4.3 0 .6.1.8.3l.8.7 1.3-.5c.1-.1.3-.1.4-.1h1.6c.2-.1.3-.1.5-.1h5.1c.6 0 1 .4 1.2.9.2-.2 1.1-.8 3.1-.8h.5c.2 0 .4.1.5.2H20l1.1-1.5c.2-.2.5-.4.8-.4l.1-.2c.2-.3.5-.6.9-.6l7.8-.4c.5 0 .9.3 1.1.7s.2 1-.1 1.4L30 13.2l-.1 1c.1 0 .1.1.2.2.2.2.3.6.2.9l-.3 1.2c-.1.6-.5 1.1-1 1.3l-.2.4c-.2.5-.6.8-1.1.8h-.3c-.3 0-.5-.1-.7-.3h-.1c-.2 0-.4-.1-.6-.2l-.4 2.2c0 .3-.2.5-.4.7l-3.1 2.2c-.2 1-1 1.7-1.9 1.7H14z"
          class="outline"
          fill="#FFFFFF"
        ></path>
        <path
          d="M7.4 12.7c-.1 0-.2.1-.2.3l.2 2c0 .2.1.3.2.3H8l.1.1-.3 1.8h5v-4c0-.3-.1-.5-.3-.5zM27.2 17.6h-.4l-.6-.7 1.3-.2z"
          class="primary"
          fill="#1755A2"
        ></path>
        <path
          d="M28.5 16.2h-.7l-.4 1.2c-.1.2 0 .4.2.4h.3c.1 0 .1-.1.2-.2z"
          class="quaternary"
          fill="#333"
        ></path>
        <path
          d="m22.9 15.1.3.8h-1.7L20 16l-.9-.3s-.2.8.1 1l-.2.4h-.9l-.3 1.6h-.5l-.2-.7-2.7-4.4s-1.4.3-1.7.6c-.2.3-.1 8-.1 8l-.4.6 1 .5h7.6l4-2.8.3-2.1c.1-.7.5-1.2.9-1.2l2.5-.4c.2 0 .4-.3.5-.6l.3-1.2zm-4.8 5-.4 1.9-3.3-.4.1-1.4c0-.1.1-.2.2-.2H18c0-.1.1 0 .1.1m6.4-2.4-.2 1.5c0 .2-.1.3-.2.4l-1.5 1c-.1 0-.1 0-.1-.1l.5-2.3c0-.1.1-.3.2-.3l1.1-.4c.1-.1.2 0 .2.2M7.8 17.3l-5.7-4.8q-.15-.15-.3 0l-.7.7c-.1.1-.1.3 0 .4l6.3 5.3c.2.1.4 0 .4-.2v-1.1c.1-.2.1-.2 0-.3"
          class="tertiary"
          fill="gray"
        ></path>
        <path
          d="m17.9 15-.7 3.4-.1.4q0 .3-.3.3l-2.2.2c-.2 0-.3-.2-.3-.5v-5.5s.8-.7 2.9-.6l.7 1.8c0 .2.1.3 0 .5M12.7 17.4V22c0 .1 0 .2-.1.3l-.4.4L8 20.8 7.4 18l.1-.7h5.2z"
          class="quinary"
          fill="#d5d5d5"
        ></path>
        <path
          d="m20.5 13.1 1.5-2h.6l.3-.7 7.8-.4c.2 0 .3.3.2.4l-1.8 2.5-.1 1.2h-6.8z"
          class="primary"
          fill="#1755A2"
        ></path>
        <path
          d="m20.5 13.1 1.5-2h.6l.3-.7 7.8-.4c.2 0 .3.3.2.4l-1.8 2.5-.1 1.2h-6.8z"
          class="shadow"
          opacity=".3"
          fill="#333"
        ></path>
        <path
          d="m21.3 13-1.9 7.9h1.5l2-7.9z"
          class="quaternary"
          fill="#333"
        ></path>
        <path
          d="m3 13.7 2.3-.9h2l.7 2.4-2.5-1.8-2 .8z"
          class="tertiary"
          fill="gray"
        ></path>
        <path
          d="m17.2 18.4-.1.4q0 .3-.3.3l-2.2.2c-.2 0-.3-.2-.3-.5v-.4l2.8-.2z"
          class="shadow"
          opacity=".3"
          fill="#333"
        ></path>
        <path
          d="M16.9 13h4l1.1-.4-.5 2.9-.7 1.4-3 2.4-1-.7z"
          class="primary"
          fill="#1755A2"
        ></path>
        <path
          d="M7.8 17.1s.8-1 2.2-2 2.7-1.7 2.7-1.7v.5c-.9.5-2 1.2-2.8 2-.2.2-.2.5-.1.8l.2.6H7.6z"
          class="quinary"
          fill="#d5d5d5"
        ></path>
        <path
          d="M10.7 19.6h2.1v-.3h-2.2zM10 19.3h.4l.2.3h-.4zM9.6 19.3h.3l.1.3h-.3zM9 19.3h.3l.2.3h-.4zM8.1 19.3h.2l.1.3h-.2zM8.5 19.3h.3l.1.3h-.2z"
          class="primary"
          fill="#1755A2"
        ></path>
        <path
          d="M10.4 20.3H9.2l-.5-.4v-2.2h2.1v2.1zm-1.1-.1h1.1l.4-.4v-1.9H8.9v1.9z"
          class="primary"
          fill="#1755A2"
        ></path>
        <path
          d="M12.7 21.6v.4c0 .1 0 .2-.1.3l-.4.4L8 20.8 7.4 18l.7 2.3z"
          class="shadow"
          opacity=".3"
          fill="#333"
        ></path>
        <path
          d="M20.3 24.2h-6.2c-.6 0-1-.5-1-1v-.5c0-.6.5-1 1-1h6.2c.6 0 1 .5 1 1v.5c.1.5-.4 1-1 1"
          class="tertiary"
          fill="gray"
        ></path>
        <path
          d="M22.1 13.5h6.6v1.9h-6.6z"
          class="quaternary"
          fill="#333"
        ></path>
        <ellipse
          cx="14.3"
          cy="22.9"
          class="tertiary"
          rx=".7"
          ry=".8"
          fill="gray"
        ></ellipse>
        <path
          d="M15.2 22.3h5.5v1.2h-5.5zM28.2 13.5h.7v2.1h-.7zM27.1 13.7h.5v1.6h-.5z"
          class="tertiary"
          fill="gray"
        ></path>
        <path
          d="m24.9 13.5 2.5 1.9-.4.9-1.7-.6-.7-2z"
          class="primary"
          fill="#1755A2"
        ></path>
        <path
          d="m7.5 15.8-2-1.7-.6.9 2 1.7z"
          class="quaternary"
          fill="#333"
        ></path></svg>
