<svg xmlns="http://www.w3.org/2000/svg"
        class="css-9txd9r"
        focusable="false"
        viewBox="0 0 32 32"
        data-icon-name="MobileScreenPlant"
      >
        <g id="MobileScreenPlant__outline">
          <path
            d="M1 16.3c-.3 0-.5-.1-.7-.3-.2-.1-.3-.4-.3-.7v-2.9c0-.3.1-.5.3-.7s.4-.3.7-.3h.3c.3 0 .5.1.7.3h4.5c.2-.2.4-.3.7-.3h.3c.3 0 .5.1.7.3s.3.4.3.7v2.8c0 .5-.4 1-1 1-.1.1-6.5.1-6.5.1"
            class="outline"
            fill="#FFFFFF"
          ></path>
          <path
            d="M10.1 26.3c-1.2 0-2.2-1-2.2-2.3v-.3c-.3-.4-.5-.8-.7-1.1-.1-.1-.1-.2-.2-.3l-.8-.3c-.2 0-.4-.1-.5-.3-.1-.1-.3-.4-.5-.7H1c-.3 0-.5-.1-.7-.3-.2-.1-.3-.4-.3-.6v-4.7c0-.5.4-1 1-1l6.3-.1c.3 0 .5.1.7.3l1.2 1.2.8-.6-4-3.5c-.1-.1-.2-.2-.2-.3-.9-1.7-.9-1.9-.9-2.1 0-.3.1-.6.4-.9.4-.4 1-.6 1.4-.6.1 0 .3 0 .4.1h.2c.1 0 .4 0 .5.1 0 0 .1.1.2.1l5.2 4.6 1.5-1.1V5.8c0-.3.1-.5.3-.7s.4-.3.7-.3h3.2c.6 0 1 .4 1 1v1.7L23.4 5c.2-.1.4-.2.6-.2h.1c.3 0 .5.2.7.4l.5.7c.1-.1.3-.1.4-.1s.3 0 .4.1c.3.1.6.4.6.8.1.7 0 1-.1 1.3-.1.1-.2.3-.2.3h.4c.3 0 .6.1.8.3s.3.5.3.8v4.2c0 .2 0 .3-.1.4l3-.7h.2c.2 0 .4.1.6.2.2.2.4.5.4.8v1.2c0 .5-.3.9-.8 1-.8.2-1.7.4-2.5.6-1.1.2-2.1.5-3.1.7l-.2 1.2c.4.4.4.9.4 1.1l-.1.8c0 .5-.5 1.8-1.5 2.1-.1 0-.2.1-.3.1h-1.6c-.5.3-1.5.8-2.3 1.2-.1 1.1-1.1 2-2.2 2z"
            class="outline"
            fill="#FFFFFF"
          ></path>
        </g>
        <g id="MobileScreenPlant__main_shape">
          <path
            d="M17 20.6h-1.4V5.8H17zc.1 0 0 0 0 0"
            class="tertiary"
            fill="gray"
          ></path>
          <path
            d="m24.8 14.4-5.9 4.5v-6.8l6.8-5.4s.1.6 0 .7c-.1.2-.2.3-.3.4-.2.3-.6 6.6-.6 6.6"
            class="primary"
            fill="#1755A2"
          ></path>
          <path
            d="M26.7 13.7h-2.4v-.3h2.2V9.5h-2.1v-.3h2.3v4.3c.2.2.1.2 0 .2"
            class="tertiary"
            fill="gray"
          ></path>
          <path
            d="M1 12.4h.3v.3h5.8v-.3h.2v2.9H1z"
            class="primary"
            fill="#1755A2"
          ></path>
          <path
            d="M6.8 12.7v1.8H1.6l-.1-1.8z"
            class="shadow"
            opacity=".3"
            fill="#333"
          ></path>
          <path
            d="M31 15.5v-1.2l-5.3 1.3-.9-.3v-.9l-5.1 3.9.2.9 4.3 1.1.6-3.3c1.9-.5 4.1-1 6.2-1.5M24.8 17"
            class="tertiary"
            fill="gray"
          ></path>
          <path
            d="M31 15.5v-1.2l-5.3 1.3-.9-.3v-.9l-5.1 3.9.2.9 4.3 1.1.6-3.3c1.9-.5 4.1-1 6.2-1.5M24.8 17"
            class="tertiary"
            fill="gray"
          ></path>
          <path
            d="M31 15.5v-1.2l-5.3 1.3-.9-.3v-.9l-5.1 3.9.2.9 4.3 1.1.6-3.3c1.9-.5 4.1-1 6.2-1.5"
            class="tertiary"
            fill="gray"
          ></path>
          <path d="M24.8 17" class="shadow" opacity=".3" fill="#333"></path>
          <path
            d="M31 15.5v-1.2l-5.3 1.3-.9-.3v-.9l-5.1 3.9.2.9 4.3 1.1.6-3.3c1.9-.5 4.1-1 6.2-1.5"
            class="tertiary"
            fill="gray"
          ></path>
          <path
            d="M24.6 11.2c-.1 0-.1-.1-.1-.1V9.5c0-.1.1-.1.1-.1.1 0 .1.1.1.1v1.6z"
            class="secondary"
            fill="#FFFFFF"
          ></path>
          <path
            d="M17 20.6h-1.4V5.8H17zc.1 0 0 0 0 0"
            class="shadow"
            opacity=".3"
            fill="#333"
          ></path>
          <path
            d="M15.6 18.8v-4.5L24.8 7 24 5.8 9.1 17.1l-1.8-1.8H1V20h4.6s.1 0 .1.1c.1.2.6.8.8 1l1.1.4c.2.2 1 1.9 1.7 2.3.1.1.4.2.6.2h8.2c.2 0 .3-.1.5-.2 0 0 3.5-1.7 3.6-1.8 0-.1-3-3.6-3-3.6z"
            class="tertiary"
            fill="gray"
          ></path>
          <path
            d="M9.8 20.1h5.3c.2 0 .3-.3.3-.7v-4.5c0-.5-.2-.6-.5-.5l-5.3 4.2c-.1.1-.2.4-.2.7.2.2.4.8.4.8"
            class="secondary"
            fill="#FFFFFF"
          ></path>
          <path
            d="M8.8 19.5H5.6c-.1 0-.2-.2-.2-.4v-.8c0-.1.1-.2.2-.2h1.9zM4.5 19.5H2c-.1 0-.2-.1-.2-.3v-.9c0-.2.1-.3.2-.3h2.5c.1 0 .2.1.2.3v.9c0 .2-.1.3-.2.3"
            class="shadow"
            opacity=".3"
            fill="#333"
          ></path>
          <path
            d="M17.9 19.2 6.8 8.9c-.1-.1-.9.1-.9.4 0 .1.8 1.6.8 1.6l10.9 9.6z"
            class="tertiary"
            fill="gray"
          ></path>
          <path
            d="M17.9 19.2 6.8 8.9c-.1-.1-.9.1-.9.4 0 .1.8 1.6.8 1.6l10.9 9.6z"
            class="shadow"
            opacity=".3"
            fill="#333"
          ></path>
          <path
            d="M19 19.2 7.3 8.9c-.1-.1-.6.1-.6.1-.2.2-.2.6-.2.6L19 20.7z"
            class="tertiary"
            fill="gray"
          ></path>
          <path
            d="M18.9 13.8s-.1 0-.1-.1v-.2l5.6-4.2h.2v.2zq.15 0 0 0M22.2 15.3l-3.3 2.6v-.7l3.2-2.5c.1 0 .1 0 .1.3q.15.3 0 .3"
            class="secondary"
            fill="#FFFFFF"
          ></path>
          <path
            d="M18.9 20.6h-1.3l-.1-14.7h1.4z"
            class="tertiary"
            fill="gray"
          ></path>
          <path
            d="M18.9 20.6h-1.3l-.1-14.7h1.4z"
            class="shadow"
            opacity=".3"
            fill="#333"
          ></path>
          <path
            d="M22.1 14.9c-.1 0-.1-.1-.1-.1v-3.5c0-.1.1-.1.1-.1.1 0 .1.1.1.1v3.5c.1 0 0 .1-.1.1"
            class="secondary"
            fill="#FFFFFF"
          ></path>
          <path
            d="m26.6 13.4-1.9.1-2.5 1.9v-2.8l2.5-1.8h1.9zM19 18.4v3.1c0 .3.3.5.6.5h4.2c.5-.2.7-.9.8-1.2l.1-.8c0-.2-.2-.4-.4-.5l-4.4-1.7c-.5 0-.9.2-.9.6"
            class="secondary"
            fill="#FFFFFF"
          ></path>
          <path
            d="M23.9 22.1h-4.3c-.4 0-.7-.3-.7-.6v-3.1c0-.2.1-.3.2-.4.2-.2.5-.2.8-.1l4.5 1.7c.1.1.5.2.5.6l-.1.8c-.1.1-.4.9-.9 1.1m-4.8-3.7v3.1c0 .2.2.4.5.4h4.2c.4-.1.6-.8.7-1.1l.1-.8s0-.2-.3-.4L19.8 18c-.2-.1-.4 0-.6.1-.1.1-.1.2-.1.3M24.7 10.8v-.3h2.2v.3z"
            class="tertiary"
            fill="gray"
          ></path>
          <path
            d="M17.7 25.3c.7 0 1.2-.6 1.2-1.3s-.6-1.3-1.2-1.3H10c-.7 0-1.2.6-1.2 1.3s.6 1.3 1.2 1.3z"
            class="quaternary"
            fill="#333"
          ></path>
          <path
            d="M18.5 23.4h-8c-.1-.1-.3-.2-.5-.2-.5 0-.9.4-.9.8 0 .5.4.8.9.8.2 0 .4-.1.6-.2h7.9z"
            class="tertiary"
            fill="gray"
          ></path>
        </g></svg>
