<svg xmlns="http://www.w3.org/2000/svg"
        class="css-9txd9r"
        focusable="false"
        viewBox="0 0 48 48"
        data-icon-name="PickupHead"
      >
        <path
          id="PickupHead__outline"
          d="M45.414 30.609c.219-.329.336-.715.336-1.109v-.26A7.25 7.25 0 0 0 48 24a7.24 7.24 0 0 0-1.692-4.644 2 2 0 0 0 .192-.856v-2.75a2 2 0 0 0-2-2h-1.189a2 2 0 0 0-.244-.255l-2-1.75a2 2 0 0 0-2.129-.323l-.06-.084a2 2 0 0 0-.31-.343l-2-1.75a2 2 0 0 0-.269-.198l-3.25-2a2 2 0 0 0-.26-.135l-3.5-1.5-.115-.045-3.5-1.25a2 2 0 0 0-.188-.057l-3-.75a2 2 0 0 0-.408-.058l-6.5-.25-.077-.001q-.18 0-.358.032l-2.75.5a2 2 0 0 0-.192.045l-3.5 1c-.41.117-.759.357-1.012.673H2a2 2 0 0 0-2 2v27.25a2 2 0 0 0 .814 1.61l4.75 3.5q.117.086.245.155l7.5 4a2 2 0 0 0 1.364.19l9.25-2a2 2 0 0 0 1.366-1.06l1-2q.027-.053.049-.107l.75-1.75c.107-.249.162-.517.162-.788v-2.25c0-.375-.105-.742-.304-1.06l-1.25-2a2 2 0 0 0-.416-.476l-1.421-1.184 2.119-1.78h8.451a8 8 0 0 0 .143.246c-3.46 1.212-5.948 4.51-5.948 8.379 0 4.894 3.981 8.875 8.875 8.875s8.875-3.981 8.875-8.875a8.8 8.8 0 0 0-1.426-4.818z"
          class="outline"
          fill="#fff"
        ></path>
        <g id="PickupHead__icon">
          <path
            d="M2 7.25V34.5L6.75 38l1-.25L13 40h10.5l1-2 .75-1.75V34L24 32l-1.5-1.25H19l6.25-5.25v-2.25h11.5v-1L30.25 15l-5-1.25v-.5L22 10.75 17.25 9l6 .25 4.5 1.75 3.5 1.75 2.5 2.25 2 2.5-.75 1 2 2.25 2-2.25v-2.75h2l.75-.75-2-1.75-1.25 1-1.25-1.75-2-1.75-3.25-2-3.5-1.5L25 6l-3-.75L15.5 5l-2.75.5-3.5 1v.75z"
            class="secondary"
            fill="#FFDE00"
          ></path>
          <path
            d="m13.25 26.25 3.75-2.5h1.75l1 1.25v1.5l-4.25 3-1.75-.25-1-1.25z"
            class="shadow"
            fill="#353535"
            opacity=".3"
          ></path>
          <path
            d="m6.75 38 1-.25L13 40h10.5l-9.25 2z"
            class="neutral1"
            fill="#2b2b2b"
          ></path>
          <path
            d="M3.25 28.5V30l.5.25 4.75 1 3 .25 7.25.75v-1.5l-10-.75z"
            class="shadow"
            fill="#353535"
            opacity=".3"
          ></path>
          <path
            d="M25.25 25.5 19 30.75h3.5L24 32l1.25 2v2.25L24.5 38l-1 2 .75-3.75V34.5l-1.25-2-4.25-.25-7.25-.75-3-.25-4.75-1v3.5l3 2.5 3.5 1.5 3 1.25 2.5.25.75.75H13l-5.25-2.25-1 .25L2 34.5V7.25h1.25V28.5l5.5 1.5 8.4.61 8.1-7.36zM9.25 6.5v1.25H15L17.25 9l6 .25 4.5 1.75 3.5 1.75 2.5 2.25 2 2.5 1.75-1.75-.75-.75-.75.75L34.75 14l-2.5-2.25-3.5-2L23.25 8l-6-.25-2-1.25z"
            class="shadow"
            fill="#353535"
            opacity=".3"
          ></path>
          <path
            d="m9.25 6.5 3.5-1L15.5 5l6.5.25L25 6l3.5 1.25 3.5 1.5 3.25 2 2 1.75 1.25 1.75-1 1.5L36 13.5l-1.75-1.75-3-2-3.5-1.5-3-1-3-.75H9.25"
            class="highlight"
            fill="#fefeff"
            opacity=".31"
          ></path>
          <path
            d="M39 15.75h5.5v2.75H39zM25.25 13.75v-.5l1-.5 4.5.75 4.25 5 2 2.25-.25 1.5-6.5-7.25z"
            class="neutral1"
            fill="#2b2b2b"
          ></path>
          <path
            d="M25.25 23.25h3.5v2.25h-3.5z"
            class="neutral2"
            fill="#808082"
          ></path>
          <path
            d="M28.75 23.25h8v2.25h-8z"
            class="neutral1"
            fill="#2b2b2b"
          ></path>
          <path
            d="M25.25 23.25v-9.5l5 1.25 6.5 7.25v1H34.5v-1.5L31 18.5l-1 .5v4.25h-1.5V18.5l-1.75-1.75-.75.5v6z"
            class="shadow"
            fill="#353535"
            opacity=".3"
          ></path>
          <path
            d="M25.25 13.75v1.5l4 2v6H30V19l1-.5 3.5 3.25v1.5h2.25v-1L30.25 15z"
            class="shadow"
            fill="#353535"
            opacity=".3"
          ></path>
          <circle
            cx="40.75"
            cy="24"
            r="5.25"
            class="secondary"
            fill="#FFDE00"
          ></circle>
          <circle
            cx="40.75"
            cy="23.875"
            r="2.625"
            class="shadow"
            fill="#353535"
            opacity=".3"
          ></circle>
          <path d="M39.75 18.5h4v10h-4z" class="neutral2" fill="#808082"></path>
          <circle
            cx="37.5"
            cy="36.125"
            r="6.875"
            class="neutral1"
            fill="#2b2b2b"
          ></circle>
          <circle
            cx="37.5"
            cy="35.961"
            r="3.437"
            class="secondary"
            fill="#FFDE00"
          ></circle>
          <path
            d="M39.75 28.5 36 36v1l1 1 1.25-.25 5.5-8.25v-1z"
            class="secondary"
            fill="#FFDE00"
          ></path>
          <path
            d="M39.75 28.5 36 36v1l1 1 1.25-.25 5.5-8.25v-1z"
            class="shadow"
            fill="#353535"
            opacity=".3"
          ></path>
          <circle
            cx="17.75"
            cy="37"
            r="1.25"
            class="neutral2"
            fill="#808082"
          ></circle>
          <circle
            cx="6"
            cy="26.75"
            r="1.25"
            class="neutral2"
            fill="#808082"
          ></circle>
          <circle
            cx="16"
            cy="26.75"
            r="1.25"
            class="neutral2"
            fill="#808082"
          ></circle>
          <path
            d="M3.25 7.25h6v.5H15L17.25 9 22 10.75l3.25 2.5V16L21 13.5l-4.75-2-2.5-.75H3.25zM35 18.5l2 2.25 2-2.25v-2.75h2l.75-.75-2-1.75-1.25 1-1 1.5-1.75 1.75z"
            class="highlight"
            fill="#fefeff"
            opacity=".31"
          ></path>
        </g></svg>
