<svg xmlns="http://www.w3.org/2000/svg"
      class="css-9txd9r"
      focusable="false"
      viewBox="0 0 48 48"
      data-icon-name="PlantingAirSeeder"
      size="65"
    >
      <path
        id="PlantingAirSeeder__outline"
        d="M47.417 26.334a2 2 0 0 0-1.081-.558 2 2 0 0 0-.582-.509v-1.018c0-.753-.416-1.409-1.031-1.75a1.996 1.996 0 0 0 .898-2.467l-.076-.198.15-.599a2 2 0 0 0-.043-1.117l-.25-.75a2 2 0 0 0-.788-1.032l-.75-.5a2 2 0 0 0-1.109-.336h-3.5a2 2 0 0 0-.376.035 2 2 0 0 0-.374-.035h-.672l-.414-.414a2 2 0 0 0-.443-.334l-1.273-.707a2 2 0 0 0-.726-1.128 2 2 0 0 0-.558-1.081l-.25-.25A2 2 0 0 0 32.755 11h-14.25q-.19 0-.375.035a2 2 0 0 0-.264-.032l-4.5-.25-.111-.003a2 2 0 0 0-1.414.586l-.25.25a2 2 0 0 0-.535.965 2 2 0 0 0-1.515 1.568l-1.096.685a2 2 0 0 0-.242.177l-.097.083-2.207-1.104a2 2 0 0 0-2.609.76l-.75 1.25a2 2 0 0 0 .723 2.766l1.75 1 .26.149-2.843 3.632a2 2 0 0 0-.425 1.233v2.5c0 .481.174.945.486 1.307a2 2 0 0 0-.202.575 2 2 0 0 0-1.269 1.627A2 2 0 0 0 .003 32.5v.75a2 2 0 0 0 2 2h1c.614 0 1.193-.282 1.573-.764l.225-.287q.218.051.452.051h1.5c.268 0 .531-.054.775-.156 1.324 1.921 3.542 3.156 5.975 3.156A7.26 7.26 0 0 0 20.099 33h11.654c.363 0 .703-.096.996-.265.225-.028.445-.094.649-.196l1-.5a2 2 0 0 0 1.09-1.539h1.204q.155.193.352.343a5.256 5.256 0 0 0 5.209 5.907 5.256 5.256 0 0 0 5.039-6.722c.435-.367.711-.916.711-1.53v-.75c0-.531-.211-1.04-.586-1.415Z"
        class="outline"
        fill="#fff"
      ></path>
      <g id="PlantingAirSeeder__icon">
        <path
          d="m26.253 21.5-1.75 1.5v.5l1.75-1.5h.5l2.5 1.75v-.5l-2.5-1.75zM24.753 15.25l1.75 2.5 2-2.5v.5l-1.5 2.25h-.75l-1.5-2.25z"
          class="neutral1"
          fill="#2b2b2b"
        ></path>
        <path
          d="M19.003 18.75h.5v5.5h-.5z"
          class="primary"
          fill="#367C2B"
        ></path>
        <circle
          cx="9.378"
          cy="27.375"
          r="2.125"
          class="primary"
          fill="#367C2B"
        ></circle>
        <circle
          cx="9.378"
          cy="27.375"
          r="2.125"
          class="shadow"
          fill="#353535"
          opacity=".3"
        ></circle>
        <circle
          cx="9.378"
          cy="27.375"
          r="1.125"
          class="shadow"
          fill="#353535"
          opacity=".3"
        ></circle>
        <path
          d="m40.753 19.25 1 1.25-.5 2.5 1 .25.5-2.5.25-.25.5-.75.25-1-.25-.75-.75-.5h-1.5l-.5 1zM29.753 27.5v-2.25h-.5V25h-13.5l2 2.5zM31.253 25l1.75 2.5h7.25l-3.25-2.5z"
          class="neutral1"
          fill="#2b2b2b"
        ></path>
        <path
          d="M7.753 22v-4l1.75-1.5 2-1.25h5.25l1.5 1.5.75 1v4.75l-.5 1.75-.75 2.5-5.5-2.5h-3v-1zM20.503 15.25l-.75 1.25-.25 1.5v4.5l1 2 1 2.25h1.75v-2.5l1.25-1.25 1.75-1.5V18l-1.5-2.25v-.5zM28.503 15.25v.5l-1.75 2.5v3.25l2.5 1.75h8l.75-.5.25-4-2.25-2.25-2.25-1.25z"
          class="secondary"
          fill="#FFDE00"
        ></path>
        <path
          d="M11.503 14.5h5.25v.75h-5.25zM20.503 14.5h4.25v.75h-4.25zM28.503 14.5h5.25v.75h-5.25z"
          class="neutral1"
          fill="#2b2b2b"
        ></path>
        <path
          d="M19.003 22.5h-10.5l.75.75v1h3l5.5 2.5zM19.503 22.5h4.75v-3.75h2v2.75l-1.75 1.5-1.25 1.25v2.5h-1.75zM24.753 15.75l-.25 2.25h1.75zM28.503 15.75l-1.75 2.5 2-.25zM26.753 18.75h2.5v4.5l-2.5-1.75zM29.253 23.25v-1h8.75v.5l-.75.5z"
          class="shadow"
          fill="#353535"
          opacity=".3"
        ></path>
        <path
          d="M29.753 23.75v.5h6.5l.5-.5zM31.753 25h3.25l-1 .75h-2zM29.753 25v2.5h2.5l-1.75-2.5z"
          class="secondary"
          fill="#FFDE00"
        ></path>
        <path
          d="M29.753 23.75v.5h6.5l.5-.5zM31.753 25h3.25l-1 .75h-2zM29.753 25v2.5h2.5l-1.75-2.5z"
          class="shadow"
          fill="#353535"
          opacity=".3"
        ></path>
        <path
          d="M29.253 21.023h8.75v.477h-8.75zM7.753 21h11.25v.5H7.753z"
          class="highlight"
          fill="#fefeff"
          opacity=".31"
        ></path>
        <path
          d="m4.753 27.25 4.5-5.75v.75l-3.75 5zM2.003 32.5h1v.75h-1zM4.003 31.75h-1V31h1.25zM5.003 30.25h-.75v-.75h1.25zM6.253 28.75h-.75V28h1zM7.503 27.25h-.75v-.75h1.25zM8.753 25.75h-.75V25h1zM9.753 24.25h-.75v-.75h1.25zM10.253 23h13.5v.75h-13.5zM37.503 25.25H9.253v-1h27.75zM17.753 27.5h24.5v1h-24.5zM29.253 23h8.5v.75h-8.5zM35.253 26.75h-3l-.5-.75h4z"
          class="primary"
          fill="#367C2B"
        ></path>
        <path
          d="M15.503 18.5h.75v6h-.75zM23.753 18.5h.75v6h-.75zM29.503 18.75h.75v5.75h-.75zM17.503 25h.75l-1 1.25-.5-.25zM19.253 25l1.75 2.5h.75l-1.75-2.5zM22.753 27.5h.75l1.75-2.5h-.75zM27.503 25h.75v2.5h-.75zM30.503 25l1.75 2.5h.75l-1.75-2.5zM36.003 25l-1.5 2.5h.75l1.5-2.5zM37.003 25.25l3 2.25h1.25l-4.25-3.25zM26.253 18.75h.5v5.5h-.5z"
          class="primary"
          fill="#367C2B"
        ></path>
        <path
          d="M23.503 24h1.25v1.25h-1.25zM29.253 24h1.25v1.25h-1.25zM15.253 24h1.25v1.25h-1.25zM17.503 22.5l-.25.75h1.5l-.25-.75zM30.503 22.5l-.25.75h1.25l-.25-.75zM36.003 22.5l-.25.75h1.25l-.25-.75zM29.753 18.25v-.5h.25V13.5h.5v4.25h.25v.5z"
          class="primary"
          fill="#367C2B"
        ></path>
        <path
          d="M19.503 21h4.25v.5h-4.25zM28.503 15.25h1.5l-1 2.75h-.25l-.25-2.25zM38.253 18.75l-2.25-2.25-2.25-1.25h-1zM16.753 15.25h-2.5l1.75.5 2.75 2.25h.25v-.25l-.75-1z"
          class="highlight"
          fill="#fefeff"
          opacity=".31"
        ></path>
        <path
          d="M14.503 18v-.5h.25v-4.25h.5v4.25h.25v.5zM16.753 18.25v-.5h.25v-2h.5v2h.25v.5z"
          class="primary"
          fill="#367C2B"
        ></path>
        <path
          d="m11.503 15.25-2 1.25-1.75 1.5h6.5v-2.75z"
          class="highlight"
          fill="#fefeff"
          opacity=".31"
        ></path>
        <path
          d="M9.753 23.75v-6l2-2.75h.75l.5.25v4.5l-.5.75v-5h-.5l-1.75 2.5v5.75z"
          class="primary"
          fill="#367C2B"
        ></path>
        <path
          d="m10.003 20.75 2.75-3.5V18l-2.75 3.5zM17.753 13l-4.5-.25-.25.25v2.25l.5.5 4.5.25v-2.5zm-.25 2.5-3.75-.25-.25-.25v-1.75l4 .25zM6.003 31.25l2.5-1.75V31l-1.75 1.25-.75-.5z"
          class="primary"
          fill="#367C2B"
        ></path>
        <path
          d="m5.753 29.5 1.25.5h1.75v-.75h-1.5l-.75-.75z"
          class="primary"
          fill="#367C2B"
        ></path>
        <circle
          cx="13.503"
          cy="30"
          r="5.25"
          class="neutral1"
          fill="#2b2b2b"
        ></circle>
        <circle
          cx="13.503"
          cy="30"
          r="2.763"
          class="secondary"
          fill="#FFDE00"
        ></circle>
        <circle
          cx="13.503"
          cy="30"
          r="2.211"
          class="shadow"
          fill="#353535"
          opacity=".3"
        ></circle>
        <circle
          cx="13.503"
          cy="30"
          r="1.105"
          class="shadow"
          fill="#353535"
          opacity=".3"
        ></circle>
        <path
          d="M18.503 29.25h11.5V30h-11.5zM18.503 30.25h11.5V31h-11.5z"
          class="neutral1"
          fill="#2b2b2b"
        ></path>
        <path
          d="M30.003 29.25h1.75V31h-1.75z"
          class="neutral2"
          fill="#808082"
        ></path>
        <path
          d="m32.503 29.25-.75.5v-.5h-2.25v-.75h3z"
          class="neutral1"
          fill="#2b2b2b"
        ></path>
        <path
          d="M31.753 29.75v1h.75l1-.5-.75-1.25-.25.25z"
          class="primary"
          fill="#367C2B"
        ></path>
        <path
          d="M31.753 29.75v1h.75l1-.5-.75-1.25-.25.25z"
          class="shadow"
          fill="#353535"
          opacity=".3"
        ></path>
        <path
          d="M21.753 29.25h1.75V31h-1.75z"
          class="neutral2"
          fill="#808082"
        ></path>
        <path d="M21.253 28.5h3v.75h-3z" class="neutral1" fill="#2b2b2b"></path>
        <path
          d="M44.253 28.5v.75h-6v-1h.5v.25h.5v-.25h.5v.25z"
          class="primary"
          fill="#367C2B"
        ></path>
        <path
          d="M44.253 28.5v.75h-6v-1h.5v.25h.5v-.25h.5v.25z"
          class="shadow"
          fill="#353535"
          opacity=".3"
        ></path>
        <path
          d="M41.753 27.25V27l.5-.25.5-.25h1l.5.25.5.25v.25l-.5.25v.25l1.75-.001v.749l-1.75.002h-2v-1z"
          class="primary"
          fill="#367C2B"
        ></path>
        <path
          d="M42.753 24.25h1v2.25h-1zM5.003 15.75l3.5 1.75-.5 1-1.75-1-.25.5-1.75-1z"
          class="neutral1"
          fill="#2b2b2b"
        ></path>
        <path
          d="m7.753 19-1.75-1 .25-.5 1.75 1zM5.253 30.75h1.5v.5h-1.5zM5.253 31.75h1.5v.5h-1.5z"
          class="primary"
          fill="#367C2B"
        ></path>
        <path
          d="M5.253 31.25h.5v.5h-.5zM5.253 32h.5v.25h-.5z"
          class="neutral2"
          fill="#808082"
        ></path>
        <path
          d="m38.003 19.5 4.25-.5 1 1.75h.5l-1.25-3.25h-3.25v.5h-2l.75.75z"
          class="primary"
          fill="#367C2B"
        ></path>
        <path
          d="M37.003 17.5h1.5l1.25.5h1v.5h-1.25l-1-.5h-1.25z"
          class="neutral1"
          fill="#2b2b2b"
        ></path>
        <path
          d="M40.753 18h.75v.5h-.75z"
          class="neutral2"
          fill="#808082"
        ></path>
        <path
          d="M43.503 27.5h.75v1h-.75z"
          class="shadow"
          fill="#353535"
          opacity=".3"
        ></path>
        <circle
          cx="42.253"
          cy="31.5"
          r="3.25"
          class="neutral1"
          fill="#2b2b2b"
        ></circle>
        <circle
          cx="42.253"
          cy="31.5"
          r="1.711"
          class="secondary"
          fill="#FFDE00"
        ></circle>
        <circle
          cx="42.253"
          cy="31.5"
          r="1.368"
          class="shadow"
          fill="#353535"
          opacity=".3"
        ></circle>
        <circle
          cx="42.253"
          cy="31.5"
          r=".684"
          class="shadow"
          fill="#353535"
          opacity=".3"
        ></circle>
        <path
          d="M41.253 27.5h1l.25.25h-1.25zM40.253 27.5l.25.25h-22.25l-.25-.25zM10.003 24.25l-.25.25h27.25v-.25z"
          class="shadow"
          fill="#353535"
          opacity=".3"
        ></path>
        <path
          d="M37.003 24.5v-.25l4.25 3.25v.25zM10.749 23h13.004v.25h-13.25z"
          class="highlight"
          fill="#fefeff"
          opacity=".31"
        ></path>
        <path
          d="m3.003 33.25 11-14v-.75h-.25v-.25h-.25V19l-11 14z"
          class="primary"
          fill="#367C2B"
        ></path>
        <path
          d="M21.753 29.25h1.75v.5h-1.75z"
          class="shadow"
          fill="#353535"
          opacity=".3"
        ></path>
        <path
          d="M22.253 30.25h.75v.5h-.75z"
          class="neutral1"
          fill="#2b2b2b"
        ></path>
        <path
          d="M30.003 29.25h1.75v.5h-1.75z"
          class="shadow"
          fill="#353535"
          opacity=".3"
        ></path>
        <path
          d="M30.503 30.25h.75v.5h-.75z"
          class="neutral1"
          fill="#2b2b2b"
        ></path>
        <path
          d="M13.753 17.75v.75l3.5.25h13.75V18h-12.5z"
          class="primary"
          fill="#367C2B"
        ></path>
        <path
          d="M32.753 13h-14.25l-.25.25v4.5h-.25V18h1v-.25h-.25V16h12.75l1.5-1.5v-1.25zm-.25 1.5-1 1h-12.75v-2h13.75zM7.003 27.5h-2.75l-.25-.25v-2.5l4.5-5.75h1v5.25l-.5.5V19.5h-.25L4.503 25v2h2.5zM11.003 22.75h-.75V22h1.25zM12.253 21.25h-.75v-.75h1z"
          class="primary"
          fill="#367C2B"
        ></path>
        <path
          d="M29.253 23h8.5v.25h-8.5z"
          class="highlight"
          fill="#fefeff"
          opacity=".31"
        ></path>
      </g></svg>
