<svg xmlns="http://www.w3.org/2000/svg"
      class="css-9txd9r"
      focusable="false"
      viewBox="0 0 48 48"
      data-icon-name="PlantingPlanter"
      size="65"
    >
      <path
        id="PlantingPlanter__outline"
        d="M46.003 18h-.145a2 2 0 0 0-1.855-1.25h-9c-.839 0-1.558.517-1.855 1.25h-1.145V7.25a2 2 0 0 0-2.3-1.977l-28 4.25A2 2 0 0 0 .03 11.829l.25 1.5.02.105 1 4.5c.083.371.269.711.538.98l1.5 1.5q.074.073.153.138a2 2 0 0 0-.188 1.398l.75 3.25c.104.452.357.838.699 1.112v.189a2 2 0 0 0 2 2h5.75a2 2 0 0 0 1.973-1.669l1.567.063-1.193 2.236-1.84.662a5 5 0 0 0-.633-.042c-2.964 0-5.375 2.411-5.375 5.375s2.411 5.375 5.375 5.375a5.383 5.383 0 0 0 5.338-4.745 7.01 7.01 0 0 0 6.537 4.495c3.86 0 7-3.14 7-7q0-.729-.154-1.437a2 2 0 0 0 1.154-1.813v-.305l11.825-.446a2 2 0 0 0 1.925-1.999 2 2 0 0 0 2-2v-5.25a2 2 0 0 0-2-2Z"
        class="outline"
        fill="#fff"
      ></path>
      <g id="PlantingPlanter__icon">
        <path
          d="m18.503 25 1.75 1.25h1.75L20.753 25zM35.003 21.25v1l5 3h1.75v-4z"
          class="primary"
          fill="#367C2B"
        ></path>
        <path
          d="M35.003 21.25v1l5 3h1.75v-4z"
          class="shadow"
          fill="#353535"
          opacity=".3"
        ></path>
        <path
          d="m2.003 11.5.25 1.5 27.75-4V7.25z"
          class="neutral1"
          fill="#2b2b2b"
        ></path>
        <path
          d="M30.003 9v8h-2v2.25l-13 1.5-1-1.5-6.5-1.5-.25 1.25.5.5-3-.5-1.5-1.5-1-4.5z"
          class="secondary"
          fill="#FFDE00"
        ></path>
        <path
          d="M7.503 17.75 7.253 19l.5.5 1.25 1.75 6-.5-1-1.5zM28.003 17h2v2.25h-2z"
          class="neutral1"
          fill="#2b2b2b"
        ></path>
        <path
          d="M44.003 18.75h-9V20h-5v-.75h-2l-13 1.5-6 .5-3.75.25.75 3.25h6.5l12.5.5.75.5-6.25.5-1.25.75-2 3.75-6.25 2.25v1.25l7.5-1.25 1-.25 1.5-2.75h10.25v-2.75h13.75zm-14 6.5v-3.5h6.5v3.5zm7.75 0v-3.5h4v3.5z"
          class="primary"
          fill="#367C2B"
        ></path>
        <path
          d="M6.753 24.75h5.75v1.75h-5.75z"
          class="secondary"
          fill="#FFDE00"
        ></path>
        <path
          d="m8.753 14.25 1.25-.25.5 4.25-1.75-.25zM15.753 13.5l1.25-.25 1.5 7-2.5.25zM22.503 12.25l1.25-.25 1.25 7.5-2.25.25z"
          class="highlight"
          fill="#fefeff"
          opacity=".31"
        ></path>
        <path
          d="M10.003 33v1.25l7.5-1.25 1-.25 1.5-2.75h10.25v-2h-2v-1.25l-2.5-1-6.25.5-1.25.75-2 3.75zM35.003 20h6.75l.75-1.25h-7.5z"
          class="shadow"
          fill="#353535"
          opacity=".3"
        ></path>
        <path d="M44.003 20h2v5.25h-2z" class="primary" fill="#367C2B"></path>
        <path
          d="M44.003 20h.5v5.25h-.5z"
          class="shadow"
          fill="#353535"
          opacity=".3"
        ></path>
        <circle
          cx="24.253"
          cy="33.25"
          r="5"
          class="neutral1"
          fill="#2b2b2b"
        ></circle>
        <circle
          cx="24.253"
          cy="33.25"
          r="3.625"
          class="highlight"
          fill="#fefeff"
          opacity=".31"
        ></circle>
        <circle
          cx="12.378"
          cy="35.125"
          r="3.375"
          class="neutral1"
          fill="#2b2b2b"
        ></circle>
        <circle
          cx="12.378"
          cy="35.125"
          r="2.447"
          class="highlight"
          fill="#fefeff"
          opacity=".31"
        ></circle>
        <path
          d="m2.503 13.75 27.5-4V9l-27.75 4zM9.753 13.25l-1.25.25.25 4.5v-3.75l1.25-.25zM15.253 12.75l1.5-.25.25.75-1.25.25.25 6.25v.75zM22.003 11.5l1.75-.25V12l-1.25.25.25 7.5z"
          class="shadow"
          fill="#353535"
          opacity=".3"
        ></path>
        <circle
          cx="29.253"
          cy="20.875"
          r=".375"
          class="neutral2"
          fill="#808082"
        ></circle>
        <circle
          cx="29.378"
          cy="26.125"
          r=".375"
          class="neutral2"
          fill="#808082"
        ></circle>
        <circle
          cx="37.003"
          cy="20.875"
          r=".375"
          class="neutral2"
          fill="#808082"
        ></circle>
        <circle
          cx="37.128"
          cy="26.125"
          r=".375"
          class="neutral2"
          fill="#808082"
        ></circle>
        <path
          d="m7.503 18.5 3.25.75 4.25 1.5-4.5-1-3-1z"
          class="highlight"
          fill="#fefeff"
          opacity=".31"
        ></path>
        <circle
          cx="24.253"
          cy="33.25"
          r=".5"
          class="neutral1"
          fill="#2b2b2b"
        ></circle>
        <path
          d="M6.753 24.75h5.75v.5h-5.75z"
          class="shadow"
          fill="#353535"
          opacity=".3"
        ></path>
        <path
          d="m30.253 27.25.5.5 13.25-.5z"
          class="primary"
          fill="#367C2B"
        ></path>
        <path
          d="m30.253 27.25.5.5 13.25-.5z"
          class="shadow"
          fill="#353535"
          opacity=".3"
        ></path>
      </g></svg>
