<svg xmlns="http://www.w3.org/2000/svg"
        class="css-9txd9r"
        focusable="false"
        viewBox="0 0 32 32"
        data-icon-name="PneumaticTireRoller"
      >
        <path
          id="PneumaticTireRoller__outline"
          d="M31.1 19.8q.75-.15.9-.9c.1-1.3-.7-2.7-2.6-4.3v-1.1c0-.2-.1-.4-.2-.6l-.9-1.4c-.1-.1-.2-.2-.2-.3-.1-.5-.5-.8-1-.8h-.4c-.6 0-1 .4-1 1v.5c-.2-.1-.3-.1-.4-.2l-1.1-5c.1-.1.2-.1.2-.2.2-.3.2-.6.1-.9l-.3-.8c-.1-.4-.5-.6-.9-.6H12.7q-.6 0-.9.6l-.4.8c-.1.3-.1.7.1 1 .1.2.3.4.5.4v3.5c-1.1.2-2.1.5-3.2.9l-1.2-.7c-.3-.2-.7-.4-1.1-.4-.6 0-1.1.2-1.5.7l-.6.7c-.3.3-.4.6-.5 1l-.1.7c-.6.3-1.1.7-1.6 1.1l-.2.2c-.3.4-.4.9-.5 1.3 0 .1 0 .2-.1.2-.1.1-.1.3-.1.5L.2 18.6c-.2.3-.2.7 0 1 .1.2.3.4.6.4v.4c-.5.7-.8 1.6-.8 2.5 0 2.4 1.9 4.3 4.3 4.3 1.6 0 3-.8 3.7-2.1.1.1.3.1.4.1h14.8c.2 0 .4-.1.6-.2.7 1.3 2.2 2.2 3.8 2.2 2.4 0 4.3-1.9 4.3-4.3 0-1.2-.5-2.3-1.3-3.1h.2c.1.1.2 0 .3 0"
          class="outline"
          fill="#FFFFFF"
        ></path>
        <g id="PneumaticTireRoller__main_shape">
          <path
            d="m28.6 20.2-3.6 3-2.5-2.6 5-3.1z"
            class="primary"
            fill="#FD5C00"
          ></path>
          <path
            d="m28.6 20.2-3.6 3-2.5-2.6 5-3.1z"
            class="shadow"
            opacity=".3"
            fill="#333"
          ></path>
          <path
            d="M8.4 23.7H2L1.8 19h6.3z"
            class="primary"
            fill="#FD5C00"
          ></path>
          <path
            d="M8.4 23.7H2L1.8 19h6.3zM21.6 14.1c-.5.4-.7.7-1.2.7-.7-.2-1.4-.4-2.2-.6v-.5l.8-1.3.1-.1c.4-.3.4-1 .4-1h-1.9s-.4-1.1-.8-1.5c-.3-.2-.8 0-.8 0v2.6l.8 1.3v2h5.4c-.1.1-.6-1.6-.6-1.6"
            class="shadow"
            opacity=".3"
            fill="#333"
          ></path>
          <path
            d="M22.1 15.8h2.6L22 10.3l-.3.1.2-.9.5-.2-.2-.3-2.1 1 .1.3.5-.2.7.5-.8.5z"
            class="shadow"
            opacity=".3"
            fill="#333"
          ></path>
          <path
            d="m6.5 13.3.8-.3-1.4-1.2.3 1.2z"
            class="secondary"
            fill="#808080"
          ></path>
          <path
            d="M22.9 6.1h-9.7c-.1 2.9-.2 8.3-.3 11.3h11.3c.1-.5.4-3.3.4-3.6 0-.4-.1-.7-.2-.9z"
            class="window"
            opacity=".3"
            fill="#5dc9e8"
          ></path>
          <path
            d="M10.1 16.1c.6-.1 1.2-.1 1.2-.1l.2.4c.1.1.2.5.4 1 1.1 0 2.1-.1 3.2-.1 0-.8-.2-1.9-.6-3-.1-.3-.4-1.3-1.2-2.3-.1-.2-.3-.4-.4-.6-1.6.3-3.5.8-5.5 1.6-1.8.7-3.3 1.2-4.6 2.3-.3.4-.3 1-.5 1.4-.1 0 7.8-.6 7.8-.6"
            class="primary"
            fill="#FD5C00"
          ></path>
          <circle
            cx="4.3"
            cy="22.9"
            r="3.3"
            class="tertiary"
            fill="#333"
          ></circle>
          <circle
            cx="4.3"
            cy="22.9"
            r="1.7"
            class="secondary"
            fill="#808080"
          ></circle>
          <circle
            cx="4.3"
            cy="22.9"
            r=".7"
            class="shadow"
            opacity=".3"
            fill="#333"
          ></circle>
          <path
            d="M28.4 15.1v-1.5l-.9-1.4h-.4v-.6h-.4v2.1h.4V13h.4l.5.7v1.1c-1.4-1.1-2.9-1.9-3.1-1.9-.4 0-.4 0-.4.4v1.3H24l-.8 1.3 7.5 3.1h.2c.2-1.3-1.1-2.8-2.5-3.9"
            class="secondary"
            fill="#808080"
          ></path>
          <path
            d="m1 19 1.2-2.2c.1 0 7.5-.6 7.7-.5.1 0 1.2 1.7 1.2 1.6H22c.1-.1 1.1-2 1.3-2.2 0 0 6.2 1 7 1.7.5.4.6 1.1.6 1.1 0 .1.1.2 0 .3h-5c-.2 0-.6 0-1 .3-.3.2-.4.4-.5.6l-1.1 4.5H8.4L7.6 20c-.1-.4-.5-.7-.9-.8-1.9 0-3.8-.1-5.7-.2"
            class="primary"
            fill="#FD5C00"
          ></path>
          <path
            d="M20.4 24v-5.6c0-.1-.1-.2-.2-.2h-4.1c-.1 0-.2.1-.2.2V24z"
            class="shadow"
            opacity=".3"
            fill="#333"
          ></path>
          <path
            d="M16.3 18.6H20v.8h-3.7zM16.3 20H20v.8h-3.7zM16.3 21.4H20v.8h-3.7z"
            class="primary"
            fill="#FD5C00"
          ></path>
          <circle
            cx="27.6"
            cy="22.9"
            r="3.3"
            class="tertiary"
            fill="#333"
          ></circle>
          <circle
            cx="27.6"
            cy="22.9"
            r="1.7"
            class="secondary"
            fill="#808080"
          ></circle>
          <circle
            cx="27.6"
            cy="22.9"
            r=".7"
            class="shadow"
            opacity=".3"
            fill="#333"
          ></circle>
          <path
            d="M16.3 22.7H20v.8h-3.7z"
            class="primary"
            fill="#FD5C00"
          ></path>
          <path
            d="M22.2 15.8c-.7-3.5-1.2-6.1-1.9-9.7h3.2l-.3-.8H12.7c-.1.3-.3.6-.4.8h.7l-.1 5.3h-.1s1.1 1.6 1.3 2.2c.2.5.6 2 .6 2s-4.6.4-5.2.5l.1-2.5c0-.3-.1-.6-.4-.8L7 11.5c-.4-.3-1-.3-1.3.1l-.6.7c-.1.1-.2.3-.2.5l-.7 3.7c-1 .1-1.6.1-1.6.1h-.3v1.3H22l1.5-2.2c-.4.1-.9.1-1.3.1M5 12.9c0-.1.1-.3.2-.4l.6-.7c.3-.3.7-.3 1.1-.1l2.2 1.2q.3.3.3.6L9.3 16c-1.9.2-3.7.3-5 .4zm10.5 1.8q-.15-.3-.3-.9c-.1-.4-.3-.9-.8-1.6-.2-.3-.4-.6-.6-.8V8.3c0-.8.1-1.5.1-2.1h1.5c.1-.1.1 8.5.1 8.5m.5 1.1V6.1h3.6l.3.3c.7 3.4 1.1 5.9 1.8 9.3-2 .1-3.9.1-5.7.1"
            class="tertiary"
            fill="#333"
          ></path>
          <path
            d="M22.2 15.8c-.7-3.5-1.2-6.1-1.9-9.7h3.2l-.3-.8H12.7c-.1.3-.3.6-.4.8h.7l-.1 5.3h-.1s1.1 1.6 1.3 2.2c.2.5.6 2 .6 2s-4.6.4-5.2.5l.1-2.5c0-.3-.1-.6-.4-.8L7 11.5c-.4-.3-1-.3-1.3.1l-.6.7c-.1.1-.2.3-.2.5l-.7 3.7c-1 .1-1.6.1-1.6.1h-.3v1.3H22l1.5-2.2c-.4.1-.9.1-1.3.1M5 12.9c0-.1.1-.3.2-.4l.6-.7c.3-.3.7-.3 1.1-.1l2.2 1.2q.3.3.3.6L9.3 16c-1.9.2-3.7.3-5 .4zm10.5 1.8q-.15-.3-.3-.9c-.1-.4-.3-.9-.8-1.6-.2-.3-.4-.6-.6-.8V8.3c0-.8.1-1.5.1-2.1h1.5c.1-.1.1 8.5.1 8.5m.5 1.1V6.1h3.6l.3.3c.7 3.4 1.1 5.9 1.8 9.3-2 .1-3.9.1-5.7.1"
            class="secondary"
            fill="#808080"
          ></path>
        </g></svg>
