<svg xmlns="http://www.w3.org/2000/svg"
        class="css-9txd9r"
        focusable="false"
        viewBox="0 0 32 32"
        data-icon-name="PowerFeeder"
      >
        <path
          id="PowerFeeder__outline"
          d="m32 23.8-.1-.5-.1-.9c0-.2-.1-.5-.1-1.1-.2-1.8-.4-3-.5-3.3-.1-.2-.2-.3-.4-.5l-1.6-1.1c-.1-.1-.2-.1-.3-.2-.2 0-4-.9-6.2-1.3v-1c-.2-.7-.2-1.1-.2-1.1 0-.1 0-.1-.1-.2l.8-3.6c.7-.1 1.2-.6 1.2-1.3 0-.4-.1-.7-.4-1-.2-.3-.6-.4-1-.4l-10.5-.6c-.7 0-1.3.6-1.4 1.3 0 .4.1.7.4 1 .2.2.4.3.6.4l.2 1.8c-.2.2-.2.5-.2.7l.3 2.1-2.3-1.5s-.1 0-.1-.1l-6.3-4c-.2-.1-.3-.1-.5-.1H1c-.5 0-1 .4-1 1v3.9c0 .5.4 1 1 1h1.7c.4 0 .8-.3.9-.6v-.1l3.2 1.8.2.7c-.2.2-.4.6-.4.9l-.1.5c-.2 1-.4 1.8-.5 2.7 0 .3-.1.8.1 1.3.1.4.3.6.5 1 .1.2.3.3.4.4l-.4 1.8c-.1.3 0 .6.2.8s.4.4.7.4h.1c.5.8 1.4 1.3 2.3 1.3h12.3c.8 0 1.5-.3 2-.9h1.7c.2.2.4.2.6.3l3.3.1h.2c1.1 0 2-.8 2-1.8q0 .15 0 0"
          class="outline"
          opacity=".3"
          fill="#FFFFFF"
        ></path>
        <g id="PowerFeeder__main_shape">
          <path
            d="m8 21.3 21.4 1.5 1.3 2.1-23.3-.7z"
            class="quaternary"
            fill="#333"
          ></path>
          <path
            d="M22.2 22.4c0-2.7-.4-3.3-.4-6.1l-7.8-.1v.1l.4 5.4z"
            class="primary"
            fill="#008656"
          ></path>
          <path
            d="M22.2 22.4c0-2.7-.4-3.3-.4-6.1l-7.8-.1v.1l.4 5.4z"
            class="primary"
            fill="#008656"
          ></path>
          <path
            d="M14.6 15.4H7.9c-.3 0-.6.3-.7.7q-.45 1.8-.6 3.3c0 .3 0 .6.1.8.1.3.2.5.5.9.1.1.3.2.3.2l6.9.4.8-5.4z"
            class="primary"
            fill="#008656"
          ></path>
          <path
            d="M14.6 15.4H7.9c-.3 0-.6.3-.7.7q-.45 1.8-.6 3.3c0 .3 0 .6.1.8.1.3.2.5.5.9.1.1.3.2.3.2l6.9.4.8-5.4z"
            class="primary"
            fill="#008656"
          ></path>
          <path
            d="M13.8 21.7h-.3v-4.3h.1s1.2-.9 1.7-1.2l.2.2c-.4.3-1.4 1-1.6 1.2z"
            class="shadow"
            opacity=".3"
            fill="#333"
          ></path>
          <path
            d="M31.4 23.6v-.5c-.1-.6-.1-.6-.2-1.6-.4-2.8-.5-3.2-.5-3.2L29 17.2s-5.3-1.2-7.2-1.4v1.7l.2 4.8c2.6.2 4.7.5 7.1.9-.1 0-.2.1-.2.3v1.2q0 .3.3.3h1.1c.6 0 1-.3 1-.9z"
            class="primary"
            fill="#008656"
          ></path>
          <path
            d="M31.4 23.6v-.5c-.1-.6-.1-.6-.2-1.6-.4-2.8-.5-3.2-.5-3.2L29 17.2s-5.3-1.2-7.2-1.4v1.7l.2 4.8c2.6.2 4.7.5 7.1.9-.1 0-.2.1-.2.3v1.2q0 .3.3.3h1.1c.6 0 1-.3 1-.9z"
            class="primary"
            fill="#008656"
          ></path>
          <path
            d="m30.2 24.4.1.7-3.4-.1-1.9-2.3 4.4.5zM21.4 12.9h-.2l1.2-5.2h.2z"
            class="tertiary"
            fill="gray"
          ></path>
          <path
            d="m23.2 7.8-10.8-.6c-.2 0-.4-.2-.4-.4s.2-.4.5-.4l10.8.6c.2 0 .4.2.4.4-.1.2-.3.4-.5.4"
            class="secondary"
            fill="#FFE500"
          ></path>
          <path
            d="M22.4 25.6H9.7c-1 0-1.8-.8-1.9-1.8q0-.9.6-1.5c.4-.4.9-.6 1.4-.5l3.1.2c3.2.2 7.2.4 9.3.6 1.2.1 1.8.6 1.8 1.6v.1c0 .7-.7 1.3-1.6 1.3m-2.7-.5h2.7c.6 0 1.1-.4 1.1-.9v-.1c0-.5-.2-.9-1.3-1-2.1-.2-6.1-.4-9.3-.6l-3.1-.2c-.4 0-.7.1-1 .4s-.4.7-.4 1.1c.2.7.7 1.2 1.4 1.2h7.1c1 .1 1.9.1 2.8.1"
            class="quaternary"
            fill="#333"
          ></path>
          <path
            d="M23.6 24.1c0 .5-.3.9-.8.9s-.8-.4-.8-.9.4-.9.8-.9.8.4.8.9M21.9 24.4c0 .4-.3.7-.6.7s-.6-.3-.6-.7.3-.7.6-.7.6.3.6.7M20.6 24.4c0 .4-.3.7-.6.7s-.6-.3-.6-.7.3-.7.6-.7c.4 0 .6.3.6.7M19.3 24.4c0 .4-.3.7-.6.7s-.6-.3-.6-.7.3-.7.6-.7.6.3.6.7M18 24.4c0 .4-.3.7-.6.7s-.6-.3-.6-.7.3-.7.6-.7.6.3.6.7M16.7 24.4c0 .4-.3.7-.6.7s-.6-.3-.6-.7.3-.7.6-.7.6.3.6.7M15.4 24.4c0 .4-.3.7-.6.7s-.6-.3-.6-.7.3-.7.6-.7.6.3.6.7M14.1 24.4c0 .4-.3.7-.6.7s-.6-.3-.6-.7.3-.7.6-.7.6.3.6.7M12.8 24.4c0 .4-.3.7-.6.7s-.6-.3-.6-.7.3-.7.6-.7.6.3.6.7M11.5 24.4c0 .4-.3.7-.6.7s-.6-.3-.6-.7.3-.7.6-.7.6.3.6.7"
            class="quaternary"
            fill="#333"
          ></path>
          <path
            d="M8.4 23.6c0 .4.3 1.2.9 1.3.5.1.9 0 1.4-.6.1-.1.3 0 .3 0l1.7.1 11.5-.4-.2-.8s-8.8-.7-13.5-.9c-.4 0-.7 0-1 .1-.8.1-1.1.9-1.1 1.2"
            class="tertiary"
            fill="gray"
          ></path>
          <path
            d="m25.9 19.3-2.8-.2v-.6l2.8.2z"
            class="white"
            fill="#fff"
          ></path>
          <path
            d="m26.4 18.9 4.3.3-.1.4-4.3-.4z"
            class="shadow"
            opacity=".3"
            fill="#333"
          ></path>
          <path
            id="PowerFeeder__SVGID_1_"
            d="M16.1 13.9s-.8-2.1-.7-2.8c0-.2.5-.2.7 0 .3.4 1 1.3 1 1.3h1.4s.5.7-.3.9l-.2.5z"
            class="tertiary"
            fill="gray"
          ></path>
          <path
            d="m21.8 14.1-.3-1.2-.5-.1v-.2l-.5-.5h-.6l.3-1 .5-.3-.2-.2-2.2 1.1.1.3.5-.3.3.2v.7l.6.9-.3 1.6h-1.6l.1-1.5h-1.9l.3 1.5h-.6L14.6 13l-.5-2.6h-.3L13.4 7h-.6l.4 3.4h-.3l.5 3.3 1.9 2.5h6.6zM.5 12h1.8l.4-1.2 4.7 2.7.5 1.9h6.3l-5.6-3.7L5.9 10 2.8 8H.5z"
            class="tertiary"
            fill="gray"
          ></path>
          <path
            d="m7.4 13.5 2-1.3 4.8 3.2H7.9zM2.7 10.8 2.3 12H.5v-1.2zM30.2 24.4l.1.7-3.4-.1-1.9-2.3 4.4.5zM20.5 18.2h-4.8c-.1 0-.3-.1-.3-.3v-.1c0-.1.1-.3.3-.3h4.8c.1 0 .3.1.3.3v.2c-.1.1-.2.2-.3.2M20.5 19.1h-4.1c-.1 0-.3-.1-.3-.3v-.1c0-.1.1-.3.3-.3h4.1c.1 0 .3.1.3.3v.1q-.15.3-.3.3M20.5 20H17c-.1 0-.3-.1-.3-.3v-.1c0-.1.1-.3.3-.3h3.5c.1 0 .3.1.3.3v.1c-.1.2-.2.4-.3.3M20.5 20.9h-2.8c-.1 0-.3-.1-.3-.3v-.1c0-.1.1-.3.3-.3h2.8c.1 0 .3.1.3.3v.1q-.15.3-.3.3M8 17.8h2.6v1.4H8z"
            class="shadow"
            opacity=".3"
            fill="#333"
          ></path>
          <path
            d="M21.4 16.4V19l4.6 5.7h.7l-4.8-5.8v-2.5z"
            class="shadow"
            opacity=".3"
            fill="#333"
          ></path>
        </g></svg>
