<svg xmlns="http://www.w3.org/2000/svg"
  class="css-9txd9r"
  focusable="false"
  viewBox="0 0 48 48"
  data-icon-name="ResZeroTurnMower"
  size="65"
>
  <path
    id="ResZeroTurnMower__outline"
    d="M47.611 31.983c.091-.232.139-.48.139-.733v-3.5a2 2 0 0 0-.586-1.414l-.25-.25A2 2 0 0 0 45.5 25.5h-.219l-.288-.165a2 2 0 0 0-.204-.73l-.25-.5a2 2 0 0 0-1.298-1.044 2 2 0 0 0-.276-.84l-.75-1.25a2 2 0 0 0-2.044-.944l-1.5.25a2 2 0 0 0-1.233.723l-1 1.25a2 2 0 0 0-.375 1.749h-5.637l-.679-1.221a2 2 0 0 0-1.005-.886l-.155-.062-.104-.829a2 2 0 0 0-.087-.384l-.147-.442V19.5a2 2 0 0 0-.05-.446c.19-.306.3-.667.3-1.054v-2q0-.28-.077-.549l-.423-1.481V12a2 2 0 0 0-.586-1.414l-.25-.25a2 2 0 0 0-1.414-.586h-.75a2 2 0 0 0-1.414.586l-.25.25A2 2 0 0 0 22.749 12v1.558l-.618-.206a2 2 0 0 0-.24-.064l-1.124-.225-.479-.958a2 2 0 0 0-.375-.52l-.839-.839-1.129-1.807a2 2 0 0 0-.587-.604l-.75-.5a2 2 0 0 0-1.109-.336h-.25c-.31 0-.617.072-.894.211l-.5.25a2 2 0 0 0-.77.679l-.5.75a2 2 0 0 0-.336 1.109v2q0 .198.039.392l.522 2.609h-2.311a2 2 0 0 0-1.414.586l-.416.416a2 2 0 0 0-1.243.498H4.499a2 2 0 0 0-1.162.372l-1.75 1.25a2 2 0 0 0-.735.995l-.25.75a2 2 0 0 0-.043.147L.06 22.515a2 2 0 0 0-.012.919L.28 24.48c-.262.441-.352.98-.22 1.506l.75 3a2 2 0 0 0 .831 1.179l.75.5 2.36 1.652c.036 4.381 3.611 7.934 8 7.934a7.98 7.98 0 0 0 6.071-2.796q.207.045.429.046H30.44q.069.086.147.164l.25.25a2 2 0 0 0 1.414.586h2q.205 0 .401-.041a3.865 3.865 0 0 0 3.937-.597 5.49 5.49 0 0 0 3.912 1.638c3.033 0 5.5-2.467 5.5-5.5a5.4 5.4 0 0 0-.389-2.017Z"
    class="outline"
    fill="#fff"
  ></path>
  <g id="ResZeroTurnMower__icon">
    <path
      d="m19 28-1.5-2-7.25-1H10l-2-.75L9.25 22 9 21.25H6l-3.25-1-.25.75-.5 2 .5 2.25-.5.25.75 3 .75.5.25-.5L6 30v.75l.5.25.35.18a6.03 6.03 0 0 1 2.7-4 5.9 5.9 0 0 1 3.2-.93 6 6 0 0 1 5.68 4.07l.82-.07h.25V28zM6 26.75l-1.5-.25-1-.25-.5-.75.5-1.75.5-1.25 2 .5 1.25 1z"
      class="primary"
      fill="#367C2B"
    ></path>
    <path
      d="m4 22.5-.5 1.25L3 25.5l.5.75 1 .25 1.5.25L7.25 24 6 23zM3.75 28.5l-.25.5L6 30.75V30zM45.227 31.831l-.62.689c.295.419.472.928.472 1.48a2.58 2.58 0 1 1-2.579-2.579c.254 0 .495.048.727.117l.486-.809A3.5 3.5 0 0 0 42.5 30.5 3.5 3.5 0 1 0 46 34c0-.824-.297-1.571-.773-2.169"
      class="neutral1"
      fill="#2b2b2b"
    ></path>
    <path
      d="M44.563 34a2.063 2.063 0 1 1-2.063-2.063c.157 0 .308.021.455.054l.272-.453a2.5 2.5 0 0 0-.727-.117A2.58 2.58 0 1 0 45.079 34c0-.552-.177-1.061-.472-1.48l-.358.397c.196.315.314.684.314 1.083"
      class="secondary"
      fill="#FFDE00"
    ></path>
    <path
      d="M40.437 34a2.063 2.063 0 0 0 4.126 0c0-.398-.118-.767-.314-1.083l-.749.833-.013.027c.017.074.045.144.045.223a1.032 1.032 0 1 1-2.064 0c0-.517.387-.927.882-1.002l.604-1.007a2 2 0 0 0-.455-.054A2.063 2.063 0 0 0 40.436 34Z"
      class="secondary"
      fill="#FFDE00"
    ></path>
    <path
      d="M40.437 34a2.063 2.063 0 0 0 4.126 0c0-.398-.118-.767-.314-1.083l-.749.833-.013.027c.017.074.045.144.045.223a1.032 1.032 0 1 1-2.064 0c0-.517.387-.927.882-1.002l.604-1.007a2 2 0 0 0-.455-.054A2.063 2.063 0 0 0 40.436 34Z"
      class="shadow"
      fill="#353535"
      opacity=".3"
    ></path>
    <path
      d="M41.468 34a1.032 1.032 0 1 0 2.064 0c0-.079-.028-.149-.045-.223l-.237.473-.5.5H42l-.25-.25V34l.601-1.002A1.02 1.02 0 0 0 41.469 34Z"
      class="secondary"
      fill="#FFDE00"
    ></path>
    <path
      d="M41.468 34a1.032 1.032 0 1 0 2.064 0c0-.079-.028-.149-.045-.223l-.237.473-.5.5H42l-.25-.25V34l.601-1.002A1.02 1.02 0 0 0 41.469 34Z"
      class="shadow"
      fill="#353535"
      opacity=".3"
    ></path>
    <path
      d="M41.468 34a1.032 1.032 0 1 0 2.064 0c0-.079-.028-.149-.045-.223l-.237.473-.5.5H42l-.25-.25V34l.601-1.002A1.02 1.02 0 0 0 41.469 34Z"
      class="shadow"
      fill="#353535"
      opacity=".3"
    ></path>
    <path
      d="M23.25 28h5.25l.25-.5.25-.5.25-.75V26L28 23.75l-1.25-.5-.25-2-.25-.75-.207-.012L26 21v2.5l-1-.25v-2.5l.058-.32L22 20.25l-.25.25v.5h-1l-.5.25h-.5V21l-.25-.25H19l-.25.25h-1l-1-.75-1-.25v-.5l-.5-.5h-.5l-.25-.5H14l-1.25-1H10.5l-1 1h-.75l-.25.5h-4l-1.75 1.25 3.25 1h3l.25.75L8 24.25l2 .75h.25l7.25 1 1.5 2h.5v2.25l1-.25v-1l.25-1zm-4-3-8.5-1 .75-1.75 7.75.75 7.25.75 1 2 .25.5-.25 1v.25h-6.25z"
      class="neutral1"
      fill="#2b2b2b"
    ></path>
    <path
      d="m16.75 17.5.5-.25L17 17v-.75l.25-.5.25-.25.5-.25 1-.25v-1l-.5-1-1-1-1.25-2-.75-.5h-.25l-.5.25-.5.75v2l1 5 .75.25z"
      class="secondary"
      fill="#FFDE00"
    ></path>
    <path
      d="M16.5 19.5h.25l.5-.25.75-.5.5-.75v-.5h-.75l-.5-.25-.5.25-.75.25-.75-.25-.25.25v.75l.25.5.5.5z"
      class="neutral2"
      fill="#808082"
    ></path>
    <path
      d="m17.5 15.5-.25.25-.25.5V17l.25.25.5.25h1l.25-.25.25-.25 1.25-.25h2l.5.25h.25l-.25-.75-.25-.25-.5-.5-.75-.25-1.25-.25H19l-1 .25zm.75.875a.375.375 0 1 1-.75 0 .375.375 0 0 1 .75 0"
      class="neutral1"
      fill="#2b2b2b"
    ></path>
    <circle
      cx="17.875"
      cy="16.375"
      r=".375"
      class="neutral2"
      fill="#808082"
    ></circle>
    <path
      d="M18.5 17.5v.5l-.5.75-.75.5-.5.25h-1v.5l1 .25 1 .75h.5v-.25l.25-.25-.75-1.25.75-.5 1 1.5h.25l.5.25.5.5h1v-.5l.25-.25 3.058.18.235-1.289-1.043-.391L22.5 18h-3l-.5-.5v-.25l-.25.25zM26.25 20.5v-1l-.121-.045-.086 1.033z"
      class="secondary"
      fill="#FFDE00"
    ></path>
    <path
      d="M27.5 27.5v-.25l.25-1-.25-.5-1-2-7.25-.75-7.75-.75-.75 1.75 8.5 1 2 2.5zm-1-.5h-3.75l-1-1 5.25.25zm-14.75-3.5.25-.75 14 1.5.75 1.5-5.5-.25-1-1z"
      class="primary"
      fill="#367C2B"
    ></path>
    <path
      d="m26.75 25.75-.75-1.5-14-1.5-.25.75 8.5 1 1 1z"
      class="stripe"
      fill="#FFDE00"
    ></path>
    <path
      d="M22.75 27h3.75l.5-.75-5.25-.25z"
      class="neutral1"
      fill="#2b2b2b"
    ></path>
    <path
      d="M19.75 20.25H19l-.5.25-.25.25V21h.5l.25-.25h.5l.25.25v.25h.5l.5-.25-.5-.5z"
      class="neutral2"
      fill="#808082"
    ></path>
    <path
      d="m19.5 20.25-1-1.5-.75.5.75 1.25.5-.25z"
      class="neutral1"
      fill="#2b2b2b"
    ></path>
    <path
      d="m29 27-.25.5h8.5l1-1.5h-.75l-.5 1h-2l.5-.75-.25-.25h-.5l-.5 1h-2l.5-.75-.25-.25H32l-.5 1h-2l.5-.75-.25-.25h-.5v.25z"
      class="neutral2"
      fill="#808082"
    ></path>
    <path
      d="m28 28.25.25.5-.469.25H36.5l.75-1.5h-8.5l-.25.5h-4.75v1h2.844zM20.75 28l-.25 1h2.75v-1z"
      class="primary"
      fill="#367C2B"
    ></path>
    <path
      d="M36.5 29v.5l.25.25H38l.275-.5h-.025l2.5-4.5.5-1v-.5L40.5 22l-1.5.25-1 1.25.75 1.5-.5 1-1 1.5zm1.25-.125a.375.375 0 1 1-.75 0 .375.375 0 0 1 .75 0"
      class="neutral1"
      fill="#2b2b2b"
    ></path>
    <circle
      cx="37.375"
      cy="28.875"
      r=".375"
      class="neutral2"
      fill="#808082"
    ></circle>
    <path
      d="M29.5 27h2l.5-1h-2.25l.25.25zM32.25 27h2l.5-1H32.5l.25.25zM35 27h2l.5-1h-2.25l.25.25zM44 27.75v.5h1.75v-.5l-.25-.25h-1.25z"
      class="neutral1"
      fill="#2b2b2b"
    ></path>
    <path
      d="m42.955 31.991-.604 1.007L41.75 34v.5l.25.25h.75l.5-.5.237-.473.013-.027.749-.833.358-.397.62-.689.523-.581v-3H44v-.5l.25-.25h.5l-1.75-1v-1l-.25-.5h-2v-.25l-2.5 4.5H43l1 1-.287.479-.486.809zm-.58 2.509a.375.375 0 1 1 0-.75.375.375 0 0 1 0 .75"
      class="primary"
      fill="#367C2B"
    ></path>
    <circle
      cx="42.375"
      cy="34.125"
      r=".375"
      class="neutral2"
      fill="#808082"
    ></circle>
    <path d="M29.75 29H31v1.25h-1.25z" class="neutral1" fill="#2b2b2b"></path>
    <path
      d="m36 31.75 1.038-.472L37 31.25 34 31v-.75h-8.562l-.188.1v1.15l-.5.5-1 .75V33l1.5-.5h8.5l.75 1v.456A1.87 1.87 0 0 1 36.125 33a1.874 1.874 0 0 1 1.837 2.25h.538V33.5L38 32l-.2-.15-1.3.65z"
      class="primary"
      fill="#367C2B"
    ></path>
    <path
      d="M36.125 33c-.7 0-1.303.388-1.625.956V33.5l-.75-1h-8.5l-1.5.5-4 1.75-.5.25v.5H32v.75l.25.25h2l.25-.5v-2h2l.25.25v1.5l-.25.25h-1.867c.342.453.88.75 1.492.75a1.875 1.875 0 0 0 0-3.75"
      class="neutral1"
      fill="#2b2b2b"
    ></path>
    <path
      d="M36.75 35.75v-1.5L36.5 34h-2v2h2zm-.625-.25a.375.375 0 1 1 0-.75.375.375 0 0 1 0 .75"
      class="primary"
      fill="#367C2B"
    ></path>
    <circle
      cx="36.125"
      cy="35.125"
      r=".375"
      class="neutral2"
      fill="#808082"
    ></circle>
    <circle
      cx="22.375"
      cy="31.375"
      r=".375"
      class="neutral2"
      fill="#808082"
    ></circle>
    <path
      d="m2.5 21 3 1h3.75L9 21.25H6l-3.25-1zM5.5 19l2 1.25h2.75l.25-.5 4.25.25h1v-.5l-.5-.5zM11.5 17.5v1h.5l-.25-1zM12 17.5l.25 1h.5l-.5-1zM12.5 17.5l.75 1h.5l-1-1zM11.25 17.5v1h-.5l.25-1zM10.75 17.5l-.5 1h-.5l.75-1zM11.5 22.25l.5.5 14 1.5.75 1.5h.75l-1-2-7.25-.75zM43 27v-.5l1.75 1h-.5l-.25.25z"
      class="highlight"
      fill="#fefeff"
      opacity=".31"
    ></path>
    <path d="m25.25 32.5-.5 1h8.5l.5-1z" class="neutral2" fill="#808082"></path>
    <path
      d="M9 21.25H6l-.5.75h3.75zM7.25 24 6 26.75l.25.25 1.25-2.75z"
      class="highlight"
      fill="#fefeff"
      opacity=".31"
    ></path>
    <path
      d="m6 26.75-1.5-.25-1-.25-.25.25 3 .5z"
      class="highlight"
      fill="#fefeff"
      opacity=".31"
    ></path>
    <path
      d="m3 25.5-.25.25.5.75.25-.25zM11.5 22.25l.5.5 14 1.5.5-.5-7.25-.75z"
      class="highlight"
      fill="#fefeff"
      opacity=".31"
    ></path>
    <path
      d="m10.75 24-.38.77 7.38.98-.25.25-7.25-1H10l-2-.75.25-.25 1.89.71.36-.71.75-1.75-1.75-.75.25-.25 1.75.75.74-1.48-1.74-.77 4.25.25h1l1 .25 1 .75-5-.25-.31-.14-.69 1.39L25 23.25l1.5.25v.25L19.25 23l-7.75-.75z"
      class="highlight"
      fill="#fefeff"
      opacity=".31"
    ></path>
    <path
      d="m17.75 25.75 1.5 2H21l.25.25H19l-1.5-2zM10.5 19.75l4.25.25h1l1 .25 1 .75-5-.25zM15.25 9.5h.25l.75.5 1.25 2 1 1 .5 1v1l-1 .25v-1l-.5-1-.75-1-1.5-1.75z"
      class="highlight"
      fill="#fefeff"
      opacity=".31"
    ></path>
    <path
      d="m26.25 20.25-1.25-.5-1.75-.25-5.25.25-.5-.5h-.25l-.5.25h-1v.5l1 .25 1 .75h1l1 .25h.5l.5-.25h1v-.5l.25-.25 4.25.25zM42.25 25.75h-1.5L39.5 28h3z"
      class="shadow"
      fill="#353535"
      opacity=".3"
    ></path>
    <path
      d="M41 26h1l.25 1.75H40zM43 27v2.25l1 1v-2.5zM43.75 30.75h.75l.75.5v.5l.5-.5v-.5l-.75-.5h-1zM25.25 31.5h8.25v-1.25h.5V32h-9.25zM37 31.25l-.5 1.25-1.5.25h1.75L38 32zM19.5 28v2.25h-.25l-.82.07a6 6 0 0 0-5.68-4.07c-1.18 0-2.28.34-3.2.93a6.03 6.03 0 0 0-2.7 4L6.5 31l2.25-4.25-.75-2.5 2 .75h.25l7.25 1 1.5 2zM15.25 19h-1l.5 1h1v-.5z"
      class="shadow"
      fill="#353535"
      opacity=".3"
    ></path>
    <path
      d="M19.5 28v2.25l-1.07.07a6 6 0 0 0-5.68-4.07c-1.18 0-2.28.34-3.2.93l-.8-.43-.75-2.5 2 .75h.25l7.25 1 1.5 2zM11.75 23.5l-1 .5 8.5 1 1-.5zM2.75 25.75l.5-2 .5-1.25H4l-.5 1.25L3 25.5zM20.75 28l-.25 1h7.25l.75-1z"
      class="shadow"
      fill="#353535"
      opacity=".3"
    ></path>
    <path
      d="M17.17 32.25c0 2.44-1.98 4.42-4.42 4.42s-4.42-1.98-4.42-4.42c0-.39.05-.76.15-1.12a4.42 4.42 0 0 1 4.27-3.3c1.79 0 3.33 1.07 4.02 2.6 0 0 .02.01.01.02.25.55.39 1.16.39 1.8"
      class="neutral1"
      fill="#2b2b2b"
    ></path>
    <path
      d="M12.75 27.829a4.42 4.42 0 1 0 0 8.841 4.42 4.42 0 0 0 0-8.841m3.537 4.421a3.537 3.537 0 1 1-7.074 0 3.537 3.537 0 0 1 7.074 0"
      class="secondary"
      fill="#FFDE00"
    ></path>
    <path
      d="M12.75 28.713a3.537 3.537 0 1 0 0 7.074 3.537 3.537 0 0 0 0-7.074m1.768 3.537a1.768 1.768 0 1 1-3.536 0 1.768 1.768 0 0 1 3.536 0"
      class="secondary"
      fill="#FFDE00"
    ></path>
    <path
      d="M12.75 28.713a3.537 3.537 0 1 0 0 7.074 3.537 3.537 0 0 0 0-7.074m1.768 3.537a1.768 1.768 0 1 1-3.536 0 1.768 1.768 0 0 1 3.536 0"
      class="shadow"
      fill="#353535"
      opacity=".3"
    ></path>
    <circle
      cx="12.75"
      cy="32.25"
      r="1.768"
      class="secondary"
      fill="#FFDE00"
    ></circle>
    <circle
      cx="12.75"
      cy="32.25"
      r="1.768"
      class="shadow"
      fill="#353535"
      opacity=".3"
    ></circle>
    <circle
      cx="12.75"
      cy="32.25"
      r="1.768"
      class="shadow"
      fill="#353535"
      opacity=".3"
    ></circle>
    <path
      d="M37.038 31.278 36 31.75l.5.75 1.3-.65 5.2-2.6h-1.5z"
      class="neutral2"
      fill="#808082"
    ></path>
    <path
      d="M25 20.75v2.5l1 .25V21l.043-.512.086-1.033L26.25 18h-.75l-.207 1.141-.234 1.289zm.5 2.25a.25.25 0 1 1 0-.5.25.25 0 0 1 0 .5m0-.75a.25.25 0 1 1 0-.5.25.25 0 0 1 0 .5"
      class="primary"
      fill="#367C2B"
    ></path>
    <path
      d="M26.5 18v-2l-.5-1.75V12l-.25-.25H25l-.25.25v2.25l.5 1.75v2h1.25"
      class="neutral1"
      fill="#2b2b2b"
    ></path>
    <circle
      cx="25.5"
      cy="22.75"
      r=".25"
      class="neutral2"
      fill="#808082"
    ></circle>
    <circle cx="25.5" cy="22" r=".25" class="neutral2" fill="#808082"></circle>
    <path
      d="M22 33v-.25l2.75-1.5-.25-.5-.25-.5-.25-.5h-.25v1.5h-.5v-1.5l-3 1.5-.5 1.5v2l4-1.75zm.375-2a.375.375 0 1 1 0 .75.375.375 0 0 1 0-.75"
      class="primary"
      fill="#367C2B"
    ></path>
    <path
      d="m28.25 28.75-.25-.5-1.406.75-2.344 1.25.25.5.75-.4.188-.1L27.781 29zM23.75 31.25V28h-.5v3.25z"
      class="neutral2"
      fill="#808082"
    ></path>
    <path
      d="M18.43 30.32a6 6 0 0 0-5.68-4.07c-1.18 0-2.28.34-3.2.93a6.03 6.03 0 0 0-2.8 5.07c0 3.31 2.69 6 6 6s6-2.69 6-6c0-.68-.12-1.33-.32-1.93m-5.68 6.35c-2.44 0-4.42-1.98-4.42-4.42 0-.39.05-.76.15-1.12a4.42 4.42 0 0 1 4.27-3.3c1.79 0 3.33 1.07 4.02 2.6 0 0 .02.01.01.02.25.55.39 1.16.39 1.8 0 2.44-1.98 4.42-4.42 4.42"
      class="neutral1"
      fill="#2b2b2b"
    ></path>
  </g>
</svg>
