<svg xmlns="http://www.w3.org/2000/svg"
        class="css-9txd9r"
        focusable="false"
        viewBox="0 0 32 32"
        data-icon-name="RoadPaver"
      >
        <path
          d="M12.4 26.1c-.9 0-1.7-.4-2.3-1.1-.5.6-1.2.9-1.9.9h-.1c-.6 0-1-.4-1-1v-.1c-.3.7-1 1.3-1.9 1.3H1.5c-.6 0-1-.4-1-1v-1.2c0-.1-.1-.2-.1-.3s-.1-.1-.1-.2c-.1-.2-.1-.3-.2-.5v-.2c-.1-.2-.1-.4-.1-.6s0-.5.1-.7c0-.1.1-.2.1-.3l.8.1H.9L.2 21c0-.1 0-.1.1-.2.1-.2.1-.3.2-.5v-1.5c0-.1-.1-.2-.1-.3v-.7c0-.2 0-.3.1-.4v-1c0-.2 0-.3.1-.5l1.7-3.3v-1.2c0-.4.2-.7.5-.9v-1c0-.5.3-.9.7-1-.2-.2-.4-.5-.4-.8v-.3c0-.1 0-.2.1-.3l.3-.9c.1-.5.5-.7.9-.7h.4c.2-.2.4-.2.6-.2l10 .7c.4 0 .7.3.9.6l.7.2c.3.1.6.3.7.7l.1-.2c.2-.3.5-.4.8-.4h.5q.6 0 .9.6c.2.3.1.7-.1 1l-.1.1v5.7c4.2.5 9.4 2 9.6 2.1 1.3.3 1.8 1.3 1.9 1.8.1.4.2 1 0 1.5l-.3 1.7c.6.2 1.1.8 1.1 1.5 0 .9-.7 1.6-1.5 1.6l-1.7.9c-.1.1-.3.1-.5.1h-.5c-.2 0-.3 0-.5-.1-.4.4-1 .7-1.7.7zm4.9-12.4v-4c-.1.1-.3.2-.4.2l-.9 3.2s.1 0 .1.1z"
          class="outline"
          fill="#FFFFFF"
        ></path>
        <path
          d="m18.8 8.3.3-.4h-.5l-.3.4v7h.5z"
          class="quaternary"
          fill="#333"
        ></path>
        <path
          d="M30.4 22.3c-.1 0-.2 0-.3.1h-.3l.1-.4h-.3l.3-1.5-1.4-.1-.5-.8 2 .2.1-.6-2.6-.2-1-1.5-12-.8 1-2.7h-.3l-.4-.1 1.3-5 .6.1v-.4h-.5v-.2l-.6-.2-.1.3-3.4-.3-.9-.6-5.3-.2H4.1v.3h1.2v3.6h-.2v.1h-.3V9.5h-1v1.9h-.5v1.4l-1.8 3.5v1.4h-.1v.7h1.1v.3h-1v1.7h.1c-.4.5-.6 1-.6 1.7 0 .6.2 1.1.5 1.5v1.5h3.7c.6 0 1-.5 1-1V21h.7v.4h.4v.2l.1-.1v.1h.4l-.1.4v.3c-.3.2-.5.5-.5.9 0 .5.4.9.9 1v.7h.1c.8 0 1.5-.7 1.5-1.5q0-.75-.6-1.2l1-.4.1-.1h.1l-.2 2.2h.6c.2.7.9 1.2 1.7 1.2h13.2c.8 0 1.3-.5 1.4-1.2h.8v.6h.5l2-1h.1c.3 0 .6-.3.6-.6s-.3-.6-.6-.6M5.9 7.7l5.4.2.9.6 3.3.3-1.3 4.9-.7-.2v-.1l-.6-.2.3-1.4h-.7l-1.3 1v.9l.9 2.1H11v-2.4H8.5l.2-.6H10v-.3H8.6l-.3-1.3h-.5v-.3h.3v-1h-.7v2.2h-.9v-.3l-.2-.1-.4-.1V7.7M7 15.8l-.4-.1q-.45-.15-.6-.6l-.1-.5c.4.3.8.7 1.1 1.2m-2.3-4.2H5v.4l.2.2v.8l-.5-.6zm-.6 1 .4.5v2.7h-2zM2 17.7v-1.3h2.5v1.3zm3.4 3H4.2l.2-.4 1 .1zm-1.9-.3-.1.3h-.8c.1-.1.3-.2.4-.3zm1.9-1.1-1.6.1h-.2v-1h1.8v-.7h-.3v-4.1c.1.1.1.2.2.4l.4 1.4c.1.3.4.6.7.7l1 .2v2.4h-.5v.6z"
          class="quaternary"
          fill="#333"
        ></path>
        <path
          d="M16.7 7.8v.8l-4.5-.4-.9-.6-7.2-.2.3-.9h1v-.2l9.9.7.2.5z"
          class="secondary"
          fill="#FFE500"
        ></path>
        <path
          d="m18.9 17.5-.9.1-.1 2v.9l-2.2-.1c-.3 0-.5-.1-.7-.3l-1.5-1.4-3.5-.5-.1-.3-.2-.3 4.4-.2 1.3-3.4 3.4 1.4z"
          class="primary"
          fill="#008656"
        ></path>
        <path
          d="M29.1 17.4s-6.6-2-10.8-2.2v6.3l11.2.6h.3l.5-2.7c.1-.1.4-1.6-1.2-2"
          class="primary"
          fill="#008656"
        ></path>
        <path
          d="m14.8 18.1 2.3.4c.1 0 .2-.1.3-.2 0-.2-.1-.3-.2-.3l-2.3-.4c-.1 0-.2.1-.3.2 0 .1.1.3.2.3M15.1 17l2.1.6c.1 0 .2-.1.3-.2 0-.2-.1-.3-.2-.3l-2.1-.6c-.1 0-.2.1-.3.2 0 .1.1.3.2.3M15.4 15.9l1.9.7c.1 0 .2-.1.3-.2 0-.2 0-.3-.2-.4l-1.9-.7c-.1 0-.2.1-.3.2 0 .2.1.4.2.4"
          class="quaternary"
          fill="#333"
        ></path>
        <circle
          cx="25.7"
          cy="23.6"
          r=".9"
          class="tertiary"
          fill="gray"
        ></circle>
        <path
          d="m15.2 14-1 2.2H7.5c-.5-1.3-1.3-2.1-2.2-2.6v-2l-.2-.2v-.2h.8v.4l.4.2-.1.1v2.2c.8.3 1.4.9 1.9 1.7h4.5l.3-2.4z"
          class="highlight"
          opacity=".3"
          fill="#fff"
        ></path>
        <path
          d="M26.5 23.7c0 .5-.4.9-.9.9H12.4c-.7 0-1.3-.6-1.3-1.3s.6-1.3 1.3-1.3h.2l13 .9c.5 0 .9.3.9.8"
          class="tertiary"
          fill="gray"
        ></path>
        <path
          d="M25.6 24.8H12.4c-.9 0-1.6-.7-1.6-1.6s.7-1.6 1.6-1.6h.2l13 .9c.6 0 1.1.5 1.1 1.1 0 .7-.5 1.2-1.1 1.2m-13.2-2.6c-.6 0-1.1.5-1.1 1.1s.5 1.1 1.1 1.1h13.2c.3 0 .6-.3.6-.6s-.3-.6-.6-.6z"
          class="tertiary"
          fill="gray"
        ></path>
        <path
          d="M13.1 20.6c-1.8-1-5-.7-5-.7l-.8-.8v2.5l.8-.5h3.1c1.4 0 2.7.9 3.2 2.2l.3.7h1.7v-.6h-1.3c-.3-1.1-.6-2.1-2-2.8"
          class="tertiary"
          fill="gray"
        ></path>
        <circle
          cx="12.4"
          cy="23.3"
          r="1.2"
          class="quaternary"
          fill="#333"
        ></circle>
        <circle
          cx="25.5"
          cy="23.7"
          r=".8"
          class="quaternary"
          fill="#333"
        ></circle>
        <path
          d="M12.6 21.9h-.2zM3.8 20.2c-1 0-1.8.8-1.8 1.8s.8 1.8 1.8 1.8H4v1h-.2c-1.5 0-2.8-1.2-2.8-2.7s1.2-2.7 2.8-2.7h2.1v1z"
          class="tertiary"
          fill="gray"
        ></path>
        <path
          d="M3.2 22H5l.1.4h.5l.1-.4h.1v-.6l-.4-.4c-.2-.2-.6-.3-.9-.2l-.8.2-.1.3h-.5c-.3 0-.3.7.1.7"
          class="tertiary"
          fill="gray"
        ></path>
        <path
          d="M6.2 14.1c.8.3 1.4.9 1.9 1.7h4.5l.3-2.4.8.2v-.1L6.2 12z"
          class="window"
          opacity=".3"
          fill="#5dc9e8"
        ></path></svg>
