<svg xmlns="http://www.w3.org/2000/svg"
        class="css-9txd9r"
        focusable="false"
        viewBox="0 0 32 32"
        data-icon-name="SideFeeder"
      >
        <g id="SideFeeder__outline">
          <path
            d="M15.8 25.6c-.2 0-.4-.1-.6-.2-.3.1-.6.2-.9.2h-12c-.6 0-1.2-.2-1.7-.7-.4-.5-.7-1-.7-1.7V23c0-.6.3-1.2.7-1.7.4-.4 1-.7 1.7-.7h4v-.7H4c-.6 0-1-.4-1-1H1.1c-.6 0-1-.4-1-1v-7.2c0-.6.4-1 1-1h1.2v-3c-.1-.2-.2-.3-.3-.4l-.4-.6c-.3-.3-.3-.7-.1-1 .1-.4.5-.6.9-.6H3c.5 0 1 .2 1.3.7h10.4c.6 0 1 .4 1 1v.8c0 .6-.4 1-1 1h-.8l.5.1c.3.1.6.4.7.7s0 .7-.2.9l-.9 1v1.3c.2-.3.5-.5.9-.5h3.7V9.6c0-.6.4-1 1-1h2.1c.6 0 1 .4 1 1v4h1c1.1 0 2 .8 2.1 1.9.4-.2.9-.2.9-.2h3.1c.6 0 1.1.5 1.1 1.1v.9c.1.1.2.1.2.2.2.3.3.7.2 1.1-.1.3-.2.8-.3 1.3.5.6.8 1.3.8 2.1q0 1.35-.9 2.4c-.6.6-1.5 1-2.4 1-1.1 0-2-.5-2.6-1.2-.2.7-.9 1.2-1.7 1.2h-8.4zm-5.6-16c0-.1-.1-.2-.1-.3q-.15-.45.3-.9v-.8H5.8v2z"
            class="outline"
            fill="#FFFFFF"
          ></path>
          <path
            d="M30 20.3c.2-.7.4-1.5.5-1.9 0-.2-.1-.4-.3-.4H30v-1.7c0-.1 0-.1-.1-.1h-3.1c-.2 0-.6.1-.7.3l-1 4.7-.3.9v-6.5c0-.6-.5-1.2-1.2-1.2h-2.7v-.5h.6V9.6h-2.1v4.5h.7v.5h-3.2c-.6 0-1.2.5-1.2 1.2v2.9h-2.3V18h2v-3.3l2.3-2.1h1.8V12h-4.7v5H13v-6.6h-.1v-.6l.1.1 1.1-1.2-1.9-.6-.4.3V6.6h2.9v-.8H4v.8h.4v4h-.7V6.2c0-.8-.4-1-.7-1h-.6l.5.6H3c.2 0 .3.1.3.4v4.4H1.1v7.2H4v1h3.3v2.7h-5c-.4 0-.7.1-1 .4s-.4.6-.4 1v.2c0 .8.6 1.4 1.4 1.4h12c.4 0 .7-.2 1-.4.2-.2.3-.5.4-.8h.1l-.1 1c0 .1.1.2.2.2h8.5c.4 0 .7-.3.8-.6l1.7-5.9h1.6s-.1.9-.3 1.9c-1.1.2-1.9 1.2-1.9 2.3 0 1.3 1.1 2.3 2.4 2.3s2.4-1.1 2.3-2.4c-.1-.7-.5-1.4-1-1.8m-14.5-7.6H17L15.5 14zm-5.1 2.9v1.5H9v-1.5zm-2.9 1.2v-1h1.3v1zm1.3.2v.1H7.5V17zm-1.5-1.4v1.5H6.2v-1.5zm1.5 3.2v.5H7.5v-.5zm-1.3.8h1.3v1.3H7.5zm1.5-.8h.9v2.8H9zm2.8-8.2V9.4l.3.1v1h-.3zm-7-4h6.6v2.3l-.3.3.3.1v1.3H4.8zm2.7 14.6h1.3v.4H7.5z"
            class="primary"
            fill="#FFFFFF"
          ></path>
          <path
            d="M6.1 11.6h-.4c-1.2-.3-1.7-1.4-1.6-2.3 0-.3.2-.5.4-.7.2-.1.4-.2.6-.2h.2l.9.2 1 .2c.2.2.5.3.6.6.1.2.2.5.1.7-.1.7-.8 1.5-1.8 1.5"
            class="st0"
          ></path>
          <path
            d="M5.8 10.5c1 .2 1.2-.6 1.2-.6l-1-.2-.9-.2s-.1.9.7 1"
            class="primary"
            fill="#FFFFFF"
          ></path>
        </g>
        <g id="SideFeeder__main_shape">
          <path
            d="M3.8 6.1v4.6h-.5V6.1c0-.3-.1-.4-.3-.4h-.2l-.4-.6H3c.3 0 .8.3.8 1"
            class="shadow"
            opacity=".3"
            fill="#333"
          ></path>
          <path
            d="M4.4 6.5h.4v4.1h-.4zM14.8 12.1v5h-1.4v.9h2.1v-3.3l2.3-2.1h1.8V12c-.1.1-4.8.1-4.8.1m.7 1.9v-1.3H17z"
            class="quinary"
            fill="gray"
          ></path>
          <circle
            cx="28.5"
            cy="22.2"
            r="2.4"
            class="senary"
            transform="rotate(-1.226 28.54 22.19)scale(1.00003)"
            fill="#333"
          ></circle>
          <circle
            cx="28.5"
            cy="22.2"
            r="1.2"
            class="senary"
            transform="rotate(-1.226 28.54 22.19)scale(1.00003)"
            fill="#333"
          ></circle>
          <circle
            cx="28.5"
            cy="22.2"
            r="2.4"
            class="senary"
            transform="rotate(-1.226 28.54 22.19)scale(1.00003)"
            fill="#333"
          ></circle>
          <circle
            cx="28.5"
            cy="22.2"
            r="1.2"
            class="senary"
            transform="rotate(-1.226 28.54 22.19)scale(1.00003)"
            fill="#333"
          ></circle>
          <path
            d="M14.2 24.3h-12c-.6 0-1.1-.5-1.1-1.1V23c0-.6.5-1.1 1.1-1.1h12c.6 0 1.1.5 1.1 1.1v.2c.1.6-.4 1.1-1.1 1.1"
            class="quinary"
            fill="gray"
          ></path>
          <path
            d="M14.3 24.6h-12c-.8 0-1.4-.6-1.4-1.4V23c0-.4.1-.7.4-1s.6-.4 1-.4h12c.4 0 .7.2 1 .4.3.3.4.6.4 1v.2c0 .4-.1.7-.4 1-.3.2-.7.4-1 .4m-12-2.5c-.2 0-.5.1-.6.3q-.3.3-.3.6v.2c0 .5.4.9.9.9h12c.2 0 .5-.1.6-.3.2-.2.2-.4.2-.6V23c0-.2-.1-.5-.2-.6q-.3-.3-.6-.3z"
            class="quarternary"
            fill="#ffde00"
          ></path>
          <path
            d="M14.2 23.6H2.5c-.2 0-.4-.2-.4-.4V23c0-.2.2-.4.4-.4h11.7c.2 0 .4.2.4.4v.1c0 .3-.2.5-.4.5"
            class="senary"
            fill="#333"
          ></path>
          <circle
            cx="2.4"
            cy="23.1"
            r="1"
            class="senary"
            transform="rotate(-89.845 2.374 23.056)"
            fill="#333"
          ></circle>
          <circle
            cx="2.3"
            cy="23.1"
            r=".5"
            class="senary"
            transform="rotate(-89.845 2.347 23.059)"
            fill="#333"
          ></circle>
          <circle
            cx="2.4"
            cy="23.1"
            r="1"
            class="senary"
            transform="rotate(-89.845 2.374 23.056)"
            fill="#333"
          ></circle>
          <path d="M1.1 10.6h3v7.2h-3z" class="quinary" fill="gray"></path>
          <path
            d="M23.6 15.3h-6.7c-.3 0-.5.2-.5.5v6.7c0 .3.2.5.5.5h6.5c.4 0 .6-.3.6-.6v-6.6c.1-.3-.1-.5-.4-.5M4.1 10.7h1.2v6.6H4.1z"
            class="primary"
            fill="#FFFFFF"
          ></path>
          <path
            d="M5.4 17.3H4v-6.7h1.4zm-1.3-.2h1v-6.4h-1z"
            class="quinary"
            fill="gray"
          ></path>
          <path d="M4.1 5.9h10.5v.6H4.1z" class="primary" fill="#FFFFFF"></path>
          <path
            d="M14.7 6.6H4v-.8h10.7zM4.2 6.4h10.3V6H4.2z"
            class="quinary"
            fill="gray"
          ></path>
          <path
            d="M11.3 10.7h1.5v6.6h-1.5z"
            class="primary"
            fill="#FFFFFF"
          ></path>
          <path
            d="M12.9 17.3h-1.7v-6.8h1.7zm-1.5-.2h1.3v-6.4h-1.3zM20.3 10.4h.5v2.9h-.5z"
            class="quinary"
            fill="gray"
          ></path>
          <path
            d="M19.5 9.6v4.5h2.1V9.6zm1.3 3.7h-.5v-2.9h.5zM20.2 14.1h.8v.5h-.8z"
            class="quinary"
            fill="gray"
          ></path>
          <path d="M4.1 13.3h1v.5h-1z" class="secondary" fill="#FB5A02"></path>
          <path
            d="m14.1 8.7-1.9-.6-1.1 1 1 .4v1.2h.7v-.9l.2.1z"
            class="quinary"
            fill="gray"
          ></path>
          <path d="M11.4 6.5h.4v4.1h-.4z" class="quinary" fill="gray"></path>
          <path
            d="m13 9.9-1.9-.8 1.1-1 1.9.6z"
            class="senary"
            fill="#333"
          ></path>
          <path
            d="M30.1 18.1h-.2v-1.7c0-.1 0-.1-.1-.1h-3.1c-.2 0-.6.1-.7.3l-1 4.7-.3.9v-6.5c0-.6-.5-1.2-1.2-1.2h-6.7c-.6 0-1.2.5-1.2 1.2v2.9H9.9v4.7h5.8l-.1 1c0 .1.1.2.2.2h8.5c.4 0 .7-.3.8-.6l1.7-5.9h1.6c0 .1-.5 3.3-.6 4.1 0 .4.3.5.5.5h.6c.2 0 .4-.3.5-.5.4-.7.9-2.9 1.1-3.7 0-.2-.2-.3-.4-.3m-13-2.2h6.3v.9h-6.3zm0 5h6.3v1.5h-6.3z"
            class="quinary"
            fill="gray"
          ></path>
          <path
            d="M4.1 17.2h9.3v1.5H4.1z"
            class="primary"
            fill="#FFFFFF"
          ></path>
          <path d="M5.3 15.6h.9v1.5h-.9z" class="quinary" fill="gray"></path>
          <path
            d="M13.5 17.1h-2.2v-1.5h.1v-5.1h-6v5.1h1.9v1.5H4v1.7h3.3v3.7H9v-3.7h4.5zm-3.1-1.5v1.5H9v-1.5zm-1.6 1.2H7.5v-1h1.3zm-1.3.2h1.3v.1H7.5zm1.3 1.6H7.5v-.3h1.3zm-1.3-.5v-.7h1.3v.7zm-3.3.5v-1.3h3.1v1.3zm4.6 3.8H7.5v-1.2h1.3zm0-1.5H7.5v-1.3h1.3zm0-1.5H7.5v-.5h1.3zm4.5-.8H9v-1.3h4.3z"
            class="quinary"
            fill="gray"
          ></path>
          <path
            d="M5.5 11.4h5.7v1.4H5.5z"
            class="primary"
            fill="#FFFFFF"
          ></path>
          <path
            d="m5.1 9.5.9.2 1 .2s-.2.8-1.1.7c-.9-.2-.8-1.1-.8-1.1"
            class="senary"
            fill="#333"
          ></path>
          <path
            d="M11.4 13.3h1.3v.5h-1.3z"
            class="secondary"
            fill="#FB5A02"
          ></path>
          <path d="M5.4 14.1h5.9v1H5.4z" class="primary" fill="#FFFFFF"></path>
        </g></svg>
