<svg xmlns="http://www.w3.org/2000/svg"
        class="css-9txd9r"
        focusable="false"
        viewBox="0 0 48 48"
        data-icon-name="Skidder"
      >
        <path
          id="Skidder__outline"
          d="M48 16.75v1c0 .13-.01.26-.04.39l-.25 1.25c-.02.12-.06.24-.1.35l-.5 1.25c-.02.05-.05.1-.07.15l-.5 1c-.05.11-.12.21-.19.31l-.01.01c.23.54.22 1.15-.05 1.68a2 2 0 0 1-1.79 1.11h-.75a1.5 1.5 0 0 1-.37-.04c-.13.03-.25.04-.38.04h-.44c.15.19.27.41.35.65l1.25 4c.19.61.08 1.27-.3 1.78-.06.09-.13.17-.2.24C43.09 35.36 40.1 38 36.5 38c-2.96 0-5.59-1.84-6.68-4.5h-1.5c-.2.18-.43.31-.69.4-.32.22-.71.35-1.13.35h-5.17A7.18 7.18 0 0 1 15 38c-3.56 0-6.52-2.57-7.13-5.96L4.22 31H4c-.65 0-1.22-.31-1.59-.79l-.99-.3A1.995 1.995 0 0 1 0 28v-2c0-.53.21-1.04.59-1.41l.02-.03.16-1.09c.11-.75.61-1.34 1.26-1.59.14-.72.65-1.3 1.34-1.53.19-.13.41-.23.64-.29l1-.25.79-.2 7.81-3.9c.25-.13.53-.2.82-.21.35-.31.81-.5 1.32-.5H16c.17 0 .34.02.5.06.16-.04.33-.06.5-.06h.25c.51 0 .97.19 1.32.5h.56l6.39-.74c.08-.01.15-.01.23-.01.19 0 .39.03.57.08l2.5.75c.53.16.97.53 1.22 1.03l.5 1c.16.32.23.67.21 1.01 0 .11 0 .22-.01.33 0 0 0-.01.01-.01L41 10.69c.35-.28.79-.44 1.25-.44h1a2 2 0 0 1 1.79 1.11l1 2c.05.11.1.22.13.34l.26.9.21.11c.2.1.37.22.52.38l.25.25c.38.37.59.88.59 1.41"
          class="outline"
          fill="#fff"
        ></path>
        <g id="Skidder__icon">
          <path
            d="M40.149 26.505 39.5 27l2 3.5h.75l-1.25-4zM29 28.25h-1.75V28H25v-.5h2l1-.5v-2.5l-.25-.25H26v-6l2.5.25h.25l-.5-1-2.5-.75-6.5.75h-.75v.75H21v6.25l-1-.5v-5h-.25v4h-6.5l-2-.75h.013l-1.325-.5H6.749v-.25h-.25l-1 .25-1 .25v1.956l2.5.294 4.5 3.25-.5.25-4.25-3-2.25-.188v2.33l6.5 1.857-.75 1.75-5.75-1.742v.242l5.25 1.5 10.25 1.75h6.5v-.25h.5v-.5h4.75l.25-3.25zM18.75 18.125a.125.125 0 1 1 0-.25.125.125 0 0 1 0 .25M5.5 25.75h-.75v-.5h.75zm14 .25h-.75v-.5h.75zm9.25 3.75H27v-.5h1.75zm-2.75-1 .5.5V30h-.75v.25h1.5v.5h-1.5V31H25v-2.25zM25 26h-.75v-.5H25zm-3.75-7.75h4.25v6.25h-4.25z"
            class="primary"
            fill="#F2A900"
          ></path>
          <path
            d="M17.25 20.25h-1.5v.25h1.5zM17 17h.25v.5H17zM17 18.25h.25v1H17zM15.75 18.25H16v1h-.25zM15.75 17H16v.5h-.25z"
            class="neutral2"
            fill="#808082"
          ></path>
          <path
            d="M6.75 21.75h3.189l1.324.5h8.487v-1H17.5l-.5-.75h-1l-.5.75H9.693l-1.729.147L14.5 18.25H16v2h1v-2h1.5v-.75h-4l-8 4h.25z"
            class="neutral1"
            fill="#2b2b2b"
          ></path>
          <path
            d="m11.25 22.25 2 .75h6.5v-.75h-8.5"
            class="stripe"
            fill="#808082"
          ></path>
          <path
            d="M4.75 25.25h.75v.5h-.75zM18.75 25.5h.75v.5h-.75z"
            class="neutral2"
            fill="#808082"
          ></path>
          <path
            d="M25 30.75h2.25v-.5H25z"
            class="neutral1"
            fill="#2b2b2b"
          ></path>
          <path
            d="m32.958 21.521-.458.229-.068-.045.276.691.5-.25z"
            class="neutral2"
            fill="#808082"
          ></path>
          <path
            d="m44 15.5.75.5-.5-1.75-.5-1-.5-1h-1L32 20.5l-.25.75.682.455.068.045.458-.229L33 21.5l.25-.25.25-.25h1l1.75-.25v1L36 23l-.5.75.25.5.75.25.25.25.25 1 1.5.25-.75-4.25L37 20l.5-1 .75-1 3.5-2.75.75-.75v.5l-.5 1 .75-.5zm-11.5 5.75a.25.25 0 1 1 0-.5.25.25 0 0 1 0 .5M36 24a.25.25 0 1 1 0-.5.25.25 0 0 1 0 .5m1.084-3.133a.25.25 0 1 1-.5 0 .25.25 0 0 1 .5 0M44 14.75a.5.5 0 1 1-1 0 .5.5 0 0 1 1 0"
            class="neutral1"
            fill="#2b2b2b"
          ></path>
          <path
            d="M20.75 24v-5h-.5v4.75zM28.5 18.75l-2.25-.25V24h1.25z"
            class="window"
            fill="#bbe3f3"
          ></path>
          <path
            d="M26 24.25h1.75l1-5.5-.25-.25-2.5-.25zm.25-5.75 2.25.25-1 5.25h-1.25zM25.5 24.5v-6.25h-4.25v6.25zm-.75-5.75H25V19h-.25zm0 .5H25v.25h-.25zm0 .5H25V20h-.25zm0 .5H25v.25h-.25zm0 .5H25V21h-.25zm0 .5H25v.25h-.25zm0 .5H25V22h-.25zm0 .5H25v.25h-.25zm0 .5H25V23h-.25zm0 .5H25v.25h-.25zm0 .5H25V24h-.25zm-.5-5h.25V19h-.25zm0 .5h.25v.25h-.25zm0 .5h.25V20h-.25zm0 .5h.25v.25h-.25zm0 .5h.25V21h-.25zm0 .5h.25v.25h-.25zm0 .5h.25V22h-.25zm0 .5h.25v.25h-.25zm0 .5h.25V23h-.25zm0 .5h.25v.25h-.25zm0 .5h.25V24h-.25zm-.5-5H24V19h-.25zm0 .5H24v.25h-.25zm0 .5H24V20h-.25zm0 .5H24v.25h-.25zm0 .5H24V21h-.25zm0 .5H24v.25h-.25zm0 .5H24V22h-.25zm0 .5H24v.25h-.25zm0 .5H24V23h-.25zm0 .5H24v.25h-.25zm0 .5H24V24h-.25zm-.5-5h.25V19h-.25zm0 .5h.25v.25h-.25zm0 .5h.25V20h-.25zm0 .5h.25v.25h-.25zm0 .5h.25V21h-.25zm0 .5h.25v.25h-.25zm0 .5h.25V22h-.25zm0 .5h.25v.25h-.25zm0 .5h.25V23h-.25zm0 .5h.25v.25h-.25zm0 .5h.25V24h-.25zm-.5-5H23V19h-.25zm0 .5H23v.25h-.25zm0 .5H23V20h-.25zm0 .5H23v.25h-.25zm0 .5H23V21h-.25zm0 .5H23v.25h-.25zm0 .5H23V22h-.25zm0 .5H23v.25h-.25zm0 .5H23V23h-.25zm0 .5H23v.25h-.25zm0 .5H23V24h-.25zm-.5-5h.25V19h-.25zm0 .5h.25v.25h-.25zm0 .5h.25V20h-.25zm0 .5h.25v.25h-.25zm0 .5h.25V21h-.25zm0 .5h.25v.25h-.25zm0 .5h.25V22h-.25zm0 .5h.25v.25h-.25zm0 .5h.25V23h-.25zm0 .5h.25v.25h-.25zm0 .5h.25V24h-.25zm-.5-5H22V19h-.25zm0 .5H22v.25h-.25zm0 .5H22V20h-.25zm0 .5H22v.25h-.25zm0 .5H22V21h-.25zm0 .5H22v.25h-.25zm0 .5H22V22h-.25zm0 .5H22v.25h-.25zm0 .5H22V23h-.25zm0 .5H22v.25h-.25zm0 .5H22V24h-.25z"
            class="neutral1"
            fill="#2b2b2b"
          ></path>
          <circle
            cx="18.75"
            cy="18"
            r=".125"
            class="neutral2"
            fill="#808082"
          ></circle>
          <path
            d="M20.75 19v5l-.5-.25V19H20v5l1 .5v-6.25h-.25V19"
            class="neutral1"
            fill="#2b2b2b"
          ></path>
          <path
            d="m31 27.5-.25.25v.5h1.5v-.5l1-.75.75-.75-1.25.25zM31.75 25.25l-.75.25-.25.5v.4l1.589-.954zM28.75 28.25l.5-.75.5-.5-.75.25-.75.5-1 .25v.25zM34.864 24.227l.25.5.636-.477-.25-.5z"
            class="neutral2"
            fill="#808082"
          ></path>
          <path
            d="m45.75 16.5-1-.5-.75-.5h-1.25L42 16l-1.25.75-.25.25v.75l.25 1L41 20l.75 1 .5.75.5.5-.75 1h1l.375-.375.375.375h.75l-.643-.857.143-.143.75-1 .5-1 .5-1.25.25-1.25v-1zm-1.25 2.75-.25.75-1 1.5-1-1.5-.25-1v-1h2.5z"
            class="secondary"
            fill="#808082"
          ></path>
          <circle
            cx="43.5"
            cy="14.75"
            r=".5"
            class="neutral2"
            fill="#808082"
          ></circle>
          <circle
            cx="32.5"
            cy="21"
            r=".25"
            class="neutral2"
            fill="#808082"
          ></circle>
          <circle
            cx="36"
            cy="23.75"
            r=".25"
            class="neutral2"
            fill="#808082"
          ></circle>
          <circle
            cx="36.834"
            cy="20.867"
            r=".25"
            class="neutral2"
            fill="#808082"
          ></circle>
          <path
            d="m34.75 24-.297.178L33.5 22l-.292.146-.5.25-.208.104.919 2.298-1.08.648-1.589.954-1 .6-.5.5-.5.75h2v-.5l.25-.25 1.75-1 1.089-.653.161.403 1.25-.25-.347-.792.347-.208-.136-.273-.25-.5zM30 28a.25.25 0 1 1 0-.5.25.25 0 0 1 0 .5"
            class="neutral1"
            fill="#2b2b2b"
          ></path>
          <circle
            cx="30"
            cy="27.75"
            r=".25"
            class="neutral2"
            fill="#808082"
          ></circle>
          <path
            d="M19.75 19h1v-.75H19.5V19z"
            class="neutral2"
            fill="#808082"
          ></path>
          <path
            d="M24.25 25.5H25v.5h-.75z"
            class="neutral1"
            fill="#2b2b2b"
          ></path>
          <path d="M27 29.25h1.75v.5H27z" class="accent1" fill="#e21936"></path>
          <path
            d="m10.25 30.5.75-1.75-6.5-1.857v-2.33l2.25.188 4.25 3 .5-.25-4.5-3.25-2.5-.294v-1.706H4v1.647l-1.25-.147-.25 1.75-.5.5v2l2 .606v.394h.5v-.242l5.75 1.742ZM3.5 24.75l.25-.25.25.021v2.229z"
            class="neutral1"
            fill="#2b2b2b"
          ></path>
          <path
            d="M22.25 18.75h.25V19h-.25zM24.75 18.75H25V19h-.25zM23.25 19.25h.25v.25h-.25zM21.75 19.75H22V20h-.25zM22.25 19.75h.25V20h-.25zM22.75 19.75H23V20h-.25zM23.75 19.75H24V20h-.25zM24.25 19.75h.25V20h-.25zM23.25 19.75h.25V20h-.25zM21.75 20.25H22v.25h-.25zM22.25 20.25h.25v.25h-.25zM22.75 20.25H23v.25h-.25zM23.75 20.25H24v.25h-.25zM24.25 20.25h.25v.25h-.25zM23.25 20.25h.25v.25h-.25zM21.75 20.75H22V21h-.25zM22.25 20.75h.25V21h-.25zM22.75 20.75H23V21h-.25zM23.75 20.75H24V21h-.25zM24.25 20.75h.25V21h-.25zM23.25 20.75h.25V21h-.25zM21.75 21.25H22v.25h-.25zM22.25 21.25h.25v.25h-.25zM22.75 21.25H23v.25h-.25zM23.75 21.25H24v.25h-.25zM24.25 21.25h.25v.25h-.25zM23.25 21.25h.25v.25h-.25zM21.75 21.75H22V22h-.25zM22.25 21.75h.25V22h-.25zM22.75 21.75H23V22h-.25zM23.75 21.75H24V22h-.25zM24.25 21.75h.25V22h-.25zM23.25 21.75h.25V22h-.25zM21.75 22.25H22v.25h-.25zM22.25 22.25h.25v.25h-.25zM22.75 22.25H23v.25h-.25zM23.75 22.25H24v.25h-.25zM24.25 22.25h.25v.25h-.25zM23.25 22.25h.25v.25h-.25zM21.75 22.75H22V23h-.25zM22.25 22.75h.25V23h-.25zM22.75 22.75H23V23h-.25zM23.75 22.75H24V23h-.25zM24.25 22.75h.25V23h-.25zM23.25 22.75h.25V23h-.25zM21.75 23.25H22v.25h-.25zM22.25 23.25h.25v.25h-.25zM22.75 23.25H23v.25h-.25zM23.75 23.25H24v.25h-.25zM24.25 23.25h.25v.25h-.25zM23.25 23.25h.25v.25h-.25zM21.75 23.75H22V24h-.25zM22.25 23.75h.25V24h-.25zM22.75 23.75H23V24h-.25zM23.75 23.75H24V24h-.25zM24.25 23.75h.25V24h-.25zM23.25 23.75h.25V24h-.25zM21.75 18.75H22V19h-.25zM22.75 18.75H23V19h-.25zM23.25 18.75h.25V19h-.25zM23.75 18.75H24V19h-.25zM24.25 18.75h.25V19h-.25zM21.75 19.25H22v.25h-.25zM22.25 19.25h.25v.25h-.25zM22.75 19.25H23v.25h-.25zM23.75 19.25H24v.25h-.25zM24.25 19.25h.25v.25h-.25zM24.75 19.75H25V20h-.25zM24.75 20.25H25v.25h-.25zM24.75 20.75H25V21h-.25zM24.75 21.25H25v.25h-.25zM24.75 21.75H25V22h-.25zM24.75 22.25H25v.25h-.25zM24.75 22.75H25V23h-.25zM24.75 23.25H25v.25h-.25zM24.75 23.75H25V24h-.25zM24.75 19.25H25v.25h-.25z"
            class="window"
            fill="#bbe3f3"
          ></path>
          <path
            d="M19.75 21.25v.25h-13l2.943-.25zM26 24.25h1.75l.25.25h-1.75zM26.25 24.75V27H28v-2.5h-1.75zM21.75 29h3v.5h-3zM25.75 16.75l.25 1 2.5.5-.25-.75zM36.25 20.25v1.5l.5 3 .25 1h.25l-.25-1-.5-3V20zM21.75 30.75h3v.5h-3zM37.5 19l.75-1 3.5-2.75.75-.75v-.25l-.75.75-3.5 2.75-.75 1L37 20zM32.5 21.75l.5-.25.5-.5-.5.25z"
            class="highlight"
            fill="#fefeff"
            opacity=".31"
          ></path>
          <path
            d="m28.5 18.25-.25-.75.5 1z"
            class="highlight"
            fill="#fefeff"
            opacity=".31"
          ></path>
          <path
            d="m29 31-.5.5h3V31zM20 27.75h-.75l.75 4.5h1.5v-4H21z"
            class="shadow"
            fill="#353535"
            opacity=".3"
          ></path>
          <path
            d="M25 28h-4v.25h3.75z"
            class="shadow"
            fill="#353535"
            opacity=".3"
          ></path>
          <path
            d="M25 28h-4v.25h3.75zM43.25 22.75l.5-.5.75 1h-.75zM10 23.5h10v.25H10zM6.75 22H9.5v5.25H6.75zM4.5 25h2.25v.25H4.5zM10.25 22.25v1H13zM10.25 24v3.25l2.75-2V24zM13.25 23.75h.25v2h-.25zM9.75 21.75H10v6.75h-.25zM15.5 23.75h.25v2.5h-.25zM15.25 24.25 14 25.5v1h1.25zM16 24.25v2l1.75 1v-1.5zM19.75 23.75H20v3.75h-.25z"
            class="shadow"
            fill="#353535"
            opacity=".3"
          ></path>
          <path
            d="M10 23.5h10v.25H10zM13.25 23.75h.25v2h-.25zM9.75 21.75H10v6.75h-.25zM15.5 23.75h.25v2.5h-.25zM19.75 23.75H20v3.75h-.25zM26.25 27l-.5.5H27l1-.5zM17.75 25.25v-1H16.5zM40.5 17l.25.75.5.25H42v1l.25 1 1 1.5-.5.75-.5-.5-.5-.75-.75-1-.25-1.25-.25-1M31 27.5l-.25.25-.25.5H32l2-2-1.25.25zM20 24l1 .5V28l-1-.5zM19.5 18.25l.5.75h.75v-.75z"
            class="shadow"
            fill="#353535"
            opacity=".3"
          ></path>
          <path
            d="m18.5 18 7.5-.25 2.5.5.25.25h-.25l-2.5-.25h-7.5zM21.5 26.75h4V27h-4zM21.25 24.5h.25V27h-.25zM25.25 24.25h.25v2.5h-.25zM19 27.75h1l1 .5V28l-1-.5h-1z"
            class="shadow"
            fill="#353535"
            opacity=".3"
          ></path>
          <path
            d="M19 27.75h1l1 .5V28l-1-.5h-1zM21.75 29.5h3v.25h-3zM26 28.75h3V31l-.5.5H27v.5h-.5v.25H25V31h.75v-1h.75v-.75zM21.75 31.25h3v.25h-3zM29 28.75h3V29h-3z"
            class="shadow"
            fill="#353535"
            opacity=".3"
          ></path>
          <path
            d="m29 31-.5.5h3V31zM6.75 22H7v5.25h-.25zM7.25 22h.25v5.25h-.25zM7.75 22H8v5.25h-.25zM8.25 22h.25v5.25h-.25zM8.75 22H9v5.25h-.25zM9.25 22h.25v5.25h-.25zM19.75 28.5l.25 1v-.75l.5.25v2.25L20 31v.25l.5.25.25-.25V29l-.25-.25-.5-.25zM21 27.5h4v.5h-4z"
            class="shadow"
            fill="#353535"
            opacity=".3"
          ></path>
          <circle
            cx="15"
            cy="30.75"
            r="5.25"
            class="neutral1"
            fill="#2b2b2b"
          ></circle>
          <circle
            cx="15"
            cy="30.75"
            r="2.763"
            class="secondary"
            fill="#808082"
          ></circle>
          <circle
            cx="15"
            cy="30.75"
            r="2.211"
            class="shadow"
            fill="#353535"
            opacity=".3"
          ></circle>
          <circle
            cx="15"
            cy="30.75"
            r="1.105"
            class="shadow"
            fill="#353535"
            opacity=".3"
          ></circle>
          <circle
            cx="36.5"
            cy="30.75"
            r="5.25"
            class="neutral1"
            fill="#2b2b2b"
          ></circle>
          <circle
            cx="36.5"
            cy="30.75"
            r="2.763"
            class="secondary"
            fill="#808082"
          ></circle>
          <circle
            cx="36.5"
            cy="30.75"
            r="2.211"
            class="shadow"
            fill="#353535"
            opacity=".3"
          ></circle>
          <circle
            cx="36.5"
            cy="30.75"
            r="1.105"
            class="shadow"
            fill="#353535"
            opacity=".3"
          ></circle>
          <path
            d="M25.75 30h1.5v.25h-1.5zM25.75 30.75h1.5V31h-1.5z"
            class="primary"
            fill="#F2A900"
          ></path>
        </g></svg>
