<svg xmlns="http://www.w3.org/2000/svg"
        class="css-9txd9r"
        focusable="false"
        viewBox="0 0 32 32"
        data-icon-name="SlipformPaver"
      >
        <path
          id="SlipformPaver__outline"
          d="M32 23.7c0-1-.8-1.7-1.7-1.7h-.1v-.2c0-.3-.1-.5-.3-.7v-.5q.3-.3.3-.6v-.2h.5c.5 0 .9-.4.9-.9v-7.4c0-.8-.6-1.4-1.4-1.4h-3c-.8 0-1.4.6-1.4 1.3-.2.1-.5.3-.6.6-.2.4-.4 1.2-.4 1.4-.1.3 0 .5.2.8.2.2.4.3.7.4h.1v1.5c-.2.2-.3.4-.3.7v1h-1.3c.3-.2.5-.5.5-.8v-.3c0-.3-.1-.5-.3-.7v-3.9c0-.4 0-.9-.4-1.3-.3-.3-.7-.4-1.9-.4-.9 0-1.3.1-1.6.2h-.1V8.9c.1-.5-.4-.9-.9-.9h-2c-.5 0-.9.4-.9.9v1.5h-.8c-.2-.1-.6-.2-1.4-.2V6.5c0-1.3-.8-1.9-1.6-1.9h-.4c-.3 0-.6.1-.8.4-.2.2-.2.6-.1.9l.2.6c.1.2.2.4.4.5v3.4c-.2-.1-.5-.1-.9-.1-.7 0-1.2.2-1.5.5-.2.2-.5.7-.5 1.4v4c-.2 0-.2.1-.2.3v.3c0 .3.2.6.4.8H7.8v-1.1c0-.3-.2-.7-.5-.8-.1-.1-.2-.1-.4-.1v-1.1H7c.3 0 .5-.1.7-.4.2-.2.2-.5.2-.8 0-.1-.2-.9-.4-1.4-.1-.3-.3-.4-.6-.5V11c0-.5-.4-.9-.9-.9H4.5c-.5 0-.9.4-.9.9v.3l-2.4 5c-.3.2-.5.5-.5.8v.3c0 .2.1.4.2.5V22c-.5.1-.9.5-.9 1v1.4c0 .1 0 .3.1.4v.2h.1c.2.2.4.4.8.4h1.6q.45.3.9.3H7q.45 0 .9-.3h1.6c.2.1.4.2.6.2h16c.2.1.4.1.6.1h3.5c.5 0 1-.2 1.3-.6.2-.1.3-.3.3-.5.2-.2.2-.4.2-.6zM3.5 16.2"
          class="outline"
          fill="#FFFFFF"
        ></path>
        <g id="SlipformPaver__main_shape">
          <path
            d="M27.2 11.1v5.8l.9.8 1.5-.1v1.2h1.3v-7.6z"
            class="primary"
            fill="#FFFFFF"
          ></path>
          <path
            d="M26.9 16.9V20h2.7v-2.4l-1.4.2zM11.5 18.8h10.7v1.8H11.5zM3.7 17.8v2.1h2.9v-3.1l-1.7 1z"
            class="primary"
            fill="#FFFFFF"
          ></path>
          <path
            d="M23.5 22.1v-.4h-1.8v-1.3h-9v1.7H10v1.1H8.3v-2.6h-.7v2.6H.5v1.5H10v.2h17.2v-2.8z"
            class="quinary"
            fill="gray"
          ></path>
          <path d="M14.9 12.6h3.5v2.6h-3.5z" class="senary" fill="#333"></path>
          <path
            d="M13.3 6.2v5.5c0 .1 0 .4.1.4.2.1.5 0 .5 0v.5s-1.1 0-1.1-.4V6.1c0-.3-.1-.4-.3-.4h-.2l-.2-.6h.4c.4.1.8.3.8 1.1"
            class="light"
            fill="#ccc"
          ></path>
          <path
            d="M19.6 8.7h-2.1v1.6h.7v1.1h.8v-1.1h.6z"
            class="quinary"
            fill="gray"
          ></path>
          <path d="M17.5 8.7h2.1v1.6h-2.1z" class="senary" fill="#333"></path>
          <path
            d="M1.4 17.5h.2v5.7h-.2z"
            class="shadow"
            opacity=".3"
            fill="#333"
          ></path>
          <path
            d="M30.7 25h-3.6c-.4 0-.8-.4-.8-.8v-.3c0-.4.4-.8.8-.8h3.6c.4 0 .8.4.8.8v.3c0 .5-.4.8-.8.8m-3.6-1.6c-.3 0-.5.2-.5.5v.3c0 .3.2.5.5.5h3.6c.3 0 .5-.2.5-.5v-.3c0-.3-.2-.5-.5-.5z"
            class="quaternary"
            fill="#ffde00"
          ></path>
          <path
            d="M30.6 24.9h-3.4c-.4 0-.7-.3-.7-.7V24c0-.4.3-.7.7-.7h3.4c.4 0 .7.3.7.7v.2c0 .4-.3.7-.7.7"
            class="senary"
            fill="#333"
          ></path>
          <path
            d="M22.3 18.8h4.5v1.8h-4.5z"
            class="primary"
            fill="#FFFFFF"
          ></path>
          <path
            d="M26.9 20.6h-4.7v-1.9h4.7zm-4.5-.2h4.3v-1.6h-4.3z"
            class="quinary"
            fill="gray"
          ></path>
          <path
            d="M22.4 19.4h4.3v.5h-4.3z"
            class="secondary"
            fill="#FB5A02"
          ></path>
          <path
            d="M31.1 18.9h-1.7v-1.2h-1.2l-1.2-.6v-5.8c0-.2.2-.4.5-.4h3.1c.3 0 .5.2.5.4zM27.3 17l.9.5h1.5v1.1h1.1v-7.3c0-.1-.1-.1-.2-.1h-3.1c-.1 0-.2.1-.2.1z"
            class="quinary"
            fill="gray"
          ></path>
          <path
            d="M27.3 14.8h3.5v.5h-3.5z"
            class="secondary"
            fill="#FB5A02"
          ></path>
          <path
            d="M-.5 14.1h6.8v.2H-.5z"
            class="shadow"
            transform="rotate(-64.811 2.92 14.231)"
            opacity=".3"
            fill="#333"
          ></path>
          <path d="M6.5 18.8h5v1.8h-5z" class="primary" fill="#FFFFFF"></path>
          <path
            d="M11.6 20.6H6.4v-2h5.2zm-5-.2h4.8v-1.6H6.6z"
            class="quinary"
            fill="gray"
          ></path>
          <path
            d="M6.6 19.4h4.8v.5H6.6z"
            class="secondary"
            fill="#FB5A02"
          ></path>
          <path
            d="m28.2 17.5-1.5-.9V20h2.9v-2.6h-1.4zm1.2 2.3H27V17l1.2.7h1.2z"
            class="quinary"
            fill="gray"
          ></path>
          <path
            d="M5.4 17.3v-6.1h-1v6.3H5z"
            class="primary"
            fill="#FFFFFF"
          ></path>
          <path
            d="M14.5 20.7h.6v3.8h-.6zM20 20.7h.6v3.9H20zM18.1 20.7h.6v3.9h-.6zM26 13.5l1.3.1v-1.5s-.9 0-1 .2c-.2.4-.3 1.2-.3 1.2"
            class="senary"
            fill="#333"
          ></path>
          <path
            d="m26 13.5 1.3.1v-1.5s-.9 0-1 .2c-.2.4-.3 1.2-.3 1.2"
            class="senary"
            fill="#333"
          ></path>
          <path
            d="M23.7 11.8c0-.4 0-.6-.1-.7-.2-.1-1.3-.1-1.3-.1s-1.1 0-1.2.2c-.1.1-.1.4-.1.8v4.6h.3V14h2.2v2.6h.3v-4.8zm-2.5 1.8v-2.2c.1-.1 1-.1 1-.1s1 0 1.1.1v2.3c.1-.1-2.1-.1-2.1-.1M12.1 11.8c0-.3-.1-.5-.2-.6-.2-.2-.9-.2-.9-.2s-.7 0-.9.2c-.1.1-.2.4-.2.7v4.6h.3v-2.6h1.7v2.6h.3c-.1 0-.1-4.7-.1-4.7m-1.9 1.8v-1.7c0-.2 0-.4.1-.5s1.3-.1 1.4 0 .1.2.1.4v1.8z"
            class="light"
            fill="#ccc"
          ></path>
          <path d="M1.2 17.2h3v.3h-3z" class="senary" fill="#333"></path>
          <path
            d="M24 16.5h-4.5v-5.3h-5.9v5.3H9.8v.3h7.7v1.8h.7v-1.8h2.5v1.8h.7v-1.8H24zm-5 0h-5v-4.9h5z"
            class="quinary"
            fill="gray"
          ></path>
          <path
            d="m6.7 13.5-1.3.1v-1.5s.9 0 1 .2c.2.4.3 1.2.3 1.2"
            class="senary"
            fill="#333"
          ></path>
          <path
            d="M29.4 21.9v-1.8h-1v1.8h-.3v1.3l.5.4h.5l.6-.4v-1.3z"
            class="quinary"
            fill="gray"
          ></path>
          <path
            d="M15.5 11.8c0-.4 0-.6-.1-.7-.2-.1-1.3-.1-1.3-.1s-1.1 0-1.2.2c-.1.1-.1.4-.1.8v4.6h.3V14h2.2v2.6h.3v-4.8zm-.3 1.8H13v-2.2c.1-.1 1-.1 1-.1s1 0 1.1.1v.5c.1-.1.1 1.7.1 1.7"
            class="light"
            fill="#ccc"
          ></path>
          <path
            d="M11.6 20.4h10.6v.2H11.6zM11.6 18.7h10.6v.2H11.6z"
            class="quinary"
            fill="gray"
          ></path>
          <path
            d="M15.8 16.6v7.8h1.5v-7.8zm.2.2h1.1v.8H16zm0 1h1.1v.8H16zm0 1h1.1v.8H16zm0 1.1h1.1v.8H16zm0 1.1h1.1v.8H16zm1.1 1.1v1H16v-1zM16 24.2v-.9h1.1v.9z"
            class="light"
            fill="#ccc"
          ></path>
          <path
            d="M6.7 25H3.1c-.4 0-.8-.4-.8-.8v-.3c0-.4.4-.8.8-.8h3.6c.4 0 .8.4.8.8v.3c.1.4-.3.8-.8.8m-3.6-1.6c-.3 0-.5.2-.5.5v.3c0 .3.2.5.5.5h3.6c.3 0 .5-.2.5-.5v-.3c0-.3-.2-.5-.5-.5z"
            class="quaternary"
            fill="#ffde00"
          ></path>
          <path
            d="M6.6 24.8H3.2c-.4 0-.7-.3-.7-.7v-.2c0-.4.3-.7.7-.7h3.4c.4 0 .7.3.7.7v.2c0 .4-.3.7-.7.7"
            class="senary"
            fill="#333"
          ></path>
          <path
            d="M6.7 23.7H3.6c-.1-.1-.2-.2-.3-.2-.3 0-.5.2-.5.5s.2.5.5.5c.1 0 .3-.1.3-.2h3.1z"
            class="quinary"
            fill="gray"
          ></path>
          <path
            d="m6.3 17.1-1.2.7H3.9v2h2.4z"
            class="primary"
            fill="#FFFFFF"
          ></path>
          <path
            d="M5.4 17.3v-6.1h-1v6.3H5z"
            class="primary"
            fill="#FFFFFF"
          ></path>
          <path
            d="M6.6 20.1v-3.5l-.9.5v-6.2H4.1v6.6h-.5v2.6h.8v1.8h-.2v1.3l.5.5h.5l.5-.5v-1.3h-.3v-1.8zm-2.2-8.9h1v6.1l-.4.2h-.6zm-.5 8.6v-2h1.2l1.2-.7v2.7zM30.8 23.8h-3.1c-.1-.1-.2-.2-.3-.2-.3 0-.5.2-.5.5s.2.5.5.5c.1 0 .3-.1.3-.2h3.1z"
            class="quinary"
            fill="gray"
          ></path>
          <path
            d="M20.5 11.8c0-.4 0-.6-.1-.7-.2-.1-1.4-.1-1.4-.1s-1.1 0-1.2.2c-.1.1-.1.4-.1.8v4.6h.3V14h2.2v2.6h.3zm-2.6 1.8v-2.2c.1-.1 1-.1 1-.1s1 0 1.1.1v2.3c.2-.1-2.1-.1-2.1-.1"
            class="light"
            fill="#ccc"
          ></path>
          <path
            d="m6.7 13.5-1.3.1v-1.5s.9 0 1 .2c.2.4.3 1.2.3 1.2"
            class="senary"
            fill="#333"
          ></path>
        </g></svg>
