<svg xmlns="http://www.w3.org/2000/svg"
        class="css-9txd9r"
        focusable="false"
        viewBox="0 0 32 32"
        data-icon-name="SmallMillingMachine"
      >
        <g id="SmallMillingMachine__outline">
          <path
            d="M27.3 26.7c-1.5 0-2.6-1.2-2.6-2.6s1.2-2.6 2.6-2.6 2.6 1.2 2.6 2.6-1.2 2.6-2.6 2.6"
            class="outline"
            fill="#FFFFFF"
          ></path>
          <path
            d="M27.3 22.4c-.9 0-1.6.7-1.6 1.6s.7 1.6 1.6 1.6 1.6-.7 1.6-1.6-.7-1.6-1.6-1.6m.6 1.2q0-.15 0 0 0-.15 0 0m-.2-.2-.1-.1zm-.9 0s-.1 0-.1.1c0-.1.1-.1.1-.1m.5-.2c-.1 0-.2 0-.3.1.1 0 .2-.1.3-.1m-.7.4-.1.1s.1 0 .1-.1m0 .9s0 .1.1.1zm-.1-.4c0 .1 0 .2.1.3-.1-.1-.1-.2-.1-.3m.3.6.1.1zm1.2-1c0 .1.1.2.1.3 0-.1 0-.2-.1-.3"
            class="primary"
            fill="#FFFFFF"
          ></path>
          <path
            d="M13.2 10.3c-.6 0-1-.4-1-1v-.4c0-.9.7-1.6 1.6-1.6s1.6.7 1.6 1.6v.4c0 .6-.4 1-1 1z"
            class="outline"
            fill="#FFFFFF"
          ></path>
          <path
            d="M14.4 8.9c0-.3-.3-.6-.6-.6s-.6.3-.6.6v.4h1.2z"
            class="primary"
            fill="#FFFFFF"
          ></path>
          <path
            d="M16.4 26.7c-1 0-1.8-.5-2.3-1.3h-.5c-.6 0-1-.4-1-1v-2.1h-.2c-.3 0-.6-.2-.8-.4l-4.9-7.4C3.9 12.4.6 9.7.2 8.7c-.4-1.2.6-2.4.9-2.8.2-.2.5-.3.7-.3s.5.1.7.2l3.4 2.9 4 3.5 2.7 1.3v-.9c-.2 0-.5-.1-.7-.3s-.3-.5-.3-.7V11c0-.5.1-.8.4-1v-.7c0-.6.4-1 1-1h1.7c.5 0 .9.3 1 .8.5-.1 1.1-.1 1.7-.1h.4c2.2 0 3.8.5 4.8.8.4.1.9.6.6 1.9-.1.3-.3.5-.5.6-.1.1-.3.1-.4.1s-.3 0-.4-.1c0 0-1.4-.6-3.9-.6-.8 0-1.8.2-2.3.3h-.6s-.1.1-.2.1v.6c.4 0 .6.2.8.3l.1.1c.3-.2.6-.3 1-.3h2.8c.2-.1.4-.2.6-.2h.4c.7.1 3.2.5 4.5.8 1.7.4 3.5.8 5.1 1.4.3.1.9.3 1.3.8.4.4.5 1 .5 1.5v5.8c0 1-.8 1.8-1.9 1.8H30l-1.1-.1c-.4 0-.8-.4-.9-.8v-.3c0-.1 0-.3-.1-.5h-1.3v.8c0 .8-.6 1.4-1.4 1.4h-4.8c-.2 0-.4 0-.5-.1h-1c-.6 1.1-1.5 1.6-2.5 1.6"
            class="outline"
            fill="#FFFFFF"
          ></path>
          <path
            d="M30.7 16.4c-.3-.3-.6-.5-.8-.5-1.6-.5-3.4-1-5.1-1.4-1.2-.3-3.5-.6-4.4-.8h-.2l-.2.1v.2h-3.1c-.4 0-.5.1-.7.4v.7h-.3s-.3-.9-.7-1.3c-.2-.2-.7 0-.7 0v5h-.4v-7.5h.5l.4-.3s1.7-.3 2.8-.3c2.8 0 4.4.7 4.4.7s.2-.6 0-.7c-1-.4-2.6-.8-4.7-.8-1.3 0-2.6.2-3.3.4v-.5h.7v-.5h-1.7v.5h.7v.6c-.2 0-.3.1-.3.1-.7.2-.7.2-.7.5v.6l1-.1V15l-4.3-2.1-4.4-3.6-3.4-2.9s-1 1.1-.7 1.8c.4 1 6.3 5.5 6.3 5.5l5 7.6h1.2v3.1h1.2c.1.8.8 1.3 1.6 1.3s1.5-.6 1.6-1.3h2c.1.1.2.1.3.1h4.9c.3 0 .4-.2.4-.4 0-.1 0-1 .1-1.6 0-.1.1-.3.3-.3l2.6.1q.3 0 .3.3c0 .4.1 1 .1 1v.3h.3l.8.1c.5 0 .9-.4.9-.8v-5.8c.1-.4-.1-.7-.3-1m-19.8-2.3-.4.5-.6-1zm2.7 6.1-.5-.6v-1.1l-2.4-3.7.5-.6 2.5 1.2v4.8zm17.1-2.8v-.3zm-.1-.4c0-.1-.1-.2-.2-.4.1.2.2.3.2.4m-.4-.5q.15 0 0 0 .15 0 0 0m-14.4 8s0 .1.1.1c-.1 0-.1 0-.1-.1m.2.2s.1.1.2.1c-.1 0-.2 0-.2-.1m9.2-.6c0-.2 0-1 .1-1.6-.1.6-.1 1.5-.1 1.6m5.4-.8v-1.7V23q.15.3 0 .3"
            class="primary"
            fill="#FFFFFF"
          ></path>
        </g>
        <g id="SmallMillingMachine__main_shape">
          <path
            d="m19 20 .1-1.1h-2.2v-2.1h-2.5v2.1h-.8v5.5h6.7z"
            class="quinary"
            fill="gray"
          ></path>
          <path
            id="SmallMillingMachine__SVGID_00000085972006121520642780000011333759285791472311_"
            d="M14.4 16.9v-3s.5-.2.7 0c.3.4.7 1.3.7 1.3h1.7s0 .9-.6.9v.8z"
            class="quinary"
            fill="gray"
          ></path>
          <path
            id="SmallMillingMachine__SVGID_00000125599554989470163900000009750979112699348864_"
            d="M14.4 16.9v-3s.5-.2.7 0c.3.4.7 1.3.7 1.3h1.7s0 .9-.6.9v.8z"
            class="quinary"
            fill="gray"
          ></path>
          <path
            d="M27.3 22.4c-.9 0-1.6.7-1.6 1.6s.7 1.6 1.6 1.6 1.6-.7 1.6-1.6c0-.8-.7-1.6-1.6-1.6m0 2.5c-.5 0-.8-.4-.8-.8 0-.5.4-.8.8-.8.5 0 .8.4.8.8s-.4.8-.8.8"
            class="senary"
            fill="#333"
          ></path>
          <path
            d="M27.3 23.2c-.5 0-.8.4-.8.8 0 .5.4.8.8.8.5 0 .8-.4.8-.8s-.4-.8-.8-.8"
            class="quinary"
            fill="gray"
          ></path>
          <path
            d="M14.4 8.9c0-.3-.3-.6-.6-.6s-.6.3-.6.6v.4h1.2z"
            class="secondary"
            fill="#FB5A02"
          ></path>
          <path
            d="M14.6 9.3h-1.7v.5h.7v.7h.4v-.7h.6z"
            class="senary"
            fill="#333"
          ></path>
          <path
            d="M22 10.7c-1-.4-2.6-.8-4.7-.8-1.9 0-4 .5-4 .5-.7.2-.7.2-.7.5v.6l1-.1V19h.3v-7.6h.5l.4-.3s1.7-.3 2.8-.3c2.8 0 4.4.7 4.4.7s.1-.8 0-.8"
            class="quinary"
            fill="gray"
          ></path>
          <path
            d="m16.2 14.4-.2 4.4c0 .1 0 .2.1.2H19l1-4.8h-3.2c-.3-.1-.4-.1-.6.2"
            class="window"
            opacity=".3"
            fill="#5dc9e8"
          ></path>
          <path
            d="M16.8 13.9c-.4 0-.5.1-.7.4-.1 4.5 0 4.6 0 4.6H19c.1 0 .2 0 .2-.1l1.2-4.8v-.2zm2.2 4.9h-2.7v-2h3.1zm.5-2.3h-3.2v-2c.2-.2.2-.3.5-.3h3.3zM13.7 15.5l.2-.3L9.4 13 5.2 9.3 1.8 6.4s-1 1.1-.7 1.8c.4 1 6.3 5.5 6.3 5.5l5 7.6h1.2v-1l-.5-.6v-1.1l-2.4-3.7.5-.6zm-3.1-.9-.6-1 1 .5z"
            class="quinary"
            fill="gray"
          ></path>
          <path
            d="M9.9 13.6 8.2 15l3.1 4.6 1.8-1.1z"
            class="highlight"
            opacity=".3"
            fill="#fff"
          ></path>
          <path
            d="m19 20 .1-1.1h-2.2v-2.1h-2.5v2.1h-.8v5.5h6.7z"
            class="shadow"
            opacity=".3"
            fill="#333"
          ></path>
          <path
            d="M20.3 14.1c.3.1 3 .5 4.4.8 1.8.4 3.5.9 5.1 1.4.1 0 .4.1.6.4.1.2.2.4.2.7v5.8c0 .3-.2.5-.5.5l-.8-.1s-.1-.6-.1-1-.3-.6-.7-.6l-2.5-.1c-.3 0-.6.2-.6.6-.1.6-.1 1.5-.1 1.6h-5.1s-2.8-3.2-2.9-3.2v-.5h1.5zq0 .15 0 0m-.1-.4-.2.1v.3L18.6 20H17v1.3h.2c.4.4 1.8 2 2.7 3.1.1.1.2.2.3.2h4.9c.3 0 .4-.2.4-.4 0-.1 0-1 .1-1.6 0-.1.1-.3.3-.3l2.6.1q.3 0 .3.3c0 .4.1 1 .1 1v.3h.3l.8.1c.5 0 .9-.4.9-.8v-5.8q0-.45-.3-.9c-.3-.3-.6-.5-.8-.5-1.6-.5-3.4-1-5.1-1.4-1.2-.3-3.5-.6-4.4-.8z"
            class="quinary"
            fill="gray"
          ></path>
          <path
            d="M16.4 22.4c-.9 0-1.6.7-1.6 1.6s.7 1.6 1.6 1.6S18 24.9 18 24c.1-.8-.6-1.6-1.6-1.6m0 2.5c-.5 0-.8-.4-.8-.8 0-.5.4-.8.8-.8.5 0 .8.4.8.8s-.3.8-.8.8"
            class="senary"
            fill="#333"
          ></path>
          <path
            d="M16.4 23.2c-.5 0-.8.4-.8.8 0 .5.4.8.8.8.5 0 .8-.4.8-.8.1-.4-.3-.8-.8-.8"
            class="quinary"
            fill="gray"
          ></path>
          <path
            d="M30.4 16.7c-.2-.3-.5-.3-.6-.4a46 46 0 0 0-5.1-1.4c-1.4-.3-4.1-.7-4.4-.8l-1.4 6.2h-1.5v.5l2.9 3.2h5c0-.1 0-1 .1-1.6.1-.3.3-.6.7-.6l2.6.1c.4 0 .7.3.7.6 0 .4.1 1 .1 1l.8.1c.3 0 .5-.2.5-.5v-5.8c-.1-.2-.2-.4-.4-.6"
            class="primary"
            fill="#FFFFFF"
          ></path>
          <path
            d="m30.2 17.4.1 4.3h.4v-4.3z"
            class="quinary"
            fill="gray"
          ></path>
          <path
            d="M26.5 16.7h.8v2.8h-.8z"
            class="quinary"
            transform="rotate(-76.078 26.863 18.114)"
            fill="gray"
          ></path>
          <path
            d="M29.6 17.8q-1.8-.6-3.9-1.2c-1.2-.3-2.4-.6-3.5-.7v-.5c1.1.2 2.3.4 3.6.7q2.1.6 3.9 1.2c.1 0 .2.2.2.3-.1.1-.2.2-.3.2"
            class="secondary"
            fill="#FB5A02"
          ></path>
          <path
            d="M30.7 17.4c0-.3-.1-.6-.3-.8-.3-.3-.7-.4-.7-.4-1.4-.5-2.9-.8-4.9-1.3-.6-.1-1.8-.4-4.4-.8h-.1l-.1.4-.4 1.8.9.2.4-1.8c2 .3 3 .5 3.5.6 2 .4 3.5.8 4.9 1.3.1 0 .3.1.5.3.1.1.2.3.2.5z"
            class="quinary"
            fill="gray"
          ></path>
          <path
            d="m22 14.9-1.8-.3-1.5 6.4 1.3 1.5z"
            class="shadow"
            opacity=".3"
            fill="#333"
          ></path>
          <path
            d="m17.6 21.1 2.7 3h1.2l-3.2-3.5z"
            class="shadow"
            opacity=".3"
            fill="#333"
          ></path>
          <path
            d="M17.3 20.3v-3.5H16v3.5h-.3v1.2h3.6v-1.2z"
            class="primary"
            fill="#FFFFFF"
          ></path>
        </g></svg>
