<svg xmlns="http://www.w3.org/2000/svg"
        class="css-9txd9r"
        focusable="false"
        viewBox="0 0 48 48"
        data-icon-name="SugarHarvesterTracked"
      >
        <path
          id="SugarHarvesterTracked__outline"
          d="M48 13.75v-1a2 2 0 0 0-1.368-1.897l-.542-.181-1.062-.637a2 2 0 0 0-.135-.074l-.5-.25-1-.5A2 2 0 0 0 42.499 9h-.925l-.442-.147a1.999 1.999 0 0 0-2.296.788l-2.5 3.75c-.159.238-.26.499-.307.767a2 2 0 0 0-.26-.089 2 2 0 0 0-.355-.482l-.25-.25a2 2 0 0 0-1.414-.586H33a2 2 0 0 0-1.414.586l-.25.25a2 2 0 0 0-.318.414H24.25a2 2 0 0 0-1.776 1.079l-.365-.243A2 2 0 0 0 21 14.501h-1.177a2 2 0 0 0-1.323-.5h-1.75c-.507 0-.97.189-1.323.5H14.25v-2a2 2 0 0 0-.5-1.323V9.001c0-.468-.164-.921-.464-1.28l-1.25-1.5a2 2 0 0 0-1.536-.72H6.25c-.594 0-1.156.264-1.536.72l-1.25 1.5A2 2 0 0 0 3 9.001v2.177a2 2 0 0 0-.5 1.323v2a2 2 0 0 0 .586 1.414l.076.076-.365.137a2 2 0 0 0-1.183 1.204l-.259.13a2 2 0 0 0-.894.894l-.25.5A2 2 0 0 0 0 19.75v.75c0 .271.055.539.162.788l.75 1.75a2 2 0 0 0 1.353 1.152l1 .25q.116.029.235.044V25.5a2 2 0 0 0 .297 1.048l.982 1.595-1.442 1.443a2 2 0 0 0-.443 2.157l.5 1.25c.173.432.491.79.899 1.013l1.467.8a2 2 0 0 0-.009.194v.75a2 2 0 0 0 2 2h.75a4.756 4.756 0 0 0 4.75 4.75h16.25a4.76 4.76 0 0 0 4.308-2.75h12.192a2.002 2.002 0 0 0 1.961-2.392l-.25-1.25a2 2 0 0 0-1.318-1.502 2 2 0 0 0-.672-.94 2 2 0 0 0-.75-1.25 2 2 0 0 0-.474-.991 2 2 0 0 0-.854-1.565 2 2 0 0 0-.396-.685 2 2 0 0 0-.776-1.509 2 2 0 0 0-1.109-1.471l-.36-.657a2 2 0 0 0-1.117-.935 2 2 0 0 0-1.138-.354c-.301 0-.606.068-.893.212l-.182.091.082-.33.579-.753a2 2 0 0 0 .415-1.217l2.298-4.29 2.721 1.531a1.999 1.999 0 0 0 2.879-2.374l1.168-2.531c.121-.263.184-.549.184-.838Z"
          class="outline"
          fill="#fff"
        ></path>
        <g id="SugarHarvesterTracked__icon">
          <path
            d="m34.25 25.5 1 .5.75-3z"
            class="neutral2"
            fill="#808082"
          ></path>
          <path
            d="M14 24.25h.5V18.5h.5l-.75-1.5v-.5h2.5V16h1.75v.5H21l1.5 1v1.75L24 22v3.5h5.75v-1h2.75v6l1.5-2 .75 1.25 3.25-2.5-.25-.5 1-.5.25.5.25-.25L45 37l.75-.5.25 1.25H14zM5 10.5h6.75v.75h-.5v.5l1 .75v2l-1 1v1.75l1 1.5v3H14v7l-1.25 1.5v.25l.25.25v1.5l-.5.5H14v3H7.75V35H8v-.5h-.25v-.75H8l-2.75-1.5-.5-1.25L7 28.75h.5l-2-3.25v-3H3.75L3 20.75l-.75-1.5.5-.25.75 1.5.5 1.25h2.75v-3l1-1.5H5.5V15.5l-1-1v-2l1-.75v-.5H5z"
            class="primary"
            fill="#367C2B"
          ></path>
          <path
            d="M5 10.5V9l1.25-1.5h4.25L11.75 9v1.5z"
            class="neutral1"
            fill="#2b2b2b"
          ></path>
          <path
            d="M5 9h6.75v.75H5z"
            class="highlight"
            fill="#fefeff"
            opacity=".31"
          ></path>
          <path
            d="M5.5 11.25h5.75v.5H5.5z"
            class="shadow"
            fill="#353535"
            opacity=".3"
          ></path>
          <path
            d="m4.5 12.5 1 .5h5.75l1-.5v.75l-1 .5v1.75H11v-1.75H5.75v1.75H5.5v-1.75l-1-.5z"
            class="highlight"
            fill="#fefeff"
            opacity=".31"
          ></path>
          <path
            d="M5.75 14.5H11v.5H5.75z"
            class="shadow"
            fill="#353535"
            opacity=".3"
          ></path>
          <path
            d="M7.75 12h.5v5.25h-.5zM8.75 12h.5v5.25h-.5zM8.25 17.25l-1 1.5v3h4.5v-3l-1-1.5z"
            class="neutral1"
            fill="#2b2b2b"
          ></path>
          <path
            d="M7.25 18.75h4.5l-.5-.75h-3.5z"
            class="highlight"
            fill="#fefeff"
            opacity=".31"
          ></path>
          <path
            d="m2.75 19 .5-.25.25-.75 2-.75h2.25l-1 1.5v3H4l-.5-1.25zM11.25 17.25h1.5l.75.75.5.75v3h-1.75v-3l-.5-.75z"
            class="neutral1"
            fill="#2b2b2b"
          ></path>
          <path
            d="M3.5 18h3.75l-.5.75h-3.5zM11.75 18l.5.75H14l-.5-.75z"
            class="highlight"
            fill="#fefeff"
            opacity=".31"
          ></path>
          <path
            d="m7.75 17.25-1 1.5h.5l1-1.5zM10.75 17.25h.5l1 1.5h-.5z"
            class="highlight"
            fill="#fefeff"
            opacity=".31"
          ></path>
          <path
            d="M2.595 19.036h.559v1.677h-.559z"
            class="highlight"
            transform="rotate(-26.565 2.875 19.875)"
            fill="#fefeff"
            opacity=".31"
          ></path>
          <path
            d="M5.5 16.5h5.75v.75H5.5zM5.5 22.5H10v1.25h1.75V22.5H14v1.75H5.5z"
            class="shadow"
            fill="#353535"
            opacity=".3"
          ></path>
          <path
            d="M5.5 23.75H14v.5H5.5z"
            class="neutral1"
            fill="#2b2b2b"
          ></path>
          <path
            d="M11.75 24.25v.25l1.75.5.5 2.25v-3z"
            class="shadow"
            fill="#353535"
            opacity=".3"
          ></path>
          <path
            d="M5.5 25.5v-.25h7l1.5 2v.25h-.25l-1.5-2z"
            class="highlight"
            fill="#fefeff"
            opacity=".31"
          ></path>
          <path
            d="m5.5 25.5 2 3.25L9 30.5h3.75v-.25l1.25-1.5V27.5h-.25l-1.5-2z"
            class="shadow"
            fill="#353535"
            opacity=".3"
          ></path>
          <path
            d="M8.25 26.5H13l.75 1H14v1.25H8.75z"
            class="shadow"
            fill="#353535"
            opacity=".3"
          ></path>
          <path
            d="M8.25 26.5H13l.75 1H14v1.25H8.75z"
            class="shadow"
            fill="#353535"
            opacity=".3"
          ></path>
          <path
            d="M5.5 25.5H8l1 2.25h5v.5H9l-.25.5H7.5z"
            class="neutral1"
            fill="#2b2b2b"
          ></path>
          <path
            d="M7.5 28.75 9 30.5h3.75v-.25l1.25-1.5L12.25 30h-3z"
            class="shadow"
            fill="#353535"
            opacity=".3"
          ></path>
          <path
            d="m7 28.75 1.25 2v3h-.5v.75h2v.5h-2v.75H35.5l-.25-.75H10v-.75h4v-1.5H8.5V30.5l-1.25-1.75z"
            class="shadow"
            fill="#353535"
            opacity=".3"
          ></path>
          <path
            d="m7 28.75 1.25 2v3h-.5v.75h2v.5h-2v.75H35.5l-.25-.75H10v-.75h4v-1.5H8.5V30.5l-1.25-1.75z"
            class="shadow"
            fill="#353535"
            opacity=".3"
          ></path>
          <path
            d="m10.25 32.75-.75 1H14v-1h-2.5V30.5H11v2.25z"
            class="neutral1"
            fill="#2b2b2b"
          ></path>
          <path
            d="m11.5 30.5 1 .5v1.25l-1 .5h1l.5-.5v-1.5l-.25-.25zM9 30.5l1.75 2.25H11v-1h-.5l-.25-.5H11V31h-1l-.25-.5z"
            class="shadow"
            fill="#353535"
            opacity=".3"
          ></path>
          <path
            d="M7.25 30.75H8v2h-.75z"
            class="neutral1"
            fill="#2b2b2b"
          ></path>
          <path
            d="M35.75 33.75V34l-1.25.5H10v-.25h24.5zM14.75 17l.75 1.25h.75V17z"
            class="highlight"
            fill="#fefeff"
            opacity=".31"
          ></path>
          <path
            d="M16.25 16.5h.5v7h-.5z"
            class="shadow"
            fill="#353535"
            opacity=".3"
          ></path>
          <path
            d="M15.25 19.5h1v-3h.5v4.75h1.75V16.5h.5v3h2v-1l2.25 3-.25.25-1-.75v1.5l1.5 1v.25H22v.5h1.5v1.25h-1.75V24H15.5v-4z"
            class="shadow"
            fill="#353535"
            opacity=".3"
          ></path>
          <path
            d="M14.75 19.5h.5l.25.5v3.5h5.25v.75h-6z"
            class="neutral1"
            fill="#2b2b2b"
          ></path>
          <path
            d="M17.75 23v-3.25H19V23h.25v-3.5H19v-3h2v3h-.25V23z"
            class="neutral2"
            fill="#808082"
          ></path>
          <path
            d="M17.75 19.75H19V23h-1.25zM19.25 19.5h1.5V23h-1.5zM19 18h2v.25h-2z"
            class="shadow"
            fill="#353535"
            opacity=".3"
          ></path>
          <path
            d="M18.5 16.5v3.25h.5V23h.25v-3.5H19v-3z"
            class="shadow"
            fill="#353535"
            opacity=".3"
          ></path>
          <path
            d="M14.5 18.5v5.75h.5v-.75h5.5v.75h.5V18.5zm6 4.5H15v-1.5h5.5zm0-2H15v-2h5.5z"
            class="primary"
            fill="#367C2B"
          ></path>
          <path
            d="M14.5 18.5v5.75h.5v-.75h5.5v.75h.5V18.5zm6 4.5H15v-1.5h5.5zm0-2H15v-2h5.5z"
            class="highlight"
            fill="#fefeff"
            opacity=".31"
          ></path>
          <path
            d="M22.25 26h1.25v1h-1.25zM22.25 27.5h1.25v1.25h-1.25zM22.25 29.25h1.25v1.25h-1.25zM22.25 31h1.25v1h-1.25z"
            class="neutral1"
            fill="#2b2b2b"
          ></path>
          <path
            d="m28 25.5-2.75-4.75V17.5h3.25l.75.5H33v.75l-2.5 5.75h-.75v1z"
            class="window"
            fill="#bbe3f3"
          ></path>
          <path
            d="m28 25.5-2.75-4.75V17.5h3.25l.75.5h2L29 25.5h.5l2.25-7.5H33v.75l-2.5 5.75h.5l2-5v1h1V18h1.25v-.5h-2l-1-.75h-8v8.75z"
            class="neutral1"
            fill="#2b2b2b"
          ></path>
          <path
            d="M24.25 16.75V16h11v.25H33.5v1h1.75v.25h-2l-1-.75z"
            class="primary"
            fill="#367C2B"
          ></path>
          <path
            d="M33.5 16.25h1.75v1H33.5z"
            class="neutral1"
            fill="#2b2b2b"
          ></path>
          <path d="M34 16.5h1v.5h-1z" class="neutral3" fill="#f2f2f2"></path>
          <path
            d="M32.75 15.5H34v.5h-1.25z"
            class="neutral1"
            fill="#2b2b2b"
          ></path>
          <path
            d="M32.75 15.5V15l.25-.25h.75L34 15v.5z"
            class="accent2"
            fill="#f5911e"
          ></path>
          <path
            d="M24.25 25.5h.5v7.25h-.5zM24.75 26.5h7.75v.5h-7.75zM25.75 27.25h2.75v4.5h-2.75zM30 28v.25h-1.25v-1H31V28zM31 30.75l-2.25 1v-3H31z"
            class="shadow"
            fill="#353535"
            opacity=".3"
          ></path>
          <path
            d="M25.75 27.25h2.75v4.5h-2.75zM30 28v.25h-1.25v-1H31V28zM31 30.75l-2.25 1v-3H31zM31.25 27h.25v4.5h-.25zM32 31l-.25.25V27H32z"
            class="shadow"
            fill="#353535"
            opacity=".3"
          ></path>
          <path
            d="M21.5 25.5v7h2.75v-7zm2.25 6.5H22v-6h1.75z"
            class="highlight"
            fill="#fefeff"
            opacity=".31"
          ></path>
          <path
            d="M14 24.75h3.25v.5H14z"
            class="shadow"
            fill="#353535"
            opacity=".3"
          ></path>
          <path
            d="M21.25 31.25v.5H21v2.5h-7v-4.5h3.25v-5h.5v7.5h.5v-7.5h.5v5h2v1.5z"
            class="shadow"
            fill="#353535"
            opacity=".3"
          ></path>
          <path
            d="M18.75 24.75h-1.5v5h-3v3.75h4.25v-1.25H15v-1.5h2.25v1h1.5z"
            class="shadow"
            fill="#353535"
            opacity=".3"
          ></path>
          <path
            d="M18.75 24.75h-1.5v5h-3v3.75h4.25v-1.25H15v-1.5h2.25v1h1.5z"
            class="shadow"
            fill="#353535"
            opacity=".3"
          ></path>
          <path
            d="M15.75 29.75h.5v1h-.5zM15 29.75h.5v1H15z"
            class="neutral1"
            fill="#2b2b2b"
          ></path>
          <path
            d="M19 30h1.75v.75h-1.5v1.5h1.5v-1h.5v2.25h-2.5v-1.25H19z"
            class="shadow"
            fill="#353535"
            opacity=".3"
          ></path>
          <path
            d="M19 30h1.75v.75h-1.5v1.5h1.5v-1h.5v2.25h-2.5v-1.25H19z"
            class="shadow"
            fill="#353535"
            opacity=".3"
          ></path>
          <path
            d="M17.75 24.75v7H16v2.5h.5v-2h.5v2h.5v-2H21v2h.5v-9.5H21v5h-.25v1.5h.5v.5h-3v-7z"
            class="neutral1"
            fill="#2b2b2b"
          ></path>
          <path
            d="M18.75 27.5H21v1.75h-2.25zM14 27.75h3.25v.5H14z"
            class="highlight"
            fill="#fefeff"
            opacity=".31"
          ></path>
          <path
            d="M18.75 24.75H21v.5h-2.25zM21.5 32.5h.5l.5.75H24l.25-.5h2.5v.75h2.75v-.25h2v1h-7.25L24 34h-1.75l-.25.25h-.5z"
            class="shadow"
            fill="#353535"
            opacity=".3"
          ></path>
          <path
            d="M21.5 32.5h.25v1.25h1l.25-.5h1V34h-1.75l-.25.25h-.5zM25 33.25h1v1h-1zM26.75 33.5v.75h4.75v-1h-2v.25z"
            class="shadow"
            fill="#353535"
            opacity=".3"
          ></path>
          <path
            d="M32.25 30.75v1.5h-1v1h1v1h2.25l.25-.25-2-2.5.75-.75 3.75 5h.25v-1.5l-1.5-3-.5.25-.25-.5-.5-1.25L34 28.5l-1.5 2z"
            class="shadow"
            fill="#353535"
            opacity=".3"
          ></path>
          <path
            d="M32.25 30.75v1.5h.5v1h-.5v1h2.25l.25-.25-2-2.5z"
            class="shadow"
            fill="#353535"
            opacity=".3"
          ></path>
          <path
            d="M32.25 30.75v1.5h.5v1h-.5v1h2.25l.25-.25-2-2.5zM34 28.5l-1.5 2 .75-.25.25.5.75 1 1-.75-.5-1.25z"
            class="shadow"
            fill="#353535"
            opacity=".3"
          ></path>
          <path
            d="m34 28.5-1.5 2 .75-.25.25.5.75 1 1-.75-.5-1.25zM24.75 32.5h3.75l2.75-1h.25v.75h-.25v.25h-.75v.25h-5.75z"
            class="shadow"
            fill="#353535"
            opacity=".3"
          ></path>
          <path
            d="M24.75 32.5h3.75l2.75-1h.25v.75h-.25v.25h-.75v.25h-5.75z"
            class="shadow"
            fill="#353535"
            opacity=".3"
          ></path>
          <path
            d="M24.75 32.5h3.75l2.75-1h.25v.75h-.25v.25h-.75v.25h-5.75z"
            class="shadow"
            fill="#353535"
            opacity=".3"
          ></path>
          <path d="M29.5 32.75h1v.5h-1z" class="neutral2" fill="#808082"></path>
          <path
            d="M31.5 32.25v-1h.25L32 31l.25-.25v1.5z"
            class="highlight"
            fill="#fefeff"
            opacity=".31"
          ></path>
          <path
            d="m36 31.25-.5.25-.25.25V33l.25.25.25-.25L37 34.5l-.25.5.5.75h.25v-1.5z"
            class="shadow"
            fill="#353535"
            opacity=".3"
          ></path>
          <path
            d="m36 31.25-.5.25-.25.25V33l.25.25.25-.25L37 34.5l-.25.5.5.75h.25v-1.5zM31.25 35.75v2h10.5l.75-.5h-5v-1.5h-.25L36 36.5l-.5-.75z"
            class="shadow"
            fill="#353535"
            opacity=".3"
          ></path>
          <path
            d="m42.5 37.25-.75.5H36.5l.75-.5zM37.5 35.75v-.25h1.25l1.75 1.75H40l-1.5-1.5z"
            class="highlight"
            fill="#fefeff"
            opacity=".31"
          ></path>
          <path
            d="M38.25 28.5 43 37.25h-.5L36 30.5z"
            class="shadow"
            fill="#353535"
            opacity=".3"
          ></path>
          <path
            d="m38.25 28.5-2.25 2 6.5 6.75h.5zm.25 2.5-1.25-1.5.5-.5L39 30.75zm3.5 5-2.25-2.25-.25-1.5.75.25 2 3.5z"
            class="shadow"
            fill="#353535"
            opacity=".3"
          ></path>
          <path
            d="m38 27.25 1-.5.25-.25.5 1-1.5 1-.5-1z"
            class="highlight"
            fill="#fefeff"
            opacity=".31"
          ></path>
          <path
            d="m38.5 29 2-1v.75l-2 1z"
            class="primary"
            fill="#367C2B"
          ></path>
          <path
            d="m38.5 29 2-1v.75l-2 1z"
            class="highlight"
            fill="#fefeff"
            opacity=".31"
          ></path>
          <path
            d="m39.25 30.25 2-1V30l-2 1z"
            class="primary"
            fill="#367C2B"
          ></path>
          <path
            d="m39.25 30.25 2-1V30l-2 1z"
            class="highlight"
            fill="#fefeff"
            opacity=".31"
          ></path>
          <path
            d="m39.75 31.5 2-1v.75l-2 1z"
            class="primary"
            fill="#367C2B"
          ></path>
          <path
            d="m39.75 31.5 2-1v.75l-2 1z"
            class="highlight"
            fill="#fefeff"
            opacity=".31"
          ></path>
          <path
            d="m40.5 32.5 2-1v.75l-2 1z"
            class="primary"
            fill="#367C2B"
          ></path>
          <path
            d="m40.5 32.5 2-1v.75l-2 1z"
            class="highlight"
            fill="#fefeff"
            opacity=".31"
          ></path>
          <path
            d="m41 33.75 2-1v.75l-2 1z"
            class="primary"
            fill="#367C2B"
          ></path>
          <path
            d="m41 33.75 2-1v.75l-2 1z"
            class="highlight"
            fill="#fefeff"
            opacity=".31"
          ></path>
          <path
            d="m41.75 35 2-1v.75l-2 1z"
            class="primary"
            fill="#367C2B"
          ></path>
          <path
            d="m41.75 35 2-1v.75l-2 1z"
            class="highlight"
            fill="#fefeff"
            opacity=".31"
          ></path>
          <path
            d="m42.5 36.25 2-1V36l-2 1z"
            class="primary"
            fill="#367C2B"
          ></path>
          <path
            d="m42.5 36.25 2-1V36l-2 1z"
            class="highlight"
            fill="#fefeff"
            opacity=".31"
          ></path>
          <path
            d="m45 37-2 .25L44.5 36z"
            class="shadow"
            fill="#353535"
            opacity=".3"
          ></path>
          <path
            d="m45 37-2 .25L44.5 36z"
            class="shadow"
            fill="#353535"
            opacity=".3"
          ></path>
          <path d="M6.75 11h3.5v1h-3.5z" class="primary" fill="#367C2B"></path>
          <path
            d="M6.75 11h3.5v1h-3.5z"
            class="highlight"
            fill="#fefeff"
            opacity=".31"
          ></path>
          <path
            d="m2.25 19.25-.25.5v.75l.75 1.75 1 .25L3 20.75z"
            class="neutral1"
            fill="#2b2b2b"
          ></path>
          <path
            d="M35.345 30.845h.559v.559h-.559z"
            class="neutral2"
            transform="rotate(-26.565 35.625 31.124)"
            fill="#808082"
          ></path>
          <circle
            cx="34.125"
            cy="32.375"
            r=".375"
            class="shadow"
            fill="#353535"
            opacity=".3"
          ></circle>
          <circle
            cx="38.125"
            cy="36.625"
            r=".375"
            class="shadow"
            fill="#353535"
            opacity=".3"
          ></circle>
          <circle
            cx="25.25"
            cy="27.5"
            r=".25"
            class="shadow"
            fill="#353535"
            opacity=".3"
          ></circle>
          <circle
            cx="25.25"
            cy="29.75"
            r=".25"
            class="shadow"
            fill="#353535"
            opacity=".3"
          ></circle>
          <circle
            cx="25.25"
            cy="31.75"
            r=".25"
            class="shadow"
            fill="#353535"
            opacity=".3"
          ></circle>
          <circle
            cx="30.5"
            cy="28.25"
            r=".25"
            class="shadow"
            fill="#353535"
            opacity=".3"
          ></circle>
          <circle
            cx="16.75"
            cy="27.25"
            r=".25"
            class="neutral1"
            fill="#2b2b2b"
          ></circle>
          <circle
            cx="12"
            cy="31.5"
            r=".25"
            class="neutral2"
            fill="#808082"
          ></circle>
          <circle
            cx="7.5"
            cy="30.25"
            r=".25"
            class="neutral2"
            fill="#808082"
          ></circle>
          <circle
            cx="6.5"
            cy="32"
            r=".25"
            class="neutral2"
            fill="#808082"
          ></circle>
          <circle
            cx="21.75"
            cy="17.5"
            r=".25"
            class="neutral1"
            fill="#2b2b2b"
          ></circle>
          <path
            d="M28.75 20v.5H26.5v-.75h-1.75v5.75h4.5v-1.25h2v.25h.5V20zm-2.25 1h2v1.75h-2zm-1.25-.75H26v2.5h-.75zm3.5 4.75h-3.5v-1.75h3.5zm2.5-1.25h-2V22h2zm0-2.25h-2v-1h2z"
            class="primary"
            fill="#367C2B"
          ></path>
          <path
            d="M28.75 20v.5H26.5v-.75h-1.75v5.75h4.5v-1.25h2v.25h.5V20zm-2.25 1h2v1.75h-2zm-1.25-.75H26v2.5h-.75zm3.5 4.75h-3.5v-1.75h3.5zm2.5-1.25h-2V22h2zm0-2.25h-2v-1h2z"
            class="highlight"
            fill="#fefeff"
            opacity=".31"
          ></path>
          <path
            d="m32.5 24.5 2-3.25.5.25-1.75 3.25 6.5-11v-.5l1.5-2.25h1.25l1 .5-.5 1h-.25l-1.5 2.75-.75-.5-3.75 7v.5l-2.5 3.25 1 .5L34 28.5l-1.5 2z"
            class="primary"
            fill="#367C2B"
          ></path>
          <path
            d="m32.5 24.5 2-3.25.5.25-1.75 3.25-.25.5-.25 1.75h-.25zM34.25 25.5 32.5 28v2.5l1.5-2 1.25-2.5z"
            class="shadow"
            fill="#353535"
            opacity=".3"
          ></path>
          <path
            d="M34.25 25.5 32.5 28v2.5l1.5-2 1.25-2.5z"
            class="shadow"
            fill="#353535"
            opacity=".3"
          ></path>
          <path
            d="M33 25.25 36 21l4-6.75.25.25-4 7-1 1.75-2.5 3.75z"
            class="stripe"
            fill="#FFDE00"
          ></path>
          <path
            d="m40.5 14.75 2-3.75 1 .5-.5 1h-.25l-1.5 2.75z"
            class="shadow"
            fill="#353535"
            opacity=".3"
          ></path>
          <path
            d="m43 12.5-1.5 3 .5.25 2-4-.5-.25z"
            class="neutral1"
            fill="#2b2b2b"
          ></path>
          <path
            d="m44.5 17-.5-.25-.75-.5-1.25-.5 2-4 1.25.75.75.25v1z"
            class="primary"
            fill="#367C2B"
          ></path>
          <path
            d="M41.5 15.5h-.75l4 2.25-.25-.75-.5-.25-.75-.5-1.25-.5z"
            class="neutral2"
            fill="#808082"
          ></path>
          <path
            d="m45.25 12.5-2 3.75.75.5 2-4z"
            class="highlight"
            fill="#fefeff"
            opacity=".31"
          ></path>
          <path
            d="m34.5 21.25 3.75-6.5.5.25L35 21.5z"
            class="neutral2"
            fill="#808082"
          ></path>
          <path
            d="m38.75 15-.5-.25-.25-.25 2.5-3.75.75.25-1.5 2.25v.5L39 15zM32.25 37.75c0 1.52-1.23 2.75-2.75 2.75H13.25c-1.52 0-2.75-1.23-2.75-2.75S11.73 35 13.25 35H29.5c1.52 0 2.75 1.23 2.75 2.75"
            class="neutral1"
            fill="#2b2b2b"
          ></path>
          <path
            d="M32 37.75a2.5 2.5 0 0 1-2.5 2.5H13.25a2.5 2.5 0 0 1 0-5H29.5a2.5 2.5 0 0 1 2.5 2.5"
            class="highlight"
            fill="#fefeff"
            opacity=".31"
          ></path>
          <path
            d="M31.75 37.75c0 1.24-1.01 2.25-2.25 2.25H13.25C12.01 40 11 38.99 11 37.75s1.01-2.25 2.25-2.25H29.5c1.24 0 2.25 1.01 2.25 2.25"
            class="neutral1"
            fill="#2b2b2b"
          ></path>
          <circle
            cx="15.625"
            cy="39.375"
            r=".625"
            class="secondary"
            fill="#FFDE00"
          ></circle>
          <circle
            cx="15.625"
            cy="39.375"
            r=".625"
            class="shadow"
            fill="#353535"
            opacity=".3"
          ></circle>
          <circle
            cx="15.625"
            cy="39.375"
            r=".375"
            class="secondary"
            fill="#FFDE00"
          ></circle>
          <circle
            cx="17.125"
            cy="39.375"
            r=".625"
            class="secondary"
            fill="#FFDE00"
          ></circle>
          <circle
            cx="17.125"
            cy="39.375"
            r=".625"
            class="shadow"
            fill="#353535"
            opacity=".3"
          ></circle>
          <circle
            cx="17.125"
            cy="39.375"
            r=".375"
            class="secondary"
            fill="#FFDE00"
          ></circle>
          <circle
            cx="18.875"
            cy="39.375"
            r=".625"
            class="secondary"
            fill="#FFDE00"
          ></circle>
          <circle
            cx="18.875"
            cy="39.375"
            r=".625"
            class="shadow"
            fill="#353535"
            opacity=".3"
          ></circle>
          <circle
            cx="18.875"
            cy="39.375"
            r=".375"
            class="secondary"
            fill="#FFDE00"
          ></circle>
          <circle
            cx="20.625"
            cy="39.375"
            r=".625"
            class="secondary"
            fill="#FFDE00"
          ></circle>
          <circle
            cx="20.625"
            cy="39.375"
            r=".625"
            class="shadow"
            fill="#353535"
            opacity=".3"
          ></circle>
          <circle
            cx="20.625"
            cy="39.375"
            r=".375"
            class="secondary"
            fill="#FFDE00"
          ></circle>
          <circle
            cx="22.375"
            cy="39.375"
            r=".625"
            class="secondary"
            fill="#FFDE00"
          ></circle>
          <circle
            cx="22.375"
            cy="39.375"
            r=".625"
            class="shadow"
            fill="#353535"
            opacity=".3"
          ></circle>
          <circle
            cx="22.375"
            cy="39.375"
            r=".375"
            class="secondary"
            fill="#FFDE00"
          ></circle>
          <circle
            cx="24.125"
            cy="39.375"
            r=".625"
            class="secondary"
            fill="#FFDE00"
          ></circle>
          <circle
            cx="24.125"
            cy="39.375"
            r=".625"
            class="shadow"
            fill="#353535"
            opacity=".3"
          ></circle>
          <circle
            cx="24.125"
            cy="39.375"
            r=".375"
            class="secondary"
            fill="#FFDE00"
          ></circle>
          <circle
            cx="25.625"
            cy="39.375"
            r=".625"
            class="secondary"
            fill="#FFDE00"
          ></circle>
          <circle
            cx="25.625"
            cy="39.375"
            r=".625"
            class="shadow"
            fill="#353535"
            opacity=".3"
          ></circle>
          <circle
            cx="25.625"
            cy="39.375"
            r=".375"
            class="secondary"
            fill="#FFDE00"
          ></circle>
          <circle
            cx="27.375"
            cy="39.375"
            r=".625"
            class="secondary"
            fill="#FFDE00"
          ></circle>
          <circle
            cx="27.375"
            cy="39.375"
            r=".625"
            class="shadow"
            fill="#353535"
            opacity=".3"
          ></circle>
          <circle
            cx="27.375"
            cy="39.375"
            r=".375"
            class="secondary"
            fill="#FFDE00"
          ></circle>
          <circle
            cx="13.25"
            cy="37.75"
            r="2.25"
            class="secondary"
            fill="#FFDE00"
          ></circle>
          <circle
            cx="13.25"
            cy="37.75"
            r="2.25"
            class="shadow"
            fill="#353535"
            opacity=".3"
          ></circle>
          <circle
            cx="29.75"
            cy="38"
            r="2"
            class="secondary"
            fill="#FFDE00"
          ></circle>
          <circle
            cx="29.75"
            cy="38"
            r="2"
            class="shadow"
            fill="#353535"
            opacity=".3"
          ></circle>
          <circle
            cx="12.5"
            cy="36"
            r=".25"
            class="shadow"
            fill="#353535"
            opacity=".3"
          ></circle>
          <circle
            cx="11.5"
            cy="37"
            r=".25"
            class="shadow"
            fill="#353535"
            opacity=".3"
          ></circle>
          <circle
            cx="13.75"
            cy="36"
            r=".25"
            class="shadow"
            fill="#353535"
            opacity=".3"
          ></circle>
          <circle
            cx="11.5"
            cy="38.5"
            r=".25"
            class="shadow"
            fill="#353535"
            opacity=".3"
          ></circle>
          <circle
            cx="12.5"
            cy="39.5"
            r=".25"
            class="shadow"
            fill="#353535"
            opacity=".3"
          ></circle>
          <path
            d="M14.5 36h4l.5.5h11.5l.75.25.5 1v.5l-.5.75-.75.25h-4.75v.5H26V40h-1.75v-.25h.25v-.5h-5.75v.5H19V40h-1.75v-.25h.25v-.5H13v-2.5h1.5z"
            class="secondary"
            fill="#FFDE00"
          ></path>
          <circle
            cx="13.75"
            cy="39.5"
            r=".25"
            class="shadow"
            fill="#353535"
            opacity=".3"
          ></circle>
          <path
            d="M13 36.75v2.5h4.5v-1.5h-.75V39h-3.5v-2h13v-.25H14.5v-.25H19l-.5-.5h-4v.75z"
            class="shadow"
            fill="#353535"
            opacity=".3"
          ></path>
          <circle
            cx="13.25"
            cy="37.75"
            r="1.5"
            class="secondary"
            fill="#FFDE00"
          ></circle>
          <circle
            cx="13.25"
            cy="37.75"
            r="1.25"
            class="shadow"
            fill="#353535"
            opacity=".3"
          ></circle>
          <circle
            cx="13.25"
            cy="37.75"
            r="1"
            class="secondary"
            fill="#FFDE00"
          ></circle>
          <path
            d="M17.5 37.75v2h-.25V40H19v-.25h-.25v-2h-.25v2h-.75v-2z"
            class="highlight"
            fill="#fefeff"
            opacity=".31"
          ></path>
          <path
            d="M18.75 37.75h.75V39h-.75zM23.75 37.75h.75V39h-.75z"
            class="shadow"
            fill="#353535"
            opacity=".3"
          ></path>
          <path
            d="M24.5 37.75v2h-.25V40H26v-.25h-.25v-2h-.25v2h-.75v-2z"
            class="highlight"
            fill="#fefeff"
            opacity=".31"
          ></path>
          <path
            d="M26.5 39h-.75v-1.25h.5V36.5h.25zM18.75 39h5.75v.25h-5.75zM25.75 39h4.75v.25h-4.75z"
            class="shadow"
            fill="#353535"
            opacity=".3"
          ></path>
          <path
            d="M18.75 39h5.75v.25h-5.75zM25.75 39h4.75v.25h-4.75zM14.25 39h3.25v.25h-3.25z"
            class="shadow"
            fill="#353535"
            opacity=".3"
          ></path>
          <path
            d="M14.5 37h11.75v.75H14.5zM26.5 36.5h.75V39h-.75z"
            class="highlight"
            fill="#fefeff"
            opacity=".31"
          ></path>
          <path
            d="M27.25 36.5h.25V39h-.25z"
            class="shadow"
            fill="#353535"
            opacity=".3"
          ></path>
          <path
            d="M27.25 36.5h.25V39h-.25zM26.25 36.5h.25V39h-.25z"
            class="shadow"
            fill="#353535"
            opacity=".3"
          ></path>
          <path
            d="M27.5 37h3.75v.75H27.5z"
            class="highlight"
            fill="#fefeff"
            opacity=".31"
          ></path>
          <path
            d="M14.5 36.75h11.75V37H14.5zM20.25 38.5h1v.25h-1zM22 38.5h1v.25h-1z"
            class="shadow"
            fill="#353535"
            opacity=".3"
          ></path>
          <path
            d="M20.25 38.5h1v.25h-1zM22 38.5h1v.25h-1zM27.75 38.5h1v.25h-1z"
            class="shadow"
            fill="#353535"
            opacity=".3"
          ></path>
          <path
            d="M27.75 38.5h1v.25h-1zM15.25 38.5h1v.25h-1z"
            class="shadow"
            fill="#353535"
            opacity=".3"
          ></path>
          <path
            d="M15.25 38.5h1v.25h-1z"
            class="shadow"
            fill="#353535"
            opacity=".3"
          ></path>
          <circle
            cx="19.25"
            cy="37.25"
            r=".25"
            class="secondary"
            fill="#FFDE00"
          ></circle>
          <circle
            cx="21.5"
            cy="37.25"
            r=".25"
            class="secondary"
            fill="#FFDE00"
          ></circle>
          <circle
            cx="23.75"
            cy="37.25"
            r=".25"
            class="secondary"
            fill="#FFDE00"
          ></circle>
          <circle
            cx="26"
            cy="37.25"
            r=".25"
            class="secondary"
            fill="#FFDE00"
          ></circle>
          <circle
            cx="19.25"
            cy="37.25"
            r=".25"
            class="shadow"
            fill="#353535"
            opacity=".3"
          ></circle>
          <circle
            cx="21.5"
            cy="37.25"
            r=".25"
            class="shadow"
            fill="#353535"
            opacity=".3"
          ></circle>
          <circle
            cx="23.75"
            cy="37.25"
            r=".25"
            class="shadow"
            fill="#353535"
            opacity=".3"
          ></circle>
          <circle
            cx="26"
            cy="37.25"
            r=".25"
            class="shadow"
            fill="#353535"
            opacity=".3"
          ></circle>
          <circle
            cx="16.875"
            cy="37.125"
            r=".875"
            class="secondary"
            fill="#FFDE00"
          ></circle>
          <circle
            cx="16.875"
            cy="37.125"
            r=".875"
            class="shadow"
            fill="#353535"
            opacity=".3"
          ></circle>
          <circle
            cx="16.875"
            cy="37.125"
            r=".625"
            class="secondary"
            fill="#FFDE00"
          ></circle>
        </g></svg>
