<svg xmlns="http://www.w3.org/2000/svg"
        class="css-9txd9r"
        focusable="false"
        viewBox="0 0 48 48"
        data-icon-name="SugarHarvesterWheeled"
      >
        px
        <path
          id="SugarHarvesterWheeled__outline"
          d="M47.357 36.507a2 2 0 0 0-1.213-1.151 2 2 0 0 0-.672-.94 2 2 0 0 0-.75-1.25 2 2 0 0 0-.474-.991 2 2 0 0 0-.854-1.565 2 2 0 0 0-.396-.685 2 2 0 0 0-.776-1.509 2 2 0 0 0-1.104-1.468l-.368-.666a2 2 0 0 0-1.114-.929 2 2 0 0 0-1.138-.354c-.301 0-.606.068-.893.212l-.182.091.082-.33.579-.753a2 2 0 0 0 .415-1.217l2.298-4.29 2.721 1.531a1.999 1.999 0 0 0 2.879-2.374l1.168-2.531q.046-.1.081-.206l.25-.75a2 2 0 0 0-1.003-2.421l-.931-.466-1.184-.711a2 2 0 0 0-.135-.074l-.5-.25-1-.5a2 2 0 0 0-.894-.211h-.925l-.442-.147a1.999 1.999 0 0 0-2.296.788l-2.5 3.75c-.159.238-.26.499-.307.767a2 2 0 0 0-.26-.089 2 2 0 0 0-.355-.482l-.25-.25A2 2 0 0 0 33.5 13.5h-.75a2 2 0 0 0-1.414.586l-.25.25a2 2 0 0 0-.318.414H24a2 2 0 0 0-1.776 1.079l-.365-.243a2 2 0 0 0-1.109-.336h-1.177a2 2 0 0 0-1.323-.5H16.5c-.507 0-.97.189-1.323.5H14v-2a2 2 0 0 0-.5-1.323V9.75c0-.468-.164-.921-.464-1.28l-1.25-1.5a2 2 0 0 0-1.536-.72H6c-.594 0-1.156.264-1.536.72l-1.25 1.5a2 2 0 0 0-.464 1.28v2.177a2 2 0 0 0-.5 1.323v2a2 2 0 0 0 .586 1.414l.136.136-.26.111c-.513.22-.911.644-1.097 1.17l-.259.13c-.387.193-.7.507-.894.894l-.25.499a2 2 0 0 0-.212.895v.75c0 .271.055.539.162.788l.75 1.751a2 2 0 0 0 1.353 1.153l.985.246v1.063a2 2 0 0 0 .297 1.048l.982 1.595-1.442 1.443a2 2 0 0 0-.443 2.157l.5 1.25c.173.432.491.79.899 1.013l1.467.8a2 2 0 0 0-.009.194v.75a2 2 0 0 0 2 2h3.888q.23.403.513.765c.202.487.59.876 1.076 1.08a6.45 6.45 0 0 0 4.023 1.405 6.45 6.45 0 0 0 3.82-1.25h7.643c.865.796 2.003 1.25 3.208 1.25s2.343-.454 3.208-1.25h11.121a2 2 0 0 0 1.857-2.743l-.5-1.25Z"
          class="outline"
          fill="#fff"
        ></path>
        <g id="SugarHarvesterWheeled__icon">
          <path
            d="M13.75 25h.5v-5.75h.5l-.75-1.5v-.5h2.5v-.5h1.75v.5h2.5l1.5 1V20l1.5 2.75v3.5h5.75v-1h2.75v6l1.5-2 .75 1.25 3.25-2.5-.25-.5 1-.5.25.5.25-.25 5.25 9.5.5 1 .75-.5.5 1.25H14.25l-.5-.5z"
            class="primary"
            fill="#367C2B"
          ></path>
          <path
            d="m21.25 36.5 1 1.25h2.5v.75h4.75v-2H24v.5h-2.25v-.5z"
            class="shadow"
            fill="#353535"
            opacity=".3"
          ></path>
          <path d="m34 26.25 1 .5.75-3z" class="neutral2" fill="#808082"></path>
          <path
            d="M4.75 11.25h6.75V12H11v.5l1 .75v2l-1 1V18l1 1.5v3h1.75v7L12.5 31v.25l.25.25V33l-.5.5h1.5v3H7.5v-.75h.25v-.5H7.5v-.75h.25L5 33l-.5-1.25 2.25-2.25h.5l-2-3.25v-3h-1.5L3 21.5 2.25 20l.5-.25.75 1.5.5 1.25h2.5v-3l1-1.5H5.25v-1.75l-1-1v-2l1-.75V12h-.5z"
            class="primary"
            fill="#367C2B"
          ></path>
          <path
            d="M4.75 11.25v-1.5L6 8.25h4.25l1.25 1.5v1.5z"
            class="neutral1"
            fill="#2b2b2b"
          ></path>
          <path
            d="M4.75 9.75h6.75v.75H4.75z"
            class="highlight"
            fill="#fefeff"
            opacity=".31"
          ></path>
          <path
            d="M5.25 12H11v.5H5.25z"
            class="shadow"
            fill="#353535"
            opacity=".3"
          ></path>
          <path
            d="m4.25 13.25 1 .5H11l1-.5V14l-1 .5v1.75h-.25V14.5H5.5v1.75h-.25V14.5l-1-.5z"
            class="highlight"
            fill="#fefeff"
            opacity=".31"
          ></path>
          <path
            d="M5.5 15.25h5.25v.5H5.5z"
            class="shadow"
            fill="#353535"
            opacity=".3"
          ></path>
          <path
            d="M7.5 12.75H8V18h-.5zM8.5 12.75H9V18h-.5zM8 18l-1 1.5v3h4.5v-3l-1-1.5z"
            class="neutral1"
            fill="#2b2b2b"
          ></path>
          <path
            d="M7 19.5h4.5l-.5-.75H7.5z"
            class="highlight"
            fill="#fefeff"
            opacity=".31"
          ></path>
          <path
            d="m2.75 19.75.5-.25.25-.75L5.25 18H7.5l-1 1.5v3H4l-.5-1.25zM11 18h1.5l.75.75.5.75v3H12v-3l-.5-.75z"
            class="neutral1"
            fill="#2b2b2b"
          ></path>
          <path
            d="M3.5 18.75H7l-.5.75H3.25zM11.5 18.75l.5.75h1.75l-.5-.75z"
            class="highlight"
            fill="#fefeff"
            opacity=".31"
          ></path>
          <path
            d="m7.5 18-1 1.5H7L8 18zM10.5 18h.5l1 1.5h-.5z"
            class="highlight"
            fill="#fefeff"
            opacity=".31"
          ></path>
          <path
            d="M2.595 19.786h.559v1.677h-.559z"
            class="highlight"
            transform="rotate(-26.565 2.875 20.624)"
            fill="#fefeff"
            opacity=".31"
          ></path>
          <path
            d="M5.25 17.25H11V18H5.25zM5.25 23.25h4.5v1.25h1.75v-1.25h2.25V25h-8.5z"
            class="shadow"
            fill="#353535"
            opacity=".3"
          ></path>
          <path
            d="M5.25 24.5h8.5v.5h-8.5z"
            class="neutral1"
            fill="#2b2b2b"
          ></path>
          <path
            d="M11.5 25v.25l1.75.5.5 2.25v-3z"
            class="shadow"
            fill="#353535"
            opacity=".3"
          ></path>
          <path
            d="M5.25 26.25V26h7l1.5 2v.25h-.25l-1.5-2z"
            class="highlight"
            fill="#fefeff"
            opacity=".31"
          ></path>
          <path
            d="m5.25 26.25 2 3.25 1.5 1.75h3.75V31l1.25-1.5v-1.25h-.25l-1.5-2z"
            class="shadow"
            fill="#353535"
            opacity=".3"
          ></path>
          <path
            d="M8 27.25h4.75l.75 1h.25v1.25H8.5z"
            class="shadow"
            fill="#353535"
            opacity=".3"
          ></path>
          <path
            d="M8 27.25h4.75l.75 1h.25v1.25H8.5z"
            class="shadow"
            fill="#353535"
            opacity=".3"
          ></path>
          <path
            d="M5.25 26.25h2.5l1 2.25h5v.5h-5l-.25.5H7.25z"
            class="neutral1"
            fill="#2b2b2b"
          ></path>
          <path
            d="m7.25 29.5 1.5 1.75h3.75V31l1.25-1.5L12 30.75H9z"
            class="shadow"
            fill="#353535"
            opacity=".3"
          ></path>
          <path
            d="m6.75 29.5 1.25 2v3h-.5v.75h2v.5h-2v.75h14.25v-.25H24v.25h11.25l-.25-.75H9.75V35h4v-1.5h-5.5v-2.25L7 29.5z"
            class="shadow"
            fill="#353535"
            opacity=".3"
          ></path>
          <path
            d="m6.75 29.5 1.25 2v3h-.5v.75h2v.5h-2v.75h14.25v-.25H24v.25h11.25l-.25-.75H9.75V35h4v-1.5h-5.5v-2.25L7 29.5z"
            class="shadow"
            fill="#353535"
            opacity=".3"
          ></path>
          <path
            d="m10 33.5-.75 1h4.5v-1h-2.5v-2.25h-.5v2.25z"
            class="neutral1"
            fill="#2b2b2b"
          ></path>
          <path
            d="m11.25 31.25 1 .5V33l-1 .5h1l.5-.5v-1.5l-.25-.25zM8.75 31.25l1.75 2.25h.25v-1h-.5L10 32h.75v-.25h-1l-.25-.5z"
            class="shadow"
            fill="#353535"
            opacity=".3"
          ></path>
          <path d="M7 31.5h.75v2H7z" class="neutral1" fill="#2b2b2b"></path>
          <path
            d="m14.5 17.75.75 1.25H16v-1.25z"
            class="highlight"
            fill="#fefeff"
            opacity=".31"
          ></path>
          <path
            d="M16 17.25h.5v7H16z"
            class="shadow"
            fill="#353535"
            opacity=".3"
          ></path>
          <path
            d="M15 20.25h1v-3h.5V22h1.75v-4.75h.5v3h2v-1l2.25 3-.25.25-1-.75v1.5l1.5 1v.25h-1.5v.5h1.5v1.25H21.5v-1.5h-6.25v-4z"
            class="shadow"
            fill="#353535"
            opacity=".3"
          ></path>
          <path
            d="M14.5 20.25h.5l.25.5v3.5h5.25V25h-6z"
            class="neutral1"
            fill="#2b2b2b"
          ></path>
          <path
            d="M17.5 23.75V20.5h1.25v3.25H19v-3.5h-.25v-3h2v3h-.25v3.5z"
            class="neutral2"
            fill="#808082"
          ></path>
          <path
            d="M17.5 20.5h1.25v3.25H17.5zM19 20.25h1.5v3.5H19zM18.75 18.75h2V19h-2z"
            class="shadow"
            fill="#353535"
            opacity=".3"
          ></path>
          <path
            d="M18.25 17.25v3.25h.5v3.25H19v-3.5h-.25v-3z"
            class="shadow"
            fill="#353535"
            opacity=".3"
          ></path>
          <path
            d="M14.25 19.25V25h.5v-.75h5.5V25h.5v-5.75zm6 4.5h-5.5v-1.5h5.5zm0-2h-5.5v-2h5.5z"
            class="primary"
            fill="#367C2B"
          ></path>
          <path
            d="M14.25 19.25V25h.5v-.75h5.5V25h.5v-5.75zm6 4.5h-5.5v-1.5h5.5zm0-2h-5.5v-2h5.5z"
            class="highlight"
            fill="#fefeff"
            opacity=".31"
          ></path>
          <path
            d="M22 26.75h1.25v1H22zM22 28.25h1.25v1.25H22zM22 30h1.25v1.25H22zM22 31.75h1.25v1H22z"
            class="neutral1"
            fill="#2b2b2b"
          ></path>
          <path
            d="M27.75 26.25 25 21.5v-3.25h3.25l.75.5h3.75v.75l-2.5 5.75h-.75v1z"
            class="window"
            fill="#bbe3f3"
          ></path>
          <path
            d="M27.75 26.25 25 21.5v-3.25h3.25l.75.5h2l-2.25 7.5h.5l2.25-7.5h1.25v.75l-2.5 5.75h.5l2-5v1h1v-2.5H35v-.5h-2l-1-.75h-8v8.75z"
            class="neutral1"
            fill="#2b2b2b"
          ></path>
          <path
            d="M24 17.5v-.75h11V17h-1.75v1H35v.25h-2l-1-.75z"
            class="primary"
            fill="#367C2B"
          ></path>
          <path
            d="M33.25 17H35v1h-1.75z"
            class="neutral1"
            fill="#2b2b2b"
          ></path>
          <path
            d="M33.75 17.25h1v.5h-1z"
            class="neutral3"
            fill="#f2f2f2"
          ></path>
          <path
            d="M32.5 16.25h1.25v.5H32.5z"
            class="neutral1"
            fill="#2b2b2b"
          ></path>
          <path
            d="M32.5 16.25v-.5l.25-.25h.75l.25.25v.5z"
            class="accent2"
            fill="#f5911e"
          ></path>
          <path
            d="M24 26.25h.5v7.25H24zM24.5 27.25h7.75v.5H24.5zM25.5 28h2.75v4.5H25.5zM29.75 28.75V29H28.5v-1h2.25v.75zM30.75 31.5l-2.25 1v-3h2.25z"
            class="shadow"
            fill="#353535"
            opacity=".3"
          ></path>
          <path
            d="M25.5 28h2.75v4.5H25.5zM29.75 28.75V29H28.5v-1h2.25v.75zM30.75 31.5l-2.25 1v-3h2.25z"
            class="shadow"
            fill="#353535"
            opacity=".3"
          ></path>
          <path
            d="M31 27.75h.25v4.5H31zM31.75 31.75l-.25.25v-4.25h.25z"
            class="neutral1"
            fill="#2b2b2b"
          ></path>
          <path
            d="M21.25 26.25v7H24v-7zm2.25 6.5h-1.75v-6h1.75z"
            class="highlight"
            fill="#fefeff"
            opacity=".31"
          ></path>
          <path
            d="M13.75 25.5H17v.5h-3.25z"
            class="shadow"
            fill="#353535"
            opacity=".3"
          ></path>
          <path
            d="M21 32v.5h-.25V35h-7v-4.5H17v-5h.5V33h.5v-7.5h.5v5h2V32z"
            class="shadow"
            fill="#353535"
            opacity=".3"
          ></path>
          <path
            d="M18.5 25.5H17v5h-3v3.75h4.25V33h-3.5v-1.5H17v1h1.5z"
            class="shadow"
            fill="#353535"
            opacity=".3"
          ></path>
          <path
            d="M18.5 25.5H17v5h-3v3.75h4.25V33h-3.5v-1.5H17v1h1.5z"
            class="shadow"
            fill="#353535"
            opacity=".3"
          ></path>
          <path
            d="M15.5 30.5h.5v1h-.5zM14.75 30.5h.5v1h-.5z"
            class="neutral1"
            fill="#2b2b2b"
          ></path>
          <path
            d="M18.75 30.75h1.75v.75H19V33h1.5v-1h.5v2.25h-2.5V33h.25z"
            class="shadow"
            fill="#353535"
            opacity=".3"
          ></path>
          <path
            d="M18.75 30.75h1.75v.75H19V33h1.5v-1h.5v2.25h-2.5V33h.25z"
            class="shadow"
            fill="#353535"
            opacity=".3"
          ></path>
          <path
            d="M17.5 25.5v7h-1.75V35h.5v-2h.5v2h.5v-2h3.5v2h.5v-9.5h-.5v5h-.25V32h.5v.5h-3v-7z"
            class="neutral1"
            fill="#2b2b2b"
          ></path>
          <path
            d="M18.5 28.25h2.25V30H18.5zM13.75 28.5H17v.5h-3.25z"
            class="highlight"
            fill="#fefeff"
            opacity=".31"
          ></path>
          <path
            d="M18.5 25.5h2.25v.5H18.5zM21.25 33.25h.5l.5.75h1.5l.25-.5h2.5v.75h2.75V34h2v1H24l-.25-.25H22l-.25.25h-.5z"
            class="shadow"
            fill="#353535"
            opacity=".3"
          ></path>
          <path
            d="M21.25 33.25h.25v1.25h1l.25-.5h1v.75H22l-.25.25h-.5zM24.75 34h1v1h-1zM26.5 34.25V35h4.75v-1h-2v.25z"
            class="shadow"
            fill="#353535"
            opacity=".3"
          ></path>
          <path
            d="M32 31.5V33h-1v1h1v1h2.25l.25-.25-2-2.5.75-.75 3.75 5h.25V35l-1.5-3-.5.25-.25-.5-.5-1.25-.75-1.25-1.5 2z"
            class="shadow"
            fill="#353535"
            opacity=".3"
          ></path>
          <path
            d="M32 31.5V33h.5v1H32v1h2.25l.25-.25-2-2.5z"
            class="shadow"
            fill="#353535"
            opacity=".3"
          ></path>
          <path
            d="M32 31.5V33h.5v1H32v1h2.25l.25-.25-2-2.5zM33.75 29.25l-1.5 2L33 31l.25.5.75 1 1-.75-.5-1.25z"
            class="shadow"
            fill="#353535"
            opacity=".3"
          ></path>
          <path
            d="m33.75 29.25-1.5 2L33 31l.25.5.75 1 1-.75-.5-1.25zM24.5 33.25h3.75l2.75-1h.25V33H31v.25h-.75v.25H24.5z"
            class="shadow"
            fill="#353535"
            opacity=".3"
          ></path>
          <path
            d="M24.5 33.25h3.75l2.75-1h.25V33H31v.25h-.75v.25H24.5z"
            class="shadow"
            fill="#353535"
            opacity=".3"
          ></path>
          <path
            d="M24.5 33.25h3.75l2.75-1h.25V33H31v.25h-.75v.25H24.5z"
            class="shadow"
            fill="#353535"
            opacity=".3"
          ></path>
          <path
            d="M29.25 33.5h1v.5h-1zM31.25 33v-1h.25l.25-.25.25-.25V33z"
            class="neutral2"
            fill="#808082"
          ></path>
          <path
            d="m35.75 32-.5.25-.25.25v1.25l.25.25.25-.25 1.25 1.5-.25.5.5.75h.25V35z"
            class="shadow"
            fill="#353535"
            opacity=".3"
          ></path>
          <path
            d="m35.75 32-.5.25-.25.25v1.25l.25.25.25-.25 1.25 1.5-.25.5.5.75h.25V35zM32.25 36.5v2h9.25l.75-.5h-5v-1.5H37l-1.25.75-.5-.75z"
            class="shadow"
            fill="#353535"
            opacity=".3"
          ></path>
          <path
            d="m42.25 38-.75.5h-5.25L37 38z"
            class="shadow"
            fill="#353535"
            opacity=".3"
          ></path>
          <path
            d="M37.25 36.5v-.25h1.25L40.25 38h-.5l-1.5-1.5z"
            class="highlight"
            fill="#fefeff"
            opacity=".31"
          ></path>
          <path
            d="M38 29.25 42.75 38h-.5l-6.5-6.75z"
            class="shadow"
            fill="#353535"
            opacity=".3"
          ></path>
          <path
            d="m38 29.25-2.25 2 6.5 6.75h.5zm.25 2.5L37 30.25l.5-.5 1.25 1.75zm3.5 5L39.5 34.5l-.25-1.5.75.25 2 3.5z"
            class="shadow"
            fill="#353535"
            opacity=".3"
          ></path>
          <path
            d="m37.75 28 1-.5.25-.25.5 1-1.5 1-.5-1z"
            class="highlight"
            fill="#fefeff"
            opacity=".31"
          ></path>
          <path
            d="m38.25 29.75 2-1v.75l-2 1z"
            class="primary"
            fill="#367C2B"
          ></path>
          <path
            d="m38.25 29.75 2-1v.75l-2 1z"
            class="highlight"
            fill="#fefeff"
            opacity=".31"
          ></path>
          <path d="m39 31 2-1v.75l-2 1z" class="primary" fill="#367C2B"></path>
          <path
            d="m39 31 2-1v.75l-2 1z"
            class="highlight"
            fill="#fefeff"
            opacity=".31"
          ></path>
          <path
            d="m39.5 32.25 2-1V32l-2 1z"
            class="primary"
            fill="#367C2B"
          ></path>
          <path
            d="m39.5 32.25 2-1V32l-2 1z"
            class="highlight"
            fill="#fefeff"
            opacity=".31"
          ></path>
          <path
            d="m40.25 33.25 2-1V33l-2 1z"
            class="primary"
            fill="#367C2B"
          ></path>
          <path
            d="m40.25 33.25 2-1V33l-2 1z"
            class="highlight"
            fill="#fefeff"
            opacity=".31"
          ></path>
          <path
            d="m40.75 34.5 2-1v.75l-2 1z"
            class="primary"
            fill="#367C2B"
          ></path>
          <path
            d="m40.75 34.5 2-1v.75l-2 1z"
            class="highlight"
            fill="#fefeff"
            opacity=".31"
          ></path>
          <path
            d="m41.5 35.75 2-1v.75l-2 1z"
            class="primary"
            fill="#367C2B"
          ></path>
          <path
            d="m41.5 35.75 2-1v.75l-2 1z"
            class="highlight"
            fill="#fefeff"
            opacity=".31"
          ></path>
          <path
            d="m42.25 37 2-1v.75l-2 1z"
            class="primary"
            fill="#367C2B"
          ></path>
          <path
            d="m42.25 37 2-1v.75l-2 1z"
            class="highlight"
            fill="#fefeff"
            opacity=".31"
          ></path>
          <path
            d="m44.75 37.75-2 .25 1.5-1.25z"
            class="shadow"
            fill="#353535"
            opacity=".3"
          ></path>
          <path
            d="m44.75 37.75-2 .25 1.5-1.25z"
            class="shadow"
            fill="#353535"
            opacity=".3"
          ></path>
          <path d="M6.5 11.75H10v1H6.5z" class="primary" fill="#367C2B"></path>
          <path
            d="M6.5 11.75H10v1H6.5z"
            class="highlight"
            fill="#fefeff"
            opacity=".31"
          ></path>
          <path
            d="m2.25 20-.25.499v.75L2.75 23l1 .25L3 21.5z"
            class="neutral1"
            fill="#2b2b2b"
          ></path>
          <path
            d="M35.095 31.595h.559v.559h-.559z"
            class="neutral2"
            transform="rotate(-26.565 35.375 31.874)"
            fill="#808082"
          ></path>
          <circle
            cx="33.875"
            cy="33.125"
            r=".375"
            class="shadow"
            fill="#353535"
            opacity=".3"
          ></circle>
          <circle
            cx="37.875"
            cy="37.375"
            r=".375"
            class="shadow"
            fill="#353535"
            opacity=".3"
          ></circle>
          <circle
            cx="25"
            cy="28.25"
            r=".25"
            class="shadow"
            fill="#353535"
            opacity=".3"
          ></circle>
          <circle
            cx="25"
            cy="30.5"
            r=".25"
            class="shadow"
            fill="#353535"
            opacity=".3"
          ></circle>
          <circle
            cx="25"
            cy="32.5"
            r=".25"
            class="shadow"
            fill="#353535"
            opacity=".3"
          ></circle>
          <circle
            cx="30.25"
            cy="29"
            r=".25"
            class="shadow"
            fill="#353535"
            opacity=".3"
          ></circle>
          <circle
            cx="16.5"
            cy="28"
            r=".25"
            class="neutral1"
            fill="#2b2b2b"
          ></circle>
          <circle
            cx="11.75"
            cy="32.25"
            r=".25"
            class="neutral2"
            fill="#808082"
          ></circle>
          <circle
            cx="7.25"
            cy="31"
            r=".25"
            class="neutral2"
            fill="#808082"
          ></circle>
          <circle
            cx="6.25"
            cy="32.75"
            r=".25"
            class="neutral2"
            fill="#808082"
          ></circle>
          <circle
            cx="21.5"
            cy="18.25"
            r=".25"
            class="neutral1"
            fill="#2b2b2b"
          ></circle>
          <path
            d="M28.5 20.75v.5h-2.25v-.75H24.5v5.75H29V25h2v.25h.5v-4.5zm-2.25 1h2v1.75h-2zM25 21h.75v2.5H25zm3.5 4.75H25V24h3.5zM31 24.5h-2v-1.75h2zm0-2.25h-2v-1h2z"
            class="primary"
            fill="#367C2B"
          ></path>
          <path
            d="M28.5 20.75v.5h-2.25v-.75H24.5v5.75H29V25h2v.25h.5v-4.5zm-2.25 1h2v1.75h-2zM25 21h.75v2.5H25zm3.5 4.75H25V24h3.5zM31 24.5h-2v-1.75h2zm0-2.25h-2v-1h2z"
            class="highlight"
            fill="#fefeff"
            opacity=".31"
          ></path>
          <path
            d="m32.25 25.25 2-3.25.5.25L33 25.5l6.5-11V14l1.5-2.25h1.25l1 .5-.5 1h-.25L41 16l-.75-.5-3.75 7v.5L34 26.25l1 .5-1.25 2.5-1.5 2z"
            class="primary"
            fill="#367C2B"
          ></path>
          <path
            d="m32.25 25.25 2-3.25.5.25L33 25.5l-.25.5-.25 1.75h-.25zM34 26.25l-1.75 2.5v2.5l1.5-2 1.25-2.5z"
            class="shadow"
            fill="#353535"
            opacity=".3"
          ></path>
          <path
            d="m34 26.25-1.75 2.5v2.5l1.5-2 1.25-2.5z"
            class="shadow"
            fill="#353535"
            opacity=".3"
          ></path>
          <path
            d="m32.75 26 3-4.25 4-6.75.25.25-4 7L35 24l-2.5 3.75z"
            class="stripe"
            fill="#FFDE00"
          ></path>
          <path
            d="m40.25 15.5 2-3.75 1 .5-.5 1h-.25L41 16z"
            class="shadow"
            fill="#353535"
            opacity=".3"
          ></path>
          <path
            d="m42.75 13.25-1.5 3 .5.25 2-4-.5-.25z"
            class="neutral1"
            fill="#2b2b2b"
          ></path>
          <path
            d="m44.25 17.75-.5-.25L43 17l-1.25-.5 2-4 1.25.75 1 .5-.25.75z"
            class="primary"
            fill="#367C2B"
          ></path>
          <path
            d="M41.25 16.25h-.75l4 2.25-.25-.75-.5-.25L43 17l-1.25-.5z"
            class="neutral2"
            fill="#808082"
          ></path>
          <path
            d="M45 13.25 43 17l.75.5L46 13.75z"
            class="highlight"
            fill="#fefeff"
            opacity=".31"
          ></path>
          <path
            d="M34.25 22 38 15.5l.5.25-3.75 6.5z"
            class="neutral2"
            fill="#808082"
          ></path>
          <path
            d="m38.5 15.75-.5-.25-.25-.25 2.5-3.75.75.25L39.5 14v.5l-.75 1.25z"
            class="neutral1"
            fill="#2b2b2b"
          ></path>
          <circle
            cx="17"
            cy="35.25"
            r="4.5"
            class="neutral1"
            fill="#2b2b2b"
          ></circle>
          <circle
            cx="17"
            cy="35.25"
            r="2.368"
            class="secondary"
            fill="#FFDE00"
          ></circle>
          <circle
            cx="17"
            cy="35.25"
            r="1.895"
            class="shadow"
            fill="#353535"
            opacity=".3"
          ></circle>
          <circle
            cx="17"
            cy="35.25"
            r="1.184"
            class="secondary"
            fill="#FFDE00"
          ></circle>
          <circle
            cx="31.671"
            cy="37"
            r="2.75"
            class="neutral1"
            fill="#2b2b2b"
          ></circle>
          <circle
            cx="31.671"
            cy="37"
            r="1.447"
            class="secondary"
            fill="#FFDE00"
          ></circle>
          <circle
            cx="31.671"
            cy="37"
            r="1.158"
            class="shadow"
            fill="#353535"
            opacity=".3"
          ></circle>
          <circle
            cx="31.671"
            cy="37"
            r=".724"
            class="secondary"
            fill="#FFDE00"
          ></circle>
          <path
            d="M34.25 35.75H9.75V35h24.5l1.25-.5v.75z"
            class="primary"
            fill="#367C2B"
          ></path>
          <path
            d="M35.5 34.5v.25l-1.25.5H9.75V35h24.5z"
            class="highlight"
            fill="#fefeff"
            opacity=".31"
          ></path>
          <path
            d="M24.75 36.5h3.75v2h-3.75z"
            class="neutral1"
            fill="#2b2b2b"
          ></path>
          <path
            d="M25.75 35.75h.75v.75h-.75z"
            class="primary"
            fill="#367C2B"
          ></path>
          <path
            d="M25.75 35.75h.75v.75h-.75z"
            class="shadow"
            fill="#353535"
            opacity=".3"
          ></path>
        </g></svg>
