<svg xmlns="http://www.w3.org/2000/svg"
        class="css-9txd9r"
        focusable="false"
        viewBox="0 0 32 32"
        data-icon-name="SurfaceMiner"
      >
        <path
          id="SurfaceMiner__outline"
          d="M31.4 17.4q.3-.3.3-.6l.3-2.3c0-.3 0-.5-.2-.7-.1-.1-.3-.2-.5-.3l.1-.8c.2-.1.4-.3.4-.6l.2-.8c.1-.3 0-.6-.2-.8s-.5-.4-.7-.4h-3.6c-.2 0-.3 0-.5.1-.2-.1-.4-.1-.6-.1h-6.7c-.2 0-.5-.1-.7-.1h-.5L8.3 8.5v-.8c0-.5-.4-.9-.9-.9h-1c-.5 0-.9.4-.9.9v.6L4.3 6c-.1-.2-.2-.4-.5-.5-.1 0-.2-.1-.3-.1s-.3 0-.4.1L.5 6.7C.1 7-.1 7.5.1 8l5.3 11.8v1.1c0 .4.3.8.7.9h.2l.2.5c.1.2.2.3.3.4l2 1.4c.2.1.4.2.5.2h.3l.5-.2.5.6c-.6.4-1 1.1-1 1.9v.1c0 .7.2 1.2.7 1.6.4.4 1 .7 1.6.7h3.8c.7 0 1.2-.2 1.6-.7.4-.4.7-1 .7-1.6v-.2h1.8l.4.3c0 .5.4.9.9.9h2.4c.1.2.3.5.5.7.4.4 1 .7 1.6.7h3.8c1.3 0 2.3-1 2.3-2.3v-.1c0-.7-.2-1.2-.7-1.6l-.3-.3.7-.9c.1-.2.2-.4.2-.7l-.5-3.2v-2.2zM20 22.6q-.15 0 0 0"
          class="outline"
          fill="#FFFFFF"
        ></path>
        <g id="SurfaceMiner__main_shape">
          <path
            d="M15.5 25.9h-3.9c-.5 0-.9.4-.9.9v.1c0 .2.1.5.3.6q.3.3.6.3h3.9c.2 0 .5-.1.6-.3q.3-.3.3-.6v-.1c0-.5-.4-.9-.9-.9"
            class="quinary"
            fill="gray"
          ></path>
          <path
            d="M15.5 25.9h-3.9c-.5 0-.9.4-.9.9v.1c0 .2.1.5.3.6q.3.3.6.3h3.9c.2 0 .5-.1.6-.3q.3-.3.3-.6v-.1c0-.5-.4-.9-.9-.9"
            class="shadow"
            opacity=".3"
            fill="#333"
          ></path>
          <path
            d="M15.6 25.4h-3.9c-.8 0-1.4.6-1.4 1.4v.1c0 .4.1.7.4 1s.6.4 1 .4h3.9c.4 0 .7-.1 1-.4s.4-.6.4-1v-.1c-.1-.8-.7-1.4-1.4-1.4m.8 1.5c0 .2-.1.5-.3.6q-.3.3-.6.3h-3.9c-.2 0-.5-.1-.6-.3q-.3-.3-.3-.6v-.1c0-.5.4-.9.9-.9h3.9c.5 0 .9.4.9 1"
            class="quaternary"
            fill="#ffde00"
          ></path>
          <path
            d="M15.6 26.4H12c-.1-.1-.2-.1-.4-.1-.3 0-.6.3-.6.6s.3.6.6.6c.1 0 .2 0 .3-.1h3.6c.2 0 .4-.2.4-.4.1-.4-.1-.6-.3-.6"
            class="highlight"
            opacity=".3"
            fill="#fff"
          ></path>
          <path
            d="M21 26.4s-9.3-6.7-10-7.3c-.5-.4.2-1.3.7-1.2s10.1 7.3 10.1 7.3z"
            class="senary"
            fill="#333"
          ></path>
          <path
            d="M27.3 15h-.2v-3.7c-.1-.3-.2-.3-.3-.3h-6.7c-.1 0-.3 0-.4.3-.1.1 0 .4 0 .6v3.2h-1.4l-.9.4h-9V18h1.3l-.8 2.2.7 1.6 1.5-3.9h.7v2.2h-.9l-.3 3.3 1.5 1.9c.2.2.4.4.6.4h.2c.1 0 .3-.1.3-.6l.3-1.9h.2l1.9-.6c.2.2.7.6 1.2 1 .4.3.8.7.8.7.1.1.3.2.5.2l.2 1.2h3v1.2h4.9l1.4-5c-.2-.1-.3-6.9-.3-6.9m-8.7 8.8c0-.2 0-.3-.2-.5l-2.9-2-1.8.7-1.8-.2v-1h1.3V18h.3l.7 1 4.2.8 1.1 2H21v2zm8.3-8.8h-6.7v-1h6.7z"
            class="quinary"
            fill="gray"
          ></path>
          <path
            d="M17.9 24.2c-.1 0-.3-.1-.3-.2l-2-1.7-2 .7-1.6-.1v-.7l1.8.2 1.7-.7 2.7 1.8c.1.1.1.2.1.3s-.1.2-.2.3-.1.1-.2.1M10.1 18l-.8 2.1.3.6 1-2.8z"
            class="primary"
            fill="#FFFFFF"
          ></path>
          <path
            d="M18.5 10.8 7.2 9.1v.6l10.5 1.7v3.4h1.4v-4z"
            class="senary"
            fill="#333"
          ></path>
          <path
            d="M4.6 9.5h1.2V9H4.4L3.1 6.1.5 7.3 7.1 22l2 1.5.9-.3v-1.4z"
            class="quinary"
            fill="gray"
          ></path>
          <path
            d="m8.4 19.2.7 1.5-1.4.7zM7.1 16l1.2 2.8-1.2-.4zM5.2 12.1l1.4 3-2.1-1zM3.8 8.8l1.4 3-2.3-1zM2.8 6.6l.8 1.6-2.1-.9zM1.2 7.8l2.1.9-.9 1.9zM2.7 11.3l2.1.9L4 14zM4.3 14.7v-.1l2.1 1-.9 2zM8 19.2l-.8 2-1.3-2.8zM20.2 12.7h3.1v.7h-3.1zM20.2 11.6h3.1v.6h-3.1zM23.8 12.7h3.1v.7h-3.1zM26.9 12.2h-3.1v-.6h3.1zM12.5 25.3c-.1 0-.2 0-.3-.2l-1.4-1.8.3-2.8h.3v2.7h1.4l-.2 1.9s0 .2-.1.2M12.1 18.3h.5v2.2h-.5z"
            class="primary"
            fill="#FFFFFF"
          ></path>
          <path
            d="M26.9 21.5h-7.3l-1-2v-.1l-4.2-.8-.8-1.1H8.8v-1.7h8.7l.9-.4h8.5z"
            class="primary"
            fill="#FFFFFF"
          ></path>
          <path
            d="M9.1 16.1h8.8v.6H9.1z"
            class="secondary"
            fill="#FB5A02"
          ></path>
          <path d="M18.2 15.4h.3v4.1h-.3z" class="quinary" fill="gray"></path>
          <path
            d="M26.3 16.7h-7.5v-.6h7.9z"
            class="secondary"
            fill="#FB5A02"
          ></path>
          <path
            d="M19.3 16.7h1.8v3.5h-1.8zM21.7 16.7h1.8v3.5h-1.8zM24.2 16.7H26v3.5h-1.8z"
            class="shadow"
            opacity=".3"
            fill="#333"
          ></path>
          <path
            d="m9.6 20.7-.3-.6.8-2.1h.5z"
            class="primary"
            fill="#FFFFFF"
          ></path>
          <path
            d="M29.7 25.9h-3.9c-.5 0-.9.4-.9.9v.1c0 .2.1.5.3.6q.3.3.6.3h3.9c.5 0 .9-.4.9-.9v-.1c0-.2-.1-.5-.3-.6-.2-.2-.3-.3-.6-.3"
            class="quinary"
            fill="gray"
          ></path>
          <path
            d="M29.7 25.9h-3.9c-.5 0-.9.4-.9.9v.1c0 .2.1.5.3.6q.3.3.6.3h3.9c.5 0 .9-.4.9-.9v-.1c0-.2-.1-.5-.3-.6-.2-.2-.3-.3-.6-.3"
            class="shadow"
            opacity=".3"
            fill="#333"
          ></path>
          <path
            d="M30.6 25.8c-.3-.3-.6-.4-1-.4h-3.9c-.8 0-1.4.6-1.4 1.4v.1c0 .4.1.7.4 1s.6.4 1 .4h3.9c.8 0 1.4-.6 1.4-1.4v-.1c0-.4-.1-.7-.4-1m-.1 1.1c0 .5-.4.9-.9.9h-3.9c-.2 0-.5-.1-.6-.3q-.3-.3-.3-.6v-.1c0-.5.4-.9.9-.9h3.9c.2 0 .5.1.6.3.2.2.3.4.3.7"
            class="quaternary"
            fill="#ffde00"
          ></path>
          <path
            d="M29.7 26.4h-3.6c-.1-.1-.2-.1-.4-.1-.3 0-.6.3-.6.6s.3.6.6.6c.1 0 .2 0 .3-.1h3.6c.2 0 .4-.2.4-.4.1-.4-.1-.6-.3-.6"
            class="highlight"
            opacity=".3"
            fill="#fff"
          ></path>
          <path
            d="m30.5 23.4-.3-2.8h-.4v2.2h-1.5l.2 2.4c0 .1 0 .2.1.2s.2 0 .3-.2z"
            class="st0"
          ></path>
          <path
            d="m31.2 16.7.3-2.3h-.7l-2.9 1.2V20l1.5-1.6v1.7h-.1v1H29l-.5-.2-.9-.5-2.4 2s-.2.4-.1.6c0 .2.5.5.6.5s.5-.2.6-.3l.7-.7.9-.9.9.5.8.1v.1H28l.2 2.9c0 .4.3.6.4.6h.2c.2 0 .5-.1.6-.4l1.5-2-.4-3.3v-2.8zM29 25.2c-.1.1-.3.2-.3.2-.1 0-.1-.1-.1-.2l-.2-2.4h1.4v-2.2h.4l.3 2.8c-.1 0-1.5 1.8-1.5 1.8"
            class="quinary"
            fill="gray"
          ></path>
          <path
            d="m30.7 16.5-2.4 2.3v-3l2.5-1h.1z"
            class="primary"
            fill="#FFFFFF"
          ></path>
          <path
            d="M28.3 11.5v4.1h1.8l.4-4.1z"
            class="primary"
            fill="#FFFFFF"
          ></path>
          <path
            d="M27.8 11v4.9h2.7l.4-4.2h.4l.2-.8c0 .1-3.7.1-3.7.1m.5 4.6v-4.1h2.2l-.4 4.1z"
            class="quinary"
            fill="gray"
          ></path>
          <path
            d="M30.4 17.4v2.7h-.9v-1.7z"
            class="shadow"
            opacity=".3"
            fill="#333"
          ></path>
          <path
            d="M26.6 22.3c-.3.3-.6.7-.7.7-.1.1-.2.2-.3.2h-.2c-.1 0-.1-.1-.1-.2v-.3l2.3-1.8.9.5.4.2h.2v.4h-.3l-1.2-.7-.1.1c-.1 0-.5.4-.9.9"
            class="primary"
            fill="#FFFFFF"
          ></path>
          <path
            d="M7.5 11.7V11h-.4V7.4H6V11h-.3v3.5H6V21l2.3.5c1 0 .4-.6-.2-.9-.4-.1-.8-.3-1.1-.4v-5.7h.4v-.7h11.9v-2.2zM19 13.5l-11.7-.1h-.2v-1.3h12z"
            class="quinary"
            fill="gray"
          ></path>
          <path
            d="M7.1 12.2v-.7h-1v2.7h1v-.8l11.9.1v-1.3z"
            class="primary"
            fill="#FFFFFF"
          ></path>
        </g></svg>
