<svg xmlns="http://www.w3.org/2000/svg"
        class="css-9txd9r"
        focusable="false"
        viewBox="0 0 48 48"
        data-icon-name="SwingMachine"
      >
        <path
          id="SwingMachine__outline"
          d="M48 23c0-.644-.305-1.217-.778-1.583a2 2 0 0 0-.472-.99V20c0-.63-.296-1.222-.8-1.6l-.622-.467-.039-.078a2 2 0 0 0-1.789-1.106h-1a2 2 0 0 0-1.18.385l-3.21-8.12a2 2 0 0 0-1.072-1.103l-5.25-2.25a2 2 0 0 0-1.273-.102l-1 .25c-.34.085-.652.258-.904.501l-7.25 7q-.165.16-.29.352l-.38.586H16.5a2 2 0 0 0-2 2v1.75c0 .74.402 1.387 1 1.732v.268a2 2 0 0 0-1.89 1.345 2 2 0 0 0-.61-.095H7.437a2 2 0 0 0-.522-.914l-.5-.5a2 2 0 0 0-1.414-.586h-1c-.643 0-1.247.309-1.622.831s-.478 1.192-.275 1.802l.053.16q-.135.179-.229.385a2 2 0 0 0-.286.158l-.75.5A2 2 0 0 0 0 24.748v5.75a2 2 0 0 0 1.922 1.998 5 5 0 0 0-.672 2.502c0 2.757 2.243 5 5 5h22.5c2.757 0 5-2.243 5-5s-2.243-5-5-5h-.608l-1.892-.27v-1.032l.211-1.056.01-.056 1.355-7.939.523-.697.042-.058.058-.042 4-3a2 2 0 0 0 .511-.563l.222.15.349 1.921q.051.28.179.537l.186.373.955 2.865c.088.263.224.495.397.691l.601 1.802q-.061.185-.085.379a2 2 0 0 0-.265.996v.25c0 .362.099.718.285 1.029l1.5 2.5a2 2 0 0 0 2.609.76l.5-.25c.236-.118.44-.277.606-.466v1.927a2 2 0 0 0 2 2h.5c.265 0 .518-.052.75-.145.232.094.485.145.75.145h.5a2 2 0 0 0 2-2v-3.781c.159-.287.25-.618.25-.969v-1.031c.159-.287.25-.618.25-.969v-1Z"
          class="outline"
          fill="#fff"
        ></path>
        <g id="SwingMachine__icon">
          <path
            d="M17 30h-3v1l-7 1h21l-7-1v-1h-4M3.75 35a2.5 2.5 0 0 0 2.5 2.5h22.5a2.5 2.5 0 1 0 0-5H6.25a2.5 2.5 0 0 0-2.5 2.5M9 34.5h16V34h4v2h-4v-.5H9zM8 35a1.5 1.5 0 1 1-3.001-.001A1.5 1.5 0 0 1 8 35"
            class="neutral1"
            fill="#2b2b2b"
          ></path>
          <path
            d="M6.25 32c-1.654 0-3 1.346-3 3s1.346 3 3 3h22.5c1.654 0 3-1.346 3-3s-1.346-3-3-3zm22.5.5a2.5 2.5 0 1 1 0 5H6.25a2.5 2.5 0 1 1 0-5z"
            class="neutral2"
            fill="#808082"
          ></path>
          <circle
            cx="6.5"
            cy="35"
            r="1.5"
            class="neutral2"
            fill="#808082"
          ></circle>
          <path
            d="M25 36h4v-2h-4v.5H9v1h16z"
            class="neutral2"
            fill="#808082"
          ></path>
          <path
            d="M25 35.5h4v.5h-4zM6.5 36.5A1.5 1.5 0 0 0 8 35H5a1.5 1.5 0 0 0 1.5 1.5"
            class="shadow"
            fill="#353535"
            opacity=".3"
          ></path>
          <path d="M43.75 20.5h1v2h-1z" class="neutral2" fill="#808082"></path>
          <path
            d="M44.75 22.5v.5h.5v-1.25H45l-.25-.25zM43.75 22.5v.5h-.5v-1.25h.25l.25-.25z"
            class="neutral1"
            fill="#2b2b2b"
          ></path>
          <path d="M42.5 23H46v1h-3.5z" class="neutral2" fill="#808082"></path>
          <path
            d="M43.5 24H45v1h-1.5zM43.25 26h2l.25 1v3.75H45v-3h-1.5v3H43V27z"
            class="neutral1"
            fill="#2b2b2b"
          ></path>
          <path d="M42.75 25h3v1h-3z" class="neutral2" fill="#808082"></path>
          <path
            d="M24.25 28.5H17.5V17h8.75L24.5 27.25z"
            class="primary"
            fill="#F2A900"
          ></path>
          <path
            d="M24.25 28.5h-6v-1.25h6.25z"
            class="shadow"
            fill="#353535"
            opacity=".3"
          ></path>
          <path
            d="m17.5 24-3.375 4.125 3.375.375zM16.5 16.25h9.75V17H16.5z"
            class="primary"
            fill="#F2A900"
          ></path>
          <path
            d="M6 23.25H4.25l.25-.5h1.25zM4.75 21.25H4l.25.75h.5v.75h.75v-1l-.5-.5zM18 17.5h2v3.75h-2zM24.75 22.5h-4.5v-5h5.25z"
            class="neutral1"
            fill="#2b2b2b"
          ></path>
          <path
            d="M18.25 17.75h1.5V21h-1.5zM24.5 22.25h-4v-4.5h4.75z"
            class="window"
            fill="#bbe3f3"
          ></path>
          <path
            d="M18.25 30H2v-5.25l.75-.5h13.5l2 2z"
            class="primary"
            fill="#F2A900"
          ></path>
          <path
            d="M2 30h12.75v.5H2zM18.25 28.5h6v2h-6z"
            class="neutral1"
            fill="#2b2b2b"
          ></path>
          <path
            d="M4.25 28.5H17v.75H4.25z"
            class="stripe"
            fill="#808082"
          ></path>
          <path
            d="M3.75 23.25H13v1H3.75z"
            class="neutral1"
            fill="#2b2b2b"
          ></path>
          <path
            d="M4.25 23.5h8.25v.5H4.25z"
            class="neutral2"
            fill="#808082"
          ></path>
          <path
            d="M5.75 23.5h.75v.5h-.75zM8 23.5h.75v.5H8zM10.25 23.5H11v.5h-.75z"
            class="neutral1"
            fill="#2b2b2b"
          ></path>
          <path
            d="M2 29.5h16.25v.5H2zM4.75 26h4.5v2h-4.5zM9.5 26h3.25v2H9.5z"
            class="shadow"
            fill="#353535"
            opacity=".3"
          ></path>
          <path
            d="M2 25.75h12.75l1.5-1.5H2.75l-.75.5z"
            class="highlight"
            fill="#fefeff"
            opacity=".31"
          ></path>
          <path
            d="M3.75 24.25h.5v5.25h-.5zM14.75 25.75l1.5-1.5 2 2-1 1.75zM18.25 26.25l-1 1.75 1 2z"
            class="shadow"
            fill="#353535"
            opacity=".3"
          ></path>
          <path
            d="m18.25 26.25-1 1.75 1 2zM16.5 16.75h9.75V17H16.5z"
            class="shadow"
            fill="#353535"
            opacity=".3"
          ></path>
          <path d="M16.5 17h1v1h-1z" class="neutral1" fill="#2b2b2b"></path>
          <circle
            cx="17"
            cy="17.5"
            r=".25"
            class="neutral3"
            fill="#f2f2f2"
          ></circle>
          <path
            d="M5 24.5h2.75v1H5zM8.25 24.5h2.5v1h-2.5zM12 24.5h2.5v1H12z"
            class="neutral1"
            fill="#2b2b2b"
          ></path>
          <path
            d="M23.073 19.596h3.354v.559h-3.354z"
            class="neutral2"
            transform="rotate(-63.435 24.75 19.875)"
            fill="#808082"
          ></path>
          <path
            d="M30.918 11.948h1.414v.354h-1.414z"
            class="neutral2"
            transform="rotate(-45 31.625 12.125)"
            fill="#808082"
          ></path>
          <path
            d="m21.5 28.5 3-7.25-.75-.5-3.25 7.75z"
            class="neutral1"
            fill="#2b2b2b"
          ></path>
          <path
            d="M24.25 28.5V22l-1 .75-.75.5v5.25z"
            class="neutral2"
            fill="#808082"
          ></path>
          <path
            d="m24.25 22-1 .75v5.75h1z"
            class="shadow"
            fill="#353535"
            opacity=".3"
          ></path>
          <path
            d="M36.75 20 38 23.75l.5-.25-1.25-3.5z"
            class="neutral2"
            fill="#808082"
          ></path>
          <path
            d="m27.25 16.75 4.25-4-.5-.5-4.25 4z"
            class="neutral1"
            fill="#2b2b2b"
          ></path>
          <path
            d="m26.25 15.25.5-.25 1 1.75-.5.25zM26.875 13.625l.5-.25 1.5 2.5-.5.25zM27.875 12.625l.5-.25 1.5 2.75-.5.25zM28.875 11l.5-.25L31 14.25l-.5.25z"
            class="neutral1"
            fill="#2b2b2b"
          ></path>
          <path
            d="m26.75 16.5 3.75-3.25.75 1-4 3z"
            class="neutral1"
            fill="#2b2b2b"
          ></path>
          <path
            d="m43.75 19.25-.25-.5h-1l-.25.5-1.75 1.25-4.25-10.75L31 7.5l-1 .25-7.25 7-1.375 2.125L16.25 28.5h2l6.25-10 1.5.25.75-1-.25-.5.75-.5-.75-1.25 2.5-3.75 2-3 .75 1.5v1.25l.199.691L35 14.25l.5 2.75.25.5 1 3 .75-.25-1-2.75.5-.25L39.75 21l-.25 2-1 .5-.5.25-.25.5V25h-.25v.25l1.5 2.5.5-.25-.256-.782.506-1.468 1 1 .5-.25L40 24.25l3-4 1 .5h.5l.25-.25V20z"
            class="neutral1"
            fill="#2b2b2b"
          ></path>
          <path
            d="M37.75 25H39l.5-2-.75 1.75zM26 16.5l-.5-.5-1-.25 1-.25 1 .5zM24.25 18l-.5-.5-.25-1-.25 1 .5 1z"
            class="highlight"
            fill="#fefeff"
            opacity=".31"
          ></path>
          <path
            d="M15.5 22h.5v2.25h-.5zM21 26l-.5.25v2.25h.5zM17.25 22H16v.5h1z"
            class="neutral2"
            fill="#808082"
          ></path>
          <path
            d="m17 22.5.25-.5L21 26l-.5.25z"
            class="neutral2"
            fill="#808082"
          ></path>
          <circle
            cx="32.481"
            cy="11.503"
            r=".25"
            class="neutral2"
            fill="#808082"
          ></circle>
          <circle
            cx="36"
            cy="16.75"
            r=".25"
            class="neutral2"
            fill="#808082"
          ></circle>
          <circle
            cx="40.5"
            cy="21.25"
            r=".25"
            class="neutral2"
            fill="#808082"
          ></circle>
          <circle
            cx="38.35"
            cy="24.22"
            r=".25"
            class="neutral2"
            fill="#808082"
          ></circle>
          <circle
            cx="44.25"
            cy="20.25"
            r=".25"
            class="neutral2"
            fill="#808082"
          ></circle>
          <circle
            cx="25.75"
            cy="17.75"
            r=".25"
            class="neutral2"
            fill="#808082"
          ></circle>
        </g></svg>
