<svg xmlns="http://www.w3.org/2000/svg"
        class="css-9txd9r"
        focusable="false"
        viewBox="0 0 32 32"
        data-icon-name="TandemRoller"
      >
        <path
          d="M27 26.2c-1.4 0-2.7-.6-3.6-1.7h-2.9l-1.3-.5h-4.1c-.3 0-.7-.2-.9-.4l-.2-.3-1.3.1v.2c0 .5-.5.9-1 .9L9 24.4h-.2c-.9 1.1-2.2 1.8-3.7 1.8-2.6 0-4.7-2.1-4.7-4.7 0-.6.1-1.3.4-1.9-.3-.2-.4-.6-.5-1V18c0-.6.3-1.1.8-1.4l1.3-.6c.7-.8 1.6-1.4 2.6-2.1.2-.1.4-.2.5-.2.2 0 .4.1.6.2l.1.1s.1 0 .1-.1h.1l1.4-.4v-.1c0-.6.4-1 1-1H10c.1 0 .2 0 .3.1-.2-1.1-.1-2.3.1-3.5-.1-.1-.1-.3-.1-.4-.1-.2-.2-.4-.2-.6v-.3c-.2-.1-.3-.4-.3-.6v-.9c0-.7.6-1.3 1.3-1.3.8 0 1.4.5 1.4 1.2.7 0 2-.1 3.2-.1h.7c1.9.1 3.4.3 3.5.3.2 0 .4.1.6.2.1 0 .1 0 .2.1.3 0 .5.2.7.4l.7 1c.2.2.2.5.1.8 0 .1 0 .3-.1.4-.1.2-.3.4-.5.5l.5 2.9h1.2c.6 0 1 .4 1 1l1.4.5s.1 0 .1.1c.2-.1.4-.2.7-.2s.6.1.8.2c1 .6 1.8 1.3 2.5 2l1.4.7q.6.3.6.9l-.1 1.3c0 .3-.2.6-.4.7.2.6.4 1.2.4 1.8 0 2.5-2.1 4.6-4.7 4.6"
          class="outline"
          fill="#FFFFFF"
        ></path>
        <path
          d="m21.4 14.3-1-5.6-.9-1.4h-6.6l-1.2.8c-1 3.3-.5 6-.5 6l-.8-.3h-.1l-.3.1v-.5H8.9v.8h-.2l-2 .6-.2.6 1.6-.4 1.8 2.1 1.6.4-.1 1-.2 4 3.4-.1.7-5.2h-.1 4.9zm-6.5 2.2-.7-1-.4-.1-2-1.7V9l1.3.5 5.3.1 1.6-.2.9 4.7-1.2 2.4zM27 17.8h-.3v-.2h-4.3v5.9h1.5c.7 1 1.8 1.7 3.1 1.7 2.1 0 3.7-1.7 3.7-3.7s-1.6-3.7-3.7-3.7M30.1 19l.6-.1.1-1.2-1.8-.9z"
          class="tertiary"
          fill="#333"
        ></path>
        <path
          d="m25.4 14.9-2-.6h-.1v-.7h-1v.4l-.6-.1c-.1 0-.2 0-.2.1l-1.1 2.4-.4.8h1.6l.6-.3 3.3-1.6z"
          class="tertiary"
          fill="#333"
        ></path>
        <path
          d="M30.2 18.1c-.9-1.3-2.1-2.3-3.4-3.2q-.3-.15-.6 0l-.4.3-.1.1v-.1l-.3-.1-1.3-.4c-.2-.1-.4 0-.5.2l-.3.3-.1.1-1.2 1.6c-.1.1-.2.2-.4.2h-6.4l-.1.4h-.8l-.2.3h-1.7v3.8l1.8.4.7 1.1h4.3l1.5.4h2.1c.1 0 .3-.1.3-.2 0 0-.4-2.1.3-3.6.6-1.1 1.7-1.6 2.2-1.8l.1.1.2.2q.3.3 0 .6l-.6.7-.5.1s-1 1.1-.7 2.3c.2 1.2.9 1.6.9 1.7 0 0 1.9.2 3.1.3 1.7-1 1.5-2.5 1.5-2.9l.4-.5c.1-.1.1-.1.1-.2l.2-1.8c0-.2 0-.3-.1-.4m-3.3 4.4c-1.1-.1-1-1-1-1-.1-.5.2-.9.5-1.2h.1l.5-.3.1-.1.6-.7.6.2v1.7c-.2.5-.6 1.5-1.4 1.4"
          class="primary"
          fill="#FD5C00"
        ></path>
        <path
          d="M16 22.7h3.5c.1 0 .3 0 .4.1l.6.2c.1 0 .2.1.3.1h.4c.5 0 .9-.4.9-.8l.2-3.9c0-.4-.3-.7-.7-.7l-5.6-.1c-.4 0-.8.3-.7.7l.1 3.7c-.1.4.2.7.6.7"
          class="shadow"
          opacity=".3"
          fill="#333"
        ></path>
        <path
          d="M16.1 22.6h3.4c.1 0 .2 0 .4.1l.6.2c.1 0 .2.1.3.1h.4c.4 0 .8-.3.8-.8l.2-3.7c0-.4-.3-.7-.6-.7l-5.6-.1c-.4 0-.7.3-.7.7l.1 3.5c0 .4.3.7.7.7"
          class="primary"
          fill="#FD5C00"
        ></path>
        <path
          d="M16.2 21.8v-1.1c0-.3.2-.5.5-.5h2c.3 0 .5.2.5.5v1.1zM16.2 19.8v-1.1c0-.3.2-.5.5-.5h2c.3 0 .5.2.5.5v1.1z"
          class="shadow"
          opacity=".3"
          fill="#333"
        ></path>
        <circle
          cx="21.8"
          cy="16.6"
          r=".2"
          class="tertiary"
          fill="#333"
        ></circle>
        <circle
          cx="27"
          cy="21.5"
          r=".8"
          class="highlight"
          opacity=".3"
          fill="#fff"
        ></circle>
        <path
          d="M23.1 17.7h.8v1.2h-.8z"
          class="tertiary"
          transform="rotate(48.401 23.43 18.26)"
          fill="#333"
        ></path>
        <path
          d="M11.2 17.5H5.6v.3h-.5c-2.1 0-3.7 1.7-3.7 3.7s1.7 3.7 3.7 3.7c1.3 0 2.5-.7 3.2-1.8h3v-5.9z"
          class="tertiary"
          fill="#333"
        ></path>
        <circle
          cx="5.1"
          cy="21.5"
          r=".8"
          class="highlight"
          opacity=".3"
          fill="#fff"
        ></circle>
        <path
          d="m25.8 18-.7.4-2.3-2.5.5-.5.8.9 1.1-1.2.5.2.1.1-1.1 1.4.3.4zM1.9 19h-.3c-.2 0-.3-.2-.3-.4V18c0-.2.1-.3.2-.4l1.7-.8z"
          class="tertiary"
          fill="#333"
        ></path>
        <path
          d="m11.5 17.4-1.2-.4c-.1 0-.3-.1-.3-.2l-1.4-1.7c-.1-.2-.4-.2-.6-.2l-1.5.5-.9-.6c-1.6 1-2.8 2-3.8 3.4 0 0 .1 1.6.2 2s.5.7.5.7-.3 1.7 1.4 2.8l3.2-.3s.9-.7.9-2c0-.6-.2-1-.4-1.4s-.5-.6-.5-.6l-.3.1c-.2-.2-.5-.6-.7-1 0-.1.2-.4.4-.7l2 1.8c.1.1.2.3.2.5l.3 3.4 2.7.1c.1-2.1.1-4.1-.2-6.2m-5.1 4.3s-.3.8-1 .8c-1 .1-1.3-.6-1.5-1.2-.1-.5 0-1.6 0-2.1.3-.1.6-.1.6-.1l.5.7.1.2.7.5z"
          class="primary"
          fill="#FD5C00"
        ></path>
        <path
          d="M7.5 22s.4-.8.1-1.7l-1.9.1s.5.7.5 1c0 .4.1.6.1.6z"
          class="tertiary"
          fill="#333"
        ></path>
        <path
          d="M8.2 17.6h.9v1.6h-.9z"
          class="tertiary"
          transform="rotate(-52.75 8.616 18.414)"
          fill="#333"
        ></path>
        <path
          d="m6.8 18.7 2.4-2.8-.4-.5-2.5 2.7z"
          class="tertiary"
          fill="#333"
        ></path>
        <path
          d="m7.5 16.8-1-1.4.4-.2L8 16.3zM14.5 10.6l.7 2.1 1.4.2.6 1-.3.5.3.8 1.6.7.1.9h-3.3l-2-3.8.5-.5v-1.9z"
          class="tertiary"
          fill="#333"
        ></path>
        <path
          d="m21.1 13.7-1.4.2-.9-2h-1l-.5.8.7.4.1 2.8 1.3.8h.6l1.2-2.4z"
          class="tertiary"
          fill="#333"
        ></path>
        <path
          d="m21.1 14.2-1.2 2.7-4.7-.1-.9-1.4-.4-.1-2-1.7c-.6-2.1-.6-3.8 0-5.3l8 .1z"
          class="window"
          opacity=".3"
          fill="#5dc9e8"
        ></path>
        <path
          d="m11.4 8.1-.3-.2V7h.2v.8l.2.1z"
          class="tertiary"
          fill="#333"
        ></path>
        <path
          d="m21.2 8.7-.7.1-.5-.5h-.2l-1.4-.1-.1-.8h-5c-.2 0-.4.1-.5.3v.1c-.1.2-.2.3-.4.3h-.7l-.1.4-.4-.1.2-.4c0-.2.1-.3.3-.4l.4-.3c.1-.1.2-.1.3-.1.6-.1 2.5-.2 4-.2 1.8.1 3.4.3 3.4.3.2 0 .3.2.5.2.4 0 .9.9.9 1.2"
          class="secondary"
          fill="#808080"
        ></path>
        <path
          d="M15.1 17.5v5.6H15l-.7-1.1-1.8-.4v-3.8h1.7l.1-.3z"
          class="shadow"
          opacity=".3"
          fill="#333"
        ></path>
        <path
          d="M11.2 6c.3 0 .4.2.4.3v.6h-.8v-.6c0-.2.2-.3.4-.3"
          class="quaternary"
          fill="#edae2d"
        ></path>
        <path
          d="M10.8 6.8h.8v.3h-.8zM21 18.9h.5v2.4H21z"
          class="tertiary"
          fill="#333"
        ></path></svg>
