<svg xmlns="http://www.w3.org/2000/svg"
        class="css-9txd9r"
        focusable="false"
        viewBox="0 0 32 32"
        data-icon-name="TextureCuringMachine"
      >
        <g id="TextureCuringMachine__outline">
          <path
            d="M22.4 26.3c-.6 0-1.2-.2-1.6-.7-.1-.1-.2-.2-.2-.3h-2c-.4.6-1.1 1-1.8 1H13c-.6 0-1.2-.2-1.6-.7-.4-.4-.7-1-.7-1.6v-.2H1c-.6 0-1-.4-1-1v-2.4c0-.6.4-1 1-1h11.4v-4.6c-.2-.2-.2-.4-.2-.7v-1.3c0-.3.1-.6.4-.8l.8-.6c.2-.1.4-.2.6-.2h.5c.2 0 .5.1.7.2l.7.6c.2-.4.6-.7 1-1 .2-.1.4-.2.6-.2h.5l.1-.1c.1-.1.2-.2.4-.2l.1-.3q.3-.6.9-.6h3.2V6.8c0-1.4.9-2 1.7-2h.6c.4 0 .7.2.9.5s.1.7-.1 1l-.4.6c-.1.1-.2.2-.3.2v4h.4c.2 0 .5.1.7.2l.7.6c.2.2.3.5.3.8V14c0 .2-.1.5-.2.6v5.3c0 .3-.1.5-.3.7l-.1.1v.4c.1.1.2.3.2.4H31c.6 0 1 .4 1 1v.5c0 .6-.4 1-1 1h-2.4c-.1 1.2-1.1 2.1-2.3 2.1-.1.2-3.9.2-3.9.2m-1.1-4.5c.2-.1.5-.2.7-.2V21h-.7zm-4.1-.1V21z"
            class="outline"
            fill="#FFFFFF"
          ></path>
          <path
            d="M20.7 20.4h1.8v1.8h-1.8z"
            class="outline"
            fill="#FFFFFF"
          ></path>
        </g>
        <g id="TextureCuringMachine__main_shape">
          <path d="M15.7 20.1h.5v2.6h-.5z" class="quinary" fill="gray"></path>
          <path
            d="M23.4 17.6H19l-.1-5.8h4.5z"
            class="primary"
            fill="#FFFFFF"
          ></path>
          <path
            d="M23.4 17.6H19l-.1-5.8h4.5z"
            class="shadow"
            opacity=".3"
            fill="#333"
          ></path>
          <path
            d="M17.3 23.1v1.2h.5v-.6h.2v.6h.2v-.6h.3v.6h.2v-.6h.2v.6h.2v-.6h.3v.6h.2v-.6h.3v.6h.2v-.6h.2v.6h.2v-.6h.3v.6h.2v-.6h.2v.6h.2v-1.2zM23 20h.5v2.7H23z"
            class="quinary"
            fill="gray"
          ></path>
          <path
            d="M23.6 6.9v5.5h.4V6.9c0-.3.1-.4.3-.4h.2l.4-.6h-.6c-.3 0-.7.2-.7 1"
            class="shadow"
            opacity=".3"
            fill="#333"
          ></path>
          <path
            d="M16.3 25h-3.8c-.6 0-1.1-.5-1.1-1.1v-.1c0-.6.5-1.1 1.1-1.1h3.8c.6 0 1.1.5 1.1 1.1v.2c0 .6-.5 1-1.1 1"
            class="senary"
            fill="#333"
          ></path>
          <path
            d="M16.4 25.3h-3.8c-.7 0-1.3-.6-1.3-1.3v-.1c0-.7.6-1.3 1.3-1.3h3.8c.3 0 .7.1.9.4s.4.6.4.9v.1c0 .7-.6 1.3-1.3 1.3m0-.5c.5 0 .8-.4.8-.8v-.1c0-.2-.1-.4-.2-.6-.2-.2-.4-.2-.6-.2h-3.8c-.5 0-.8.4-.8.8v.1c0 .5.4.8.8.8z"
            class="quaternary"
            fill="#ffde00"
          ></path>
          <path d="M26.4 22.7H31v.5h-4.6z" class="quinary" fill="gray"></path>
          <path
            d="M1.2 20.7h11.3v1.9H1.2zM14.8 17.9h9.6v1.9h-9.6z"
            class="shadow"
            opacity=".3"
            fill="#333"
          ></path>
          <path
            d="M23.1 11.6h-3.9l.3-.8h3.3z"
            class="primary"
            fill="#FFFFFF"
          ></path>
          <path
            d="M23.3 11.7H19l.5-1.1H23c-.1.1.3 1.1.3 1.1m-3.9-.2h3.5l-.2-.5h-3.1zM18.5 12h-1.1c-.3.2-.7.6-.7.8v2.7c0 .4-.2.8-.4 1.2s-.3.6-.3 1h.3c0-.3.2-.5.3-.8.2-.4.4-.8.4-1.3v-.7h1.3v2.8h.3c-.1-1.8-.1-5.7-.1-5.7m-1.7 2.6v-1.8c0-.1.3-.3.6-.5h.8v2.3z"
            class="quinary"
            fill="gray"
          ></path>
          <path
            d="M26.2 25h-3.8c-.6 0-1.1-.5-1.1-1.1v-.1c0-.6.5-1.1 1.1-1.1h3.8c.6 0 1.1.5 1.1 1.1v.2c0 .6-.5 1-1.1 1"
            class="st0"
            fill="#333"
          ></path>
          <path
            d="M26.2 25.3h-3.8c-.3 0-.7-.1-.9-.4-.2-.2-.4-.6-.4-.9v-.1c0-.3.1-.7.4-.9.2-.2.6-.4.9-.4h3.8c.3 0 .7.1.9.4.2.2.4.6.4.9v.1c0 .7-.6 1.3-1.3 1.3m0-.5c.5 0 .8-.4.8-.8v-.1c0-.2-.1-.4-.2-.6-.2-.2-.4-.2-.6-.2h-3.8c-.2 0-.4.1-.6.2-.2.2-.2.4-.2.6v.1c0 .2.1.4.2.6.2.2.4.2.6.2z"
            class="quaternary"
            fill="#ffde00"
          ></path>
          <path
            d="m14 12.5-.7.5v1h.3l-.1 5.9h1.2V14h.2v-1l-.6-.5zM25 12.4l-.6.6v1h.2v5.9h1.1V14h.3v-1l-.6-.6z"
            class="primary"
            fill="#FFFFFF"
          ></path>
          <path
            d="M26.2 23.5h-.8.1v-1.1c0-.1.2-.2.2-.4v-.2h-.2V20h.4v-5.9h.2v-1.3l-.7-.6H25l-.8.6v1.3h.2v3.5h-.2v-.7l-.2-.2v-4.3h-.4v-.9h-5v6.1h-3.9v-3.5h.3v-1.3l-.7-.6h-.5l-.8.6v1.3h.2V20h.3v1.5l-.5-.8h-.3v-.5H1v2.4h11.9v-1.7h.1l.5.8h-.1v.2c0 .2.2.3.2.4s0 .2.1.3v.8h-.8c-.1-.1-.2-.1-.3-.1-.3 0-.6.2-.6.5s.2.5.5.5c.1 0 .2 0 .3-.1h3.5c.2 0 .4-.2.4-.4s-.2-.4-.4-.4h-1.9c.1-.4.3-1 .3-1.2 0-.1-.3-.5-.3-.5h-.2V20h10.5v1.8h-.1s-.3.3-.3.4c0 .2.2.9.3 1.2h-1.9c-.1-.1-.2-.1-.3-.1-.3 0-.6.2-.6.5s.2.5.5.5c.1 0 .2 0 .3-.1h3.5c.2 0 .4-.2.4-.4.1-.1-.1-.3-.3-.3m-13.6-1H1.2v-1.9h11.3v1.9zm2.2-8.6h-.2v5.9h-.9v-5.9h-.2V13l.6-.4h.3l.5.4c-.1 0-.1.9-.1.9m8.6-2.1v4.9l-.3.3v.7H19v-5.8c-.1-.1 4.4-.1 4.4-.1m1 8h-9.6v-1.9h9.6zm.3 0v-5.9h-.2V13l.6-.4h.3l.5.4v.9h-.2v5.9z"
            class="quinary"
            fill="gray"
          ></path>
          <path
            d="M20.1 17.9v.4h-1.7v-.4h-.2v1.9h.2v-.6h1.7v.6h.2v-1.9zM18.4 19v-.6h1.7v.6zM20.1 20.7h-1.7V20h-.2v3.5h2.1V20h-.2zm0 .2v.8h-1.7v-.8zm0 .9v.7h-1.7v-.7zm-1.7 1.5v-.5h1.7v.5zM22.3 16.6c-.2-.3-.3-.7-.3-1.1v-2.7c0-.2-.4-.5-.7-.8h-1.1v5.7h.3v-2.9h1.3v.7c0 .5.2.8.4 1.2q.3.45.3.9h.3c-.1-.3-.3-.6-.5-1m-1.9-2v-2.3h.8c.3.2.6.5.6.5v1.8z"
            class="quinary"
            fill="gray"
          ></path>
        </g></svg
    ></span>
  </div>
  <div class="icons-list-group tw-pl-[10px] tw-pr-[10px] tw-mt-[5px]">
    <span
      class="tw-border-[transparent] tw-border-[1px] tw-border-solid tw-rounded tw-inline-block tw-m-[10px]"
      data-testid="span-generic-air-blast-sprayer"
      tabindex="1"
      ><svg
        class="css-9txd9r"
        focusable="false"
        viewBox="0 0 48 48"
        data-icon-name="GenericAirBlastSprayer"
      >
        <path
          id="GenericAirBlastSprayer__outline"
          d="M46.003 25.25h-.999v-.016a2 2 0 0 0 1.749-1.984V21.5a2 2 0 0 0-1.75-1.985V18a2 2 0 0 0-2-2h-.518c-.346-.598-.992-1-1.732-1h-1.672l-1.664-1.664a2 2 0 0 0-.671-.443l-2.5-1a2 2 0 0 0-.11-.04l-2.25-.75a2 2 0 0 0-.632-.103h-4.25c-.215 0-.429.035-.632.103l-.123.041a2 2 0 0 0-.744-.144h-.25q-.127 0-.253.016a2 2 0 0 0-.639-.234 2 2 0 0 0-1.358-.532h-2c-.507 0-.97.189-1.323.5h-2.677q-.198 0-.386.037a2 2 0 0 0-1.364-.537h-1.5c-.632 0-1.195.293-1.561.75h-1.689c-.708 0-1.33.368-1.685.923a2 2 0 0 0-.815-.173h-.5a2 2 0 0 0-.625.1 2 2 0 0 0-.625-.1h-.5c-.507 0-.97.189-1.323.5h-.116a2 2 0 0 0-1.561-.75h-.75a2 2 0 0 0-2.002 2v14.25a2 2 0 0 0 2 2h.75c.632 0 1.195-.293 1.561-.75h.116c.353.311.816.5 1.323.5h.5q.328-.001.625-.1.18.06.375.084v.016a2 2 0 0 0 2 2h.3c.938 3.305 4.002 5.75 7.575 5.75s6.637-2.445 7.575-5.75h13.8c.74 0 1.387-.402 1.732-1h5.768a2 2 0 0 0 2-2v-1.25a2 2 0 0 0-2-2"
          class="outline"
          fill="#fff"
        ></path>
        <g id="GenericAirBlastSprayer__icon">
          <path
            d="m27 13 .75 5H28l1.5.75.5.75h1.25l.5-.75L33 18l.25-.25.25-4-2.25-.75z"
            class="secondary"
            fill="#FFDE00"
          ></path>
          <path
            d="M31.25 13H27l.75 5H28l1.5.75.5.75h1.25l.5-.75L33 18l.25-.25.25-4zm1.25 4.25-1 .75-.25-1.25h-1.5L29.5 18l-.75-.5-1-3.25H33z"
            class="shadow"
            fill="#353535"
            opacity=".3"
          ></path>
          <path
            d="M29.5 13.25H31V14h-1.5z"
            class="neutral1"
            fill="#2b2b2b"
          ></path>
          <path
            d="m27 13-.75.25H26l-.75 1.25v11.25l1 1.75h1l5.5-2.75L37.5 23v-.5l.25-.25h.5V17L36 14.75l-2.5-1-.25 4L33 18l-1.25.75-.5.75H30l-.5-.75L28 18h-.25z"
            class="primary"
            fill="#367C2B"
          ></path>
          <path
            d="m26 13.25-.5-.25h-.25l-.5.25L24 14.5v13h1.25v-13zM24 13.75v-1h-1v-.5h-2v.5h-2.75v1z"
            class="neutral1"
            fill="#2b2b2b"
          ></path>
          <path d="M17 12.75h1.25v1H17z" class="accent2" fill="#f5911e"></path>
          <path
            d="M16 13.75V13h-.75v-.75h-1.5V13H12v.75z"
            class="neutral1"
            fill="#2b2b2b"
          ></path>
          <path
            d="M10.5 13.75H12V13h-1.5"
            class="accent2"
            fill="#f5911e"
          ></path>
          <path
            d="m8 14.5 1.75-.75H24v-.5h.75L24 14.5v9L22.25 20H8z"
            class="primary"
            fill="#367C2B"
          ></path>
          <path
            d="M13.25 13.75v2l2.75 2 8 2V19l-7.75-2L14 15.5v-1.75zM25.25 19.25l13 2.25v.75l-13-2.25z"
            class="shadow"
            fill="#353535"
            opacity=".3"
          ></path>
          <path
            d="M13.25 13.75v2l2.75 2 8 2V19l-7.75-2L14 15.5v-1.75zM25.25 19.25l13 2.25v.75l-13-2.25z"
            class="shadow"
            fill="#353535"
            opacity=".3"
          ></path>
          <path
            d="M8 20v7.5h1.25v2H38.5v-7.25h-.75l-.25.25v.5l-4.75 1.75-5.5 2.75h-1l-1-1.75v1.75H24v-4L22.25 20z"
            class="neutral2"
            fill="#808082"
          ></path>
          <path
            d="M11.75 20.75v6.75H24v-2.75l-2-4zM10.5 20.75h.75v6.75h-.75zM8 20.75h1v6.75H8z"
            class="shadow"
            fill="#353535"
            opacity=".3"
          ></path>
          <path
            d="M10.5 20.75h.75v6.75h-.75zM8 20.75h1v6.75H8zM27.25 27.5l5.5-2.75v2.75z"
            class="shadow"
            fill="#353535"
            opacity=".3"
          ></path>
          <path
            d="M32.75 24.75v2.75h4.75V23z"
            class="neutral1"
            fill="#2b2b2b"
          ></path>
          <path
            d="M33.75 25.5H35v1h-1.25z"
            class="secondary"
            fill="#FFDE00"
          ></path>
          <path
            d="M40.75 25.25H39.5l-.5-.5h-.5v-2.5h-.25V17h2.5zM40.75 19H42v2.5h1V18h-2.25z"
            class="neutral1"
            fill="#2b2b2b"
          ></path>
          <path
            d="M40.75 21.5h4v1.75h-4zM42.002 23.25h1v5.25h-1z"
            class="neutral2"
            fill="#808082"
          ></path>
          <path
            d="M38.5 26.25H42v2.25h-3.5z"
            class="primary"
            fill="#367C2B"
          ></path>
          <path
            d="M39.25 26.25h2v2.25h-2z"
            class="shadow"
            fill="#353535"
            opacity=".3"
          ></path>
          <path d="M43 27.25h3v1.25h-3z" class="primary" fill="#367C2B"></path>
          <path
            d="M38.5 26.25h.75v2.25h-.75zM41.25 26.25H42v2.25h-.75z"
            class="shadow"
            fill="#353535"
            opacity=".3"
          ></path>
          <path
            d="M38.5 26.25h.75v2.25h-.75zM41.25 26.25H42v2.25h-.75zM43 27.25h.5v1.25H43z"
            class="shadow"
            fill="#353535"
            opacity=".3"
          ></path>
          <path
            d="M43 27.25h.5v1.25H43zM42 23.25h1V24h-1z"
            class="shadow"
            fill="#353535"
            opacity=".3"
          ></path>
          <path
            d="M8 14.5v-.75h-.5v.5H6.25v-.5h-.5v.5h-3v-.75H2v14.25h.75V27h3v.5h.5V27H7.5v.5H8z"
            class="neutral2"
            fill="#808082"
          ></path>
          <path
            d="M7 14.25h.5V27H7zM6.25 14.25h.5V27h-.5z"
            class="neutral1"
            fill="#2b2b2b"
          ></path>
          <path
            d="M5.25 14.25h.5V27h-.5zM2.75 14.25h.5V27h-.5z"
            class="shadow"
            fill="#353535"
            opacity=".3"
          ></path>
          <path
            d="M3.25 15h2v1.25h-2zM3.25 17h2v.75h-2z"
            class="highlight"
            fill="#fefeff"
            opacity=".31"
          ></path>
          <path
            d="M3.25 23.75h2v.75h-2zM3.25 25h2v1.25h-2z"
            class="shadow"
            fill="#353535"
            opacity=".3"
          ></path>
          <circle
            cx="30.5"
            cy="18.25"
            r=".5"
            class="neutral3"
            fill="#f2f2f2"
          ></circle>
          <path
            d="M43.5 27.25H46v1.25h-2.5z"
            class="shadow"
            fill="#353535"
            opacity=".3"
          ></path>
          <circle
            cx="17.125"
            cy="29.375"
            r="5.875"
            class="neutral1"
            fill="#2b2b2b"
          ></circle>
          <circle
            cx="17.125"
            cy="29.375"
            r="3.092"
            class="secondary"
            fill="#FFDE00"
          ></circle>
          <circle
            cx="17.125"
            cy="29.375"
            r="2.474"
            class="shadow"
            fill="#353535"
            opacity=".3"
          ></circle>
          <circle
            cx="17.125"
            cy="29.375"
            r="1.237"
            class="shadow"
            fill="#353535"
            opacity=".3"
          ></circle>
        </g></svg>
