<svg xmlns="http://www.w3.org/2000/svg"
        class="css-9txd9r"
        focusable="false"
        viewBox="0 0 48 48"
        data-icon-name="TrackedHarvester"
      >
        <path
          id="TrackedHarvester__outline"
          d="M48 28.25V28a2 2 0 0 0-.586-1.414l-.25-.25a2 2 0 0 0-.774-.481 2 2 0 0 0-.226-.269L46 25.422V25c0-.456-.153-.877-.41-1.214.103-.241.16-.507.16-.786v-.25c0-.215-.035-.429-.103-.632l-.25-.75-.25-.75a2 2 0 0 0-.483-.782l-6.5-6.5a2 2 0 0 0-.305-.25l-6.75-4.5a2 2 0 0 0-.215-.125l-.5-.25a2 2 0 0 0-1.526-.108l-.75.25a2 2 0 0 0-.782.483l-.75.75-6.221 5.971a2 2 0 0 0-.279.333l-.5.75a2 2 0 0 0-.107.181l-3.096.182A2 2 0 0 0 14.5 19v.75c0 .417.128.805.347 1.126l-1.606-.964-.076-.076a2 2 0 0 0-1.841-.54l-8 1.75a2 2 0 0 0-1.361 1.059l-.25.5q-.128.256-.179.535a2 2 0 0 0-.473.874l-.5 2-.501 2.001q-.06.24-.06.485V31a2 2 0 0 0 .586 1.414l1 1A2 2 0 0 0 3 34h.752a4.2 4.2 0 0 0-.377 1.75A4.255 4.255 0 0 0 7.625 40H24.5a4.255 4.255 0 0 0 4.25-4.25 4.26 4.26 0 0 0-3.501-4.184l.001-.066v-3.314l.716-3.817q.02-.107.028-.215l.152-1.972.018-.018.25-.25c.287-.287.478-.653.552-1.047l.027-.011c.508-.203.899-.6 1.102-1.085l2.506-2.297.063-.06.529-.529.728.323 1.072.918.335 1.172c.093.327.268.624.509.865l.5.5q.191.19.421.322l.204.408q.081.161.189.306l.75 1q.086.114.186.214l1 1c.192.192.42.342.671.443l1.25.5q.214.085.438.12l-1.109 1.109a2 2 0 0 0-.586 1.414v2c0 .31.072.617.211.894l.615 1.231.201 1.203a2 2 0 0 0 1.078 1.46l.5.25c.278.139.584.211.894.211h4a2 2 0 0 0 1.414-.586l.5-.5c.317-.317.516-.729.571-1.169.172-.3.265-.643.265-.995v-.25a2 2 0 0 0-.5-1.323v-.354a2 2 0 0 0 .5-1.323Z"
          class="outline"
          fill="#fff"
        ></path>
        <g id="TrackedHarvester__icon">
          <path
            d="m42 21.75-.25.25-.75.25-1.25.25-1-.5-.75-.75-.75-1-.25-.5-.225-.675-.525.175.25.75.25.5.75 1 1 1 1.25.5 1.25-.25 1-.25.4-.2.1-.3z"
            class="neutral2"
            fill="#808082"
          ></path>
          <path
            d="m23.75 24.25-.25.25h-.478l-2.272 4.75H21v1h2.25V28l.75-4 .2-2.59-.178.391z"
            class="primary"
            fill="#F2A900"
          ></path>
          <path
            d="M19.5 20v1.53l.659-1.567zM23.5 23.5l-.359.75h.359l.191-1.721-.383.843zM23.894 20.702l-.004-.002-.39-.2-2.25 3.5-.17.25h1.02l.65-1.25.094.062 1.013-2.026zM17.5 22.5l1.25.5v-3l-1.25.25z"
            class="window"
            fill="#bbe3f3"
          ></path>
          <path
            d="m13.5 32.75-5.25.75H24l-5.25-.75V32H13.5zM5.75 35.75c0 1.036.839 1.875 1.875 1.875H24.5a1.874 1.874 0 1 0 0-3.75H7.625A1.874 1.874 0 0 0 5.75 35.75m3.938-.375h12V35h3v1.5h-3v-.375h-12zm-.75.375a1.125 1.125 0 1 1-2.25 0 1.125 1.125 0 0 1 2.25 0"
            class="neutral1"
            fill="#2b2b2b"
          ></path>
          <path
            d="M8.25 33.5h-.625c-1.241 0-2.25 1.009-2.25 2.25S6.384 38 7.625 38H24.5c1.241 0 2.25-1.009 2.25-2.25s-1.009-2.25-2.25-2.25zm16.25.375a1.874 1.874 0 1 1 0 3.75H7.625a1.874 1.874 0 1 1 0-3.75z"
            class="neutral2"
            fill="#808082"
          ></path>
          <circle
            cx="7.812"
            cy="35.75"
            r="1.125"
            class="neutral2"
            fill="#808082"
          ></circle>
          <path
            d="M21.688 36.5h3V35h-3v.375h-12v.75h12z"
            class="neutral2"
            fill="#808082"
          ></path>
          <path
            d="M18.75 29.25h.75l2.47-4.75h-1.05l-2.17 3.25V25l-.5-.5.53-1.25h-.03l-1.25-.5-.25-.25v-2.25l.25-.25 1.25-.25.25.25v2.72l.25-.59V20l.25-.263.782-.041.218-.446.25-.5-4.25.25v.75h.5v3.75l-.75-.5H14.5L12 21.5l-.25-.25-8 1.75-.25.5v1H3l-1 4v.5h2.5v1.75H5V32h13.75zM7 31.5H6v-.25h1zm5.5 0h-1v-.25h1zm5.5 0h-1v-.25h1zM5.75 30v-.5h12l.5.5zm12.5-3h-1v-1.25h1z"
            class="primary"
            fill="#F2A900"
          ></path>
          <path
            d="M4.5 30.75V29H2v2l1 1h2v-1.25z"
            class="neutral1"
            fill="#2b2b2b"
          ></path>
          <path
            d="M5.75 29.5v.5h12.5l-.5-.5z"
            class="stripe"
            fill="#808082"
          ></path>
          <path
            d="M17.25 25.75h1V27h-1z"
            class="neutral1"
            fill="#2b2b2b"
          ></path>
          <path
            d="M6 31.25h1v.25H6zM17 31.25h1v.25h-1zM11.5 31.25h1v.25h-1zM29.643 14.893 29.5 15l.25.25.143-.107.857-.643-.25-.25z"
            class="neutral2"
            fill="#808082"
          ></path>
          <circle
            cx="24.5"
            cy="20.25"
            r=".25"
            class="neutral2"
            fill="#808082"
          ></circle>
          <circle
            cx="31"
            cy="14"
            r=".25"
            class="neutral2"
            fill="#808082"
          ></circle>
          <circle
            cx="43"
            cy="22.25"
            r=".25"
            class="neutral2"
            fill="#808082"
          ></circle>
          <path
            d="M43.5 25v-2h.25v-.25L43.5 22l-.25-.75-6.5-6.5-6.75-4.5-.5-.25-.75.25L28 11l-6.25 6-.5.75-.5 1-.25.5-.218.446-.782.041-.25.263v2.13l-.25.59V20l-.25-.25-1.25.25-.25.25v2.25l.25.25 1.25.5h.03l-.53 1.25.5.5v2.75l2.17-3.25h1.05l-2.47 4.75h-.75V32h4l.5-.5v-1.25H21v-1h-.25l2.272-4.75h.478l.25-.25.272-2.449-.331.728-.191 1.721h-.359l.359-.75-.192-.128-.464-.31L22.75 23l-.65 1.25h-1.02l.17-.25 2.25-3.5.39.2.004.002-.037.334.143-.286h.75l.25-.25v-1l1.25-.5v-.25l3-2.75.75-.75-.107-.107-.143.107-.25-.25.143-.107-.143-.143-4 3.5-.25-.25 2.5-3.75 2-2.75.75 1.25v1.5l.25.25 2.25 1 1.75 1.5.5 1.75.5.5h.5l.525-.175L37 19l5.5 3-.1.3-.15.45V23h.25v2zm-24.75-2-1.25-.5v-2.25l1.25-.25zm.75-3 .659-.037-.659 1.567zm5 .5a.25.25 0 1 1 0-.5.25.25 0 0 1 0 .5m6.5-6.25a.25.25 0 1 1 0-.5.25.25 0 0 1 0 .5M43 22a.25.25 0 1 1 0 .5.25.25 0 0 1 0-.5m.25 1v.25h-.5V23zm-.5 2v-.5h.5v.5z"
            class="neutral1"
            fill="#2b2b2b"
          ></path>
          <path
            d="m24 20.75-.143.286-1.013 2.026.464.31.383-.843.331-.728.178-.391.3-.66H24"
            class="neutral2"
            fill="#808082"
          ></path>
          <path
            d="M18.75 27.75v2.5h4.5V28l-3-2.5zM21.688 36.125h3v.375h-3zM7.812 36.875c.621 0 1.125-.504 1.125-1.125h-2.25c0 .621.504 1.125 1.125 1.125M3.5 23.5 5 23v3.5l-1.5-2zM5.75 23.75h4.5V25h-4.5zM5.75 25.75h4.5V29h-4.5zM12 21.5l-2 .5 2 1v.5h5l-.75-.5H14.5zM16 27.5h2.25V29H16zM11 25.75h4.5V29H11zM5 30.75h13.75v.5H5zM5 31.5h13.75v.5H5z"
            class="shadow"
            fill="#353535"
            opacity=".3"
          ></path>
          <path
            d="M16.5 19v.5h2.75l1.25-.25.25-.5zM3.5 24.5l1.5 2H2.5l.5-2zM5 23h7l-2-1zM12 23.5h5l1.25 1 .5.5H12z"
            class="highlight"
            fill="#fefeff"
            opacity=".31"
          ></path>
          <path
            d="m3.5 23.5.25-.5 8-1.75.25.25-2 .5-5 1zM42.5 23h.25v1h-.25zM43.25 23h.25v1h-.25zM30 10.25l.25.5-.25.5-.25.25-2 2.75-2.5 3.75-.25.5V18l2.5-3.75 2-2.75.25-.25.25-.5v-.5M23.5 20.5h-.25l-4.5 6.75v.5l2.5-3.75z"
            class="highlight"
            fill="#fefeff"
            opacity=".31"
          ></path>
          <path
            d="M42.25 25.5v5L43 30v-3.5l.5-.75h.5v-.25z"
            class="neutral1"
            fill="#2b2b2b"
          ></path>
          <path
            d="M41.75 25.75h.5v3.75l.25.75.5-.25v-3.25h1.5l.25.25v.5l-.25.25h1.25L46 28v.25l-.25.25H43v.5h1v.25h.25v1H44v.25h-1v.5h2.75l.25.25v.25l-.25.25v.5l-.5.5h-4l-.5-.25-.25-1.5.25-.25H41V28.5l.25-.25-.25-2"
            class="accent1"
            fill="#e21936"
          ></path>
          <circle
            cx="42.25"
            cy="30"
            r=".5"
            class="neutral1"
            fill="#2b2b2b"
          ></circle>
          <path
            d="m41 26.25-1.25 1.25v2l.75 1.5.25-.25H41V28.5l.25-.25z"
            class="neutral1"
            fill="#2b2b2b"
          ></path>
          <path
            d="m41.75 32.25-.5.5-.5-.25-.25-1.5.25-.25H42V31h-.25z"
            class="highlight"
            fill="#fefeff"
            opacity=".31"
          ></path>
          <path
            d="M44 29.25h.25v1H44z"
            class="shadow"
            fill="#353535"
            opacity=".3"
          ></path>
          <path
            d="M44.25 29.25V29l.25-.25h.75l.25.25v1.5l-.25.25h-.75l-.25-.25z"
            class="neutral1"
            fill="#2b2b2b"
          ></path>
          <path
            d="m41.25 32.75.5-.5h4l-.5.5z"
            class="shadow"
            fill="#353535"
            opacity=".3"
          ></path>
          <path
            d="M43 31h2.75l.25.25h-4.25V31zM45.75 27.75 46 28h-3v-.25z"
            class="highlight"
            fill="#fefeff"
            opacity=".31"
          ></path>
          <path
            d="M44.5 27.75H43v-.25h1.75zM41 26.25l.75-.5h.5v3.75l-.25.25-.25-1.5h-.5z"
            class="shadow"
            fill="#353535"
            opacity=".3"
          ></path>
          <path
            d="m44.5 26.75.25.25H43v-.25z"
            class="highlight"
            fill="#fefeff"
            opacity=".31"
          ></path>
          <path
            d="M45.75 31.75h-3v.5H43V32h2.75z"
            class="shadow"
            fill="#353535"
            opacity=".3"
          ></path>
          <path
            d="M42.5 24v1h.25v-.5M43.25 24.5v.5h.25v-1M42 25h2v.5h-2z"
            class="neutral1"
            fill="#2b2b2b"
          ></path>
          <path d="M42 25h2v.5h-2z" class="neutral2" fill="#808082"></path>
        </g></svg>
