<svg xmlns="http://www.w3.org/2000/svg"
      class="css-9txd9r"
      focusable="false"
      viewBox="0 0 48 48"
      data-icon-name="TractorTrack8rt"
      size="65"
    >
      <path
        id="TractorTrack8rt__outline"
        d="m43.897 23.572-.205-.614-.205-.614a2 2 0 0 0-1.291-1.273l-4.5-1.432a2 2 0 0 0-.157-.043l-5.318-1.227-.057-.012-1.023-.205a2 2 0 0 0-.392-.039h-1.306a2 2 0 0 0-.367-.836l-.214-.285v-.151c0-.248-.046-.494-.136-.725.159-.236.266-.504.313-.787l.205-1.227a2 2 0 0 0-2.661-2.206 2 2 0 0 0-1.191-.524l-2.455-.205-6.378-.412a2.013 2.013 0 0 0-.941.168l-1.841.818a2 2 0 0 0-.297.164l-.614.409a2 2 0 0 0-.891 1.664v.818a2 2 0 0 0 .995 1.73l-.179 1.435c-.29.163-.536.397-.713.678a2 2 0 0 0-.44.22l-1.227.818a2 2 0 0 0-.305.25l-.589.589-1.755.878a2 2 0 0 0-1.078 1.46l-.159.954a7.7 7.7 0 0 0-2.527 5.716c0 4.261 3.466 7.727 7.727 7.727H27.99c2.837 0 5.211-2.023 5.759-4.705h1.703c.317 0 .616-.074.882-.205h1.767l.437.437a2 2 0 0 0 1.414.586h.818c.79 0 1.507-.466 1.828-1.188l.818-1.841a2 2 0 0 0-.232-2.018l.753-3.014q.06-.24.06-.485v-.614q0-.324-.103-.632Z"
        class="outline"
        fill="#fff"
      ></path>
      <g id="TractorTrack8rt__icon">
        <path
          d="m8.455 24.614 2.045-1.023h3.068l7.364 2.25.204-.614-1.841-3.272-2.25-1.432h-3.272v-.818h3.272l1.432.613 1.841 1.841 1.227 2.25h2.66l.613.818h2.046l.613-.818v-4.295h3.273l1.023.204 5.318 1.227 4.5 1.432.204.614-1.636-.205-1.636-.409-1.023-.204L39.341 24l.204 2.25.205 2.25.205.205.613.204h.409l.614.614-.818 1.841h-.818l-1.023-1.023h-3.477v.204H33v-.204h-.818v-.614l-.614.409-22.909-5.318z"
          class="primary"
          fill="#367C2B"
        ></path>
        <path
          d="M25.636 13.773h-2.659l-.409.614h-5.114l-.205.205h-.205l-.614-1.023h-1.841l-.614.409v.818h1.227l-.614 4.909h2.455l1.432.614 1.841 1.841 1.227 2.25h2.659v-5.932l.409-.409v-3.273h.818l.409-.818-.205-.205ZM23.795 24h-1.841l-1.023-2.045-1.432-1.636-1.636-1.023h-2.045l.409-3.682h3.682l.614-.614h.205l.614 3.068h1.432V15h1.023v9Z"
          class="neutral1"
          fill="#2b2b2b"
        ></path>
        <path
          d="m16.227 15.614-.409 3.681h2.046l1.636 1.023 1.432 1.637L21.955 24h1.84v-9h-1.022v3.068h-1.432L20.727 15h-.204l-.614.614z"
          class="window"
          fill="#bbe3f3"
        ></path>
        <path
          d="m14.591 13.568 1.841-.818 6.341.409 2.454.205.409.409h-2.659l-.409.613h-5.113l-.205.205h-.205l-.613-1.023z"
          class="primary"
          fill="#367C2B"
        ></path>
        <path
          d="m37.5 22.773 1.023.204 1.636.409 1.636.205.205.614v.613l-1.023 4.091h-.409l-.613-.204-.205-.205-.409-4.5z"
          class="neutral1"
          fill="#2b2b2b"
        ></path>
        <path
          d="m37.5 22.773 1.023.204.818.614 2.454.818.205-.204v.613L39.341 24z"
          class="highlight"
          fill="#fefeff"
          opacity=".31"
        ></path>
        <path
          d="m40.364 23.591 1.227.204.204.614L40.568 24z"
          class="neutral3"
          fill="#f2f2f2"
        ></path>
        <path
          d="m39.75 28.5.205.205-1.228-.614-1.227-3.682-3.886-1.227 4.295 1.023 1.227 3.681z"
          class="shadow"
          fill="#353535"
          opacity=".3"
        ></path>
        <path
          d="m36.273 23.591 1.432.409-.205-.614-.409-.409-1.227-.204zM24.818 17.659l-.613.818v5.932l.613.818h2.046l.613-.818v-5.932l-.613-.818v-.818l-.409-.818v-.409l.613-.614.205-1.227L25.432 15v1.023l-.614.818z"
          class="neutral1"
          fill="#2b2b2b"
        ></path>
        <path
          d="M25.432 16.023h1.023l.409.818h-2.046zM24.818 17.455h2.045v.205h-2.045zM25.227 18.886h1.023v5.318h-1.023zM26.864 18.886h.205v5.318h-.205zM24.409 18.886h.205v5.318h-.205zM24.409 18.477h.205l.409-.613h-.205zM27.068 18.477h-.204l-.409-.613h.204zM25.227 18.477h1.023l-.205-.613h-.613z"
          class="highlight"
          fill="#fefeff"
          opacity=".31"
        ></path>
        <path
          d="M27.477 20.523h3.273l1.023-.205h-4.296z"
          class="shadow"
          fill="#353535"
          opacity=".3"
        ></path>
        <path
          d="M27.477 20.523v.409h4.705l4.909.613-5.318-1.227-1.023.205z"
          class="highlight"
          fill="#fefeff"
          opacity=".31"
        ></path>
        <path
          d="M27.477 21.136h2.25l4.909.614 5.319 1.227.204.409-1.636-.409-1.023-.204-2.864-.614-4.909-.409-.818.614h-1.432z"
          class="stripe"
          fill="#FFDE00"
        ></path>
        <path
          d="m21.341 15 .409 3.068h.818v-2.659h.205V15z"
          class="primary"
          fill="#367C2B"
        ></path>
        <path
          d="m21.955 15 .204 3.068h.409v-2.659h.205V15zM16.432 12.75v.818h-1.841zM25.636 13.773l-.409-.409-2.454-.205.204.614z"
          class="highlight"
          fill="#fefeff"
          opacity=".31"
        ></path>
        <path
          d="m16.432 13.568.613 1.023h.205l.205-.205h5.113l.409-.613z"
          class="shadow"
          fill="#353535"
          opacity=".3"
        ></path>
        <path
          d="M14.182 14.182v.409h.204v-.205h1.023l-.204-.409h-.819zM15.818 14.386h.818l-.204-.409h-.818zM23.795 13.977l-.204.409h-.818l.204-.409zM25.432 13.977l-.205.614h-.204v-.205H24l.205-.409z"
          class="neutral3"
          fill="#f2f2f2"
        ></path>
        <path
          d="m12.75 20.523-1.227.818-.818.818-2.046 1.023-.204 1.227v.205l2.045-1.023h3.068l7.364 2.25.204-.409v-.205l-1.841-3.272-2.25-1.432z"
          class="neutral1"
          fill="#2b2b2b"
        ></path>
        <path
          d="M8.455 24.614v-.205l2.045-1.023h3.068l7.364 2.25v.205l-7.364-2.25H10.5zM8.659 23.182l2.046-1.023h3.272l1.841 1.227-2.045-1.022h-3.068z"
          class="highlight"
          fill="#fefeff"
          opacity=".31"
        ></path>
        <path
          d="M11.523 21.341h4.295l2.659 1.432 1.432 1.636-1.227-2.045-2.659-1.432H12.75z"
          class="highlight"
          fill="#fefeff"
          opacity=".31"
        ></path>
        <path
          d="M12.545 21.545h.205v.409h-.205zM13.977 21.545h.205v.409h-.205zM15.409 21.545h.205v1.227h-.205zM16.841 22.159h.205v1.432h-.205zM18.068 22.977h.205v1.432h-.205zM37.5 22.773 39.341 24l.204 2.25-.409-2.045zM33.614 23.182l-1.841-.614v.205l1.841.613 3.681 1.228.205 1.022L33.409 24l4.296 2.045.409 1.432-2.659-1.227 3.068 2.045 2.045 1.023v-.204l-1.841-1.023-1.227-3.682z"
          class="highlight"
          fill="#fefeff"
          opacity=".31"
        ></path>
        <path
          d="M33.614 23.386v.205l-2.25-.614L32.386 24h-2.045l-1.636 1.227v1.023h1.431l.205.409.204.205h4.296v.613h-.614v-.204h-4.295v1.022l.613.41v-.614h.614v1.227l.409.818.614-.409v.614H33V28.5h2.455v.614l1.431 1.227h2.046l1.023 1.023h.818l.818-1.841-.614-.614h-.204v.818l-.614.614-1.432-.614-.204-1.432-3.068-2.045 2.659 1.227-.409-1.432L33.409 24l4.091 1.636-.205-1.022z"
          class="shadow"
          fill="#353535"
          opacity=".3"
        ></path>
        <path
          d="m37.295 24.614.205 1.022-1.023-.409-.613-.613-.409-.614zM37.705 26.045l.409 1.432-1.228-.613-.613-.819-4.909-3.068L33.409 24z"
          class="shadow"
          fill="#353535"
          opacity=".3"
        ></path>
        <path
          d="m37.705 26.045.409 1.432-1.228-.613-.613-.819.409-.409zM37.295 24.614l.205 1.022-1.023-.409-.409-.613.614-.205z"
          class="neutral1"
          fill="#2b2b2b"
        ></path>
        <path
          d="M33 28.5h.614l.409.818h.409l.409-.818h.614v.614h-.205v-.409h-.205l-.409 1.022h-.818l-.409-1.022h-.204v.409H33z"
          class="highlight"
          fill="#fefeff"
          opacity=".31"
        ></path>
        <path
          d="m40.159 30.341.614-.614v-.818h.204l.614.614-.818 1.841h-.818l-.41-.409zM35.455 29.114l1.431 1.227h-1.431z"
          class="shadow"
          fill="#353535"
          opacity=".3"
        ></path>
        <path
          d="M35.455 29.114v.613h.613v.614h.818z"
          class="neutral1"
          fill="#2b2b2b"
        ></path>
        <path
          d="m38.523 28.295.204 1.432.205.614h-.818l-1.841-1.636 1.636.818-.204-1.023-2.864-1.841h-4.5l-.205-.409h-1.431v-1.023L30.341 24h2.045l3.069 2.25z"
          class="shadow"
          fill="#353535"
          opacity=".3"
        ></path>
        <path
          d="m38.523 28.295.204 1.432.205.614h-.818l-1.841-1.636 1.636.818-.204-1.023-2.864-1.841h-4.5l-.205-.409h-1.431v-1.023L30.341 24h2.045l3.069 2.25z"
          class="shadow"
          fill="#353535"
          opacity=".3"
        ></path>
        <path
          d="m30.341 24-1.023.818v.409h1.023v1.023h.818V24zM31.568 24.614h.818v1.636h-.818zM32.591 24.614v1.636h.818v-1.023L33 24.614z"
          class="neutral1"
          fill="#2b2b2b"
        ></path>
        <path
          d="m8.455 24.614.204.204L10.705 24l2.863.205 7.364 1.636-7.364-2.25H10.5z"
          class="shadow"
          fill="#353535"
          opacity=".3"
        ></path>
        <path
          d="m8.455 24.614.204.204L10.705 24l2.863.205 7.364 1.636-7.364-2.25H10.5zM35.455 28.5v-.409h-1.432v-.614h-2.046v.614h-.818v1.227l.205.409v-1.432h.818v-.613h1.636v.613h1.432v.205z"
          class="shadow"
          fill="#353535"
          opacity=".3"
        ></path>
        <path
          d="M35.455 28.5v-.409h-1.432v-.614h-2.046v.614h-.818v1.227l.205.409v-1.432h.818v-.613h1.636v.613h1.432v.205z"
          class="shadow"
          fill="#353535"
          opacity=".3"
        ></path>
        <path
          d="M29.932 27.273h1.227v.818h-1.227zM28.705 26.864h.614v1.227h-.614z"
          class="shadow"
          fill="#353535"
          opacity=".3"
        ></path>
        <path
          d="M28.705 26.864h.614v1.227h-.614zM26.25 26.864h1.636v.818H26.25zM28.705 25.227l-.205.205h-3.273v1.023h.818v-.41h1.841v.205h.819z"
          class="shadow"
          fill="#353535"
          opacity=".3"
        ></path>
        <path
          d="M28.091 25.432h.205v.818h-.205zM26.045 26.045h1.841v-.613h-2.659zM24.818 26.864v-1.637l-.204-.204h-3.273l.409-.614h-.205l-.613.614.204.204v.205l-.204.409z"
          class="shadow"
          fill="#353535"
          opacity=".3"
        ></path>
        <path
          d="m24.818 26.25-3.682-.818-.204.409 3.886 1.023z"
          class="shadow"
          fill="#353535"
          opacity=".3"
        ></path>
        <path
          d="M31.871 31.364a3.883 3.883 0 0 1-3.878 3.886H11.727C8.561 35.25 6 32.689 6 29.523s2.561-5.727 5.727-5.727c.63 0 1.235.098 1.8.295l14.564 3.387a3.89 3.89 0 0 1 3.78 3.886"
          class="neutral1"
          fill="#2b2b2b"
        ></path>
        <path
          d="M11.932 24.409 28.5 28.295v3.887H11.932z"
          class="primary"
          fill="#367C2B"
        ></path>
        <path
          d="M11.932 32.182H28.5v2.659H11.932z"
          class="neutral2"
          fill="#808082"
        ></path>
        <circle
          cx="27.886"
          cy="31.364"
          r="3.477"
          class="neutral1"
          fill="#2b2b2b"
        ></circle>
        <path
          d="M11.932 24.409 28.5 28.295v1.023h-3.273l-1.432-.409V28.5h-1.431l-6.341-1.636z"
          class="shadow"
          fill="#353535"
          opacity=".3"
        ></path>
        <path
          d="m16.023 26.864 6.341 1.636-.205.818-5.727-1.432z"
          class="neutral1"
          fill="#2b2b2b"
        ></path>
        <path
          d="m22.364 28.5-.205.818.409.205V28.5z"
          class="neutral2"
          fill="#808082"
        ></path>
        <path
          d="M22.568 28.5h1.227v1.023h-1.227z"
          class="highlight"
          fill="#fefeff"
          opacity=".31"
        ></path>
        <path
          d="m16.432 27.886 5.727 1.432.409.205h-5.932zM11.932 24.409 28.5 28.295v1.023h-3.273l-1.432-.409V28.5h-1.431l-6.341-1.636z"
          class="shadow"
          fill="#353535"
          opacity=".3"
        ></path>
        <path
          d="m16.432 27.886 5.727 1.432.409.205h-5.932zM23.795 29.523l1.228.409-.205 2.25h-1.023z"
          class="shadow"
          fill="#353535"
          opacity=".3"
        ></path>
        <path
          d="m23.795 29.523 1.228.409-.205 2.25h-1.023zM21.955 29.727h1.636v1.432h-1.636zM21.75 31.364h2.045v.614H21.75z"
          class="shadow"
          fill="#353535"
          opacity=".3"
        ></path>
        <path
          d="M22.159 29.932h1.227v.205h-1.227zM22.159 31.159h1.227v.205h-1.227z"
          class="highlight"
          fill="#fefeff"
          opacity=".31"
        ></path>
        <path
          d="M22.159 30.341h.409v.818h-.409zM22.977 30.341h.409v.818h-.409zM22.159 31.364h.409v.614h-.409zM22.977 31.364h.409v.614h-.409z"
          class="neutral2"
          fill="#808082"
        ></path>
        <path
          d="m16.227 25.636 2.046.614.409 1.023-2.046-.614zM19.091 26.455l2.045.613.409 1.023-2.045-.614zM21.75 27.273l4.5.818-2.045.409-2.046-.409z"
          class="shadow"
          fill="#353535"
          opacity=".3"
        ></path>
        <path
          d="M17.25 31.364h.818v.818h-.818zM17.25 29.727h.818v.818h-.818zM20.318 29.727h.818v.818h-.818zM20.318 31.364h.818v.818h-.818zM18.477 29.523h.409v2.659h-.409z"
          class="highlight"
          fill="#fefeff"
          opacity=".31"
        ></path>
        <path
          d="M16.841 30.75h.409v-.205h.818v.205h.409v.409h-.409v.205h-.818v-.205h-.409zM19.909 30.75h.409v-.205h.818v.205h.409v.409h-.409v.205h-.818v-.205h-.409z"
          class="neutral1"
          fill="#2b2b2b"
        ></path>
        <circle
          cx="23.284"
          cy="29.011"
          r=".307"
          class="neutral2"
          fill="#808082"
        ></circle>
        <circle
          cx="17.659"
          cy="30.136"
          r=".205"
          class="neutral1"
          fill="#2b2b2b"
        ></circle>
        <circle
          cx="20.727"
          cy="30.136"
          r=".205"
          class="neutral1"
          fill="#2b2b2b"
        ></circle>
        <circle
          cx="17.25"
          cy="33.409"
          r="1.432"
          class="neutral1"
          fill="#2b2b2b"
        ></circle>
        <circle
          cx="17.25"
          cy="33.409"
          r="1.023"
          class="highlight"
          fill="#fefeff"
          opacity=".31"
        ></circle>
        <circle
          cx="20.114"
          cy="33.409"
          r="1.432"
          class="neutral1"
          fill="#2b2b2b"
        ></circle>
        <circle
          cx="20.114"
          cy="33.409"
          r="1.023"
          class="highlight"
          fill="#fefeff"
          opacity=".31"
        ></circle>
        <circle
          cx="22.977"
          cy="33.409"
          r="1.432"
          class="neutral1"
          fill="#2b2b2b"
        ></circle>
        <circle
          cx="22.977"
          cy="33.409"
          r="1.023"
          class="highlight"
          fill="#fefeff"
          opacity=".31"
        ></circle>
        <circle
          cx="17.25"
          cy="33.409"
          r="1.023"
          class="highlight"
          fill="#fefeff"
          opacity=".31"
        ></circle>
        <circle
          cx="20.114"
          cy="33.409"
          r="1.023"
          class="highlight"
          fill="#fefeff"
          opacity=".31"
        ></circle>
        <circle
          cx="22.977"
          cy="33.409"
          r="1.023"
          class="highlight"
          fill="#fefeff"
          opacity=".31"
        ></circle>
        <circle
          cx="22.977"
          cy="33.409"
          r=".614"
          class="neutral1"
          fill="#2b2b2b"
        ></circle>
        <circle
          cx="11.625"
          cy="29.625"
          r="5.216"
          class="neutral1"
          fill="#2b2b2b"
        ></circle>
        <circle
          cx="11.625"
          cy="29.625"
          r="4.807"
          class="secondary"
          fill="#FFDE00"
        ></circle>
        <circle
          cx="11.625"
          cy="29.625"
          r="4.398"
          class="shadow"
          fill="#353535"
          opacity=".3"
        ></circle>
        <circle
          cx="11.625"
          cy="29.727"
          r="3.886"
          class="secondary"
          fill="#FFDE00"
        ></circle>
        <circle
          cx="11.625"
          cy="29.625"
          r="3.17"
          class="highlight"
          fill="#fefeff"
          opacity=".31"
        ></circle>
        <circle
          cx="11.625"
          cy="29.625"
          r="1.739"
          class="neutral2"
          fill="#808082"
        ></circle>
        <circle
          cx="11.625"
          cy="29.625"
          r="1.125"
          class="secondary"
          fill="#FFDE00"
        ></circle>
        <circle
          cx="11.625"
          cy="29.625"
          r=".716"
          class="neutral1"
          fill="#2b2b2b"
        ></circle>
        <circle
          cx="27.989"
          cy="31.364"
          r="3.477"
          class="neutral1"
          fill="#2b2b2b"
        ></circle>
        <circle
          cx="27.989"
          cy="31.364"
          r="3.205"
          class="secondary"
          fill="#FFDE00"
        ></circle>
        <circle
          cx="27.989"
          cy="31.364"
          r="2.932"
          class="shadow"
          fill="#353535"
          opacity=".3"
        ></circle>
        <circle
          cx="27.989"
          cy="31.432"
          r="2.591"
          class="secondary"
          fill="#FFDE00"
        ></circle>
        <circle
          cx="27.989"
          cy="31.364"
          r="2.114"
          class="highlight"
          fill="#fefeff"
          opacity=".31"
        ></circle>
        <circle
          cx="27.989"
          cy="31.364"
          r="1.159"
          class="neutral2"
          fill="#808082"
        ></circle>
        <circle
          cx="27.989"
          cy="31.364"
          r=".75"
          class="secondary"
          fill="#FFDE00"
        ></circle>
        <path
          d="M24.818 25.227v.205H28.5l.205-.205L30.341 24h1.636l-1.841-.205-1.841 1.432z"
          class="highlight"
          fill="#fefeff"
          opacity=".31"
        ></path>
        <circle
          cx="17.25"
          cy="33.409"
          r=".614"
          class="neutral1"
          fill="#2b2b2b"
        ></circle>
        <circle
          cx="20.114"
          cy="33.409"
          r=".614"
          class="neutral1"
          fill="#2b2b2b"
        ></circle>
        <path
          d="M33 30.341V28.5h2.25v-.205h-1.432v-.613h-1.636v.613h-.818v1.432l.204.409.614-.409v.614z"
          class="shadow"
          fill="#353535"
          opacity=".3"
        ></path>
      </g></svg>
