<svg xmlns="http://www.w3.org/2000/svg"
        class="css-9txd9r"
        focusable="false"
        viewBox="0 0 48 48"
        data-icon-name="TractorStandOnSw635m"
      >
        <path
          id="TractorStandOnSw635m__outline"
          d="m47.792 39.356-.75-1.5-1.862-3.957-.411-2.465.195-1.954.243-.606 1.96-1.96q.23-.23.375-.52l.25-.5a2 2 0 0 0-.375-2.309l-1.5-1.5a2 2 0 0 0-1.414-.586h-.672l-.164-.164a2 2 0 0 0-1.414-.586h-1a2 2 0 0 0-1.414.586l-.25.25-.041.042a2 2 0 0 0-1.295 1.872v1.25c0 .265.052.519.146.751a2 2 0 0 0-.081.245l-1.5 5.75s0 .004-.002.006h-1.813v-2.314q.205-.052.394-.148l.5-.25A2 2 0 0 0 37.003 27v-5c0-.31-.072-.617-.211-.894l-.25-.5a2 2 0 0 0-.375-.52l-.25-.25a2 2 0 0 0-.914-.522v-3.813c0-.718-.385-1.38-1.008-1.737l-3.5-2a2 2 0 0 0-.992-.263h-3.25v-.75a2 2 0 0 0-2-2h-.677a2 2 0 0 0-1.073-.485V7.251c0-.51-.191-.976-.505-1.329a2.754 2.754 0 0 0-2.745-2.921c-1.299 0-2.39.905-2.677 2.117l-.706.235a2 2 0 0 0-1.261 1.254l-.739.246a2 2 0 0 0-1.297 2.424l.025.091a2 2 0 0 0-.259.219l-.25.25a2 2 0 0 0-.586 1.414v.202a2 2 0 0 0-.725.598l-.375.5a2 2 0 0 0-.238.412l-.477 1.113-1.299 1.213a2 2 0 0 0-.424.568l-.13.259c-.367.13-.692.366-.931.685l-.75 1c-.26.346-.4.767-.4 1.2v5.5q0 .124.015.247l-.836 1.253h-2.68a2 2 0 0 0-2 2v2.25c0 .335.082.651.228.928l-.142.213a2 2 0 0 0 .059 2.303 8.5 8.5 0 0 0-.395 2.556c0 4.686 3.814 8.499 8.5 8.499 3.266 0 6.213-1.892 7.622-4.75h1.273c.287.71.97 1.217 1.775 1.248l.416.416c.372.372.875.582 1.4.586a8.43 8.43 0 0 0 6.014 2.5c3.773 0 7.039-2.519 8.117-6h1.633c.405 0 .793-.122 1.119-.342a2.01 2.01 0 0 0 1.881.827v.766a2 2 0 0 0 2 2h1.189a2 2 0 0 0 1.561.75h1.5a2 2 0 0 0 2-2v-.5c0-.31-.072-.617-.211-.894Z"
          class="outline"
          fill="#fff"
        ></path>
        <g id="TractorStandOnSw635m__sketches">
          <path
            d="m14.003 12.25-.5-.5v-.5l.25-.25h.5l.75.75z"
            class="accent2"
            fill="#f5911e"
          ></path>
          <path
            d="m15.253 11.5-.75-2.75.75-.25 1 3zM17.003 10.75l-.5-3.5.75-.25.25.25.5 3.75zM34.003 33.5h2.75l.5.75h2.25V36h-2.25l-.5.75h-2.75z"
            class="neutral1"
            fill="#2b2b2b"
          ></path>
          <path
            d="m12.003 19.5 1.4-5 .35-1.25.25-1 1.25-1 2.25-1h4.75v6.25h-1.5v-.25h-.75V20h-8z"
            class="primary"
            fill="#367C2B"
          ></path>
          <path
            d="M20.003 20h-8v-.5l1.4-5 .35-1.25h4.25v2.5h2.75v.5h-.75z"
            class="shadow"
            fill="#353535"
            opacity=".3"
          ></path>
          <path
            d="M20.003 18.5h-2.5v-4h-4.1l.35-1.25h4.25v2.5h2.75v.5h-.75zM20.753 10.25h1.5v6.25h-1.5z"
            class="shadow"
            fill="#353535"
            opacity=".3"
          ></path>
          <path
            d="M2.253 28h30.75v10h-30.5l-.25-3 .5-1.25v-1l-.75-.25 1.5-2.25h-1.25zM6.003 28l2-3 1.75-2.5v-1.25h11.75V28z"
            class="primary"
            fill="#367C2B"
          ></path>
          <path
            d="m12.003 19.5.5.5h.25l.25-.5h.5V19l-.5-.5V17l.75-.75h2l.75.75v1.5l-.5.5v.5h.5l.25.25.25-.25h.25v-1.25l.25-.25h.5l.5.5h.5l.25-.5h1.5l.5.5v2.75h-11.5v1.25L8.003 25l-.25-.5V19l.75-1h1.5l.5.5.5-.5h.5l.25.25v1.25z"
            class="neutral1"
            fill="#2b2b2b"
          ></path>
          <path
            d="M18.753 6.25h1v4.5h-1z"
            class="neutral2"
            fill="#808082"
          ></path>
          <path
            d="M20.003 7.25h.5v3h-.5zM18.253 10.75h2v1h-2z"
            class="neutral1"
            fill="#2b2b2b"
          ></path>
          <circle
            cx="19.253"
            cy="5.75"
            r=".75"
            class="neutral1"
            fill="#2b2b2b"
          ></circle>
          <path
            d="M22.253 11h.75l.25-.25h1V12h-1l-.25-.25h-.75z"
            class="neutral1"
            fill="#2b2b2b"
          ></path>
          <path
            d="M21.003 11v2.5h.75l.75-.5v-1.75l-.75-.25z"
            class="secondary"
            fill="#FFDE00"
          ></path>
          <path
            d="M22.503 11.25h-.75V13l-.75.5h.75l.75-.5z"
            class="shadow"
            fill="#353535"
            opacity=".3"
          ></path>
          <path
            d="m21.753 11.25-.75-.25v2.5l.75-.5zM20.753 11.75h-2.75l-4 .5-.25 1h4.25v2.5h2.75z"
            class="highlight"
            fill="#fefeff"
            opacity=".31"
          ></path>
          <path
            d="M10.003 18h-.5v-.75l.25-.5 1.608-1.5.642-1.5.375-.5 1.515-.5-1.89 6.75h-.25v-1.25l-.25-.25h-.5l-.5.5z"
            class="secondary"
            fill="#FFDE00"
          ></path>
          <path
            d="M10.003 18v-.5l.25-.5 1.75-1.5.5-1.5.5-.5.75-.25-1.75 6.25h-.25v-1.25l-.25-.25h-.5l-.5.5z"
            class="shadow"
            fill="#353535"
            opacity=".3"
          ></path>
          <path
            d="M7.753 22.25h.25v-3l.5-.75h1l.25.25v1l.25.5V18h-1.5l-.75 1zM10.503 18.5v1.75l.25-.5v-1l.5-.5h.5l-.25-.25h-.5z"
            class="highlight"
            fill="#fefeff"
            opacity=".31"
          ></path>
          <path
            d="M12.003 19.5h-.5v1.25h.5l.5-.5h4l.5.5h.5V19.5h-.5l-.5.5h-4z"
            class="neutral2"
            fill="#808082"
          ></path>
          <path
            d="M18.503 18.5v1.75l-.25-.5v-1l-.5-.5h-.5l.25-.25h.5zM21.253 21.25h-.25v-2.5l-.5-.25h-.75l-.25.25v1l-.25.5V18h1.5l.5.5z"
            class="highlight"
            fill="#fefeff"
            opacity=".31"
          ></path>
          <path
            d="M9.753 21.25h11.75v1H9.753z"
            class="shadow"
            fill="#353535"
            opacity=".3"
          ></path>
          <path
            d="M9.753 22.5 8.003 25l2.25-2h10.5v1.75h.25V28h.5v-5.75H9.753z"
            class="highlight"
            fill="#fefeff"
            opacity=".31"
          ></path>
          <path
            d="M12.503 23h8.25v1.25h-6.25z"
            class="stripe"
            fill="#FFDE00"
          ></path>
          <path
            d="M20.753 24.75h.25V28h-15l14.25-1zM6.503 28.5v1.75h-3l-1.5 2.25.75.25v1l-.5 1.25.25 3h30.5v-9.5h-5l-1.458 1.75H9.753l-1.25-1.75z"
            class="shadow"
            fill="#353535"
            opacity=".3"
          ></path>
          <path
            d="M6.503 28.5v1.75h-3l-1.5 2.25.75.25v1h30.25V28.5h-5l-1.458 1.75H9.753l-1.25-1.75z"
            class="shadow"
            fill="#353535"
            opacity=".3"
          ></path>
          <path
            d="M6.503 28.5v1.75h-3l-1.5 2.25.75.25v1h27.75v-3.5l-1-1.75h-1.5l-1.458 1.75H9.753l-1.25-1.75z"
            class="shadow"
            fill="#353535"
            opacity=".3"
          ></path>
          <path
            d="M9.003 28.25h18v.5h-18z"
            class="highlight"
            fill="#fefeff"
            opacity=".31"
          ></path>
          <circle
            cx="17.003"
            cy="14.5"
            r=".75"
            class="neutral2"
            fill="#808082"
          ></circle>
          <circle
            cx="19.503"
            cy="14.75"
            r=".5"
            class="neutral2"
            fill="#808082"
          ></circle>
          <circle
            cx="36.003"
            cy="34.25"
            r=".5"
            class="neutral2"
            fill="#808082"
          ></circle>
          <circle
            cx="16.253"
            cy="35.5"
            r=".5"
            class="neutral2"
            fill="#808082"
          ></circle>
          <circle
            cx="25.253"
            cy="29.5"
            r=".5"
            class="neutral2"
            fill="#808082"
          ></circle>
          <circle
            cx="10.503"
            cy="29.5"
            r=".5"
            class="neutral2"
            fill="#808082"
          ></circle>
          <circle
            cx="16.253"
            cy="37.25"
            r=".5"
            class="neutral2"
            fill="#808082"
          ></circle>
          <circle
            cx="18.253"
            cy="37.25"
            r=".5"
            class="neutral2"
            fill="#808082"
          ></circle>
          <circle
            cx="36.003"
            cy="36"
            r=".5"
            class="neutral2"
            fill="#808082"
          ></circle>
          <path
            d="M20.753 13.75h1.25v2.75h-1.25z"
            class="neutral2"
            fill="#808082"
          ></path>
          <path
            d="M21.503 23.25h5.75V28h-5.75z"
            class="neutral1"
            fill="#2b2b2b"
          ></path>
          <circle
            cx="4.253"
            cy="29.25"
            r=".5"
            class="neutral1"
            fill="#2b2b2b"
          ></circle>
          <path
            d="M31.503 29h.75v1.75h-.75z"
            class="neutral1"
            fill="#2b2b2b"
          ></path>
          <path
            d="M19.003 32.5h1.5v3.75h-1.5z"
            class="neutral2"
            fill="#808082"
          ></path>
          <path
            d="M19.003 32.5h1.5v3.75h-1.5z"
            class="shadow"
            fill="#353535"
            opacity=".3"
          ></path>
          <path
            d="M18.503 33.75h2.25v1.5h-2.25z"
            class="neutral2"
            fill="#808082"
          ></path>
          <path
            d="M19.003 36.25V38h.25v1.25h.75l1 1h1.25v-4z"
            class="neutral1"
            fill="#2b2b2b"
          ></path>
          <path
            d="M19.003 36.25V38h.25v1.25h.75l1 1h1.25v-4z"
            class="highlight"
            fill="#fefeff"
            opacity=".31"
          ></path>
          <path
            d="M33.003 33.5h1v3.25h-1z"
            class="neutral2"
            fill="#808082"
          ></path>
          <path
            d="m38.253 34.25.25-1 .25-1.25 1.5-5.75h.5l1 .25.5.25-1.25 4.75v2.75z"
            class="neutral1"
            fill="#2b2b2b"
          ></path>
          <path
            d="m38.253 34.25.5-2.25h.5l-.25 1.75h1.5v.5z"
            class="highlight"
            fill="#fefeff"
            opacity=".31"
          ></path>
          <path
            d="M39.503 34.25V35l-1 .75 1 1.5.75-.5h1.25l.25.5V40h1.75v-1.25h1.75l-2-4.25-.5-3 .25-2.5.5-1.25 2.25-2.25.25-.5-1.5-1.5h-4.25v1.25h1.25l.5.75.5.25-2 2.25v.5l.5 5.75z"
            class="accent1"
            fill="#e21936"
          ></path>
          <path
            d="m44.503 23.5-4 4.5v.5l4-4.5.75 1 .25.25.25.25.25-.5z"
            class="highlight"
            fill="#fefeff"
            opacity=".31"
          ></path>
          <path
            d="m42.503 25.75 2-2.25h-4.25v1.25h1.25l.5.75zM45.503 25.25l-2.25 2.25-.75 1.25-.25 2.75.5 3.25 1.75 3.5h-1.75v.5h.75v.5h-1.25v-1.5h1.25v-.5l-1.25-2.5-.5-3.25v-3l1-1.5 2.5-2zM41.253 36.75l-.25-2.5h-1.5V35l-1 .75 1 1.5.75-.5z"
            class="shadow"
            fill="#353535"
            opacity=".3"
          ></path>
          <path
            d="M43.503 38.75v.5l1 1.5h1.5v-.5l-.75-1.5z"
            class="neutral1"
            fill="#2b2b2b"
          ></path>
          <path
            d="m18.503 35.25-1.5.75v2h.75v-1.5l1.25-.75v-.5z"
            class="shadow"
            fill="#353535"
            opacity=".3"
          ></path>
          <circle
            cx="42.503"
            cy="36.75"
            r=".5"
            class="shadow"
            fill="#353535"
            opacity=".3"
          ></circle>
          <circle
            cx="41.253"
            cy="29"
            r=".5"
            class="shadow"
            fill="#353535"
            opacity=".3"
          ></circle>
          <path
            d="M42.503 23.5h-1.5V23l.25-.25h1l.25.25zM41.003 24.75l-.25 1.5 1 .25.25-1-.5-.75z"
            class="neutral2"
            fill="#808082"
          ></path>
          <path
            d="m13.753 16.25.25.75h1.563l.187-.75h-.25l-.25.5h-1l-.25-.5zM13.003 17l.75.25v1l-.75.25v-.25l.5-.25v-.5l-.5-.25zM13.753 19.5l.25-.75h1.563l.187.75h-.25l-.25-.5h-1l-.25.5zM16.503 17l-.75.25v1l.75.25v-.25l-.5-.25v-.5l.5-.25z"
            class="highlight"
            fill="#fefeff"
            opacity=".31"
          ></path>
          <path
            d="M23.003 16.5v6.75l3.25 4h1V28h3.75v-.75h3.5l.5-.25v-5l-.25-.5-.25-.25h-1.5V16.5z"
            class="neutral2"
            fill="#808082"
          ></path>
          <path
            d="M23.003 16.5V20l1.25 1.75 3 2-2.75-2.5-1-1.5V16.5z"
            class="highlight"
            fill="#fefeff"
            opacity=".31"
          ></path>
          <path
            d="M23.003 20v3.25l3.25 4h1v-3.5l-3-2zM23.503 16.5h9.5v1h-9.5z"
            class="shadow"
            fill="#353535"
            opacity=".3"
          ></path>
          <circle
            cx="31.753"
            cy="20.75"
            r=".5"
            class="shadow"
            fill="#353535"
            opacity=".3"
          ></circle>
          <circle
            cx="31.753"
            cy="18.5"
            r=".5"
            class="shadow"
            fill="#353535"
            opacity=".3"
          ></circle>
          <path
            d="m34.503 21.25-5 2.25V28h1v-4l4.5-2-.25-.5z"
            class="highlight"
            fill="#fefeff"
            opacity=".31"
          ></path>
          <path
            d="m35.003 22-4.5 2v4h.5v-3.75l4-1.75z"
            class="shadow"
            fill="#353535"
            opacity=".3"
          ></path>
          <path
            d="m31.753 24.5.75-.5h1.75v2l-.75.75h-1l-.75-.75z"
            class="shadow"
            fill="#353535"
            opacity=".3"
          ></path>
          <circle
            cx="32.253"
            cy="24.75"
            r=".25"
            class="shadow"
            fill="#353535"
            opacity=".3"
          ></circle>
          <circle
            cx="32.253"
            cy="25.75"
            r=".25"
            class="shadow"
            fill="#353535"
            opacity=".3"
          ></circle>
          <circle
            cx="33.753"
            cy="24.75"
            r=".25"
            class="shadow"
            fill="#353535"
            opacity=".3"
          ></circle>
          <circle
            cx="33.753"
            cy="25.75"
            r=".25"
            class="shadow"
            fill="#353535"
            opacity=".3"
          ></circle>
          <circle
            cx="33.003"
            cy="26.25"
            r=".25"
            class="shadow"
            fill="#353535"
            opacity=".3"
          ></circle>
          <circle
            cx="24.503"
            cy="25.875"
            r="1.625"
            class="neutral2"
            fill="#808082"
          ></circle>
          <path
            d="M21.753 22.75h1.25V21.5h-.25v-4.25h-.75v-.75h-1v1.25h.75zM25.503 16.5v1.25h-.5l.25.75h.25v.75h-.5V20h1.75v-.75h-.5v-.75h.25l.25-.75h-.5V16.5zM22.753 16.5v-1.25h.5l2.75-1.75h3.5l3.5 2v1z"
            class="neutral1"
            fill="#2b2b2b"
          ></path>
          <path
            d="M25.003 16.5v-1.25h1.75v1.25h-.25v-1h-1.25v1zM23.753 15.25l2-1.25h.25v.25l-1.75 1zM29.503 13.75l3 1.75h-.75l-2.5-1.5v-.25zM27.753 14l.25 1.75 1.25.5h-1.5z"
            class="highlight"
            fill="#fefeff"
            opacity=".31"
          ></path>
          <circle
            cx="8.503"
            cy="36.25"
            r="6.5"
            class="neutral1"
            fill="#2b2b2b"
          ></circle>
          <circle
            cx="8.503"
            cy="36.25"
            r="3.421"
            class="secondary"
            fill="#FFDE00"
          ></circle>
          <circle
            cx="8.503"
            cy="36.25"
            r="2.737"
            class="shadow"
            fill="#353535"
            opacity=".3"
          ></circle>
          <circle
            cx="8.503"
            cy="36.25"
            r="1.368"
            class="shadow"
            fill="#353535"
            opacity=".3"
          ></circle>
          <circle
            cx="27.003"
            cy="36.25"
            r="6.5"
            class="neutral1"
            fill="#2b2b2b"
          ></circle>
          <circle
            cx="27.003"
            cy="36.25"
            r="3.421"
            class="secondary"
            fill="#FFDE00"
          ></circle>
          <circle
            cx="27.003"
            cy="36.25"
            r="2.737"
            class="shadow"
            fill="#353535"
            opacity=".3"
          ></circle>
          <circle
            cx="27.003"
            cy="36.25"
            r="1.368"
            class="shadow"
            fill="#353535"
            opacity=".3"
          ></circle>
          <circle
            cx="8.503"
            cy="34.25"
            r=".5"
            class="shadow"
            fill="#353535"
            opacity=".3"
          ></circle>
          <circle
            cx="8.503"
            cy="38.25"
            r=".5"
            class="shadow"
            fill="#353535"
            opacity=".3"
          ></circle>
          <circle
            cx="10.503"
            cy="36.25"
            r=".5"
            class="shadow"
            fill="#353535"
            opacity=".3"
          ></circle>
          <circle
            cx="6.503"
            cy="36.25"
            r=".5"
            class="shadow"
            fill="#353535"
            opacity=".3"
          ></circle>
          <circle
            cx="27.003"
            cy="34.25"
            r=".5"
            class="shadow"
            fill="#353535"
            opacity=".3"
          ></circle>
          <circle
            cx="27.003"
            cy="38.25"
            r=".5"
            class="shadow"
            fill="#353535"
            opacity=".3"
          ></circle>
          <circle
            cx="29.003"
            cy="36.25"
            r=".5"
            class="shadow"
            fill="#353535"
            opacity=".3"
          ></circle>
          <circle
            cx="25.003"
            cy="36.25"
            r=".5"
            class="shadow"
            fill="#353535"
            opacity=".3"
          ></circle>
        </g></svg
    ></span>
  </div>
  <div class="icons-list-group tw-pl-[10px] tw-pr-[10px] tw-mt-[5px]">
    <span
      class="tw-border-[transparent] tw-border-[1px] tw-border-solid tw-rounded tw-inline-block tw-m-[10px]"
      data-testid="span-binder-agent-spreader"
      tabindex="1"
      ><svg
        class="css-9txd9r"
        focusable="false"
        viewBox="0 0 32 32"
        data-icon-name="BinderAgentSpreader"
      >
        <path
          id="BinderAgentSpreader__outline"
          d="M25.6 26.4c-1.1 0-2.1-.5-2.7-1.4h-7.6c-.2 0-.3 0-.5-.1-.6.9-1.5 1.5-2.7 1.5s-2.2-.7-2.8-1.6c-.5 1-1.6 1.6-2.8 1.6-1 0-1.9-.5-2.5-1.2-.2.2-.4.3-.7.3H2c-.8 0-1.5-.7-1.5-1.5v-2.8c-.1 0-.2-.1-.2-.2-.2-.2-.3-.5-.3-.7V7.6c0-.7.6-1.4 1.4-1.4h19.5c.8 0 1.4.6 1.4 1.4V8h5.8c.9 0 1.8.9 2 1.1.7 1 1.7 3 1.8 3.1s.1.3.1.4v11.6c0 1-.9 1-1.7 1-.6 0-1.4 0-2.2-.1-.6.9-1.5 1.3-2.5 1.3"
          class="outline"
          fill="#FFFFFF"
        ></path>
        <g id="BinderAgentSpreader__main_shape">
          <path
            d="M22.9 24h-7.6v-1.5l-2.2-1.1-1-1.6h10.8z"
            class="primary"
            fill="#FFFFFF"
          ></path>
          <path
            d="M22.4 20.3v3.3h-6.7v-1.3l-.3-.1-2-1.2-.5-.8zm.5-.5H12.1l1 1.6 2.2 1.1V24h7.6z"
            class="quinary"
            fill="gray"
          ></path>
          <path d="M3.7 20.3h18.7v2.5H3.7z" class="quinary" fill="gray"></path>
          <path
            d="M3.7 20.3h18.7v2.5H3.7z"
            class="shadow"
            opacity=".3"
            fill="#333"
          ></path>
          <path
            d="M1.3 7.6v12.3l19.8.2V7.5zM22.7 9.3v11h8v-7.6l-1.7-3-.7-.4z"
            class="primary"
            fill="#FFFFFF"
          ></path>
          <path
            d="M21.3 20.3V7.7c0-.2-.2-.4-.4-.4H1.4c-.2 0-.4.1-.4.3v12.7z"
            class="primary"
            fill="#FFFFFF"
          ></path>
          <path
            d="M22.5 18.9h-21v-.5l21 .1zM20.9 12.3l-19.4.1V12h19.4zM30.6 24.1l-7.7-.1v-4.2h7.7zM3.4 24.4H2c-.3 0-.5-.2-.5-.5v-3.7h1.8v4.2z"
            class="quinary"
            fill="gray"
          ></path>
          <path
            d="M25.2 16.7h-.9s-.1 0-.1-.1v-.4s0-.1.1-.1h.9s.1 0 .1.1z"
            class="senary"
            fill="#333"
          ></path>
          <path
            d="M23 9.5h5.2c.2 0 .7.3.8.5.5.8 1.4 2.4 1.6 2.8v11h-.2c-1 0-2.8 0-3.8-.2h-.1l-3.5-.1zm-.3-.5c-.1 0-.2.1-.2.2V24l3.9.1c1.1.2 2.9.2 3.9.2h.7V12.7s-1-2.1-1.7-3c-.1-.2-.8-.7-1.2-.7z"
            class="quinary"
            fill="gray"
          ></path>
          <path
            d="M29 13.7h-5v-3.3h3.7c.2 0 .4.3.5.5l.8 1.4z"
            class="window"
            opacity=".3"
            fill="#5dc9e8"
          ></path>
          <circle
            cx="25.6"
            cy="23.1"
            r="2.3"
            class="senary"
            fill="#333"
          ></circle>
          <circle
            cx="25.6"
            cy="23.1"
            r="1.2"
            class="highlight"
            opacity=".3"
            fill="#fff"
          ></circle>
          <path
            d="M3.7 17.9v-5l17.1.1v4.9zM1.8 17.9v-5l1.5.1.1 4.9z"
            class="shadow"
            opacity=".3"
            fill="#333"
          ></path>
          <path
            d="M4 23.1c0-1.3 1.1-2.5 2.6-2.5s2.7 1.3 2.6 2.5"
            class="highlight"
            opacity=".3"
            fill="#fff"
          ></path>
          <circle
            cx="6.6"
            cy="23.2"
            r="2.2"
            class="senary"
            fill="#333"
          ></circle>
          <circle
            cx="6.6"
            cy="23.2"
            r="1.1"
            class="highlight"
            opacity=".3"
            fill="#fff"
          ></circle>
          <path
            d="M9.5 23.1c0-1.3 1.1-2.5 2.6-2.5s2.7 1.3 2.6 2.5"
            class="highlight"
            opacity=".3"
            fill="#fff"
          ></path>
          <circle
            cx="12.1"
            cy="23.2"
            r="2.2"
            class="senary"
            fill="#333"
          ></circle>
          <circle
            cx="12.1"
            cy="23.2"
            r="1.1"
            class="highlight"
            opacity=".3"
            fill="#fff"
          ></circle>
          <circle
            cx="12.1"
            cy="23.2"
            r="1.1"
            class="highlight"
            opacity=".3"
            fill="#fff"
          ></circle>
          <circle
            cx="12.1"
            cy="23.2"
            r=".5"
            class="shadow"
            opacity=".3"
            fill="#333"
          ></circle>
          <circle
            cx="6.6"
            cy="23.2"
            r="1.1"
            class="highlight"
            opacity=".3"
            fill="#fff"
          ></circle>
          <circle
            cx="6.6"
            cy="23.2"
            r=".5"
            class="shadow"
            opacity=".3"
            fill="#333"
          ></circle>
          <path
            d="M1.5 7.7h19.3v12H1.5zm-.1-.4c-.2 0-.4.1-.4.3v12.7h20.3V7.7c0-.2-.2-.4-.4-.4z"
            class="quinary"
            fill="gray"
          ></path>
          <circle
            cx="25.6"
            cy="23.1"
            r="1.2"
            class="highlight"
            opacity=".3"
            fill="#fff"
          ></circle>
          <circle
            cx="25.6"
            cy="23.1"
            r=".5"
            class="shadow"
            opacity=".3"
            fill="#333"
          ></circle>
        </g></svg>
