<svg xmlns="http://www.w3.org/2000/svg"
        class="css-9txd9r"
        focusable="false"
        viewBox="0 0 48 48"
        data-icon-name="TractorHighCropOpen"
      >
        <path
          id="TractorHighCropOpen__outline"
          d="m40.399 25.91.656-3.445c.082-.431.02-.876-.176-1.269l-.364-.727a2 2 0 0 0-1.105-.985l-2-.727a2 2 0 0 0-.303-.084l-5.636-1.091a2 2 0 0 0-.38-.036h-2.364V16.15a2 2 0 0 0 .325-.758l.182-.909a2 2 0 0 0-2.29-2.366l-1.091.182a2 2 0 0 0-1.233.723l-.727.909a2 2 0 0 0-.431 1.077 2 2 0 0 0-1.141.232 2 2 0 0 0-.983 1.25l-.517 1.964h-.086l-.152-.379a2 2 0 0 0-.321-.538l-.909-1.091a2 2 0 0 0-1.536-.72h-.154l-.383-5.237a2 2 0 0 0-.631-1.317l-.195-.182a2 2 0 0 0-1.363-.537h-.545c-.507 0-.996.193-1.366.539l-.194.182c-.37.346-.594.818-.629 1.323l-.307 4.445-.495.594a2 2 0 0 0-.464 1.28v.182c0 .343.088.672.246.961l-.389.13h-.221a2 2 0 0 0-2 2v.275a2 2 0 0 0-.306.315l-1.273 1.636a2 2 0 0 0 .165 2.642l.182.182q.197.197.44.332A8.65 8.65 0 0 0 6 30.906c0 4.762 3.874 8.636 8.636 8.636 3.617 0 6.745-2.267 8.021-5.455h2.07q.305-.001.582-.086c1.254 3.233 4.405 5.541 8.054 5.541 4.762 0 8.636-3.874 8.636-8.636a8.6 8.6 0 0 0-1.601-4.999Z"
          class="outline"
          fill="#fff"
        ></path>
        <g id="TractorHighCropOpen__icon">
          <path
            d="m20.545 21.364 1.273.363v.364h-1.636l-.546-.546z"
            class="secondary"
            fill="#FFDE00"
          ></path>
          <path
            d="M20.182 22.091h1.636v.545h-1.636z"
            class="neutral1"
            fill="#2b2b2b"
          ></path>
          <path
            d="M20.364 22.636h1.455v1.818h-1.455z"
            class="primary"
            fill="#367C2B"
          ></path>
          <path
            d="M20.364 22.636h1.455v1.818h-1.455z"
            class="shadow"
            fill="#353535"
            opacity=".3"
          ></path>
          <path
            d="M19.273 20.455h2.182v.363l-.91.546-.909.181-.545-.727z"
            class="neutral1"
            fill="#2b2b2b"
          ></path>
          <path
            d="M24.727 26.455v-1.818h-3.091l-1.455-2.545-1.091-1.273-1.818-.727h-4.545l-.364.182-1.091.727-.545.545 2-.909h4l1.818.727 1.273 1.091 1.455 2.182-.545.364-1.091-1.818-1.091-.909-1.636-.909h-4l-2.182 1.091-1.455 1.455.545.364 11.455 6.727h1.273v1.091h2.182v-4.182h.364l-.364-1.455Zm-.545 5.09h-1.091V31h1.091zM26.909 30.273v-2.364h-.182l.728-1.454v-4.364l-.546-.546-.182-.181v-1.819h4.364l5.636 1.091 2 .728.364.727-4-.364.545 1.818 2.728 2.364v1.273l-9.091 3.091z"
            class="primary"
            fill="#367C2B"
          ></path>
          <path
            d="m35.091 21.727 4 .364-.727 3.818-2.728-2.364zM25.273 19.909v-4h.182v-.727l.727-.909 1.091-.182-.182.909-.364.182-.182.363v.364h.182v5.455l.728.727v4.364l-.728 1.454h.182V31h-2.182v-3.091h.364l-.364-1.454v-4.364l.546-.727v-1.455"
            class="neutral1"
            fill="#2b2b2b"
          ></path>
          <path
            d="m25.273 21.364-.546.727h2.728l-.728-.727zM25.455 22.455h1.091v3.636h-1.091zM27.091 22.455h.182v3.636h-.182zM24.909 22.455h.182v3.636h-.182zM25.455 26.273h1.09v1.454l-.363-1.091h-.364l-.363 1.091zM24.727 27.909h2.182v2.364l-.545-1.818h-1.637zM26.727 19.545v.546h4.364l5.636.909 2 .364-2-.728-5.636-1.091z"
            class="highlight"
            fill="#fefeff"
            opacity=".31"
          ></path>
          <path
            d="M26.727 20.273h4.364l5.818 1.091.182.181-6.364-1.09h-4z"
            class="shadow"
            fill="#353535"
            opacity=".3"
          ></path>
          <path
            d="M26.727 20.455v.909h2l.364-.364H32l5.091.727v-.182l-6.364-1.09z"
            class="stripe"
            fill="#FFDE00"
          ></path>
          <path
            d="m37.455 22.273 1.272.182-.363 1.272z"
            class="neutral3"
            fill="#f2f2f2"
          ></path>
          <path
            d="M31.273 21.364h.909l.545 2.181h-.909zM32.545 21.364h.91L34 23.545h-.909z"
            class="neutral1"
            fill="#2b2b2b"
          ></path>
          <path
            d="M29.091 21.364h2.182l.545 2.181h.909l-.545-2.181h.363l.546 2.181h2.545l-.363.182 3.091 2.364v1.091l-6.546-3.091v-.364h-4.363v-.182l4-.363-.364-1.455z"
            class="shadow"
            fill="#353535"
            opacity=".3"
          ></path>
          <path
            d="M27.455 23.545h8.181l-.363.182h-7.818z"
            class="shadow"
            fill="#353535"
            opacity=".3"
          ></path>
          <path
            d="M27.455 23.909H30l.727 1.273-.363-.182-.546-.909h-2.363z"
            class="highlight"
            fill="#fefeff"
            opacity=".31"
          ></path>
          <path
            d="M27.455 24.091h2.363l.546.909-.728.364v.363l-.363-.545h-1.818z"
            class="shadow"
            fill="#353535"
            opacity=".3"
          ></path>
          <path
            d="m29.818 24.091.546.909-.728.364-.363-.546h-1.818v-.727z"
            class="shadow"
            fill="#353535"
            opacity=".3"
          ></path>
          <path
            d="m9.273 23.909 1.454-1.454 2.182-1.091h4l1.636.909 1.091.909L20.727 25l.364-.182.182-.182-1.455-2.181-1.273-1.091-1.818-.728h-4l-2 .909-.727.364-1.273 1.636.182.182z"
            class="neutral1"
            fill="#2b2b2b"
          ></path>
          <path
            d="M8.727 23.545 10 21.909l.727-.364 2-.909h4l1.818.728 1.273 1.091 1.455 2.181-.182.182-1.455-2.182-1.272-1.091-1.637-.727h-4l-1.818.909-.727.364-1.273 1.636z"
            class="highlight"
            fill="#fefeff"
            opacity=".31"
          ></path>
          <path
            d="m12.727 20.091-.363.182h4.727l1.818.727L20 22.273l1.273 2.363h.363l-1.454-2.545-1.091-1.273-1.818-.727z"
            class="highlight"
            fill="#fefeff"
            opacity=".31"
          ></path>
          <path
            d="m21.091 24.818.182-.182h3.454v.182z"
            class="shadow"
            fill="#353535"
            opacity=".3"
          ></path>
          <path
            d="m9.273 23.909 1.454-1.454 2.182-1.091h4l1.636.909 1.091.909L20.727 25l.364-.182.182.364h1.272V31h-1.272z"
            class="shadow"
            fill="#353535"
            opacity=".3"
          ></path>
          <path
            d="m9.273 23.909 1.454-1.454 2.182-1.091h4l1.636.909 1.091.909L20.727 25l.364-.182.182.364 1.272 3.273V31h-1.272z"
            class="shadow"
            fill="#353535"
            opacity=".3"
          ></path>
          <path
            d="M22.545 25.182v6.909h2.182v-6.909zm1.637 6.363h-1.091v-1.091h1.091zm0-1.636h-1.091v-1.091h1.091zm0-1.636h-1.091v-1.091h1.091zm0-1.637h-1.091v-1.091h1.091z"
            class="highlight"
            fill="#fefeff"
            opacity=".31"
          ></path>
          <path
            d="M23.091 30.455h1.091V31h-1.091zM23.091 28.818h1.091v1.091h-1.091z"
            class="neutral1"
            fill="#2b2b2b"
          ></path>
          <path
            d="M23.091 25.545h1.091v.545h-1.091zM23.091 27.182h1.091v.545h-1.091zM26.909 30.273v-.546L30 28.818l-.727 1.455z"
            class="shadow"
            fill="#353535"
            opacity=".3"
          ></path>
          <path
            d="M29.273 30.273 30 28.818l-1.273.364v1.091zM26.909 29.182l1.818-2.364h-1.454l-.546 1.091h.182z"
            class="shadow"
            fill="#353535"
            opacity=".3"
          ></path>
          <path
            d="m27.273 26.818-.182.364h1.454l-.181.363h-1.455l-.182.364h.182v1.273l1.818-2.364z"
            class="shadow"
            fill="#353535"
            opacity=".3"
          ></path>
          <path
            d="m9.818 24.273 2.727-2.364h4.728l1.091.727.909.909 1.091 1.637.181.363-.909 1.091-1.454-1.272-1.637-.728-1.09-.181H14l-1.273.181-1.091.546-.909.363-.909-.909z"
            class="neutral1"
            fill="#2b2b2b"
          ></path>
          <path
            d="m11.636 25.182 1.091-.546L14 24.455h1.455l1.09.181 1.637.728 1.454 1.272.182-.363-.545-.728-1.091-.727-1.273-.545-.727-.182-.909-.182H14l-.909.182-1.091.364-.545.363z"
            class="highlight"
            fill="#fefeff"
            opacity=".31"
          ></path>
          <path
            d="m21.636 26.091-.727.727.727 1.273V31h.909v-2.727z"
            class="neutral1"
            fill="#2b2b2b"
          ></path>
          <path
            d="M25.455 15.909h1.09v-.364l-1.09-.363z"
            class="highlight"
            fill="#fefeff"
            opacity=".31"
          ></path>
          <circle
            cx="14.636"
            cy="30.909"
            r="6.636"
            class="neutral1"
            fill="#2b2b2b"
          ></circle>
          <circle
            cx="14.636"
            cy="30.909"
            r="5.636"
            class="secondary"
            fill="#FFDE00"
          ></circle>
          <circle
            cx="14.636"
            cy="30.909"
            r="4.909"
            class="shadow"
            fill="#353535"
            opacity=".3"
          ></circle>
          <circle
            cx="14.636"
            cy="30.909"
            r="4.909"
            class="shadow"
            fill="#353535"
            opacity=".3"
          ></circle>
          <path
            d="M13.636 26.545h2.546l2.909 3.091v2.546l-2.909 3.091h-2.546l-3.091-3.091v-2.546z"
            class="secondary"
            fill="#FFDE00"
          ></path>
          <path
            d="M13.636 26.545h2.546l2.909 3.091v2.546l-2.909 3.091h-2.546l-3.091-3.091v-2.546z"
            class="shadow"
            fill="#353535"
            opacity=".3"
          ></path>
          <circle
            cx="13.818"
            cy="27.273"
            r=".364"
            class="neutral1"
            fill="#2b2b2b"
          ></circle>
          <circle
            cx="14.818"
            cy="27.273"
            r=".364"
            class="neutral1"
            fill="#2b2b2b"
          ></circle>
          <circle
            cx="15.818"
            cy="27.273"
            r=".364"
            class="neutral1"
            fill="#2b2b2b"
          ></circle>
          <circle
            cx="14"
            cy="34.545"
            r=".364"
            class="neutral1"
            fill="#2b2b2b"
          ></circle>
          <circle
            cx="15"
            cy="34.545"
            r=".364"
            class="neutral1"
            fill="#2b2b2b"
          ></circle>
          <circle
            cx="16"
            cy="34.545"
            r=".364"
            class="neutral1"
            fill="#2b2b2b"
          ></circle>
          <circle
            cx="11.273"
            cy="30.909"
            r=".364"
            class="neutral1"
            fill="#2b2b2b"
          ></circle>
          <circle
            cx="11.273"
            cy="29.818"
            r=".364"
            class="neutral1"
            fill="#2b2b2b"
          ></circle>
          <circle
            cx="11.273"
            cy="32"
            r=".364"
            class="neutral1"
            fill="#2b2b2b"
          ></circle>
          <circle
            cx="18.364"
            cy="30.909"
            r=".364"
            class="neutral1"
            fill="#2b2b2b"
          ></circle>
          <circle
            cx="18.364"
            cy="29.818"
            r=".364"
            class="neutral1"
            fill="#2b2b2b"
          ></circle>
          <circle
            cx="18.364"
            cy="32"
            r=".364"
            class="neutral1"
            fill="#2b2b2b"
          ></circle>
          <circle
            cx="14.636"
            cy="30.909"
            r="2.182"
            class="shadow"
            fill="#353535"
            opacity=".3"
          ></circle>
          <circle
            cx="14.636"
            cy="30.909"
            r="1.455"
            class="secondary"
            fill="#FFDE00"
          ></circle>
          <circle
            cx="33.364"
            cy="30.909"
            r="6.636"
            class="neutral1"
            fill="#2b2b2b"
          ></circle>
          <circle
            cx="33.364"
            cy="30.909"
            r="5.636"
            class="secondary"
            fill="#FFDE00"
          ></circle>
          <circle
            cx="33.364"
            cy="30.909"
            r="4.909"
            class="shadow"
            fill="#353535"
            opacity=".3"
          ></circle>
          <circle
            cx="33.364"
            cy="30.909"
            r="4.909"
            class="shadow"
            fill="#353535"
            opacity=".3"
          ></circle>
          <path
            d="M32.364 26.545h2.545l2.909 3.091v2.546l-2.909 3.091h-2.545l-3.091-3.091v-2.546z"
            class="secondary"
            fill="#FFDE00"
          ></path>
          <path
            d="M32.364 26.545h2.545l2.909 3.091v2.546l-2.909 3.091h-2.545l-3.091-3.091v-2.546z"
            class="shadow"
            fill="#353535"
            opacity=".3"
          ></path>
          <circle
            cx="32.545"
            cy="27.273"
            r=".364"
            class="neutral1"
            fill="#2b2b2b"
          ></circle>
          <circle
            cx="33.545"
            cy="27.273"
            r=".364"
            class="neutral1"
            fill="#2b2b2b"
          ></circle>
          <circle
            cx="34.545"
            cy="27.273"
            r=".364"
            class="neutral1"
            fill="#2b2b2b"
          ></circle>
          <circle
            cx="32.727"
            cy="34.545"
            r=".364"
            class="neutral1"
            fill="#2b2b2b"
          ></circle>
          <circle
            cx="33.727"
            cy="34.545"
            r=".364"
            class="neutral1"
            fill="#2b2b2b"
          ></circle>
          <circle
            cx="34.727"
            cy="34.545"
            r=".364"
            class="neutral1"
            fill="#2b2b2b"
          ></circle>
          <circle
            cx="30"
            cy="30.909"
            r=".364"
            class="neutral1"
            fill="#2b2b2b"
          ></circle>
          <circle
            cx="30"
            cy="29.818"
            r=".364"
            class="neutral1"
            fill="#2b2b2b"
          ></circle>
          <circle
            cx="30"
            cy="32"
            r=".364"
            class="neutral1"
            fill="#2b2b2b"
          ></circle>
          <circle
            cx="37.091"
            cy="30.909"
            r=".364"
            class="neutral1"
            fill="#2b2b2b"
          ></circle>
          <circle
            cx="37.091"
            cy="29.818"
            r=".364"
            class="neutral1"
            fill="#2b2b2b"
          ></circle>
          <circle
            cx="37.091"
            cy="32"
            r=".364"
            class="neutral1"
            fill="#2b2b2b"
          ></circle>
          <circle
            cx="33.364"
            cy="30.909"
            r="2.182"
            class="shadow"
            fill="#353535"
            opacity=".3"
          ></circle>
          <circle
            cx="33.364"
            cy="30.909"
            r="1.455"
            class="secondary"
            fill="#FFDE00"
          ></circle>
          <path
            d="M11.273 20.091V21l-.546.545v-1.454z"
            class="accent2"
            fill="#f5911e"
          ></path>
          <path
            d="m11.273 20.091 1.091-.364v.546L11.273 21zM13.818 20.091v-1.636l-.363-1.273-.364-.182v-.182L14 15.727l.351-5.091.194-.181h.546l.195.181.532 7.273v2.182zM17.273 20.091l-.364-1.455v-.5l.546-.409.727 2.728z"
            class="neutral1"
            fill="#2b2b2b"
          ></path>
          <path
            d="M17.455 17.727h.363l.909 1.091.364.909.182.728-.182.363-.909-.363z"
            class="secondary"
            fill="#FFDE00"
          ></path>
          <path
            d="m24.182 18.818-.545-.909.182-.727-.545-.182-.909 3.455.545.182.182-.727.909.182.364 1.455.182.364v.545h.182v-.364l.545-.727V18.82h-1.091Zm-.182.727-.727-.182.182-1.091.545.909z"
            class="neutral1"
            fill="#2b2b2b"
          ></path>
          <path
            d="M25.273 18.818h-.364V21l-.545.545.181.364.728-.727zM14.545 16.636h.545v3.091h-.545z"
            class="highlight"
            fill="#fefeff"
            opacity=".31"
          ></path>
          <circle
            cx="14.818"
            cy="12"
            r=".273"
            class="neutral2"
            fill="#808082"
          ></circle>
          <circle
            cx="14.818"
            cy="13.273"
            r=".273"
            class="neutral2"
            fill="#808082"
          ></circle>
          <circle
            cx="14.818"
            cy="18.455"
            r=".636"
            class="accent2"
            fill="#f5911e"
          ></circle>
        </g></svg>
