<svg xmlns="http://www.w3.org/2000/svg"
        class="css-9txd9r"
        focusable="false"
        viewBox="0 0 48 48"
        data-icon-name="TractorHighCrop"
      >
        <path
          id="TractorHighCrop__outline"
          d="m40.454 24.26.602-3.159c.082-.431.02-.876-.176-1.269l-.364-.727a2 2 0 0 0-1.105-.985l-2-.727a2 2 0 0 0-.303-.084l-5.636-1.091a2 2 0 0 0-.38-.036h-2.364v-1.214a2 2 0 0 0 .336-.821l.182-1.091a2 2 0 0 0-2.302-2.302l-.232.039-.026-.026a2 2 0 0 0-1.414-.586H14.727a2 2 0 0 0-1.414.586l-.545.545a2 2 0 0 0-.483 2.047l.364 1.091c.097.29.255.546.458.756l-.169 1.52h-.21c-.31 0-.617.072-.894.211l-.364.182a2 2 0 0 0-.215.125l-1.091.727a2 2 0 0 0-.305.25l-.316.316-.437.218a2 2 0 0 0-.684.561l-1.273 1.636a2 2 0 0 0 .165 2.642l.182.182q.114.114.244.208a8.57 8.57 0 0 0-1.739 5.196c0 4.762 3.874 8.636 8.636 8.636 3.473 0 6.506-2.082 7.867-5.091h2.224q.379-.002.712-.131c1.332 3.078 4.404 5.221 7.924 5.221 4.762 0 8.636-3.874 8.636-8.636 0-1.764-.544-3.48-1.546-4.922Z"
          class="outline"
          fill="#fff"
        ></path>
        <g id="TractorHighCrop__icon">
          <path
            d="M24.727 25.091v-1.818h-3.091l-1.455-2.545-1.091-1.273-1.818-.727h-4.545l-.364.182-1.091.727-.545.545 2-.909h4l1.818.727 1.273 1.091 1.455 2.182-.545.364-1.091-1.818-1.091-.909-1.636-.909h-4l-2.182 1.091-1.455 1.455.545.364 11.455 6.727h1.273v1.091h2.182v-4.182h.364l-.364-1.455Zm-.545 5.091h-1.091v-.545h1.091zM26.909 28.909v-2.364h-.182l.728-1.454v-4.364l-.546-.545-.182-.182v-1.818h4.364l5.636 1.091 2 .727.364.727-4-.363.545 1.818 2.728 2.363v1.273l-9.091 3.091z"
            class="primary"
            fill="#367C2B"
          ></path>
          <path
            d="m35.091 20.364 4 .363-.727 3.818-2.728-2.363zM25.091 12.364l-.909.727H18l-.364-.364h-3.455l.364 1.091h.727l-.545 4.909h2.545l1.818.727 1.091 1.273 1.455 2.545h2.727v-9.455h.545l.545-.727v-.727h-.364Zm-6.364 6.181-.545-.364h-2.545l.545-4.364h2.545v4.727Zm5.091 4h-2l-1.091-2.182-1.273-1.636v-5.091h3.091v1.818h.727v-1.818h.545z"
            class="neutral1"
            fill="#2b2b2b"
          ></path>
          <path
            d="M16.182 13.818h2.545v4.727l-.545-.363h-2.546zM19.455 13.636v5.091l1.272 1.637 1.091 2.181h2v-8.909h-.545v1.819h-.728v-1.819z"
            class="window"
            fill="#bbe3f3"
          ></path>
          <path
            d="m14.182 12.727.545-.545h10.546l.182.182h-.364l-.909.727H18l-.364-.364z"
            class="primary"
            fill="#367C2B"
          ></path>
          <path
            d="M24.364 18.545h.909v-4h.182v-.727l.727-.909 1.091-.182-.182 1.091-.546.364v.363h.182V20l.728.727v4.364l-.728 1.454h.182v3.091h-2.182v-3.091h.364l-.364-1.454v-1.818h-.363v-.728h.363v-1.818l.546-.727v-.364h-.909z"
            class="neutral1"
            fill="#2b2b2b"
          ></path>
          <path
            d="M24.364 22.545h.363v-1.818l.546-.727v-.364h-.909z"
            class="primary"
            fill="#367C2B"
          ></path>
          <path
            d="M24.364 22.545h.363v-1.818l.546-.727v-.364h-.909z"
            class="shadow"
            fill="#353535"
            opacity=".3"
          ></path>
          <path
            d="M24.364 22.545h.363v-1.818l.546-.727v-.364h-.909z"
            class="shadow"
            fill="#353535"
            opacity=".3"
          ></path>
          <path
            d="m25.273 20-.546.727h2.728L26.727 20zM25.455 21.091h1.091v3.636h-1.091zM27.091 21.091h.182v3.636h-.182zM24.909 21.091h.182v3.636h-.182zM25.455 24.909h1.09v1.455l-.363-1.091h-.364l-.363 1.091zM24.727 26.545h2.182v2.364l-.545-1.818h-1.637zM26.727 18.182v.545h4.364l5.636.909 2 .364-2-.727-5.636-1.091z"
            class="highlight"
            fill="#fefeff"
            opacity=".31"
          ></path>
          <path
            d="M26.727 18.909h4.364L36.909 20l.182.182-6.364-1.091h-4z"
            class="shadow"
            fill="#353535"
            opacity=".3"
          ></path>
          <path
            d="M26.727 19.091V20h2l.364-.364H32l5.091.728v-.182l-6.364-1.091z"
            class="stripe"
            fill="#FFDE00"
          ></path>
          <path
            d="m37.455 20.909 1.272.182-.363 1.273z"
            class="neutral3"
            fill="#f2f2f2"
          ></path>
          <path
            d="M31.273 20h.909l.545 2.182h-.909zM32.545 20h.91L34 22.182h-.909z"
            class="neutral1"
            fill="#2b2b2b"
          ></path>
          <path
            d="M29.091 20h2.182l.545 2.182h.909L32.182 20h.363l.546 2.182h2.545l-.363.182 3.091 2.363v1.091l-6.546-3.091v-.363h-4.363v-.182l4-.364-.364-1.454z"
            class="shadow"
            fill="#353535"
            opacity=".3"
          ></path>
          <path
            d="M27.455 22.182h8.181l-.363.182h-7.818z"
            class="shadow"
            fill="#353535"
            opacity=".3"
          ></path>
          <path
            d="M27.455 22.545H30l.727 1.273-.363-.182-.546-.909h-2.363z"
            class="highlight"
            fill="#fefeff"
            opacity=".31"
          ></path>
          <path
            d="M27.455 22.727h2.363l.546.909-.728.364v.364l-.363-.546h-1.818z"
            class="shadow"
            fill="#353535"
            opacity=".3"
          ></path>
          <path
            d="m29.818 22.727.546.909-.728.364-.363-.545h-1.818v-.728z"
            class="shadow"
            fill="#353535"
            opacity=".3"
          ></path>
          <path
            d="m9.273 22.545 1.454-1.454L12.909 20h4l1.636.909 1.091.909 1.091 1.818.364-.181.182-.182-1.455-2.182L18.545 20l-1.818-.727h-4l-2 .909-.727.363-1.273 1.637.182.182z"
            class="neutral1"
            fill="#2b2b2b"
          ></path>
          <path
            d="M8.727 22.182 10 20.545l.727-.363 2-.909h4l1.818.727 1.273 1.091 1.455 2.182-.182.182-1.455-2.182-1.272-1.091-1.637-.727h-4l-1.818.909-.727.363-1.273 1.637z"
            class="highlight"
            fill="#fefeff"
            opacity=".31"
          ></path>
          <path
            d="m12.727 18.727-.363.182h4.727l1.818.727L20 20.909l1.273 2.364h.363l-1.454-2.546-1.091-1.272-1.818-.728z"
            class="highlight"
            fill="#fefeff"
            opacity=".31"
          ></path>
          <path
            d="m21.091 23.455.182-.182h3.454v.182z"
            class="shadow"
            fill="#353535"
            opacity=".3"
          ></path>
          <path
            d="m9.273 22.545 1.454-1.454L12.909 20h4l1.636.909 1.091.909 1.091 1.818.364-.181.182.363h1.272v5.818h-1.272z"
            class="shadow"
            fill="#353535"
            opacity=".3"
          ></path>
          <path
            d="m9.273 22.545 1.454-1.454L12.909 20h4l1.636.909 1.091.909 1.091 1.818.364-.181.182.363 1.272 3.273v2.545h-1.272z"
            class="shadow"
            fill="#353535"
            opacity=".3"
          ></path>
          <path
            d="M22.545 23.818v6.909h2.182v-6.909zm1.637 6.364h-1.091v-1.091h1.091zm0-1.637h-1.091v-1.091h1.091zm0-1.636h-1.091v-1.091h1.091zm0-1.636h-1.091v-1.091h1.091z"
            class="highlight"
            fill="#fefeff"
            opacity=".31"
          ></path>
          <path
            d="M23.091 29.091h1.091v.545h-1.091zM23.091 27.455h1.091v1.091h-1.091z"
            class="neutral1"
            fill="#2b2b2b"
          ></path>
          <path
            d="M23.091 24.182h1.091v.545h-1.091zM23.091 25.818h1.091v.545h-1.091zM26.909 28.909v-.545L30 27.455l-.727 1.454z"
            class="shadow"
            fill="#353535"
            opacity=".3"
          ></path>
          <path
            d="M29.273 28.909 30 27.455l-1.273.363v1.091zM26.909 27.818l1.818-2.363h-1.454l-.546 1.09h.182z"
            class="shadow"
            fill="#353535"
            opacity=".3"
          ></path>
          <path
            d="m27.273 25.455-.182.363h1.454l-.181.364h-1.455l-.182.363h.182v1.273l1.818-2.363z"
            class="shadow"
            fill="#353535"
            opacity=".3"
          ></path>
          <path
            d="m14.545 12.909.182.727h.728l-.182-.727zM16 13.091v.364l.364.181h.727l.364-.181v-.364l-.364-.182h-.727zM24.909 13.636l.364-.545v-.546h-.182l-.727.728.363.363z"
            class="neutral3"
            fill="#f2f2f2"
          ></path>
          <path
            d="m9.818 22.909 2.727-2.364h4.728l1.091.728.909.909 1.091 1.636.181.364-.909 1.091L18.182 24l-1.637-.727-1.09-.182H14l-1.273.182-1.091.545-.909.364-.909-.909z"
            class="neutral1"
            fill="#2b2b2b"
          ></path>
          <path
            d="m11.636 23.273 1.091-.546L14 22.545h1.455l1.09.182 1.637.728 1.454 1.272.182-.363-.545-.728-1.091-.727-1.273-.545-.727-.182-.909-.182H14l-.909.182-1.091.363-.545.364z"
            class="highlight"
            fill="#fefeff"
            opacity=".31"
          ></path>
          <path
            d="m21.636 24.727-.727.728.727 1.272v2.909h.909v-2.727z"
            class="neutral1"
            fill="#2b2b2b"
          ></path>
          <circle
            cx="14.636"
            cy="29.182"
            r="6.636"
            class="neutral1"
            fill="#2b2b2b"
          ></circle>
          <circle
            cx="14.636"
            cy="29.091"
            r="4.545"
            class="secondary"
            fill="#FFDE00"
          ></circle>
          <circle
            cx="14.636"
            cy="29"
            r="3.909"
            class="shadow"
            fill="#353535"
            opacity=".3"
          ></circle>
          <circle
            cx="14.636"
            cy="29"
            r="3.909"
            class="shadow"
            fill="#353535"
            opacity=".3"
          ></circle>
          <circle
            cx="14.636"
            cy="29"
            r="3.364"
            class="secondary"
            fill="#FFDE00"
          ></circle>
          <circle
            cx="14.636"
            cy="29"
            r="3.364"
            class="shadow"
            fill="#353535"
            opacity=".3"
          ></circle>
          <circle
            cx="14.636"
            cy="29.091"
            r="1.818"
            class="shadow"
            fill="#353535"
            opacity=".3"
          ></circle>
          <circle
            cx="14.636"
            cy="29.091"
            r="1.091"
            class="secondary"
            fill="#FFDE00"
          ></circle>
          <circle
            cx="33.364"
            cy="29.182"
            r="6.636"
            class="neutral1"
            fill="#2b2b2b"
          ></circle>
          <circle
            cx="33.364"
            cy="29.091"
            r="4.545"
            class="secondary"
            fill="#FFDE00"
          ></circle>
          <circle
            cx="33.364"
            cy="29"
            r="3.909"
            class="shadow"
            fill="#353535"
            opacity=".3"
          ></circle>
          <circle
            cx="33.364"
            cy="29"
            r="3.909"
            class="shadow"
            fill="#353535"
            opacity=".3"
          ></circle>
          <circle
            cx="33.364"
            cy="29"
            r="3.364"
            class="secondary"
            fill="#FFDE00"
          ></circle>
          <circle
            cx="33.364"
            cy="29"
            r="3.364"
            class="shadow"
            fill="#353535"
            opacity=".3"
          ></circle>
          <circle
            cx="33.364"
            cy="29.091"
            r="1.818"
            class="shadow"
            fill="#353535"
            opacity=".3"
          ></circle>
          <circle
            cx="33.364"
            cy="29.091"
            r="1.091"
            class="secondary"
            fill="#FFDE00"
          ></circle>
          <path
            d="M25.455 14.545h1.09v-.363l-1.09-.364z"
            class="highlight"
            fill="#fefeff"
            opacity=".31"
          ></path>
        </g></svg>
