<svg xmlns="http://www.w3.org/2000/svg"
        class="css-9txd9r"
        focusable="false"
        viewBox="0 0 48 48"
        data-icon-name="TrackedFellerBuncher"
      >
        <path
          id="TrackedFellerBuncher__outline"
          d="M46.632 32.603 43.324 31.5h1.175a2 2 0 0 0 2-2v-.75a2 2 0 0 0-.968-1.714c.278-.331.45-.753.467-1.212.313-.354.501-.818.501-1.324v-.75a2 2 0 0 0-2-2h-2.173l.081-1.128 1.862-.776A2 2 0 0 0 45.5 18v-.5a1.998 1.998 0 0 0-2.435-1.952l-4.5 1a2 2 0 0 0-.75.341l-.341-1.569a2 2 0 0 0-.056-.883l-.996-3.386q.077-.267.077-.55v-.5a2 2 0 0 0-1.106-1.789l-.5-.25a2 2 0 0 0-.789-.208 2 2 0 0 0-.441-.667l-.25-.25a2 2 0 0 0-1.414-.586h-.75c-.31 0-.617.072-.894.211l-.5.25a2 2 0 0 0-.52.375l-2.232 2.232-4.982 4.732a2 2 0 0 0-.25.288l-.692.969-3.542.197a2 2 0 0 0-1.786 2.629l.25.75q.06.177.147.336v1.532h-1.196l-1.814-1.088-.076-.076a2 2 0 0 0-1.841-.54l-8 1.75a2 2 0 0 0-1.362 1.059l-.25.5q-.128.256-.179.535a2 2 0 0 0-.473.874l-.5 2-.497 1.999q-.06.24-.06.485v2.5a2 2 0 0 0 .586 1.414l1 1c.265.265.597.448.957.533A4.97 4.97 0 0 0 1.5 36.75c0 2.757 2.243 5 5 5H29a5.006 5.006 0 0 0 4.981-4.566q.083.156.192.297c.379.485.961.769 1.576.769h1.583l.467.35c.346.26.767.4 1.2.4h4.25c.433 0 .854-.14 1.2-.4l.467-.35h1.083a2 2 0 0 0 2-2V34.5a2 2 0 0 0-1.368-1.897Zm-12.578 2.184-.195.781A5.01 5.01 0 0 0 29 31.75h-.608l-1.414-.202q.022-.147.022-.298v-3.314l.716-3.817q.024-.125.031-.251l.159-2.694.009-.009.25-.25c.204-.204.359-.448.459-.713l1.713 1.713c.163.163.351.295.555.392l.094 1.335c.035.49.248.949.599 1.292l.456.444.964 2.506a2 2 0 0 0 .581 1.281l1.25 1.25q.102.102.215.187z"
          class="outline"
          fill="#fff"
        ></path>
        <g id="TrackedFellerBuncher__icon">
          <path
            d="m32.05 20.05-.2.3.976.976-.038-.538zM27.625 16.25a.375.375 0 0 0 .375-.375.37.37 0 0 0-.142-.287l-.408.612a.36.36 0 0 0 .175.049ZM35.957 19.819l.484.161-1.073-4.936-.508.169z"
            class="neutral2"
            fill="#808082"
          ></path>
          <path
            d="M4 36.75a2.5 2.5 0 0 0 2.5 2.5H29a2.5 2.5 0 1 0 0-5H6.5a2.5 2.5 0 0 0-2.5 2.5m5.25-.5h16v-.5h4v2h-4v-.5h-16zm-1 .5a1.5 1.5 0 1 1-3.001-.001 1.5 1.5 0 0 1 3.001.001"
            class="neutral1"
            fill="#2b2b2b"
          ></path>
          <path
            d="M6.5 33.75c-1.654 0-3 1.346-3 3s1.346 3 3 3H29c1.654 0 3-1.346 3-3s-1.346-3-3-3zm22.5.5a2.5 2.5 0 1 1 0 5H6.5a2.5 2.5 0 1 1 0-5z"
            class="neutral2"
            fill="#808082"
          ></path>
          <circle
            cx="6.75"
            cy="36.75"
            r="1.5"
            class="neutral2"
            fill="#808082"
          ></circle>
          <path
            d="M25.25 37.75h4v-2h-4v.5h-16v1h16z"
            class="neutral2"
            fill="#808082"
          ></path>
          <path
            d="M18.75 29v-3.75l.99-2.352-.74-.148-.25-.25v-3.75l.25-.25 1.25-.25.25.25v2.594l.25-.594v-2l.25-.263.777-.041.473-.946-4.5.25.25.75h.25v6l-1.25-1-.75-.5H14.5l-2.5-1.5-.25-.25-8 1.75-.25.5v1H3l-1 4v.5h2.5v1.75H5v1.25h13.75zM7 31.25H6V31h1zm5.5 0h-1V31h1zm5 0h-1V31h1zm-11.75-1.5v-.5h12l.5.5zm12.5-3h-1V25.5h1z"
            class="primary"
            fill="#F2A900"
          ></path>
          <path
            d="M4.5 30.5v-1.75H2v2l1 1h2V30.5z"
            class="neutral1"
            fill="#2b2b2b"
          ></path>
          <path
            d="M5.75 29.25v.5h12.5l-.5-.5z"
            class="stripe"
            fill="#808082"
          ></path>
          <path
            d="M17.25 25.5h1v1.25h-1z"
            class="neutral1"
            fill="#2b2b2b"
          ></path>
          <path
            d="M6 31h1v.25H6zM11.5 31h1v.25h-1z"
            class="neutral2"
            fill="#808082"
          ></path>
          <path
            d="M23.471 23.75h-1.102l-.619 1-3 4.25h2.5zM25.25 23.75h-.562L22.5 29h.25v1H25v-2.25l.75-4 .21-3.574-.489 1.141z"
            class="primary"
            fill="#F2A900"
          ></path>
          <path
            d="M21.665 18.463 21 18.5V20l.25-.5zM25 23l-.227.545.217.003.137-1.428-.333.777zM25.38 19.5H25l-2.487 4.018 1.051.013L24 22.5l.29.145 1.049-2.727zM20.25 18.5l-1.25.25v3.75l.837.167.413-.979z"
            class="window"
            fill="#bbe3f3"
          ></path>
          <path
            d="m25.5 19.5-.161.418-1.049 2.727.504.252.333-.777.344-.803.489-1.141.217-.507z"
            class="neutral2"
            fill="#808082"
          ></path>
          <path
            d="m33.75 24.25 1.846 1.154.654-.654h.5l-.5-1.5L37 21v-.75l-.5-.25-.059-.02-.484-.161-.207-.069-2-8.25 1 3.75.11-.037.508-.169L35.5 15l-1.25-4.25.25-.25V10l-.5-.25h-.75l-1-.75v-.5L32 8.25h-.75l-.5.25-2.25 2.25-5 4.75-1.25 1.75-.473.946-.777.041-.25.263v2l-.25.594V18.5l-.25-.25-1.25.25-.25.25v3.75l.25.25.74.148-.99 2.352V29l3-4.25.619-1h1.102L21.25 29h-2.5v2.75h-4.5v1l-7 1h21l-7-1v-1h3.06l.69-.5V30h-2.25v-1h-.25l2.188-5.25h.562l.221-2.433-.344.802-.138 1.428-.217-.003.227-.545-.206-.103-.504-.252-.29-.145-.436 1.031-1.051-.013 2.487-4.018h.38l-.04.418.161-.418.677.169.323.081.25-.25v-2.25l.333-.5H28l3.75 3.75.1-.15.2-.3.2-.3-3.75-3.75-.25-1 2.75-4 1.75 9.25.038.538.038.538.154 2.174.517.503.003-.003.25.25Zm3-3.625a.375.375 0 1 1-.75 0 .375.375 0 0 1 .75 0M21 18.5l.665-.037-.415 1.037-.25.5zm-2 4v-3.75l1.25-.25v3.188l-.413.98zm7.125-3.5a.375.375 0 1 1 0-.75.375.375 0 0 1 0 .75M28 15.875a.375.375 0 0 1-.375.375.4.4 0 0 1-.175-.049l.408-.612a.37.37 0 0 1 .142.287ZM31.125 9.5a.375.375 0 1 1 0-.75.375.375 0 0 1 0 .75m2.75 13a.375.375 0 1 1 0 .75.375.375 0 0 1 0-.75m-.625-12.125a.375.375 0 1 1 .75 0 .375.375 0 0 1-.75 0"
            class="neutral1"
            fill="#2b2b2b"
          ></path>
          <path d="M16.5 31h1v.25h-1z" class="neutral2" fill="#808082"></path>
          <circle
            cx="33.625"
            cy="10.375"
            r=".375"
            class="neutral2"
            fill="#808082"
          ></circle>
          <circle
            cx="36.375"
            cy="20.625"
            r=".375"
            class="neutral2"
            fill="#808082"
          ></circle>
          <path
            d="M34.904 27.25H35V26l.596-.596-1.846-1.154z"
            class="neutral2"
            fill="#808082"
          ></path>
          <path
            d="M40.75 32.75V34L39 33.781l-.25-.281v-3h2v-1h3.75v-.75l-3.75-.25v-.25h2v-.75l-2-.25V26l3.25-.25V25h-3.25v-.25l3.75-.25v-.75h-3.75v-.5l-.5-.5.25-3.5 3-1.25v-.5l-4.5 1-.5.5-1.75 4.75v1h-.5l-.654.654L35 26v1.75L36.25 29h.5v.5l.5.5L36 35.25l-.25 1H38l1 .75h4.25l1-.75H46V34.5zm-5.125-5.5a.375.375 0 1 1 0-.75.375.375 0 0 1 0 .75"
            class="secondary"
            fill="#808082"
          ></path>
          <path
            d="m38.75 33.5.25.281 1.75.219v-3.5h-2z"
            class="neutral1"
            fill="#2b2b2b"
          ></path>
          <circle
            cx="31.125"
            cy="9.125"
            r=".375"
            class="neutral2"
            fill="#808082"
          ></circle>
          <circle
            cx="26.125"
            cy="18.625"
            r=".375"
            class="neutral2"
            fill="#808082"
          ></circle>
          <circle
            cx="35.625"
            cy="26.875"
            r=".375"
            class="neutral2"
            fill="#808082"
          ></circle>
          <circle
            cx="33.875"
            cy="22.875"
            r=".375"
            class="neutral2"
            fill="#808082"
          ></circle>
          <path
            d="m3.5 24.25 1.5 2H2.5l.5-2zM5 22.75h7l-2-1zM12 23.25h5l1.25 1 .5.5H12z"
            class="highlight"
            fill="#fefeff"
            opacity=".31"
          ></path>
          <path
            d="m3.5 23.25.25-.5 8-1.75.25.25-2 .5-5 1zM17.75 17.5l.25.5h2.75l1.25-.25.25-.5zM25 19.5h-.25l-6 9.25V29l3-4.25zM32 8.25l.25.25V9L31 11l-2.75 4-1.5 2.25V17L28 15l2.75-4L32 9zM40.25 22.75h-2.5l-.25.5h3.25zM36.25 36.25l.25-1H46v1zM36.25 24.75h.5V29h-.5z"
            class="highlight"
            fill="#fefeff"
            opacity=".31"
          ></path>
          <path
            d="M25.25 37.25h4v.5h-4zM6.75 38.25a1.5 1.5 0 0 0 1.5-1.5h-3a1.5 1.5 0 0 0 1.5 1.5M3.5 23.25l1.5-.5v3.5l-1.5-2zM5.75 23.5h4.5v1.25h-4.5zM5.75 25.5h4.5v3.25h-4.5zM12 21.25l-2 .5 2 1v.5h5l-.75-.5H14.5zM16 27.25h2.25v1.5H16zM11 25.5h4.5v3.25H11zM5 30.5h13.75v.5H5zM5 31.25h13.75v.5H5zM21.75 24.75l-3 4.25h4v1H25v-2.25zM18.25 24.25l.5.5v.5l.75-1.75h-1.25zM40.75 23.75v1l3.75-.25v-.75zM40.75 25v1l3.25-.25V25zM40.75 27.25v1h2v-.75zM40.75 28.5v1h3.75v-.75zM37.25 30 36 35.25l-.25 1h.5l.25-1 1-4.75v-.25z"
            class="shadow"
            fill="#353535"
            opacity=".3"
          ></path>
          <path
            d="M36.75 29.5v-5.75l.75-.5v7zM38 23.75h2v1h-2zM38 25h2v1h-2zM38 27.25h2v1h-2zM38 28.5h2v1h-2zM38 36.25l1 .75h4.25l1-.75zM40.5 19.5v-.25l-1 .5-.25.25.5-.25zM37.5 30.25h3.25v.25H37.5z"
            class="shadow"
            fill="#353535"
            opacity=".3"
          ></path>
          <path
            d="m39 18.5-.5.5-1.75 4.75.75-.5.25-.5zM40.75 32.75V34l1.25.25 4 .25z"
            class="shadow"
            fill="#353535"
            opacity=".3"
          ></path>
        </g></svg>
