<svg xmlns="http://www.w3.org/2000/svg"
  class="css-9txd9r"
  focusable="false"
  viewBox="0 0 48 48"
  data-icon-name="TractorSmallCab"
  size="65"
>
  <path
    id="TractorSmallCab__outline"
    d="m39.959 25.464.505-1.717q.081-.276.081-.564v-.545c0-.507-.192-.994-.536-1.363l-.038-.077a2 2 0 0 0-.375-.52l-.182-.182a2 2 0 0 0-.712-.458l-4.364-1.636a2 2 0 0 0-.386-.102l-4.545-.727a2 2 0 0 0-.316-.025h-.545v-2.457c.366-.302.619-.73.7-1.214l.182-1.091a2 2 0 0 0-2.522-2.252l-1.273.364a2 2 0 0 0-.319.122l-.609-.487a2 2 0 0 0-1.249-.438H11.274a2 2 0 0 0-2 2v.909c0 .491.177.94.47 1.288l.153.534a2 2 0 0 0 .92 1.181l-.452 3.071-.63.28a2 2 0 0 0-.297.164l-1.636 1.091a2 2 0 0 0-.679.769l-.182.364a2 2 0 0 0-.211.895v.545a2 2 0 0 0 .718 1.535 8.15 8.15 0 0 0-1.446 4.646c0 4.511 3.67 8.182 8.182 8.182 2.959 0 5.574-1.604 7.011-3.988.247.109.52.17.807.17h2.727a2 2 0 0 0 1.992-1.818h.554q.063 0 .126-.004c.64 3.413 3.642 6.004 7.238 6.004 4.06 0 7.364-3.303 7.364-7.364 0-1.91-.744-3.725-2.041-5.082Z"
    class="outline"
    fill="#fff"
  ></path>
  <g id="TractorSmallCab__icon">
    <path
      d="M12.909 12.091v.545l.727.909h8.546l1.273-1.454z"
      class="primary"
      fill="#367C2B"
    ></path>
    <path
      d="M13.636 13.545 13.091 13h9.636l-.545.545z"
      class="shadow"
      fill="#353535"
      opacity=".3"
    ></path>
    <path
      d="M24.545 19.909v-.364l-1.455-5.273h.364l.909-1.455-.909-.727-1.273 1.455h-8.545l-.727-.909v-.545h-1.636V13h.182l.364 1.273h1.273l-.909 6.182h3.455l1.818.727 2.727 2 1.818 3.273h2.727v-6l-.182-.545Zm-7.818.182-.364-.182h-3.091l.727-5.636h2.727v5.818Zm7.091 5.818h-1.273l-1.636-3.091-3.091-2v-6.545H22l1.818 6.364z"
      class="neutral1"
      fill="#2b2b2b"
    ></path>
    <path
      d="m14 14.273-.727 5.636h3.091l.363.182v-5.818zM17.818 14.273v6.545l3.091 2 1.636 3.091h1.273v-5.273L22 14.273z"
      class="window"
      fill="#bbe3f3"
    ></path>
    <path
      d="m38.364 22.455-.182-.364-.182-.182-4.364-1.636-4.545-.727h-4.545v.364l.182.545v6h-2.727l-1.818-3.273-2.727-2-1.818-.727h-3.455l-1.636.727-1.636 1.091-.182.364v.545l.727.545 1.818-1.455h4.727l1.818.909 1.636 1.455.909 1.273h.545l.364.727v.727h-.727v2.182h1.455v2.182h2.727v-2.182h1.636l.364.364h.545l.364-.364h.182v-.364h1.636l6-3.818-.364-3.273zm-14.182 8.181h-1.636v-1.091h1.636z"
      class="primary"
      fill="#367C2B"
    ></path>
    <path
      d="m8.909 22.273-.182.363 1.818-1.272 1.637-.728h3.273l1.818.728 2.727 2 2 3.454v-.363l-1.818-3.273-2.727-2-1.819-.727h-3.454l-1.637.727z"
      class="highlight"
      fill="#fefeff"
      opacity=".31"
    ></path>
    <path
      d="m8.727 23.182.728.545 1.818-1.454H16l1.818.909 1.637 1.454.909 1.273h.545L20 24.455l-1.818-1.819-2.546-1.454h-3.272l-1.273.363-.909.546z"
      class="shadow"
      fill="#353535"
      opacity=".3"
    ></path>
    <path
      d="m8.727 23.182.728.545 1.818-1.454H16l1.818.909 1.637 1.454.909 1.273h.545L20 24.455l-1.818-1.819-2.546-1.454h-3.272l-1.273.363-.909.546z"
      class="shadow"
      fill="#353535"
      opacity=".3"
    ></path>
    <path
      d="m9.455 23.727 1.818-1.454H16l1.818.909 1.637 1.454.909 1.273h.545l.364.727v.728h-.728v2.181L10 24.455z"
      class="neutral1"
      fill="#2b2b2b"
    ></path>
    <path
      d="m10 24.455 1.455-1.091L13.273 23l2.545-.182 1.818.909L19.091 25 20 26.091l.545 1.273v2.181zM22 26.455v5.273h2.727v-5.273zm.545.363h1.636v1.091h-1.636zm1.637 3.818h-1.636V29h1.636z"
      class="highlight"
      fill="#fefeff"
      opacity=".31"
    ></path>
    <path
      d="m35.091 22.091 3.273.364.181.181v.546l-.909 3.091-2.181-.909z"
      class="neutral1"
      fill="#2b2b2b"
    ></path>
    <path
      d="m36.909 22.636 1.273.182-.364 1.455z"
      class="neutral3"
      fill="#f2f2f2"
    ></path>
    <path
      d="M24.727 20.455H28l4.182.363 4.545 1.273h-.545L32 21.182 27.818 21l-1.091 1.091h-2z"
      class="stripe"
      fill="#FFDE00"
    ></path>
    <path
      d="M24.545 19.545v.364h4.546l4.364.727 4.727 1.455-.182-.182-4.364-1.636-4.545-.728z"
      class="highlight"
      fill="#fefeff"
      opacity=".31"
    ></path>
    <circle
      cx="28.364"
      cy="21.727"
      r=".182"
      class="neutral1"
      fill="#2b2b2b"
    ></circle>
    <circle
      cx="28"
      cy="22.818"
      r=".182"
      class="neutral1"
      fill="#2b2b2b"
    ></circle>
    <circle
      cx="27.636"
      cy="24.455"
      r=".182"
      class="neutral1"
      fill="#2b2b2b"
    ></circle>
    <circle
      cx="28"
      cy="25.182"
      r=".182"
      class="neutral1"
      fill="#2b2b2b"
    ></circle>
    <path
      d="m28 21.545.182-.181h.363l.364.363-.182.546h.182l.182-.546-.364-.545h-.545l-.364.363z"
      class="highlight"
      fill="#fefeff"
      opacity=".31"
    ></path>
    <path
      d="M27.818 21.545H28v.364l.182.364h.363v.182h-.909l-.181.363h-.182v-1.091L28 21h.909l.364.545-.546 1.819h-.363l.363-1.091h.182l.182-.546-.364-.545h-.545z"
      class="shadow"
      fill="#353535"
      opacity=".3"
    ></path>
    <path
      d="m27.818 21.545-.182.91-.181.363h-.182v-1.091L28 21h.909l.364.545-.546 1.819h-.363l.363-1.091h.182l.182-.546-.364-.545h-.545zM24.727 26.091l.182.182.364 1.272v.546l.727.727h.364v-1.273l.545-1.09h.727l-.363 1.09v2.364h-.546l-.363-.364h-1.637z"
      class="shadow"
      fill="#353535"
      opacity=".3"
    ></path>
    <path
      d="m24.727 26.091.182.182.364 1.272v.546l.727.727h.364v.727h-1.637z"
      class="shadow"
      fill="#353535"
      opacity=".3"
    ></path>
    <path
      d="M25.273 27.909h-.182v1.273h.545v-.727l-.363-.364z"
      class="shadow"
      fill="#353535"
      opacity=".3"
    ></path>
    <path
      d="M25.273 27.545v.546l.727.727h.364v-1.273z"
      class="neutral1"
      fill="#2b2b2b"
    ></path>
    <path
      d="M25.455 26.636h.727v.545h-.727z"
      class="shadow"
      fill="#353535"
      opacity=".3"
    ></path>
    <path
      d="m24.727 26.091.182.182h2l.364-.364v-4.727l-.364-.546h-.364v-6.727l.182-.182.546-.182.182-1.09-1.273.363-.727.909v6.909h-.364l-.364.546z"
      class="neutral1"
      fill="#2b2b2b"
    ></path>
    <path
      d="m25.091 20.636-.364.546v.182h2.546v-.182l-.364-.546zM25.455 14.455h1.091v.727h-1.091zM25.636 21.545h.727v4.364h-.727zM27.091 25.545l-.364.364v-4.364h.364zM24.909 25.545l.364.364v-4.364h-.364z"
      class="highlight"
      fill="#fefeff"
      opacity=".31"
    ></path>
    <path
      d="M31.636 22.636h-.909l-.182-1.272h.91zM32.909 23 32 22.818l-.182-1.273h.909zM33.273 25l-.909-.727-.182-1.091h.909zM32 24.091l-.909-.364-.182-.727h.909z"
      class="neutral1"
      fill="#2b2b2b"
    ></path>
    <path
      d="m31.455 21.364.363.181.182 1.273-.364-.182zM32.727 21.545l.364.182.182 1.455-.364-.182zM31.818 23l.364.182.182 1.091-.364-.182zM33.091 23.182l.182.182.363 1.818-.363-.182z"
      class="highlight"
      fill="#fefeff"
      opacity=".31"
    ></path>
    <path
      d="m30.545 21.364-1.454-.182 1.273.545v.546h-1.273l1.636.363zM30.909 23l-1.818-.364 1.636.728v.181h-1.272l.181.182 1.273.182 1.273.546 1.091.909.363-.182-.363-.182-.909-.727-.364-.182-.909-.364zM33.818 23.909l-.182.182 1.273.909v.182h.364l-.182-.909z"
      class="shadow"
      fill="#353535"
      opacity=".3"
    ></path>
    <path
      d="M35.091 22.091h-.182l.182 2.182.182.909.182.182z"
      class="highlight"
      fill="#fefeff"
      opacity=".31"
    ></path>
    <path
      d="M28.364 23.364h.909l.182.181.181.546v.364h-.181l-.364.363-.182.182h-.364l-.363-.727v-.182z"
      class="shadow"
      fill="#353535"
      opacity=".3"
    ></path>
    <path
      d="M28.364 23.364h.909l.182.181.181.546v.364h-.181v-.364l-.182-.182-.182.364-.182-.728h-.545z"
      class="shadow"
      fill="#353535"
      opacity=".3"
    ></path>
    <path
      d="M28.545 23.545h.364l.182.728.182-.364.182.182v.364l-.364.181h-.546l-.181-.363z"
      class="primary"
      fill="#367C2B"
    ></path>
    <path
      d="m28.545 23.545-.181.728.181-.364h.182l.182.546h.364l.182-.364-.182-.182-.182.364-.182-.728zM29.636 24.455v-.182h1.273L32 25l.727.545-.182.182-.909-.727-.909-.545z"
      class="highlight"
      fill="#fefeff"
      opacity=".31"
    ></path>
    <path
      d="M27.273 29.909v-2.364l.363-1.09.546-.728.727-.727.546-.545h1.272l.909.545.909.727-3.09 3.455h-1.637v.363h-.182z"
      class="shadow"
      fill="#353535"
      opacity=".3"
    ></path>
    <path
      d="M27.273 29.909v-2.364l.363-1.09.546-.728.727-.727.546-.545h1.272l.909.545.909.727-3.09 3.455h-1.637v.363h-.182z"
      class="shadow"
      fill="#353535"
      opacity=".3"
    ></path>
    <path
      d="M27.273 29.909v-2.364l.363-1.09.546-.728.727-.727.546-.545h1.272l.909.545.909.727-3.09 3.455h-1.637v.363h-.182z"
      class="shadow"
      fill="#353535"
      opacity=".3"
    ></path>
    <path
      d="M27.818 28.273h1.455v.909h-1.455zM29.091 25.364h.727v1.273h-.727zM30.909 25.727h-.545l-.182-.182v-.909h.545l.364.182v.727z"
      class="neutral1"
      fill="#2b2b2b"
    ></path>
    <path
      d="m28.364 25.909-.364.727h.727v-.727z"
      class="neutral2"
      fill="#808082"
    ></path>
    <path
      d="M27.273 27.545h1.636l1.818-1.636h1.091l-.182.364h-.727l-1.818 1.636h-1.818z"
      class="neutral1"
      fill="#2b2b2b"
    ></path>
    <path d="M28 27.364h.364v.727H28z" class="neutral2" fill="#808082"></path>
    <path
      d="M29.288 26.887h.514v.771h-.514z"
      class="neutral2"
      transform="rotate(-45 29.546 27.273)"
      fill="#808082"
    ></path>
    <circle
      cx="14.182"
      cy="29.364"
      r="6.182"
      class="neutral1"
      fill="#2b2b2b"
    ></circle>
    <circle
      cx="14.182"
      cy="29.364"
      r="3.545"
      class="secondary"
      fill="#FFDE00"
    ></circle>
    <circle
      cx="14.182"
      cy="29.364"
      r="2.818"
      class="shadow"
      fill="#353535"
      opacity=".3"
    ></circle>
    <circle
      cx="14.182"
      cy="29.364"
      r="2.818"
      class="shadow"
      fill="#353535"
      opacity=".3"
    ></circle>
    <circle
      cx="14.182"
      cy="29.364"
      r="2.273"
      class="secondary"
      fill="#FFDE00"
    ></circle>
    <circle
      cx="14.182"
      cy="29.364"
      r="2.273"
      class="shadow"
      fill="#353535"
      opacity=".3"
    ></circle>
    <path
      d="M12 29v.727l1.818 1.818h.727l1.819-1.818V29l-1.819-1.818h-.727z"
      class="secondary"
      fill="#FFDE00"
    ></path>
    <circle
      cx="14.182"
      cy="29.364"
      r="1.182"
      class="shadow"
      fill="#353535"
      opacity=".3"
    ></circle>
    <circle
      cx="14.182"
      cy="29.364"
      r=".727"
      class="secondary"
      fill="#FFDE00"
    ></circle>
    <circle
      cx="14.182"
      cy="27.727"
      r=".364"
      class="neutral2"
      fill="#808082"
    ></circle>
    <circle
      cx="14.182"
      cy="31"
      r=".364"
      class="neutral2"
      fill="#808082"
    ></circle>
    <circle
      cx="15.818"
      cy="29.364"
      r=".364"
      class="neutral2"
      fill="#808082"
    ></circle>
    <circle
      cx="12.545"
      cy="29.364"
      r=".364"
      class="neutral2"
      fill="#808082"
    ></circle>
    <circle
      cx="13.091"
      cy="28.273"
      r=".182"
      class="neutral2"
      fill="#808082"
    ></circle>
    <circle
      cx="15.273"
      cy="30.455"
      r=".182"
      class="neutral2"
      fill="#808082"
    ></circle>
    <circle
      cx="15.273"
      cy="28.273"
      r=".182"
      class="neutral2"
      fill="#808082"
    ></circle>
    <circle
      cx="13.091"
      cy="30.455"
      r=".182"
      class="neutral2"
      fill="#808082"
    ></circle>
    <circle
      cx="34.636"
      cy="30.545"
      r="5.364"
      class="neutral1"
      fill="#2b2b2b"
    ></circle>
    <circle
      cx="34.636"
      cy="30.545"
      r="3.076"
      class="secondary"
      fill="#FFDE00"
    ></circle>
    <circle
      cx="34.636"
      cy="30.545"
      r="2.445"
      class="shadow"
      fill="#353535"
      opacity=".3"
    ></circle>
    <circle
      cx="34.636"
      cy="30.545"
      r="2.445"
      class="shadow"
      fill="#353535"
      opacity=".3"
    ></circle>
    <circle
      cx="34.636"
      cy="30.545"
      r="1.972"
      class="secondary"
      fill="#FFDE00"
    ></circle>
    <circle
      cx="34.636"
      cy="30.545"
      r="1.972"
      class="shadow"
      fill="#353535"
      opacity=".3"
    ></circle>
    <path
      d="M32.743 30.23v.631l1.578 1.578h.631l1.577-1.578v-.631l-1.577-1.578h-.631z"
      class="secondary"
      fill="#FFDE00"
    ></path>
    <circle
      cx="34.636"
      cy="30.545"
      r="1.025"
      class="shadow"
      fill="#353535"
      opacity=".3"
    ></circle>
    <circle
      cx="34.636"
      cy="30.545"
      r=".631"
      class="secondary"
      fill="#FFDE00"
    ></circle>
    <circle
      cx="34.636"
      cy="29.126"
      r=".316"
      class="neutral2"
      fill="#808082"
    ></circle>
    <circle
      cx="34.636"
      cy="31.965"
      r=".316"
      class="neutral2"
      fill="#808082"
    ></circle>
    <circle
      cx="36.056"
      cy="30.545"
      r=".316"
      class="neutral2"
      fill="#808082"
    ></circle>
    <circle
      cx="33.217"
      cy="30.545"
      r=".316"
      class="neutral2"
      fill="#808082"
    ></circle>
    <circle
      cx="33.69"
      cy="29.599"
      r=".158"
      class="neutral2"
      fill="#808082"
    ></circle>
    <circle
      cx="35.583"
      cy="31.492"
      r=".158"
      class="neutral2"
      fill="#808082"
    ></circle>
    <circle
      cx="35.583"
      cy="29.599"
      r=".158"
      class="neutral2"
      fill="#808082"
    ></circle>
    <circle
      cx="33.69"
      cy="31.492"
      r=".158"
      class="neutral2"
      fill="#808082"
    ></circle>
    <circle
      cx="26"
      cy="28.091"
      r=".182"
      class="neutral2"
      fill="#808082"
    ></circle>
    <circle
      cx="28.364"
      cy="28.636"
      r=".182"
      class="neutral2"
      fill="#808082"
    ></circle>
    <circle
      cx="23.364"
      cy="13.273"
      r=".455"
      class="neutral3"
      fill="#f2f2f2"
    ></circle>
    <path
      d="m11.818 13 .364 1.091h.545L12.364 13z"
      class="neutral3"
      fill="#f2f2f2"
    ></path>
    <path
      d="M20.545 27.364H22v2.182h-1.455zM22.545 26.818h1.636v1.091h-1.636zM22.545 29h1.636v.545h-1.636z"
      class="shadow"
      fill="#353535"
      opacity=".3"
    ></path>
  </g>
</svg>
