<svg xmlns="http://www.w3.org/2000/svg"
        class="css-9txd9r"
        focusable="false"
        viewBox="0 0 48 48"
        data-icon-name="TractorQuadTrack"
      >
        <path
          id="TractorQuadTrack__outline"
          d="m46.542 19.075-8-2.25A2 2 0 0 0 38 16.75h-3.25v-1c0-.273-.056-.54-.161-.786.164-.214.284-.462.351-.729l.25-1a2 2 0 0 0-2.375-2.438l-2.25.5a2 2 0 0 0-.187.051 2 2 0 0 0-1.129-.349h-9.75a2 2 0 0 0-1.414.586l-.75.75-.5.5a2 2 0 0 0 0 2.828l.11.11.39.585q.139.206.318.37l-.112 1.799-.187.25A2 2 0 0 0 16 18.249h-1.25c-.507 0-.97.189-1.323.5H12.5c-.199 0-.398.03-.588.088l-3.25 1q-.279.086-.521.247l-.75.5a2 2 0 0 0-.14.102l-1.25 1a2 2 0 0 0-.447.502l-1.25 2q-.093.15-.158.31H2a2 2 0 0 0-2 2v4.249q0 .26.063.501l-.003.014a2 2 0 0 0-.06.486v1.25c0 .31.072.617.211.894l.5 1q.145.29.375.52l.75.75c.22.22.487.385.782.483l1.5.5q.308.102.632.103h10.5c.215 0 .429-.035.632-.103l1.5-.5c.295-.098.562-.264.782-.483l.75-.75q.23-.23.375-.52l.5-1c.139-.278.211-.584.211-.894h3.427c.245.216.544.374.874.449q.053.232.16.445l.5 1q.145.29.375.52l.75.75c.22.22.487.385.782.483l1.5.5q.308.102.632.103h10.5c.215 0 .429-.035.632-.103l1.5-.5c.295-.098.562-.264.782-.483l.75-.75q.23-.23.375-.52l.5-1c.139-.278.211-.584.211-.894v-.018c.454-.263.795-.699.933-1.218l.566-.453c.474-.38.751-.954.751-1.562v-1.445l1.159-3.709q.048-.154.071-.314l.25-1.75a2 2 0 0 0 .02-.283v-1.25a2 2 0 0 0-1.458-1.925Z"
          class="outline"
          fill="#fff"
        ></path>
        <g id="TractorQuadTrack__icon">
          <path
            d="m2.5 30-.5-.001v.75l14.25.001h1V30H18l.5 1h6.25v.5H40v-.25h1.5V31h1.25v.25h.5v-.5l1.25-1V28l-1.25-.5-.5-3.75-.75-3 3 .5h1V21l-8-2.25h-5.25v2.75h-.25l-1-1.75-1.75-.25v-.75H29v.75l-4.25 1.75-.5-.5-2.75-1.5h-2l-.75 1v2.25h.5v2.25h-.75v-1H17v1h.5v1.75h-1v2.75l-.25-.5v-2l-4-4.5H8.5l-1.25 1-1.25 2 .25.25-2.5 3.25V26.5H2v2.75h.5z"
            class="primary"
            fill="#367C2B"
          ></path>
          <path
            d="M16.5 30.5h-13l3.75-5h5.5z"
            class="primary"
            fill="#367C2B"
          ></path>
          <path
            d="M29.75 19.5v-3.75l.75-.75v-.75l.5-1 2.25-.5-.25 1-1 .5V15l.75.75v5.75h-.25l-1-1.75z"
            class="neutral1"
            fill="#2b2b2b"
          ></path>
          <path
            d="M30.75 16.25h1V20h-1z"
            class="highlight"
            fill="#fefeff"
            opacity=".31"
          ></path>
          <path
            d="M17.25 30h1.5v.5h-1.5z"
            class="neutral2"
            fill="#808082"
          ></path>
          <path
            d="m8.5 22.25.75-.5 3.25-1h3.75l.25.25.5.5v3.25h.5v1.75h3.25v3.25H20V28h-1.5v1.25H18V28h-1.5v1.25l-.25-.25v-2.25l-4-4.5zM23.75 23.25H27L28 22h-2.25l-2 1zM27 13.75l-.5.5H22l-.75.25-.5-.5h-1.5l-.75.5.5.75h.75l-.25 4h2l2.75 1.5.5.5L29 19.5v-4.75h.75v-1zm1.25 5.75L25 20.75l-.5-.75-2.25-1.25H20.5l.25-3.5h3.5l.5-.5h3.5z"
            class="neutral1"
            fill="#2b2b2b"
          ></path>
          <path
            d="m20.75 15.25-.25 3.5h1.75L24.5 20l.5.75 3.25-1.25v-4.75h-3.5l-.5.5z"
            class="window"
            fill="#bbe3f3"
          ></path>
          <path
            d="M26.5 14.75h1v2.5h-1zM18.5 14.5l-.25-.25L19.5 13h9.75l.5.75H27l-.5.5H22l-.75.25-.5-.5h-1.5z"
            class="primary"
            fill="#367C2B"
          ></path>
          <path
            d="m18.25 14.25.5-.5H27l-.5.5H22l-.75.25-.5-.5h-1.5l-.75.5z"
            class="shadow"
            fill="#353535"
            opacity=".3"
          ></path>
          <path
            d="M22.5 29.5h1.25v.75H22.5zM22.5 28.5h1.25v.75H22.5zM23.75 27.75l-1.25-.25v.75h1.25zM22.75 27l1 .25.25-.5-1-.25z"
            class="neutral1"
            fill="#2b2b2b"
          ></path>
          <path d="M16.5 26.5h1V28h-1z" class="neutral2" fill="#808082"></path>
          <path
            d="M16.5 27h1v.25h-1z"
            class="shadow"
            fill="#353535"
            opacity=".3"
          ></path>
          <path
            d="M18 29.25h.5V30H18zM18.5 24.25h.5v1.5h-.5z"
            class="neutral2"
            fill="#808082"
          ></path>
          <path
            d="M18.5 25.75h.5v.75h-.5z"
            class="neutral1"
            fill="#2b2b2b"
          ></path>
          <path
            d="M14.75 20.25H16v.5h-1.25z"
            class="primary"
            fill="#367C2B"
          ></path>
          <path
            d="M14.75 20.25H16v.5h-1.25z"
            class="shadow"
            fill="#353535"
            opacity=".3"
          ></path>
          <path
            d="M3.75 26.5h.5L4 27.75h-.25z"
            class="neutral1"
            fill="#2b2b2b"
          ></path>
          <path
            d="M2.25 27H3.5v2H2.25z"
            class="shadow"
            fill="#353535"
            opacity=".3"
          ></path>
          <path
            d="M2.25 28.25H3.5V29H2.25z"
            class="shadow"
            fill="#353535"
            opacity=".3"
          ></path>
          <path
            d="m2.5 27-.25 1H3l.25-1z"
            class="neutral1"
            fill="#2b2b2b"
          ></path>
          <path d="M2.5 30H2v-.75h.5" class="neutral3" fill="#f2f2f2"></path>
          <path
            d="M17 23.75h1.5v.5H17z"
            class="highlight"
            fill="#fefeff"
            opacity=".31"
          ></path>
          <path
            d="M17 24.25v.5h.5v1.75h1v-2.25z"
            class="shadow"
            fill="#353535"
            opacity=".3"
          ></path>
          <path
            d="M17 24.25v.5h.5v1.75h1V26l-1.25-1.75zM17 28h.5v2H17zM19 28h.5v2H19zM17.25 30v.75h-1l-.5.5V30z"
            class="shadow"
            fill="#353535"
            opacity=".3"
          ></path>
          <path
            d="M18 30h2v-.25h.75V31H18.5zM17.25 30v.75h-1l-.5.5V30z"
            class="shadow"
            fill="#353535"
            opacity=".3"
          ></path>
          <path
            d="M18 30h2v-.25h.75V31H18.5z"
            class="shadow"
            fill="#353535"
            opacity=".3"
          ></path>
          <path
            d="m23 23.25.25-.75 1.75-1 4-1.5v-.5l-4.25 1.75-1.75 1h-3.5v-2.5l-.75.5v2.25h.5v2.25H19v1.75h1.75V31H22v-3.25l.75-2 2 .75-.75 1.75V31h.75v.5H25V28l1.75-4H23.5l-.25-.75V24h-3.5v-.75zm3.25 1.25-.75 2-1.75-2z"
            class="shadow"
            fill="#353535"
            opacity=".3"
          ></path>
          <path
            d="m21 25.75-.25.75H19v-1.75h.25V22.5h-.5v-.25H23l1.25-.75.5-.25L29 19.5v.5l-4 1.5-1.75 1h-3.5V24h3.5l2.25 2.5-.75 1.75V31h-.5v-2.75l.5-1.75-2-.75z"
            class="shadow"
            fill="#353535"
            opacity=".3"
          ></path>
          <path
            d="m20.75 26.5.25-.75-.75-1.25h3l1.75 2-.75 1.75V31h.5v-2.75l.75-1.75-2.25-2.5h-3.5l-.5.5v.25H19l.5.75.5-.75.5 1-.25.75z"
            class="shadow"
            fill="#353535"
            opacity=".3"
          ></path>
          <path
            d="M19 26.5h1.75v.25H19zM18.5 27.75h2.25V28H18.5zM18.5 27.25h2.25v.25H18.5zM17.5 27.25h.5v.25h-.5zM17.5 27.75h.5V28h-.5zM17.5 26.5h.5v.25h-.5z"
            class="highlight"
            fill="#fefeff"
            opacity=".31"
          ></path>
          <path
            d="M20.25 28h.5v1.75h-.5z"
            class="neutral2"
            fill="#808082"
          ></path>
          <path
            d="m18.75 20.25.75-1h2l2.75 1.5.5.5-.5.25-.5-.5-2.5-1.25H19.5zM23 23.25h.5l.25-.75L29 20l-4 1.5-1.75 1zM29.75 19.5H29v.5l2 .25 1 1.5.5-.25-1-1.75z"
            class="highlight"
            fill="#fefeff"
            opacity=".31"
          ></path>
          <path
            d="M23.75 23.25H27L28 22l.25-.25 1.75-.5-1.75.75L27 23.5h-3.25zM32.75 18.75H34v4h-1.25z"
            class="shadow"
            fill="#353535"
            opacity=".3"
          ></path>
          <path
            d="M34 18.75h4L46 21v.25L38 19h-4z"
            class="highlight"
            fill="#fefeff"
            opacity=".31"
          ></path>
          <path
            d="m34.75 20.25 7.25.5.25.5-7.5-.75z"
            class="shadow"
            fill="#353535"
            opacity=".3"
          ></path>
          <path
            d="m42 20.75.75 3 .5 3.75 1.25.5 1.25-4 .25-1.75v-1h-1z"
            class="neutral1"
            fill="#2b2b2b"
          ></path>
          <path
            d="M32.75 19.5h3.5l6.75 1 .25.25L36 20h-.75l-.75.75h-1.75z"
            class="stripe"
            fill="#FFDE00"
          ></path>
          <path
            d="M38 20.75h.5l.25 1h-.5zM38.75 20.75l.25 1h.5l-.25-1zM38.5 22.25h.5l.5 2-.75-.75zM39.25 22.25l.5 2 .75.75-.75-2.75z"
            class="neutral1"
            fill="#2b2b2b"
          ></path>
          <path
            d="M34.75 21.25v.5h1.5l2 .5-2-1z"
            class="highlight"
            fill="#fefeff"
            opacity=".31"
          ></path>
          <path
            d="M41.5 28.5h3v.5h-3z"
            class="shadow"
            fill="#353535"
            opacity=".3"
          ></path>
          <path
            d="M41.5 28.5h3v.5h-3zM41.5 29.25h3v.5h-3z"
            class="shadow"
            fill="#353535"
            opacity=".3"
          ></path>
          <path
            d="M42.75 29h.5v2.25h-.5z"
            class="neutral1"
            fill="#2b2b2b"
          ></path>
          <path
            d="M44.5 21.5h1.25l-.25 1-1-.5z"
            class="neutral3"
            fill="#f2f2f2"
          ></path>
          <path
            d="M25.25 31.5v-3.25L27 24.5l3-2.25h2.5l.25.25v.25h-2.5L27.5 25 26 28.5v3z"
            class="shadow"
            fill="#353535"
            opacity=".3"
          ></path>
          <path
            d="M25.25 31.5h.25v-3.25l1.75-3.5L30 22.5h2.75l-.25-.25H30l-3 2.25-1.75 3.75z"
            class="shadow"
            fill="#353535"
            opacity=".3"
          ></path>
          <path
            d="M26 31.5v-1.25l5-6.5 1-1h4.75l2.5 1.75L41.5 28v3.25H40v.25z"
            class="shadow"
            fill="#353535"
            opacity=".3"
          ></path>
          <path
            d="M26 31.5v-1.25l5-6.5 1-1h4.75l2.5 1.75L41.5 28v3.25H40v.25z"
            class="shadow"
            fill="#353535"
            opacity=".3"
          ></path>
          <path
            d="M44.5 28v.25l-1.5-.5-.25-4 .5 3.75zM30.5 15l-.75.75h3L32 15z"
            class="highlight"
            fill="#fefeff"
            opacity=".31"
          ></path>
          <path
            d="m20.5 14.25.25.5H19.5l-.25-.5zM28 14l-.5.5h-.75l.5-.5zM28.25 14v.25H29v.25h.5V14z"
            class="neutral3"
            fill="#f2f2f2"
          ></path>
          <path
            d="m42 30.75-4-5.25-1.5-1.75-1.25-.5h-2l-1.25.5-1.5 1.75-4 5.25-.25 1V33l.5 1 .75.75 1.5.5h10.5l1.5-.5.75-.75.5-1v-1.25z"
            class="neutral1"
            fill="#2b2b2b"
          ></path>
          <path
            d="M40.75 30.5h-13l3.75-5H37z"
            class="primary"
            fill="#367C2B"
          ></path>
          <path
            d="M39.5 34.5H29l-2.25-2.25h15z"
            class="neutral1"
            fill="#2b2b2b"
          ></path>
          <path
            d="M39.5 34.5H29l-2.25-2.25h15z"
            class="highlight"
            fill="#fefeff"
            opacity=".31"
          ></path>
          <path d="M30 29h8.5v4.25H30z" class="primary" fill="#367C2B"></path>
          <path
            d="M30 29h8.5v4.25H30z"
            class="shadow"
            fill="#353535"
            opacity=".3"
          ></path>
          <path d="M30 32h8.5v1.25H30z" class="primary" fill="#367C2B"></path>
          <path
            d="M40.75 30.5H38.5V29H30v1.5h-2.25l3.75-5H37zM30 32h8.5v1.25H30z"
            class="shadow"
            fill="#353535"
            opacity=".3"
          ></path>
          <path
            d="M40.75 30.5H38.5V29H30v1.5h-2.25l3.75-5H37zM30 32h8.5v1.25H30z"
            class="shadow"
            fill="#353535"
            opacity=".3"
          ></path>
          <circle
            cx="34.25"
            cy="27"
            r="3.25"
            class="neutral1"
            fill="#2b2b2b"
          ></circle>
          <path
            d="M31.5 29.75H37V31h-5.5z"
            class="neutral1"
            fill="#2b2b2b"
          ></path>
          <circle
            cx="34.25"
            cy="27"
            r="3"
            class="secondary"
            fill="#FFDE00"
          ></circle>
          <circle
            cx="34.25"
            cy="27"
            r="2.75"
            class="shadow"
            fill="#353535"
            opacity=".3"
          ></circle>
          <circle
            cx="34.25"
            cy="27"
            r="2.25"
            class="secondary"
            fill="#FFDE00"
          ></circle>
          <circle
            cx="34.25"
            cy="27"
            r="1.25"
            class="secondary"
            fill="#FFDE00"
          ></circle>
          <circle
            cx="34.25"
            cy="27"
            r="1.25"
            class="shadow"
            fill="#353535"
            opacity=".3"
          ></circle>
          <circle
            cx="34.25"
            cy="27"
            r="1.25"
            class="shadow"
            fill="#353535"
            opacity=".3"
          ></circle>
          <circle
            cx="34.25"
            cy="27"
            r="1"
            class="secondary"
            fill="#FFDE00"
          ></circle>
          <circle
            cx="34.25"
            cy="27"
            r=".75"
            class="shadow"
            fill="#353535"
            opacity=".3"
          ></circle>
          <circle
            cx="34.25"
            cy="24.5"
            r=".25"
            class="shadow"
            fill="#353535"
            opacity=".3"
          ></circle>
          <circle
            cx="34.25"
            cy="25.25"
            r=".25"
            class="shadow"
            fill="#353535"
            opacity=".3"
          ></circle>
          <circle
            cx="33"
            cy="24.835"
            r=".25"
            class="shadow"
            fill="#353535"
            opacity=".3"
          ></circle>
          <circle
            cx="33.375"
            cy="25.484"
            r=".25"
            class="shadow"
            fill="#353535"
            opacity=".3"
          ></circle>
          <circle
            cx="32.085"
            cy="25.75"
            r=".25"
            class="shadow"
            fill="#353535"
            opacity=".3"
          ></circle>
          <circle
            cx="32.734"
            cy="26.125"
            r=".25"
            class="shadow"
            fill="#353535"
            opacity=".3"
          ></circle>
          <circle
            cx="31.75"
            cy="27"
            r=".25"
            class="shadow"
            fill="#353535"
            opacity=".3"
          ></circle>
          <circle
            cx="32.5"
            cy="27"
            r=".25"
            class="shadow"
            fill="#353535"
            opacity=".3"
          ></circle>
          <circle
            cx="32.085"
            cy="28.25"
            r=".25"
            class="shadow"
            fill="#353535"
            opacity=".3"
          ></circle>
          <circle
            cx="32.734"
            cy="27.875"
            r=".25"
            class="shadow"
            fill="#353535"
            opacity=".3"
          ></circle>
          <circle
            cx="33"
            cy="29.165"
            r=".25"
            class="shadow"
            fill="#353535"
            opacity=".3"
          ></circle>
          <circle
            cx="33.375"
            cy="28.516"
            r=".25"
            class="shadow"
            fill="#353535"
            opacity=".3"
          ></circle>
          <circle
            cx="34.25"
            cy="29.5"
            r=".25"
            class="shadow"
            fill="#353535"
            opacity=".3"
          ></circle>
          <circle
            cx="34.25"
            cy="28.75"
            r=".25"
            class="shadow"
            fill="#353535"
            opacity=".3"
          ></circle>
          <circle
            cx="35.5"
            cy="29.165"
            r=".25"
            class="shadow"
            fill="#353535"
            opacity=".3"
          ></circle>
          <circle
            cx="35.125"
            cy="28.516"
            r=".25"
            class="shadow"
            fill="#353535"
            opacity=".3"
          ></circle>
          <circle
            cx="36.415"
            cy="28.25"
            r=".25"
            class="shadow"
            fill="#353535"
            opacity=".3"
          ></circle>
          <circle
            cx="35.766"
            cy="27.875"
            r=".25"
            class="shadow"
            fill="#353535"
            opacity=".3"
          ></circle>
          <circle
            cx="36.75"
            cy="27"
            r=".25"
            class="shadow"
            fill="#353535"
            opacity=".3"
          ></circle>
          <circle
            cx="36"
            cy="27"
            r=".25"
            class="shadow"
            fill="#353535"
            opacity=".3"
          ></circle>
          <circle
            cx="36.415"
            cy="25.75"
            r=".25"
            class="shadow"
            fill="#353535"
            opacity=".3"
          ></circle>
          <circle
            cx="35.766"
            cy="26.125"
            r=".25"
            class="shadow"
            fill="#353535"
            opacity=".3"
          ></circle>
          <circle
            cx="35.5"
            cy="24.835"
            r=".25"
            class="shadow"
            fill="#353535"
            opacity=".3"
          ></circle>
          <circle
            cx="35.125"
            cy="25.484"
            r=".25"
            class="shadow"
            fill="#353535"
            opacity=".3"
          ></circle>
          <circle
            cx="29"
            cy="32.25"
            r="2.25"
            class="neutral1"
            fill="#2b2b2b"
          ></circle>
          <circle
            cx="29"
            cy="32.25"
            r="2"
            class="secondary"
            fill="#FFDE00"
          ></circle>
          <circle
            cx="29"
            cy="32.25"
            r="1.5"
            class="shadow"
            fill="#353535"
            opacity=".3"
          ></circle>
          <circle
            cx="29"
            cy="32.25"
            r=".5"
            class="secondary"
            fill="#FFDE00"
          ></circle>
          <circle
            cx="29"
            cy="31.25"
            r=".25"
            class="shadow"
            fill="#353535"
            opacity=".3"
          ></circle>
          <circle
            cx="28.293"
            cy="31.543"
            r=".25"
            class="shadow"
            fill="#353535"
            opacity=".3"
          ></circle>
          <circle
            cx="28"
            cy="32.25"
            r=".25"
            class="shadow"
            fill="#353535"
            opacity=".3"
          ></circle>
          <circle
            cx="28.293"
            cy="32.957"
            r=".25"
            class="shadow"
            fill="#353535"
            opacity=".3"
          ></circle>
          <circle
            cx="29"
            cy="33.25"
            r=".25"
            class="shadow"
            fill="#353535"
            opacity=".3"
          ></circle>
          <circle
            cx="29.707"
            cy="32.957"
            r=".25"
            class="shadow"
            fill="#353535"
            opacity=".3"
          ></circle>
          <circle
            cx="30"
            cy="32.25"
            r=".25"
            class="shadow"
            fill="#353535"
            opacity=".3"
          ></circle>
          <circle
            cx="29.707"
            cy="31.543"
            r=".25"
            class="shadow"
            fill="#353535"
            opacity=".3"
          ></circle>
          <circle
            cx="39.5"
            cy="32.25"
            r="2.25"
            class="neutral1"
            fill="#2b2b2b"
          ></circle>
          <circle
            cx="39.5"
            cy="32.25"
            r="2"
            class="secondary"
            fill="#FFDE00"
          ></circle>
          <circle
            cx="39.5"
            cy="32.25"
            r="1.5"
            class="shadow"
            fill="#353535"
            opacity=".3"
          ></circle>
          <circle
            cx="39.5"
            cy="32.25"
            r=".5"
            class="secondary"
            fill="#FFDE00"
          ></circle>
          <circle
            cx="39.5"
            cy="31.25"
            r=".25"
            class="shadow"
            fill="#353535"
            opacity=".3"
          ></circle>
          <circle
            cx="38.793"
            cy="31.543"
            r=".25"
            class="shadow"
            fill="#353535"
            opacity=".3"
          ></circle>
          <circle
            cx="38.5"
            cy="32.25"
            r=".25"
            class="shadow"
            fill="#353535"
            opacity=".3"
          ></circle>
          <circle
            cx="38.793"
            cy="32.957"
            r=".25"
            class="shadow"
            fill="#353535"
            opacity=".3"
          ></circle>
          <circle
            cx="39.5"
            cy="33.25"
            r=".25"
            class="shadow"
            fill="#353535"
            opacity=".3"
          ></circle>
          <circle
            cx="40.207"
            cy="32.957"
            r=".25"
            class="shadow"
            fill="#353535"
            opacity=".3"
          ></circle>
          <circle
            cx="40.5"
            cy="32.25"
            r=".25"
            class="shadow"
            fill="#353535"
            opacity=".3"
          ></circle>
          <circle
            cx="40.207"
            cy="31.543"
            r=".25"
            class="shadow"
            fill="#353535"
            opacity=".3"
          ></circle>
          <path
            d="M38 28.25h-.5l-3.25.75-3.25-.75h-.5l-.25 1 .25.5 2.25.25.75.5H35l.75-.5 2.25-.25.25-.5zM35 30.5h-1.5l-.5.5.25.5.5.25h1l.5-.25.25-.5z"
            class="primary"
            fill="#367C2B"
          ></path>
          <path
            d="M34.7 30.75h-.9l-.3.3.15.3.3.15h.6l.3-.15.15-.3z"
            class="primary"
            fill="#367C2B"
          ></path>
          <path
            d="M31.5 31.25H33v.5h-1.5zM35.5 31.25H37v.5h-1.5z"
            class="neutral1"
            fill="#2b2b2b"
          ></path>
          <circle
            cx="31"
            cy="29"
            r=".25"
            class="neutral2"
            fill="#808082"
          ></circle>
          <circle
            cx="37.5"
            cy="29"
            r=".25"
            class="neutral2"
            fill="#808082"
          ></circle>
          <circle
            cx="34.25"
            cy="29.875"
            r=".625"
            class="primary"
            fill="#367C2B"
          ></circle>
          <circle
            cx="34.25"
            cy="29.875"
            r=".625"
            class="primary"
            fill="#367C2B"
          ></circle>
          <path
            d="M37 29.75h-.25L37 28.5zM31.75 29.75h-.25V28.5z"
            class="primary"
            fill="#367C2B"
          ></path>
          <circle
            cx="32.5"
            cy="33.25"
            r="1.25"
            class="neutral1"
            fill="#2b2b2b"
          ></circle>
          <circle
            cx="32.5"
            cy="33.25"
            r=".75"
            class="highlight"
            fill="#fefeff"
            opacity=".31"
          ></circle>
          <circle
            cx="32.5"
            cy="33.25"
            r=".5"
            class="neutral1"
            fill="#2b2b2b"
          ></circle>
          <circle
            cx="36"
            cy="33.25"
            r="1.25"
            class="neutral1"
            fill="#2b2b2b"
          ></circle>
          <circle
            cx="36"
            cy="33.25"
            r=".75"
            class="highlight"
            fill="#fefeff"
            opacity=".31"
          ></circle>
          <circle
            cx="36"
            cy="33.25"
            r=".5"
            class="neutral1"
            fill="#2b2b2b"
          ></circle>
          <path
            d="m17.75 30.75-4-5.25-1.5-1.75-1.25-.5H9l-1.25.5-1.5 1.75-4 5.25-.25 1V33l.5 1 .75.75 1.5.5h10.5l1.5-.5.75-.75.5-1v-1.25z"
            class="neutral1"
            fill="#2b2b2b"
          ></path>
          <path
            d="M16.5 30.5h-13l3.75-5h5.5z"
            class="primary"
            fill="#367C2B"
          ></path>
          <path
            d="M15.25 34.5H4.75L2.5 32.25h15z"
            class="neutral1"
            fill="#2b2b2b"
          ></path>
          <path
            d="M15.25 34.5H4.75L2.5 32.25h15z"
            class="highlight"
            fill="#fefeff"
            opacity=".31"
          ></path>
          <path
            d="M5.75 29h8.5v4.25h-8.5z"
            class="primary"
            fill="#367C2B"
          ></path>
          <path
            d="M5.75 29h8.5v4.25h-8.5z"
            class="shadow"
            fill="#353535"
            opacity=".3"
          ></path>
          <path
            d="M5.75 32h8.5v1.25h-8.5z"
            class="primary"
            fill="#367C2B"
          ></path>
          <path
            d="M16.5 30.5h-2.25V29h-8.5v1.5H3.5l3.75-5h5.5zM5.75 32h8.5v1.25h-8.5z"
            class="shadow"
            fill="#353535"
            opacity=".3"
          ></path>
          <path
            d="M16.5 30.5h-2.25V29h-8.5v1.5H3.5l3.75-5h5.5zM5.75 32h8.5v1.25h-8.5z"
            class="shadow"
            fill="#353535"
            opacity=".3"
          ></path>
          <circle
            cx="10"
            cy="27"
            r="3.25"
            class="neutral1"
            fill="#2b2b2b"
          ></circle>
          <path
            d="M7.25 29.75h5.5V31h-5.5z"
            class="neutral1"
            fill="#2b2b2b"
          ></path>
          <circle
            cx="10"
            cy="27"
            r="3"
            class="secondary"
            fill="#FFDE00"
          ></circle>
          <circle
            cx="10"
            cy="27"
            r="2.75"
            class="shadow"
            fill="#353535"
            opacity=".3"
          ></circle>
          <circle
            cx="10"
            cy="27"
            r="2.25"
            class="secondary"
            fill="#FFDE00"
          ></circle>
          <circle
            cx="10"
            cy="27"
            r="1.25"
            class="secondary"
            fill="#FFDE00"
          ></circle>
          <circle
            cx="10"
            cy="27"
            r="1.25"
            class="shadow"
            fill="#353535"
            opacity=".3"
          ></circle>
          <circle
            cx="10"
            cy="27"
            r="1.25"
            class="shadow"
            fill="#353535"
            opacity=".3"
          ></circle>
          <circle
            cx="10"
            cy="27"
            r="1"
            class="secondary"
            fill="#FFDE00"
          ></circle>
          <circle
            cx="10"
            cy="27"
            r=".75"
            class="shadow"
            fill="#353535"
            opacity=".3"
          ></circle>
          <circle
            cx="10"
            cy="25.25"
            r=".25"
            class="shadow"
            fill="#353535"
            opacity=".3"
          ></circle>
          <circle
            cx="8.75"
            cy="24.835"
            r=".25"
            class="shadow"
            fill="#353535"
            opacity=".3"
          ></circle>
          <circle
            cx="9.125"
            cy="25.484"
            r=".25"
            class="shadow"
            fill="#353535"
            opacity=".3"
          ></circle>
          <circle
            cx="7.835"
            cy="25.75"
            r=".25"
            class="shadow"
            fill="#353535"
            opacity=".3"
          ></circle>
          <circle
            cx="8.484"
            cy="26.125"
            r=".25"
            class="shadow"
            fill="#353535"
            opacity=".3"
          ></circle>
          <circle
            cx="7.5"
            cy="27"
            r=".25"
            class="shadow"
            fill="#353535"
            opacity=".3"
          ></circle>
          <circle
            cx="8.25"
            cy="27"
            r=".25"
            class="shadow"
            fill="#353535"
            opacity=".3"
          ></circle>
          <circle
            cx="7.835"
            cy="28.25"
            r=".25"
            class="shadow"
            fill="#353535"
            opacity=".3"
          ></circle>
          <circle
            cx="8.484"
            cy="27.875"
            r=".25"
            class="shadow"
            fill="#353535"
            opacity=".3"
          ></circle>
          <circle
            cx="8.75"
            cy="29.165"
            r=".25"
            class="shadow"
            fill="#353535"
            opacity=".3"
          ></circle>
          <circle
            cx="9.125"
            cy="28.516"
            r=".25"
            class="shadow"
            fill="#353535"
            opacity=".3"
          ></circle>
          <circle
            cx="10"
            cy="29.5"
            r=".25"
            class="shadow"
            fill="#353535"
            opacity=".3"
          ></circle>
          <circle
            cx="10"
            cy="28.75"
            r=".25"
            class="shadow"
            fill="#353535"
            opacity=".3"
          ></circle>
          <circle
            cx="11.25"
            cy="29.165"
            r=".25"
            class="shadow"
            fill="#353535"
            opacity=".3"
          ></circle>
          <circle
            cx="10.875"
            cy="28.516"
            r=".25"
            class="shadow"
            fill="#353535"
            opacity=".3"
          ></circle>
          <circle
            cx="12.165"
            cy="28.25"
            r=".25"
            class="shadow"
            fill="#353535"
            opacity=".3"
          ></circle>
          <circle
            cx="11.516"
            cy="27.875"
            r=".25"
            class="shadow"
            fill="#353535"
            opacity=".3"
          ></circle>
          <circle
            cx="12.5"
            cy="27"
            r=".25"
            class="shadow"
            fill="#353535"
            opacity=".3"
          ></circle>
          <circle
            cx="11.75"
            cy="27"
            r=".25"
            class="shadow"
            fill="#353535"
            opacity=".3"
          ></circle>
          <circle
            cx="12.165"
            cy="25.75"
            r=".25"
            class="shadow"
            fill="#353535"
            opacity=".3"
          ></circle>
          <circle
            cx="11.516"
            cy="26.125"
            r=".25"
            class="shadow"
            fill="#353535"
            opacity=".3"
          ></circle>
          <circle
            cx="11.25"
            cy="24.835"
            r=".25"
            class="shadow"
            fill="#353535"
            opacity=".3"
          ></circle>
          <circle
            cx="10.875"
            cy="25.484"
            r=".25"
            class="shadow"
            fill="#353535"
            opacity=".3"
          ></circle>
          <circle
            cx="4.75"
            cy="32.25"
            r="2.25"
            class="neutral1"
            fill="#2b2b2b"
          ></circle>
          <circle
            cx="4.75"
            cy="32.25"
            r="2"
            class="secondary"
            fill="#FFDE00"
          ></circle>
          <circle
            cx="4.75"
            cy="32.25"
            r="1.5"
            class="shadow"
            fill="#353535"
            opacity=".3"
          ></circle>
          <circle
            cx="4.75"
            cy="32.25"
            r=".5"
            class="secondary"
            fill="#FFDE00"
          ></circle>
          <circle
            cx="4.75"
            cy="31.25"
            r=".25"
            class="shadow"
            fill="#353535"
            opacity=".3"
          ></circle>
          <circle
            cx="4.043"
            cy="31.543"
            r=".25"
            class="shadow"
            fill="#353535"
            opacity=".3"
          ></circle>
          <circle
            cx="3.75"
            cy="32.25"
            r=".25"
            class="shadow"
            fill="#353535"
            opacity=".3"
          ></circle>
          <circle
            cx="4.043"
            cy="32.957"
            r=".25"
            class="shadow"
            fill="#353535"
            opacity=".3"
          ></circle>
          <circle
            cx="4.75"
            cy="33.25"
            r=".25"
            class="shadow"
            fill="#353535"
            opacity=".3"
          ></circle>
          <circle
            cx="5.457"
            cy="32.957"
            r=".25"
            class="shadow"
            fill="#353535"
            opacity=".3"
          ></circle>
          <circle
            cx="5.75"
            cy="32.25"
            r=".25"
            class="shadow"
            fill="#353535"
            opacity=".3"
          ></circle>
          <circle
            cx="5.457"
            cy="31.543"
            r=".25"
            class="shadow"
            fill="#353535"
            opacity=".3"
          ></circle>
          <circle
            cx="15.25"
            cy="32.25"
            r="2.25"
            class="neutral1"
            fill="#2b2b2b"
          ></circle>
          <circle
            cx="15.25"
            cy="32.25"
            r="2"
            class="secondary"
            fill="#FFDE00"
          ></circle>
          <circle
            cx="15.25"
            cy="32.25"
            r="1.5"
            class="shadow"
            fill="#353535"
            opacity=".3"
          ></circle>
          <circle
            cx="15.25"
            cy="32.25"
            r=".5"
            class="secondary"
            fill="#FFDE00"
          ></circle>
          <circle
            cx="15.25"
            cy="31.25"
            r=".25"
            class="shadow"
            fill="#353535"
            opacity=".3"
          ></circle>
          <circle
            cx="14.543"
            cy="31.543"
            r=".25"
            class="shadow"
            fill="#353535"
            opacity=".3"
          ></circle>
          <circle
            cx="14.25"
            cy="32.25"
            r=".25"
            class="shadow"
            fill="#353535"
            opacity=".3"
          ></circle>
          <circle
            cx="14.543"
            cy="32.957"
            r=".25"
            class="shadow"
            fill="#353535"
            opacity=".3"
          ></circle>
          <circle
            cx="15.25"
            cy="33.25"
            r=".25"
            class="shadow"
            fill="#353535"
            opacity=".3"
          ></circle>
          <circle
            cx="15.957"
            cy="32.957"
            r=".25"
            class="shadow"
            fill="#353535"
            opacity=".3"
          ></circle>
          <circle
            cx="16.25"
            cy="32.25"
            r=".25"
            class="shadow"
            fill="#353535"
            opacity=".3"
          ></circle>
          <circle
            cx="15.957"
            cy="31.543"
            r=".25"
            class="shadow"
            fill="#353535"
            opacity=".3"
          ></circle>
          <path
            d="M13.75 28.25h-.5L10 29l-3.25-.75h-.5l-.25 1 .25.5L8.5 30l.75.5h1.5l.75-.5 2.25-.25.25-.5zM10.75 30.5h-1.5l-.5.5.25.5.5.25h1l.5-.25.25-.5z"
            class="primary"
            fill="#367C2B"
          ></path>
          <path
            d="M10.45 30.75h-.9l-.3.3.15.3.3.15h.6l.3-.15.15-.3z"
            class="primary"
            fill="#367C2B"
          ></path>
          <path
            d="M7.25 31.25h1.5v.5h-1.5zM11.25 31.25h1.5v.5h-1.5z"
            class="neutral1"
            fill="#2b2b2b"
          ></path>
          <circle
            cx="6.75"
            cy="29"
            r=".25"
            class="neutral2"
            fill="#808082"
          ></circle>
          <circle
            cx="13.25"
            cy="29"
            r=".25"
            class="neutral2"
            fill="#808082"
          ></circle>
          <circle
            cx="10"
            cy="29.875"
            r=".625"
            class="primary"
            fill="#367C2B"
          ></circle>
          <circle
            cx="10"
            cy="29.875"
            r=".625"
            class="primary"
            fill="#367C2B"
          ></circle>
          <path
            d="M12.75 29.75h-.25l.25-1.25zM7.5 29.75h-.25V28.5z"
            class="primary"
            fill="#367C2B"
          ></path>
          <circle
            cx="8.25"
            cy="33.25"
            r="1.25"
            class="neutral1"
            fill="#2b2b2b"
          ></circle>
          <circle
            cx="8.25"
            cy="33.25"
            r=".75"
            class="highlight"
            fill="#fefeff"
            opacity=".31"
          ></circle>
          <circle
            cx="8.25"
            cy="33.25"
            r=".5"
            class="neutral1"
            fill="#2b2b2b"
          ></circle>
          <circle
            cx="11.75"
            cy="33.25"
            r="1.25"
            class="neutral1"
            fill="#2b2b2b"
          ></circle>
          <circle
            cx="11.75"
            cy="33.25"
            r=".75"
            class="highlight"
            fill="#fefeff"
            opacity=".31"
          ></circle>
          <circle
            cx="11.75"
            cy="33.25"
            r=".5"
            class="neutral1"
            fill="#2b2b2b"
          ></circle>
          <path
            d="M6.25 25.5 6 25.25l1.5-1.75 1.5-.75h2.25l1.25.5 3.75 4.5v1l-4-5-1.25-.5H9l-1.25.5z"
            class="shadow"
            fill="#353535"
            opacity=".3"
          ></path>
          <path
            d="M6.25 25.5 6 25.25l1.5-1.75 1.5-.75h2.25l1.25.5 3.75 4.5v1l-4-5-1.25-.5H9l-1.25.5z"
            class="shadow"
            fill="#353535"
            opacity=".3"
          ></path>
          <path
            d="M6.25 25.5 6 25.25l1.5-1.75 1.5-.75h2.25l1.25.5 3.75 4.5v1l-4-5-1.25-.5H9l-1.25.5z"
            class="shadow"
            fill="#353535"
            opacity=".3"
          ></path>
          <path
            d="M9.75 22h6l.5.5.5.75-.25-1-.5-.5h-4.75z"
            class="highlight"
            fill="#fefeff"
            opacity=".31"
          ></path>
          <path
            d="m12.25 22.25 4 4.5v1l-3.75-4.5-1.25-.5H9l-1.5.75L6 25.25l1.25-2 1.25-1 .75-.5 3.25-1h3.75l.25.25h-4l-3.25 1-.75.25"
            class="shadow"
            fill="#353535"
            opacity=".3"
          ></path>
          <circle
            cx="10"
            cy="24.5"
            r=".25"
            class="shadow"
            fill="#353535"
            opacity=".3"
          ></circle>
          <path
            d="M34.7 30.75h-.9l-.3.3.15.3.3.15h.6l.3-.15.15-.3z"
            class="shadow"
            fill="#353535"
            opacity=".3"
          ></path>
          <circle
            cx="34.25"
            cy="29.875"
            r=".625"
            class="shadow"
            fill="#353535"
            opacity=".3"
          ></circle>
          <circle
            cx="34.25"
            cy="29.875"
            r=".625"
            class="shadow"
            fill="#353535"
            opacity=".3"
          ></circle>
          <path
            d="M37 29.75h-.25L37 28.5zM31.75 29.75h-.25V28.5zM10.45 30.75h-.9l-.3.3.15.3.3.15h.6l.3-.15.15-.3z"
            class="shadow"
            fill="#353535"
            opacity=".3"
          ></path>
          <circle
            cx="10"
            cy="29.875"
            r=".625"
            class="shadow"
            fill="#353535"
            opacity=".3"
          ></circle>
          <circle
            cx="10"
            cy="29.875"
            r=".625"
            class="shadow"
            fill="#353535"
            opacity=".3"
          ></circle>
          <path
            d="M12.75 29.75h-.25l.25-1.25zM7.5 29.75h-.25V28.5z"
            class="shadow"
            fill="#353535"
            opacity=".3"
          ></path>
        </g></svg>
