<svg xmlns="http://www.w3.org/2000/svg"
  class="css-9txd9r"
  focusable="false"
  viewBox="0 0 48 48"
  data-icon-name="TractorRowCrop"
  size="65"
>
  <path
    id="TractorRowCrop__outline"
    d="m43.897 22.958-.205-.614-.205-.614a2 2 0 0 0-1.291-1.273l-4.5-1.432a2 2 0 0 0-.157-.043l-5.318-1.227q-.028-.007-.058-.012l-1.023-.205a2 2 0 0 0-.392-.039h-1.306a2 2 0 0 0-.367-.836l-.214-.285v-.151c0-.248-.046-.494-.136-.725.159-.236.266-.504.313-.787l.205-1.227a2 2 0 0 0-2.661-2.206 2 2 0 0 0-1.191-.524l-2.455-.205-6.378-.412a2.013 2.013 0 0 0-.941.168l-1.841.818a2 2 0 0 0-.297.164l-.614.409a2 2 0 0 0-.891 1.664v.818a2 2 0 0 0 .995 1.73l-.147 1.179h-.484c-.31 0-.617.072-.894.211L8.58 18.734a2 2 0 0 0-.135.074L6.4 20.035a2 2 0 0 0-.971 1.715v1.023q0 .175.03.345a9.6 9.6 0 0 0-1.462 5.075c0 5.276 4.292 9.568 9.568 9.568a9.54 9.54 0 0 0 8.299-4.807h3.155a2 2 0 0 0 1.186-.39c.933 3.064 3.786 5.299 7.151 5.299 3.297 0 6.102-2.146 7.092-5.114h.321c.79 0 1.507-.466 1.828-1.188l.818-1.841a2 2 0 0 0-.232-2.018l.753-3.014q.06-.24.06-.485v-.614c0-.215-.035-.429-.103-.632Z"
    class="outline"
    fill="#fff"
  ></path>
  <g id="TractorRowCrop__icon">
    <path
      d="m7.841 22.568 2.045-1.023 3.069-1.227 4.5.614L20.727 24l.205-.205-1.227-2.25-2.046-1.636-4.704-.614-3.478 1.228 2.864-1.432h4.704l1.432.614 1.841 1.84 1.227 2.25h2.66l.613.819h2.046l.613-.819V19.5h3.273l1.023.205 5.318 1.227 4.5 1.432.204.613-1.636-.204-1.636-.409-1.023-.205 1.841 1.227.204 2.25.205 2.25.205.205.613.204h.409l.614.614-.818 1.841h-.818l-1.228-1.227-10.841.409H26.25v-2.25l-1.432-1.023v-1.227H21.75v5.113h-1.023L7.636 23.591z"
      class="primary"
      fill="#367C2B"
    ></path>
    <path
      d="m20.727 24 .205-.205-1.227-2.25-2.046-1.636-4.704-.614-3.478 1.228-2.045 1.227v1.023l.409-.205 2.045-1.023 3.069-1.227 4.5.614z"
      class="neutral1"
      fill="#2b2b2b"
    ></path>
    <path
      d="M7.432 21.75v.409l2.25-1.227 3.273-1.227 4.704.613L19.5 21.75 20.727 24l.205-.205-1.227-2.25-2.046-1.636-4.704-.614-3.478 1.228z"
      class="highlight"
      fill="#fefeff"
      opacity=".31"
    ></path>
    <path
      d="M25.636 13.159h-2.659l-.409.614h-5.114l-.205.205h-.205l-.614-1.023h-1.841l-.614.409v.818h1.227l-.614 4.909h2.455l1.432.614 1.841 1.841 1.227 2.25h2.659v-5.932l.409-.409v-3.273h.818l.409-.818-.205-.205Zm-1.841 10.227h-1.841l-1.023-2.045-1.432-1.636-1.636-1.023h-2.045L16.227 15h3.682l.614-.614h.205l.614 3.068h1.432v-3.068h1.023v9Z"
      class="neutral1"
      fill="#2b2b2b"
    ></path>
    <path
      d="m16.227 15-.409 3.682h2.046l1.636 1.023 1.432 1.636 1.023 2.045h1.84v-9h-1.022v3.069h-1.432l-.614-3.069h-.204l-.614.614z"
      class="window"
      fill="#bbe3f3"
    ></path>
    <path
      d="m14.591 12.955 1.841-.819 6.341.409 2.454.205.409.409h-2.659l-.409.614h-5.113l-.205.204h-.205l-.613-1.022z"
      class="primary"
      fill="#367C2B"
    ></path>
    <path
      d="M21.75 25.432v5.523h3.273v-.819h1.227v-2.454l-1.432-1.023v-1.227zM37.5 22.159l1.023.205 1.636.409 1.636.204.205.614v.614l-1.023 4.09h-.409l-.613-.204-.205-.205-.409-4.5z"
      class="neutral1"
      fill="#2b2b2b"
    ></path>
    <path
      d="m37.5 22.159 1.023.205.818.613 2.454.818.205-.204v.614l-2.659-.819z"
      class="highlight"
      fill="#fefeff"
      opacity=".31"
    ></path>
    <path
      d="m40.364 22.977 1.227.205.204.613-1.227-.409z"
      class="neutral3"
      fill="#f2f2f2"
    ></path>
    <path
      d="m39.75 27.886.205.205-1.228-.614-1.227-3.682-3.886-1.022-1.432-.614 5.727 1.432 1.227 3.682z"
      class="shadow"
      fill="#353535"
      opacity=".3"
    ></path>
    <path
      d="m36.273 22.977 1.432.409-.205-.613-.409-.409-1.227-.205z"
      class="neutral1"
      fill="#2b2b2b"
    ></path>
    <path
      d="M40.568 28.295v1.023l-1.023 1.023.41.409h.818l.818-1.841-.614-.614z"
      class="shadow"
      fill="#353535"
      opacity=".3"
    ></path>
    <path
      d="M40.568 28.295v1.023l-1.023 1.023.41.409h.818l.818-1.841-.614-.614z"
      class="shadow"
      fill="#353535"
      opacity=".3"
    ></path>
    <path
      d="M26.864 24.614h1.841l2.454-1.637h.409l1.637-.204-.41-.205-1.227.205h-.613L28.5 24.409h-1.636zM24.409 25.432v.818h-1.841v-.818h-.409v5.114h.818v-.205h1.227v.205h.614v-5.114zm0 4.5h-1.841v-.205h1.841zm0-.614h-1.841V28.5h1.841zm0-1.227h-1.841v-1.432h1.841zM25.023 30.136v-2.659L26.25 28.5v.409l-1.023-.818v2.045zM26.25 27.068h.409v2.864h-.409zM24.818 24.614v-.205h-3.477l.204.205z"
      class="highlight"
      fill="#fefeff"
      opacity=".31"
    ></path>
    <path
      d="m24.818 17.045-.613.819v5.931l.613.819h2.046l.613-.819v-5.931l-.613-.819v-.818l-.409-.818V15l.613-.614.205-1.227-1.841 1.227v1.023l-.614.818z"
      class="neutral1"
      fill="#2b2b2b"
    ></path>
    <path
      d="M25.432 15.409h1.023l.409.818h-2.046zM24.818 16.841h2.045v.205h-2.045zM25.227 18.273h1.023v5.318h-1.023zM26.864 18.273h.205v5.318h-.205zM24.409 18.273h.205v5.318h-.205zM24.409 17.864h.205l.409-.614h-.205zM27.068 17.864h-.204l-.409-.614h.204zM25.227 17.864h1.023l-.205-.614h-.613z"
      class="highlight"
      fill="#fefeff"
      opacity=".31"
    ></path>
    <path
      d="M24.818 26.659v-2.045h3.887l2.454-1.637h.409l-.409.409-.204.205-.614.409-.818.205-1.432 1.431H26.25v2.046h-.205v-2.864h-1.022v2.046z"
      class="shadow"
      fill="#353535"
      opacity=".3"
    ></path>
    <path
      d="M25.023 24.818h1.022v1.841l-1.022-1.023zM26.25 25.636h1.841l-.409.409H26.25z"
      class="highlight"
      fill="#fefeff"
      opacity=".31"
    ></path>
    <path
      d="M26.659 27.068h.818v.409h-.818zM26.659 27.886h.818v.409h-.818zM26.659 28.705h.818v1.227h-.818z"
      class="shadow"
      fill="#353535"
      opacity=".3"
    ></path>
    <path
      d="M27.477 30.136h-.409l.205-3.886 2.25-2.045.818-.205.614-.409.204-.205.409-.409 2.046-.204 3.886 1.022 1.227 3.682-.409-.204h-.409l-3.886-2.659-4.091.818-1.637 1.432-.818 3.068z"
      class="neutral1"
      fill="#2b2b2b"
    ></path>
    <path
      d="m27.068 30.136.205-3.886 2.25-2.045.818-.205 3.068-.409.818.614-.818-.41-3.682.614-2.25 2.046-.204 3.681zM30.955 23.591l.204-.205 2.455-.204-.819.204zM33.614 22.773l3.886 1.022 1.227 3.682-.409-.204h-.409l-.409-.614.614.205-.409-1.432-2.25-1.023-1.637-.818 3.682 1.227-.205-.613z"
      class="highlight"
      fill="#fefeff"
      opacity=".31"
    ></path>
    <path
      d="M27.477 19.909h3.273l1.023-.204h-4.296z"
      class="shadow"
      fill="#353535"
      opacity=".3"
    ></path>
    <path
      d="M27.477 19.909v.409h4.705l4.909.614-5.318-1.227-1.023.204z"
      class="highlight"
      fill="#fefeff"
      opacity=".31"
    ></path>
    <path
      d="M27.477 20.523h2.25l4.909.613 5.319 1.228.204.409-1.636-.409-1.023-.205-2.864-.614-4.909-.409-.818.614h-1.432z"
      class="stripe"
      fill="#FFDE00"
    ></path>
    <path
      d="m27.477 29.932.818-3.068 1.637-1.432 4.091-.818 3.886 2.659h.409l.409 1.841 1.432.613-.614.614-.818-.818z"
      class="shadow"
      fill="#353535"
      opacity=".3"
    ></path>
    <path
      d="m27.477 29.932.818-3.068 1.637-1.432 4.091-.818 3.886 2.659h.409l.409 1.841v.409zM7.841 22.568l-.205 1.023 13.091 6.954h1.023v-5.113l-.818-1.637-.205.205-3.272-3.068-4.5-.614-3.069 1.227z"
      class="shadow"
      fill="#353535"
      opacity=".3"
    ></path>
    <path
      d="m7.841 22.568-.205 1.023 13.091 6.954h1.023v-5.113l-.818-1.637-.205.205-3.272-3.068-4.5-.614-3.069 1.227z"
      class="shadow"
      fill="#353535"
      opacity=".3"
    ></path>
    <circle
      cx="13.568"
      cy="28.193"
      r="7.568"
      class="neutral1"
      fill="#2b2b2b"
    ></circle>
    <circle
      cx="13.568"
      cy="28.295"
      r="4.295"
      class="secondary"
      fill="#FFDE00"
    ></circle>
    <circle
      cx="13.568"
      cy="28.295"
      r="3.477"
      class="shadow"
      fill="#353535"
      opacity=".3"
    ></circle>
    <circle
      cx="13.568"
      cy="28.295"
      r="3.273"
      class="shadow"
      fill="#353535"
      opacity=".3"
    ></circle>
    <circle
      cx="13.568"
      cy="28.193"
      r="2.659"
      class="secondary"
      fill="#FFDE00"
    ></circle>
    <circle
      cx="13.568"
      cy="28.295"
      r="1.432"
      class="shadow"
      fill="#353535"
      opacity=".3"
    ></circle>
    <circle
      cx="13.568"
      cy="28.295"
      r="1.023"
      class="shadow"
      fill="#353535"
      opacity=".3"
    ></circle>
    <circle
      cx="12.136"
      cy="26.864"
      r=".409"
      class="shadow"
      fill="#353535"
      opacity=".3"
    ></circle>
    <circle
      cx="11.523"
      cy="28.295"
      r=".409"
      class="shadow"
      fill="#353535"
      opacity=".3"
    ></circle>
    <circle
      cx="12.136"
      cy="29.727"
      r=".409"
      class="shadow"
      fill="#353535"
      opacity=".3"
    ></circle>
    <circle
      cx="13.568"
      cy="30.341"
      r=".409"
      class="shadow"
      fill="#353535"
      opacity=".3"
    ></circle>
    <circle
      cx="15"
      cy="29.727"
      r=".409"
      class="shadow"
      fill="#353535"
      opacity=".3"
    ></circle>
    <circle
      cx="15.614"
      cy="28.295"
      r=".409"
      class="shadow"
      fill="#353535"
      opacity=".3"
    ></circle>
    <circle
      cx="15"
      cy="26.864"
      r=".409"
      class="shadow"
      fill="#353535"
      opacity=".3"
    ></circle>
    <circle
      cx="13.584"
      cy="26.234"
      r=".409"
      class="shadow"
      fill="#353535"
      opacity=".3"
    ></circle>
    <circle
      cx="33.36"
      cy="30.39"
      r="5.473"
      class="neutral1"
      fill="#2b2b2b"
    ></circle>
    <circle
      cx="33.36"
      cy="30.464"
      r="3.107"
      class="secondary"
      fill="#FFDE00"
    ></circle>
    <circle
      cx="33.36"
      cy="30.464"
      r="2.515"
      class="shadow"
      fill="#353535"
      opacity=".3"
    ></circle>
    <circle
      cx="33.36"
      cy="30.464"
      r="2.367"
      class="shadow"
      fill="#353535"
      opacity=".3"
    ></circle>
    <circle
      cx="33.36"
      cy="30.39"
      r="1.923"
      class="secondary"
      fill="#FFDE00"
    ></circle>
    <circle
      cx="33.36"
      cy="30.464"
      r="1.036"
      class="shadow"
      fill="#353535"
      opacity=".3"
    ></circle>
    <circle
      cx="33.36"
      cy="30.464"
      r=".74"
      class="shadow"
      fill="#353535"
      opacity=".3"
    ></circle>
    <circle
      cx="32.324"
      cy="29.429"
      r=".296"
      class="shadow"
      fill="#353535"
      opacity=".3"
    ></circle>
    <circle
      cx="31.88"
      cy="30.464"
      r=".296"
      class="shadow"
      fill="#353535"
      opacity=".3"
    ></circle>
    <circle
      cx="32.324"
      cy="31.5"
      r=".296"
      class="shadow"
      fill="#353535"
      opacity=".3"
    ></circle>
    <circle
      cx="34.341"
      cy="31.477"
      r=".296"
      class="shadow"
      fill="#353535"
      opacity=".3"
    ></circle>
    <circle
      cx="33.36"
      cy="31.944"
      r=".296"
      class="shadow"
      fill="#353535"
      opacity=".3"
    ></circle>
    <circle
      cx="34.839"
      cy="30.464"
      r=".296"
      class="shadow"
      fill="#353535"
      opacity=".3"
    ></circle>
    <circle
      cx="34.395"
      cy="29.429"
      r=".296"
      class="shadow"
      fill="#353535"
      opacity=".3"
    ></circle>
    <circle
      cx="33.371"
      cy="28.974"
      r=".296"
      class="shadow"
      fill="#353535"
      opacity=".3"
    ></circle>
    <path
      d="m21.341 14.386.409 3.069h.818v-2.66h.205v-.409z"
      class="primary"
      fill="#367C2B"
    ></path>
    <path
      d="m21.955 14.386.204 3.069h.409v-2.66h.205v-.409zM16.432 12.136v.819h-1.841zM25.636 13.159l-.409-.409-2.454-.205.204.614z"
      class="highlight"
      fill="#fefeff"
      opacity=".31"
    ></path>
    <path
      d="m16.432 12.955.613 1.022h.205l.205-.204h5.113l.409-.614z"
      class="shadow"
      fill="#353535"
      opacity=".3"
    ></path>
    <path
      d="M14.182 13.568v.409h.204v-.204h1.023l-.204-.409h-.819zM15.818 13.773h.818l-.204-.409h-.818zM23.795 13.364l-.204.409h-.818l.204-.409zM25.432 13.364l-.205.613h-.204v-.204H24l.205-.409z"
      class="neutral3"
      fill="#f2f2f2"
    ></path>
  </g>
</svg>
