<svg xmlns="http://www.w3.org/2000/svg"
        class="css-9txd9r"
        focusable="false"
        viewBox="0 0 48 48"
        data-icon-name="TractorQuadTrack8rx"
      >
        <path
          id="TractorQuadTrack8rx__outline"
          d="m43.897 23.061-.205-.614-.205-.614a2 2 0 0 0-1.291-1.273l-4.5-1.432a2 2 0 0 0-.157-.043l-5.318-1.227q-.028-.007-.058-.012l-1.023-.205a2 2 0 0 0-.392-.039h-1.306a2 2 0 0 0-.367-.836l-.214-.285v-.151c0-.248-.046-.494-.136-.725.159-.236.266-.504.313-.787l.205-1.227a2 2 0 0 0-2.661-2.206 2 2 0 0 0-1.191-.524l-2.455-.204-6.378-.412a2.013 2.013 0 0 0-.941.168l-1.841.818a2 2 0 0 0-.297.164l-.614.409a2 2 0 0 0-.891 1.664v.818a2 2 0 0 0 .995 1.73l-.261 2.089-.758.569a2 2 0 0 0-.43-.046h-1.227a2 2 0 0 0-2 2v.636a2 2 0 0 0-.521.566l-1.636 2.659a2 2 0 0 0-.258.656l-.205 1.023q-.039.194-.039.392v.614a2 2 0 0 0 .586 1.414l.065.065.071.107-1.204 1.805q-.039.057-.072.117l-.818 1.432a2 2 0 0 0-.263.992v1.023c0 .433.14.854.4 1.2l.614.818q.085.114.186.214l.614.614c.279.279.635.469 1.022.547l1.023.205q.194.039.392.039h11.455q.198 0 .392-.039l1.023-.205c.293-.059.569-.182.808-.361l.818-.614c.248-.186.45-.428.589-.706l.409-.818c.139-.278.211-.584.211-.894v-1.068h1.069q.141 0 .278-.019l.193 1.54c.047.38.203.738.448 1.032l1.023 1.227c.307.368.735.614 1.208.692l1.227.205q.164.027.329.027h9q.165 0 .329-.027l1.227-.205a2 2 0 0 0 1.208-.692l1.023-1.227c.237-.285.391-.63.444-.998l.205-1.432c.049-.347.007-.7-.123-1.026l-.311-.777.691-1.554a2 2 0 0 0-.232-2.018l.753-3.014q.06-.24.06-.485v-.614q0-.324-.103-.632Z"
          class="outline"
          fill="#fff"
        ></path>
        <g id="TractorQuadTrack8rx__icon">
          <circle
            cx="8.455"
            cy="32.284"
            r=".205"
            class="shadow"
            fill="#353535"
            opacity=".3"
          ></circle>
          <path
            d="m20.318 30.443-3.273-4.704-.613-.614L15 24.511h-1.841l-1.636.614-.614.614-2.045 2.863-.614-.613-.409-.614.614-.205 3.681-4.295 2.046.205v-2.046l-1.227-.204v-.41l1.636-1.227h2.454l1.432.614 1.841 1.841 1.227 2.25h2.66l.613.818h2.046l.613-.818v-4.296h3.273l1.023.205 5.318 1.227 4.5 1.432.204.614-1.636-.205-1.636-.409-1.023-.205 1.841 1.228.204 2.25.205 2.25.205.204.613.205h.409l.614.613-.818 1.841h-.818l-.819-.818H26.25v-2.25l-1.432-1.023v-1.227H21.75v3.273h-.614v1.636z"
            class="primary"
            fill="#367C2B"
          ></path>
          <path
            d="M14.182 21.034v1.432l2.045.204 1.432 1.637v.818l.205.205v-1.637h.818l-2.046-2.045z"
            class="shadow"
            fill="#353535"
            opacity=".3"
          ></path>
          <path
            d="m7.841 27.375.614-.205 3.681-4.295 3.478.409 1.636 1.636.409.205.205.205 1.022 1.227 2.25 2.25v1.636h-.818l-3.273-4.704-.613-.614L15 24.511h-1.841l-1.636.614-.614.614-2.045 2.863-.614-.613z"
            class="shadow"
            fill="#353535"
            opacity=".3"
          ></path>
          <path
            d="m9.682 23.08.818-1.228.409.205-.818 1.227z"
            class="neutral2"
            fill="#808082"
          ></path>
          <path
            d="M24.818 26.761v-1.227H21.75l-.409-.818v-.205h3.273l-.409-.614v-5.932l.409-.409v-3.273h.818l.409-.818-.205-.205h-2.659l-.409.614h-5.114l-.205.205h-.205l-.614-1.023h-1.841l-.614.409v.818h1.227l-.614 4.909h2.455l1.432.614 1.841 1.841 1.023 2.045h-3.477v1.636l1.023 1.227 2.25 2.25v2.25h3.886v-.818h1.227v-2.455l-1.432-1.023Zm-3.886-5.318L19.5 19.807l-1.636-1.023h-2.045l.409-3.682h3.682l.614-.614h.205l.614 3.068h1.432v-3.068h1.023v9h-1.841l-1.023-2.045Z"
            class="neutral1"
            fill="#2b2b2b"
          ></path>
          <path
            d="m16.227 15.102-.409 3.682h2.046l1.636 1.023 1.432 1.636 1.023 2.046h1.84v-9h-1.022v3.068h-1.432l-.614-3.068h-.204l-.614.613z"
            class="window"
            fill="#bbe3f3"
          ></path>
          <path
            d="m14.591 13.057 1.841-.818 6.341.409 2.454.204.409.409h-2.659l-.409.614h-5.113l-.205.205h-.205l-.613-1.023z"
            class="primary"
            fill="#367C2B"
          ></path>
          <path
            d="m37.5 22.261 1.023.205 1.636.409 1.636.205.205.613v.614l-1.023 4.091h-.409l-.613-.205-.205-.204-.409-4.5z"
            class="neutral1"
            fill="#2b2b2b"
          ></path>
          <path
            d="m37.5 22.261 1.023.205.818.614 2.454.818.205-.205v.614l-2.659-.818z"
            class="highlight"
            fill="#fefeff"
            opacity=".31"
          ></path>
          <path
            d="m40.364 23.08 1.227.204.204.614-1.227-.409z"
            class="neutral3"
            fill="#f2f2f2"
          ></path>
          <path
            d="m24.818 17.148-.613.818v5.932l.409.613.204.205h2.046l.613-.818v-5.932l-.613-.818v-.818l-.409-.819v-.409l.613-.613.205-1.228-1.841 1.228v1.022l-.614.819z"
            class="neutral1"
            fill="#2b2b2b"
          ></path>
          <path
            d="M25.432 15.511h1.023l.409.819h-2.046zM24.818 16.943h2.045v.205h-2.045zM25.227 18.375h1.023v5.318h-1.023zM26.864 18.375h.205v5.318h-.205zM24.409 18.375h.205v5.318h-.205zM24.409 17.966h.205l.409-.614h-.205zM27.068 17.966h-.204l-.409-.614h.204zM25.227 17.966h1.023l-.205-.614h-.613z"
            class="highlight"
            fill="#fefeff"
            opacity=".31"
          ></path>
          <path
            d="M27.477 20.011h3.273l1.023-.204h-4.296z"
            class="shadow"
            fill="#353535"
            opacity=".3"
          ></path>
          <path
            d="M27.477 20.011v.409h4.705l4.909.614-5.318-1.227-1.023.204z"
            class="highlight"
            fill="#fefeff"
            opacity=".31"
          ></path>
          <path
            d="M27.477 20.625h2.25l4.909.614 5.319 1.227.204.409-1.636-.409-1.023-.205-2.864-.613-4.909-.409-.818.613h-1.432z"
            class="stripe"
            fill="#FFDE00"
          ></path>
          <path
            d="m21.341 14.489.409 3.068h.818v-2.659h.205v-.409z"
            class="primary"
            fill="#367C2B"
          ></path>
          <path
            d="m21.955 14.489.204 3.068h.409v-2.659h.205v-.409zM16.432 12.239v.818h-1.841zM25.636 13.261l-.409-.409-2.454-.204.204.613z"
            class="highlight"
            fill="#fefeff"
            opacity=".31"
          ></path>
          <path
            d="m16.432 13.057.613 1.023h.205l.205-.205h5.113l.409-.614z"
            class="shadow"
            fill="#353535"
            opacity=".3"
          ></path>
          <path
            d="M14.182 13.67v.41h.204v-.205h1.023l-.204-.409h-.819zM15.818 13.875h.818l-.204-.409h-.818zM24 13.466l-.205.409h-1.022l.204-.409zM25.432 13.466l-.205.614h-.204v-.205h-.818l.204-.409z"
            class="neutral3"
            fill="#f2f2f2"
          ></path>
          <path
            d="M24.409 25.534v.818h-1.841v-.818h-.409v5.114h.818v-.205h1.227v.205h.614v-5.114zm0 4.5h-1.841v-.205h1.841zm0-.614h-1.841v-.818h1.841zm0-1.227h-1.841v-1.432h1.841zM25.023 30.239V27.58l1.227 1.022v.409l-1.023-.818v2.046zM26.25 27.17h.409v2.864h-.409z"
            class="highlight"
            fill="#fefeff"
            opacity=".31"
          ></path>
          <path
            d="M24.818 26.761v-2.045h4.091l2.455-1.636h.204l-.409.409-.204.204-.614.409-.205.205-1.841 1.432H26.25v2.045h-.205V24.92h-1.022v2.046z"
            class="shadow"
            fill="#353535"
            opacity=".3"
          ></path>
          <path
            d="M25.023 24.92h1.022v1.841l-1.022-1.022zM26.25 25.739h3.477l.614.409H26.25z"
            class="highlight"
            fill="#fefeff"
            opacity=".31"
          ></path>
          <path
            d="M26.659 27.17h2.25v.409h-2.25zM26.659 27.989h2.25v.409h-2.25zM26.659 28.807h2.25v1.227h-2.25z"
            class="shadow"
            fill="#353535"
            opacity=".3"
          ></path>
          <path
            d="M17.864 23.693v1.637l.204-1.023.818.818v1.432l2.25 2.25-1.841-2.25v-1.432h2.25l-.204-.409h-2.25z"
            class="highlight"
            fill="#fefeff"
            opacity=".31"
          ></path>
          <path
            d="M21.136 28.807h.614v2.25h-.614zM14.591 19.193l-1.636 1.227 3.886.819 2.454 2.454-2.25-2.863-3.272-.614.818-.614h2.454l.819.409-.614.614 1.432-.614-.205-.204-1.432-.614z"
            class="highlight"
            fill="#fefeff"
            opacity=".31"
          ></path>
          <path
            d="m18.477 20.83.205-.205 1.227 1.023.818 1.636-1.227-1.432-1.023-.818z"
            class="highlight"
            fill="#fefeff"
            opacity=".31"
          ></path>
          <path
            d="m14.182 21.034 2.454.614 2.046 2.045h-.818l-1.432-1.432-2.25-.613z"
            class="shadow"
            fill="#353535"
            opacity=".3"
          ></path>
          <path
            d="M14.182 21.034v.205l2.25.613 2.045 1.841h.205l-2.046-2.045zM8.25 27.989l-.409-.614.614-.205 3.681-4.295 2.046.205 1.432.204 1.636 1.636.409.205.205.205 1.022 1.227 2.25 2.25v1.636l-3.681-4.704-.41-.409-1.431-1.432h-3.478z"
            class="shadow"
            fill="#353535"
            opacity=".3"
          ></path>
          <path
            d="m7.636 26.557.205-1.023 1.636-2.659 1.023.614v-1.432h-.205v-1.432h1.228v1.432h-.205v1.023l-2.863 3.068z"
            class="primary"
            fill="#367C2B"
          ></path>
          <path
            d="M10.295 20.625h1.227v1.432h-1.227z"
            class="shadow"
            fill="#353535"
            opacity=".3"
          ></path>
          <path
            d="M10.295 20.625h1.227v1.432h-1.227zM10.5 22.057h.818v1.432H10.5z"
            class="shadow"
            fill="#353535"
            opacity=".3"
          ></path>
          <circle
            cx="10.909"
            cy="21.341"
            r=".307"
            class="neutral2"
            fill="#808082"
          ></circle>
          <path
            d="m7.841 25.534-.205 1.023.819-.409z"
            class="shadow"
            fill="#353535"
            opacity=".3"
          ></path>
          <path
            d="m7.841 25.534-.205 1.023.819-.409z"
            class="shadow"
            fill="#353535"
            opacity=".3"
          ></path>
          <path
            d="m7.841 25.534-.205 1.023.819-.409z"
            class="shadow"
            fill="#353535"
            opacity=".3"
          ></path>
          <path
            d="m7.841 27.375-.205-.205v-.613l.614-.614 2.864-3.477 1.022-.409 4.091.613 1.432 1.637v.818l-.409-.205-1.636-1.636-3.478-.409-3.681 4.295z"
            class="neutral1"
            fill="#2b2b2b"
          ></path>
          <path
            d="M7.636 27.17v-.613l.614-.614 2.864-3.477 1.022-.409 4.091.613 1.432 1.637v.204h-.204l-1.432-1.636-3.887-.614-.818.409-2.863 3.478-.614.613v.614zM21.341 24.511v.205h3.477l-.204-.205zM26.864 24.716h2.045l2.455-1.636h.204l2.046-.205h-2.25l-2.455 1.636h-1.636zM28.909 27.17h.409v2.864h-.409z"
            class="highlight"
            fill="#fefeff"
            opacity=".31"
          ></path>
          <path
            d="M30.341 24.102v2.25l-1.023.818v2.864h9.818l.819.818h.818l.818-1.841-.614-.613h-.409v.818l-.613.614-1.228-.614-.409-1.841h-.409l-.818-.614v.409h-.205l-1.636-1.227-.205-.818-1.636-1.023z"
            class="shadow"
            fill="#353535"
            opacity=".3"
          ></path>
          <path
            d="m39.75 27.989.205.204-1.228-.613-1.227-3.682-3.886-1.023-1.228-.409 5.319 1.227 1.227 3.682z"
            class="shadow"
            fill="#353535"
            opacity=".3"
          ></path>
          <path
            d="m35.864 22.261 1.227.205.409.409.205.614-1.432-.409z"
            class="neutral1"
            fill="#2b2b2b"
          ></path>
          <path
            d="m35.864 22.261.409.819-.818-.205h.409l-.205-.409-.409-.205z"
            class="shadow"
            fill="#353535"
            opacity=".3"
          ></path>
          <path
            d="m37.5 22.261 1.841 1.228.204 2.454-.409-2.25z"
            class="highlight"
            fill="#fefeff"
            opacity=".31"
          ></path>
          <path
            d="M30.341 24.102h3.068l1.636 1.023h-.613l-1.227-.818h-2.864z"
            class="shadow"
            fill="#353535"
            opacity=".3"
          ></path>
          <path
            d="M30.955 24.511h.409v1.432h-.409z"
            class="neutral1"
            fill="#2b2b2b"
          ></path>
          <path
            d="M30.545 25.943h-.204v-1.636h.204v.204l.41.205v.409l-.41-.205z"
            class="shadow"
            fill="#353535"
            opacity=".3"
          ></path>
          <path
            d="M31.773 24.511h.614v.614h-.614zM32.591 24.307H33v.614h-.409z"
            class="primary"
            fill="#367C2B"
          ></path>
          <path
            d="M31.773 24.307h.614v.205h-.614z"
            class="neutral1"
            fill="#2b2b2b"
          ></path>
          <path
            d="M30.955 25.943h-.614v.409l-.409.409v3.273h8.591l-.409-2.659h-.205l-.818-.614v.409h-.205l-1.636-1.227h-2.864l-1.431 1.432z"
            class="shadow"
            fill="#353535"
            opacity=".3"
          ></path>
          <path
            d="m29.523 27.58 2.454-2.66 3.068.205-1.636-1.023h-3.068l.614-.409.204-.204.409-.409 2.046-.205 3.886 1.023 1.227 3.682-.409-.205h-.409l-.818-.614v.409h-.205l-1.636-1.227h-2.864l-2.454 2.455h-.409z"
            class="neutral1"
            fill="#2b2b2b"
          ></path>
          <path
            d="m30.955 23.693.204-.204h2.25l-.614.204zM33.614 22.875l3.886 1.023 1.227 3.682-.409-.205h-.409l-.818-.614v-.204l1.023.409-.409-1.432-2.25-1.023-1.637-.818L37.5 24.92l-.205-.613z"
            class="highlight"
            fill="#fefeff"
            opacity=".31"
          ></path>
          <path
            d="M29.523 28.398h.204v-.614l2.455-2.659 3.477.409 1.227 1.227.205-.204-1.227-1.227-.819-.205-3.068-.205-2.454 2.66z"
            class="highlight"
            fill="#fefeff"
            opacity=".31"
          ></path>
          <path
            d="M40.773 28.398h.204l.614.613-.818 1.841h-.818l-.41-.409 1.228-1.227z"
            class="shadow"
            fill="#353535"
            opacity=".3"
          ></path>
          <path
            d="m10.909 25.739.614-.614 1.636-.614H15l1.432.614.613.614 3.273 4.704 1.432 2.25.205.409v1.023l-.41.818-.818.614-1.022.204H8.25l-1.023-.204-.613-.614L6 34.125v-1.023l.818-1.432 2.046-3.068z"
            class="neutral1"
            fill="#2b2b2b"
          ></path>
          <path
            d="M13.159 24.92h1.636l1.432.614.614.614 3.068 4.5.818 1.227.818 1.227v1.023l-.204.409-.614.614-1.022.204H8.455l-1.023-.204-.409-.409-.614-.819v-.818l4.909-7.159.614-.613z"
            class="highlight"
            fill="#fefeff"
            opacity=".31"
          ></path>
          <path
            d="M12.545 33.307h-4.5l-.613-.409 2.659-4.091zM20.727 33.307h-4.704l-.205-.205 2.046-4.295z"
            class="shadow"
            fill="#353535"
            opacity=".3"
          ></path>
          <circle
            cx="13.977"
            cy="28.398"
            r="3.477"
            class="neutral1"
            fill="#2b2b2b"
          ></circle>
          <circle
            cx="13.977"
            cy="28.398"
            r="3.273"
            class="secondary"
            fill="#FFDE00"
          ></circle>
          <circle
            cx="13.977"
            cy="28.398"
            r="3.068"
            class="shadow"
            fill="#353535"
            opacity=".3"
          ></circle>
          <circle
            cx="13.977"
            cy="28.398"
            r="2.045"
            class="secondary"
            fill="#FFDE00"
          ></circle>
          <circle
            cx="13.977"
            cy="28.398"
            r="1.227"
            class="shadow"
            fill="#353535"
            opacity=".3"
          ></circle>
          <circle
            cx="13.977"
            cy="28.398"
            r=".818"
            class="secondary"
            fill="#FFDE00"
          ></circle>
          <circle
            cx="13.977"
            cy="28.398"
            r=".614"
            class="highlight"
            fill="#fefeff"
            opacity=".31"
          ></circle>
          <path
            d="m14.572 25.567.769.28-.402.506-.384-.14zM15.505 25.941l.626.526-.551.339-.313-.263zM16.253 26.612l.409.708-.634.13-.204-.354zM16.726 27.498l.142.805-.639-.095-.071-.402zM16.868 28.492l-.142.806-.568-.308.071-.403zM16.662 29.475l-.409.709-.429-.484.204-.354zM16.131 30.328l-.626.526-.238-.601.313-.263zM15.341 30.949l-.769.28-.017-.647.384-.14zM14.386 31.261h-.818l.205-.613h.409zM13.382 31.229l-.769-.28.403-.507.384.14zM12.45 30.854l-.627-.526.551-.338.314.263zM11.702 30.184l-.409-.709.633-.129.205.354zM11.228 29.298l-.142-.806.64.095.071.403zM11.086 28.303l.142-.805.569.308-.071.402zM11.293 27.32l.409-.708.429.484-.205.354zM11.823 26.467l.627-.526.238.602-.314.263zM12.613 25.847l.769-.28.018.646-.384.14zM13.568 25.534h.818l-.204.614h-.409zM15.818 27.989v.818l-.204.204-.205-.204v-.818l.205-.205zM14.386 30.239h-.818l-.204-.205.204-.204h.818l.205.204zM12.136 28.807v-.818l.205-.205.204.205v.818l-.204.204zM13.568 26.557h.818l.205.204-.205.205h-.818l-.204-.205z"
            class="shadow"
            fill="#353535"
            opacity=".3"
          ></path>
          <path
            d="M10.295 31.057v-1.023l.819-.409 1.022.614h3.682l1.023-.614.818.409v1.023h-.818v2.25h1.636v1.636H9.273v-1.636h1.841v-2.25z"
            class="primary"
            fill="#367C2B"
          ></path>
          <circle
            cx="13.977"
            cy="31.057"
            r=".614"
            class="shadow"
            fill="#353535"
            opacity=".3"
          ></circle>
          <circle
            cx="17.25"
            cy="30.648"
            r=".205"
            class="neutral2"
            fill="#808082"
          ></circle>
          <circle
            cx="16.841"
            cy="30.034"
            r=".205"
            class="neutral2"
            fill="#808082"
          ></circle>
          <circle
            cx="15.409"
            cy="30.648"
            r=".205"
            class="neutral2"
            fill="#808082"
          ></circle>
          <circle
            cx="12.545"
            cy="30.648"
            r=".205"
            class="neutral2"
            fill="#808082"
          ></circle>
          <circle
            cx="11.114"
            cy="30.034"
            r=".205"
            class="neutral2"
            fill="#808082"
          ></circle>
          <circle
            cx="10.705"
            cy="30.648"
            r=".205"
            class="neutral2"
            fill="#808082"
          ></circle>
          <path
            d="M15.205 31.261h1.227v.409h-1.227zM11.523 31.261h1.227v.409h-1.227z"
            class="shadow"
            fill="#353535"
            opacity=".3"
          ></path>
          <path
            d="m16.432 31.261.409-.613-.614.409H15l.205.613v-.409zM11.523 31.261l-.409-.613.613.409h1.228l-.205.613v-.409z"
            class="highlight"
            fill="#fefeff"
            opacity=".31"
          ></path>
          <path
            d="M11.727 33.307v-1.432h1.432l-.204.614.204.409.614.204h.613l.409-.204.205-.409-.205-.614h1.432v1.432h-.204v-1.023h-.818v1.023H12.75v-1.023h-.818v1.023"
            class="shadow"
            fill="#353535"
            opacity=".3"
          ></path>
          <path
            d="M11.727 33.307v-1.432h1.432l-.204.614.204.409.614.204h.613l.409-.204.205-.409-.205-.614h1.432v1.432h-.204v-1.023h-.818v1.023H12.75v-1.023h-.818v1.023M9.273 33.307h9.205v.409H9.273z"
            class="shadow"
            fill="#353535"
            opacity=".3"
          ></path>
          <circle
            cx="8.455"
            cy="33.511"
            r="1.841"
            class="neutral1"
            fill="#2b2b2b"
          ></circle>
          <circle
            cx="8.455"
            cy="33.511"
            r="1.636"
            class="secondary"
            fill="#FFDE00"
          ></circle>
          <circle
            cx="8.455"
            cy="33.511"
            r=".818"
            class="shadow"
            fill="#353535"
            opacity=".3"
          ></circle>
          <circle
            cx="8.455"
            cy="33.511"
            r=".614"
            class="secondary"
            fill="#FFDE00"
          ></circle>
          <circle
            cx="8.455"
            cy="33.511"
            r=".409"
            class="highlight"
            fill="#fefeff"
            opacity=".31"
          ></circle>
          <circle
            cx="9.322"
            cy="32.644"
            r=".205"
            class="shadow"
            fill="#353535"
            opacity=".3"
          ></circle>
          <circle
            cx="9.682"
            cy="33.511"
            r=".205"
            class="shadow"
            fill="#353535"
            opacity=".3"
          ></circle>
          <circle
            cx="9.322"
            cy="34.379"
            r=".205"
            class="shadow"
            fill="#353535"
            opacity=".3"
          ></circle>
          <circle
            cx="8.455"
            cy="34.739"
            r=".205"
            class="shadow"
            fill="#353535"
            opacity=".3"
          ></circle>
          <circle
            cx="7.587"
            cy="34.379"
            r=".205"
            class="shadow"
            fill="#353535"
            opacity=".3"
          ></circle>
          <circle
            cx="7.227"
            cy="33.511"
            r=".205"
            class="shadow"
            fill="#353535"
            opacity=".3"
          ></circle>
          <circle
            cx="7.587"
            cy="32.644"
            r=".205"
            class="shadow"
            fill="#353535"
            opacity=".3"
          ></circle>
          <circle
            cx="8.455"
            cy="32.284"
            r=".205"
            class="shadow"
            fill="#353535"
            opacity=".3"
          ></circle>
          <circle
            cx="19.5"
            cy="33.511"
            r="1.841"
            class="neutral1"
            fill="#2b2b2b"
          ></circle>
          <circle
            cx="19.5"
            cy="33.511"
            r="1.636"
            class="secondary"
            fill="#FFDE00"
          ></circle>
          <circle
            cx="19.5"
            cy="33.511"
            r=".818"
            class="shadow"
            fill="#353535"
            opacity=".3"
          ></circle>
          <circle
            cx="19.5"
            cy="33.511"
            r=".614"
            class="secondary"
            fill="#FFDE00"
          ></circle>
          <circle
            cx="19.5"
            cy="33.511"
            r=".409"
            class="highlight"
            fill="#fefeff"
            opacity=".31"
          ></circle>
          <circle
            cx="20.368"
            cy="32.644"
            r=".205"
            class="shadow"
            fill="#353535"
            opacity=".3"
          ></circle>
          <circle
            cx="20.727"
            cy="33.511"
            r=".205"
            class="shadow"
            fill="#353535"
            opacity=".3"
          ></circle>
          <circle
            cx="20.368"
            cy="34.379"
            r=".205"
            class="shadow"
            fill="#353535"
            opacity=".3"
          ></circle>
          <circle
            cx="19.5"
            cy="34.739"
            r=".205"
            class="shadow"
            fill="#353535"
            opacity=".3"
          ></circle>
          <circle
            cx="18.632"
            cy="34.379"
            r=".205"
            class="shadow"
            fill="#353535"
            opacity=".3"
          ></circle>
          <circle
            cx="18.273"
            cy="33.511"
            r=".205"
            class="shadow"
            fill="#353535"
            opacity=".3"
          ></circle>
          <circle
            cx="18.632"
            cy="32.644"
            r=".205"
            class="shadow"
            fill="#353535"
            opacity=".3"
          ></circle>
          <circle
            cx="19.5"
            cy="32.284"
            r=".205"
            class="shadow"
            fill="#353535"
            opacity=".3"
          ></circle>
          <circle
            cx="16.227"
            cy="34.33"
            r="1.023"
            class="neutral1"
            fill="#2b2b2b"
          ></circle>
          <circle
            cx="16.227"
            cy="34.33"
            r=".614"
            class="highlight"
            fill="#fefeff"
            opacity=".31"
          ></circle>
          <circle
            cx="16.227"
            cy="34.33"
            r=".409"
            class="neutral1"
            fill="#2b2b2b"
          ></circle>
          <circle
            cx="13.977"
            cy="34.33"
            r="1.023"
            class="neutral1"
            fill="#2b2b2b"
          ></circle>
          <circle
            cx="13.977"
            cy="34.33"
            r=".614"
            class="highlight"
            fill="#fefeff"
            opacity=".31"
          ></circle>
          <circle
            cx="13.977"
            cy="34.33"
            r=".409"
            class="neutral1"
            fill="#2b2b2b"
          ></circle>
          <circle
            cx="11.727"
            cy="34.33"
            r="1.023"
            class="neutral1"
            fill="#2b2b2b"
          ></circle>
          <circle
            cx="11.727"
            cy="34.33"
            r=".614"
            class="highlight"
            fill="#fefeff"
            opacity=".31"
          ></circle>
          <circle
            cx="11.727"
            cy="34.33"
            r=".409"
            class="neutral1"
            fill="#2b2b2b"
          ></circle>
          <path
            d="M16.841 31.057h.818v2.25h-.818zM10.295 31.057h.818v2.25h-.818zM33.409 26.148h1.432l1.636.818 2.659 3.068.819.818.818 1.023.409 1.023-.205 1.432-1.022 1.227-1.228.204h-9l-1.227-.204-1.023-1.227-.204-1.637.409-.818 1.636-1.841 2.659-3.068z"
            class="neutral1"
            fill="#2b2b2b"
          ></path>
          <path
            d="M33.614 26.557h1.227l1.432.818 4.091 4.705.409.818-.205 1.227-.818 1.023-1.023.204h-9l-1.022-.204-.819-1.023-.204-1.227.409-.818 4.091-4.705z"
            class="highlight"
            fill="#fefeff"
            opacity=".31"
          ></path>
          <path
            d="m31.773 28.193-2.659 3.477h10.227l-2.864-3.477zM29.523 34.534h9.205v.614h-9.205z"
            class="shadow"
            fill="#353535"
            opacity=".3"
          ></path>
          <circle
            cx="34.227"
            cy="29.625"
            r="2.864"
            class="neutral1"
            fill="#2b2b2b"
          ></circle>
          <circle
            cx="34.227"
            cy="29.625"
            r="2.659"
            class="secondary"
            fill="#FFDE00"
          ></circle>
          <path
            d="m35.1 27.295.709.409-.484.429-.354-.205zM36.148 28.043l.41.709-.634.13-.205-.355zM36.682 29.216v.818l-.614-.204v-.41zM36.558 30.498l-.41.709-.429-.484.205-.355zM35.809 31.546l-.709.409-.129-.633.354-.205zM34.636 32.08h-.818l.205-.614h.409zM33.354 31.955l-.708-.409.484-.429.354.205zM32.306 31.207l-.409-.709.634-.13.204.355zM31.773 30.034v-.818l.613.204v.41zM31.897 28.752l.409-.709.429.484-.204.355zM32.646 27.704l.708-.409.13.633-.354.205zM33.818 27.17h.818l-.204.614h-.409z"
            class="shadow"
            fill="#353535"
            opacity=".3"
          ></path>
          <circle
            cx="34.227"
            cy="29.625"
            r="1.636"
            class="shadow"
            fill="#353535"
            opacity=".3"
          ></circle>
          <circle
            cx="34.227"
            cy="29.625"
            r="1.227"
            class="secondary"
            fill="#FFDE00"
          ></circle>
          <circle
            cx="34.227"
            cy="29.625"
            r=".818"
            class="highlight"
            fill="#fefeff"
            opacity=".31"
          ></circle>
          <path
            d="M31.159 30.034h.409l.205.614h.204v.204h.614l.818.614h1.636l.819-.614h.613v-.204h.205l.204-.614h.409l.205.614.205.204H37.5l-.205.614-.818.204-.613.41.613-.205h.409l.205.409-.614.818H37.5v1.432h-6.545v-1.432h1.022l-.613-.818.204-.409h.409l.409.205-.409-.41-.818-.204-.204-.614h-.205l.205-.204z"
            class="primary"
            fill="#367C2B"
          ></path>
          <path
            d="m30.955 30.648-.205.204h1.227v-.204zM37.5 30.648l.205.204h-1.228v-.204z"
            class="highlight"
            fill="#fefeff"
            opacity=".31"
          ></path>
          <path
            d="m31.159 31.466.818.204v.205h-.409zM37.295 31.466l-.818.204v.205h.409z"
            class="neutral1"
            fill="#2b2b2b"
          ></path>
          <path
            d="M31.364 31.261h1.022l.409 1.023-.613-.818z"
            class="shadow"
            fill="#353535"
            opacity=".3"
          ></path>
          <circle
            cx="34.33"
            cy="32.182"
            r=".511"
            class="shadow"
            fill="#353535"
            opacity=".3"
          ></circle>
          <circle
            cx="33.205"
            cy="31.875"
            r=".205"
            class="neutral2"
            fill="#808082"
          ></circle>
          <circle
            cx="35.25"
            cy="31.875"
            r=".205"
            class="neutral2"
            fill="#808082"
          ></circle>
          <path
            d="M37.091 31.261h-1.023l-.409 1.023.614-.818z"
            class="shadow"
            fill="#353535"
            opacity=".3"
          ></path>
          <path
            d="m31.977 31.875.614.205.818.818h1.636l.819-.818.613-.205v.409h.614l-.614.818H37.5v.614h-6.545v-.614h1.022l-.613-.818h.613z"
            class="shadow"
            fill="#353535"
            opacity=".3"
          ></path>
          <path
            d="M33.409 32.898h1.636v.205h-1.636zM36.477 31.875l-.613.205.613 1.022.614-.818h-.614zM31.977 31.875l.614.205-.614 1.022-.613-.818h.613z"
            class="shadow"
            fill="#353535"
            opacity=".3"
          ></path>
          <circle
            cx="33"
            cy="34.33"
            r="1.023"
            class="neutral1"
            fill="#2b2b2b"
          ></circle>
          <circle
            cx="33"
            cy="34.33"
            r=".614"
            class="highlight"
            fill="#fefeff"
            opacity=".31"
          ></circle>
          <circle
            cx="33"
            cy="34.33"
            r=".409"
            class="neutral1"
            fill="#2b2b2b"
          ></circle>
          <circle
            cx="35.455"
            cy="34.33"
            r="1.023"
            class="neutral1"
            fill="#2b2b2b"
          ></circle>
          <circle
            cx="35.455"
            cy="34.33"
            r=".614"
            class="highlight"
            fill="#fefeff"
            opacity=".31"
          ></circle>
          <circle
            cx="35.455"
            cy="34.33"
            r=".409"
            class="neutral1"
            fill="#2b2b2b"
          ></circle>
          <circle
            cx="29.727"
            cy="33.511"
            r="1.841"
            class="neutral1"
            fill="#2b2b2b"
          ></circle>
          <circle
            cx="29.727"
            cy="33.511"
            r="1.636"
            class="secondary"
            fill="#FFDE00"
          ></circle>
          <circle
            cx="29.727"
            cy="33.511"
            r=".818"
            class="shadow"
            fill="#353535"
            opacity=".3"
          ></circle>
          <circle
            cx="29.727"
            cy="33.511"
            r=".614"
            class="secondary"
            fill="#FFDE00"
          ></circle>
          <circle
            cx="29.727"
            cy="33.511"
            r=".409"
            class="highlight"
            fill="#fefeff"
            opacity=".31"
          ></circle>
          <circle
            cx="30.595"
            cy="32.644"
            r=".205"
            class="shadow"
            fill="#353535"
            opacity=".3"
          ></circle>
          <circle
            cx="30.955"
            cy="33.511"
            r=".205"
            class="shadow"
            fill="#353535"
            opacity=".3"
          ></circle>
          <circle
            cx="30.595"
            cy="34.379"
            r=".205"
            class="shadow"
            fill="#353535"
            opacity=".3"
          ></circle>
          <circle
            cx="29.727"
            cy="34.739"
            r=".205"
            class="shadow"
            fill="#353535"
            opacity=".3"
          ></circle>
          <circle
            cx="28.859"
            cy="34.379"
            r=".205"
            class="shadow"
            fill="#353535"
            opacity=".3"
          ></circle>
          <circle
            cx="28.5"
            cy="33.511"
            r=".205"
            class="shadow"
            fill="#353535"
            opacity=".3"
          ></circle>
          <circle
            cx="28.859"
            cy="32.644"
            r=".205"
            class="shadow"
            fill="#353535"
            opacity=".3"
          ></circle>
          <circle
            cx="29.727"
            cy="32.284"
            r=".205"
            class="shadow"
            fill="#353535"
            opacity=".3"
          ></circle>
          <circle
            cx="38.727"
            cy="33.511"
            r="1.841"
            class="neutral1"
            fill="#2b2b2b"
          ></circle>
          <circle
            cx="38.727"
            cy="33.511"
            r="1.636"
            class="secondary"
            fill="#FFDE00"
          ></circle>
          <circle
            cx="38.727"
            cy="33.511"
            r=".818"
            class="shadow"
            fill="#353535"
            opacity=".3"
          ></circle>
          <circle
            cx="38.727"
            cy="33.511"
            r=".614"
            class="secondary"
            fill="#FFDE00"
          ></circle>
          <circle
            cx="38.727"
            cy="33.511"
            r=".409"
            class="highlight"
            fill="#fefeff"
            opacity=".31"
          ></circle>
          <circle
            cx="39.595"
            cy="32.644"
            r=".205"
            class="shadow"
            fill="#353535"
            opacity=".3"
          ></circle>
          <circle
            cx="39.955"
            cy="33.511"
            r=".205"
            class="shadow"
            fill="#353535"
            opacity=".3"
          ></circle>
          <circle
            cx="39.595"
            cy="34.379"
            r=".205"
            class="shadow"
            fill="#353535"
            opacity=".3"
          ></circle>
          <circle
            cx="38.727"
            cy="34.739"
            r=".205"
            class="shadow"
            fill="#353535"
            opacity=".3"
          ></circle>
          <circle
            cx="37.859"
            cy="34.379"
            r=".205"
            class="shadow"
            fill="#353535"
            opacity=".3"
          ></circle>
          <circle
            cx="37.5"
            cy="33.511"
            r=".205"
            class="shadow"
            fill="#353535"
            opacity=".3"
          ></circle>
          <circle
            cx="37.859"
            cy="32.644"
            r=".205"
            class="shadow"
            fill="#353535"
            opacity=".3"
          ></circle>
          <circle
            cx="38.727"
            cy="32.284"
            r=".205"
            class="shadow"
            fill="#353535"
            opacity=".3"
          ></circle>
        </g></svg>
