<svg xmlns="http://www.w3.org/2000/svg"
        class="css-9txd9r"
        focusable="false"
        viewBox="0 0 48 48"
        data-icon-name="TurfProgatorUtility"
      >
        <g id="TurfProgatorUtility__outline">
          <path
            d="M47.735 23.504a2 2 0 0 0-.704-1.291l-1.43-1.192-.186-.186-1-1a2 2 0 0 0-.52-.375l-1-.5-.5-.25a2 2 0 0 0-.15-.067 2 2 0 0 0-.581-1.558l-.5-.5a1.997 1.997 0 0 0-2.65-.159l-3.5 2.75a1.997 1.997 0 0 0-.179 2.987l.5.5a1.99 1.99 0 0 0 2.213.42l.032.004.062.155q.118.294.32.538l1.25 1.5.975 1.219.062.073v1.427h-1.722l-.348-1.276a2 2 0 0 0-.68-1.035v-.189c0-.31-.072-.617-.211-.894l-.25-.5a2 2 0 0 0-1.087-.978l-1.7-.638-.073-.266a2 2 0 0 0-.515-.888l-.25-.25a2 2 0 0 0-1.22-.576l-.047-.142a2 2 0 0 0-.233-.477l-.5-.75a2 2 0 0 0-.555-.555l-.75-.5a2 2 0 0 0-.109-.068v-7.518a2 2 0 0 0-2-2h-1a2 2 0 0 0-2 2v8.25H2.495A2 2 0 0 0 .62 20.052c-.382.364-.62.878-.62 1.447v4.75c0 .768.432 1.434 1.067 1.769l-.638 1.403a2 2 0 0 0 .407 2.242l.25.25c.197.197.428.346.675.445q-.011.195-.011.391a6.76 6.76 0 0 0 6.75 6.75 6.69 6.69 0 0 0 6.254-4.25H20q.165 0 .329-.027l4.337-.723h.084q.127 0 .25-.016.123.015.25.016h1q.064 0 .129-.004l.024.01c.634 2.852 3.186 4.994 6.222 4.994a6.39 6.39 0 0 0 6.159-4.726l2.678-.564c.31.188.669.29 1.038.29h.25c.331 0 .657-.082.948-.239l3.25-1.75A2 2 0 0 0 48 30.749v-1.75c0-.265-.052-.518-.145-.75.094-.232.145-.485.145-.75v-3c0-.363-.096-.703-.265-.996Z"
            class="outline"
            fill="#fff"
          ></path>
          <path
            d="M47.735 23.504a2 2 0 0 0-.704-1.291l-1.43-1.192-.186-.186-1-1a2 2 0 0 0-.52-.375l-1-.5-.5-.25a2 2 0 0 0-.15-.067 2 2 0 0 0-.581-1.558l-.5-.5a1.997 1.997 0 0 0-2.65-.159l-3.5 2.75a1.997 1.997 0 0 0-.179 2.987l.5.5a1.99 1.99 0 0 0 2.213.42l.032.004.062.155q.118.294.32.538l1.25 1.5.975 1.219.062.073v1.427h-1.722l-.348-1.276a2 2 0 0 0-.68-1.035v-.189c0-.31-.072-.617-.211-.894l-.25-.5a2 2 0 0 0-1.087-.978l-1.7-.638-.073-.266a2 2 0 0 0-.515-.888l-.25-.25a2 2 0 0 0-1.22-.576l-.047-.142a2 2 0 0 0-.233-.477l-.5-.75a2 2 0 0 0-.555-.555l-.75-.5a2 2 0 0 0-.109-.068v-7.518a2 2 0 0 0-2-2h-1a2 2 0 0 0-2 2v8.25H2.495A2 2 0 0 0 .62 20.052c-.382.364-.62.878-.62 1.447v4.75c0 .768.432 1.434 1.067 1.769l-.638 1.403a2 2 0 0 0 .407 2.242l.25.25c.197.197.428.346.675.445q-.011.195-.011.391a6.76 6.76 0 0 0 6.75 6.75 6.69 6.69 0 0 0 6.254-4.25H20q.165 0 .329-.027l4.337-.723h.084q.127 0 .25-.016.123.015.25.016h1q.064 0 .129-.004l.024.01c.634 2.852 3.186 4.994 6.222 4.994a6.39 6.39 0 0 0 6.159-4.726l2.678-.564c.31.188.669.29 1.038.29h.25c.331 0 .657-.082.948-.239l3.25-1.75A2 2 0 0 0 48 30.749v-1.75c0-.265-.052-.518-.145-.75.094-.232.145-.485.145-.75v-3c0-.363-.096-.703-.265-.996Z"
            class="outline"
            fill="#fff"
          ></path>
        </g>
        <g id="TurfProgatorUtility__icon">
          <path
            d="M25.75 20.75H2.495v.75H2v3.75h23.75zm-18 4a.25.25 0 1 1 0-.5.25.25 0 0 1 0 .5m0-2a.25.25 0 1 1 0-.5.25.25 0 0 1 0 .5m11.5 1H8.5V23h10.75zm.75 1a.25.25 0 1 1 0-.5.25.25 0 0 1 0 .5m0-2a.25.25 0 1 1 0-.5.25.25 0 0 1 0 .5"
            class="primary"
            fill="#367C2B"
          ></path>
          <path
            d="M25.75 25.25H2v1h23.75z"
            class="neutral1"
            fill="#2b2b2b"
          ></path>
          <path
            d="M25.75 26.25H3.5v1.25l1.75-1h19.5v2.25l.75 1.5h.25v-4"
            class="neutral2"
            fill="#808082"
          ></path>
          <path
            d="m14.5 28-1-1.5H5.25l-1.75 1-1.25 2.75.25.25 1.25-.75h1.095C5.716 28.69 7.021 28 8.5 28a4.75 4.75 0 0 1 4.75 4.75c0 .143-.03.277-.042.417l1.042-.417h.25z"
            class="primary"
            fill="#367C2B"
          ></path>
          <path
            d="M24.75 26.5H13.5l1 1.5h.5v-.25h2.25v1H15v-.25h-.5v4.75H20V31.5h4.5v1h.25v-1l.75-1.25-.75-1.5zm-5.5 6h-3.5V32h3.5zm0-1h-3.5V31h3.5zm0-1h-3.5V30h3.5zm4.625-2a.375.375 0 1 1 0-.75.375.375 0 0 1 0 .75m0-1a.375.375 0 1 1 0-.75.375.375 0 0 1 0 .75M25.75 27.5h.5v2.75h-.5z"
            class="neutral1"
            fill="#2b2b2b"
          ></path>
          <path
            d="m37 30-.75-2.75-1.25-1h-5.5l-.25-.25H28V10.5h-1V26l-.75 1.5v2.75l-.5.5.5.5H27l.5-.25.838 1.256a4.366 4.366 0 0 1 8.645.702L37 33l.25.25.25-.25-.5-2.5z"
            class="primary"
            fill="#367C2B"
          ></path>
          <path
            d="m26.25 31.25-.5-.5-.5.5v1.25h1zm-.5 1a.25.25 0 1 1 0-.5.25.25 0 0 1 0 .5"
            class="neutral1"
            fill="#2b2b2b"
          ></path>
          <path
            d="m28.321 32.42-2.071-.92v.75l2.001.89-.001-.015c0-.241.033-.474.071-.705M20 31.5v1.75l4.5-.75v-1z"
            class="neutral2"
            fill="#808082"
          ></path>
          <path
            d="m30.583 22.5-.083-.75-.25-.75-.5-.75-.75-.5h-.5l1 2.75zM32.25 25.5l-.5-1.5h-1l-.083-.75H29.5l.75 1.75zM35.25 26l.25-.25v-.25l-.25-.5-2-.75-.619-.103L33 25.5z"
            class="secondary"
            fill="#FFDE00"
          ></path>
          <path
            d="M29 26h.25l.25.25H35l.25-.25-2.25-.5-.369-1.353-.381-1.397-.25-.25h-2.5l-1-2.75-.5.25v1zm1.667-2.75h.833l.25.75.5 1.5-2-.5-.75-1.75zM42.5 29.25l-.25-.25v1.5H37l.5 2.5 4.75-1v.25l.25.25h.25L46 30.75V29h-.25l-.25.25zm.75 2.25a.25.25 0 1 1 0-.5.25.25 0 0 1 0 .5m0-1a.25.25 0 1 1 0-.5.25.25 0 0 1 0 .5"
            class="neutral1"
            fill="#2b2b2b"
          ></path>
          <path d="M37 30h5.25v.5H37z" class="neutral2" fill="#808082"></path>
          <path
            d="M45.75 24.5v-.75l-1.5-1.25-.25-.25-2.25 3 .25.25.25.25V29l.25.25h3l.25-.25v-1.5H46V27h-1v-2h1v-.5z"
            class="primary"
            fill="#367C2B"
          ></path>
          <path d="M45 25h1v2h-1z" class="neutral3" fill="#f2f2f2"></path>
          <path
            d="m43 21.25-1-.5-.5-.25-.25 1.5-1.75-1.25.25-1.75.5-.5-.5-.5-3.5 2.75.5.5L37 21l2 .25.5 1.25 1.25 1.5 1 1.25 2.25-3zm-5.25-.75 1.25-1v1z"
            class="neutral1"
            fill="#2b2b2b"
          ></path>
          <circle
            cx="43.25"
            cy="30.25"
            r=".25"
            class="neutral2"
            fill="#808082"
          ></circle>
          <circle
            cx="43.25"
            cy="31.25"
            r=".25"
            class="neutral2"
            fill="#808082"
          ></circle>
          <circle
            cx="25.75"
            cy="32"
            r=".25"
            class="neutral2"
            fill="#808082"
          ></circle>
          <circle
            cx="23.875"
            cy="28.125"
            r=".375"
            class="neutral2"
            fill="#808082"
          ></circle>
          <circle
            cx="23.875"
            cy="27.125"
            r=".375"
            class="neutral2"
            fill="#808082"
          ></circle>
          <path d="M8.5 23h10.75v.75H8.5z" class="stripe" fill="#FFDE00"></path>
          <circle
            cx="7.75"
            cy="22.5"
            r=".25"
            class="neutral2"
            fill="#808082"
          ></circle>
          <circle
            cx="7.75"
            cy="24.5"
            r=".25"
            class="neutral2"
            fill="#808082"
          ></circle>
          <circle
            cx="20"
            cy="22.5"
            r=".25"
            class="neutral2"
            fill="#808082"
          ></circle>
          <circle
            cx="20"
            cy="24.5"
            r=".25"
            class="neutral2"
            fill="#808082"
          ></circle>
          <path
            d="M15.75 32h3.5v.5h-3.5zM15.75 31h3.5v.5h-3.5zM15.75 30h3.5v.5h-3.5z"
            class="neutral2"
            fill="#808082"
          ></path>
          <path
            d="M15 28.75h2.25v-1H15v1"
            class="primary"
            fill="#367C2B"
          ></path>
          <path d="M14.5 28h.5v.5h-.5z" class="neutral2" fill="#808082"></path>
          <path
            d="M8.5 30.75a2 2 0 1 0-.001 3.999A2 2 0 0 0 8.5 30.75m0 3a1 1 0 1 1 0-2 1 1 0 0 1 0 2"
            class="secondary"
            fill="#FFDE00"
          ></path>
          <circle
            cx="8.5"
            cy="32.75"
            r="1"
            class="secondary"
            fill="#FFDE00"
          ></circle>
          <circle
            cx="8.5"
            cy="32.75"
            r="1"
            class="shadow"
            fill="#353535"
            opacity=".3"
          ></circle>
          <circle
            cx="8.5"
            cy="32.75"
            r="1"
            class="shadow"
            fill="#353535"
            opacity=".3"
          ></circle>
          <path
            d="M32.625 31.283a1.842 1.842 0 1 0 0 3.685 1.842 1.842 0 0 0 0-3.685m0 2.763a.92.92 0 1 1 0-1.841.92.92 0 0 1 0 1.841"
            class="secondary"
            fill="#FFDE00"
          ></path>
          <path
            d="M32.625 32.204a.92.92 0 1 0 0 1.841.92.92 0 0 0 0-1.841"
            class="secondary"
            fill="#FFDE00"
          ></path>
          <path
            d="M32.625 32.204a.92.92 0 1 0 0 1.841.92.92 0 0 0 0-1.841"
            class="shadow"
            fill="#353535"
            opacity=".3"
          ></path>
          <path
            d="m41.5 20.5-.25 1.5-.5 2 1 1.25-.5-1.5.75-3zM46 25h-1v2h1v.25h-1.25v-2.5H46zM43.25 25.75v1.5l.5.5v-1.5zM36 28.75l-1.5-1.5h-4.25L28 28l-1.5 2.75v-1l1.25-2.25 2.5-.75h4.25zM21 28.75h3.25v.5H21zM21 29.5h1.25V31H21zM22.5 29.75H24v.5h-1.5zM22.5 30.5H24v.75h-1.5zM3.75 27.75h.75l-1.5 2zM10.5 27h2.75l1 2.75-.25.75-1.25-3zM17.25 28h2.25l.5.75V30l-.25.5v-1.25l-.5-.75h-2z"
            class="highlight"
            fill="#fefeff"
            opacity=".31"
          ></path>
          <path
            d="M29.5 23.25h.5l.5 1.25 5 1v.25l-.25.25-2.25-.5h-.75l-2-.5zM44 22.25l-2.25 3 .25.25 2.25-3zM45 26h1v1h-1zM43.25 29.25v-2l.5.5v1.5zM28.5 32.5l-1-1.5.75-1.25 1.75-1.5 2.5-.5 1.75.25 2 1.5 1 3.75L37 33l-1-2.5-2.5-1.5-3.25.5-1.5 2zM27 26v-2.25h1V26l-1.75 2.75V27.5zM5 29.75H3.75L5.25 28l2-.75h2.5l1.75.75 1.5 1 .75 1.75.25 1 .5.25v.75h-.25l-1.25.5-.25-2-1-1.75-1.75-1-1.75-.25-2 .5zM2 21.5h.5v3.75H2zM3.25 21.5H7v3.75H3.25zM8.5 21.5h10.75V23H8.5zM8.5 23.75h10.75v1.5H8.5zM20.75 21.5h4v3.75h-4z"
            class="shadow"
            fill="#353535"
            opacity=".3"
          ></path>
          <path
            d="M20.75 21.5h4v.5h-4zM8.5 21.5h10.75v.5H8.5zM3.25 21.5H7v.5H3.25z"
            class="shadow"
            fill="#353535"
            opacity=".3"
          ></path>
          <path
            d="M8.5 28c-1.479 0-2.784.69-3.655 1.75a4.7 4.7 0 0 0-1.095 3A4.75 4.75 0 0 0 8.5 37.5c2.481 0 4.494-1.908 4.708-4.333.012-.14.042-.274.042-.417A4.75 4.75 0 0 0 8.5 28m0 7.25a2.5 2.5 0 1 1 0-5 2.5 2.5 0 0 1 0 5"
            class="neutral1"
            fill="#2b2b2b"
          ></path>
          <path
            d="M8.5 30.25a2.5 2.5 0 1 0 0 5 2.5 2.5 0 0 0 0-5m0 4.5a2 2 0 1 1-.001-3.999A2 2 0 0 1 8.5 34.75"
            class="secondary"
            fill="#FFDE00"
          ></path>
          <path
            d="M8.5 30.75a2 2 0 1 0-.001 3.999A2 2 0 0 0 8.5 30.75m0 3a1 1 0 1 1 0-2 1 1 0 0 1 0 2"
            class="shadow"
            fill="#353535"
            opacity=".3"
          ></path>
          <path
            d="M32.625 28.75a4.374 4.374 0 0 0-4.287 3.506c-.011.053-.008.11-.017.164a4.3 4.3 0 0 0-.071.705l.001.015A4.374 4.374 0 0 0 37 33.125c0-.057-.015-.11-.017-.167a4.366 4.366 0 0 0-4.358-4.208m0 6.678a2.303 2.303 0 1 1 0-4.606 2.303 2.303 0 0 1 0 4.606"
            class="neutral1"
            fill="#2b2b2b"
          ></path>
          <path
            d="M32.625 30.822a2.303 2.303 0 1 0 0 4.606 2.303 2.303 0 0 0 0-4.606m0 4.145a1.842 1.842 0 1 1 0-3.685 1.842 1.842 0 0 1 0 3.685"
            class="secondary"
            fill="#FFDE00"
          ></path>
          <path
            d="M32.625 31.283a1.842 1.842 0 1 0 0 3.685 1.842 1.842 0 0 0 0-3.685m0 2.763a.92.92 0 1 1 0-1.841.92.92 0 0 1 0 1.841"
            class="shadow"
            fill="#353535"
            opacity=".3"
          ></path>
          <path
            d="M32.625 32.204a.92.92 0 1 0 0 1.841.92.92 0 0 0 0-1.841"
            class="shadow"
            fill="#353535"
            opacity=".3"
          ></path>
        </g></svg>
