<svg xmlns="http://www.w3.org/2000/svg"
        class="css-9txd9r"
        focusable="false"
        viewBox="0 0 48 48"
        data-icon-name="TurfUtilityRake1220"
      >
        <path
          id="TurfUtilityRake1220__outline"
          d="m46.94 35.732-.436-.763V30.75a2 2 0 0 0-2-2h-1.313l-.014-.05-.5-1.75q-.011-.042-.026-.083l-.25-.75a2 2 0 0 0-.182-.397l-.75-1.25a2 2 0 0 0-.592-.626L40.1 21.98a2 2 0 0 0-.131-.26l-.75-1.25a2 2 0 0 0-.466-.533l-1.164-.931-.422-.422a2 2 0 0 0-1.301-.583l.015-.092a2.001 2.001 0 0 0-.429-2.761l-1-.75a1.996 1.996 0 0 0-2.614.186l-4.25 4.25a2 2 0 0 0-.504 1.982 2 2 0 0 0-1.082-.318 2 2 0 0 0-.812.172l-1.209.537a2 2 0 0 0-.122-.452l-.5-1.25a2 2 0 0 0-.443-.671l-.5-.5a2 2 0 0 0-.52-.375l-.5-.25a2 2 0 0 0-.894-.211h-.75c-.582 0-1.126.253-1.5.677V7a2 2 0 0 0-2-2h-1.75a2 2 0 0 0-2 2v14.268a2 2 0 0 0-.987 1.5 1.987 1.987 0 0 0-.895.086l-1.5.5a2 2 0 0 0-1.278 2.49l1.749 5.635q-.285.371-.523.772h-.315c-.363 0-.703.097-.997.266a1.996 1.996 0 0 0-.996.127l-1.122.449-.073-.091a2 2 0 0 0-2.456-.54l-2 1a2 2 0 0 0-1.003 2.421l.088.265a2 2 0 0 0-.088 1.485l.25.75a1.998 1.998 0 0 0 2.791 1.156l.054-.027a2 2 0 0 0 2.495.502c.351.303.807.486 1.307.486h.75q.127 0 .25-.016.123.015.25.016h.75q.185 0 .36-.032a7.62 7.62 0 0 0 6.265 3.282 7.6 7.6 0 0 0 6.413-3.5h2.479c.267.461.712.806 1.241.939A2 2 0 0 0 27.752 43h1a2 2 0 0 0 2-2v-.077a7.2 7.2 0 0 0 4 1.202 7.18 7.18 0 0 0 6.143-3.434 2 2 0 0 0 1.607.809h.427a2 2 0 0 0 1.323.5h1.751a2 2 0 0 0 1.999-2.001v-.5a2 2 0 0 0-1.064-1.767Z"
          class="outline"
          fill="#fff"
        ></path>
        <g id="TurfUtilityRake1220__icon">
          <path
            d="M10.503 34.25h-1.75V35h-1l-.25-.5-2.5 1-1-1.25-2 1 .25.75 1.5-.75 1 1.25 1.25-.5.75.25-2 1-1-1.25-1.75 1 .25.75 1.5-.75 1 1.25L7.003 37v1.5h.75v-2h.5v2h.75v-2h.75v-1.25h.75z"
            class="neutral2"
            fill="#808082"
          ></path>
          <circle
            cx="34.753"
            cy="34.875"
            r="5.25"
            class="neutral1"
            fill="#2b2b2b"
          ></circle>
          <circle
            cx="34.753"
            cy="34.875"
            r="2.763"
            class="secondary"
            fill="#FFDE00"
          ></circle>
          <circle
            cx="34.753"
            cy="34.875"
            r="2.211"
            class="shadow"
            fill="#353535"
            opacity=".3"
          ></circle>
          <circle
            cx="34.753"
            cy="34.875"
            r="1.105"
            class="shadow"
            fill="#353535"
            opacity=".3"
          ></circle>
          <path
            d="m30.753 35 1.25 3 9.75-2-.5-.5V35h-.25l-8.25 1.75-.75-1.5v-.5z"
            class="neutral2"
            fill="#808082"
          ></path>
          <path
            d="m33.253 36.25 4.75-1-.25-1.25h-1.25l.25.75-2.5.5-.25-.5.75-.25-2 .25z"
            class="neutral2"
            fill="#808082"
          ></path>
          <circle
            cx="15.628"
            cy="36.125"
            r="5.625"
            class="neutral1"
            fill="#2b2b2b"
          ></circle>
          <circle
            cx="15.628"
            cy="36.125"
            r="2.961"
            class="secondary"
            fill="#FFDE00"
          ></circle>
          <circle
            cx="15.628"
            cy="36.125"
            r="2.368"
            class="shadow"
            fill="#353535"
            opacity=".3"
          ></circle>
          <circle
            cx="15.628"
            cy="36.125"
            r="1.184"
            class="shadow"
            fill="#353535"
            opacity=".3"
          ></circle>
          <path
            d="m33.503 20 .5-2.98.25-.27-1-.75-4.25 4.25 1 1 .25-.25 2.5-.25.75.75 1-.25zm-2.51.2.59-.62.42.42zm1.76-.95-.44-.44.67-.72z"
            class="neutral1"
            fill="#2b2b2b"
          ></path>
          <path
            d="m32.503 30 .75-1.5 5.5-.5v-.75l.25-.75.5-.75-1.25-3-.75-1.25-1.25-1-4 2.5-2.5 4.5.5 1.5z"
            class="primary"
            fill="#367C2B"
          ></path>
          <path
            d="m40.003 28 .25 1.25.25 1.25-1.25 2 .5 1.5 1.75-3.25-.25-1.5-.5-1.75-.25-.75-.75-1.25-.25.25-.5.75-.25.25V28z"
            class="neutral1"
            fill="#2b2b2b"
          ></path>
          <path
            d="m32.503 30 1.75-.5 4.5-.5.75.5.25 3h-.75l.25 1.25-10.5 1.75h-.75V37h.75v4h-1v-2.75h-.5v1h-1v-1h-5.5l-.75-5.5-6.5-.25V23h6v3.5h5.25-.25l-.75.25 1.5 4.5.25.5.5-.25 1.75-.5 1.5-1 .5-.5.5-.5z"
            class="neutral1"
            fill="#2b2b2b"
          ></path>
          <path
            d="m19.753 19.5-.25.5v1.25l.5 2.25.5 2.75.5.25h6l.75-.25.25-.25h-2.5l-2.5-.25-1-.5-.75-.5-.5-1.5-.25-1.75-.25-.75-.25-.25z"
            class="neutral1"
            fill="#2b2b2b"
          ></path>
          <path
            d="m20.003 20.5.25.25.5 2.5.5 1.5.75.5 1 .5 2.5.25h2.5l.25-.5v-.75l-.25-.25-.75-.25-1.5-.25h-2.5l-.75-.25-.5-.75v-1.5l-.5-1.25-.5-.5-.5-.25h-.75z"
            class="secondary"
            fill="#FFDE00"
          ></path>
          <path
            d="m11.253 24.75-1.5.5 2.25 7.25 1.25-.5z"
            class="neutral1"
            fill="#2b2b2b"
          ></path>
          <path
            d="M14.253 28.5h6.75l1 2.5h-2.25l-.75-.75h-4.75z"
            class="primary"
            fill="#367C2B"
          ></path>
          <path
            d="M12.253 24.75h1v6.75h-1z"
            class="neutral1"
            fill="#2b2b2b"
          ></path>
          <path
            d="M42.503 37.5h1.25l.5.5 1.75-.001V37.5l-.5-.25-1-1.75v-4.75h-1.25v.75l-.5.25-1 .5-.5.25v3z"
            class="neutral2"
            fill="#808082"
          ></path>
          <path
            d="M14.503 7h1.75v20.25h-1.75z"
            class="neutral1"
            fill="#2b2b2b"
          ></path>
          <path
            d="M14.753 29h3v.75h-3z"
            class="secondary"
            fill="#FFDE00"
          ></path>
          <path
            d="M11.753 27.75h1.75v2h-1.75z"
            class="neutral2"
            fill="#808082"
          ></path>
          <path
            d="m25.253 31.25-2.25.5-1.25-3.75h-.75v.25h-6.75v-.5h3.5l.5-.75h2.75v.5h.72l-.22-.75h2.25l.25.75h-1.75l1.25 3.5 1.5-.25zM14.253 23h.25v3.75h-.25zM16.253 23h.25v3.75h-.25zM17.003 23.5h.75v.75h-.75zM18.253 23.5h.75v.75h-.75zM18.253 24.75h.75v.75h-.75zM17.003 24.75h.75v.75h-.75zM17.003 26h.75v.75h-.75zM18.253 26h.75v.75h-.75z"
            class="highlight"
            fill="#fefeff"
            opacity=".31"
          ></path>
          <path
            d="m35.753 20-4.25 2.5-1.75 3.25v1.75l2.5-4.5 4-2.5z"
            class="neutral1"
            fill="#2b2b2b"
          ></path>
          <path
            d="m36.253 20.5-2 1.25-2 1.25-2.5 4.5.25.75 2.75-4.75 4-2z"
            class="highlight"
            fill="#fefeff"
            opacity=".31"
          ></path>
          <path
            d="m36.253 20.5.75 1.5.25.5 1 .25-.75-1.25z"
            class="shadow"
            fill="#353535"
            opacity=".3"
          ></path>
          <path
            d="m37.253 22.5 1.5 3.5.75-.25-1.25-3zM27.753 41h1v-4h-7.75l-.25 1.25h5.5v1h1v-1h.5zM21.253 36.25h5.75V31.5h-1v4h-4.75z"
            class="highlight"
            fill="#fefeff"
            opacity=".31"
          ></path>
          <path
            d="M21.253 34.5h4v.5h-4zM21.003 33.5h4.25v.5h-4.25zM24.503 33.25l1.5-1.75-.5.25-.25-.5-1.75 2z"
            class="highlight"
            fill="#fefeff"
            opacity=".31"
          ></path>
          <path
            d="M26.753 26.5h-2.25l-.75.25 1.25 4 .25.5.25.5.5-.25 1.75-.5 1.5-1 .5-.5-1-2.5-.75.25-.5-.25-.5-.5z"
            class="primary"
            fill="#367C2B"
          ></path>
          <path
            d="M41.253 32.5v3l1.25 2h1.25l.5.5 1.75-.001v-.25l-.5.001-1-.25-1.25-2v-4l-.5.25v3.75l.25.5h-1l-.25-.5v-3.25z"
            class="shadow"
            fill="#353535"
            opacity=".3"
          ></path>
          <path
            d="M43.253 30.75h1.25v2h-1.25z"
            class="highlight"
            fill="#fefeff"
            opacity=".31"
          ></path>
          <circle
            cx="42.253"
            cy="35"
            r=".5"
            class="shadow"
            fill="#353535"
            opacity=".3"
          ></circle>
          <path
            d="m32.503 30-.25.25-1.75.25-1.25 3.75 7-1.25-1-1.5 1.25-.25 1 1.5 1.5-.25.25 1.25-10.5 1.75-.5-1 1.75-4.5 1.75-.25z"
            class="highlight"
            fill="#fefeff"
            opacity=".31"
          ></path>
          <path
            d="m24.253 25.5-.5-2 2.25-1 .5 1.25-1.25.5.25 1.25z"
            class="neutral1"
            fill="#2b2b2b"
          ></path>
          <path
            d="m27.003 26.5.5.5.5.25.75-.25 1 2.5-.5.5-.25-.25-1.5.75-.25-.5 1.5-.75-.75-1.75-.5-.25-.5-.5zM25.003 27.75l1 2.5-.25.25-1-2.5zM30.253 29l8.5-2.25V26l-8.75 2.25z"
            class="shadow"
            fill="#353535"
            opacity=".3"
          ></path>
          <path
            d="m30.253 29 8.5-2.25v.5l-8 2z"
            class="highlight"
            fill="#fefeff"
            opacity=".31"
          ></path>
          <path
            d="m35.003 26.75 3-.75-.25-.75-3 .75z"
            class="secondary"
            fill="#FFDE00"
          ></path>
          <path
            d="M36.253 28.25v-2.5l.25-.5h.75v3z"
            class="neutral1"
            fill="#2b2b2b"
          ></path>
          <path
            d="m39.003 26.5-1.75-1v.75l1.5 1v-.5zM40.253 29h-1.5l-4.5.5-2 4h-4.75l-1-2-2-5-.25-1h1.25l.25 1 2 4.75.5 1h3.25l1-2.25.75-1.5 5.5-.5h1.25z"
            class="neutral2"
            fill="#808082"
          ></path>
          <path
            d="m35.253 31.5 1.25-.25 1 1.5.5.75-1.25.25-.5-.75z"
            class="highlight"
            fill="#fefeff"
            opacity=".31"
          ></path>
          <circle
            cx="39.753"
            cy="27.25"
            r=".5"
            class="neutral2"
            fill="#808082"
          ></circle>
          <path
            d="m19.753 19.5.25 1 .25.25.5 2.5.5 1.5.75.5 1 .5 2.5.25h2.5l.25-.5v-.25l-.5-.25-1.25-.25h-3l-.75-.25-.5-.25-.75-1-.25-1.75-.25-1-.5-.5z"
            class="shadow"
            fill="#353535"
            opacity=".3"
          ></path>
        </g></svg>
