<svg xmlns="http://www.w3.org/2000/svg"
        class="css-9txd9r"
        focusable="false"
        viewBox="0 0 48 48"
        data-icon-name="TurfProgator"
      >
        <path
          id="TurfProgator__outline"
          d="M47.75 27.781v-.031a2 2 0 0 0-.586-1.414l-1-1-.25-.25a2 2 0 0 0-.305-.25l-.179-.119-.033-.099-.044-.12-2.179-5.364c.276-.099.529-.258.74-.469l.25-.25a2 2 0 0 0 .586-1.414v-.75a2 2 0 0 0-1.257-1.857l-1.25-.5a2 2 0 0 0-.743-.143h-12a2 2 0 0 0-1.857 1.257l-.5 1.25a2 2 0 0 0 .003 1.493H26c-.352 0-.682.091-.969.25h-3.546a2 2 0 0 0-1.985-1.75h-1a2 2 0 0 0-2 2v.927a2 2 0 0 0-.268.387l-4.874.975a2 2 0 0 0-.192.048l-.001-.001-.25-.25c-.391-.391-.902-.586-1.414-.586s-1.024.195-1.414.586l-.086.086V8.751a2 2 0 0 0-2-2h-.5a2 2 0 0 0-2 2v.015c-.326.041-.627.16-.885.337A2 2 0 0 0 1.251 11v1.75c0 .507.189.97.5 1.323v1.366c-.457.367-.75.93-.75 1.561v1.75c0 .467.16.896.428 1.237l-.091 1.636a2 2 0 0 0-.837 1.628v1.75c0 .465.158.892.424 1.232l-.081 1.384a2 2 0 0 0-.847 1.632v3.25a2 2 0 0 0 2 2H6.5c.441 0 .87-.146 1.219-.415l.061-.047c.097.215.234.415.408.589l.213.213q.228.227.502.366a6.056 6.056 0 0 0 6.048 6.044c2.39 0 4.493-1.418 5.46-3.5h3.838q.299-.001.571-.083l3.075-.608c.259.122.548.191.854.191h.489a5.635 5.635 0 0 0 5.386 4c2.5 0 4.624-1.639 5.354-3.899l2.2-.412c.318.202.689.311 1.071.311h.25c.362 0 .718-.099 1.029-.285l2.5-1.5a2 2 0 0 0 .971-1.715v-1.5c0-.265-.052-.518-.145-.75.094-.232.145-.485.145-.75v-2c0-.352-.091-.682-.25-.969Z"
          class="outline"
          fill="#fff"
        ></path>
        <g id="TurfProgator__icon">
          <path
            d="M29 30H10.75v1l1.5-.75h16V32l.75 1.25V30"
            class="neutral2"
            fill="#808082"
          ></path>
          <path
            d="M19.75 31.5v-.25l-.75-1h-6.75l-1.5.75-1.148 2.213.213.213 1.065-.639h.839a4.03 4.03 0 0 1 3.232-1.634 4.05 4.05 0 0 1 4.048 4.048c0 .148-.028.288-.044.432l.544-.384h.25z"
            class="primary"
            fill="#367C2B"
          ></path>
          <path
            d="M28.25 30.25H19l.75 1v.25h.5v-.25h2v1h-2V32h-.5v3.75h4.5v-1.5H28V35h.25v-.75l.75-1-.75-1.25zM23.983 35H21v-.5h3zm0-.75H21v-.5h3zM24 33.5h-3V33h3zm3.68-1.611a.32.32 0 1 1 0-.64.32.32 0 0 1 0 .64m0-.75a.32.32 0 1 1 0-.64.32.32 0 0 1 0 .64M29 31h.5v2.25H29zM29.25 33.75l-.5.435v1.065h1v-1zm-.037.926a.213.213 0 1 1 0-.426.213.213 0 1 1 0 .426"
            class="neutral1"
            fill="#2b2b2b"
          ></path>
          <path
            d="M29.75 34.25V35l1.25.625q.002-.367.072-.714zM24.25 34.25v1.491L28 35v-.75z"
            class="neutral2"
            fill="#808082"
          ></path>
          <path
            d="m33.312 26.75-.062-.5-.5-.75-.5-.75-.5-.25h-.25l.75 2.25zM37.25 29.787l.25-.287v-.25l-.75-.5-1.865-.466.365 1.216zM33.5 28.25l-.094-.75H32.5L33 29l1.5.25-.286-1z"
            class="secondary"
            fill="#FFDE00"
          ></path>
          <path
            d="m37.25 29.787-2-.287-.365-1.216L34.5 27l-.25-.25h-2l-.75-2.25-.5.25v.75l1 4.25.25.25h4.787zM33 29l-.5-1.5H34l.214.75.286 1zM43.25 32.5l-.25-.25v1.25h-4.5l.5 2 4-.75V35l.25.25h.25l2.5-1.5v-1.5h-.25l-.25.25zm.537 1.926a.213.213 0 1 1 0-.426.213.213 0 1 1 0 .426m0-.75a.213.213 0 1 1 0-.426.213.213 0 1 1 0 .426"
            class="neutral1"
            fill="#2b2b2b"
          ></path>
          <path d="M38.5 33H43v.5h-4.5z" class="neutral2" fill="#808082"></path>
          <path
            d="M45.75 28.75v-1l-1-1-.25-.25-.412.515L43.75 26l-.25-.75-3.25-8h2.25l.25-.25v-.75l-1.25-.5h-12L29 17l.75 1H30v12l-.5 1v2.25l-.25.5.5.5H30l.5-.25.602.803A3.62 3.62 0 0 1 34.625 32a3.617 3.617 0 0 1 3.608 3.454l.017.046.5.25.25-.25-.5-2V33l-.5-2.25-1-.75h-4.75l-.25-.25h-1V18h.5l.75-.75h6.5l1 .5L43 25.5l.627 2.091L42.5 29l.25.25.25.25v2.75l.25.25h2.25l.25-.25v-1.5H46v-.25h-.75V29H46v-.25z"
            class="primary"
            fill="#367C2B"
          ></path>
          <path
            d="M45.25 29H46v1.5h-.75z"
            class="neutral3"
            fill="#f2f2f2"
          ></path>
          <path
            d="m42 26.25-1.25-.75v-1.75l.5-.5-.5-.5-3 2.75.5.5.25-.25h2l-.25.25-.75.75v.5l.5.75h.5l.75-.5.25.25 1 1.25 1.127-1.409L43 25.5h-.75zm-1.795-.972L39 25.25l1.25-1zM44.5 26.5l-.75-.5.338 1.015z"
            class="neutral1"
            fill="#2b2b2b"
          ></path>
          <circle
            cx="43.787"
            cy="33.463"
            r=".213"
            class="neutral2"
            fill="#808082"
          ></circle>
          <circle
            cx="43.787"
            cy="34.213"
            r=".213"
            class="neutral2"
            fill="#808082"
          ></circle>
          <circle
            cx="29.213"
            cy="34.463"
            r=".213"
            class="neutral2"
            fill="#808082"
          ></circle>
          <path
            d="M27.68 31.25a.32.32 0 1 0 0 .64.32.32 0 0 0 0-.64M27.68 30.5a.32.32 0 1 0 0 .64.32.32 0 0 0 0-.64M21 35h2.983l.017-.5h-3zM21 34.25h2.983l.017-.5h-3zM21 33h3v.5h-3z"
            class="neutral2"
            fill="#808082"
          ></path>
          <path
            d="M20.25 32.25h2v-1h-2v1"
            class="primary"
            fill="#367C2B"
          ></path>
          <path
            d="M19.75 31.5h.5v.5h-.5z"
            class="neutral2"
            fill="#808082"
          ></path>
          <path
            d="M14.952 31.153a4.03 4.03 0 0 0-3.232 1.634 4 4 0 0 0-.816 2.415 4.05 4.05 0 0 0 4.048 4.048c2.088 0 3.786-1.586 4.005-3.616.016-.144.044-.284.044-.432a4.05 4.05 0 0 0-4.048-4.048Zm0 6.179a2.13 2.13 0 1 1 0-4.262 2.13 2.13 0 0 1 0 4.262"
            class="neutral1"
            fill="#2b2b2b"
          ></path>
          <path
            d="M14.952 33.071a2.13 2.13 0 1 0 0 4.262 2.13 2.13 0 0 0 0-4.262m0 3.835a1.705 1.705 0 1 1 0-3.41 1.705 1.705 0 0 1 0 3.41"
            class="secondary"
            fill="#FFDE00"
          ></path>
          <path
            d="M14.952 33.497a1.705 1.705 0 1 0 0 3.41 1.705 1.705 0 0 0 0-3.41m0 2.557a.852.852 0 1 1 0-1.704.852.852 0 0 1 0 1.704"
            class="secondary"
            fill="#FFDE00"
          ></path>
          <path
            d="M14.952 33.497a1.705 1.705 0 1 0 0 3.41 1.705 1.705 0 0 0 0-3.41m0 2.557a.852.852 0 1 1 0-1.704.852.852 0 0 1 0 1.704"
            class="shadow"
            fill="#353535"
            opacity=".3"
          ></path>
          <path
            d="M14.952 34.349a.852.852 0 1 0 0 1.704.852.852 0 0 0 0-1.704"
            class="secondary"
            fill="#FFDE00"
          ></path>
          <path
            d="M14.952 34.349a.852.852 0 1 0 0 1.704.852.852 0 0 0 0-1.704"
            class="shadow"
            fill="#353535"
            opacity=".3"
          ></path>
          <path
            d="M14.952 34.349a.852.852 0 1 0 0 1.704.852.852 0 0 0 0-1.704"
            class="shadow"
            fill="#353535"
            opacity=".3"
          ></path>
          <path
            d="M34.625 32a3.62 3.62 0 0 0-3.523 2.803c-.009.037-.023.071-.03.108a3.625 3.625 0 1 0 7.178.714c0-.059-.014-.113-.017-.171A3.616 3.616 0 0 0 34.625 32m0 5.533a1.908 1.908 0 1 1 0-3.815 1.908 1.908 0 0 1 0 3.815"
            class="neutral1"
            fill="#2b2b2b"
          ></path>
          <path
            d="M34.625 33.717a1.908 1.908 0 1 0 0 3.815 1.908 1.908 0 0 0 0-3.815m0 3.434a1.526 1.526 0 1 1 0-3.051 1.526 1.526 0 0 1 0 3.051"
            class="secondary"
            fill="#FFDE00"
          ></path>
          <path
            d="M34.625 34.099a1.526 1.526 0 1 0 0 3.051 1.526 1.526 0 0 0 0-3.051m0 2.289a.763.763 0 1 1 0-1.526.763.763 0 0 1 0 1.526"
            class="secondary"
            fill="#FFDE00"
          ></path>
          <path
            d="M34.625 34.099a1.526 1.526 0 1 0 0 3.051 1.526 1.526 0 0 0 0-3.051m0 2.289a.763.763 0 1 1 0-1.526.763.763 0 0 1 0 1.526"
            class="shadow"
            fill="#353535"
            opacity=".3"
          ></path>
          <path
            d="M34.625 34.862a.763.763 0 1 0 0 1.526.763.763 0 0 0 0-1.526"
            class="secondary"
            fill="#FFDE00"
          ></path>
          <path
            d="M34.625 34.862a.763.763 0 1 0 0 1.526.763.763 0 0 0 0-1.526"
            class="shadow"
            fill="#353535"
            opacity=".3"
          ></path>
          <path
            d="M34.625 34.862a.763.763 0 1 0 0 1.526.763.763 0 0 0 0-1.526"
            class="shadow"
            fill="#353535"
            opacity=".3"
          ></path>
          <path
            d="M29.25 29.75v-2H29l-.75-2.25L27 24h-.03q.03-.06.03-.12a.38.38 0 0 0-.38-.38.376.376 0 0 0 0 .75c.03 0 .06 0 .08-.02l1.3 1.52.5 2h-18v-2.5l.25-1 .25-.75v-.25h-.75v4H9.5v.5h.25V30H29z"
            class="neutral1"
            fill="#2b2b2b"
          ></path>
          <path
            d="m10.75 24.25-.25 1v2.5h18l-.5-2-1.3-1.52c-.02.02-.05.02-.08.02a.376.376 0 0 1 0-.75c.21 0 .38.17.38.38q0 .06-.03.12H27l1.25 1.5.75 2.25h.25V22L28 21.25h-.25v-.5h-2v.5h-.5v-1L25 20h-3.75l-.25.25v.25h-3v.75l-6.25 1.25-.5.5-.25.25v.25z"
            class="secondary"
            fill="#FFDE00"
          ></path>
          <path
            d="M18.5 18.25h1v2.25h-1zM28 20.75v-.5l-.5-.25v-.25H26V20l-.5.25v.5H28M9.25 29.5v-1.25h-2.5l-.25 3.5H6V26.5h.75v1.25H8V26.5l.5-.5v.75h1V25h-1v.25l-.5.25v-1h1.5v-1.25h.25v-.75h-.5v.75h-1v.5H7.5l-.25.5v1.25H6V8.75h-.5v2.5h-.25V13H4.5v-.75h-.75v-.75h.75V11l-.25-.25h-.5V11h-.5v1.75h.5V17H3v1.75h.5l-.25 4.5H2.5V25H3l-.25 4.25h-.753v3.249H6.5v-.5zm-3.75-4H5v-5.167l.5-.583zm0-11v4.25l-.5.583V14.5zm-2 3h.75v-3h.5v5.125L4 20.5l.25-2.25H3.5zm-.75 12.25h.772l.228-5.25h-.5v-.75h.562L4 21.5l.75-.875V25.5H4.5v1h.25v3.75h-1v.25h-1zm.75 2v-.5h1.25v.5zm2 0H5v-.5h.5zm-.5-1.5V26.5h.5v3.75z"
            class="neutral1"
            fill="#2b2b2b"
          ></path>
          <path
            d="m8.5 27.25-.5.5h.75l.5-.5z"
            class="neutral1"
            fill="#2b2b2b"
          ></path>
          <path
            d="m9.75 22-.25-.25-.25.25v.5h.5z"
            class="secondary"
            fill="#FFDE00"
          ></path>
          <path
            d="M9.5 24.5h-1v.5h1v1.75h-1v.5h1.75v-4H9.5zM9.5 27.75H6.25v.5h3v1.25L6.5 32v.5L9.75 30v-2.25zM3.75 12.25h1v-.75h-1zM4.5 18.25v-.75h-1v.75h1M4.25 23.75h-1v.75h1zM3.75 30.25v-.5h-1v.75h1z"
            class="neutral2"
            fill="#808082"
          ></path>
          <path
            d="M46 29h-.75v1.5H46v.25h-1v-2h1zM43.5 29.5v1.25l.5.5V30zM38 32l-1.25-1.25h-3.5l-2 .75L30 33.75V33l1-2 2.25-.75h3.5zM25 32h2.75v.5H25zM25.25 32.75h1V34h-1zM26.5 32.75h1.25v.5H26.5zM26.5 33.5h1.25v.5H26.5zM11.25 31h.5l-1.5 1.75zM16.5 30.75h2.094L19.5 33l-.267.733-.983-2.483zM22.25 31.5h2l.5.5v1.25l-.25.25v-1L24 32h-1.75zM42.25 25.5h.5L42 28l.5 1-1-1.25.5-1.5zM10.5 28H14v.5h-3.5zM10.5 29H14v.5h-3.5zM14.75 28h1v.5h-1zM14.75 29h1v.5h-1zM16.5 28v.5h2.25v-.25h4.5v.25H28v-.25h-4.5V28zM16.5 29h2v.5h-2zM23.25 29H28v.5h-4.75zM14 23h.5v4.75H14zM19 22.5h.5v5.25H19z"
            class="highlight"
            fill="#fefeff"
            opacity=".31"
          ></path>
          <path
            d="M26 22.25v.25H15.5l-1 .5H14l-3 .5v-.25l.25-.25 2.75-.5 1.5-.5h10.38z"
            class="highlight"
            fill="#fefeff"
            opacity=".31"
          ></path>
          <path
            d="M22.75 22.5H23v5.25h-.25zM24 22.5h.25v5.25H24zM29.25 22v.5H27.5v-.25l.13-.25z"
            class="highlight"
            fill="#fefeff"
            opacity=".31"
          ></path>
          <path
            d="M45.25 29.75H46v.75h-.75zM43.5 32.5v-1.75l.5.5v1.25zM11.946 32.787h-1.065L12.25 31.5l1.5-.5 2.25-.25 1.5.75 1 1L19 34l.616.491.427.214v.639h-.213l-1.066.426-.213-1.705-.852-1.491-1.492-.852-1.491-.213-1.705.426zM42.5 29l.25.25 2-2.5-.25-.25zM30 18h1v1h-1zM30 28h1v1.75L29.5 32v-1l.5-1zM32.25 17.25v-.5h9v-1h.25l1.25.5V17l-.25.25h-2.75v.5l-1-.5zM32.5 27.5h.25l.5 1 4 .75-.25.5-1.75-.25-.75-.25L33 29zM18 21.25v-.75h3v-.25l.25-.25H25l.25.25v1zM14.5 27.75V23l1-.5v5.25zM19.5 22.5h.75v5.25h-.75zM23 22.5h.5v5.25H23zM24.25 22.5H25v5.25h-.75zM28 21.25l-.37.75-.13.25v2l-.5.25h-.5l-.5-.25v-2l-.12-.25-.38-.75h.25l.25.25h1.5l.25-.25z"
            class="shadow"
            fill="#353535"
            opacity=".3"
          ></path>
        </g></svg>
