<svg xmlns="http://www.w3.org/2000/svg"
        class="css-9txd9r"
        focusable="false"
        viewBox="0 0 48 48"
        data-icon-name="Turf220sl"
      >
        <path
          id="Turf220sl__outline"
          d="m47.062 38.904-1.75-3.75a2 2 0 0 0-.828-.895l-5.75-3.25a2 2 0 0 0-1.762-.101l-3.992 1.686-.561-1.908a2 2 0 0 0-.842-1.121l.011-.027c.193-.45.214-.956.059-1.42l-.338-1.014.48-.959a2 2 0 0 0-.894-2.683l-2.5-1.25a1.998 1.998 0 0 0-2.683.894l-.113.225-1.708-.732 1.83-6.655c.528-.128.992-.47 1.268-.956.436-.248.775-.659.927-1.164l.75-2.5a2 2 0 0 0-1.021-2.364l-1-.5a2 2 0 0 0-.894-.211h-1c-.266 0-.529.053-.774.156l-.584-.117a2 2 0 0 0-2.289 1.329l-1 3a2 2 0 0 0 .329 1.873l-2.101 8.194-.069.207c-.443.176-.823.51-1.05.964l-.024.047-.535-1.07-1.447-6.752a2 2 0 0 0-.254-.632l-2.232-3.614c.312-.24.55-.57.678-.953l.25-.75a2 2 0 0 0-.233-1.742l-.5-.75a2 2 0 0 0-1.656-.891l.22-.171q.098-.077.186-.164l.25-.25a2 2 0 0 0 0-2.828l-.5-.5a2 2 0 0 0-1.414-.586h-.25c-.454 0-.895.155-1.249.438L6.002 4.688V2a2 2 0 0 0-2-2h-.749A2 2 0 0 0 1.25 2v8a2 2 0 0 0 .586 1.414l.5.5q.213.212.474.351a2 2 0 0 0 .225 1.514l.75 1.25A2 2 0 0 0 5.5 16h.212l1.79 3.221q.05.09.11.176l.848 1.211a2 2 0 0 0-.11 1.516 2 2 0 0 0 .486 2.039l.75.75a2 2 0 0 0 .914.523v.313c0 .41.126.811.362 1.147l.294.42-.315.168a2 2 0 0 0-.564.448l-1.531 1.75a2 2 0 0 0-.495 1.317v.75a2 2 0 0 0 1.059 1.765l3.49 1.861q.05.054.106.104l1.906 1.732a7.03 7.03 0 0 0-1.06 3.694c0 3.911 3.182 7.094 7.094 7.094 1.639 0 3.17-.56 4.388-1.529a1.99 1.99 0 0 0 1.893.077c.268.13.566.202.874.202q.042 0 .083-.002a2 2 0 0 0 1.557-.853 2 2 0 0 0 .307-.133c.174.214.395.396.658.527l1.5.75a2.009 2.009 0 0 0 2.226-.296q.084.007.168.007h7.75c.254 0 .507-.049.743-.143l1.25-.5c.251-.101.48-.251.671-.443l.5-.5 1.25-1.25a2 2 0 0 0 .586-1.414v-2.75c0-.292-.064-.581-.188-.846Z"
          class="outline"
          fill="#fff"
        ></path>
        <g id="Turf220sl__icon">
          <path
            d="m43.5 36-5.75-3.25-6.055 2.562L30.5 31.25 29 30.5l.75-1.75-.5-1.5-.75-.5.5-.75-1.5-.75-.5.75-1-.5-.25.25-.75.5-1 2v.25l-.75.25 1-2.5-.25-.5.75.25.25-.75-3.5-1.5 2.75-10 1 .25.25-.75h.5l.75-2.5-1-.5h-1l-.5.25-1.25-.25-1 3 .75.25-2.5 9.75L20 24l.75.25-1 .25-.176.441-.692 1.73-.132.329-.547 1.231L17 27.75l-1.25-1V25.5l-1-2-1.25.75.75 1.25v1.75L13 25.75v-2l-.25-.5-.25.25v2.25l1.75 2.5V34L17 36.5l.5-1.5-1.75-1.75v-4l2 3.5.5.25-.25.75 1.5-1 2.5.75h.25L26.5 37l.5.5.25-.5h2.25l1.5-1.5h.25l-.75 2v1.25l1.75-.75H33v.75h.5V40l1.5-1.75.75.5-2.25 2.75 1.25.75-.25.5-.75-.25-.5.5h-2v1h.5l-.25.5 1.5.75.75-1.25.25.5.5.25h7.75l1.25-.5 1.75-1.75v-2.75zM23.625 11.5a.625.625 0 1 1 0 1.25.625.625 0 0 1 0-1.25m-5.268 21.25L16.5 29.5l2.5 1.75zm.393-2.5-3-2v-1l.75.75 1.477.739-.227.511L19 30zM32.625 44.5a.375.375 0 1 1 0-.75.375.375 0 0 1 0 .75"
            class="neutral1"
            fill="#2b2b2b"
          ></path>
          <path
            d="M24.75 30.5a2.5 2.5 0 0 0 0 5 2.5 2.5 0 0 0 0-5M22.5 33v-.25h1V33zm.75 1.75L23 34.5l1-1 .25.25zM24 32.5l-1-.75.25-.25 1 .75zm.5-.5v-1h.25v1zm.5 3.25h-.25v-1H25zm1.25-4 .25.25-1 1-.25-.25zm0 3.5L25.5 34l.25-.25.75.75zM26 33v-.25h1V33z"
            class="highlight"
            fill="#fefeff"
            opacity=".31"
          ></path>
          <path
            d="M7.27 8.52 8 8l.25-.25-.25-.5-1.25 1 .29.435z"
            class="accent2"
            fill="#f5911e"
          ></path>
          <path
            d="M28.692 42.75c-.164.576-.688 1-1.317 1s-1.153-.424-1.317-1H26l-.75.75 1.25.25-.25 1 1.25-1 .5 1 .5-1.25.5.5v-1.25zM6.5 13.25l.75-.5-.253-.421-.247.171-.25-.5.212-.147L6.5 11.5l-.75.5-.357-.536-.643 1.286L5.5 14h1.389l-.139-.25z"
            class="neutral1"
            fill="#2b2b2b"
          ></path>
          <path
            d="m19 24.75-.75 1.5.632.421.692-1.73zM33.75 42.5l.75.25.25-.5-1.25-.75 2.25-2.75-.75-.5L33.5 40v-1.25H33V38h-.75l-1.75.75h-.25V39l.75.5v1l-.75.75V43h.5v-1.5h.5V43h2zm-1.875-3a.375.375 0 1 1 0-.75.375.375 0 0 1 0 .75"
            class="neutral2"
            fill="#808082"
          ></path>
          <circle
            cx="23.625"
            cy="12.125"
            r=".625"
            class="neutral2"
            fill="#808082"
          ></circle>
          <path
            d="m29.5 26.25.5-1L27.5 24l-.5 1 .5.25L29 26z"
            class="neutral2"
            fill="#808082"
          ></path>
          <path
            d="m14 32.5-2.5-1.25 1-1.25.25-.5-.5-.5-.469.25L10.25 31v.75l3.75 2 .25-.071v-1.273z"
            class="primary"
            fill="#367C2B"
          ></path>
          <path
            d="m11 20.75-.75.75.5.75-.5.5.75.75.5-.5.75.75.25-.25.25-.25z"
            class="neutral2"
            fill="#808082"
          ></path>
          <path
            d="m13 23.75.5.5 1.25-.75-1.5-7-3.677-5.954-1.279.885L11.75 17l1.5 5.5-2.75-5-3.247-5.348-.256.177.253.421-.75.5.25.5.139.25 2.361 4.25 1.75 2.5 1.75 2.5zM6.5 11.5l.212.353.253-.175L6.25 10.5l1-.75.751 1.211 1.28-.887L8 8l-.73.52-.23.165.21.315-.25.25-.242-.363-.508.363-.75.5-.75.5v.25l.643.964.357.536z"
            class="primary"
            fill="#367C2B"
          ></path>
          <path
            d="m10.5 17.5 2.75 5-1.5-5.5-3.456-5.569-1.041.721zM7.25 9.75l-1 .75.715 1.178 1.036-.717z"
            class="stripe"
            fill="#FFDE00"
          ></path>
          <path
            d="m7.25 9-.21-.315-.29-.435-.25.25.258.387L7 9.25z"
            class="neutral1"
            fill="#2b2b2b"
          ></path>
          <path
            d="m5.5 9.75.75-.5-.5-.75 4.5-3.5.25-.25-.5-.5h-.25l-5 4v.5l.562.75H4L3.999 2H3.25v8l.5.5h1v-.25z"
            class="neutral1"
            fill="#2b2b2b"
          ></path>
          <path
            d="M31 40.5v-1l-.75-.5v-.25h.25V37.5l.75-2H31L29.5 37h-2.25l-.25.5-.5-.5-4.25-3.5H22l-2.5-.75-1.5 1 .25-.75-.5-.25-1.75-1-.25.094v1.406l2 1.25-.25.5-.5 1.5v1.098c.934-1.084 2.3-1.785 3.844-1.785a5.094 5.094 0 0 1 5.094 5.094c0 .538-.106 1.047-.261 1.534l.074.309h.308c.164.576.688 1 1.317 1s1.153-.424 1.317-1h.308V43h1.25v-1.75l.75-.75Zm-10.125-5a.375.375 0 1 1 0-.75.375.375 0 0 1 0 .75m3.5 1a.375.375 0 1 1 0-.75.375.375 0 0 1 0 .75m3 3.5a.375.375 0 1 1 0 .75.375.375 0 0 1 0-.75m2 2.75a.375.375 0 1 1 0-.75.375.375 0 0 1 0 .75M30 40.125a.375.375 0 1 1 .75 0 .375.375 0 0 1-.75 0"
            class="primary"
            fill="#367C2B"
          ></path>
          <path
            d="M30.75 41.5h.5V43h-.5z"
            class="neutral1"
            fill="#2b2b2b"
          ></path>
          <circle
            cx="20.875"
            cy="35.125"
            r=".375"
            class="neutral1"
            fill="#2b2b2b"
          ></circle>
          <circle
            cx="24.375"
            cy="36.125"
            r=".375"
            class="neutral1"
            fill="#2b2b2b"
          ></circle>
          <circle
            cx="32.625"
            cy="44.125"
            r=".375"
            class="neutral2"
            fill="#808082"
          ></circle>
          <circle
            cx="31.875"
            cy="39.125"
            r=".375"
            class="neutral1"
            fill="#2b2b2b"
          ></circle>
          <circle
            cx="29.375"
            cy="42.375"
            r=".375"
            class="neutral2"
            fill="#808082"
          ></circle>
          <circle
            cx="27.375"
            cy="40.375"
            r=".375"
            class="neutral2"
            fill="#808082"
          ></circle>
          <circle
            cx="30.375"
            cy="40.125"
            r=".375"
            class="neutral2"
            fill="#808082"
          ></circle>
          <path
            d="m14.75 23.5-.5.25L12.5 17l-2-3.25-3.23-5.23L8 8l5.25 8.5zM29 30.5h-.5l.75-1.75-.5-1.25-3-1.75.25-.25 1 .5v.25l1 .5h.5l.75.5.5 1.5z"
            class="highlight"
            fill="#fefeff"
            opacity=".31"
          ></path>
          <path
            d="M26.345 26.073h.559v3.354h-.559z"
            class="highlight"
            transform="rotate(-63.435 26.625 27.75)"
            fill="#fefeff"
            opacity=".31"
          ></path>
          <path
            d="M25.845 27.073h.559v3.354h-.559z"
            class="highlight"
            transform="rotate(-63.435 26.125 28.75)"
            fill="#fefeff"
            opacity=".31"
          ></path>
          <path
            d="M45.25 39.75v2.75L44 43.75V40l-1.75-3-4.5-2.25-7.25 2.75.29-.76 6.96-2.49 1.5.75.25-1-1.75-1-6.67 2.97.17-.47-1-4-1.75-1h.5l1.5.75 1.19 4.06 6.06-2.56L43.5 36zM19 30l-1.25-.75 1-2.25h.5l3.25 2-.25.25-2-1zM24.25 26.25l-1 2.5-.75.25.46-1.02-3.46-1.73.25-.5 3.44 1.72.56-1.22-4-1.75 1-.25 3.25 1.5zM27 37.5l.25-.5 1-2 .5.25.5-.75-1.5-1-.5.75.5.5L26.5 37z"
            class="highlight"
            fill="#fefeff"
            opacity=".31"
          ></path>
          <circle
            cx="27.375"
            cy="42.375"
            r="1.125"
            class="highlight"
            fill="#fefeff"
            opacity=".31"
          ></circle>
          <path
            d="m18 33.75.75.75 1-.5 2 .75 1 1.75 1.5 1-2-4H22l-2.5-.75z"
            class="highlight"
            fill="#fefeff"
            opacity=".31"
          ></path>
          <path
            d="m31.5 43 .25-1.75h-.25l.25-1.25h.75l-.5 3z"
            class="shadow"
            fill="#353535"
            opacity=".3"
          ></path>
          <circle
            cx="27.375"
            cy="42.375"
            r="1.375"
            class="shadow"
            fill="#353535"
            opacity=".3"
          ></circle>
          <path
            d="m17.75 34.5-.25.5-.5 1.5v1.25l1-.5.75-2.75-.75-.75zM27 37.5l1.75 1.5v-1h1.75v-.5l.75-2H31L29.5 37h-2.25z"
            class="shadow"
            fill="#353535"
            opacity=".3"
          ></path>
          <path
            d="M20.844 35.812c-1.543 0-2.91.701-3.844 1.785a5.05 5.05 0 0 0-1.25 3.309A5.094 5.094 0 0 0 20.844 46c2.275 0 4.179-1.501 4.833-3.559.155-.487.261-.996.261-1.534a5.094 5.094 0 0 0-5.094-5.094Zm0 7.775a2.68 2.68 0 1 1 0-5.361 2.68 2.68 0 0 1 0 5.361"
            class="neutral1"
            fill="#2b2b2b"
          ></path>
          <circle
            cx="20.844"
            cy="40.906"
            r="2.681"
            class="secondary"
            fill="#FFDE00"
          ></circle>
          <circle
            cx="20.844"
            cy="40.906"
            r="2.145"
            class="shadow"
            fill="#353535"
            opacity=".3"
          ></circle>
          <circle
            cx="20.844"
            cy="40.906"
            r="1.072"
            class="shadow"
            fill="#353535"
            opacity=".3"
          ></circle>
          <path
            d="m6.965 11.678-.253.175L6.5 12l.25.5.247-.171.256-.177 1.041-.721 1.279-.885.427-.296-.25-.5-.469.324-1.28.887z"
            class="neutral2"
            fill="#808082"
          ></path>
          <path
            d="M10.25 10.5h.5l.75-.25.25-.75-.5-.75h-.75l-.75.5v.5l.25.5z"
            class="accent2"
            fill="#f5911e"
          ></path>
        </g></svg>
