<svg xmlns="http://www.w3.org/2000/svg"
  class="css-9txd9r"
  focusable="false"
  viewBox="0 0 48 48"
  data-icon-name="WalkBehindMower"
  size="65"
>
  <path
    id="WalkBehindMower__outline"
    d="M46 27h-2c-.345 0-.67.088-.954.242l-1.208-.558A2 2 0 0 0 41 26.5h-1.395a2 2 0 0 0-.387-.608 2 2 0 0 0-1.968-1.642h-.5a2 2 0 0 0-2 2v.25h-.189a2 2 0 0 0-.147-.164l-.25-.25a2 2 0 0 0-1.414-.586h-1c-.267 0-.529.053-.77.154a2 2 0 0 0-.644-.472l-.188-.565a2 2 0 0 0-.333-.613l.083-.121a2 2 0 0 0 .352-1.133V19.5a2 2 0 0 0-2-2h-.75q-.072 0-.144.005c-.1-.25-.251-.478-.442-.669l-.5-.5a2 2 0 0 0-.782-.483l-.75-.25a2 2 0 0 0-.632-.103h-.75c-.215 0-.429.035-.632.103l-.75.25a2 2 0 0 0-.782.483l-.75.75a2 2 0 0 0-.44.664h-2.911a2 2 0 0 0-.235-.719V17a2 2 0 0 0-1.284-1.868A2 2 0 0 0 13.75 13.5h-2.5a2 2 0 0 0-.568.082 2 2 0 0 0-.573-2.746l-.75-.5A2 2 0 0 0 8.263 10l-1.014-.812a2 2 0 0 0-2.245-.173A2 2 0 0 0 3.65 9.8l-2.25 3q-.034.045-.064.091l-1 1.5A2 2 0 0 0 0 15.5v.25c0 .28.059.557.172.812l.648 1.457q.051.193.141.375l.25.5A2 2 0 0 0 3 20h.018a2 2 0 0 0 .944.838l.538.231v.681c0 .395.117.781.336 1.109l3.43 5.145A2 2 0 0 0 8 29v2.25a2 2 0 0 0 2 2h3.602c.565 3.261 3.415 5.75 6.836 5.75a6.92 6.92 0 0 0 5.207-2.358l1.543.686a2 2 0 0 0 1.783-.08L31.218 36h1.532c.74 0 1.387-.402 1.732-1H35.5a2 2 0 0 0 1.177 1.823A2 2 0 0 0 38.5 38h1.747c.791.644 1.776 1 2.82 1a4.505 4.505 0 0 0 4.483-4.878c.131-.271.2-.569.2-.872v-2.531c.159-.287.25-.617.25-.969V29a2 2 0 0 0-2-2"
    class="outline"
    fill="#fff"
  ></path>
  <g id="WalkBehindMower__icon">
    <path
      d="m7.25 11.75-1.25-1-.481.481 1.322 1.133z"
      class="neutral1"
      fill="#2b2b2b"
    ></path>
    <path
      d="M8.045 13.932 9 12.5l-.75-.5-1.429 2.143L8 13.75z"
      class="accent2"
      fill="#f5911e"
    ></path>
    <path d="M44 29v.75h2V29z" class="neutral1" fill="#2b2b2b"></path>
    <path
      d="M44.25 30 41 28.5H29.5V27h-4.75v1.5h-.907a4.9 4.9 0 0 1 1.473 2.973L26 32.5l-.25.25v1.75l2.25 1 2.25-1.25V34h2.5v-1H27.5v-.75h11l.5.25.5.75.25.75v1H38.5v1h2.578a2.48 2.48 0 0 1-.511-1.5c0-1.154.786-2.116 1.85-2.404L39.5 30.75H39V30h2l3.25 1.5v.81c.557.302.982.804 1.182 1.416l.318-.476v-3.5h-1.5zm-9.25.75h-6.75V30H35z"
      class="primary"
      fill="#367C2B"
    ></path>
    <path
      d="m39.75 34-.25-.75-.5-.75-.5-.25h-11V33H37l.5.5V35h2.25zM28.25 30H30v.75h-1.75zM32.5 28h.5v-.25l-.25-.25h-1l-.25.25V28h.5v.5h.5z"
      class="neutral1"
      fill="#2b2b2b"
    ></path>
    <path
      d="M37.75 27.25h-.5v-1h-.5v2.25h1z"
      class="neutral2"
      fill="#808082"
    ></path>
    <path
      d="M17.638 28H15.75l-1.25-2.75v-.5h.75V18H9l-.5-2.25.25-.25L10 17h.75L9 14.75h-.75l-.205-.818L8 13.75l-1.179.393L5 14.75l-.75.25-.428-.342 1.507-1.938L5 12.501l-1.5 2-.5-.5-1 1.5v.25l1 2.25h1.75v1l1.75.75v2l4 6v.75l-.5.5v2.25h5.582a4.92 4.92 0 0 1 2.057-3.25ZM7.375 21.25a.375.375 0 1 1 0-.75.375.375 0 0 1 0 .75M3.5 17 3 15.5l2.75 1.25L8 16l.25 1zm7.75 13.75h-.75v-1.5h.75zm2-2.25H11v-.75h2.25z"
      class="primary"
      fill="#367C2B"
    ></path>
    <path
      d="M11 27.75h2.25v.75H11zM5 12.5l.329.219.421.281-1.5 2 .75-.25 2-2.25-.159-.136-1.322-1.133L5.25 11 3 14l.5.5z"
      class="neutral2"
      fill="#808082"
    ></path>
    <path
      d="M5.75 16.75 3 15.5l.5 1.5h4.75L8 16zM10 18h5v-1h-1.75v-.5h.5v-1h-2.5v1h.5v.5H10zM14.5 25.25 15.75 28h1.888a4.906 4.906 0 0 1 6.204.5h.907V27h3.25l.5-.5V26l-.25-.75-.5-.5-.712-.237-1.538 2.237-.5-.5-.75-.75V25h.75l.5.5 1-1.5-1-.5h-1.25v-2.25l.75-.25.5-.5.25-.75V19l-.25-.75-.5-.5-.75-.25h-.75l-.75.25-.75.75-.25.75V20l.25.5-.75.25-.5-1h-3.75l-.75 1.5-.5.5v3h-1.25v.5Zm1.5-3 .25-.25h.5l.25.25V23h-1z"
      class="neutral1"
      fill="#2b2b2b"
    ></path>
    <path
      d="m25 26.25.5.5 1.538-2.237 1.212-1.763V19.5h-.75v3l-1 1.5-1 1.5z"
      class="neutral2"
      fill="#808082"
    ></path>
    <path
      d="m17 22.25-.25-.25h-.5l-.25.25V23h1z"
      class="accent3"
      fill="#faeb36"
    ></path>
    <circle
      cx="7.375"
      cy="20.875"
      r=".375"
      class="neutral2"
      fill="#808082"
    ></circle>
    <path
      d="M24.75 29H41l3.25 1.5V30L41 28.5H24.25zM27.5 32.25v.25h10.75l.5.25.5.75.25.5.25 1v-1l-.25-.75-.5-.75-.5-.25zM29.75 32.25v-.75l.5-.5H33l.5.5v.75H33v-.75h-2.75v.75z"
      class="highlight"
      fill="#fefeff"
      opacity=".31"
    ></path>
    <path
      d="M35.25 32.25v-.75l.5-.5h2.75l.5.5v1l-.5-.25v-.75h-2.75v.75zM4.75 18H3l-.25-.5H7.5l.5.25.25.25 2.5 5.5v1.25h.5l1 2.25h-.5L8.5 20.75l-2-1L4.75 19zM15.25 20.75h-4.5l.75-.25h3.75zM17.75 28h-1v-1h7.5v1.5h-.75zM22.5 24.25H24v2.5h-1.5zM17.25 19.75v1.5h-1l.75-1.5zM17.75 19.75h.75v1.5h-.75zM19.25 19.75H20v1.5h-.75zM20.5 19.75v1.5h1l-.75-1.5zM17.75 22h1.75v.75l-1 1.25h-.75z"
      class="highlight"
      fill="#fefeff"
      opacity=".31"
    ></path>
    <path
      d="M20 26.5h1.5V23h2.25v-1h-2L21 23.25h-1V24h1v.5h-1v1h1v.5h-1zM22.75 18.25l.5-.25h1.25l.5.5.25.75v.5l-.25.5-.5.5h-.25l.5-.75v-.5l-.25-.75-.5-.25h-.75l-.5.25-.5.5.25-.75z"
      class="highlight"
      fill="#fefeff"
      opacity=".31"
    ></path>
    <path
      d="M23.25 21.5H23l-.25-.25V20l.25-.25h.25l.25.25v1.25zM3 15.5 7.5 14l.5 2-2.25.75z"
      class="highlight"
      fill="#fefeff"
      opacity=".31"
    ></path>
    <path
      d="M41 30v-1l3.25 1.5v1zM44.25 32h1.5v1.25l-.5.75-1-1.5zM30.25 33h2.5v1h-2.5zM28 33v2.5l2.25-1.25V33zM34 30.75h.75v1.5H34zM38.5 35h1.25v-2.75L40 32l1.5.75-.25 3.25H38.5zM35 30h4v.75h-4zM28.25 30.75 26 32.5 25 31l-.25-1-.5-.5h2.25v.5h1.75zM24.75 27h4.75v1.5h-4.75zM11.25 21.25H12v3h-.75zM8.75 21.25l-.25-.5-2-1v2H9zM8.25 18l2.5 5.5v-1L9 18zM8 13.75l-.5.25.75 3v1H9l-.5-2.25-.25-1z"
      class="shadow"
      fill="#353535"
      opacity=".3"
    ></path>
    <path
      d="M10.75 17 9 14.75h-.75l.25 1 .25-.25L10 17zM14.5 24.75h-3.25l1 2.25v.75h1V28h2.5l-1.25-2.75z"
      class="shadow"
      fill="#353535"
      opacity=".3"
    ></path>
    <path
      d="M23.843 28.5a4.91 4.91 0 0 0-6.204-.5 4.93 4.93 0 0 0-2.057 3.25 5 5 0 0 0-.082.812 4.938 4.938 0 0 0 9.876 0c0-.202-.036-.394-.059-.589a4.9 4.9 0 0 0-1.473-2.973Zm-3.405 6.161a2.6 2.6 0 1 1 .001-5.199 2.6 2.6 0 0 1-.001 5.199"
      class="neutral1"
      fill="#2b2b2b"
    ></path>
    <circle
      cx="20.438"
      cy="32.062"
      r="2.599"
      class="secondary"
      fill="#FFDE00"
    ></circle>
    <circle
      cx="20.437"
      cy="32.063"
      r="2.079"
      class="shadow"
      fill="#353535"
      opacity=".3"
    ></circle>
    <circle
      cx="20.437"
      cy="32.062"
      r="1.039"
      class="shadow"
      fill="#353535"
      opacity=".3"
    ></circle>
    <path
      d="M44.25 32.31a2.5 2.5 0 0 0-1.183-.31c-.226 0-.442.04-.65.096a2.494 2.494 0 0 0-1.85 2.404c0 .565.195 1.081.511 1.5.456.604 1.173 1 1.989 1a2.5 2.5 0 0 0 2.5-2.5c0-.272-.054-.529-.135-.774a2.5 2.5 0 0 0-1.182-1.416m-1.183 3.506a1.316 1.316 0 1 1 0-2.632 1.316 1.316 0 0 1 0 2.632"
      class="neutral1"
      fill="#2b2b2b"
    ></path>
    <circle
      cx="43.067"
      cy="34.5"
      r="1.316"
      class="secondary"
      fill="#FFDE00"
    ></circle>
    <circle
      cx="43.067"
      cy="34.5"
      r="1.053"
      class="shadow"
      fill="#353535"
      opacity=".3"
    ></circle>
    <circle
      cx="43.067"
      cy="34.5"
      r=".526"
      class="shadow"
      fill="#353535"
      opacity=".3"
    ></circle>
  </g>
</svg>
