<svg xmlns="http://www.w3.org/2000/svg"
        class="css-9txd9r"
        focusable="false"
        viewBox="0 0 48 48"
        data-icon-name="WheeledFellerBuncher"
      >
        <path
          id="WheeledFellerBuncher__outline"
          d="m46.602 28.842-1.906-.602a2 2 0 0 0 1.804-1.99v-.75c0-.545-.219-1.042-.576-1.405A2 2 0 0 0 46.25 23v-.281c.16-.288.25-.618.25-.969V21a2 2 0 0 0-2-2h-1.66l.068-.816 1.525-.555a2 2 0 0 0 1.317-1.88v-.5a2 2 0 0 0-2.485-1.94l-4 1a2 2 0 0 0-.409.151l-.5.25a2 2 0 0 0-.992 1.123l-.86 2.436a2 2 0 0 0-1.004-.27H35a2 2 0 0 0-1.414.586l-.25.25a2 2 0 0 0-.156.176l-2.089-.746a2 2 0 0 0-1.341-.516h-.581l.299-1.642q.043-.242.028-.483a2 2 0 0 0-.207-1.019l-.5-1a2 2 0 0 0-1.214-1.021l-2.5-.75a2 2 0 0 0-.804-.071l-6.386.737h-1.222l-.097-.006A2 2 0 0 0 15.25 12H15q-.26 0-.5.063A2 2 0 0 0 14 12h-.25a2 2 0 0 0-1.324.501 2 2 0 0 0-.82.21l-7.804 3.902-.787.197-1 .25c-.238.059-.457.16-.65.293A2 2 0 0 0 0 19.25V26a2 2 0 0 0 2 2h.22l2.335.667c.195 4.24 3.705 7.629 7.992 7.629a7.94 7.94 0 0 0 7.434-5.046h5.27c.274 0 .536-.055.774-.155a7.97 7.97 0 0 0 7.476 5.155 8 8 0 0 0 4.951-1.724l.099.074c.346.26.767.4 1.2.4h3.75c.433 0 .854-.14 1.2-.4l.467-.35h.833a2 2 0 0 0 2-2v-1.501c0-.873-.566-1.645-1.398-1.907Z"
          class="outline"
          fill="#fff"
        ></path>
        <g id="WheeledFellerBuncher__icon">
          <path
            d="m33.354 21.542-.25.5.896.358v-.6z"
            class="neutral2"
            fill="#808082"
          ></path>
          <path
            d="M33.5 21.25 30 20l.188 1.312L33 22.25l.104-.208.25-.5zM2 19.25h.5V26H2z"
            class="neutral1"
            fill="#2b2b2b"
          ></path>
          <path
            d="M15.25 17.25h-1.5v.25h1.5z"
            class="neutral2"
            fill="#808082"
          ></path>
          <path d="M14 15.25v2h1v-2z" class="neutral1" fill="#2b2b2b"></path>
          <path
            d="M15 14h.25v.496H15zM15 16.25h.25v-1.005l-.25.001v1.004M13.75 14H14v.498h-.25zM14 16.25v-1.003l-.25.001v1.002z"
            class="neutral2"
            fill="#808082"
          ></path>
          <path
            d="m4.75 18.75 3.25.007 1.3.5 9.2-.007v-1h-3l-.5-.75h-1l-.5.75H7.75l-1.791.149L12.5 15.25l1.25-.002.25-.001 1-.001.25-.001 1.25-.002v-.75l-1.25.002-.25.001-1 .001-.25.001-1.25.002-8 4h.25z"
            class="neutral1"
            fill="#2b2b2b"
          ></path>
          <path
            d="m9.25 19.257 2 .75L18.5 20v-.75l-9.2.007z"
            class="stripe"
            fill="#808082"
          ></path>
          <path
            d="M2.75 22.25h.75v.5h-.75zM17.25 22.5H18v.5h-.75z"
            class="neutral2"
            fill="#808082"
          ></path>
          <path
            d="M18.5 16h.25v2.25h-.25z"
            class="primary"
            fill="#F2A900"
          ></path>
          <path
            d="M23.75 27.75H26v-.5h-2.25z"
            class="neutral1"
            fill="#2b2b2b"
          ></path>
          <path
            d="M19.5 21v-5H19v4.75zM27.25 15.75 25 15.5V21h1.25z"
            class="window"
            fill="#bbe3f3"
          ></path>
          <path
            d="M24.75 21.25h1.75l1-5.5-.25-.25-2.5-.25zM25 15.5l2.25.25-1 5.25H25zM24.25 21.5v-6.25H20v6.25zm-.75-5.75h.25V16h-.25zm0 .5h.25v.25h-.25zm0 .5h.25V17h-.25zm0 .5h.25v.25h-.25zm0 .5h.25V18h-.25zm0 .5h.25v.25h-.25zm0 .5h.25V19h-.25zm0 .5h.25v.25h-.25zm0 .5h.25V20h-.25zm0 .5h.25v.25h-.25zm0 .5h.25V21h-.25zm-.5-5h.25V16H23zm0 .5h.25v.25H23zm0 .5h.25V17H23zm0 .5h.25v.25H23zm0 .5h.25V18H23zm0 .5h.25v.25H23zm0 .5h.25V19H23zm0 .5h.25v.25H23zm0 .5h.25V20H23zm0 .5h.25v.25H23zm0 .5h.25V21H23zm-.5-5h.25V16h-.25zm0 .5h.25v.25h-.25zm0 .5h.25V17h-.25zm0 .5h.25v.25h-.25zm0 .5h.25V18h-.25zm0 .5h.25v.25h-.25zm0 .5h.25V19h-.25zm0 .5h.25v.25h-.25zm0 .5h.25V20h-.25zm0 .5h.25v.25h-.25zm0 .5h.25V21h-.25zm-.5-5h.25V16H22zm0 .5h.25v.25H22zm0 .5h.25V17H22zm0 .5h.25v.25H22zm0 .5h.25V18H22zm0 .5h.25v.25H22zm0 .5h.25V19H22zm0 .5h.25v.25H22zm0 .5h.25V20H22zm0 .5h.25v.25H22zm0 .5h.25V21H22zm-.5-5h.25V16h-.25zm0 .5h.25v.25h-.25zm0 .5h.25V17h-.25zm0 .5h.25v.25h-.25zm0 .5h.25V18h-.25zm0 .5h.25v.25h-.25zm0 .5h.25V19h-.25zm0 .5h.25v.25h-.25zm0 .5h.25V20h-.25zm0 .5h.25v.25h-.25zm0 .5h.25V21h-.25zm-.5-5h.25V16H21zm0 .5h.25v.25H21zm0 .5h.25V17H21zm0 .5h.25v.25H21zm0 .5h.25V18H21zm0 .5h.25v.25H21zm0 .5h.25V19H21zm0 .5h.25v.25H21zm0 .5h.25V20H21zm0 .5h.25v.25H21zm0 .5h.25V21H21zm-.5-5h.25V16h-.25zm0 .5h.25v.25h-.25zm0 .5h.25V17h-.25zm0 .5h.25v.25h-.25zm0 .5h.25V18h-.25zm0 .5h.25v.25h-.25zm0 .5h.25V19h-.25zm0 .5h.25v.25h-.25zm0 .5h.25V20h-.25zm0 .5h.25v.25h-.25zm0 .5h.25V21h-.25z"
            class="neutral1"
            fill="#2b2b2b"
          ></path>
          <circle
            cx="16.75"
            cy="15.007"
            r=".125"
            class="neutral2"
            fill="#808082"
          ></circle>
          <path
            d="M19.5 16v5l-.5-.25V16h-.25v5l1 .5v-6.25h-.25V16"
            class="neutral1"
            fill="#2b2b2b"
          ></path>
          <path
            d="M18.5 16h1v-.75h-1.25V16z"
            class="neutral2"
            fill="#808082"
          ></path>
          <path d="M23 22.5h.75v.5H23z" class="neutral1" fill="#2b2b2b"></path>
          <path
            d="M20.5 15.75h.25V16h-.25zM21 15.75h.25V16H21zM21.5 15.75h.25V16h-.25zM22 15.75h.25V16H22z"
            class="window"
            fill="#bbe3f3"
          ></path>
          <path
            d="M29.75 19.75h-1l-.25.25-.25 2.75v1.5l-.75.75h-3.75v-.5h2l1-.5v-2.5l-.25-.25h-1.75v-6l2.5.25h.25l-.5-1-2.5-.75-6.5.75h-1.5v.75h3.25v6.25l-1-.5v-2.75h-.25V20l-7.25.007-2-.75h.05l-1.3-.5-3.25-.007v-.25H4.5l-1 .25-1 .25v7l5.25 1.5v.007l11 1.75v-.007h6.5V29h.5v-.5h4.75l.25-3.25h-.25V22.5l-.25-.75-.062-.438L30 20zm-13-4.618a.125.125 0 1 1 0-.25.125.125 0 0 1 0 .25M3.5 22.75h-.75v-.5h.75zM18 23h-.75v-.5H18zm11.25-2.75a.25.25 0 1 1 0 .5.25.25 0 0 1 0-.5m0 1.5a.25.25 0 1 1 0 .5.25.25 0 0 1 0-.5m-1.75 5h-1.75v-.5h1.75zm-2.75-1.25.5.75V27h-.75v.25H26v.5h-1.5V28h-.75v-2.5zm-1-2.5H23v-.5h.75zM20 15.25h4.25v6.25H20z"
            class="primary"
            fill="#F2A900"
          ></path>
          <path
            d="m30.5 23.25 1.5-.75-1.75-.75.25.75z"
            class="neutral2"
            fill="#808082"
          ></path>
          <path
            d="M35.75 20.25 35.5 20H35l-.25.25-.5.75-.25.5v1.25h1.25v-1l.25-.5.25-.5zm-1 1.5a.25.25 0 1 1 0-.5.25.25 0 0 1 0 .5m.5-1a.25.25 0 1 1 0-.5.25.25 0 0 1 0 .5"
            class="neutral1"
            fill="#2b2b2b"
          ></path>
          <path
            d="m36.5 21.75-.25-.5-.5-.5-.25.5.5.5.352.881.333-.326z"
            class="neutral2"
            fill="#808082"
          ></path>
          <circle
            cx="34.75"
            cy="21.5"
            r=".25"
            class="neutral2"
            fill="#808082"
          ></circle>
          <circle
            cx="35.25"
            cy="20.5"
            r=".25"
            class="neutral2"
            fill="#808082"
          ></circle>
          <path
            d="M22.5 15.75h.25V16h-.25zM23 15.75h.25V16H23zM23.5 15.75h.25V16h-.25zM20.5 16.25h.25v.25h-.25zM21 16.25h.25v.25H21zM21.5 16.25h.25v.25h-.25zM22 16.25h.25v.25H22zM22.5 16.25h.25v.25h-.25zM23 16.25h.25v.25H23zM23.5 16.25h.25v.25h-.25zM20.5 16.75h.25V17h-.25zM21 16.75h.25V17H21zM21.5 16.75h.25V17h-.25zM22 16.75h.25V17H22zM22.5 16.75h.25V17h-.25zM23 16.75h.25V17H23zM23.5 16.75h.25V17h-.25zM20.5 17.25h.25v.25h-.25zM21 17.25h.25v.25H21zM21.5 17.25h.25v.25h-.25zM22 17.25h.25v.25H22zM22.5 17.25h.25v.25h-.25zM23 17.25h.25v.25H23zM23.5 17.25h.25v.25h-.25zM20.5 17.75h.25V18h-.25zM21 17.75h.25V18H21zM21.5 17.75h.25V18h-.25zM22 17.75h.25V18H22zM22.5 17.75h.25V18h-.25zM23 17.75h.25V18H23zM23.5 17.75h.25V18h-.25zM20.5 18.25h.25v.25h-.25zM21 18.25h.25v.25H21zM21.5 18.25h.25v.25h-.25zM22 18.25h.25v.25H22zM22.5 18.25h.25v.25h-.25zM23 18.25h.25v.25H23zM23.5 18.25h.25v.25h-.25zM20.5 18.75h.25V19h-.25zM21 18.75h.25V19H21zM21.5 18.75h.25V19h-.25zM22 18.75h.25V19H22zM22.5 18.75h.25V19h-.25zM23 18.75h.25V19H23zM23.5 18.75h.25V19h-.25zM20.5 19.25h.25v.25h-.25zM21 19.25h.25v.25H21zM21.5 19.25h.25v.25h-.25zM22 19.25h.25v.25H22zM22.5 19.25h.25v.25h-.25zM23 19.25h.25v.25H23zM23.5 19.25h.25v.25h-.25zM20.5 19.75h.25V20h-.25zM21 19.75h.25V20H21zM21.5 19.75h.25V20h-.25zM22 19.75h.25V20H22zM22.5 19.75h.25V20h-.25zM23 19.75h.25V20H23zM23.5 19.75h.25V20h-.25zM20.5 20.25h.25v.25h-.25zM21 20.25h.25v.25H21zM21.5 20.25h.25v.25h-.25zM22 20.25h.25v.25H22zM22.5 20.25h.25v.25h-.25zM23 20.25h.25v.25H23zM23.5 20.25h.25v.25h-.25zM20.5 20.75h.25V21h-.25zM21 20.75h.25V21H21zM21.5 20.75h.25V21h-.25zM22 20.75h.25V21H22zM22.5 20.75h.25V21h-.25zM23 20.75h.25V21H23zM23.5 20.75h.25V21h-.25z"
            class="window"
            fill="#bbe3f3"
          ></path>
          <circle
            cx="29.25"
            cy="20.5"
            r=".25"
            class="neutral2"
            fill="#808082"
          ></circle>
          <circle
            cx="29.25"
            cy="22"
            r=".25"
            class="neutral2"
            fill="#808082"
          ></circle>
          <path
            d="M41.25 29.25v1L40 30l-.25-.25V27h1.5v-.75h3.25v-.75l-3.25-.25V25H43v-.75L41.25 24v-.75l3-.25v-.75h-3V22l3.25-.25V21h-3.25v-.5l-.5-.5.25-3v-.25l2.75-1v-.5l-4 1-.5.25-1.5 4.25v1h-.5l-.565.555-.332.326-.352.346V24.5l1.25 1.25h.25v.5l.5.5-1.25 5.5h2l1 .75h3.75l1-.75h1.5v-1.501l-4.75-1.499Zm-4.682-5.136a.341.341 0 1 1 0-.683.341.341 0 0 1 0 .683"
            class="secondary"
            fill="#808082"
          ></path>
          <path
            d="M39.75 29.75 40 30l1.25.25V27h-1.5z"
            class="neutral1"
            fill="#2b2b2b"
          ></path>
          <path
            d="M18.75 24.75h-1.5l1.5 4.5h1.5v-4h-.5z"
            class="shadow"
            fill="#353535"
            opacity=".3"
          ></path>
          <path
            d="M23.75 25h-4v.25h3.75z"
            class="shadow"
            fill="#353535"
            opacity=".3"
          ></path>
          <path
            d="M23.75 25h-4v.25h3.75zM8 20.5h10.75v.25H8zM4.75 19H7.5v5.25H4.75zM2.5 22h2.25v.25H2.5zM8.25 19.25v1H11zM8.25 21v3.25l2.75-2V21zM11.25 20.75h.25v2h-.25zM7.75 18.757H8v6.75h-.25zM13.5 20.75h.25v2.5h-.25zM13.25 21.25 12 22.5v1h1.25zM14 21.25v2l2 .993v-1.5zM18.5 20.75h.25v3.75h-.25z"
            class="shadow"
            fill="#353535"
            opacity=".3"
          ></path>
          <path
            d="M8 20.5h10.75v.25H8zM11.25 20.75h.25v2h-.25zM7.75 18.757H8v6.75h-.25zM13.5 20.75h.25v2.5h-.25zM18.5 20.75h.25v3.75h-.25zM25 24l-.5.5h1.25l1-.5zM16 22.25v-1h-1.25zM18.75 21l1 .5V25l-1-.5zM18.25 15.25l.5.75h.75v-.75z"
            class="shadow"
            fill="#353535"
            opacity=".3"
          ></path>
          <path
            d="m17.25 15 7.5-.25 2.5.5.25.25h-.25l-2.5-.25h-7.5zM20 23.75h4.25V24H20zM20 21.5h.25v2.25H20zM24 21.5h.25v2.25H24zM17.25 24.75h1.5l1 .5V25l-1-.5H17z"
            class="shadow"
            fill="#353535"
            opacity=".3"
          ></path>
          <path
            d="M17.25 24.75h1.5l1 .5V25l-1-.5H17zM20.5 26.5h3v.25h-3zM24.75 25.5h3.5l-.75 3h-1.75v.5h-.5v.25h-1.5V28H26v-1h-.75v-.75zM20.5 28.25h3v.25h-3zM4.75 19H5v5.25h-.25zM5.25 19h.25v5.25h-.25zM5.75 19H6v5.25h-.25zM6.25 19h.25v5.25h-.25zM6.75 19H7v5.25h-.25zM7.25 19h.25v5.25h-.25zM19.25 25.75l-.5-.25-.25.25V28l.25.25.5.25.25-.25V26zm0 2.5-.5-.25v-2.25l.5.25zM19.75 24.5h4v.5h-4zM30.25 21.75l.25.75v.75l1.5-.75z"
            class="shadow"
            fill="#353535"
            opacity=".3"
          ></path>
          <path
            d="M30 22.5h-1.5l-.25.25v1.5l-.75.75v.5h.75l2.25-2.25v-.75zM41.25 21v1l3.25-.25V21zM41.25 22.25v1l3-.25v-.75zM41.25 24v1H43v-.75zM41.25 25.25v1h3.25v-.75zM38.75 21h1.75v1h-1.75zM38.75 22.25h1.75v1h-1.75zM38.75 24h1.75v1h-1.75zM38.75 25.25h1.75v1h-1.75zM38.75 32.25l1 .75h3.75l1-.75zM41 17v-.25l-1 .5-.25.25.5-.25zM38.25 26.75h3V27h-3zM39.75 16.25l-.5.25-1.5 4.25.5-.25.25-.5zM41.25 29.25v1l1.25.25 3.5.249z"
            class="shadow"
            fill="#353535"
            opacity=".3"
          ></path>
          <path
            d="M18.25 18.25v.25H4.75l3-.25zM24.75 21.25h1.75l.25.25H25zM25 21.75V24h1.75v-2.5H25zM20.5 26h3v.5h-3zM24.5 13.75l.25 1 2.5.5-.25-.75zM20.5 27.75h3v.5h-3z"
            class="highlight"
            fill="#fefeff"
            opacity=".31"
          ></path>
          <path
            d="M27.25 15.25 27 14.5l.5 1zM40.75 20H38.5l-.25.5h3zM37.136 32.25l.114-1 8.75-.001v1.001zM37.25 21.75h.5v4h-.5z"
            class="highlight"
            fill="#fefeff"
            opacity=".31"
          ></path>
          <path
            d="M36.568 23.432a.341.341 0 1 0 0 .683.341.341 0 0 0 0-.683"
            class="neutral2"
            fill="#808082"
          ></path>
          <path
            d="M12.546 22.296a6 6 0 1 0 0 12 6 6 0 0 0 0-12m0 9.158a3.158 3.158 0 1 1 0-6.316 3.158 3.158 0 0 1 0 6.316"
            class="neutral1"
            fill="#2b2b2b"
          ></path>
          <path
            d="M12.546 25.138a3.158 3.158 0 1 0 0 6.316 3.158 3.158 0 0 0 0-6.316m0 5.684a2.526 2.526 0 1 1 0-5.052 2.526 2.526 0 0 1 0 5.052"
            class="secondary"
            fill="#808082"
          ></path>
          <path
            d="M12.546 25.77a2.526 2.526 0 1 0 0 5.052 2.526 2.526 0 0 0 0-5.052m0 3.789a1.263 1.263 0 1 1 0-2.526 1.263 1.263 0 0 1 0 2.526"
            class="secondary"
            fill="#808082"
          ></path>
          <path
            d="M12.546 25.77a2.526 2.526 0 1 0 0 5.052 2.526 2.526 0 0 0 0-5.052m0 3.789a1.263 1.263 0 1 1 0-2.526 1.263 1.263 0 0 1 0 2.526"
            class="shadow"
            fill="#353535"
            opacity=".3"
          ></path>
          <path
            d="M12.546 27.033a1.262 1.262 0 1 0-.001 2.525 1.262 1.262 0 0 0 .001-2.525"
            class="secondary"
            fill="#808082"
          ></path>
          <path
            d="M12.546 27.033a1.262 1.262 0 1 0-.001 2.525 1.262 1.262 0 0 0 .001-2.525"
            class="shadow"
            fill="#353535"
            opacity=".3"
          ></path>
          <path
            d="M12.546 27.033a1.262 1.262 0 1 0-.001 2.525 1.262 1.262 0 0 0 .001-2.525"
            class="shadow"
            fill="#353535"
            opacity=".3"
          ></path>
          <path
            d="M33.5 22.25a6 6 0 1 0 0 12 6 6 0 0 0 0-12m0 9.158a3.158 3.158 0 1 1 0-6.316 3.158 3.158 0 0 1 0 6.316"
            class="neutral1"
            fill="#2b2b2b"
          ></path>
          <path
            d="M33.5 25.092a3.158 3.158 0 1 0 0 6.316 3.158 3.158 0 0 0 0-6.316m0 5.684a2.526 2.526 0 1 1 0-5.052 2.526 2.526 0 0 1 0 5.052"
            class="secondary"
            fill="#808082"
          ></path>
          <path
            d="M33.5 25.724a2.526 2.526 0 1 0 0 5.052 2.526 2.526 0 0 0 0-5.052m0 3.789a1.262 1.262 0 1 1-.001-2.525 1.262 1.262 0 0 1 .001 2.525"
            class="secondary"
            fill="#808082"
          ></path>
          <path
            d="M33.5 25.724a2.526 2.526 0 1 0 0 5.052 2.526 2.526 0 0 0 0-5.052m0 3.789a1.262 1.262 0 1 1-.001-2.525 1.262 1.262 0 0 1 .001 2.525"
            class="shadow"
            fill="#353535"
            opacity=".3"
          ></path>
          <path
            d="M33.5 26.987a1.263 1.263 0 1 0 0 2.526 1.263 1.263 0 0 0 0-2.526"
            class="secondary"
            fill="#808082"
          ></path>
          <path
            d="M33.5 26.987a1.263 1.263 0 1 0 0 2.526 1.263 1.263 0 0 0 0-2.526"
            class="shadow"
            fill="#353535"
            opacity=".3"
          ></path>
          <path
            d="M33.5 26.987a1.263 1.263 0 1 0 0 2.526 1.263 1.263 0 0 0 0-2.526"
            class="shadow"
            fill="#353535"
            opacity=".3"
          ></path>
          <path
            d="M25.75 26.25h1.75v.5h-1.75z"
            class="accent1"
            fill="#e21936"
          ></path>
        </g></svg
    ></span>
  </div>
  <div class="icons-list-group tw-pl-[10px] tw-pr-[10px] tw-mt-[5px]">
    <span
      class="tw-border-[transparent] tw-border-[1px] tw-border-solid tw-rounded tw-inline-block tw-m-[10px]"
      data-testid="span-icon-2750sl"
      tabindex="1"
      ><svg
        class="css-9txd9r"
        focusable="false"
        viewBox="0 0 48 48"
        data-icon-name="Icon2750sl"
      >
        <path
          id="Icon2750sl__outline"
          d="m47.414 33.086-1-1-.076-.076-.623-1.039A2 2 0 0 0 44 30h-1.75a2 2 0 0 0-1.715.971l-.027.045A2 2 0 0 0 40.25 31h-1q-.26 0-.5.063a2 2 0 0 0-.5-.063h-.672l.336-.336.5-.5c.18-.18.324-.393.424-.626l.727-1.696.474-.947c.178-.356.244-.753.196-1.142a2 2 0 0 0-1.09-2.041l-.5-.25a1.99 1.99 0 0 0-1.89.054 2 2 0 0 0-.903.347L35 20.031v-1.53a2 2 0 0 0-.586-1.414l-.595-.595a2 2 0 0 0-.155-2.655l-.5-.5c-.391-.391-.902-.586-1.414-.586s-1.024.195-1.414.586l-3.921 3.921a2 2 0 0 0-.165-.007h-2q-.256 0-.492.061l-.625-.208a2 2 0 0 0-.632-.103h-.75a2 2 0 0 0-.131.004l-.981-1.401a2 2 0 0 0-1.006-.75l-.75-.25a2 2 0 0 0-.632-.103h-.105l3.608-6.814c.143-.271.223-.571.232-.877l.015-.5a2 2 0 0 0-1.105-1.848l-.5-.25a2 2 0 0 0-2.249.318l-.271.25a2 2 0 0 0-.403.517l-4.479 8.25a2 2 0 0 0-.14.322l-.25.75c-.11.33-.132.683-.064 1.025l.25 1.25q.03.148.082.291l.354.973q-.06.025-.119.055l-6 3a2 2 0 0 0-.52.375l-.75.75a2 2 0 0 0-.186.214l-.75 1c-.141.188-.248.4-.316.625l-.708 2.36-1.269.254c-.52.104-.978.41-1.272.852l-1 1.5A2 2 0 0 0 0 30.252v.5a2 2 0 0 0 2 2h.316a6 6 0 0 0-.066.88c0 3.375 2.75 6.12 6.13 6.12 1.98 0 3.796-.948 4.932-2.5h1.104l.133.1c.346.26.767.4 1.2.4h4.5q.126 0 .25-.016v.016a2 2 0 0 0 2 2h2.31c1.214 1.267 2.9 2 4.69 2a6.46 6.46 0 0 0 4.44-1.749l.043.052a2.503 2.503 0 0 0 3.356 1.197h1.572c.333.163.703.25 1.089.25s.76-.088 1.093-.252a2 2 0 0 0 1.468-.748h1.939a2 2 0 0 0 1.414-.586l.5-.5.5-.5c.295-.295.49-.674.559-1.085l.5-3a2 2 0 0 0-.559-1.743Zm-18.65-10.529c.313-.362.486-.826.486-1.307v-.267q.13-.075.25-.171l.05.039.413.309.611 2.689-.238.238a2 2 0 0 0-.586 1.414v.281a2 2 0 0 0-.216.601l-.03.162-.515.468a2 2 0 0 0-.075-.121l-.885-1.328.135-.203.5-.75a2 2 0 0 0 .1-2.052Z"
          class="outline"
          fill="#fff"
        ></path>
        <g id="Icon2750sl__icon">
          <path
            d="M14 34.5v.5h-.5v-.5H13V34h-1.25l-1.25-1v-.75h-.75v-2.5l-.25-.25H6.75v.5h1l.25-.25h1.25V31H9v1l-.25.25h-.5v-.5H7.5V31h-.75v4l.75.5h1.75l.75-.75V34l.059.033.386.214 1.737.965.068.038h2v-.75zm-5.625-1.743a1.122 1.122 0 1 1 0 2.243 1.122 1.122 0 0 1 0-2.243M12.5 35a.25.25 0 1 1 0-.5.25.25 0 0 1 0 .5"
            class="primary"
            fill="#367C2B"
          ></path>
          <path
            d="M6.75 28H7l2 .5v1.25L9.25 32l.75 2v.75l-.75.75H7.5l-.75-.5z"
            class="shadow"
            fill="#353535"
            opacity=".3"
          ></path>
          <path
            d="m7.5 24-.75 1-.5 1.75.5.25H8l6.75 1 .75-.75h.25l5.5 1 .25.25v.25H23v-.5l2.25.25.25.25.25.5h1v-.5l.5-.75-1-1.5h-.75l-5.25-.75-2.25-4L17 20l-.25-.75-1-2.75-.25-1 .25-.75 4.235-8 .015-.5-.5-.25-.271.25-4.479 8.25-.25.75.25 1.25 1 2.75.25.75 1 1.75-.25.25-.75-1.75V20h-2l-6 3v.5zm8.75-4.25a.25.25 0 1 1 .5 0 .25.25 0 0 1-.5 0m.5 1a.25.25 0 1 1 0-.5.25.25 0 0 1 0 .5m1.25 5.5.25 1-11-1.5v-.5z"
            class="primary"
            fill="#367C2B"
          ></path>
          <path
            d="m18.5 26 .5 2 .5.25L19 26z"
            class="shadow"
            fill="#353535"
            opacity=".3"
          ></path>
          <path
            d="M32.225 26.075 32 26l-.25.75H32z"
            class="neutral2"
            fill="#808082"
          ></path>
          <path
            d="M8.375 35.796a2.17 2.17 0 0 1-2.171-2.171c0-.549.21-1.044.546-1.426V31h-1.5v-.036c-.615.721-1 1.644-1 2.666a4.13 4.13 0 0 0 4.13 4.12c1.71 0 3.179-1.05 3.802-2.538l-1.737-.965a2.16 2.16 0 0 1-2.07 1.549M6.25 30.25h.5v-.413a4 4 0 0 0-.5.271v.141Z"
            class="neutral1"
            fill="#2b2b2b"
          ></path>
          <path
            d="M8.375 35.796c.981 0 1.801-.655 2.07-1.549l-.386-.214a2 2 0 0 1-.059.189v.528l-.75.75H7.5l-.75-.5v-.778c-.069-.187-.112-.386-.112-.597s.043-.41.112-.597v-.83a2.15 2.15 0 0 0-.546 1.426c0 1.199.972 2.171 2.171 2.171Z"
            class="secondary"
            fill="#FFDE00"
          ></path>
          <path
            d="M10 34v.222q.035-.092.059-.189z"
            class="secondary"
            fill="#FFDE00"
          ></path>
          <path
            d="M10 34v.222q.035-.092.059-.189z"
            class="shadow"
            fill="#353535"
            opacity=".3"
          ></path>
          <path
            d="M6.75 34.222v-1.193c-.069.187-.112.386-.112.597s.043.41.112.597Z"
            class="secondary"
            fill="#FFDE00"
          ></path>
          <path
            d="M6.75 34.222v-1.193c-.069.187-.112.386-.112.597s.043.41.112.597Z"
            class="shadow"
            fill="#353535"
            opacity=".3"
          ></path>
          <path
            d="M6.75 28.75H10L7 28h-.25v.75M7.75 31h.5v.5h-.5z"
            class="primary"
            fill="#367C2B"
          ></path>
          <path
            d="M7.75 31h.5v.5h-.5z"
            class="shadow"
            fill="#353535"
            opacity=".3"
          ></path>
          <path
            d="m26.5 24.25.5-.75-.5-.75H24l.5 1.5z"
            class="secondary"
            fill="#FFDE00"
          ></path>
          <circle
            cx="8.375"
            cy="33.878"
            r="1.122"
            class="neutral1"
            fill="#2b2b2b"
          ></circle>
          <path
            d="m30.75 29.5-.25 1 .25.25.596-3.178L29.5 29.25h1z"
            class="primary"
            fill="#367C2B"
          ></path>
          <path
            d="M37.5 36.25v-1.5l-.75.346v1.154h.75M38.25 36.25h.5v-1.5h1l-.25 1.5h.5l.25-.75H41V35l-.5-.5h.75v1.25h-.75V36h2v-2h-3v-.25h-1.25zm3.5-2a.25.25 0 1 1 0 .5.25.25 0 0 1 0-.5m0 1a.25.25 0 1 1 0 .5.25.25 0 0 1 0-.5m-1.25-.5a.25.25 0 1 1 0 .5.25.25 0 0 1 0-.5"
            class="neutral2"
            fill="#808082"
          ></path>
          <path
            d="m20.25 25.75 5.25.75-.25-1.5H26l.5-.75h-2l-.5-1.5v-.5h2.25l1-1V20l-.25-.25h-.75v-.5h-2v.5h-.75l-.25-.5-.75-.25h-.75l-1 .25-1.75.25-1.25-3-.25.25v1l.75 2.25H17l1 1.75z"
            class="neutral1"
            fill="#2b2b2b"
          ></path>
          <path
            d="M20.75 19.25 19 16.75l-.75-.25h-.5l1.25 3z"
            class="secondary"
            fill="#FFDE00"
          ></path>
          <path
            d="m22.25 33.75-6.75-1.5H15L14.75 35l1 .75h4.5l1.25-.5V35zM10 28.75l3.75.5-.5 1 1.25 1.5h.5l7.5 1.5 1-1.5h3.203a4.46 4.46 0 0 1 2.797-1c.722 0 1.395.186 2 .488V31l-.75-.25-.25-.25.25-1-.25-.25h-4.75l-.25-.5-.25-.25-2.25-.25v.5h-1.5v-.25l-.25-.25-5.5-1h-.25l-.75.75L8 27H6.75l-.5-.25.5-1.75.75-1 .5-.5V23l-.75.75-.75 1-.75 2.5.5.5.5.25H7zm4.5.75 7.75 1.5-.25.25-7.75-1.5zM2.75 30.25V30l.5-.75 3.5-.75V28L3 28.75l-1 1.5v.5h3.25v-.5z"
            class="neutral1"
            fill="#2b2b2b"
          ></path>
          <path
            d="M6.75 31h.75v.75h.75v.5h.5L9 32v-1h.25v-1.25H8l-.25.25h-1v.25h-.5V30h-1v1zm1 0h.5v.5h-.5z"
            class="neutral2"
            fill="#808082"
          ></path>
          <path
            d="m15.5 32.25 6.75 1.5.25-.5-7.5-1.5h-.5l-1.25-1.5.5-1-3.75-.5H6.5v.75h3l.25.25v2.5h.75V33l1.25 1H13l.5-.75V35h.5v-1.75h.5v1.25h-.25v.75h.5V35l.25-2.75zm-1.842-.5h-2.816c.207-.581.756-1 1.408-1s1.202.419 1.408 1M10.75 29l1.5.25-.5.75-1-.5zm1.5 4.75a1.5 1.5 0 0 1-1.5-1.5h2.75v.827a1.5 1.5 0 0 1-1.25.673"
            class="neutral2"
            fill="#808082"
          ></path>
          <path
            d="M13.5 34.5v-1.25L13 34v.5zM14.5 34.5v-1.25H14v1.25h.5M32 19h.75l.25 1.25V18.5l-1-1-.5-1.5.75-.75-.5-.5-4 4 .5.5 1-1 1.5.75v.25l1 .75v-.5zm-1-.75-1.25-.5 1-1 .75 1.5z"
            class="neutral1"
            fill="#2b2b2b"
          ></path>
          <path
            d="m32.75 26.25-.25.5h-.25l-.42 2.38.42-.63 1.5-2 .25-1.75-1-4.5-.25-1.25H32l-.25.5v.5l1.142 5.027-.892.223-.25.25v.25L32 26l.225.075zm-.125-1a.375.375 0 1 1 0 .75.375.375 0 0 1 0-.75M37 28.75l.75-1.75-.75-.25-.75 1.5-.25.25.5.75zM37.5 36.25h.75v-2.5h-4v-1h.5v.5h3.5V33H35.5l-3-1.25v-.25h1.75l1.5-1.5-.5-.75-1 1h-2.618L31.5 31v.238c1.476.738 2.5 2.249 2.5 4.012 0 .345-.047.677-.12 1h.37l2.5-1.154.75-.346zM38.75 34.75v1.5h.75l.25-1.5zM25.624 33a4.5 4.5 0 0 1 1.079-1.25H23.5l-1 1.5-.25.5L21.5 35v.25l1.5-1L24.5 33zM25 35.75l-.5.25v1.75h1.26a4.5 4.5 0 0 1-.697-1.874z"
            class="primary"
            fill="#367C2B"
          ></path>
          <path
            d="M44.75 33.25 44 32h-1.75l-.75 1.25-.5.5h-.75V33h-1v.25h-4.5v-.5h-.5v1h5.25V34h3v2h-2l-.5.5 1 .75v1.25h3.5l1-1 .5-3zm-2.75 0 .5-.75h1.25l.5.75z"
            class="neutral1"
            fill="#2b2b2b"
          ></path>
          <path
            d="m39.75 36.5-3-.25v.25H36v.5h-.5v1.75l.25.25a.5.5 0 0 1 .5-.5V38h.5v1a.5.5 0 0 1-.077.25h1.577a1.125 1.125 0 1 1 0-2.25 1.125 1.125 0 0 1 0 2.25h1.327A.5.5 0 0 1 39.5 39a.5.5 0 0 1 .5-.5V38h.5v1a.5.5 0 0 1-.077.25H41v-2zm-2.528.5a.222.222 0 1 1 0-.444.222.222 0 0 1 0 .444m3.278.5H40V37h.5z"
            class="neutral2"
            fill="#808082"
          ></path>
          <path
            d="m31.5 31 .132-.75.198-1.12.42-2.38h-.75l-.154.822-.596 3.178z"
            class="neutral1"
            fill="#2b2b2b"
          ></path>
          <path
            d="M23.5 37h.25v-.5h.75V36l.5-.25.063.126c-.029-.207-.063-.412-.063-.626 0-.621.126-1.212.353-1.75h-.103l-.75 1.167v-.417h-.75v1.583L23 37z"
            class="neutral2"
            fill="#808082"
          ></path>
          <path
            d="M24.5 36.5h-.75v.5H22.5v.75h2V36.5"
            class="neutral1"
            fill="#2b2b2b"
          ></path>
          <circle
            cx="38.25"
            cy="38.125"
            r="1.125"
            class="primary"
            fill="#367C2B"
          ></circle>
          <path
            d="M36.75 38h-.5v.5a.5.5 0 0 0 0 1 .49.49 0 0 0 .423-.25.5.5 0 0 0 .077-.25zm-.25 1a.25.25 0 1 1-.5 0 .25.25 0 0 1 .5 0M40.5 38H40v.5a.5.5 0 0 0-.5.5c0 .093.032.175.077.25.087.147.24.25.423.25s.336-.103.423-.25A.5.5 0 0 0 40.5 39zm-.25 1a.25.25 0 1 1-.5 0 .25.25 0 0 1 .5 0"
            class="neutral1"
            fill="#2b2b2b"
          ></path>
          <circle
            cx="36.25"
            cy="39"
            r=".25"
            class="neutral2"
            fill="#808082"
          ></circle>
          <circle
            cx="40"
            cy="39"
            r=".25"
            class="neutral2"
            fill="#808082"
          ></circle>
          <path
            d="M37.222 36.555a.222.222 0 1 0 0 .444.222.222 0 0 0 0-.444"
            class="primary"
            fill="#367C2B"
          ></path>
          <path
            d="M37.676 25.296h.447v.559h-.447z"
            class="primary"
            transform="rotate(-63.435 37.9 25.575)"
            fill="#367C2B"
          ></path>
          <path
            d="m38.25 26-.2-.1-.5-.25-.3-.15H37l-.5 1 .5.25.75.25zM36.5 29.25l-.5-.75-.75.75.5.75z"
            class="neutral2"
            fill="#808082"
          ></path>
          <path
            d="m7.25 25.75 11 1.5-.25-1-10.75-1z"
            class="stripe"
            fill="#FFDE00"
          ></path>
          <circle
            cx="16.5"
            cy="19.75"
            r=".25"
            class="neutral2"
            fill="#808082"
          ></circle>
          <circle
            cx="12.5"
            cy="34.75"
            r=".25"
            class="neutral1"
            fill="#2b2b2b"
          ></circle>
          <circle
            cx="16.75"
            cy="20.5"
            r=".25"
            class="neutral2"
            fill="#808082"
          ></circle>
          <circle
            cx="32.625"
            cy="25.625"
            r=".375"
            class="neutral2"
            fill="#808082"
          ></circle>
          <path
            d="m12.25 29.25-1.5-.25v.5l1 .5z"
            class="neutral3"
            fill="#f2f2f2"
          ></path>
          <circle
            cx="40.5"
            cy="35"
            r=".25"
            class="neutral1"
            fill="#2b2b2b"
          ></circle>
          <circle
            cx="41.75"
            cy="34.5"
            r=".25"
            class="neutral3"
            fill="#f2f2f2"
          ></circle>
          <circle
            cx="41.75"
            cy="35.5"
            r=".25"
            class="neutral3"
            fill="#f2f2f2"
          ></circle>
          <path
            d="m22.25 31-7.75-1.5-.25.25 7.75 1.5z"
            class="neutral2"
            fill="#808082"
          ></path>
          <path
            d="M40 37h.5v.5H40zM10.842 31.75h2.816c-.207-.581-.756-1-1.408-1s-1.202.419-1.408 1M10.75 32.25a1.5 1.5 0 0 0 2.75.827v-.827zM23 35.25v-1l-1.5 1z"
            class="neutral1"
            fill="#2b2b2b"
          ></path>
          <path
            d="M40.25 33.75V34h2.25l.25-.5H45l-.25-.25H41.5l-.5.5z"
            class="highlight"
            fill="#fefeff"
            opacity=".31"
          ></path>
          <path
            d="M45 33.5h-.5l1 1L45 38l.5-.5.5-3zM20.5 19.75H27l.25.25H20.5zM18.5 20.75h8.75V21H18.5zM22.75 22.5l-.25 1.25-2.25-.25.25-1zM22.5 24l.25.75H20.5l-.25-1zM25 26.25l-4.5-.75v-.25h3.25l.5.25zM8 23v.5l6-2.75h1.75L16 20h-2z"
            class="highlight"
            fill="#fefeff"
            opacity=".31"
          ></path>
          <path
            d="M8 23v.5l6-2.75h1.75L16 20h-2zM26.25 26.5h-.75l-5.25-.75H20l-1.25-.25h-1.5L8 25l10.5 1h.5l1.25.25h.25l4.25.75L26 28.5l1.25-.5zM15 29l7.75 1.5-.25.25-7.75-1.5zM16.75 22l.25-.25h1l-.25.25zM33.75 26.5l.25-1.75-2 .5-.25.25v.25L32 26l.75.25zM26.75 31.75h-.5l.5-.5 1-.5 1-.25H30l.75.25V31zM30.75 29.5l-.25-.25h-4.75l.25.25z"
            class="highlight"
            fill="#fefeff"
            opacity=".31"
          ></path>
          <path
            d="M25.75 29.25v2l.25.25v-2zM15.75 20.75l.5 1.25h-2.5L7.5 24l.5-.5 6-2.75zM16 27.5l-.25-.25 5.5 1 .25.25z"
            class="highlight"
            fill="#fefeff"
            opacity=".31"
          ></path>
          <path
            d="m15.75 27.25.25.25h-.25l-.75.75h-.5l1-1zM23 28.25l.25.25 2.25.25-.25-.25z"
            class="highlight"
            fill="#fefeff"
            opacity=".31"
          ></path>
          <path
            d="M23 28.25V30l.25.25V28.5z"
            class="highlight"
            fill="#fefeff"
            opacity=".31"
          ></path>
          <path
            d="M10 28.75V29h.25v2.75H14v2.75h.5v-2.25l.5-.5h-.5l-1.25-1.5.5-1z"
            class="shadow"
            fill="#353535"
            opacity=".3"
          ></path>
          <path
            d="M10 28.75V29h.25v2.75H14v2.75h.5v-2.25l.5-.5h-.5l-1.25-1.5.5-1z"
            class="shadow"
            fill="#353535"
            opacity=".3"
          ></path>
          <path
            d="M10.5 32.25h3v2.25H13V34h-1.25l-1.25-1zM38.75 36.25v-1.5h1l-.25 1.5zM22.25 33.75 21.5 35v.25H23v-1l1.25-.75h1.25l1.25-1.75H23.5l-1 1.5zM38.25 34.25v.5h1.5l.5-.5z"
            class="shadow"
            fill="#353535"
            opacity=".3"
          ></path>
          <path
            d="M25.25 33.5 23 37h1.5v-1l.5-.25.25.5h.25V33.5zM37.5 36.25h.75V34.5h-3l-1 1.75 3.25-1.5z"
            class="shadow"
            fill="#353535"
            opacity=".3"
          ></path>
          <circle
            cx="38.25"
            cy="38.125"
            r=".75"
            class="shadow"
            fill="#353535"
            opacity=".3"
          ></circle>
          <path
            d="m18.25 25.5-2-3.5-.5-1.25L16 20l1 1.75-.25.25 2 3.5zM26 28.5l-.25.75h1v-.5l.5-.75zM15.75 19.25l-1-2.75h1l1 2.75zM17.75 22 20 25.75h.25l-2.25-4zM27 23.5h-2.75l.25.75h2zM34.25 32.75l-1.75-.25.25 1.25h1.5zM40 38h-.25v-.5h.75v-.25h.5l-.5-.25H39v.25h.5v1h.5z"
            class="shadow"
            fill="#353535"
            opacity=".3"
          ></path>
          <path
            d="M31.5 31.24c-.6-.3-1.28-.49-2-.49-1.06 0-2.03.38-2.8 1A4.8 4.8 0 0 0 25.62 33H24.5L23 34.25l1.25-.75h1.1a4.6 4.6 0 0 0-.35 1.75c0 .21.03.42.06.63.1.68.33 1.32.7 1.87.81 1.21 2.18 2 3.74 2 2.14 0 3.92-1.5 4.38-3.5.07-.32.12-.66.12-1 0-1.76-1.02-3.27-2.5-4.01m-2 6.38c-1.31 0-2.37-1.06-2.37-2.37s1.06-2.37 2.37-2.37 2.37 1.06 2.37 2.37-1.06 2.37-2.37 2.37"
            class="neutral1"
            fill="#2b2b2b"
          ></path>
          <path
            d="M31.868 35.25a2.368 2.368 0 1 0-4.736 0 2.368 2.368 0 0 0 4.736 0m-4.263 0a1.895 1.895 0 1 1 3.79 0 1.895 1.895 0 0 1-3.79 0"
            class="secondary"
            fill="#FFDE00"
          ></path>
          <path
            d="M31.395 35.25a1.895 1.895 0 1 0-3.79 0 1.895 1.895 0 0 0 3.79 0m-2.842 0a.947.947 0 1 1 1.894 0 .947.947 0 0 1-1.894 0"
            class="secondary"
            fill="#FFDE00"
          ></path>
          <path
            d="M31.395 35.25a1.895 1.895 0 1 0-3.79 0 1.895 1.895 0 0 0 3.79 0m-2.842 0a.947.947 0 1 1 1.894 0 .947.947 0 0 1-1.894 0"
            class="shadow"
            fill="#353535"
            opacity=".3"
          ></path>
          <path
            d="M30.447 35.25a.947.947 0 1 0-1.894 0 .947.947 0 0 0 1.894 0"
            class="secondary"
            fill="#FFDE00"
          ></path>
          <path
            d="M30.447 35.25a.947.947 0 1 0-1.894 0 .947.947 0 0 0 1.894 0"
            class="shadow"
            fill="#353535"
            opacity=".3"
          ></path>
          <path
            d="M30.447 35.25a.947.947 0 1 0-1.894 0 .947.947 0 0 0 1.894 0"
            class="shadow"
            fill="#353535"
            opacity=".3"
          ></path>
          <path
            d="M23.75 34.25h.75v2.25h-.75z"
            class="neutral2"
            fill="#808082"
          ></path>
          <path
            d="m16.75 22 .25-.25L16 20v.25z"
            class="neutral1"
            fill="#2b2b2b"
          ></path>
          <path
            d="M10.75 29v.5l1 .5.5-.75z"
            class="neutral3"
            fill="#f2f2f2"
          ></path>
        </g></svg>
