<svg xmlns="http://www.w3.org/2000/svg"
  class="css-9txd9r"
  focusable="false"
  viewBox="0 0 32 32"
  data-icon-name="TurfGatorXuv835r"
  size="65"
>
  <path
    id="TurfGatorXuv835r__outline"
    d="M27.843 26.506a4.12 4.12 0 0 1-3.925-2.878c-.549-.051-1.216-.145-1.674-.318l-2.906-.341-5.085-.146a1 1 0 0 1-.467-.132l-.476-.272-1.385.517q-.17.062-.349.062h-.33a4.42 4.42 0 0 1-4.317 3.509 4.414 4.414 0 0 1-3.485-7.116l-2.409-.014a1 1 0 0 1-.993-1.037l.059-1.605a1 1 0 0 1 .058-.3l.03-2.166a1 1 0 0 1 .067-.338l.067-.554a1.24 1.24 0 0 1 1.381-1.085l1.135.129a1 1 0 0 1 .242.049l9.197.265q.078-.08.17-.14l-.432-4.756-.772-.534a1 1 0 0 1-.288-1.339l.239-.396a1 1 0 0 1 .818-.483s.65-.025 1.635-.025c3.158 0 7.292.239 9.059 1.378a1 1 0 0 1 .221 1.488c.872 1.451 2.367 4.057 3.229 6.229 1.9.457 4.118 1.25 4.345 2.875l.312.051a1 1 0 0 1 .833 1.088l-.051.505-.021.155c-.037.279-.072.54-.107.719q-.06.33-.19.59c.441.664.682 1.444.682 2.25a4.124 4.124 0 0 1-4.117 4.116m-23.14-8.209q.067-.04.138-.076l-.125-.003z"
    class="outline"
    fill="#FFFFFF"
  ></path>
  <g id="TurfGatorXuv835r__main_shape">
    <path
      d="m25.334 14.993-.807 1.724.692-.207s3.314-.444 4.299.749c-.055-1.214-2.543-1.912-4.184-2.266"
      class="primary"
      fill="#367C2B"
    ></path>
    <path
      d="m29.632 17.939-.277 1.927-2.857.219-2.183 2.34-.957.009s.533-4.122 1.041-5.443l.126-.271q.001-.004.003-.003l.068-.145c.17-.061 3.834-.604 4.922.687.151.344.114.68.114.68M8.803 20.758l.85 1.239h1.923l2.025-.754-.144-.31-3.896-.491z"
      class="quaterary"
      fill="#333"
    ></path>
    <path
      d="m8.555 19.513 1.098 2.484h1.923l2.025-.754-.133-1.484-3.508-.246z"
      class="quaterary"
      fill="#333"
    ></path>
    <circle
      cx="6.929"
      cy="22.097"
      r="3.409"
      class="quaterary"
      fill="#333"
    ></circle>
    <circle
      cx="6.929"
      cy="22.097"
      r="1.655"
      class="secondary"
      fill="#FFDE00"
    ></circle>
    <path
      d="M25.73 16.04c-.73-3.051-4.358-8.732-4.358-8.732-4.041-1.398-8.482-.905-8.482-.905l.994 10.945-7.211-.271-.034 2.343 6.561.859.277 1.082.805.461 5.172.153 3.051.358c.46.246 1.974.334 1.974.334l-.133-2.286zM15.655 7.451c1.237.047 3.224.198 4.874.674l1.68 2.622.182 3.07-1.377-.055-.955-.464-5.154-.438-.34-4.267a1.055 1.055 0 0 1 1.09-1.142"
      class="quaterary"
      fill="#333"
    ></path>
    <path
      d="M30.599 18.573c-.04.302-.077.594-.114.785-.108.613-.514.763-.514.763l-.379-.302-.21-.142.203-1.446s-2.333-.207-3.256-.207c-.81 0-.945.582-.96.656l-.862 3.731a.166.166 0 0 1-.2.123l-.058-.012a.166.166 0 0 1-.123-.2l.859-3.719c.062-.339.419-.973 1.345-.973.979 0 3.346.286 3.58.314.009.003.741.124.741.124z"
      class="quaterary"
      fill="#333"
    ></path>
    <path
      d="m29.355 19.866.2-1.394a.26.26 0 0 0-.223-.292l-2.826-.353-1.039.306-.586 1.783-.393 2.323.687-.753z"
      class="shadow"
      opacity=".3"
    ></path>
    <path
      d="M2.403 16.892c-.003.009-1.251 0-1.251 0l.036-2.611c.003-.132 1.367-.023 1.367-.023z"
      class="tertiary"
      fill="#808082"
    ></path>
    <path
      d="M25.73 16.04s2.966.168 3.386.578c.25.244.401.64.401.64s-.552-.63-1.675-.749c-1.224-.129-2.243-.063-2.243-.063z"
      class="shadow"
      opacity=".3"
    ></path>
    <path
      d="m14.319 13.477-1.326-.046-.097.321-10.05-.289a.2.2 0 0 0-.12-.049l-1.139-.129a.245.245 0 0 0-.271.212l-.096.785.739.031c.105.006.493.579.483.653L2.2 16.813l-1.1-.042-.058 1.605 2.638.015s.139-1.139.339-1.191l1.619.04h.028l4.929.123.376.366 3.737.145zm-8.881.746-2.084-.068a.33.33 0 0 1-.305-.228l-.025-.071 2.577.077a.9.9 0 0 1-.163.29m4.165.132-3.316-.108a.52.52 0 0 1-.068-.296l3.54.102a.8.8 0 0 1-.156.302m3.159-.166a.33.33 0 0 1-.336.256l-1.992-.065a.46.46 0 0 1-.058-.299v-.009l2.395.068z"
      class="quaterary"
      fill="#333"
    ></path>
    <path
      d="m13.967 16.524-.049-1.395a.24.24 0 0 0-.231-.23l-10.246-.357a.24.24 0 0 0-.246.217l-.05.555a.24.24 0 0 0 .222.26l6.789.448h.03c.107-.007.835-.037 1.375.445a.24.24 0 0 0 .149.064c.455.018 1.484.163 1.984.237a.238.238 0 0 0 .273-.244M14.819 15.017l.114 1.728s5.982 1.049 7.605 1.54l.404-.471-.827-2.142c-.001.001-4.5-.584-7.296-.655M12.97 7.281l-1.158-.8.239-.396s7.8-.298 10.114 1.193l-.536.439s-.19-1.056-7.484-1.245z"
      class="primary"
      fill="#367C2B"
    ></path>
    <path
      d="m14.904 12.862-.34-4.267a1.056 1.056 0 0 1 1.091-1.143c1.237.047 3.224.198 4.874.674l1.68 2.622.182 3.07-1.377-.055-.955-.464z"
      class="window"
      opacity=".3"
      fill="#5dc9e8"
    ></path>
    <path
      d="m24.074 14.719-1.817-.482a1.75 1.75 0 0 0 .52-1.406l.081-.067a.224.224 0 0 0 .03-.31.226.226 0 0 0-.312-.032l-2.47 2.042a.223.223 0 0 0-.032.311.22.22 0 0 0 .312.03l.147-.122c.224.063.463.082.701.051.222-.027.524-.071.524-.071l1.481 1.854zm-3.166-.347 1.514-1.249a1.8 1.8 0 0 1-.605.886 1.74 1.74 0 0 1-.909.363"
      class="quaterary"
      fill="#333"
    ></path>
    <path
      d="M29.593 17.482c-.079-.758-3.88-1.033-4.578-.291-.697.742-.85 2.998-.85 2.998s.383-2.181.895-2.666c.513-.485 2.066-.603 3.695-.377.533.082.838.336.838.336"
      class="highlight"
      opacity=".3"
      fill="#fff"
    ></path>
    <circle
      cx="27.843"
      cy="22.39"
      r="3.115"
      class="quaterary"
      fill="#333"
    ></circle>
    <circle
      cx="27.843"
      cy="22.39"
      r="1.513"
      class="secondary"
      fill="#FFDE00"
    ></circle>
    <path
      d="m13.791 15.013-10.398-.416-.035.346 10.438.437z"
      class="secondary"
      fill="#FFDE00"
    ></path>
    <path
      d="M22.294 19.11s-6.64-1.316-7.291-1.283l.047 2.702 3.83-.087-3.045-.582-.072-1.172zM10.97 17.729l-.376-.366-3.955-.099v.512l3.614.14s.436.331.488.331c.026 0 2.533-.302 3.225-.42z"
      class="shadow"
      opacity=".3"
    ></path>
  </g>
</svg>
